<svg width="116" height="122" viewBox="0 0 116 122" fill="none" xmlns="http://www.w3.org/2000/svg">
<path d="M24.9084 24.2245C24.9436 24.3592 25.0914 24.4323 25.2213 24.3752L32.23 21.2548C32.358 21.1973 32.4055 21.0396 32.3274 20.921C31.3868 19.5008 30.1581 18.3001 28.7793 17.3961L29.5607 15.7989H33.6829C33.8086 15.7989 33.9104 15.6971 33.9104 15.5713C33.9104 15.4455 33.8086 15.3438 33.6829 15.3438H29.4185C29.3314 15.3438 29.2523 15.3931 29.214 15.4713L28.3899 17.156C26.6969 16.1344 24.806 15.5504 22.9532 15.5504C22.8058 15.5504 22.6958 15.6892 22.7328 15.8353L24.9084 24.2245Z" fill="black"/>
<path d="M32.9934 25.8559C32.7081 24.7572 32.2223 23.6848 31.549 22.6675C31.4876 22.575 31.3681 22.5399 31.2668 22.5852L24.5028 25.5959L22.3949 17.4671C22.3687 17.3671 22.278 17.2969 22.1744 17.2969C17.4175 17.2969 14.4561 21.1456 15.707 25.9705C16.5551 29.2409 19.1469 32.086 22.2359 33.5265L21.5882 34.8504H17.4656C17.3398 34.8504 17.2381 34.9522 17.2381 35.078C17.2381 35.2038 17.3398 35.3055 17.4656 35.3055H21.7304C21.8176 35.3055 21.8967 35.2562 21.9349 35.178L22.6551 33.7056C29.029 36.3778 34.6477 32.2372 32.9934 25.8559ZM22.8533 33.3003L23.6638 31.6434C23.7189 31.5305 23.6722 31.394 23.5593 31.3389C23.4478 31.2856 23.3104 31.33 23.2549 31.4434L22.4341 33.1211C19.4614 31.7414 16.9642 29.0043 16.1478 25.8559C14.9952 21.4121 17.6121 17.8468 21.9989 17.7538L24.1295 25.9706C24.1642 26.103 24.3093 26.1786 24.4424 26.1212L31.2743 23.0799C31.8654 24.0066 32.2952 24.9782 32.5525 25.9706C34.1036 31.9517 28.8976 35.809 22.8533 33.3003Z" fill="black"/>
<path d="M32.1377 14.209H33.683C33.8088 14.209 33.9106 14.1072 33.9106 13.9815C33.9106 13.8557 33.8088 13.7539 33.683 13.7539H32.1377C32.0119 13.7539 31.9102 13.8557 31.9102 13.9815C31.9102 14.1073 32.0119 14.209 32.1377 14.209Z" fill="black"/>
<path d="M19.3124 36.457H17.7666C17.6408 36.457 17.5391 36.5588 17.5391 36.6846C17.5391 36.8104 17.6408 36.9121 17.7666 36.9121H19.3124C19.4381 36.9121 19.5399 36.8104 19.5399 36.6846C19.5399 36.5588 19.4381 36.457 19.3124 36.457Z" fill="black"/>
<path d="M42.0694 17.1934H55.243C55.3687 17.1934 55.4705 17.0916 55.4705 16.9658C55.4705 16.8401 55.3687 16.7383 55.243 16.7383H42.0694C41.9436 16.7383 41.8418 16.8401 41.8418 16.9658C41.8418 17.0916 41.9436 17.1934 42.0694 17.1934Z" fill="black"/>
<path d="M55.6043 19.7461H42.4307C42.3049 19.7461 42.2031 19.8479 42.2031 19.9736C42.2031 20.0994 42.3049 20.2012 42.4307 20.2012H55.6043C55.7301 20.2012 55.8318 20.0994 55.8318 19.9736C55.8318 19.8479 55.7301 19.7461 55.6043 19.7461Z" fill="black"/>
<path d="M48.5368 22.7539H42.792C42.6662 22.7539 42.5645 22.8557 42.5645 22.9815C42.5645 23.1072 42.6662 23.209 42.792 23.209H48.5368C48.6626 23.209 48.7644 23.1072 48.7644 22.9815C48.7644 22.8557 48.6626 22.7539 48.5368 22.7539Z" fill="black"/>
<path d="M47.2117 35.9212C47.1877 35.8186 47.0957 35.7461 46.9904 35.7461H43.4522C43.3085 35.7461 43.1965 35.8801 43.2308 36.0261L44.1131 39.7656C44.137 39.8683 44.2291 39.9407 44.3344 39.9407H47.8726C48.0162 39.9407 48.1282 39.8067 48.0939 39.6607L47.2117 35.9212Z" fill="black"/>
<path d="M40.6922 31.3548C40.6682 31.2521 40.5761 31.1797 40.4708 31.1797H36.9327C36.789 31.1797 36.677 31.3137 36.7113 31.4597L38.6704 39.764C38.6944 39.8667 38.7864 39.9391 38.8917 39.9391H42.4303C42.574 39.9391 42.686 39.8051 42.6517 39.6592L40.6922 31.3548ZM39.0717 39.484L37.2202 31.6348H40.2908L42.1428 39.484H39.0717Z" fill="black"/>
<path d="M36.3279 35.9212C36.3039 35.8186 36.2119 35.7461 36.1066 35.7461H32.5684C32.4247 35.7461 32.3127 35.8801 32.3471 36.0261L33.2293 39.7656C33.2533 39.8683 33.3453 39.9407 33.4506 39.9407H36.9888C37.1324 39.9407 37.2445 39.8067 37.2101 39.6607L36.3279 35.9212Z" fill="black"/>
<path d="M85.9879 19.8819C86.1719 20.1521 86.435 20.3325 86.667 20.4921C86.7709 20.5633 86.9123 20.5368 86.9834 20.4334C87.0545 20.3299 87.0283 20.1881 86.9248 20.117C86.7159 19.9734 86.4999 19.825 86.3639 19.6259C86.0384 19.1465 86.3687 18.9248 86.6719 18.7174C87.3687 18.2352 87.9283 17.529 88.2474 16.7295C88.2936 16.6126 88.2367 16.4801 88.1203 16.4335C88.0016 16.3886 87.8709 16.4441 87.8243 16.5606C87.5385 17.2783 87.0372 17.9112 86.4127 18.3432C85.8616 18.7196 85.52 19.195 85.9879 19.8819Z" fill="black"/>
<path d="M89.2521 21.8177C89.1352 21.771 89.0027 21.8239 88.9543 21.9404C88.7112 22.5239 88.0663 22.9137 87.461 22.8483C87.3405 22.8355 87.2236 22.9252 87.2103 23.0501C87.197 23.175 87.2872 23.2874 87.4121 23.3008C88.2252 23.3879 89.0512 22.8912 89.3747 22.1155C89.4227 21.9995 89.368 21.8661 89.2521 21.8177Z" fill="black"/>
<path d="M89.0312 20.0948C89.3218 20.1506 89.6386 19.7447 89.7391 19.1882C89.8395 18.6317 89.6855 18.1352 89.3948 18.0794C89.1044 18.0234 88.7874 18.4293 88.6869 18.986C88.5865 19.5424 88.7407 20.0389 89.0312 20.0948Z" fill="black"/>
<path d="M84.7747 17.0598C84.4842 17.004 84.1673 17.4099 84.0668 17.9665C83.9664 18.5231 84.1205 19.0195 84.411 19.0753C84.7016 19.1312 85.0185 18.7252 85.119 18.1688C85.2194 17.6121 85.0653 17.1158 84.7747 17.0598Z" fill="black"/>
<path d="M96.2224 21.363C96.8563 21.4348 97.2762 20.6798 96.8872 20.1532C96.7079 19.9113 96.3421 20.1816 96.521 20.4234C96.6683 20.6234 96.531 20.9246 96.2686 20.9105C95.97 20.8779 95.9221 21.3331 96.2224 21.363Z" fill="black"/>
<path d="M84.7078 14.9516C85.2615 14.8632 85.8455 15.0343 86.2691 15.4143C86.3126 15.4534 86.3669 15.4725 86.4211 15.4725C86.6286 15.4725 86.728 15.215 86.5731 15.0756C86.0477 14.6036 85.3224 14.3885 84.634 14.5028C84.51 14.5227 84.426 14.6401 84.4464 14.7641C84.4664 14.888 84.5864 14.9738 84.7078 14.9516Z" fill="black"/>
<path d="M89.4737 16.196C90.0835 16.0724 90.7675 16.3493 91.1354 16.8684C91.1799 16.9311 91.2501 16.9644 91.3212 16.9644C91.5045 16.9644 91.614 16.7563 91.507 16.6053C91.0306 15.9342 90.1768 15.5897 89.3839 15.7497C89.2608 15.7746 89.1808 15.8946 89.2057 16.0177C89.2306 16.1413 89.3523 16.22 89.4737 16.196Z" fill="black"/>
<path d="M114.862 99.2094C114.841 98.8105 114.703 98.4732 114.442 98.2116C113.66 97.4301 112.266 96.9581 111.276 96.8885C111.038 96.5975 110.412 96.0523 109.969 95.8223C109.6 95.6292 109.338 95.5925 109.047 95.5897C108.961 95.428 108.759 95.1179 108.041 93.4933C108.628 92.604 109.047 91.6987 109.295 90.7717C109.445 90.2184 109.302 89.6153 108.913 89.1593C102.485 81.531 97.3632 70.2994 94.842 58.3232C95.1285 58.182 95.3661 58.0292 95.534 57.8619C95.5629 57.833 95.5838 57.797 95.594 57.7575C95.6106 57.6939 97.2152 51.4456 97.8754 45.1002C98.058 45.0192 98.3426 44.9271 98.3331 44.7261C98.3147 44.3074 98.4002 46.2427 98.1531 40.6315C98.2153 36.2551 97.4802 33.3471 95.9682 31.9894C94.1633 30.3644 90.8374 29.3044 88.8318 28.7802C88.8458 28.7345 89.2555 27.042 89.2757 26.7682C90.993 26.1452 92.6896 24.8922 93.7736 23.6237C93.9016 23.4725 94.3762 22.6828 94.5043 22.6131C94.5868 22.6237 94.8572 22.9533 95.0549 23.0651C95.5949 23.3655 96.41 23.3886 97.0398 23.1188C97.3639 22.9758 97.6356 22.7745 97.8891 22.525C98.7324 22.3044 99.5044 21.7239 99.7919 20.885C100.119 19.9429 99.6636 18.7222 98.7348 18.4348C99.6061 17.9482 100.469 17.3821 101.092 16.586C101.72 15.7855 102.087 14.7151 101.857 13.7156C101.632 12.716 100.703 11.8713 99.7123 11.9642C99.9157 11.2299 100.026 10.3984 99.6592 9.73501C99.2921 9.07163 98.2793 8.77529 97.7972 9.35462C98.1599 8.65142 97.837 7.66068 97.1382 7.32019C96.4394 6.9796 95.4973 7.35109 95.1966 8.08974C95.3956 6.95748 94.6437 5.73677 93.5645 5.44489C92.4854 5.15301 91.247 5.8385 90.8843 6.9221C90.5526 5.74561 89.1064 5.06896 88.0316 5.58201C86.9524 6.09505 86.5234 7.67399 87.178 8.69564C86.4527 7.94375 85.3382 7.57226 84.3386 7.84649C83.3435 8.1251 82.5341 9.08485 82.5075 10.1507C82.4765 11.2167 83.3036 12.2605 84.3341 12.3533C82.6059 13.0276 81.8518 15.2944 83.1191 16.9494C83.0063 17.5025 82.9114 18.0194 82.804 18.8557C82.4725 21.3096 82.9302 24.4115 84.5019 26.0502C84.0538 27.3826 84.164 27.1434 83.972 27.592C83.93 27.6901 83.8891 27.7902 83.851 27.8918C78.6106 27.7902 68.7197 32.2685 65.6593 33.5463L59.7634 2.70441C59.7429 2.5973 59.6492 2.51953 59.5398 2.51953H2.9899C2.98955 2.51953 2.98919 2.51975 2.98884 2.51975C2.9426 2.51997 2.92383 2.53319 2.87789 2.54708L0.498379 3.88973C0.413488 3.93774 0.368608 4.03463 0.386832 4.13061L8.1854 44.9408C8.19916 45.0123 8.2463 45.0732 8.3125 45.1043L11.2125 46.4634C11.218 46.466 11.2242 46.4652 11.2298 46.4672C11.2326 46.4683 11.2357 46.4683 11.2386 46.4692C11.2617 46.4768 11.2849 46.4848 11.3089 46.4848C11.3121 46.4848 11.3147 46.4818 11.318 46.4816H61.3507L65.9091 56.5824C65.946 56.6637 66.0273 56.7162 66.1167 56.7162H71.4715C71.5377 56.7524 71.6108 56.7866 71.6793 56.8222C68.0699 73.1746 66.6246 89.0886 67.2646 105.467C67.2904 106.146 67.7078 106.754 68.3291 107.017C69.279 107.414 70.3869 107.646 71.6496 107.727C71.6339 108.09 71.6044 108.435 71.6832 108.855C71.2448 108.87 70.8971 109.168 70.8104 109.703C70.7144 110.282 70.431 110.901 70.7178 111.495C70.5781 111.566 70.0998 111.963 69.2 112.249C69.5307 111.526 69.3791 110.447 69.2646 109.65C69.2082 109.224 68.9566 108.959 68.5713 108.923C68.2697 108.894 68.0091 109.077 67.9869 109.569C67.9454 110.336 68.0524 111.005 68.2333 111.768C67.2571 110.768 67.0579 110.618 66.362 110.149C66.2091 110.048 65.7424 109.74 65.2709 110.002C64.8931 110.215 64.7374 110.626 65.0029 111.068C65.2149 111.421 65.4389 111.567 65.7873 111.775C66.03 111.919 66.4455 112.23 66.8028 112.454C65.4677 112.265 64.2355 111.586 62.9651 111.995C61.7425 112.383 60.7993 113.896 61.5549 115.367C61.4417 116.42 61.6613 116.978 62.474 117.71C62.896 118.092 63.3401 118.351 63.7983 118.526C59.1363 118.762 54.4062 118.927 49.6986 119.011C48.5049 119.032 45.7655 119.097 44.6987 118.532C44.5547 118.456 44.4644 118.37 44.4689 118.312C44.476 118.215 44.6813 118.003 45.2173 117.816C46.1777 117.481 46.3672 117.602 48.6715 117.28C48.7924 117.263 48.8786 117.154 48.8666 117.032C48.8541 116.911 48.7462 116.818 48.6266 116.828C47.6382 116.887 46.7964 116.983 46.1093 117.116C43.1618 117.387 39.9965 117.45 36.9703 117.292C34.3868 117.157 32.6241 116.815 32.1344 116.355C32.0246 116.251 32.0379 116.188 32.0428 116.165C32.2108 115.361 35.9035 114.792 36.7205 114.655C37.0074 114.607 36.9524 114.172 36.6534 114.205C35.3253 114.378 29.6819 114.991 28.402 114.608C28.2184 114.553 28.1593 114.497 28.146 114.496C28.1544 114.482 28.1838 114.445 28.266 114.396C29.2065 113.843 34.8318 112.987 38.8668 112.681C38.9921 112.671 39.0858 112.562 39.0765 112.436C39.0668 112.311 38.9565 112.214 38.8321 112.227C35.4903 112.481 32.3984 112.911 29.6429 113.506C28.9813 113.648 27.6135 113.9 27.6918 114.541C27.7109 114.697 27.8264 114.91 28.2713 115.044C29.1801 115.315 31.4073 115.15 32.9419 115.037C32.3766 115.244 31.6975 115.589 31.597 116.072C31.5655 116.226 31.5788 116.457 31.8224 116.686C33.3601 118.132 42.2914 117.837 44.4115 117.704C43.8678 118.082 43.8677 118.607 44.4858 118.934C45.6533 119.552 48.4108 119.489 49.7066 119.466C55.1234 119.37 60.5758 119.171 65.9121 118.875C65.9687 118.872 66.0174 118.846 66.0552 118.81C66.8736 118.758 67.667 118.597 68.4192 118.454C70.8539 117.991 71.5223 118.133 72.7947 118.458C74.0083 118.77 75.357 118.995 76.8476 118.351C76.848 118.351 76.8485 118.351 76.8485 118.351C77.8417 117.919 78.301 117.075 78.1308 116.029C78.3672 115.711 78.4753 115.364 78.4391 114.993C78.3293 113.892 77.5544 112.643 76.8365 111.961C76.8395 111.59 76.6952 110.757 76.5027 110.305C76.3401 109.922 76.1553 109.723 75.9402 109.54C76.0916 108.798 76.0856 108.813 76.4907 107.414C77.3496 107.271 78.256 107.086 79.2124 106.856C79.9609 106.677 80.5017 106.042 80.5586 105.275C81.2876 94.8783 81.9333 81.5593 83.1061 69.3356C86.5772 80.6706 92.4968 91.0257 99.8633 98.589C100.431 99.1721 101.454 99.2899 102.144 98.8472C103.08 98.249 103.92 97.6478 104.675 97.0422C104.855 97.2887 105.09 97.5701 105.323 97.7637C104.961 98.0837 104.94 98.5517 105.186 98.9738C105.491 99.4954 105.656 100.141 106.256 100.416C106.194 100.56 106.075 101.165 105.562 101.96C105.357 101.193 104.55 100.45 103.961 99.9129C103.424 99.4125 102.803 99.7419 102.74 100.125C102.705 100.341 102.828 100.536 102.922 100.663C103.381 101.284 103.879 101.725 104.51 102.204C103.074 102.048 102.842 102.067 102.036 102.143C101.853 102.162 101.297 102.221 101.099 102.722C100.842 103.39 101.402 103.814 102.115 103.814C102.273 103.814 102.433 103.792 102.625 103.764C102.908 103.72 103.432 103.696 103.845 103.643C102.712 104.336 101.31 104.592 100.582 105.724C99.8934 106.798 100.096 108.552 101.638 109.224C101.968 109.73 102.285 110.04 102.695 110.224C100.432 110.237 98.2468 110.227 96.1161 110.191C95.5517 110.182 94.0588 110.157 93.5806 109.899C93.8536 109.748 94.4059 109.684 94.7255 109.666C95.0179 109.649 95.0054 109.211 94.7126 109.211C94.6405 109.211 91.8607 109.359 88.5598 109.147C88.2424 109.126 87.5562 109.083 87.2803 108.953C87.9423 108.443 90.4117 108.281 91.8806 108.447C91.9949 108.461 92.118 108.372 92.1322 108.247C92.1464 108.122 92.0562 108.009 91.9313 107.995C90.2914 107.809 88.254 107.997 87.2971 108.423C86.9483 108.578 86.7754 108.766 86.7829 108.981C86.8025 109.532 87.9707 109.565 88.5305 109.601C90.0242 109.698 91.5891 109.736 93.1291 109.712C93.0236 109.89 93.062 110.132 93.3504 110.292C93.7486 110.515 94.5735 110.62 96.1081 110.646C100.88 110.727 105.68 110.678 110.507 110.543C110.632 110.539 110.731 110.434 110.728 110.309C110.724 110.183 110.627 110.077 110.494 110.087C108.787 110.135 107.138 110.17 105.529 110.193C106.933 109.664 107.934 108.419 108.901 107.253C110.477 105.35 111.125 105.016 112.282 104.474C113.429 103.937 114.615 103.241 115.346 101.816C115.346 101.816 115.346 101.816 115.346 101.816C115.837 100.856 115.656 99.9128 114.862 99.2094ZM105.028 96.7531C106.137 95.8264 107.04 94.8883 107.738 93.932C108.534 95.6945 108.623 95.7272 108.691 95.9001C108.708 95.9361 108.728 95.9776 108.74 96.0165C109.004 96.8092 107.677 97.6379 106.905 97.7729C106.081 97.9309 105.515 97.4228 105.028 96.7531ZM95.1692 57.581C92.9043 59.6467 78.9543 59.6434 72.4962 56.7162H77.2267C77.2664 56.7162 77.3043 56.7053 77.3378 56.6864C77.3384 56.6861 77.3391 56.6863 77.3396 56.6859L78.7458 55.8811C78.8476 55.8228 78.8885 55.697 78.8404 55.5899L77.1153 51.7713C82.0117 52.6861 89.8325 53.1842 93.5572 49.8469C94.803 48.7304 95.1932 47.0922 95.2966 45.8494C96.1711 45.7073 96.891 45.4854 97.3971 45.295C96.7625 51.1826 95.3363 56.9214 95.1692 57.581ZM73.8547 50.0607L73.7854 50.0567C73.5694 50.0443 73.1712 50.0216 72.7983 50.0643C72.3077 50.0478 71.9521 49.966 71.6468 49.7998C71.4228 49.6789 71.1601 49.3945 71.2766 49.1403C71.4103 48.8492 71.7886 48.8407 72.3099 48.8634C72.4242 48.8698 72.6875 48.8675 73.229 48.9305C73.3499 48.9421 73.4672 48.8558 73.4815 48.7305C73.4957 48.6056 73.4063 48.4927 73.2814 48.4781C72.7029 48.4119 72.4189 48.4138 72.3286 48.4087C71.9591 48.3937 71.4893 48.3765 71.1576 48.6018C70.8168 48.4283 70.5045 48.1405 70.6637 47.7941C70.7503 47.6061 70.9759 47.5324 71.0299 47.5039C71.5165 47.3135 72.1978 47.3506 72.6997 47.4012C73.0051 47.4247 73.0394 46.9772 72.7441 46.9479C72.1734 46.8929 71.5593 46.8633 71.0002 47.0363C70.6102 46.5725 70.8701 45.9152 71.7526 46.0079C72.4049 46.0687 72.8456 46.2224 73.9997 46.4679C74.2982 46.527 74.3853 46.0838 74.0939 46.0226L74.0766 46.0188C73.9543 45.7802 73.7947 45.454 73.7441 45.1902C73.6095 44.4871 74.0767 44.0913 74.4135 44.2848C74.5335 44.3537 74.621 44.4928 74.7228 44.6675C75.245 45.5627 75.9625 46.4159 76.6774 47.2963C76.8394 47.4984 77.1753 47.3085 77.056 47.0574C79.4528 47.1813 86.6638 47.4172 88.4017 45.8999C88.9602 45.4162 89.0904 43.7319 89.1244 42.9933C90.5466 42.5919 92.8239 42.6551 94.8323 44.0977C95.0313 45.8494 94.6964 48.2148 93.2532 49.5083C88.3431 53.907 76.6142 51.1707 76.4614 51.1843C75.6919 51.2299 73.5109 51.8236 72.6232 51.1429C72.5197 51.0678 72.4126 50.9905 72.3708 50.8985C72.2634 50.6578 72.4031 50.5745 72.8197 50.5203C73.2031 50.5286 73.7969 50.5058 73.8432 50.5154C74.1363 50.5153 74.1488 50.0755 73.8547 50.0607ZM57.4661 37.8737L59.5218 42.4288C54.7557 39.1197 51.14 31.5773 51.0826 31.4645C50.6337 30.8353 48.9654 29.3112 49.0466 28.1756C49.0506 28.0316 49.0582 27.9148 49.1111 27.8299C49.2946 27.5498 49.4316 27.8142 49.6818 28.0553L50.0613 28.5952C50.2337 28.84 50.6077 28.5819 50.4337 28.3339C50.4016 28.2883 50.0061 27.7273 50.0382 27.7728C49.7847 27.3515 49.6573 26.9993 49.6293 26.6316C49.6066 26.3828 49.6995 25.9992 49.9693 25.9668C50.2915 25.9321 50.4937 26.2539 50.7586 26.717C50.8275 26.8396 50.981 27.0834 51.2061 27.5441C51.3379 27.8129 51.7476 27.6157 51.615 27.3441C51.3749 26.8534 51.2255 26.6189 51.1537 26.4912C50.9669 26.1639 50.7262 25.7506 50.3603 25.5844C50.2438 24.5118 51.1086 24.1412 52.1853 26.2823C52.3181 26.5494 52.7267 26.3472 52.5915 26.0779C52.3294 25.5565 52.0166 25.0076 51.572 24.6223C51.7417 24.0468 52.4276 23.9173 52.8252 24.7281C53.1142 25.309 53.2525 25.7845 53.5026 26.467C53.1291 27.0924 52.8652 27.7209 52.7395 28.5925C52.7217 28.7169 52.8079 28.8325 52.9324 28.8503C53.0528 28.8623 53.1719 28.7818 53.1902 28.6574C53.3233 27.7306 54.0278 25.8043 54.9608 25.8859C55.2998 25.9185 55.5365 26.1731 55.2435 26.7592C54.7825 27.6828 54.4629 28.7524 54.1208 29.8289C54.0534 30.0381 54.2957 30.221 54.4783 30.0725C55.8959 31.9282 59.4434 36.3761 61.728 37.5524H57.6736C57.5078 37.5524 57.399 37.7234 57.4661 37.8737ZM55.0043 25.4326C54.6465 25.3961 54.2095 25.547 53.8221 26.0097C53.6333 25.4719 53.4818 25.0268 53.2332 24.5259C52.6659 23.3768 51.5332 23.5255 51.1747 24.3624C50.5193 24.0775 49.8383 24.5016 49.8964 25.5199C49.3785 25.5949 48.9559 26.2168 49.2942 27.2574C49.0518 27.2416 48.8628 27.3785 48.728 27.5841C48.6022 27.7854 48.596 28.0125 48.592 28.1534C48.4976 29.479 50.2004 31.0464 50.692 31.6943C50.8509 32.0294 54.5544 39.7568 59.5734 43.0123H14.2724L7.96543 10.027H57.3505L62.574 37.3765C60.5669 37.1535 55.8972 31.1933 54.6773 29.5818C54.9537 28.711 55.2459 27.773 55.6505 26.9628C56.1453 25.9733 55.5049 25.4811 55.0043 25.4326ZM53.9096 7.77574C53.2373 7.77574 52.6403 7.2362 52.5695 6.56836C52.4987 5.90492 52.9853 5.36525 53.6531 5.36525C54.3254 5.36525 54.9269 5.9049 54.9976 6.56836C55.0684 7.2362 54.5774 7.77574 53.9096 7.77574ZM49.9335 7.77574C49.2657 7.77574 48.6642 7.2362 48.5978 6.56836C48.5271 5.90492 49.0091 5.36525 49.6814 5.36525C50.3492 5.36525 50.9552 5.9049 51.0215 6.56836C51.0923 7.2362 50.6058 7.77574 49.9335 7.77574ZM45.9618 7.77574C45.2896 7.77574 44.6925 7.2362 44.6217 6.56836C44.551 5.90492 45.0375 5.36525 45.7053 5.36525C46.3776 5.36525 46.9791 5.9049 47.0498 6.56836C47.1206 7.2362 46.6297 7.77574 45.9618 7.77574ZM65.1233 36.5307C65.4587 36.7615 65.9096 37.1399 66.2946 37.5524H63.5308C64.1069 37.2693 64.6273 36.9119 65.1233 36.5307ZM73.1472 42.9728L73.5713 42.4854L73.3446 43.4101L73.1472 42.9728ZM83.2551 18.9149C83.558 16.5632 84.1729 13.6626 85.8905 12.0591C89.3644 15.7407 93.9518 15.3715 94.013 15.3851C94.0221 15.8502 93.8263 16.3111 93.3109 16.7198C93.176 16.8267 93.0133 16.9333 92.9838 17.1063C92.9516 17.2933 93.0909 17.4591 93.202 17.6108C94.0205 18.7272 93.3133 19.8061 93.2126 20.9821C93.1487 21.7286 93.8523 21.9935 94.3639 21.5289C94.8526 21.0854 95.0187 19.9628 95.9095 19.1061C96.61 18.5654 97.193 18.3824 97.6865 18.5566C98.4738 18.8332 98.9465 19.9822 98.1642 21.4077C97.3616 22.8549 96.0822 23.1152 95.278 22.6686C95.0824 22.5582 94.8101 22.0975 94.4305 22.1646C94.0501 22.2339 93.6201 23.0994 93.4269 23.3286C91.8687 25.1521 89.0048 26.9503 86.771 26.697C85.6212 26.5659 84.7293 25.905 84.1199 24.7339C83.2751 23.1077 82.968 21.042 83.2551 18.9149ZM84.8703 26.3883C85.7846 27.119 87.0449 27.4322 88.7879 26.9271L88.5608 27.9006C88.4022 28.5277 88.4506 28.7114 88.275 28.8063C87.1297 29.4414 85.9359 29.9508 84.9533 29.3707C84.0309 28.8298 84.0433 28.5806 84.3906 27.7712C84.595 27.2938 84.5297 27.3959 84.8703 26.3883ZM83.7317 28.346C83.7149 28.4694 83.6968 28.5552 83.7426 28.7499C83.8648 29.2077 84.3066 29.5192 84.7226 29.7632C85.9202 30.4703 87.2793 29.8792 88.4928 29.2059C88.5093 29.197 88.5231 29.1842 88.5388 29.1741C90.4776 29.6699 93.8748 30.7176 95.6638 32.328C96.6902 33.2496 97.3301 34.9832 97.5802 37.4912C97.542 37.5844 97.5549 37.2117 97.8532 44.1643C94.6169 41.1748 90.3783 40.7029 86.4299 42.3298C86.7666 41.1509 87.7056 37.8395 88.9008 33.4343C88.9337 33.3129 88.8621 33.188 88.7408 33.1552C88.619 33.124 88.4946 33.1943 88.4617 33.3152C86.9652 38.8302 85.8679 42.6395 85.8568 42.6773C85.8242 42.7912 85.8857 42.9073 85.994 42.9495C86.2276 43.1599 87.1313 43.9319 88.4731 44.6476C88.3383 45.2677 88.1862 45.4842 88.103 45.5563C86.6653 46.813 80.2972 46.794 76.684 46.5811C76.1264 45.8951 75.5524 45.1865 75.1156 44.4381C75.0143 44.2639 74.8747 44.0248 74.6401 43.8901C74.34 43.7176 73.9528 43.7695 73.6702 43.992L74.2326 41.6983L77.5352 33.46C77.5818 33.3432 77.5254 33.2107 77.409 33.1641C77.2921 33.1178 77.1596 33.1734 77.113 33.2903L73.8188 41.5075L72.9412 42.5164L70.6717 37.4876C70.6308 37.3974 70.5348 37.3405 70.4375 37.3556C70.3919 37.3605 68.4995 37.5655 68.6202 37.5524C67.0062 35.9346 65.42 34.9702 64.6343 34.547C68.962 32.5213 78.9137 28.3029 83.7317 28.346ZM8.6107 44.7412L0.864573 4.20574L2.82553 3.0993L6.74595 23.6025L11.0018 45.8621L8.6107 44.7412ZM58.0261 38.0075C61.729 38.0075 65.0172 38.0075 68.6366 38.0075L72.0614 45.595C71.9736 45.5829 71.8822 45.5627 71.7952 45.5545C70.5464 45.4335 70.0547 46.462 70.573 47.2351C69.9931 47.6382 69.9737 48.4557 70.8601 48.9605C70.6458 49.4434 70.9457 50.1509 71.9886 50.4167C71.7875 50.6931 71.8265 51.1291 72.3512 51.5078C72.9952 52.0015 74.0723 51.9581 74.8895 51.8605L76.8742 56.261H66.2638C65.2115 53.9294 59.3406 40.9204 58.0261 38.0075ZM75.4334 109.675C75.13 110.466 73.5475 110.237 72.9028 109.868C71.9586 109.334 72.1198 108.4 72.0999 107.744C73.1414 107.779 74.2263 107.754 75.9936 107.49C75.3559 109.694 75.5636 109.344 75.4334 109.675ZM68.4873 109.38C68.4886 109.379 68.4975 109.375 68.5166 109.375C68.521 109.375 68.5259 109.376 68.5312 109.376C68.6437 109.387 68.777 109.434 68.8135 109.712C68.9104 110.38 69.057 111.385 68.8057 112.006C68.7902 111.975 68.7699 111.949 68.7432 111.929C68.3705 110.518 68.399 109.458 68.4873 109.38ZM66.0206 111.384C65.6842 111.183 65.5429 111.083 65.3811 110.811C65.282 110.635 65.3202 110.497 65.4935 110.399C65.6926 110.287 65.9136 110.398 66.1095 110.528C67.049 111.16 67.0654 111.247 68.2738 112.458C68.2031 112.468 68.1324 112.474 68.0614 112.481C67.3863 112.442 66.6116 111.736 66.0206 111.384ZM77.9863 115.038C78.0675 115.87 77.0624 116.455 76.2543 116.685C75.0292 117.027 73.9163 116.746 72.6441 116.625C69.4152 116.316 66.3455 117.922 63.8873 116.885C62.8601 116.451 61.7052 115.346 61.7309 114.257C61.7549 113.443 62.3318 112.673 63.1038 112.428C64.3324 112.032 65.6185 112.854 67.1694 112.952C67.0674 113.391 67.1252 113.563 67.546 113.973C67.59 114.016 67.6473 114.037 67.7046 114.037C67.9077 114.037 68.0092 113.789 67.8633 113.647C67.5599 113.351 67.539 113.324 67.6348 112.965C68.4378 112.95 68.4436 112.889 68.5486 112.871C68.6693 113.206 68.8799 113.437 69.2503 113.64C69.3579 113.699 69.4977 113.662 69.5592 113.55C69.6196 113.439 69.5792 113.301 69.469 113.241C69.22 113.105 69.083 112.972 68.998 112.776C69.9676 112.529 70.8023 112.029 70.9766 111.851C71.8303 112.725 73.2818 112.786 74.4316 112.846C74.9825 112.878 75.5995 112.891 76.1329 112.745C76.1329 112.745 76.1329 112.745 76.1333 112.745C76.3985 112.671 76.5727 112.583 76.6836 112.455C77.2797 113.092 77.8964 114.139 77.9863 115.038ZM80.1045 105.242C80.0627 105.81 79.6618 106.281 79.1062 106.413C74.4552 107.53 70.8872 107.593 68.5055 106.597C68.0468 106.404 67.7384 105.953 67.7198 105.449C67.7038 105.041 67.695 104.634 67.6817 104.227C71.1274 104.666 74.5905 104.36 77.7445 103.443C77.865 103.408 77.9347 103.282 77.8996 103.161C77.8645 103.04 77.7392 102.969 77.6174 103.006C74.4138 103.937 70.9755 104.198 67.6673 103.766C67.1899 88.0574 68.6404 72.7473 72.0995 57.0345C74.262 58.0412 77.4075 58.7287 80.7058 59.1064C81.1926 62.1135 81.882 65.1713 82.7593 68.1989C81.5202 80.6875 80.8518 94.5924 80.1045 105.242ZM101.898 98.4641C101.39 98.7898 100.608 98.7014 100.19 98.2716C99.7137 97.7831 99.244 97.2825 98.7806 96.771C100.757 95.2331 102.95 93.4851 104.105 91.0415C104.159 90.9277 104.111 90.7922 103.997 90.7384C103.884 90.6859 103.748 90.7326 103.694 90.8468C102.58 93.202 100.422 94.9177 98.4805 96.4283C89.3842 86.2319 83.3469 72.4253 81.1774 59.1587C84.6459 59.5234 91.1684 59.7586 94.4173 58.5083C96.9602 70.5218 102.107 81.7882 108.566 89.4535C108.858 89.7962 108.966 90.2446 108.855 90.6535C108.126 93.3837 105.85 95.9383 101.898 98.4641ZM103.189 100.199C103.189 100.196 103.197 100.184 103.22 100.168C103.339 100.087 103.47 100.078 103.652 100.248C104.152 100.703 104.903 101.387 105.103 102.024C105.072 102.011 105.039 102.003 105.006 102.004C104.576 101.695 104.098 101.302 103.814 101.01C103.724 100.917 103.169 100.313 103.189 100.199ZM102.557 103.314C102.168 103.372 101.996 103.385 101.698 103.276C101.511 103.204 101.452 103.072 101.523 102.887C101.591 102.717 101.758 102.63 102.104 102.593C103.214 102.488 103.315 102.546 104.978 102.711C104.929 102.764 104.879 102.814 104.829 102.864C104.281 103.262 103.229 103.21 102.557 103.314ZM101.068 108.254C100.569 107.616 100.526 106.656 100.965 105.97C101.667 104.878 103.188 104.703 104.44 103.795C104.64 104.199 104.794 104.294 105.379 104.344C105.684 104.366 105.713 103.916 105.417 103.891C104.995 103.855 104.962 103.848 104.807 103.509C104.924 103.409 105.033 103.302 105.141 103.194C105.346 103.035 105.402 102.914 105.45 102.858C105.785 103.058 106.101 103.077 106.484 103.004C106.608 102.981 106.689 102.862 106.665 102.739C106.642 102.615 106.521 102.535 106.4 102.557C106.12 102.611 105.929 102.595 105.739 102.497C106.331 101.69 106.661 100.774 106.684 100.525C107.892 100.655 109.014 99.8038 109.984 99.1C110.464 98.7472 111.46 97.9623 111.474 97.3675C112.342 97.4808 113.483 97.8961 114.12 98.5333C114.714 99.1276 114.308 100.217 113.824 100.909C113.257 101.721 112.5 102.199 111.698 102.704C110.076 103.726 109.455 104.369 108.035 105.997C107.052 107.122 105.885 108.479 104.403 108.919C103.359 109.224 101.751 109.121 101.068 108.254Z" fill="black"/>
<path d="M86.8781 31.1758C86.9905 31.1198 87.0363 30.9834 86.9803 30.8709C86.9247 30.758 86.7869 30.7118 86.6754 30.7687C85.5674 31.3194 84.2224 31.0104 83.4643 30.0407C83.3866 29.9416 83.2434 29.9238 83.1452 30.0016C83.0461 30.0789 83.0283 30.222 83.1061 30.3207C84.003 31.4692 85.5843 31.8213 86.8781 31.1758Z" fill="black"/>
<path d="M64.3569 40.7578C63.7327 40.7578 63.4002 41.2489 63.6191 41.858C63.8381 42.4671 64.5247 42.9612 65.1489 42.9612C65.7763 42.9612 66.1077 42.4671 65.8888 41.858C65.6698 41.2489 64.9843 40.7578 64.3569 40.7578Z" fill="black"/>
<path d="M95.2089 28.2871C94.9224 28.1916 94.7806 28.6244 95.0658 28.7191C97.4898 29.5209 99.5667 31.2733 100.764 33.527C100.904 33.7908 101.307 33.5796 101.166 33.3137C99.9142 30.9573 97.7427 29.1249 95.2089 28.2871Z" fill="black"/>
<path d="M101.573 29.7551C101.675 29.6818 101.699 29.5396 101.626 29.4378C100.919 28.4529 99.8887 27.7263 98.7238 27.3921C98.6038 27.3565 98.4767 27.4267 98.4425 27.548C98.4078 27.6689 98.4776 27.7947 98.5985 27.8294C99.6651 28.1356 100.609 28.8009 101.256 29.7027C101.329 29.8056 101.472 29.8281 101.573 29.7551Z" fill="black"/>
<path d="M36.6668 103.683C36.8744 104.945 37.2403 106.194 37.6855 107.803C37.7657 108.094 38.2043 107.971 38.1237 107.681C37.7055 106.169 37.322 104.861 37.1157 103.61C36.6215 100.606 40.0655 102.241 39.5526 104.487C39.4518 104.93 39.2094 105.341 39.0281 105.809C38.7816 106.451 38.7201 107.241 39.2166 107.721C39.2443 107.79 39.2998 107.829 39.3717 107.849C39.798 108.143 40.2371 108.11 40.5263 107.891C40.7659 107.71 40.495 107.348 40.2525 107.528C40.0667 107.668 39.8081 107.607 39.6152 107.468C39.5219 107.127 39.4361 106.809 39.3265 106.422C39.4528 105.756 39.8389 105.279 39.9961 104.589C40.315 103.194 39.308 101.686 38.03 101.539C37.7861 100.518 37.5967 99.5952 37.4557 98.7293C36.8552 95.0669 38.8946 94.2253 40.8885 95.3338C42.6965 96.3427 43.7134 98.6275 43.2543 100.648C43.0272 101.64 42.4896 102.553 42.105 103.546C40.6407 107.368 43.6236 108.745 44.9449 107.744C45.1854 107.562 44.9091 107.2 44.6702 107.382C43.7214 108.101 41.2279 107.109 42.5294 103.709C42.9114 102.724 43.4562 101.803 43.6978 100.749C44.2 98.5391 43.0876 96.04 41.1103 94.936C38.7824 93.6453 36.3426 94.757 37.0068 98.8026C37.1455 99.6543 37.3309 100.561 37.5669 101.558C36.6442 101.762 36.5136 102.755 36.6668 103.683Z" fill="black"/>
</svg>
