<svg width="116" height="122" viewBox="0 0 116 122" fill="none" xmlns="http://www.w3.org/2000/svg">
<path d="M0.0869141 60.1206V64.7803C0.0869141 64.9531 0.227305 65.0942 0.400831 65.0942H4.13041V67.5001C4.13041 67.6729 4.27081 67.814 4.44433 67.814H5.55653C6.41398 137.815 6.12297 114.059 6.18498 119.119H9.24027C9.30228 114.059 9.01121 137.815 9.86887 67.814C14.1701 67.814 31.2147 67.814 37.5162 67.814C38.5021 146.314 38.0434 109.793 38.1699 119.867H41.2122C41.3178 111.295 40.9153 143.978 41.8532 67.814H59.8451C59.0531 70.151 59.7963 73.109 60.2648 76.2026C60.2691 76.2382 60.2709 76.2492 60.2868 76.2811C60.5287 77.6916 60.898 79.8453 60.8718 79.6925C60.996 80.4998 61.1424 81.3278 61.3751 82.6624C66.039 110.093 65.6123 108.553 65.8423 108.706C66.1823 108.932 66.5627 109.132 66.9799 109.321L66.9576 111.351C66.6884 111.325 66.437 111.372 66.2286 111.519C65.5329 112.037 65.8863 113.049 65.548 113.521C65.1659 114.104 63.9992 113.642 63.2096 113.81C62.7829 113.895 62.4273 114.101 62.0901 114.455C61.33 115.249 60.873 116.032 61.2023 117.142C61.3111 117.529 61.5165 117.895 61.7703 118.233C62.2424 119.183 63.2571 119.974 64.1084 120.344C65.6814 121.015 67.6409 121.234 69.0075 120.202C69.4073 119.919 69.8453 119.506 70.3096 119.661C70.5158 119.725 70.6706 119.893 70.8251 120.048C71.7664 120.989 73.1329 121.491 74.448 121.324C75.7129 121.164 77.3459 120.645 77.4771 119.449C77.8165 118.907 77.7654 118.431 77.6871 117.648C77.5037 115.561 76.8281 113.516 75.7294 111.728C75.3841 111.199 75.131 110.89 74.4986 110.76L74.3956 109.267C75.4192 108.846 76.0682 108.413 76.096 108.394C76.1292 108.371 76.135 108.332 76.1561 108.3C76.2034 108.241 76.2147 108.223 76.2193 108.158C76.2399 108.032 75.6335 97.9939 75.6123 97.7094C74.2325 77.8904 74.7246 87.538 73.8911 78.2173H77.7036C77.8743 80.2899 77.7133 79.4982 79.1347 87.3037C83.3496 110.466 82.0438 105.995 82.4682 108.196C82.489 108.302 82.5626 108.389 82.6631 108.428C83.1733 108.624 83.6975 108.778 84.2393 108.92L84.2082 111.16C83.9375 111.135 83.6864 111.185 83.4817 111.335C82.3793 112.131 83.8531 113.87 81.5038 113.616C80.6842 113.527 80.0416 113.535 79.3438 114.27C79.063 114.551 78.776 114.864 78.589 115.254C78.1183 116.196 78.3796 117.183 79.0151 118.033C80.0983 120.238 83.5728 121.318 85.6466 120.377V120.925C85.6466 121.097 85.787 121.238 85.9605 121.238H88.4871C88.6606 121.238 88.8011 121.097 88.8011 120.925V120.416C89.6548 120.977 90.6861 121.257 91.6974 121.131C92.9615 120.971 94.5925 120.453 94.726 119.259C95.0615 118.724 95.0244 118.183 94.9365 117.454C94.7526 115.375 94.0769 113.335 92.9788 111.548C92.609 110.98 92.3675 110.695 91.7489 110.571L91.6496 109.073C92.6741 108.837 93.2929 108.576 93.3203 108.564C93.3916 108.533 93.478 108.413 93.4831 108.289C93.5199 107.884 91.8177 96.2662 90.622 82.1621H91.1045C91.9101 82.1621 92.5655 81.5073 92.5655 80.7017V78.2023L106.313 78.1597C106.439 78.1352 106.533 78.087 106.63 78.0433L107.116 117.482H110.171L110.778 68.3636L110.786 67.814H113.511C113.684 67.814 113.825 67.673 113.825 67.5001V65.0942H115.599C115.773 65.0942 115.913 64.9532 115.913 64.7803V60.1255C115.913 59.9526 115.773 59.8116 115.599 59.8116H109.13L109.879 44.6959C109.951 43.2097 109.103 41.9467 107.8 41.6855L99.6481 41.6707C99.3903 40.883 98.391 38.0832 97.5851 36.1245C97.5667 36.0768 97.5455 36.0287 97.5268 35.981C99.2502 37.1145 101.231 37.8579 103.287 38.0804C106.162 38.4027 109.14 37.7066 111.603 36.1853C113.717 34.8832 115.431 32.4853 114.877 29.8811C114.297 27.0868 112.022 27.3611 109.952 27.0062C106.368 26.4132 103.7 23.332 102.166 20.0445C101.044 17.6725 100.18 15.2745 99.6905 12.6832C99.0373 9.20106 98.8727 4.82282 95.8872 2.24073C94.1726 0.771022 90.2018 -0.0539992 88.8096 2.24073C88.7066 2.40834 88.629 2.57595 88.5645 2.74356C88.5904 2.74356 88.6161 2.75643 88.6419 2.75643C89.5403 3.02588 89.7355 3.89096 89.8923 4.75464C90.072 5.90067 90.1502 6.18221 90.1502 7.33303C90.0877 7.98175 89.734 8.7257 89.1318 8.46752C88.7581 8.29999 88.5645 7.48775 88.4359 6.88184C88.2091 5.92243 88.0876 5.69418 87.5463 3.81359C87.3786 3.27204 87.2368 2.83374 87.8685 2.71771C86.6179 1.72508 84.9549 1.2352 83.382 1.5446C81.3323 1.93132 79.7336 3.52987 77.7999 4.30347C75.1715 5.32316 73.6737 4.34454 72.2821 5.05118C69.7957 6.26875 70.8163 11.1257 73.6653 11.9891C73.5795 14.9194 74.1986 16.5395 74.2426 16.896C74.3781 17.9898 73.755 18.8173 74.318 19.5704C74.3199 19.5729 74.3217 19.5753 74.3235 19.5778C74.5282 19.8364 74.895 20.0641 75.3824 20.1333C75.6542 20.1754 75.6562 20.1584 75.8336 20.4987C75.8857 20.598 75.9385 20.6961 76.0034 20.7905C76.8111 21.9213 77.6748 22.7802 79.0191 23.0326C79.0542 23.16 80.1427 27.1108 80.1076 26.9834C78.8405 27.1663 76.1743 27.5458 74.9213 27.8082C74.0394 28.0044 73.0832 28.6511 72.4192 29.2668C72.4157 29.269 72.4111 29.2677 72.4075 29.2699C70.4126 30.4794 67.936 38.5876 67.6614 39.6573C67.3616 40.8225 67.358 40.7438 66.8303 42.2581C65.4483 41.6664 64.0851 41.1017 62.8365 40.5983L61.2243 15.6293C61.2139 15.4638 61.0765 15.335 60.911 15.335H14.5515C11.6824 15.3688 11.6385 15.257 11.4731 15.4343C11.2961 15.6261 11.3032 13.7484 13.3743 46.3782C13.3848 46.5425 13.5221 46.6713 13.6877 46.6713H16.5368H16.5374H30.0287L27.1136 57.8435C26.8973 58.3843 26.9994 59.1623 27.6646 59.8067H0.400831C0.227333 59.8067 0.0869141 59.9477 0.0869141 60.1206ZM4.75825 65.0942C14.989 65.0942 15.8825 65.0942 33.3116 65.0942H35.4839V67.1861H4.75825V65.0942ZM38.2147 58.1746C38.3647 57.9721 38.2364 57.657 37.9216 57.6743C37.6476 57.7113 37.3476 57.8199 37.0351 57.9808H36.5006C36.3678 57.8191 36.3673 57.8126 36.2662 57.6804C36.6133 57.4511 36.9082 57.2193 37.1626 56.9753C37.3859 56.7592 37.1849 56.3915 36.9229 56.4358C36.425 56.4701 35.9554 56.5682 35.4943 56.735C35.4262 56.6246 35.3294 56.5045 35.2221 56.3745C35.4777 56.1954 35.7169 56.0029 35.9456 55.7932C36.1497 55.604 36.0272 55.2647 35.7543 55.2488C35.2313 55.212 34.6911 55.2304 34.1963 55.2954C34.1515 55.2155 34.1502 55.1973 34.0896 55.12C34.0038 54.9128 33.8904 54.7375 33.7898 54.5842L33.7267 54.5584C36.7045 53.7548 36.7657 53.951 36.9872 53.7957C37.3679 53.7393 37.756 53.6927 38.1116 53.6571C38.149 53.6535 38.1748 53.6498 38.2085 53.6326C38.517 53.6326 38.64 53.2316 38.3845 53.0587C38.2563 52.9496 37.653 52.3512 37.4176 52.0839C37.6494 51.7921 37.7703 51.6177 38.0007 51.3371C40.4434 51.7585 42.7225 53.4687 45.2256 54.5228C45.483 54.5944 48.0357 54.2033 48.5046 54.1423V59.3434C48.3785 59.3414 43.9803 59.2743 43.8486 59.2818C43.3634 59.1289 39.7596 59.2779 37.7824 59.532C37.7432 59.5209 37.615 59.4204 37.4851 59.1899L37.3962 59.0329C37.682 58.7753 38.1198 58.3002 38.2147 58.1746ZM32.9836 45.7296C33.487 45.7296 44.2334 45.7296 43.5899 45.7296L41.8991 52.1483C40.6452 51.5067 39.4514 50.9165 37.9198 50.6884C37.6256 50.6429 37.553 50.9391 36.7935 51.8558C36.7335 51.9285 36.6979 52.0715 36.7395 52.1881C36.7426 52.1967 37.1301 52.6847 37.5176 53.0906C37.2827 53.12 37.043 53.1519 36.807 53.1887C36.7591 53.196 36.7113 53.2206 36.6696 53.2537C35.6347 53.4168 34.6635 53.6547 33.536 53.96C33.1544 53.9859 32.9739 54.4612 33.1994 54.8281C33.3524 55.0963 33.1489 54.6679 33.6807 55.673C33.6985 55.8324 33.9088 55.9489 34.0688 55.9489C34.3227 55.9072 34.5857 55.8803 34.8517 55.8667C34.6012 56.0457 34.4703 56.0757 34.4434 56.2628C34.4299 56.3536 34.4563 56.4456 34.5164 56.5142C35.1 57.1986 34.8791 56.9705 34.9799 57.1016C34.9989 57.1469 35.0271 57.1862 35.0639 57.2181C35.0639 57.2181 35.0645 57.2205 35.0657 57.223C35.1559 57.4032 35.3719 57.4608 35.517 57.3996C35.555 57.3836 35.5924 57.3689 35.6304 57.3542C35.5355 57.4685 35.4962 57.6614 35.5881 57.7993C35.6315 57.8587 35.6901 57.9386 35.7159 57.9808H29.7464L32.9836 45.7296ZM60.6636 41.3142C60.5166 41.2192 60.3116 41.0768 60.161 40.9145L60.0964 39.9255C60.4753 39.9295 60.99 40.1158 61.2722 39.8338L61.8653 39.8982C61.9937 39.911 62.1343 39.8084 62.1481 39.6803L62.1921 40.3614C61.3768 40.1332 60.9898 40.5332 60.6636 41.3142ZM59.486 40.2143C59.3555 40.0863 59.2271 39.9657 59.0986 39.8322L59.4631 39.8664L59.486 40.2143ZM49.0981 39.9332C49.0999 39.9577 49.1042 39.981 49.111 40.0031C49.1054 40.0791 49.1275 40.1526 49.1705 40.2127C49.1738 40.3611 49.2211 40.4889 49.3697 40.55C49.3849 40.9536 49.6593 41.8109 49.7486 41.9564C49.756 41.9761 49.7597 41.9736 49.7627 41.9785C49.767 41.9984 49.7842 42.0148 49.79 42.0337H30.7782C30.3125 35.6806 29.6048 26.7275 29.0725 19.9714H56.5818L57.7678 38.3178C57.3744 37.984 56.8044 37.7365 56.3114 37.5862C53.9896 36.8736 53.1877 37.1337 52.19 36.9399C52.1459 36.9252 52.0913 36.9252 52.0367 36.9314C51.0889 36.7155 50.065 36.5549 48.7928 36.4261C48.4747 36.4261 48.1592 36.7238 48.2163 37.1521C46.8607 36.9511 45.738 36.7016 44.8737 36.8299L43.3523 36.6364L43.3653 36.6494C43.4297 37.1651 43.3782 37.6678 43.1849 38.132L44.6931 38.3124C45.5063 38.6742 46.2737 38.6004 48.7464 38.8676C48.7885 39.0915 49.0838 39.7282 49.0981 39.9332ZM48.8342 37.2453C48.8098 37.1812 48.7923 37.1132 48.7609 37.0528C49.7928 37.1583 50.6652 37.2894 51.4708 37.4544L51.0219 37.575L48.8342 37.2453ZM53.1256 37.6603C53.7288 37.6888 54.4506 37.7138 55.8727 38.12L52.5174 38.8872L50.9178 38.2557L53.1256 37.6603ZM58.4205 38.6765L57.1894 19.6366C57.1789 19.4723 57.0416 19.3436 56.8761 19.3436C26.8528 19.3825 28.6814 19.2521 28.5023 19.4441C28.2898 19.6763 28.453 18.809 30.173 42.3709C30.1853 42.534 30.322 42.6615 30.4863 42.6615H50.0315C50.1428 43.3492 50.3326 43.7104 50.6364 43.7737H19.3841L17.7483 18.2436H58.0514L59.3951 38.8231L58.4205 38.6765ZM50.8307 43.1863C50.8295 43.1851 50.7072 43.0553 50.6142 42.3497C50.6142 42.3488 50.6149 42.3484 50.6149 42.3476C50.6149 42.3457 50.6129 42.3446 50.6129 42.3427C50.6126 42.3402 50.6122 42.3391 50.6119 42.3365C50.8683 42.2653 51.0988 42.0794 51.0092 41.8289C50.9423 41.6437 50.6719 41.6082 50.5548 41.6523C50.4715 41.6609 50.3918 41.6744 50.3157 41.694C50.2318 41.5142 50.0909 41.0845 50.0147 40.6762C50.1149 40.6476 50.055 40.642 50.1827 40.621C50.3225 40.599 50.3715 40.4653 50.3875 40.3255C50.4028 40.1845 50.2648 40.03 50.1336 39.9773C50.1232 39.976 50.0484 39.9601 50.038 39.9589L49.7455 39.9392C49.7273 39.7132 49.5255 39.1968 49.4635 39.0416C49.5346 39.0233 49.61 39 49.6916 38.9754C49.7024 38.9723 49.7081 38.9618 49.7185 38.9577L51.377 39.1114C52.9804 39.7325 52.0869 39.5373 53.4933 39.3084L58.1999 39.7483C58.691 40.3181 59.2025 40.8279 59.9269 41.5493C60.0212 41.6443 60.2295 41.7838 60.4209 41.9035C59.7704 43.3031 59.6297 43.5113 58.6431 46.0286C56.9349 45.2643 56.2978 44.9644 56.2096 44.9644C55.2681 44.5249 52.7086 43.6399 50.8307 43.1863ZM58.2697 47.7394L63.724 50.7705C63.5728 51.1551 63.3858 51.4898 63.0974 51.5726C61.9291 51.8922 55.293 52.0487 51.4874 52.5364C50.607 52.6504 49.6965 52.7681 48.8032 52.811C48.6364 52.8196 48.5046 52.9569 48.5046 53.125V53.508C48.28 53.5364 45.9115 53.8851 45.3814 53.9097C44.492 53.5281 43.6158 53.0541 42.4691 52.4476L43.9909 46.6713H58.3914C58.304 46.8986 58.2167 47.1239 58.1293 47.3543C58.0741 47.5002 58.1342 47.6646 58.2697 47.7394ZM50.6143 60.4394C55.1808 60.5737 58.3415 60.5628 62.6955 60.4394H76.711C76.4649 61.6507 76.3938 62.4061 76.161 63.478C72.7442 63.2265 68.9673 63.7131 65.1335 64.1438C63.925 64.219 63.4722 64.4056 63.2146 64.4663H33.6255V60.4394H50.6143ZM74.7169 46.6415C74.7232 46.6445 74.7288 46.6449 74.7349 46.6478C75.6158 50.5692 76.3895 54.0714 76.7727 55.7968C75.7779 55.9016 74.689 55.4831 73.7637 55.1617C73.1698 54.9571 72.539 54.6972 71.8637 54.3918C73.0055 51.7926 73.7662 49.6105 74.7169 46.6415ZM87.049 42.2756L89.6872 42.2812C90.8963 42.3583 91.7993 43.4153 91.7323 44.664C89.7395 77.2386 90.2194 75.5405 89.5759 76.5239C89.17 77.1613 88.4863 77.555 87.7524 77.5855C85.3827 77.6036 84.7126 77.5627 84.839 77.5637C84.7761 77.5637 84.7012 77.5895 84.6324 77.5895H62.884C62.6044 77.5895 62.3855 77.3712 62.3855 77.0916V73.0696C62.3855 72.79 62.6044 72.5705 62.884 72.5705H82.8531C83.0193 72.5705 83.1566 72.4405 83.1665 72.275L83.9483 58.8005C83.9488 58.7964 83.9529 58.7942 83.9531 58.7901L83.9914 58.1452C83.9914 58.1442 83.9923 58.1437 83.9923 58.1427C83.9923 58.142 83.9917 58.1415 83.9917 58.1407L84.0561 57.0502C84.0564 57.0446 84.0507 57.0406 84.0507 57.0351L84.7783 44.4935C84.8499 43.2653 85.84 42.2962 87.049 42.2756ZM71.6152 54.9681C72.826 55.5153 75.1378 56.4517 76.4614 56.4517C76.6107 56.4517 76.76 56.4371 76.9093 56.4189C76.949 56.606 77.0731 57.2088 77.123 57.3781C76.9772 57.7988 76.9251 58.278 77.115 58.769C76.8948 59.5766 76.8931 59.6509 76.8543 59.8116H68.437C69.5703 59.2049 70.1158 58.0107 70.6669 56.9532C70.9909 56.3118 71.3074 55.6478 71.6152 54.9681ZM36.1117 67.1861V65.0942H61.9666C61.2582 65.5608 60.6489 66.173 60.2378 66.9078C60.1892 66.9948 60.1562 67.0951 60.1124 67.1861L36.1117 67.1861ZM66.9404 108.589C66.9563 108.586 66.9716 108.584 66.988 108.582L66.9876 108.613C66.9716 108.605 66.9563 108.597 66.9404 108.589ZM76.6195 115.378C74.9133 115.219 74.4247 116.675 74.5218 118.392C74.4961 118.369 74.466 118.35 74.429 118.348C72.6615 118.268 71.8539 117.319 71.2536 117.017C69.7384 116.265 68.6448 117.511 67.6957 117.952C66.7313 118.402 65.54 118.309 64.6602 117.708C64.0769 117.311 63.26 116.425 62.705 115.305C62.6162 115.121 62.3311 115.255 62.4242 115.444C62.9961 116.601 63.8424 117.528 64.4836 117.968C65.4529 118.627 66.7669 118.733 67.8281 118.237C68.5568 117.897 69.1522 117.303 69.8943 117.143C71.5454 116.797 71.7605 118.544 74.4142 118.662C74.4167 118.662 74.4191 118.662 74.4216 118.662C74.4686 118.662 74.5071 118.638 74.5362 118.605C74.5675 118.98 74.6135 119.355 74.6736 119.723C74.6864 119.799 74.7533 119.854 74.8287 119.854C74.8366 119.854 74.8452 119.853 74.8538 119.852C74.9396 119.838 74.9979 119.757 74.9838 119.671C74.814 118.636 74.6797 117.544 75.058 116.579C75.3292 115.89 75.7892 115.588 76.7057 115.699C76.9936 116.844 77.0564 117.382 77.1119 118.554C77.1242 119.834 74.9862 120.207 74.3302 120.291C73.1334 120.448 71.8416 119.988 70.9568 119.104C70.685 118.826 70.4558 118.591 70.0206 118.591C69.5096 118.591 69.0315 119.01 68.741 119.23C66.65 120.806 62.4528 119.278 61.8055 116.967C61.5444 116.087 61.9506 115.509 62.5443 114.888C63.2922 114.103 63.9321 114.509 64.8891 114.442C64.7512 115.051 64.8825 115.692 65.0004 116.217C65.017 116.291 65.0819 116.34 65.1537 116.34C65.1647 116.34 65.1764 116.338 65.188 116.336C65.2726 116.316 65.326 116.233 65.307 116.148C65.1822 115.593 65.0439 114.967 65.2138 114.398C65.5932 114.314 65.8913 114.141 66.0648 113.876C66.0797 113.856 66.0873 113.833 66.1005 113.811C66.1765 114.529 66.301 115.242 66.497 115.936C66.5523 116.136 66.8559 116.05 66.7987 115.85C66.5761 115.062 66.4314 114.248 66.3677 113.431C66.3637 113.38 66.3336 113.342 66.2941 113.316C66.3784 112.904 66.3383 112.434 66.5255 112.149C68.9488 115.268 71.6897 115.008 72.7747 113.671C73.1024 113.268 73.2739 112.68 73.5791 112.321C73.8415 112.013 74.492 111.913 74.9286 112.015C75.0046 112.033 75.0696 111.988 75.0995 111.921C75.1323 111.969 75.1664 112.013 75.199 112.064C75.8311 113.092 76.2962 114.218 76.6195 115.378ZM74.9305 111.701C74.4667 111.618 73.7098 111.683 73.3401 112.118C72.9758 112.546 72.8588 113.07 72.5307 113.473C71.5755 114.652 69.7822 114.435 68.5044 113.614C67.9059 113.229 67.3423 112.685 66.7856 111.971C67.4311 111.912 68.013 112.772 68.776 113.305C69.3524 113.707 69.9618 113.861 70.483 113.74C71.3979 113.53 71.842 112.614 72.4235 112.061C73.0898 111.412 74.33 111.01 74.9305 111.701ZM70.3425 113.128C69.2958 113.369 68.4662 112.013 67.5832 111.551L67.6168 108.501C69.1589 108.31 71.5893 108.076 73.6895 108.163L73.8675 110.74C71.7239 110.921 71.4213 112.881 70.3425 113.128ZM74.322 108.202C74.5697 108.222 74.8092 108.247 75.0408 108.277C74.8456 108.38 74.6147 108.488 74.3497 108.603L74.322 108.202ZM74.9856 97.7548C75.178 100.326 75.3813 104.945 75.5749 107.72C72.4897 107.175 67.5663 107.853 66.2745 108.048C60.5282 73.6217 60.2919 73.0219 60.1287 70.6514C59.9396 67.6318 61.3576 65.7282 63.4266 65.0549C63.9257 64.9016 64.464 64.8146 65.1863 64.7705C68.9163 64.3516 72.9115 63.8282 76.3805 64.1255C76.4621 64.1366 76.5365 64.1124 76.5957 64.0668C76.6633 64.1385 76.4556 64.0924 79.3394 64.3989C79.5385 64.3989 79.5507 64.1056 79.356 64.0862L76.7292 63.8072C77.2317 61.5991 76.9628 61.8261 77.6803 59.0857H83.303L82.557 71.9427H69.1108C68.6974 71.5857 68.3012 71.2026 67.9398 70.7875C67.8012 70.6297 67.5672 70.8387 67.7031 70.9936C67.9958 71.3298 68.3132 71.6425 68.6402 71.9427H62.884C62.2629 71.9427 61.7577 72.4479 61.7577 73.0696V77.0916C61.7577 77.7121 62.2629 78.2173 62.884 78.2173H73.2604C74.1158 87.7762 73.5787 77.5366 74.9856 97.7548ZM78.3335 78.2173H82.2431V80.7016C82.2431 81.5073 82.8985 82.1621 83.7041 82.1621H85.6465V107.479C84.8042 107.511 84.0031 107.569 83.0622 107.745C82.4445 100.229 78.7273 83.0622 78.3335 78.2173ZM84.8778 108.158C85.1281 108.139 85.3804 108.119 85.6465 108.109V111.971C85.2695 111.625 85.1774 111.537 84.8332 111.358L84.8778 108.158ZM84.1177 108.227C84.1626 108.221 84.2038 108.211 84.2492 108.206L84.2483 108.267C84.2038 108.255 84.1618 108.239 84.1177 108.227ZM79.7931 114.709C80.5692 113.892 81.1935 114.321 82.1364 114.267C82.0035 114.871 82.1334 115.508 82.2498 116.031C82.2664 116.104 82.3314 116.153 82.4031 116.153C82.4142 116.153 82.4258 116.152 82.4375 116.15C82.5221 116.13 82.5754 116.047 82.5564 115.962C82.4332 115.411 82.2975 114.788 82.4608 114.224C82.8431 114.138 83.1449 113.963 83.3505 113.63C83.4267 114.345 83.5513 115.058 83.7465 115.75C83.8017 115.949 84.1054 115.864 84.0481 115.664C83.8255 114.876 83.6808 114.061 83.6171 113.245C83.6131 113.193 83.5834 113.159 83.5429 113.134C83.6387 112.667 83.5791 112.039 83.8525 111.843C84.1021 111.657 84.5398 111.865 84.836 112.093C85.0953 112.301 85.2326 112.45 85.6465 112.813V119.25C83.4687 120.457 79.6662 118.955 79.0549 116.774C78.7998 115.92 79.178 115.323 79.7931 114.709ZM88.1731 120.611H86.2743V82.1621H88.1731V120.611ZM90.9754 108.397C90.9899 108.616 91.1271 110.684 91.1186 110.556C91.0658 110.561 91.0189 110.548 90.9653 110.558C90.3166 110.66 89.7022 110.964 89.2363 111.415C89.081 111.565 88.9414 111.736 88.801 111.905V108.208C89.1065 108.232 90.9664 108.396 90.9754 108.397ZM94.3122 117.532C94.3121 117.533 94.3613 118.143 94.3613 118.362C94.3736 119.643 92.2362 120.013 91.5796 120.097C90.6367 120.222 89.633 119.954 88.801 119.382V112.855C89.1509 112.48 89.3956 112.133 89.6722 111.868C90.4968 111.069 91.5771 111.135 91.4515 111.156C91.4561 111.156 91.4605 111.156 91.465 111.155C91.6273 111.166 91.8014 111.204 91.9512 111.299C92.5088 111.662 94.0779 114.485 94.3122 117.532ZM92.831 107.928C91.5149 107.839 90.4433 107.708 88.8009 107.578V82.1621H89.9919C90.6333 89.7457 91.7129 99.543 92.831 107.928ZM91.9377 80.7016C91.9377 81.1602 91.5637 81.5343 91.1044 81.5343H83.7042C83.2449 81.5343 82.8709 81.1603 82.8709 80.7016V78.2173C84.7086 78.2102 84.6225 78.2362 84.8513 78.1952C85.2418 78.2382 91.5318 78.206 91.9377 78.2043L91.9377 80.7016ZM113.197 67.1861H108.765L108.832 65.8401L108.871 65.0942H113.197V67.1861ZM115.285 60.4394V64.4663H113.511H108.9L109.099 60.4394H115.285ZM107.736 42.3072C108.656 42.496 109.308 43.5101 109.252 44.6652L108.209 65.7385L108.118 67.4841C108.118 67.488 108.122 67.4909 108.122 67.4948L107.731 75.3884C107.686 76.3007 107.201 77.1014 106.487 77.4301C106.371 77.4865 106.281 77.5257 106.252 77.538C104.531 77.5425 112.485 77.5215 89.4257 77.5824C90.1644 77.0028 90.5354 76.2385 90.5796 75.4215C91.6807 56.4085 91.2574 63.7179 92.3588 44.6983C92.4078 43.7895 92.0663 42.9121 91.3033 42.2846C92.9837 42.2869 85.2165 42.2762 107.736 42.3072ZM93.2186 18.3298C93.2574 19.5417 92.9865 20.8954 92.819 22.1072C92.634 23.4208 92.4124 24.7689 92.339 26.1144C91.4147 25.9821 88.8778 26.111 87.9469 26.1582L86.1839 21.9052C86.3461 21.8776 86.5113 21.8679 86.6695 21.8236C90.3786 20.7852 92.0481 15.9873 91.6974 12.1675C92.4547 13.5495 93.1329 15.8492 93.2186 18.3298ZM76.8777 20.9048C77.0097 20.752 77.1504 20.55 76.9697 20.4582C76.8924 20.4165 76.7986 20.4509 76.7588 20.5269C76.7395 20.5657 76.6957 20.5918 76.6685 20.629C76.6175 20.5607 76.5715 20.5052 76.5166 20.4288C76.3986 20.2585 76.3022 19.9785 76.1028 19.7715C75.7651 19.4042 75.1742 19.6313 74.8183 19.1915C74.624 18.9243 74.729 18.4712 74.7907 18.1651C75.054 16.8652 74.7522 16.4745 74.6008 15.7177C74.7791 15.3446 74.6641 14.7292 74.3977 14.4274C74.347 14.0098 74.3483 13.8855 74.3074 13.4166C74.9469 13.5137 74.9832 13.6048 75.1096 13.6048C75.2841 13.6048 75.3289 13.3575 75.1598 13.2995C74.8501 13.1936 74.5654 13.1348 74.2889 13.098C74.2861 12.9214 74.2828 12.7395 74.2782 12.5637C74.28 12.4025 74.2861 12.2663 74.2898 12.118C75.5309 12.2527 76.115 11.7809 76.7168 11.6003C76.8974 11.5358 77.9287 11.1748 77.9415 10.9815C77.9029 12.3996 78.2251 13.8306 78.8698 15.1069C78.986 15.3518 79.1406 15.6097 79.3727 15.7644C79.4244 15.7902 79.463 15.8031 79.5143 15.8288C79.5274 15.8288 79.5274 15.8288 79.5403 15.8288C79.1004 14.7595 79.515 13.1859 80.5071 13.0958C81.6712 13.0096 82.2759 15.0192 81.7448 16.0867C81.7448 16.0996 81.7318 16.1125 81.7318 16.1254C81.5533 16.8915 81.1993 17.3269 81.3581 18.678C81.466 19.5104 81.8854 20.2932 82.4929 20.8783C80.397 23.1203 78.4795 22.8821 76.8777 20.9048ZM79.6885 23.0945C81.0031 23.0676 82.0896 22.2377 82.9802 21.275C83.7241 21.7785 84.6289 22.0111 85.5367 21.9833L87.2795 26.1869C84.9736 26.3407 82.7447 26.611 80.7339 26.893C80.6988 26.7656 79.6224 22.8541 79.6885 23.0945ZM75.0537 28.4226C76.9651 28.0226 83.7885 27.041 87.4356 26.8039C88.2837 26.7538 91.5723 26.6038 92.3233 26.7409C92.2811 29.2679 92.8347 31.1172 94.4304 33.1557C95.0523 33.9497 95.7773 34.6554 96.5656 35.282C96.7114 35.6411 96.8634 35.9985 97.002 36.3563C97.9587 38.6811 99.0136 41.7395 98.9888 41.6694C95.828 41.6636 86.4941 41.6464 87.056 41.6474C87.0507 41.6474 87.0449 41.6477 87.0392 41.6477L86.8501 41.6474C86.8369 41.6474 86.8289 41.6608 86.816 41.6625C85.382 41.7822 84.2376 42.9823 84.1517 44.4567L83.4405 56.7178H77.6175C74.682 43.6447 74.3797 41.2219 72.5915 36.2766C71.9532 34.42 71.4149 31.2171 72.551 30.0044C73.1457 29.3619 74.1978 28.6126 75.0537 28.4226ZM68.2696 39.813C68.5259 38.8188 70.3507 33.4418 71.295 31.6455C71.0856 33.7705 71.9476 36.3347 71.9992 36.485C73.0912 39.5059 73.4341 40.7314 74.4573 45.3912C72.4199 51.8402 71.6473 53.4467 69.9722 56.9348C68.4663 59.9203 68.0756 59.6579 62.7798 59.8116C52.027 59.7942 51.1516 59.8465 49.1324 59.7723V53.4217C50.6407 53.3246 52.1604 53.0438 53.6646 52.9226C54.377 52.8677 60.8638 52.4554 60.9901 52.4493C63.7473 52.3168 63.9655 52.1318 64.5229 50.3941C64.7605 49.6507 67.5854 42.4662 68.2696 39.813ZM66.6228 42.8522C64.2361 49.6172 64.3247 48.962 63.9367 50.1697L58.8129 47.3236C60.1584 43.7709 61.1677 41.8137 61.0912 41.9393C61.2468 41.5045 61.4314 41.0408 61.6725 40.9387C61.7859 40.8909 61.9447 40.9056 62.1397 40.9853C63.89 41.7033 64.9882 42.1511 66.6228 42.8522ZM62.1476 39.6745C62.17 39.5344 62.0572 39.3953 61.9297 39.3825L61.3497 39.3181C61.1673 38.9839 60.5511 39.0266 60.0307 38.9187L58.659 17.9089C58.648 17.7446 58.5112 17.6158 58.3457 17.6158H17.4135C17.2295 17.6158 17.0889 17.7725 17.1002 17.9494L18.7765 44.1073C18.7869 44.2728 18.9242 44.4016 19.0898 44.4016H52.8024C54.9732 45.0879 55.5456 45.3308 57.1406 46.0435H44.1561C44.2454 45.598 44.396 45.4214 44.2459 45.2244C44.1864 45.1471 44.0945 45.1018 43.997 45.1018H41.9473C31.9677 45.1385 32.672 44.9999 32.4989 45.2448C32.3803 45.4132 32.5155 45.1466 32.2515 46.0435H16.8318L14.8866 15.9628H60.6167L62.1476 39.6745ZM30.6774 46.6713H32.0857C28.9286 58.7992 28.9107 58.2535 29.0897 58.486C29.2691 58.7191 29.1375 58.5632 36.1864 58.6087C36.2303 58.672 36.2825 58.7361 36.3465 58.773C36.4379 58.8711 36.5783 58.93 36.6868 58.9128C36.6586 59.0763 36.764 59.1699 36.8315 59.3101C36.9402 59.5061 37.012 59.6403 37.1463 59.7994H29.0811C28.452 59.7994 27.8071 59.2745 27.6728 58.6516C27.5827 58.253 27.3907 59.2758 30.6774 46.6713ZM0.714749 60.4345C4.01635 60.435 -11.2441 60.4327 32.9977 60.4394V64.4663C30.5466 64.4663 9.03252 64.4663 0.714749 64.4663V60.4345Z" fill="black"/>
<path d="M25.1615 95.0697L20.6441 88.7166C20.5236 88.5454 20.2676 88.7309 20.3878 88.8981L24.9052 95.2511C25.0267 95.4213 25.2816 95.2366 25.1615 95.0697Z" fill="black"/>
<path d="M18.9053 91.5052C21.0753 96.0812 20.9248 96.0447 21.1168 96.0447C21.2299 96.0447 21.308 95.926 21.259 95.8215L19.1897 91.3727C19.1024 91.1834 18.8175 91.3179 18.9053 91.5052Z" fill="black"/>
<path d="M80.5056 14.7294C80.859 14.8405 81.0071 15.2586 80.7993 15.5656C80.6841 15.7377 80.9401 15.9138 81.0593 15.7422C81.6103 14.9301 80.5256 14.131 80.4014 14.5331C80.3763 14.6165 80.4222 14.7048 80.5056 14.7294Z" fill="black"/>
<path d="M21.218 21.294C21.6098 21.294 21.8796 20.9554 21.8201 20.5377C21.7607 20.1199 21.3949 19.7812 21.0028 19.7812C20.611 19.7812 20.3414 20.1199 20.4008 20.5377C20.4602 20.9554 20.8259 21.294 21.218 21.294Z" fill="black"/>
<path d="M23.6554 21.294C24.0473 21.294 24.317 20.9554 24.2575 20.5377C24.1983 20.1199 23.8323 19.7812 23.4405 19.7812C23.0484 19.7812 22.7789 20.1199 22.8383 20.5377C22.8976 20.9554 23.2635 21.294 23.6554 21.294Z" fill="black"/>
<path d="M20.7015 22.6549C20.761 23.0726 21.1267 23.4113 21.5188 23.4113C21.9106 23.4113 22.1804 23.0726 22.1209 22.6549C22.0614 22.2371 21.6957 21.8984 21.3036 21.8984C20.9118 21.8984 20.6422 22.2371 20.7015 22.6549Z" fill="black"/>
<path d="M23.139 22.6549C23.1985 23.0726 23.5643 23.4113 23.9563 23.4113C24.3482 23.4113 24.6178 23.0726 24.5584 22.6549C24.499 22.2371 24.1332 21.8984 23.7412 21.8984C23.3493 21.8984 23.0799 22.2371 23.139 22.6549Z" fill="black"/>
<path d="M21.0024 24.772C21.0618 25.1897 21.4275 25.5284 21.8196 25.5284C22.2114 25.5284 22.481 25.1897 22.4217 24.772C22.3623 24.3543 21.9965 24.0156 21.6044 24.0156C21.2127 24.0156 20.9429 24.3543 21.0024 24.772Z" fill="black"/>
<path d="M23.4398 24.772C23.4992 25.1897 23.8651 25.5284 24.2571 25.5284C24.649 25.5284 24.9186 25.1897 24.8591 24.772C24.7998 24.3543 24.434 24.0156 24.042 24.0156C23.6501 24.0156 23.3806 24.3543 23.4398 24.772Z" fill="black"/>
<path d="M33.5202 22.6629C33.4445 21.8739 32.7989 21.2344 32.0779 21.2344C31.3572 21.2344 30.834 21.8739 30.9096 22.6629C30.9853 23.4519 31.6309 24.0915 32.3519 24.0915C33.0728 24.0915 33.596 23.4519 33.5202 22.6629Z" fill="black"/>
<path d="M33.5296 26.0265C33.4738 25.4445 32.9976 24.9727 32.4657 24.9727C31.934 24.9727 31.5482 25.4445 31.604 26.0265C31.6598 26.6085 32.1362 27.0803 32.6677 27.0803C33.1996 27.0802 33.5854 26.6085 33.5296 26.0265Z" fill="black"/>
<path d="M32.8482 28.207C32.4771 28.207 32.208 28.5362 32.2469 28.9422C32.2858 29.3484 32.6182 29.6775 32.9891 29.6775C33.3602 29.6775 33.6295 29.3484 33.5905 28.9422C33.5516 28.5362 33.2193 28.207 32.8482 28.207Z" fill="black"/>
<path d="M41.3667 32.847C42.3081 31.6779 44.231 31.7634 45.9917 31.5057C47.7694 31.2753 49.6572 30.9884 51.3395 30.0631C53.0035 29.1868 54.3891 27.6301 54.7599 25.832C53.9138 27.4483 52.4666 28.5195 50.9115 29.1816C48.3901 30.2277 45.682 30.1217 43.1274 30.6782C38.4381 31.756 40.1042 36.7314 42.2132 37.2228C40.8495 36.401 40.4658 33.9387 41.3667 32.847Z" fill="black"/>
<path d="M19.079 10.3682C19.1299 10.3682 19.1777 10.3436 19.2078 10.302C22.19 5.99805 22.1958 6.17289 22.1188 6.01504C22.0943 5.96354 22.044 5.9292 21.9876 5.92553C16.982 5.62619 17.1089 5.54041 17.0141 5.67539C16.9177 5.81253 16.9411 5.62507 18.935 10.2738C18.9576 10.3265 19.0067 10.362 19.0631 10.3669C19.0686 10.3682 19.0735 10.3682 19.079 10.3682ZM17.3887 5.93901L21.6884 6.22105L19.1115 9.89238L17.3887 5.93901Z" fill="black"/>
<path d="M21.1929 29.0017H21.6509L21.6218 28.5571H26.4726L26.4292 27.895H21.5784L21.55 27.4609H21.092L21.1204 27.895H20.1777L20.2212 28.5571H21.1638L21.1929 29.0017Z" fill="black"/>
<path d="M21.3589 31.5291H21.8169L21.7878 31.0845H26.6386L26.5952 30.4224H21.7444L21.716 29.9883H21.2581L21.2864 30.4224H20.3438L20.3871 31.0845H21.3298L21.3589 31.5291Z" fill="black"/>
<path d="M21.5238 34.0485H21.9818L21.9527 33.604H26.8036L26.7601 32.9419H21.9094L21.8809 32.5078H21.4229L21.4514 32.9419H20.5088L20.5522 33.604H21.4947L21.5238 34.0485Z" fill="black"/>
<path d="M27.4169 41.3867H21.0322V41.7405H27.4169V41.3867Z" fill="black"/>
<path d="M23.8795 39.0197C23.5576 39.0377 23.2282 38.9886 22.916 39.0692C22.2368 39.2443 21.6993 40.0158 21.8907 41.1137L26.8834 41.1492V36.793C25.7837 37.3034 25.6594 38.9203 23.8795 39.0197Z" fill="black"/>
</svg>
