<svg width="116" height="122" viewBox="0 0 116 122" fill="none" xmlns="http://www.w3.org/2000/svg">
<g clip-path="url(#clip0_480_18409)">
<path d="M55.4544 64.4942C55.2935 64.1788 55.0749 63.9 54.8113 63.6736C54.5476 63.4473 54.2441 63.2779 53.918 63.1753C53.592 63.0727 53.2499 63.0388 52.9113 63.0755C52.5728 63.1123 52.2445 63.219 51.9453 63.3896L48.6287 65.2813C47.7925 62.4962 46.4766 59.4025 45.4899 57.4955C45.1932 56.9215 44.6987 56.4889 44.108 56.2866C42.8538 55.8577 40.3878 55.1412 39.7247 55.8469C37.0022 58.7529 35.0704 55.2793 35.0704 55.2793C34.4515 55.3563 29.7203 55.1991 25.5681 59.4153C21.416 63.6314 18.5881 68.2427 19.3166 69.6216C20.045 71.0004 22.3416 70.7707 22.3416 70.7707L26.8011 70.6925L26.8211 83.1812C26.8211 83.1812 39.4222 85.1728 45.3949 81.4186L44.9314 71.4586L45.8517 72.238C46.209 72.5404 46.6232 72.7599 47.067 72.8819C47.5107 73.004 47.974 73.0259 48.4264 72.9463C48.8788 72.8667 49.31 72.6873 49.6918 72.4199C50.0736 72.1525 50.3972 71.8032 50.6415 71.3949L55.3642 65.436C55.4668 65.3063 55.5302 65.1474 55.5463 64.9796C55.5624 64.8118 55.5304 64.6428 55.4544 64.4942Z" fill="white"/>
<path d="M34.1867 83.8349C31.7158 83.8325 29.2476 83.659 26.7983 83.3157C26.7664 83.3107 26.7373 83.2938 26.7162 83.2681C26.6951 83.2424 26.6835 83.2096 26.6834 83.1757L26.6634 70.8314L22.3406 70.9071C22.2541 70.916 19.9599 71.1286 19.1946 69.6848C18.4292 68.241 21.2516 63.5903 25.4703 59.3073C27.9902 56.75 31.1223 55.3527 34.7796 55.1542C34.9006 55.1472 34.9968 55.1421 35.0507 55.1357C35.0766 55.1325 35.1029 55.1373 35.1263 55.1495C35.1497 55.1617 35.1693 55.1808 35.1826 55.2045C35.191 55.2191 36.0187 56.6781 37.3043 56.8455C38.0666 56.9454 38.8471 56.5744 39.6245 55.7447C40.2937 55.0301 42.4523 55.5697 44.1458 56.1487C44.7698 56.3622 45.2919 56.8196 45.6044 57.4264C46.5386 59.2316 47.849 62.2763 48.7039 65.0729L51.8772 63.2632C52.192 63.0845 52.5372 62.9727 52.8932 62.9343C53.2491 62.896 53.6087 62.9318 53.9514 63.0397C54.2942 63.1476 54.6134 63.3255 54.8907 63.5632C55.168 63.8009 55.3981 64.0938 55.5677 64.4251C55.6569 64.5986 55.6944 64.7963 55.6754 64.9924C55.6564 65.1886 55.5818 65.3743 55.4613 65.5253L50.7422 71.4773C50.4868 71.9008 50.1493 72.263 49.7517 72.5399C49.3542 72.8169 48.9055 73.0025 48.435 73.0845C47.9646 73.1665 47.483 73.1432 47.0217 73.016C46.5604 72.8888 46.1298 72.6607 45.7581 72.3465L45.072 71.7655L45.5197 81.4068C45.5206 81.4322 45.515 81.4574 45.5036 81.4798C45.4921 81.5021 45.4751 81.5209 45.4544 81.534C42.5491 83.3653 38.0418 83.8349 34.1867 83.8349ZM26.9526 83.0522C28.2231 83.2361 39.6657 84.7747 45.2535 81.3342L44.7949 71.4633C44.7936 71.4359 44.7999 71.4088 44.813 71.3852C44.8261 71.3616 44.8455 71.3425 44.8687 71.3303C44.8919 71.3179 44.9179 71.3128 44.9438 71.3155C44.9696 71.3182 44.9942 71.3286 45.0146 71.3455L45.9348 72.125C46.2773 72.4149 46.6742 72.6253 47.0996 72.7423C47.5249 72.8593 47.9689 72.8804 48.4025 72.8041C48.8362 72.7277 49.2495 72.5558 49.6154 72.2995C49.9813 72.0431 50.2915 71.7083 50.5256 71.3169C50.5288 71.3115 50.5325 71.3064 50.5365 71.3016L55.2592 65.3433C55.3447 65.2358 55.3978 65.1039 55.4116 64.9644C55.4254 64.825 55.3993 64.6844 55.3366 64.5607C55.184 64.2616 54.9768 63.9971 54.7267 63.7825C54.4767 63.5679 54.1888 63.4074 53.8796 63.3101C53.5704 63.2129 53.246 63.1808 52.925 63.2158C52.604 63.2508 52.2927 63.3521 52.0091 63.5139L48.6918 65.4057C48.6743 65.4155 48.6549 65.4212 48.635 65.4223C48.6151 65.4234 48.5953 65.4199 48.5769 65.412C48.5587 65.4042 48.5425 65.3922 48.5292 65.3771C48.5159 65.3619 48.506 65.3439 48.5 65.3242C47.653 62.5009 46.3184 59.392 45.3715 57.5613C45.0928 57.0174 44.6257 56.6073 44.0671 56.416C41.8419 55.6524 40.2556 55.4781 39.8212 55.9407C38.9814 56.8378 38.1271 57.2355 37.2735 57.1242C36.0199 56.96 35.1983 55.7472 34.9998 55.4227C34.9454 55.4272 34.8788 55.4303 34.7978 55.4348C31.2076 55.6301 28.1342 57.0007 25.6621 59.5071C21.594 63.6355 18.742 68.2315 19.4348 69.5429C20.1118 70.8238 22.3049 70.6208 22.3273 70.6195L26.7971 70.5406C26.815 70.5404 26.8328 70.5439 26.8494 70.5509C26.866 70.5579 26.8811 70.5683 26.8939 70.5815C26.9067 70.5947 26.9168 70.6104 26.9238 70.6277C26.9308 70.6451 26.9344 70.6637 26.9345 70.6825L26.9526 83.0522Z" fill="black"/>
<path d="M30.9085 92.6622L27.331 115.243H25.3672L29.0844 92.584L30.9085 92.6622Z" fill="white"/>
<path d="M27.331 115.383H25.3671C25.3475 115.383 25.3282 115.379 25.3104 115.37C25.2926 115.362 25.2769 115.349 25.2643 115.333C25.2514 115.317 25.2421 115.299 25.237 115.279C25.2318 115.259 25.231 115.238 25.2346 115.217L28.9518 92.5574C28.957 92.5232 28.974 92.4923 28.9996 92.4705C29.0252 92.4488 29.0575 92.4378 29.0903 92.4397L30.9138 92.5186C30.9329 92.5193 30.9517 92.5243 30.9688 92.5332C30.9859 92.5422 31.001 92.5549 31.013 92.5705C31.0251 92.5861 31.0338 92.6043 31.0386 92.6238C31.0434 92.6432 31.0442 92.6635 31.0409 92.6834L27.4641 115.265C27.4588 115.298 27.4425 115.328 27.4181 115.35C27.3938 115.372 27.3629 115.383 27.331 115.383ZM25.5274 115.1H27.2166L30.7499 92.796L29.1974 92.7324L25.5274 115.1Z" fill="black"/>
<path d="M48.3553 89.707H27.2084C26.5405 89.707 25.999 90.2765 25.999 90.979V91.5332C25.999 92.2357 26.5405 92.8052 27.2084 92.8052H48.3553C49.0233 92.8052 49.5647 92.2357 49.5647 91.5332V90.979C49.5647 90.2765 49.0233 89.707 48.3553 89.707Z" fill="white"/>
<path d="M48.3549 92.9465H27.2086C26.8521 92.9462 26.5104 92.7971 26.2584 92.532C26.0063 92.2669 25.8646 91.9075 25.8643 91.5326V90.979C25.8654 90.6047 26.0075 90.2461 26.2594 89.9817C26.5114 89.7173 26.8527 89.5687 27.2086 89.5684H48.3549C48.7114 89.5685 49.0533 89.7175 49.3055 89.9826C49.5577 90.2477 49.6995 90.6072 49.6998 90.9822V91.5358C49.6987 91.9102 49.5565 92.2689 49.3044 92.5334C49.0523 92.7978 48.7109 92.9463 48.3549 92.9465ZM27.2086 89.849C26.9237 89.8493 26.6506 89.9685 26.4492 90.1803C26.2477 90.3922 26.1344 90.6794 26.1341 90.979V91.5326C26.1344 91.8322 26.2477 92.1195 26.4492 92.3313C26.6506 92.5432 26.9237 92.6624 27.2086 92.6627H48.3549C48.6398 92.6625 48.9131 92.5434 49.1147 92.3316C49.3163 92.1197 49.4296 91.8323 49.43 91.5326V90.979C49.4295 90.6794 49.316 90.3921 49.1145 90.1803C48.913 89.9685 48.6398 89.8493 48.3549 89.849H27.2086Z" fill="black"/>
<path d="M47.4984 109.463C47.4984 109.463 46.4856 110.41 46.2279 111.521C45.9701 112.632 45.5357 114.968 46.2642 115.237C46.8038 115.435 52.3596 115.34 55.2038 115.277C56.0998 115.256 56.5874 114.147 56.003 113.432C55.5589 112.889 54.8886 112.31 53.8758 111.826C51.0716 110.485 50.4527 109.681 50.4527 109.681L47.4984 109.463Z" fill="white"/>
<path d="M49.3719 115.499C47.7221 115.499 46.4782 115.466 46.2222 115.372C45.4496 115.088 45.7292 113.104 46.1012 111.491C46.3632 110.35 47.3681 109.4 47.4105 109.36C47.4239 109.348 47.4396 109.338 47.4567 109.332C47.4737 109.326 47.4917 109.323 47.5097 109.325L50.4664 109.544C50.4849 109.545 50.5029 109.551 50.5194 109.56C50.5358 109.569 50.5503 109.581 50.562 109.596C50.568 109.603 51.2142 110.4 53.9367 111.701C54.8442 112.134 55.5702 112.686 56.1099 113.343C56.2574 113.522 56.3529 113.742 56.3851 113.976C56.4173 114.21 56.3848 114.45 56.2914 114.665C56.1993 114.887 56.0486 115.076 55.8573 115.21C55.6659 115.344 55.442 115.417 55.2121 115.422C53.2627 115.462 51.095 115.499 49.3719 115.499ZM47.5472 109.613C47.3591 109.804 46.575 110.631 46.362 111.558C45.8961 113.587 45.878 114.946 46.3118 115.106C46.679 115.242 50.0023 115.254 55.2054 115.138C55.384 115.135 55.5579 115.078 55.7065 114.974C55.8552 114.869 55.9723 114.723 56.044 114.551C56.1176 114.384 56.1436 114.199 56.1189 114.018C56.0942 113.836 56.0198 113.666 55.9048 113.529C55.393 112.903 54.6948 112.376 53.8242 111.96C51.3715 110.787 50.5717 110.019 50.3932 109.823L47.5472 109.613Z" fill="black"/>
<path d="M38.8304 109.463C38.8304 109.463 37.8176 110.41 37.5629 111.521C37.3082 112.632 36.8708 114.968 37.5992 115.237C38.1389 115.435 43.6947 115.34 46.5388 115.277C47.4348 115.256 47.9225 114.147 47.3381 113.432C46.894 112.889 46.2236 112.31 45.2108 111.826C42.4066 110.485 41.7877 109.681 41.7877 109.681L38.8304 109.463Z" fill="white"/>
<path d="M40.7049 115.499C39.0551 115.499 37.8118 115.466 37.5553 115.372C36.7827 115.088 37.0622 113.104 37.4342 111.491C37.6962 110.35 38.7011 109.4 38.7435 109.36C38.7569 109.348 38.7727 109.338 38.7897 109.332C38.8067 109.326 38.8247 109.323 38.8427 109.325L41.8 109.544C41.8184 109.545 41.8363 109.551 41.8527 109.56C41.869 109.569 41.8834 109.581 41.895 109.596C41.901 109.603 42.5472 110.4 45.2697 111.701C46.1772 112.134 46.9032 112.686 47.4429 113.343C47.5904 113.522 47.6859 113.742 47.7181 113.976C47.7503 114.21 47.7178 114.45 47.6244 114.665C47.5323 114.887 47.3816 115.076 47.1903 115.21C46.9989 115.344 46.775 115.417 46.5451 115.422C44.5957 115.462 42.428 115.499 40.7049 115.499ZM38.882 109.613C38.6939 109.804 37.9098 110.631 37.6968 111.558C37.231 113.587 37.2128 114.946 37.6466 115.106C38.0145 115.242 41.3372 115.254 46.5402 115.138C46.7188 115.135 46.8927 115.078 47.0414 114.974C47.19 114.869 47.3071 114.723 47.3788 114.551C47.4524 114.384 47.4785 114.199 47.4537 114.018C47.429 113.836 47.3546 113.666 47.2396 113.529C46.7278 112.903 46.0296 112.376 45.159 111.96C42.7063 110.787 41.9065 110.019 41.728 109.823L38.882 109.613Z" fill="black"/>
<path d="M47.4813 108.508L47.4256 109.463C47.4137 109.661 47.4406 109.861 47.5048 110.048C47.569 110.235 47.6689 110.407 47.7986 110.552C47.9283 110.697 48.0848 110.813 48.2587 110.892C48.4325 110.971 48.6199 111.012 48.8092 111.012H49.7319C50.0919 111.012 50.4379 110.865 50.6965 110.601C50.9552 110.338 51.1063 109.979 51.118 109.601L51.1718 107.846L47.4813 108.508Z" fill="white"/>
<path d="M49.7321 111.151H48.8095C48.6018 111.151 48.3964 111.106 48.2059 111.019C48.0153 110.933 47.8436 110.806 47.7014 110.647C47.5592 110.488 47.4494 110.3 47.3788 110.094C47.3082 109.889 47.2783 109.671 47.2909 109.453L47.3466 108.498C47.3485 108.466 47.3605 108.436 47.3808 108.412C47.4012 108.388 47.4285 108.372 47.4585 108.367L51.149 107.703C51.1688 107.7 51.1891 107.701 51.2084 107.706C51.2277 107.712 51.2454 107.722 51.2604 107.737C51.2755 107.75 51.2876 107.767 51.2956 107.787C51.3037 107.806 51.3076 107.827 51.307 107.848L51.2531 109.603C51.2425 110.019 51.0773 110.414 50.793 110.703C50.5087 110.993 50.1278 111.153 49.7321 111.151ZM47.6091 108.627L47.5601 109.47C47.5492 109.65 47.5734 109.83 47.6313 109.999C47.6891 110.169 47.7794 110.324 47.8965 110.455C48.0136 110.586 48.155 110.691 48.3121 110.762C48.4691 110.834 48.6384 110.87 48.8095 110.87H49.7321C50.0573 110.872 50.3702 110.74 50.6039 110.502C50.8377 110.264 50.9738 109.94 50.9833 109.598L51.0317 108.016L47.6091 108.627Z" fill="black"/>
<path d="M38.8865 108.508L38.8308 109.463C38.8191 109.661 38.8461 109.86 38.9102 110.047C38.9743 110.235 39.0742 110.406 39.2036 110.551C39.333 110.696 39.4893 110.812 39.6628 110.891C39.8363 110.97 40.0234 111.012 40.2126 111.012H41.1353C41.4952 111.012 41.841 110.864 42.0995 110.601C42.3581 110.338 42.5091 109.979 42.5207 109.601L42.5746 107.846L38.8865 108.508Z" fill="white"/>
<path d="M41.1369 111.151H40.2119C40.0042 111.151 39.7988 111.106 39.6082 111.019C39.4176 110.933 39.2458 110.806 39.1036 110.647C38.9613 110.488 38.8515 110.3 38.781 110.094C38.7104 109.889 38.6806 109.671 38.6933 109.453L38.7489 108.498C38.7508 108.466 38.7629 108.436 38.7832 108.412C38.8035 108.388 38.8309 108.372 38.8609 108.367L42.5514 107.703C42.5712 107.7 42.5914 107.701 42.6107 107.706C42.63 107.712 42.6478 107.722 42.6627 107.736C42.6777 107.75 42.6896 107.767 42.6976 107.787C42.7055 107.806 42.7093 107.827 42.7087 107.848L42.6549 109.603C42.6443 110.018 42.4795 110.413 42.1958 110.702C41.9122 110.991 41.5321 111.153 41.1369 111.151ZM39.0139 108.627L38.9649 109.47C38.954 109.65 38.9782 109.83 39.0361 109.999C39.0939 110.169 39.1842 110.324 39.3013 110.455C39.4184 110.586 39.5598 110.691 39.7169 110.762C39.8739 110.834 40.0432 110.87 40.2143 110.87H41.1369C41.462 110.872 41.7748 110.739 42.0085 110.502C42.2421 110.264 42.3782 109.939 42.3875 109.598L42.4359 108.016L39.0139 108.627Z" fill="black"/>
<path d="M28.4211 82.1046C28.4211 82.1046 26.9648 88.5395 29.2953 89.613C31.6258 90.6864 36.3606 89.919 37.308 90.6851C38.2555 91.4512 37.7648 108.229 37.7648 108.229C37.7648 108.229 39.3475 109.991 43.6449 108.229C43.6449 108.229 46.5586 93.2119 45.6844 89.996C44.8876 87.0633 40.5854 84.0205 38.1091 82.795C35.6328 81.5695 28.4211 82.1046 28.4211 82.1046Z" fill="black"/>
<path d="M45.3937 81.416C45.3937 81.416 53.7706 84.6332 54.9359 89.2298C56.1011 93.8265 51.7293 108.918 51.7293 108.918C51.7293 108.918 47.6504 109.607 46.6303 108.075C46.6303 108.075 46.8487 94.0562 45.1734 91.8342C43.4982 89.6122 34.541 82.2585 34.541 82.2585C34.541 82.2585 44.301 82.4882 45.3937 81.416Z" fill="black"/>
<path d="M29.303 66.5052C28.9539 66.5052 28.577 66.4976 28.2073 66.476C28.0123 66.4641 27.8234 66.3995 27.6591 66.2885C27.4947 66.1774 27.3604 66.0236 27.2692 65.8419C27.1779 65.6602 27.1328 65.4568 27.1381 65.2515C27.1435 65.0461 27.1992 64.8456 27.2998 64.6695C27.3053 64.6602 27.3116 64.6515 27.3185 64.6434L28.5963 63.2664C28.6084 63.2521 28.6232 63.2405 28.6397 63.2323C28.6562 63.2241 28.6741 63.2195 28.6923 63.2188C28.7106 63.2182 28.7288 63.2214 28.7458 63.2283C28.7628 63.2352 28.7783 63.2456 28.7914 63.259C28.8045 63.2724 28.8148 63.2885 28.8218 63.3062C28.8288 63.3239 28.8323 63.343 28.8321 63.3622C28.8319 63.3813 28.828 63.4003 28.8207 63.4179C28.8133 63.4354 28.8026 63.4512 28.7893 63.4643L27.5188 64.8298C27.4453 64.9643 27.4056 65.1163 27.4036 65.2714C27.4015 65.4265 27.4372 65.5795 27.5072 65.716C27.5772 65.8526 27.6792 65.968 27.8035 66.0515C27.9278 66.1349 28.0704 66.1835 28.2176 66.1928C29.4155 66.2622 30.7211 66.1826 30.7344 66.182C30.77 66.1801 30.8048 66.1929 30.8314 66.2178C30.858 66.2427 30.8743 66.2776 30.8766 66.315C30.8777 66.3336 30.8754 66.3522 30.8696 66.3699C30.8639 66.3875 30.8549 66.4038 30.8431 66.4178C30.8314 66.4317 30.8171 66.4431 30.8011 66.4512C30.7852 66.4594 30.7678 66.4641 30.7501 66.4651C30.7453 66.4658 30.1022 66.5052 29.303 66.5052Z" fill="black"/>
<path d="M31.4541 66.7505V69.9651H36.2627C36.3728 69.9655 36.4809 69.9342 36.5754 69.8747C36.6698 69.8152 36.747 69.7297 36.7987 69.6274C36.8504 69.5252 36.8745 69.41 36.8686 69.2944C36.8626 69.1787 36.8268 69.067 36.7649 68.9712C36.1036 67.9703 34.6129 66.594 31.4541 66.7505Z" fill="white"/>
<path d="M36.2638 70.1081H31.4552C31.4194 70.1081 31.3851 70.0932 31.3598 70.0665C31.3345 70.0399 31.3203 70.0038 31.3203 69.9662V66.7516C31.3203 66.7151 31.3337 66.68 31.3577 66.6537C31.3817 66.6274 31.4145 66.6118 31.4492 66.6103C34.5862 66.4545 36.1326 67.7646 36.8767 68.8915C36.9541 69.0065 36.9994 69.142 37.0075 69.2826C37.0157 69.4233 36.9863 69.5635 36.9227 69.6875C36.8601 69.8144 36.7655 69.9208 36.6493 69.995C36.5331 70.0691 36.3998 70.1083 36.2638 70.1081ZM31.5901 69.8243H36.2638C36.3506 69.8252 36.4359 69.8006 36.5101 69.7533C36.5843 69.706 36.6444 69.6378 36.6837 69.5564C36.7238 69.478 36.7423 69.3894 36.7373 69.3005C36.7323 69.2117 36.7039 69.126 36.6553 69.0531C35.9601 68.0007 34.5178 66.7777 31.5901 66.8897V69.8243Z" fill="black"/>
<path d="M35.8964 53.2236C35.0077 52.8463 33.3354 51.3427 33.0759 48.9604C32.8163 46.5781 33.6204 43.8178 34.4759 42.9537C35.3314 42.0896 40.2912 39.1314 43.2951 42.7043C46.299 46.2771 42.249 49.7564 42.249 49.7564L35.8964 53.2236Z" fill="black"/>
<path d="M34.9532 45.2276C35.6623 43.8089 35.1436 42.0542 33.7947 41.3084C32.4457 40.5626 30.7773 41.1081 30.0682 42.5268C29.359 43.9456 29.8777 45.7003 31.2267 46.4461C32.5757 47.1919 34.2441 46.6464 34.9532 45.2276Z" fill="black"/>
<path d="M43.4888 41.7333C43.865 40.3753 43.1231 38.9537 41.8319 38.5582C40.5406 38.1626 39.189 38.9428 38.8129 40.3008C38.4367 41.6589 39.1786 43.0804 40.4698 43.476C41.7611 43.8716 43.1127 43.0914 43.4888 41.7333Z" fill="black"/>
<path d="M36.0775 50.4531L35.389 54.8334C34.8046 57.0382 39.1449 57.8476 39.4958 56.561L39.7033 53.1886L36.0775 50.4531Z" fill="white"/>
<path d="M38.201 57.3206C37.8173 57.3176 37.4357 57.26 37.0666 57.1494C36.0296 56.8408 34.9352 56.0423 35.2576 54.8059L35.9449 50.4326C35.9485 50.4088 35.9579 50.3863 35.9723 50.3675C35.9866 50.3486 36.0053 50.334 36.0266 50.3251C36.0478 50.3159 36.0708 50.3126 36.0936 50.3154C36.1163 50.3182 36.138 50.327 36.1567 50.341L39.7825 53.0771C39.8016 53.0913 39.8168 53.1105 39.8267 53.1328C39.8366 53.1552 39.8407 53.1798 39.8388 53.2043L39.6306 56.5767C39.63 56.5869 39.6283 56.5969 39.6258 56.6066C39.4903 57.1004 38.901 57.3206 38.201 57.3206ZM36.1754 50.703L35.5226 54.8581C35.5219 54.8632 35.5209 54.8683 35.5196 54.8734C35.2443 55.9118 36.176 56.5914 37.1398 56.8745C38.1804 57.1844 39.2114 57.0253 39.3626 56.5367L39.5647 53.261L36.1754 50.703Z" fill="black"/>
<path d="M42.9907 45.1941C43.4366 45.1655 43.7288 52.7076 41.7274 53.6837C39.7261 54.6597 36.4112 53.6983 35.7772 51.2657C35.7772 51.2657 34.3251 51.3592 34.3651 49.3097C34.3959 47.5917 35.9484 48.5353 36.4221 48.8643C36.5151 48.9288 36.6255 48.9597 36.7367 48.9521C38.1627 48.6759 36.4681 46.3744 40.1302 44.748C40.1314 44.7519 41.3269 45.3023 42.9907 45.1941Z" fill="white"/>
<path d="M39.9659 54.2044C39.1898 54.2036 38.423 54.0269 37.7177 53.6865C36.6819 53.1812 35.9632 52.3757 35.6746 51.4098C35.3312 51.3885 35.0058 51.2413 34.755 50.9936C34.392 50.6284 34.2159 50.0621 34.2292 49.3113C34.2389 48.778 34.3908 48.4255 34.6818 48.2652C35.2214 47.9661 36.0503 48.4408 36.4968 48.7507C36.5633 48.7965 36.6419 48.8188 36.7213 48.8143C37.1617 48.7252 37.2373 48.4325 37.3529 47.8382C37.5235 46.9633 37.7812 45.6411 40.0754 44.6211C40.0922 44.6134 40.1103 44.6094 40.1287 44.6094C40.147 44.6094 40.1651 44.6134 40.1819 44.6211C40.1934 44.6262 41.3701 45.1549 42.9795 45.0518C43.1713 45.0404 43.2354 45.314 43.2674 45.4463C43.5857 46.7692 43.6625 52.8911 41.7809 53.8118C41.2096 54.0779 40.5907 54.2118 39.9659 54.2044ZM35.7756 51.1279C35.8052 51.128 35.834 51.1382 35.8576 51.157C35.8812 51.1759 35.8983 51.2023 35.9063 51.2322C36.1483 52.1619 36.8326 52.942 37.8308 53.4288C39.0766 54.0364 40.5836 54.0861 41.6696 53.556C42.2081 53.2932 42.631 52.4438 42.8942 51.0993C43.3709 48.6597 43.1531 45.7072 42.9547 45.3394C41.4796 45.4254 40.3876 45.013 40.1329 44.9068C38.0154 45.865 37.7861 47.0377 37.6185 47.8974C37.5066 48.4745 37.4091 48.9721 36.763 49.0974C36.7578 49.0981 36.7525 49.0981 36.7473 49.0974C36.6069 49.1067 36.4674 49.0678 36.3498 48.9867C36.1005 48.8137 35.2541 48.2696 34.8088 48.5152C34.6122 48.6247 34.5063 48.897 34.5009 49.3163C34.4888 49.9825 34.637 50.477 34.9407 50.7856C35.166 51.0059 35.4625 51.1281 35.7702 51.1273L35.7756 51.1279Z" fill="black"/>
<path d="M49.3039 68.3332C49.2736 68.3333 49.2442 68.3226 49.2204 68.303C49.1966 68.2834 49.1798 68.2559 49.1726 68.225L48.498 65.3165C48.4895 65.2799 48.4952 65.2412 48.5138 65.209C48.5324 65.1768 48.5624 65.1536 48.5972 65.1447C48.632 65.1357 48.6688 65.1417 48.6995 65.1613C48.7301 65.1809 48.7521 65.2124 48.7606 65.249L49.4352 68.1576C49.4434 68.1942 49.4376 68.2327 49.419 68.2649C49.4005 68.297 49.3706 68.3202 49.3359 68.3294C49.3254 68.3319 49.3147 68.3331 49.3039 68.3332Z" fill="black"/>
<path d="M51.9922 68.7323L50.761 68.082L50.4004 70.3899L51.9922 68.7323Z" fill="white"/>
<path d="M55.3236 57.5234L57.4895 58.7178L56.9008 59.7957C56.8685 59.8548 56.8233 59.9049 56.7689 59.942L56.6703 60.0095C56.6092 60.0512 56.5598 60.1092 56.527 60.1776C56.4943 60.2461 56.4794 60.3224 56.484 60.3989C56.4894 60.4835 56.4708 60.5678 56.4307 60.6413L52.0632 68.6543L50.8271 67.9136L54.4572 59.5208C54.488 59.4493 54.5367 59.3879 54.5982 59.3433L54.6133 59.3324C54.6717 59.2903 54.7187 59.233 54.7499 59.1661C54.7811 59.0992 54.7953 59.025 54.7912 58.9507L54.7869 58.8743C54.7834 58.8045 54.796 58.7348 54.8238 58.6713L55.3236 57.5234Z" fill="white"/>
<path d="M52.0623 68.793C52.039 68.7928 52.0161 68.7864 51.9957 68.7745L50.7597 68.0339C50.7304 68.0164 50.7084 67.988 50.698 67.9544C50.6876 67.9207 50.6895 67.8842 50.7034 67.8519L54.3335 59.4584C54.3745 59.3635 54.4393 59.2821 54.5211 59.223L54.5368 59.2122C54.576 59.1842 54.6077 59.1461 54.6289 59.1016C54.6501 59.057 54.66 59.0074 54.6578 58.9577L54.6542 58.8813C54.6493 58.7888 54.666 58.6964 54.7026 58.6122L55.1999 57.4624C55.2075 57.4448 55.2184 57.429 55.232 57.416C55.2456 57.403 55.2616 57.393 55.279 57.3867C55.2964 57.3804 55.3148 57.3779 55.3331 57.3793C55.3514 57.3807 55.3693 57.386 55.3856 57.3949L57.5509 58.5899C57.567 58.5987 57.5813 58.6108 57.5928 58.6256C57.6043 58.6403 57.6129 58.6573 57.618 58.6756C57.6231 58.694 57.6246 58.7132 57.6224 58.7321C57.6202 58.7511 57.6145 58.7693 57.6054 58.7859L57.0167 59.8638C56.9737 59.9424 56.9136 60.0091 56.8413 60.0585L56.7426 60.1259C56.7016 60.1539 56.6684 60.1928 56.6464 60.2388C56.6245 60.2848 56.6147 60.3361 56.618 60.3874C56.6248 60.4998 56.6 60.6118 56.5466 60.7094L52.1797 68.7224C52.1677 68.744 52.1506 68.7619 52.13 68.7743C52.1094 68.7867 52.086 68.7931 52.0623 68.793ZM50.9999 67.8513L52.0121 68.4577L56.3125 60.5675C56.3397 60.518 56.3523 60.4611 56.3488 60.404C56.3425 60.3023 56.3621 60.2007 56.4056 60.1097C56.4491 60.0186 56.5149 59.9414 56.5962 59.886L56.6948 59.8224C56.7313 59.7974 56.7616 59.7636 56.7832 59.7238L57.3017 58.7744L55.3862 57.7182L54.9482 58.7312C54.9295 58.774 54.921 58.8209 54.9234 58.868L54.9276 58.9437C54.9324 59.0421 54.9132 59.1402 54.8718 59.2286C54.8304 59.317 54.7681 59.3929 54.6911 59.4489L54.6759 59.4597C54.6347 59.4897 54.6019 59.5308 54.5809 59.5787L50.9999 67.8513Z" fill="black"/>
<path d="M55.3236 57.5234L57.4895 58.7178L56.9008 59.7957C56.8682 59.8548 56.8228 59.9052 56.7684 59.9427L56.6709 60.0063C56.6097 60.048 56.5601 60.1061 56.5272 60.1747C56.4944 60.2432 56.4795 60.3197 56.484 60.3963C56.4894 60.4809 56.4709 60.5653 56.4308 60.6388L52.0632 68.6517C52.0275 68.7177 51.9836 68.7782 51.9325 68.8318L50.4654 70.3761C50.4588 70.3832 50.4502 70.3879 50.4408 70.3895C50.4315 70.3911 50.422 70.3894 50.4136 70.3849C50.4052 70.3803 50.3984 70.3731 50.3942 70.3642C50.39 70.3553 50.3887 70.3452 50.3903 70.3354L50.7249 68.261C50.7446 68.1403 50.779 68.0226 50.8272 67.9111L54.4572 59.5182C54.488 59.4467 54.5368 59.3853 54.5982 59.3407L54.6133 59.3299C54.6718 59.2879 54.719 59.2306 54.7501 59.1637C54.7813 59.0968 54.7955 59.0225 54.7912 58.9481L54.7869 58.8718C54.7833 58.8017 54.796 58.7319 54.8239 58.6681L55.3236 57.5234Z" fill="black"/>
<path d="M52.0232 68.7761C52.0021 68.7756 51.9815 68.7702 51.9627 68.7602L50.8132 68.1194C50.7815 68.1018 50.7577 68.0716 50.7472 68.0356C50.7366 67.9995 50.7401 67.9606 50.7569 67.9272C50.7737 67.8939 50.8023 67.869 50.8366 67.8579C50.8709 67.8468 50.9079 67.8504 50.9396 67.8681L52.0891 68.5088C52.1156 68.5235 52.1366 68.5471 52.1489 68.5757C52.1612 68.6044 52.1641 68.6365 52.1572 68.6671C52.1503 68.6977 52.1339 68.725 52.1106 68.7447C52.0874 68.7644 52.0585 68.7754 52.0286 68.7761H52.0232Z" fill="black"/>
<path d="M58.4407 56.8529L57.6058 58.5029C57.5888 58.5365 57.5656 58.5663 57.5376 58.5905C57.5096 58.6146 57.4773 58.6328 57.4426 58.6438C57.4079 58.6548 57.3714 58.6584 57.3354 58.6546C57.2993 58.6507 57.2644 58.6394 57.2325 58.6212L55.5524 57.6667C55.4885 57.6305 55.4409 57.5691 55.4199 57.496C55.3989 57.4229 55.4063 57.3441 55.4405 57.2767L56.2766 55.6223C56.3174 55.5399 56.3732 55.4667 56.4409 55.407C56.5087 55.3473 56.5869 55.3023 56.6713 55.2745C56.7556 55.2467 56.8443 55.2367 56.9323 55.2451C57.0203 55.2534 57.1059 55.28 57.1841 55.3232L58.1739 55.8851C58.331 55.9765 58.4474 56.1297 58.4974 56.3111C58.5474 56.4924 58.527 56.6873 58.4407 56.8529Z" fill="white"/>
<path d="M57.3636 58.7978C57.2957 58.7976 57.229 58.7797 57.1694 58.7456L55.4893 57.7911C55.3941 57.7369 55.3232 57.6454 55.2919 57.5365C55.2607 57.4276 55.2716 57.31 55.3223 57.2095L56.159 55.5552C56.2091 55.4547 56.2776 55.3657 56.3607 55.2934C56.4438 55.221 56.5398 55.1668 56.643 55.1339C56.7428 55.1018 56.8477 55.0908 56.9516 55.1018C57.0555 55.1127 57.1562 55.1452 57.248 55.1975L58.2378 55.7594C58.4256 55.8688 58.5648 56.0518 58.625 56.2685C58.6853 56.4852 58.6618 56.7182 58.5597 56.9168L57.7248 58.5668C57.6995 58.6168 57.6652 58.6611 57.6236 58.6971C57.5821 58.7331 57.5342 58.7602 57.4828 58.7768C57.4442 58.7897 57.4041 58.7968 57.3636 58.7978ZM56.8753 55.3846C56.8233 55.3846 56.7715 55.3925 56.7217 55.4082C56.6525 55.4304 56.5881 55.4668 56.5324 55.5153C56.4766 55.5638 56.4305 55.6234 56.3968 55.6907L55.5607 57.3451C55.5432 57.3794 55.5394 57.4197 55.5501 57.457C55.5607 57.4943 55.585 57.5256 55.6175 57.5442L57.2976 58.4987C57.3305 58.5173 57.369 58.5214 57.4047 58.5101C57.4224 58.5045 57.4388 58.4953 57.453 58.4829C57.4673 58.4706 57.479 58.4554 57.4876 58.4382L58.3225 56.7883C58.3911 56.656 58.4074 56.5005 58.3678 56.3557C58.3281 56.2108 58.2358 56.0883 58.1108 56.0146L57.121 55.4527C57.0458 55.4087 56.9613 55.3853 56.8753 55.3846Z" fill="black"/>
<path d="M55.4016 61.8757C55.4579 61.7946 55.5289 61.7259 55.6106 61.6737C55.6922 61.6215 55.7828 61.5867 55.8772 61.5714C55.9717 61.5561 56.068 61.5605 56.1608 61.5845C56.2536 61.6084 56.341 61.6514 56.418 61.7109C56.598 61.8487 56.7634 62.0065 56.9111 62.1818C57.3346 62.6806 57.4362 63.4328 57.1718 63.9857C56.8627 64.6309 56.3895 65.2424 55.8505 65.8405C54.8685 66.0244 53.9199 66.0639 53.1279 65.439C53.4183 63.1668 54.9478 62.5598 55.4016 61.8757Z" fill="white"/>
<path d="M54.7645 66.0968C54.171 66.0968 53.5738 65.9657 53.0456 65.5489C53.0263 65.5339 53.0112 65.5136 53.0018 65.4904C52.9925 65.4671 52.9892 65.4416 52.9924 65.4165C53.212 63.7081 54.1014 62.9178 54.7512 62.34C54.9799 62.137 55.1747 61.9621 55.2902 61.7909C55.3535 61.6956 55.4342 61.6146 55.5278 61.5528C55.6213 61.4909 55.7257 61.4494 55.8347 61.4307C55.9495 61.4105 56.0669 61.4144 56.1803 61.4422C56.2936 61.4701 56.4005 61.5213 56.4948 61.593C56.6829 61.7366 56.8555 61.9013 57.0097 62.0842C57.4677 62.6257 57.5832 63.4332 57.2898 64.046C57.0127 64.625 56.5856 65.225 55.9461 65.9345C55.9263 65.9567 55.9001 65.9714 55.8716 65.9765C55.5067 66.0506 55.1362 66.0909 54.7645 66.0968ZM53.2713 65.3707C54.0258 65.9237 54.9212 65.8632 55.7827 65.7054C56.3877 65.0316 56.79 64.4627 57.0532 63.9187C57.2952 63.4147 57.193 62.7224 56.8112 62.2726C56.6699 62.1053 56.5119 61.9544 56.3399 61.8227C56.2747 61.773 56.2007 61.7375 56.1223 61.7183C56.0438 61.699 55.9625 61.6965 55.8831 61.7107C55.8092 61.723 55.7384 61.7509 55.6749 61.7925C55.6114 61.8341 55.5565 61.8888 55.5135 61.9532C55.3798 62.1549 55.1698 62.3413 54.9272 62.557C54.3198 63.0966 53.4952 63.8283 53.2713 65.3707Z" fill="black"/>
<path d="M102.626 89.9782L106.575 118.604H108.744L104.639 89.8789L102.626 89.9782Z" fill="white"/>
<path d="M108.743 118.749H106.575C106.542 118.749 106.511 118.737 106.486 118.714C106.462 118.692 106.446 118.661 106.441 118.627L102.492 90.0019C102.489 89.9823 102.49 89.9623 102.495 89.9432C102.5 89.9242 102.509 89.9064 102.521 89.8912C102.533 89.8759 102.548 89.8635 102.565 89.8548C102.582 89.846 102.6 89.8411 102.619 89.8403L104.633 89.7404C104.666 89.7388 104.699 89.7502 104.725 89.7726C104.75 89.7949 104.767 89.8266 104.772 89.8613L108.876 118.587C108.879 118.607 108.878 118.628 108.873 118.647C108.867 118.667 108.858 118.685 108.845 118.7C108.833 118.716 108.817 118.728 108.799 118.736C108.782 118.745 108.763 118.749 108.743 118.749ZM106.692 118.465H108.587L104.524 90.0299L102.781 90.1164L106.692 118.465Z" fill="black"/>
<path d="M106.295 89.13L110.827 55.2666C110.905 54.6814 110.861 54.0852 110.698 53.5196C110.535 52.954 110.256 52.4327 109.882 51.9919C109.508 51.5511 109.046 51.2015 108.53 50.9673C108.014 50.7332 107.456 50.6202 106.894 50.6363L94.4996 50.9888C93.6228 51.0136 92.7844 51.3721 92.1398 51.9976C91.4952 52.6231 91.0881 53.4733 90.9941 54.3904L87.5244 88.2717L106.295 89.13Z" fill="white"/>
<path d="M106.295 89.2739H106.289L87.5197 88.4162C87.5012 88.4153 87.4832 88.4105 87.4666 88.402C87.45 88.3935 87.4352 88.3816 87.4232 88.3668C87.4111 88.3521 87.4021 88.3349 87.3967 88.3164C87.3912 88.2978 87.3894 88.2783 87.3914 88.259L90.8605 54.3778C90.9607 53.4277 91.3837 52.5476 92.0516 51.8994C92.7195 51.2511 93.5876 50.8783 94.496 50.8495L106.891 50.4976C107.472 50.4811 108.05 50.5981 108.584 50.8404C109.118 51.0828 109.595 51.4446 109.982 51.9008C110.37 52.357 110.658 52.8965 110.827 53.4818C110.996 54.067 111.041 54.684 110.96 55.2896L106.429 89.1524C106.424 89.1862 106.408 89.2171 106.383 89.2394C106.359 89.2617 106.327 89.274 106.295 89.2739ZM87.6746 88.1381L106.179 88.9844L110.696 55.2489C110.771 54.6841 110.729 54.1089 110.571 53.5631C110.414 53.0174 110.145 52.5144 109.784 52.089C109.423 51.6636 108.978 51.3262 108.48 51.1001C107.982 50.8741 107.443 50.7649 106.901 50.7801L94.5063 51.1327C93.663 51.1593 92.8572 51.5053 92.2372 52.1071C91.6171 52.7088 91.2245 53.5258 91.1316 54.4077L87.6746 88.1381Z" fill="black"/>
<path d="M83.2373 90.125H106.837C107.505 90.125 108.047 89.5555 108.047 88.853V87.9762C108.047 87.2737 107.505 86.7042 106.837 86.7042H83.2373C82.5693 86.7042 82.0279 87.2737 82.0279 87.9762V88.853C82.0279 89.5555 82.5693 90.125 83.2373 90.125Z" fill="white"/>
<path d="M106.836 90.2671H83.2369C82.8804 90.2665 82.5387 90.1173 82.2866 89.8522C82.0346 89.587 81.8929 89.2275 81.8926 88.8526V87.9764C81.8931 87.6015 82.0348 87.2422 82.2869 86.9772C82.5389 86.7121 82.8805 86.563 83.2369 86.5625H106.836C107.193 86.5628 107.535 86.7119 107.787 86.9769C108.039 87.242 108.181 87.6014 108.181 87.9764V88.8526C108.181 89.2276 108.039 89.5872 107.787 89.8524C107.535 90.1176 107.193 90.2667 106.836 90.2671ZM83.2369 86.8463C82.952 86.8466 82.6789 86.9658 82.4775 87.1777C82.276 87.3895 82.1627 87.6768 82.1624 87.9764V88.8526C82.1627 89.1522 82.276 89.4395 82.4774 89.6515C82.6789 89.8634 82.952 89.9828 83.2369 89.9833H106.836C107.122 89.9829 107.395 89.8637 107.596 89.6517C107.798 89.4397 107.911 89.1523 107.912 88.8526V87.9764C107.911 87.6767 107.798 87.3895 107.596 87.1776C107.395 86.9658 107.121 86.8466 106.836 86.8463H83.2369Z" fill="black"/>
<path d="M86.3948 63.7345C82.985 75.585 78.7493 71.6246 74.0726 71.2244L72.1299 67.1782C77.333 68.8116 80.2074 68.5297 82.8446 62.1094L86.3948 63.7345Z" fill="white"/>
<path d="M79.659 72.3183C78.6795 72.3183 77.6752 72.0828 76.6545 71.8429C75.8106 71.645 74.9387 71.4402 74.0603 71.3644C74.0373 71.3625 74.0151 71.3544 73.996 71.341C73.9768 71.3275 73.9612 71.3091 73.9508 71.2874L72.0081 67.2412C71.9959 67.2165 71.991 67.1885 71.994 67.1609C71.997 67.1332 72.0078 67.1071 72.025 67.0859C72.0419 67.0647 72.0642 67.0491 72.0894 67.0411C72.1145 67.0331 72.1414 67.033 72.1666 67.0408C77.3751 68.6767 80.1346 68.3439 82.7192 62.0515C82.7336 62.017 82.7603 61.9899 82.7936 61.9758C82.81 61.9686 82.8275 61.9648 82.8453 61.9648C82.8631 61.9648 82.8807 61.9686 82.897 61.9758L86.4472 63.6015C86.4776 63.6154 86.502 63.6405 86.5158 63.672C86.5297 63.7036 86.532 63.7395 86.5222 63.7727C84.5106 70.7708 82.1692 72.3183 79.659 72.3183ZM74.1577 71.0889C75.0289 71.171 75.8844 71.3714 76.7132 71.5661C80.3596 72.4213 83.5111 73.1607 86.2294 63.8128L82.9128 62.2946C80.3276 68.4973 77.4265 68.9376 72.3892 67.4054L74.1577 71.0889Z" fill="black"/>
<path d="M78.165 109.203C77.8093 108.824 75.7534 102.098 75.7534 102.098L71.6914 105.146L76.1449 111.441L78.165 109.203Z" fill="white"/>
<path d="M76.1455 111.586H76.1376C76.1179 111.585 76.0987 111.579 76.0813 111.569C76.064 111.559 76.0489 111.545 76.0372 111.529L71.5837 105.234C71.5729 105.219 71.5651 105.202 71.5607 105.183C71.5563 105.165 71.5555 105.146 71.5582 105.127C71.561 105.109 71.5673 105.091 71.5768 105.075C71.5862 105.059 71.5987 105.045 71.6134 105.034L75.6754 101.985C75.6927 101.972 75.7126 101.964 75.7336 101.961C75.7546 101.957 75.776 101.959 75.7962 101.966C75.8164 101.973 75.8347 101.985 75.8496 102.001C75.8646 102.017 75.8758 102.036 75.8823 102.057C76.6718 104.641 78.0162 108.838 78.2618 109.106C78.2858 109.132 78.2993 109.168 78.2993 109.204C78.2993 109.241 78.2858 109.276 78.2618 109.303L76.2417 111.542C76.2292 111.556 76.2142 111.567 76.1977 111.574C76.1812 111.582 76.1635 111.586 76.1455 111.586ZM71.882 105.181L76.1582 111.226L77.9944 109.19C77.5376 108.333 76.1019 103.697 75.682 102.33L71.882 105.181Z" fill="black"/>
<path d="M70.8456 117.71L73.5488 117.695C74.4288 117.689 75.2938 117.454 76.0661 117.011C76.8384 116.567 77.4939 115.928 77.9738 115.153L80.6449 110.705C80.8194 110.414 80.9349 110.088 80.9842 109.748C81.0335 109.409 81.0156 109.062 80.9316 108.729C80.8475 108.397 80.6991 108.086 80.4957 107.817C80.2923 107.548 80.0383 107.326 79.7495 107.164C78.6345 106.542 77.4662 105.934 77.1921 105.962C76.6367 106.017 76.4123 108.783 76.4123 108.783L74.0055 108.88C74.0055 108.88 72.8161 114.08 71.767 114.67C71.0047 115.1 70.4729 115.733 70.1147 116.31C70.0302 116.448 69.9827 116.606 69.9771 116.77C69.9715 116.934 70.0082 117.096 70.0831 117.239C70.158 117.383 70.2684 117.502 70.4026 117.585C70.5369 117.668 70.6899 117.711 70.8456 117.71Z" fill="white"/>
<path d="M70.8399 117.853C70.6603 117.853 70.484 117.803 70.3295 117.706C70.1751 117.61 70.0484 117.471 69.9626 117.305C69.8769 117.139 69.8354 116.952 69.8426 116.763C69.8497 116.574 69.9052 116.391 70.0032 116.233C70.463 115.491 71.0354 114.922 71.7045 114.544C72.5188 114.084 73.5455 110.274 73.8722 108.845C73.879 108.815 73.895 108.788 73.9177 108.769C73.9405 108.749 73.9687 108.738 73.9981 108.737L76.2862 108.644C76.357 107.856 76.5887 105.877 77.1774 105.819C77.2827 105.808 77.561 105.78 79.8104 107.037C80.1155 107.208 80.3839 107.443 80.599 107.728C80.814 108.012 80.9711 108.341 81.0604 108.692C81.1508 109.042 81.1706 109.409 81.1185 109.768C81.0665 110.127 80.9436 110.471 80.7579 110.778L78.0867 115.225C77.5959 116.022 76.924 116.678 76.1318 117.134C75.3396 117.589 74.452 117.83 73.5492 117.834L70.8472 117.851L70.8399 117.853ZM74.1106 109.018C73.9055 109.893 72.8498 114.221 71.8322 114.796C71.2036 115.151 70.6639 115.687 70.2289 116.387C70.1572 116.502 70.1166 116.636 70.1114 116.773C70.1061 116.911 70.1364 117.048 70.1991 117.169C70.2618 117.29 70.3544 117.391 70.4672 117.461C70.5801 117.531 70.7089 117.568 70.8399 117.568H70.8448L73.5461 117.55C74.404 117.546 75.2474 117.318 76.0003 116.885C76.7532 116.453 77.3918 115.83 77.8587 115.073L80.5286 110.627C80.6934 110.352 80.8025 110.045 80.849 109.724C80.8956 109.403 80.8785 109.076 80.799 108.762C80.7195 108.449 80.5791 108.156 80.3868 107.902C80.1945 107.648 79.9544 107.439 79.6815 107.287C77.6608 106.158 77.2724 106.094 77.201 106.101C76.9354 106.127 76.6456 107.514 76.5422 108.792C76.5388 108.826 76.5239 108.858 76.5001 108.881C76.4763 108.905 76.4452 108.918 76.4127 108.92L74.1106 109.018Z" fill="black"/>
<path d="M71.1165 116.74C71.0821 116.741 71.0488 116.727 71.0234 116.703C70.998 116.678 70.9824 116.645 70.9799 116.609C70.9773 116.573 70.988 116.537 71.0096 116.509C71.0313 116.481 71.0624 116.462 71.0965 116.457L74.7919 115.873C75.1818 115.811 75.5539 115.66 75.8813 115.429C76.2087 115.197 76.4832 114.893 76.685 114.536L79.952 108.8C79.9704 108.767 80.0002 108.744 80.0349 108.735C80.0697 108.726 80.1064 108.731 80.1371 108.751C80.1679 108.77 80.19 108.801 80.1988 108.838C80.2075 108.874 80.2021 108.913 80.1837 108.945L76.9167 114.682C76.6944 115.074 76.392 115.41 76.0314 115.664C75.6709 115.918 75.2611 116.085 74.8318 116.152L71.1364 116.737L71.1165 116.74Z" fill="black"/>
<path d="M75.678 112.428C75.6659 112.428 75.654 112.426 75.6423 112.423L73.5853 111.833C73.5676 111.829 73.5508 111.821 73.5361 111.809C73.5214 111.798 73.509 111.784 73.4997 111.768C73.4903 111.751 73.4842 111.733 73.4817 111.714C73.4793 111.695 73.4804 111.676 73.4852 111.657C73.49 111.639 73.4982 111.622 73.5095 111.607C73.5208 111.592 73.5348 111.579 73.5508 111.57C73.5667 111.561 73.5843 111.555 73.6024 111.553C73.6205 111.552 73.6387 111.554 73.6561 111.559L75.7131 112.149C75.7451 112.157 75.7729 112.178 75.7914 112.207C75.8099 112.235 75.8177 112.27 75.8133 112.305C75.809 112.339 75.7929 112.371 75.7679 112.393C75.743 112.416 75.711 112.428 75.678 112.428Z" fill="black"/>
<path d="M74.6055 113.536C74.5948 113.536 74.584 113.535 74.5735 113.532L73.1928 113.177C73.1752 113.173 73.1584 113.166 73.1436 113.155C73.1288 113.144 73.1162 113.13 73.1066 113.114C73.097 113.098 73.0906 113.08 73.0877 113.061C73.0848 113.042 73.0855 113.023 73.0898 113.005C73.0941 112.986 73.1019 112.969 73.1127 112.954C73.1235 112.938 73.1371 112.926 73.1527 112.916C73.1683 112.906 73.1855 112.9 73.2034 112.898C73.2214 112.895 73.2396 112.897 73.257 112.902L74.6376 113.257C74.6693 113.265 74.697 113.286 74.7155 113.314C74.7339 113.342 74.742 113.377 74.738 113.411C74.7341 113.445 74.7185 113.477 74.6941 113.5C74.6698 113.523 74.6383 113.536 74.6055 113.536Z" fill="black"/>
<path d="M64.304 107.923L62.0897 110.441C61.3268 111.308 60.8353 112.4 60.6818 113.57L60.4325 115.463L52.3496 113.394L55.201 112.05C56.9796 111.212 58.5492 109.952 59.7864 108.368L61.435 105.564L64.304 107.923Z" fill="white"/>
<path d="M60.4326 115.605C60.4219 115.606 60.4111 115.604 60.4006 115.602L52.3177 113.532C52.2899 113.525 52.265 113.509 52.2466 113.486C52.2282 113.463 52.2172 113.434 52.2154 113.405C52.2128 113.375 52.2191 113.345 52.2333 113.32C52.2475 113.294 52.269 113.274 52.2947 113.262L55.1461 111.919C56.9016 111.089 58.4518 109.845 59.6764 108.283L61.3208 105.487C61.3308 105.47 61.3441 105.456 61.3598 105.444C61.3755 105.433 61.3932 105.426 61.4119 105.422C61.4305 105.419 61.4497 105.419 61.4681 105.424C61.4865 105.429 61.5037 105.438 61.5186 105.45L64.3876 107.808C64.4023 107.82 64.4145 107.835 64.4234 107.853C64.4323 107.87 64.4376 107.889 64.4391 107.909C64.4406 107.928 64.4382 107.948 64.432 107.966C64.4258 107.985 64.4161 108.002 64.4033 108.016L62.1884 110.535C61.443 111.38 60.9637 112.447 60.8156 113.589L60.5664 115.483C60.5633 115.503 60.5564 115.522 60.546 115.539C60.5355 115.556 60.5219 115.57 60.5059 115.581C60.4844 115.596 60.4589 115.605 60.4326 115.605ZM52.7642 113.354L60.3195 115.289L60.5482 113.55C60.7042 112.351 61.2078 111.232 61.9905 110.345L64.1081 107.939L61.4733 105.776L59.9039 108.445C59.9006 108.451 59.897 108.456 59.893 108.46C58.641 110.06 57.0551 111.333 55.2586 112.182L52.7642 113.354Z" fill="black"/>
<path d="M61.0787 112.127C61.0787 112.127 61.3068 114.247 60.9196 116.12C60.8158 116.605 60.5577 117.038 60.188 117.347C59.8183 117.657 59.3592 117.824 58.8867 117.821H47.3117C46.4847 117.821 46.1095 116.735 46.7436 116.176C48.8006 114.363 52.588 111.595 57.2429 110.781L58.5413 112.69L61.0787 112.127Z" fill="white"/>
<path d="M58.8861 117.96H47.3111C47.1016 117.96 46.8972 117.893 46.7257 117.766C46.5542 117.64 46.4238 117.461 46.3523 117.254C46.2808 117.047 46.2716 116.822 46.326 116.609C46.3805 116.396 46.4958 116.206 46.6564 116.065C48.5495 114.396 52.4397 111.473 57.2199 110.638C57.2448 110.634 57.2702 110.637 57.2935 110.648C57.3168 110.658 57.337 110.674 57.3518 110.696L58.5987 112.531L61.0502 111.986C61.0685 111.981 61.0875 111.981 61.1059 111.985C61.1242 111.989 61.1416 111.997 61.1567 112.009C61.172 112.021 61.1848 112.035 61.1942 112.053C61.2037 112.07 61.2097 112.089 61.2117 112.108C61.2117 112.129 61.438 114.272 61.0508 116.148C60.9388 116.664 60.6636 117.124 60.2703 117.453C59.8769 117.782 59.3888 117.961 58.8861 117.96ZM57.1812 110.933C52.502 111.776 48.6911 114.642 46.8295 116.283C46.7112 116.387 46.6262 116.527 46.5863 116.683C46.5463 116.84 46.5533 117.006 46.6062 117.158C46.6591 117.311 46.7554 117.442 46.882 117.535C47.0085 117.628 47.1592 117.677 47.3135 117.677H58.8885C59.33 117.678 59.7587 117.521 60.1043 117.232C60.4498 116.943 60.6917 116.539 60.7901 116.086C61.1077 114.545 61.003 112.814 60.9601 112.294L58.5709 112.826C58.5452 112.832 58.5184 112.83 58.4939 112.82C58.4694 112.81 58.4482 112.793 58.4329 112.77L57.1812 110.933Z" fill="black"/>
<path d="M59.858 116.288H47.8625C47.8267 116.288 47.7924 116.273 47.7671 116.246C47.7418 116.22 47.7275 116.183 47.7275 116.146C47.7275 116.108 47.7418 116.072 47.7671 116.045C47.7924 116.019 47.8267 116.004 47.8625 116.004H59.858C59.8938 116.004 59.9281 116.019 59.9534 116.045C59.9787 116.072 59.9929 116.108 59.9929 116.146C59.9929 116.183 59.9787 116.22 59.9534 116.246C59.9281 116.273 59.8938 116.288 59.858 116.288Z" fill="black"/>
<path d="M54.5552 114.046C54.5285 114.046 54.5024 114.038 54.4802 114.022C54.458 114.006 54.4407 113.984 54.4306 113.958L53.7953 112.339C53.7817 112.304 53.7818 112.265 53.7956 112.23C53.8093 112.195 53.8357 112.168 53.8688 112.153C53.902 112.139 53.9392 112.139 53.9722 112.154C54.0053 112.168 54.0316 112.196 54.0452 112.231L54.6798 113.85C54.6935 113.885 54.6934 113.924 54.6797 113.959C54.666 113.994 54.6397 114.021 54.6066 114.036C54.5903 114.043 54.5728 114.046 54.5552 114.046Z" fill="black"/>
<path d="M52.4679 114.474C52.4395 114.474 52.4118 114.465 52.3888 114.447C52.3658 114.43 52.3486 114.405 52.3397 114.377L51.8799 112.913C51.8686 112.877 51.8714 112.838 51.8875 112.805C51.9036 112.771 51.9318 112.746 51.9658 112.734C51.9998 112.722 52.0369 112.725 52.0689 112.742C52.1009 112.759 52.1251 112.788 52.1364 112.824L52.5956 114.288C52.6012 114.305 52.6034 114.324 52.6021 114.342C52.6009 114.361 52.5961 114.379 52.5882 114.396C52.5803 114.412 52.5693 114.427 52.556 114.439C52.5426 114.451 52.5271 114.461 52.5103 114.466C52.4967 114.471 52.4823 114.474 52.4679 114.474Z" fill="black"/>
<path d="M89.2692 73.0483C89.2692 73.0483 67.7145 70.4095 61.3051 76.2444C54.8956 82.0793 71.4226 107.173 71.4226 107.173L76.6493 103.096L71.6919 85.3607L91.6166 79.4101L89.2692 73.0483Z" fill="white"/>
<path d="M71.4228 107.314H71.401C71.3831 107.311 71.366 107.304 71.3507 107.294C71.3354 107.284 71.3223 107.271 71.3121 107.255C71.2703 107.191 67.1375 100.892 63.8396 93.962C59.3885 84.6032 58.5058 78.6061 61.2169 76.1385C63.8995 73.6957 69.445 72.4104 77.6894 72.3175C81.5621 72.287 85.4334 72.4844 89.2851 72.9086C89.3094 72.9115 89.3326 72.9212 89.352 72.937C89.3714 72.9527 89.3863 72.9737 89.3952 72.9977L91.7426 79.3607C91.7495 79.3791 91.7526 79.3988 91.7517 79.4186C91.7509 79.4383 91.7461 79.4576 91.7378 79.4753C91.7293 79.4929 91.7175 79.5085 91.703 79.5211C91.6885 79.5337 91.6717 79.543 91.6537 79.5485L71.8596 85.4603L76.7789 103.059C76.7866 103.087 76.7861 103.117 76.7773 103.144C76.7685 103.172 76.752 103.196 76.7299 103.213L71.5032 107.289C71.4796 107.306 71.4514 107.315 71.4228 107.314ZM78.6514 72.6051C72.2547 72.6051 64.7193 73.3229 61.3935 76.351C55.3731 81.8321 70.2267 105.077 71.4548 106.971L76.4934 103.041L71.5625 85.3999C71.5575 85.3819 71.5558 85.3631 71.5577 85.3445C71.5597 85.3258 71.5651 85.3078 71.5737 85.2914C71.5823 85.275 71.594 85.2605 71.6079 85.2489C71.6219 85.2373 71.6379 85.2287 71.6551 85.2236L91.4389 79.3149L89.1743 73.1791C85.6781 72.8025 82.166 72.6109 78.6514 72.6051Z" fill="black"/>
<path d="M101.206 84.3508C98.075 85.3957 92.4727 86.7465 84.6426 86.6345C83.5519 86.6174 82.4784 86.9217 81.5436 87.513C80.6088 88.1042 79.8499 88.9589 79.353 89.9802C77.034 94.7639 72.0143 103.377 63.837 108.959L59.9316 106.746L69.8992 83.1482C70.3499 82.0816 70.9999 81.1211 71.8106 80.3239C72.6213 79.5267 73.5761 78.9091 74.6182 78.5077L94.373 70.8886C94.373 70.8886 102.31 67.5098 105.271 74.8591C106.369 77.5876 103.895 83.4498 101.206 84.3508Z" fill="white"/>
<path d="M63.8369 109.096C63.8146 109.096 63.7925 109.09 63.7728 109.079L59.8675 106.867C59.8375 106.85 59.8147 106.821 59.8035 106.788C59.7923 106.754 59.7935 106.717 59.807 106.684L69.7745 83.0854C70.2345 82.0031 70.8955 81.0284 71.7187 80.2185C72.5419 79.4086 73.5106 78.7798 74.568 78.3691L94.3228 70.7507C94.3385 70.7437 96.355 69.8987 98.7115 69.9712C100.899 70.0399 103.834 70.9333 105.391 74.7988C105.929 76.1319 105.676 78.2985 104.731 80.4619C103.814 82.5566 102.511 84.0596 101.245 84.4821C97.9322 85.588 92.3619 86.8829 84.6396 86.7728C83.5732 86.7512 82.5227 87.0464 81.6086 87.6245C80.6946 88.2026 79.9541 89.0401 79.4722 90.0408C77.1962 94.7348 72.1474 103.45 63.9095 109.075C63.8878 109.089 63.8626 109.096 63.8369 109.096ZM60.1059 106.678L63.8303 108.789C71.9761 103.199 76.9753 94.5662 79.2332 89.9098C79.7391 88.8629 80.5148 87.9868 81.4717 87.3815C82.4286 86.7763 83.528 86.4663 84.6444 86.4871C92.328 86.5959 97.8711 85.3093 101.165 84.2098C102.342 83.8172 103.614 82.3346 104.487 80.3417C105.401 78.2527 105.653 76.1707 105.144 74.9089C103.939 71.9183 101.776 70.3536 98.7133 70.2544C96.4106 70.1793 94.4407 71.0065 94.4177 71.0179L74.6593 78.6383C73.6358 79.0357 72.6982 79.6443 71.9014 80.4282C71.1046 81.2121 70.4648 82.1555 70.0195 83.2031L60.1059 106.678Z" fill="black"/>
<path d="M107.358 50.3872C109.294 52.7663 110.026 56.1896 109.838 59.4602C109.698 61.8858 109.102 64.2484 108.351 66.5365C107.746 68.3767 106.375 70.432 106.273 72.3861C106.11 75.5001 105.682 79.4961 104.779 81.8135C103.913 84.0355 96.1633 79.8779 91.711 76.0391C90.3637 74.8772 86.3065 73.0224 83.2203 72.799L85.8297 64.7453C85.853 64.448 85.7656 64.1527 85.5859 63.9219C85.4062 63.691 85.1483 63.5425 84.8665 63.5077L81.6836 63.1139C81.6836 63.1139 82.7654 52.7784 89.9432 48.4789C94.0633 46.0107 98.9699 46.2798 103.52 47.7522C105.014 48.2238 106.346 49.1387 107.358 50.3872Z" fill="black"/>
<path d="M99.442 40.8054L100.578 46.6193C100.643 46.9117 100.791 47.1768 101.001 47.3799C101.212 47.583 101.475 47.7149 101.758 47.7583L102.452 47.8664C102.533 47.8786 102.608 47.9159 102.668 47.9735C102.728 48.0311 102.771 48.1063 102.79 48.1895C102.809 48.2727 102.803 48.3599 102.775 48.4399C102.746 48.52 102.695 48.5891 102.629 48.6383C101.221 49.6907 97.9373 51.4851 93.9448 49.2428C93.868 49.1941 93.806 49.1232 93.7662 49.0386C93.7265 48.954 93.7107 48.8591 93.7207 48.7653C93.7307 48.6715 93.7661 48.5827 93.8226 48.5094C93.8792 48.4362 93.9546 48.3815 94.0398 48.3519L94.9691 48.0242C95.2352 47.9315 95.4693 47.7581 95.6421 47.526C95.8148 47.2938 95.9185 47.0131 95.9402 46.7192L95.5094 40.1895L99.442 40.8054Z" fill="white"/>
<path d="M97.8176 50.4553C96.6276 50.4553 95.2972 50.1652 93.8851 49.3736C93.7847 49.3117 93.7034 49.2208 93.651 49.1116C93.5985 49.0024 93.5771 48.8796 93.5893 48.7579C93.6015 48.6362 93.6468 48.5208 93.7197 48.4255C93.7927 48.3302 93.8902 48.2591 94.0006 48.2206L94.9299 47.8935C95.1695 47.8105 95.3805 47.6551 95.5367 47.4468C95.6929 47.2385 95.7874 46.9865 95.8084 46.7221L95.3764 40.2064C95.375 40.1852 95.3782 40.164 95.3856 40.1443C95.393 40.1246 95.4046 40.1069 95.4194 40.0924C95.4342 40.078 95.4518 40.0673 95.4711 40.061C95.4904 40.0548 95.5107 40.0531 95.5307 40.0562L99.4632 40.6709C99.4905 40.6751 99.5159 40.6881 99.5359 40.708C99.5559 40.7279 99.5696 40.7538 99.5752 40.7822L100.714 46.5942C100.772 46.8587 100.906 47.0984 101.096 47.2817C101.287 47.465 101.526 47.5834 101.782 47.6212L102.476 47.73C102.583 47.7459 102.684 47.7954 102.764 47.872C102.844 47.9487 102.9 48.0489 102.926 48.1597C102.951 48.2705 102.944 48.3867 102.905 48.4932C102.867 48.5998 102.799 48.6917 102.71 48.757C101.868 49.3863 100.102 50.4553 97.8176 50.4553ZM95.6559 40.361L96.0794 46.7107C96.08 46.7174 96.08 46.7243 96.0794 46.731C96.0563 47.053 95.9431 47.3606 95.754 47.615C95.5649 47.8695 95.3085 48.0594 95.017 48.1608L94.0871 48.4879C94.0254 48.5084 93.9708 48.5476 93.93 48.6006C93.8893 48.6535 93.8642 48.7179 93.8578 48.7856C93.8501 48.8526 93.8612 48.9205 93.89 48.9808C93.9187 49.0412 93.9637 49.0912 94.0194 49.1248C97.863 51.2831 101.018 49.6765 102.555 48.526C102.6 48.4935 102.634 48.4474 102.654 48.3937C102.673 48.3401 102.677 48.2815 102.664 48.2257C102.652 48.1697 102.624 48.1189 102.583 48.0804C102.543 48.0419 102.492 48.0175 102.437 48.0106L101.744 47.9018C101.434 47.8557 101.144 47.7119 100.914 47.4894C100.683 47.2668 100.522 46.976 100.452 46.6553L99.3338 40.9349L95.6559 40.361Z" fill="black"/>
<path d="M91.4928 34.4465C92.695 34.0119 91.5061 35.7738 95.6601 33.0663C97.3142 31.9884 96.9833 34.4426 97.4147 34.1646C99.0022 33.1357 99.4396 32.8735 100.342 32.8544C100.941 32.8423 102.425 33.6415 102.448 34.4795C102.523 37.2157 101.253 36.8587 101.103 39.3065C100.998 41.0246 100.703 41.6271 100.16 42.0331C99.6175 42.4391 98.9363 41.7258 98.3052 42.1279C97.4885 42.6478 98.0862 44.1914 97.3977 45.1077C96.9645 45.6855 95.7521 46.2531 93.4537 45.8248C93.2735 45.7918 93.1102 45.693 92.9924 45.546C92.8745 45.3989 92.8097 45.2129 92.8093 45.0205C92.8093 44.5115 92.8093 43.8701 92.8626 43.2567C93.1088 40.3297 93.8548 39.4675 93.3466 38.8796C92.5661 37.9779 90.8182 39.1436 90.2737 38.375C89.7081 37.5764 89.8472 35.0408 91.4928 34.4465Z" fill="black"/>
<path d="M96.9628 37.7405L96.7934 38.5225C96.7135 38.8907 96.6579 39.2642 96.627 39.6405C96.5665 40.3462 96.4261 41.5539 96.3523 42.2341C96.117 44.4204 93.2263 42.9486 93.2263 42.9486L92.9237 42.4561L92.5771 42.416C92.5098 42.4092 92.4452 42.3845 92.3895 42.3441C92.3257 42.2956 92.2784 42.2268 92.2546 42.1479C92.2307 42.069 92.2316 41.9841 92.257 41.9057C92.5329 41.0512 93.0786 39.1556 93.0435 37.6088C93.0441 37.6088 94.8931 36.4857 96.9628 37.7405Z" fill="white"/>
<path d="M95.0323 43.5782C94.1611 43.5782 93.2203 43.1067 93.1683 43.08C93.146 43.0688 93.1271 43.0511 93.1139 43.0291L92.844 42.5932L92.5609 42.5601C92.4699 42.5513 92.3827 42.5175 92.308 42.4622C92.2207 42.396 92.156 42.3021 92.1233 42.1943C92.0907 42.0865 92.0918 41.9705 92.1265 41.8634C92.3721 41.0998 92.9408 39.1642 92.9075 37.6154C92.9067 37.5898 92.9125 37.5644 92.9243 37.542C92.9362 37.5196 92.9536 37.501 92.9747 37.4882C93.0527 37.4405 94.915 36.3384 97.0283 37.6193C97.0533 37.6344 97.073 37.6576 97.0845 37.6855C97.0961 37.7133 97.0988 37.7443 97.0924 37.7739L96.923 38.5565C96.8447 38.9185 96.7901 39.2856 96.7596 39.6554C96.7179 40.1696 96.6296 40.9598 96.5582 41.5949C96.5303 41.8399 96.5049 42.0657 96.485 42.2522C96.4245 42.7911 96.2115 43.1729 95.8443 43.3854C95.5933 43.5204 95.3141 43.5867 95.0323 43.5782ZM93.319 42.8408C93.5519 42.9521 94.947 43.584 95.7166 43.1379C96.0064 42.9699 96.171 42.6702 96.2194 42.2216C96.2393 42.0346 96.2647 41.808 96.2926 41.5631C96.3634 40.9299 96.4523 40.1416 96.4934 39.6319C96.5248 39.2492 96.5812 38.8693 96.6622 38.4948L96.8092 37.8152C96.2561 37.4952 95.6387 37.3177 95.0077 37.2972C94.3767 37.2768 93.75 37.4139 93.1792 37.6975C93.1913 39.2157 92.6879 41.0095 92.3824 41.955C92.3665 42.0048 92.3661 42.0587 92.3813 42.1087C92.3966 42.1587 92.4266 42.2023 92.4671 42.2331C92.5031 42.2587 92.5448 42.2742 92.5881 42.2783L92.9348 42.3184C92.9546 42.3206 92.9737 42.3275 92.9906 42.3385C93.0076 42.3495 93.022 42.3644 93.0328 42.382L93.319 42.8408Z" fill="black"/>
<path d="M97.0977 40.2587C97.0977 40.2587 97.503 38.3772 98.2805 38.7475C99.0579 39.1178 98.5618 41.1782 97.0977 40.2587Z" fill="white"/>
<path d="M79.8931 68.674L72.1406 56.0752C72.0738 55.9665 71.9829 55.8765 71.8757 55.813C71.7685 55.7495 71.6482 55.7144 71.5253 55.7106L64.6136 55.493L60.2249 51.8457L58.958 53.1877L66.7439 63.8343L72.6972 68.8095L79.8931 68.674Z" fill="white"/>
<path d="M72.6974 68.9502C72.6669 68.9503 72.6373 68.9396 72.6133 68.9197L66.6601 63.9444C66.6516 63.937 66.6439 63.9287 66.6371 63.9196L58.8512 53.2724C58.8312 53.2452 58.8214 53.2114 58.8235 53.1772C58.8256 53.143 58.8396 53.1107 58.8627 53.0866L60.1296 51.7446C60.1529 51.719 60.1845 51.7035 60.2182 51.7014C60.2519 51.6993 60.285 51.7106 60.3111 51.7331L64.6672 55.3512L71.534 55.5675C71.6791 55.5718 71.821 55.6131 71.9475 55.6879C72.074 55.7627 72.1812 55.8688 72.26 55.997L80.0126 68.5958C80.0257 68.617 80.0331 68.6415 80.0341 68.6668C80.0351 68.6921 80.0297 68.7171 80.0184 68.7395C80.0071 68.7618 79.9904 68.7805 79.9699 68.7937C79.9494 68.807 79.9259 68.8142 79.9019 68.8147L72.7011 68.9502H72.6974ZM66.841 63.7325L72.7434 68.6652L79.6484 68.5334L72.0253 56.151C71.9702 56.0616 71.8954 55.9877 71.8072 55.9355C71.719 55.8833 71.6201 55.8544 71.5189 55.8513L64.6073 55.6337C64.5783 55.633 64.5505 55.6223 64.528 55.6031L60.2324 52.0341L59.1337 53.1979L66.841 63.7325Z" fill="black"/>
<path d="M78.9256 69.8964L71.107 57.1932C71.0605 57.1174 70.9971 57.0546 70.9224 57.0103C70.8477 56.966 70.7638 56.9414 70.6781 56.9387L63.6461 56.7173L58.9639 52.8263C58.912 52.7826 58.8469 52.7597 58.7805 52.7619C58.714 52.764 58.6504 52.7909 58.601 52.8378C58.5517 52.8847 58.5199 52.9486 58.5112 53.0179C58.5025 53.0873 58.5176 53.1576 58.5537 53.2163L65.7763 65.0592L71.729 70.0338L78.9256 69.8964Z" fill="white"/>
<path d="M71.7284 70.1754C71.6979 70.1755 71.6682 70.1647 71.6443 70.1448L65.691 65.1696C65.6793 65.16 65.6692 65.1484 65.6613 65.1352L58.4393 53.293C58.3871 53.2062 58.3657 53.1028 58.3787 53.0011C58.3918 52.8993 58.4386 52.8056 58.5109 52.7366C58.5831 52.6675 58.6762 52.6274 58.7738 52.6234C58.8714 52.6194 58.9672 52.6517 59.0443 52.7146L63.6914 56.5769L70.6793 56.7965C70.7868 56.7998 70.8919 56.8305 70.9857 56.8859C71.0795 56.9413 71.1591 57.0198 71.2177 57.1146L79.0357 69.8178C79.0485 69.839 79.0558 69.8635 79.0567 69.8887C79.0576 69.9139 79.0522 69.9389 79.0409 69.9611C79.0297 69.9834 79.013 70.0021 78.9926 70.0153C78.9722 70.0286 78.9489 70.036 78.9249 70.0367L71.7326 70.1754H71.7284ZM65.8761 64.9621L71.7743 69.8909L78.6787 69.7586L70.9951 57.2699C70.9605 57.2133 70.9134 57.1663 70.8577 57.1331C70.8021 57.0998 70.7396 57.0813 70.6756 57.079L63.6406 56.8607C63.6115 56.8595 63.5836 56.8486 63.5607 56.8296L58.8786 52.9386C58.8516 52.916 58.8179 52.9043 58.7835 52.9055C58.7491 52.9067 58.7162 52.9206 58.6907 52.9449C58.6652 52.9692 58.6488 53.0023 58.6443 53.0382C58.6398 53.0741 58.6476 53.1105 58.6662 53.1409L65.8761 64.9621Z" fill="black"/>
<path d="M70.6502 68.1803C70.6278 68.1806 70.6057 68.1748 70.5859 68.1637C70.5661 68.1526 70.5493 68.1364 70.537 68.1167L64.1705 57.7736C64.1532 57.7421 64.148 57.7048 64.1561 57.6693C64.1642 57.6339 64.1849 57.6031 64.214 57.5833C64.243 57.5635 64.2783 57.5563 64.3123 57.563C64.3463 57.5698 64.3766 57.59 64.3968 57.6196L70.7651 67.9615C70.7783 67.9829 70.7857 68.0076 70.7866 68.0331C70.7875 68.0586 70.7819 68.0838 70.7703 68.1062C70.7588 68.1286 70.7417 68.1473 70.7208 68.1604C70.7 68.1734 70.6762 68.1803 70.652 68.1803H70.6502Z" fill="black"/>
<path d="M85.1784 68.1857C83.5066 67.5138 81.8281 66.8616 80.1429 66.2291C78.7163 65.6933 77.1076 66.2145 77.813 68.1177C78.297 69.4208 79.331 70.4561 80.5568 70.9759C82.0886 71.625 83.6889 70.9327 85.2438 71.5104C86.3431 71.9183 89.379 74.0919 89.379 74.0919C94.0279 76.277 98.2121 76.9839 100.661 75.1851C103.016 73.4562 104.806 71.737 107.377 65.2772C107.718 64.4195 100.326 60.0258 100.086 60.9281C99.2056 64.2438 98.4929 65.9441 97.9907 67.6875C97.3306 69.9782 96.7135 70.6215 93.732 70.0838C90.3385 69.4717 87.9996 69.3196 85.1784 68.1857Z" fill="white"/>
<path d="M97.0772 76.36C94.5361 76.36 91.6551 75.3196 89.324 74.2239C89.3167 74.2207 89.3098 74.2167 89.3034 74.2118C89.2732 74.1902 86.2687 72.0445 85.199 71.6469C84.4664 71.3752 83.7004 71.3923 82.9605 71.4133C82.154 71.4337 81.3203 71.4547 80.5072 71.1098C79.2028 70.5569 78.1755 69.486 77.6884 68.172C77.3254 67.2004 77.5717 66.6506 77.8397 66.3611C78.3092 65.8521 79.2536 65.7471 80.1895 66.0983C81.8733 66.7301 83.5685 67.3894 85.2281 68.0562C87.3456 68.9082 89.1515 69.1958 91.4361 69.5598C92.1687 69.6762 92.9262 69.7971 93.7545 69.9467C96.6216 70.4633 97.2066 69.9218 97.8613 67.6496C98.05 66.9929 98.2654 66.3541 98.5141 65.6134C98.9327 64.3701 99.4064 62.9607 99.9564 60.8921C99.972 60.8366 100.002 60.7871 100.044 60.7495C100.086 60.7119 100.137 60.6878 100.192 60.6802C101.202 60.4498 106.347 63.5391 107.321 64.7748C107.502 65.0032 107.56 65.1865 107.502 65.3341C104.891 71.8976 103.053 73.606 100.741 75.3031C99.7102 76.059 98.4427 76.36 97.0772 76.36ZM89.445 73.97C94.4157 76.3046 98.3713 76.6953 100.584 75.0714C102.859 73.4018 104.668 71.7181 107.25 65.2253C107.25 65.2253 107.316 64.923 105.813 63.8305C103.542 62.1812 100.489 60.6954 100.213 60.9716C99.663 63.0466 99.1663 64.5228 98.767 65.7089C98.5195 66.4451 98.3053 67.0814 98.1178 67.7317C97.4311 70.1165 96.7329 70.7719 93.7079 70.226C92.882 70.0771 92.1258 69.9568 91.3943 69.8404C89.1848 69.4885 87.2766 69.1844 85.1307 68.3215C83.4729 67.6547 81.7795 66.9968 80.0976 66.3655C79.2596 66.0506 78.429 66.1282 78.0321 66.5564C77.7296 66.886 77.6951 67.4084 77.9389 68.0664C78.3921 69.2894 79.3909 70.3278 80.607 70.8445C81.3681 71.1671 82.1377 71.1474 82.9532 71.127C83.718 71.1079 84.5093 71.0875 85.2886 71.3771C86.3709 71.7811 89.2211 73.8103 89.445 73.97Z" fill="black"/>
<path d="M99.4741 59.781C99.4582 59.7812 99.4424 59.7781 99.4275 59.7721C99.4109 59.7657 99.3956 59.7559 99.3825 59.7433C99.3695 59.7307 99.3589 59.7155 99.3514 59.6986C99.344 59.6817 99.3397 59.6634 99.339 59.6448C99.3382 59.6262 99.341 59.6076 99.3471 59.5901L101.057 54.6753C101.069 54.6399 101.094 54.6111 101.127 54.5953C101.159 54.5794 101.196 54.5777 101.23 54.5906C101.263 54.6035 101.291 54.63 101.306 54.6641C101.321 54.6982 101.323 54.7373 101.31 54.7726L99.6006 59.6881C99.591 59.7153 99.5738 59.7388 99.5512 59.7554C99.5286 59.772 99.5017 59.7809 99.4741 59.781Z" fill="white"/>
<path d="M20.1651 73.048L12.5952 115.876H10.082L17.7614 72.8984L20.1651 73.048Z" fill="white"/>
<path d="M12.5952 116.015H10.082C10.0623 116.015 10.0428 116.011 10.0249 116.002C10.007 115.993 9.99117 115.98 9.97857 115.964C9.96586 115.948 9.95667 115.929 9.95165 115.909C9.94664 115.889 9.94591 115.868 9.94953 115.847L17.6289 72.8693C17.6353 72.8355 17.6529 72.8053 17.6787 72.7842C17.7045 72.763 17.7366 72.7524 17.7693 72.7541L20.1736 72.903C20.1926 72.9042 20.2112 72.9096 20.2281 72.919C20.245 72.9283 20.2598 72.9413 20.2716 72.9571C20.2835 72.9728 20.2921 72.9911 20.2967 73.0106C20.3013 73.0302 20.3018 73.0505 20.2982 73.0703L12.7277 115.899C12.722 115.932 12.7055 115.961 12.6814 115.982C12.6572 116.003 12.6267 116.015 12.5952 116.015ZM10.2448 115.731H12.4833L20.0042 73.1766L17.8715 73.0442L10.2448 115.731Z" fill="black"/>
<path d="M82.7266 73.1333L90.297 115.962H92.8096L85.1303 72.9844L82.7266 73.1333Z" fill="white"/>
<path d="M92.8097 116.102H90.2971C90.2655 116.102 90.2349 116.09 90.2106 116.069C90.1863 116.048 90.1698 116.018 90.164 115.985L82.5942 73.157C82.5906 73.1373 82.5911 73.117 82.5956 73.0974C82.6 73.0779 82.6084 73.0596 82.6202 73.0438C82.6321 73.028 82.6471 73.0151 82.664 73.0058C82.681 72.9964 82.6997 72.991 82.7188 72.9897L85.1225 72.8401C85.1553 72.8379 85.1878 72.8485 85.2137 72.8698C85.2396 72.8912 85.2571 72.9219 85.2629 72.956L92.9422 115.934C92.946 115.954 92.9454 115.975 92.9405 115.995C92.9356 116.015 92.9265 116.034 92.9138 116.05C92.9011 116.066 92.8853 116.079 92.8673 116.088C92.8493 116.097 92.8296 116.102 92.8097 116.102ZM90.4091 115.818H92.6476L85.0196 73.1322L82.887 73.2646L90.4091 115.818Z" fill="black"/>
<path d="M90.6098 70.2363H13.1045C12.5425 70.2363 12.0869 70.9299 12.0869 71.7851C12.0869 72.6403 12.5425 73.3345 13.1045 73.3345H90.6098C91.1719 73.3345 91.6275 72.6409 91.6275 71.7851C91.6275 70.9293 91.1731 70.2363 90.6098 70.2363Z" fill="white"/>
<path d="M90.61 73.477H13.1047C12.4694 73.477 11.9521 72.7185 11.9521 71.7864C11.9521 70.8542 12.4694 70.0957 13.1047 70.0957H90.61C91.2459 70.0957 91.7595 70.8542 91.7595 71.7864C91.7595 72.7185 91.2471 73.477 90.61 73.477ZM13.1047 70.3795C12.6177 70.3795 12.222 71.0107 12.222 71.7864C12.222 72.562 12.6177 73.1939 13.1047 73.1939H90.61C91.094 73.1939 91.4927 72.562 91.4927 71.7864C91.4927 71.0107 91.097 70.3795 90.61 70.3795H13.1047Z" fill="black"/>
<path d="M17.2971 37.2975C17.2749 37.2974 17.253 37.2916 17.2334 37.2805C17.2138 37.2694 17.1971 37.2534 17.1848 37.2339C17.1724 37.2144 17.1649 37.192 17.1627 37.1687C17.1606 37.1454 17.1639 37.1219 17.1725 37.1003L17.5809 36.0866C17.5948 36.052 17.6213 36.0245 17.6545 36.0104C17.6877 35.9962 17.7249 35.9966 17.7578 36.0112C17.7908 36.0259 17.8169 36.0538 17.8303 36.0887C17.8438 36.1236 17.8435 36.1627 17.8295 36.1974L17.4212 37.211C17.4109 37.2367 17.3936 37.2586 17.3716 37.274C17.3495 37.2894 17.3236 37.2976 17.2971 37.2975Z" fill="black"/>
<path d="M16.3456 39.6586C16.3276 39.6584 16.3098 39.6547 16.293 39.6477C16.2601 39.6329 16.2341 39.6049 16.2207 39.57C16.2074 39.5351 16.2077 39.496 16.2216 39.4613L16.63 38.4477C16.6366 38.43 16.6465 38.4138 16.6591 38.4002C16.6717 38.3866 16.6868 38.3758 16.7034 38.3685C16.7201 38.3611 16.738 38.3574 16.7561 38.3574C16.7741 38.3575 16.792 38.3613 16.8086 38.3688C16.8253 38.3763 16.8403 38.3872 16.8528 38.4008C16.8654 38.4145 16.8752 38.4307 16.8816 38.4485C16.8881 38.4662 16.8911 38.4851 16.8905 38.5041C16.8899 38.5231 16.8857 38.5418 16.8781 38.559L16.4697 39.572C16.4594 39.5977 16.4422 39.6196 16.4201 39.635C16.398 39.6504 16.3721 39.6586 16.3456 39.6586Z" fill="black"/>
<path d="M16.386 37.6818C16.3679 37.6817 16.35 37.6778 16.3334 37.6704L15.3702 37.2409C15.3527 37.2345 15.3367 37.2245 15.3231 37.2113C15.3094 37.1982 15.2985 37.1823 15.291 37.1645C15.2835 37.1468 15.2795 37.1276 15.2793 37.1082C15.2791 37.0887 15.2827 37.0695 15.2899 37.0516C15.2971 37.0337 15.3077 37.0175 15.3211 37.0041C15.3344 36.9907 15.3503 36.9803 15.3676 36.9736C15.3849 36.9669 15.4034 36.964 15.4219 36.9651C15.4403 36.9662 15.4583 36.9712 15.4748 36.98L16.4362 37.4095C16.4647 37.4223 16.4882 37.4451 16.5026 37.474C16.517 37.503 16.5215 37.5362 16.5153 37.5682C16.5091 37.6002 16.4927 37.629 16.4687 37.6496C16.4447 37.6703 16.4146 37.6817 16.3836 37.6818H16.386Z" fill="black"/>
<path d="M18.6294 38.6844C18.6113 38.6843 18.5935 38.6804 18.5768 38.673L17.6136 38.2435C17.5973 38.2362 17.5825 38.2256 17.5701 38.2123C17.5576 38.199 17.5478 38.1833 17.5411 38.166C17.5345 38.1487 17.5311 38.1302 17.5313 38.1116C17.5314 38.0929 17.535 38.0745 17.5419 38.0573C17.5488 38.0402 17.5589 38.0246 17.5715 38.0115C17.5842 37.9984 17.5991 37.9881 17.6156 37.9811C17.632 37.9741 17.6496 37.9706 17.6673 37.9707C17.685 37.9709 17.7026 37.9747 17.7189 37.9819L18.6821 38.4095C18.711 38.4221 18.7348 38.4449 18.7495 38.474C18.7642 38.503 18.7689 38.5366 18.7626 38.5688C18.7564 38.6011 18.7397 38.6301 18.7154 38.6508C18.6911 38.6715 18.6607 38.6827 18.6294 38.6825V38.6844Z" fill="black"/>
<path d="M62.9943 4.87483C62.9585 4.87483 62.9242 4.85988 62.8989 4.83327C62.8736 4.80666 62.8594 4.77057 62.8594 4.73293V3.63213C62.8594 3.5945 62.8736 3.55841 62.8989 3.5318C62.9242 3.50519 62.9585 3.49023 62.9943 3.49023C63.0301 3.49023 63.0644 3.50519 63.0897 3.5318C63.115 3.55841 63.1292 3.5945 63.1292 3.63213V4.73293C63.1292 4.77057 63.115 4.80666 63.0897 4.83327C63.0644 4.85988 63.0301 4.87483 62.9943 4.87483Z" fill="black"/>
<path d="M62.9943 7.44123C62.9585 7.44123 62.9242 7.42629 62.8989 7.39967C62.8736 7.37306 62.8594 7.33697 62.8594 7.29934V6.19853C62.8594 6.1609 62.8736 6.12481 62.8989 6.0982C62.9242 6.07159 62.9585 6.05664 62.9943 6.05664C63.0301 6.05664 63.0644 6.07159 63.0897 6.0982C63.115 6.12481 63.1292 6.1609 63.1292 6.19853V7.29679C63.1295 7.31564 63.1263 7.33437 63.1196 7.35188C63.113 7.36939 63.1031 7.38533 63.0906 7.39878C63.078 7.41223 63.063 7.4229 63.0465 7.43019C63.03 7.43748 63.0122 7.44124 62.9943 7.44123Z" fill="black"/>
<path d="M62.2978 5.60606H61.2511C61.2153 5.60606 61.181 5.59111 61.1557 5.56449C61.1304 5.53788 61.1162 5.50179 61.1162 5.46416C61.1162 5.42653 61.1304 5.39044 61.1557 5.36382C61.181 5.33721 61.2153 5.32227 61.2511 5.32227H62.2978C62.3336 5.32227 62.3679 5.33721 62.3932 5.36382C62.4185 5.39044 62.4327 5.42653 62.4327 5.46416C62.4327 5.50179 62.4185 5.53788 62.3932 5.56449C62.3679 5.59111 62.3336 5.60606 62.2978 5.60606Z" fill="black"/>
<path d="M64.7363 5.60606H63.6896C63.6538 5.60606 63.6195 5.59111 63.5942 5.56449C63.5689 5.53788 63.5547 5.50179 63.5547 5.46416C63.5547 5.42653 63.5689 5.39044 63.5942 5.36382C63.6195 5.33721 63.6538 5.32227 63.6896 5.32227H64.7363C64.7721 5.32227 64.8064 5.33721 64.8317 5.36382C64.857 5.39044 64.8712 5.42653 64.8712 5.46416C64.8712 5.50179 64.857 5.53788 64.8317 5.56449C64.8064 5.59111 64.7721 5.60606 64.7363 5.60606Z" fill="black"/>
<path d="M17.943 31.0468C17.7743 31.0466 17.607 31.0134 17.4499 30.9488C17.2775 30.8789 17.1202 30.7733 16.9873 30.6382C16.8545 30.5031 16.7489 30.3412 16.6767 30.1623C16.5293 29.8049 16.5207 29.401 16.6528 29.0371C16.7848 28.6731 17.047 28.3779 17.3834 28.2146C17.5476 28.1362 17.7251 28.0933 17.9054 28.0884C18.0857 28.0834 18.2652 28.1166 18.433 28.186C18.6051 28.2562 18.7621 28.362 18.8946 28.4971C19.0272 28.6322 19.1328 28.7938 19.205 28.9724C19.3523 29.33 19.3607 29.734 19.2286 30.0981C19.0964 30.4621 18.8341 30.7574 18.4978 30.9208C18.3233 31.0034 18.1343 31.0463 17.943 31.0468ZM17.943 28.3743C17.789 28.3744 17.6367 28.4091 17.4965 28.4761C17.225 28.609 17.0136 28.8481 16.9071 29.1424C16.8007 29.4368 16.8077 29.7632 16.9266 30.0522C16.9845 30.1967 17.0694 30.3274 17.1762 30.4367C17.283 30.546 17.4096 30.6316 17.5485 30.6885C17.683 30.744 17.8268 30.7705 17.9712 30.7666C18.1156 30.7627 18.2579 30.7283 18.3895 30.6656C18.6611 30.5327 18.8727 30.2936 18.9791 29.9991C19.0856 29.7046 19.0785 29.378 18.9594 29.0889C18.9015 28.9444 18.8167 28.8136 18.7098 28.7043C18.603 28.595 18.4764 28.5094 18.3375 28.4526C18.2118 28.3998 18.0777 28.3724 17.9424 28.3718L17.943 28.3743Z" fill="black"/>
<path d="M13.1924 114.462C13.1924 114.462 15.3644 113.748 18.9218 106.487C21.9251 100.358 19.2479 94.4345 18.7076 90.4729C18.6968 90.3868 18.6587 90.307 18.5995 90.2463C18.5403 90.1857 18.4634 90.1479 18.3812 90.1388C18.2991 90.1298 18.2164 90.1501 18.1465 90.1965C18.0767 90.2429 18.0237 90.3127 17.9962 90.3947C17.0959 93.0569 15.6475 97.8973 15.8816 100.878C16.2192 105.173 13.1924 114.462 13.1924 114.462Z" fill="white"/>
<path d="M13.1916 114.605C13.1698 114.605 13.1483 114.6 13.1289 114.589C13.1095 114.579 13.0928 114.563 13.0802 114.545C13.0677 114.526 13.0596 114.504 13.0568 114.481C13.054 114.459 13.0564 114.436 13.064 114.414C13.0942 114.321 16.0775 105.104 15.7466 100.888C15.5094 97.8746 16.9741 92.9897 17.8683 90.3453C17.9058 90.2332 17.978 90.1377 18.0734 90.0742C18.1688 90.0106 18.2817 89.9827 18.394 89.995C18.5064 90.0073 18.6114 90.059 18.6924 90.1419C18.7733 90.2247 18.8253 90.3338 18.84 90.4515C18.961 91.3423 19.1963 92.3502 19.445 93.4161C20.3102 97.1359 21.3865 101.764 19.0415 106.55C15.4985 113.78 13.3229 114.567 13.2334 114.595C13.22 114.601 13.2059 114.604 13.1916 114.605ZM18.3396 90.2791C18.2914 90.2782 18.2441 90.2937 18.2049 90.3234C18.1658 90.3531 18.1368 90.3954 18.1224 90.4439C17.2355 93.0661 15.7829 97.9077 16.0152 100.867C16.3177 104.733 13.9703 112.448 13.4258 114.174C14.1124 113.723 16.0424 112.053 18.8013 106.423C21.1003 101.732 20.0367 97.1607 19.1818 93.4867C18.9326 92.4139 18.6978 91.4002 18.5732 90.4961C18.5676 90.4402 18.5436 90.3883 18.5053 90.3491C18.4671 90.3099 18.417 90.2861 18.3638 90.2816L18.3396 90.2791Z" fill="black"/>
<path d="M15.5456 110.492L16.3194 104.058C16.6555 101.267 16.2212 98.4328 15.0683 95.8939C14.2382 94.0644 13.7775 92.074 13.715 90.048C13.6525 88.022 13.9897 86.0044 14.7053 84.1223L15.951 80.8529C16.1083 80.4406 15.608 80.1053 15.3248 80.433L13.5794 82.452C11.6323 84.712 10.284 87.4705 9.66962 90.4511C9.05525 93.4317 9.19635 96.5297 10.0788 99.4349L13.289 110.036L15.5456 110.492Z" fill="white"/>
<path d="M15.5456 110.633C15.5372 110.634 15.5287 110.634 15.5202 110.633L13.266 110.178C13.2421 110.173 13.22 110.161 13.2018 110.144C13.1836 110.128 13.17 110.106 13.1625 110.082L9.94749 99.4814C8.14154 93.5288 9.49373 86.9686 13.4765 82.3605L15.2214 80.3415C15.3003 80.2463 15.4093 80.1844 15.5283 80.167C15.6473 80.1497 15.7682 80.1782 15.8687 80.2473C15.9731 80.3131 16.0513 80.4164 16.0889 80.5382C16.1265 80.66 16.1209 80.7919 16.0732 80.9097L14.8305 84.1746C14.1231 86.0391 13.7899 88.0374 13.8517 90.0438C13.9136 92.0503 14.3692 94.0217 15.1899 95.8342C16.356 98.3976 16.7946 101.26 16.4532 104.079L15.6793 110.513C15.6762 110.548 15.6607 110.58 15.636 110.604C15.6112 110.627 15.579 110.64 15.5456 110.64V110.633ZM13.3954 109.912L15.4301 110.323L16.1857 104.041C16.5204 101.276 16.0902 98.4685 14.9467 95.9544C14.1097 94.1065 13.6451 92.0965 13.582 90.0507C13.5189 88.0049 13.8587 85.9675 14.58 84.0664L15.8227 80.8015C15.8466 80.7452 15.8499 80.6817 15.8321 80.623C15.8142 80.5643 15.7764 80.5146 15.7259 80.4834C15.6791 80.4504 15.6224 80.4367 15.5666 80.4449C15.5108 80.4532 15.4598 80.4827 15.4234 80.5279L13.6786 82.5469C9.76054 87.0805 8.43012 93.5346 10.207 99.3911L13.3954 109.912Z" fill="black"/>
<path d="M14.5487 110.701L11.8655 103.491C11.4917 102.482 10.9051 101.575 10.1498 100.839C9.39455 100.103 8.49033 99.556 7.50519 99.2403L5.67564 98.6574C5.23096 98.5162 4.93269 99.1334 5.29993 99.4337L6.42525 100.354C7.02823 100.849 7.51865 101.479 7.86079 102.198C8.20293 102.918 8.38817 103.708 8.40302 104.513C8.42163 105.471 8.68131 106.408 9.15565 107.227L10.9743 110.363L14.5487 110.701Z" fill="white"/>
<path d="M14.5484 110.841H14.5363L10.9619 110.504C10.9409 110.501 10.9206 110.494 10.9027 110.483C10.8847 110.471 10.8696 110.455 10.8585 110.436L9.04043 107.299C8.55385 106.458 8.2873 105.498 8.26783 104.514C8.25515 103.731 8.07557 102.96 7.7423 102.259C7.40902 101.558 6.93055 100.945 6.34209 100.464L5.21738 99.5439C5.11204 99.4614 5.0386 99.3417 5.01058 99.2067C4.98257 99.0718 5.00186 98.9308 5.06491 98.8096C5.12192 98.6873 5.21891 98.5906 5.33812 98.5374C5.45732 98.4841 5.59079 98.4777 5.71409 98.5194L7.54424 99.1023C8.55019 99.4215 9.4736 99.978 10.2441 100.729C11.0146 101.481 11.6119 102.407 11.9905 103.438L14.6743 110.647C14.6819 110.669 14.6845 110.692 14.6818 110.714C14.6791 110.737 14.6713 110.759 14.6589 110.777C14.6465 110.796 14.63 110.812 14.6108 110.822C14.5915 110.833 14.5701 110.838 14.5484 110.838V110.841ZM11.0509 110.227L14.3409 110.537L11.7394 103.542C11.3756 102.551 10.8016 101.66 10.0611 100.938C9.32058 100.216 8.43307 99.6809 7.4662 99.374L5.63604 98.7931C5.57301 98.7714 5.50463 98.7745 5.44364 98.8019C5.38265 98.8293 5.3332 98.8791 5.3045 98.9419C5.27108 99.0047 5.26057 99.0781 5.27494 99.1484C5.28931 99.2186 5.32757 99.281 5.38254 99.3237L6.50786 100.244C7.12808 100.75 7.63239 101.397 7.98368 102.136C8.33496 102.874 8.52426 103.686 8.53767 104.512C8.55619 105.446 8.80894 106.357 9.27033 107.155L11.0509 110.227Z" fill="black"/>
<path d="M14.1517 107.454H14.1366C14.1189 107.452 14.1018 107.447 14.0862 107.438C14.0706 107.43 14.0568 107.418 14.0455 107.403C14.0343 107.389 14.0258 107.372 14.0207 107.355C14.0156 107.337 14.0138 107.318 14.0156 107.3C14.4239 102.703 13.5461 99.7429 12.7711 97.1309C12.4123 95.9219 12.0735 94.7765 11.872 93.5485C10.9203 87.7397 14.1644 82.6995 14.1977 82.6493C14.2074 82.6332 14.2202 82.6195 14.2351 82.6087C14.2501 82.598 14.2669 82.5905 14.2846 82.5868C14.3024 82.583 14.3206 82.5831 14.3384 82.5869C14.3561 82.5907 14.3729 82.5983 14.3878 82.6091C14.4027 82.6199 14.4154 82.6337 14.4251 82.6498C14.4348 82.6658 14.4413 82.6838 14.4443 82.7025C14.4473 82.7213 14.4466 82.7405 14.4424 82.759C14.4382 82.7775 14.4305 82.7949 14.4197 82.8102C14.3876 82.8592 11.2053 87.8078 12.1376 93.5001C12.3361 94.7091 12.6724 95.8455 13.0288 97.0462C13.8111 99.6837 14.6974 102.673 14.2842 107.326C14.2809 107.361 14.2656 107.393 14.2412 107.417C14.2167 107.44 14.1849 107.454 14.1517 107.454Z" fill="black"/>
<path d="M17.7269 104.375C17.7192 104.376 17.7115 104.376 17.7039 104.375C17.6864 104.372 17.6697 104.365 17.6547 104.355C17.6397 104.346 17.6267 104.333 17.6165 104.317C17.6063 104.302 17.599 104.285 17.5951 104.267C17.5912 104.249 17.5907 104.23 17.5938 104.212C18.324 99.6684 18.0711 92.6729 18.0681 92.6029C18.0668 92.5653 18.0797 92.5287 18.1039 92.501C18.1282 92.4734 18.1618 92.4569 18.1976 92.4553C18.2154 92.4543 18.2332 92.457 18.2499 92.4633C18.2667 92.4697 18.282 92.4795 18.2951 92.4922C18.3082 92.5049 18.3188 92.5202 18.3261 92.5373C18.3335 92.5543 18.3375 92.5727 18.3379 92.5915C18.3379 92.6621 18.5951 99.6869 17.8594 104.259C17.8536 104.292 17.8372 104.321 17.813 104.342C17.7888 104.364 17.7583 104.375 17.7269 104.375Z" fill="black"/>
<path d="M11.3186 108.143C11.2832 108.143 11.2492 108.129 11.2241 108.102C11.1989 108.076 11.1846 108.041 11.1843 108.003C11.1323 102.361 6.85002 99.8867 6.80646 99.8587C6.77493 99.8409 6.75141 99.8107 6.74109 99.7747C6.73076 99.7386 6.73447 99.6997 6.7514 99.6666C6.76833 99.6334 6.79709 99.6087 6.83136 99.5978C6.86562 99.587 6.90259 99.5909 6.93412 99.6087C6.97889 99.6341 11.4009 102.19 11.4535 107.997C11.4538 108.016 11.4505 108.034 11.444 108.051C11.4374 108.069 11.4276 108.084 11.4153 108.098C11.4029 108.111 11.3882 108.122 11.3719 108.129C11.3556 108.136 11.3381 108.14 11.3204 108.14L11.3186 108.143Z" fill="black"/>
<path d="M11.9006 97.5469C11.88 97.5469 11.8596 97.542 11.8411 97.5325C11.8225 97.523 11.8063 97.5092 11.7935 97.4921C10.6246 95.9122 10.1219 93.8442 10.0995 93.757C10.0942 93.7387 10.0926 93.7194 10.0946 93.7003C10.0966 93.6813 10.1023 93.6628 10.1113 93.6462C10.1203 93.6295 10.1324 93.6149 10.1469 93.6033C10.1614 93.5916 10.178 93.5832 10.1957 93.5785C10.2133 93.5738 10.2317 93.573 10.2497 93.576C10.2678 93.579 10.285 93.5858 10.3004 93.596C10.3159 93.6062 10.3292 93.6196 10.3396 93.6353C10.35 93.6511 10.3572 93.6689 10.3608 93.6877C10.3663 93.7087 10.8715 95.7875 12.0047 97.3146C12.0156 97.3293 12.0237 97.3461 12.0285 97.3641C12.0332 97.3821 12.0345 97.4009 12.0323 97.4194C12.0301 97.4379 12.0245 97.4558 12.0157 97.472C12.0069 97.4882 11.9951 97.5024 11.9811 97.5138C11.9585 97.534 11.9302 97.5457 11.9006 97.5469Z" fill="black"/>
<path d="M13.9131 119.076C12.5653 119.076 11.2726 118.513 10.3196 117.511C9.36649 116.508 8.83105 115.149 8.83105 113.731V108.959H18.997V113.731C18.997 114.433 18.8655 115.129 18.61 115.777C18.3545 116.426 17.98 117.015 17.5079 117.511C17.0358 118.008 16.4753 118.401 15.8585 118.67C15.2417 118.938 14.5807 119.076 13.9131 119.076Z" fill="white"/>
<path d="M13.9123 119.217C12.5281 119.217 11.2008 118.638 10.2218 117.609C9.2428 116.58 8.69203 115.184 8.69043 113.729V108.956C8.69043 108.919 8.70464 108.883 8.72995 108.856C8.75525 108.829 8.78957 108.814 8.82535 108.814H18.9962C19.0319 108.814 19.0663 108.829 19.0916 108.856C19.1169 108.883 19.1311 108.919 19.1311 108.956V113.729C19.1295 115.184 18.5791 116.579 17.6008 117.608C16.6224 118.637 15.2959 119.216 13.9123 119.217ZM8.96268 109.1V113.732C8.97709 115.102 9.50488 116.412 10.4315 117.375C11.3581 118.339 12.6087 118.88 13.912 118.88C15.2152 118.88 16.4658 118.339 17.3924 117.375C18.319 116.412 18.8468 115.102 18.8612 113.732V109.1H8.96268Z" fill="black"/>
<path d="M18.0002 110.883H9.82535C9.78956 110.883 9.75525 110.868 9.72995 110.842C9.70464 110.815 9.69043 110.779 9.69043 110.742C9.69043 110.704 9.70464 110.668 9.72995 110.641C9.75525 110.615 9.78956 110.6 9.82535 110.6H18.0002C18.036 110.6 18.0703 110.615 18.0956 110.641C18.1209 110.668 18.1351 110.704 18.1351 110.742C18.1351 110.779 18.1209 110.815 18.0956 110.842C18.0703 110.868 18.036 110.883 18.0002 110.883Z" fill="black"/>
<path d="M76.746 5.88755C76.504 5.13162 76.579 4.14599 76.8204 3.04518L77.4169 3.71712L78.2373 2.91602C77.881 4.21216 77.6735 5.36833 78.1127 5.91364L76.746 5.88755Z" fill="white"/>
<path d="M78.1135 6.05844L76.7467 6.03235C76.719 6.03182 76.6921 6.02231 76.6697 6.00512C76.6473 5.98792 76.6305 5.96388 76.6215 5.93627C76.3928 5.23061 76.4158 4.27552 76.6923 3.01628C76.698 2.99134 76.71 2.96848 76.727 2.95015C76.7441 2.93181 76.7656 2.91868 76.7891 2.91215C76.8127 2.90563 76.8376 2.90594 76.861 2.91307C76.8844 2.9202 76.9056 2.93388 76.9222 2.95265L77.4268 3.52087L78.1473 2.81521C78.1689 2.79413 78.1965 2.78107 78.2258 2.77803C78.2552 2.77499 78.2846 2.78213 78.3097 2.79836C78.3348 2.81459 78.3542 2.83902 78.3649 2.86791C78.3755 2.89681 78.3769 2.92858 78.3688 2.95837C78.0596 4.08463 77.7995 5.30569 78.2175 5.82174C78.2341 5.84238 78.2448 5.86759 78.2482 5.89439C78.2516 5.92119 78.2477 5.94847 78.2369 5.973C78.2261 5.99754 78.2089 6.01832 78.1872 6.03289C78.1655 6.04747 78.1404 6.05522 78.1147 6.05526L78.1135 6.05844ZM76.8429 5.75047L77.8642 5.76956C77.6107 5.19689 77.7432 4.30606 77.9779 3.3637L77.5066 3.82375C77.4805 3.84938 77.4457 3.86304 77.41 3.86172C77.3742 3.86041 77.3405 3.84423 77.3161 3.81675L76.8925 3.3427C76.6953 4.36333 76.6796 5.15425 76.846 5.75047H76.8429Z" fill="black"/>
<path d="M78.5504 21.5668H75.7982C75.3227 21.5668 74.9361 21.1023 74.9318 20.5264L74.8272 6.3114C74.8229 5.72791 75.212 5.25195 75.6936 5.25195H78.7882C79.2722 5.25195 79.6636 5.73491 79.6539 6.32285L79.4168 20.5385C79.4065 21.1099 79.0217 21.5668 78.5504 21.5668Z" fill="black"/>
<path d="M78.4633 17.6152H75.8236C75.6185 17.6152 75.4521 17.7902 75.4521 18.0059V18.0944C75.4521 18.3101 75.6185 18.4851 75.8236 18.4851H78.4633C78.6684 18.4851 78.8348 18.3101 78.8348 18.0944V18.0059C78.8348 17.7902 78.6684 17.6152 78.4633 17.6152Z" fill="white"/>
<path d="M78.1417 18.9434H76.2136C75.8119 18.9434 75.4863 19.2858 75.4863 19.7082V19.8806C75.4863 20.303 75.8119 20.6455 76.2136 20.6455H78.1417C78.5433 20.6455 78.8689 20.303 78.8689 19.8806V19.7082C78.8689 19.2858 78.5433 18.9434 78.1417 18.9434Z" fill="white"/>
<path d="M87.5045 21.6097H84.7517C84.2768 21.6097 83.8902 21.1452 83.8859 20.5694L83.7813 6.35373C83.777 5.77088 84.1661 5.29492 84.6477 5.29492H87.7423C88.2263 5.29492 88.6177 5.77787 88.608 6.36582L88.3721 20.5795C88.3606 21.1503 87.9758 21.6097 87.5045 21.6097Z" fill="black"/>
<path d="M86.7936 6.28516H85.5031C84.9254 6.28516 84.457 6.77772 84.457 7.38532V7.63285C84.457 8.24045 84.9254 8.73301 85.5031 8.73301H86.7936C87.3713 8.73301 87.8396 8.24045 87.8396 7.63285V7.38532C87.8396 6.77772 87.3713 6.28516 86.7936 6.28516Z" fill="white"/>
<path d="M87.498 9.39258H84.9334C84.7075 9.39258 84.5244 9.58516 84.5244 9.82272V9.9188C84.5244 10.1564 84.7075 10.3489 84.9334 10.3489H87.498C87.7239 10.3489 87.907 10.1564 87.907 9.9188V9.82272C87.907 9.58516 87.7239 9.39258 87.498 9.39258Z" fill="white"/>
<path d="M87.606 10.7168H84.757C84.6097 10.7168 84.4902 10.8424 84.4902 10.9974V11.0604C84.4902 11.2154 84.6097 11.341 84.757 11.341H87.606C87.7534 11.341 87.8728 11.2154 87.8728 11.0604V10.9974C87.8728 10.8424 87.7534 10.7168 87.606 10.7168Z" fill="white"/>
<path d="M97.0779 21.0358L95.2901 21.8668C94.9809 22.0106 94.5514 21.7027 94.3269 21.1771L88.7911 8.2086C88.5636 7.67665 88.6332 7.12688 88.946 6.97862L90.957 6.04326C91.2722 5.89627 91.7115 6.22015 91.9311 6.76101L97.2449 19.8326C97.4584 20.3594 97.3858 20.8933 97.0779 21.0358Z" fill="white"/>
<path d="M95.1275 22.0471C94.7899 22.0471 94.4154 21.7334 94.2043 21.2383L88.6678 8.26983C88.5093 7.89951 88.4785 7.50627 88.585 7.2123C88.6105 7.13368 88.6508 7.06127 88.7035 6.99939C88.7562 6.93752 88.8202 6.88744 88.8917 6.85215L90.9021 5.91679C90.9756 5.8846 91.0544 5.8684 91.134 5.86917C91.2135 5.86993 91.2921 5.88765 91.365 5.92124C91.6439 6.03641 91.9022 6.33102 92.0553 6.70835L97.3691 19.7799C97.6111 20.3825 97.5101 20.9927 97.1325 21.1677L95.3447 22C95.2762 22.0314 95.2023 22.0474 95.1275 22.0471ZM91.1193 6.15222C91.0823 6.15188 91.0456 6.15968 91.0116 6.17513L89.0012 7.11049C88.9234 7.15257 88.8644 7.22496 88.8366 7.3122C88.7568 7.53172 88.7864 7.85369 88.9141 8.15276L94.4505 21.1212C94.6405 21.5667 94.9999 21.8473 95.237 21.7391L97.023 20.9087C97.2559 20.8005 97.3007 20.336 97.1204 19.8906L91.8066 6.81843C91.6856 6.51428 91.4757 6.27057 91.2621 6.18213C91.2166 6.16319 91.1683 6.15306 91.1193 6.15222Z" fill="black"/>
<path d="M90.4461 7.37385L90.1617 7.50615C89.6334 7.75193 89.3945 8.40164 89.6282 8.95732L89.7234 9.18368C89.9571 9.73936 90.5749 9.99058 91.1032 9.7448L91.3876 9.61251C91.916 9.36673 92.1548 8.71702 91.9211 8.16134L91.8259 7.93497C91.5922 7.3793 90.9745 7.12807 90.4461 7.37385Z" fill="white"/>
<path d="M90.6812 9.97016C90.4522 9.97029 90.2281 9.90049 90.036 9.76924C89.844 9.63799 89.6923 9.45094 89.5994 9.23078L89.5045 9.00426C89.3782 8.70259 89.371 8.36054 89.4845 8.0533C89.5979 7.74606 89.8227 7.49877 90.1095 7.36578L90.3938 7.23342C90.5356 7.16732 90.6884 7.13127 90.8435 7.12732C90.9986 7.12337 91.1529 7.1516 91.2975 7.2104C91.4422 7.2692 91.5745 7.35741 91.6867 7.47C91.799 7.58258 91.889 7.71733 91.9517 7.86655L92.0467 8.09307C92.1095 8.24241 92.1436 8.40329 92.1471 8.56652C92.1507 8.72975 92.1236 8.89211 92.0674 9.04431C92.0112 9.19651 91.927 9.33555 91.8196 9.45348C91.7123 9.5714 91.5838 9.6659 91.4417 9.73155L91.1573 9.8639C91.0074 9.9338 90.8452 9.96999 90.6812 9.97016ZM90.8688 7.41032C90.7418 7.41065 90.6163 7.43882 90.5003 7.49304L90.2153 7.62539C89.9946 7.72847 89.8218 7.91937 89.7347 8.15625C89.6476 8.39312 89.6534 8.65665 89.7507 8.88908L89.8463 9.11561C89.9443 9.34772 90.1258 9.52949 90.351 9.62109C90.5763 9.7127 90.8268 9.70665 91.0478 9.60429L91.3328 9.47194C91.4424 9.42137 91.5415 9.34848 91.6242 9.25748C91.707 9.16647 91.7718 9.05915 91.8149 8.94168C91.8581 8.82422 91.8787 8.69894 91.8756 8.57306C91.8725 8.44718 91.8457 8.32319 91.7968 8.20824L91.7019 7.98172C91.6306 7.81167 91.514 7.66704 91.3661 7.56538C91.2182 7.46372 91.0454 7.40941 90.8688 7.40904V7.41032Z" fill="black"/>
<path d="M92.269 9.92704L90.8193 10.6014C90.6128 10.6975 90.5194 10.9515 90.6107 11.1688L90.6477 11.2566C90.7391 11.4739 90.9806 11.5721 91.1872 11.476L92.6368 10.8017C92.8434 10.7056 92.9368 10.4516 92.8454 10.2343L92.8085 10.1464C92.7171 9.92917 92.4756 9.83095 92.269 9.92704Z" fill="white"/>
<path d="M91.0204 11.6429C90.915 11.6429 90.8117 11.6106 90.7233 11.5501C90.635 11.4895 90.5652 11.4033 90.5225 11.3018L90.4856 11.2134C90.4276 11.0747 90.4241 10.9175 90.4761 10.7762C90.528 10.6348 90.6311 10.5209 90.7627 10.4594L92.2147 9.78488C92.3466 9.72383 92.4961 9.72021 92.6304 9.77484C92.7648 9.82946 92.8731 9.93786 92.9317 10.0763L92.9692 10.1647C93.0272 10.3035 93.0305 10.4608 92.9785 10.6021C92.9264 10.7435 92.8232 10.8573 92.6915 10.9188L91.2395 11.5939C91.1705 11.626 91.0959 11.6427 91.0204 11.6429ZM92.4325 10.0197C92.3944 10.0196 92.3568 10.0279 92.3218 10.0439L90.8698 10.719C90.8368 10.7343 90.8069 10.7564 90.782 10.784C90.7571 10.8115 90.7377 10.8439 90.7247 10.8794C90.7118 10.9149 90.7057 10.9527 90.7067 10.9907C90.7077 11.0287 90.7158 11.0661 90.7306 11.1008L90.7675 11.1892C90.7821 11.224 90.8031 11.2554 90.8292 11.2817C90.8554 11.3079 90.8862 11.3285 90.92 11.3422C90.9537 11.3558 90.9897 11.3623 91.0258 11.3613C91.062 11.3603 91.0976 11.3517 91.1306 11.3362L92.5826 10.6617C92.6157 10.6465 92.6457 10.6245 92.6707 10.597C92.6957 10.5695 92.7153 10.537 92.7283 10.5015C92.7413 10.466 92.7474 10.4281 92.7464 10.3901C92.7454 10.3521 92.7372 10.3146 92.7223 10.2799L92.6848 10.1915C92.6633 10.1401 92.628 10.0964 92.5831 10.0659C92.5383 10.0353 92.4859 10.0193 92.4325 10.0197Z" fill="black"/>
<path d="M92.8873 11.0873L91.1776 11.8826C91.0428 11.9453 90.9819 12.111 91.0415 12.2527L91.0657 12.3103C91.1254 12.4521 91.2829 12.5161 91.4177 12.4535L93.1274 11.6581C93.2621 11.5954 93.3231 11.4297 93.2635 11.288L93.2392 11.2304C93.1796 11.0887 93.0221 11.0246 92.8873 11.0873Z" fill="white"/>
<path d="M91.3071 12.6062C91.2293 12.6063 91.1531 12.5825 91.0878 12.5379C91.0225 12.4933 90.9709 12.4297 90.9393 12.3549L90.9151 12.2964C90.8721 12.194 90.8695 12.0779 90.9078 11.9735C90.9462 11.8691 91.0223 11.785 91.1196 11.7396L92.8293 10.9442C92.9267 10.899 93.0372 10.8963 93.1366 10.9366C93.2359 10.9769 93.316 11.057 93.3593 11.1593L93.3835 11.2172C93.4263 11.3197 93.4289 11.4358 93.3905 11.5402C93.3522 11.6447 93.2762 11.7289 93.179 11.7746L91.4687 12.5732C91.4175 12.5957 91.3626 12.607 91.3071 12.6062ZM92.9921 11.1917C92.9737 11.1916 92.9555 11.1958 92.9388 11.2038L91.2291 12.0005C91.1972 12.0154 91.1722 12.043 91.1596 12.0772C91.147 12.1114 91.1479 12.1495 91.1619 12.1831L91.1861 12.241C91.2003 12.2745 91.2265 12.3008 91.2591 12.314C91.2916 12.3273 91.3278 12.3264 91.3598 12.3116L93.0695 11.5163C93.0854 11.5089 93.0997 11.4984 93.1116 11.4853C93.1236 11.4721 93.1329 11.4566 93.1392 11.4396C93.1454 11.4227 93.1484 11.4046 93.148 11.3864C93.1475 11.3682 93.1437 11.3503 93.1367 11.3336L93.1125 11.2764C93.1021 11.2517 93.0852 11.2307 93.0637 11.2161C93.0422 11.2014 93.0171 11.1936 92.9915 11.1936L92.9921 11.1917Z" fill="black"/>
<path d="M82.7592 21.695H80.5334C80.1486 21.695 79.8364 21.2312 79.8328 20.6547L79.7481 6.43967C79.7444 5.85618 80.0591 5.38086 80.4487 5.38086H82.9522C83.3443 5.38086 83.6601 5.86381 83.6522 6.45176L83.4598 20.6668C83.4519 21.2382 83.141 21.695 82.7592 21.695Z" fill="white"/>
<path d="M82.7593 21.8343H80.5335C80.0689 21.8343 79.7022 21.3157 79.698 20.6533L79.6133 6.43767C79.6133 6.05589 79.7343 5.69447 79.9497 5.46922C80.0137 5.39709 80.0909 5.33929 80.1767 5.29927C80.2624 5.25926 80.355 5.23785 80.4488 5.23633H82.9523C83.0468 5.23795 83.1399 5.25971 83.2261 5.30029C83.3123 5.34086 83.3898 5.39941 83.4539 5.4724C83.6681 5.70019 83.7927 6.06607 83.7872 6.45103L83.5948 20.6667C83.5858 21.3214 83.2191 21.8343 82.7593 21.8343ZM80.4488 5.52012C80.3314 5.52508 80.2206 5.57886 80.1408 5.66965C79.9775 5.84209 79.8813 6.12906 79.8831 6.4364L79.9678 20.6514C79.9708 21.1471 80.2243 21.5505 80.5335 21.5505H82.7593C83.0618 21.5505 83.3184 21.1522 83.325 20.6597L83.5174 6.44403C83.5216 6.13415 83.4261 5.844 83.2615 5.66902C83.2221 5.62348 83.1744 5.58664 83.1214 5.56064C83.0683 5.53464 83.0108 5.52001 82.9523 5.51757L80.4488 5.52012Z" fill="black"/>
<path d="M82.5949 6.36719H80.7218C80.4251 6.36719 80.1846 6.62016 80.1846 6.93222V7.05949C80.1846 7.37155 80.4251 7.62452 80.7218 7.62452H82.5949C82.8916 7.62452 83.1322 7.37155 83.1322 7.05949V6.93222C83.1322 6.62016 82.8916 6.36719 82.5949 6.36719Z" fill="white"/>
<path d="M82.5955 7.76769H80.72C80.5418 7.76752 80.3709 7.69299 80.2449 7.56045C80.1189 7.42791 80.048 7.24819 80.0479 7.06076V6.9335C80.048 6.74606 80.1189 6.56634 80.2449 6.43381C80.3709 6.30127 80.5418 6.22673 80.72 6.22656H82.5955C82.7738 6.22673 82.9446 6.30127 83.0707 6.43381C83.1967 6.56634 83.2675 6.74606 83.2677 6.9335V7.06076C83.2675 7.24819 83.1967 7.42791 83.0707 7.56045C82.9446 7.69299 82.7738 7.76752 82.5955 7.76769ZM80.72 6.51035C80.6672 6.51035 80.6149 6.5213 80.566 6.54256C80.5172 6.56383 80.4729 6.595 80.4355 6.63429C80.3982 6.67358 80.3685 6.72023 80.3483 6.77157C80.3281 6.8229 80.3177 6.87793 80.3177 6.9335V7.06076C80.3177 7.11632 80.3281 7.17135 80.3483 7.22268C80.3685 7.27402 80.3982 7.32067 80.4355 7.35996C80.4729 7.39925 80.5172 7.43042 80.566 7.45169C80.6149 7.47295 80.6672 7.4839 80.72 7.4839H82.5955C82.7022 7.4839 82.8046 7.43932 82.88 7.35996C82.9555 7.28061 82.9979 7.17298 82.9979 7.06076V6.9335C82.9979 6.82127 82.9555 6.71364 82.88 6.63429C82.8046 6.55493 82.7022 6.51035 82.5955 6.51035H80.72Z" fill="black"/>
<path d="M82.7716 8.07617H80.596C80.3828 8.07617 80.21 8.25793 80.21 8.48213V8.5744C80.21 8.7986 80.3828 8.98036 80.596 8.98036H82.7716C82.9847 8.98036 83.1576 8.7986 83.1576 8.5744V8.48213C83.1576 8.25793 82.9847 8.07617 82.7716 8.07617Z" fill="white"/>
<path d="M82.7722 9.12352H80.5942C80.456 9.12319 80.3236 9.06527 80.226 8.96246C80.1283 8.85966 80.0734 8.72034 80.0732 8.57503V8.4834C80.0734 8.33815 80.1283 8.1989 80.226 8.0962C80.3236 7.99349 80.456 7.93572 80.5942 7.93555H82.7722C82.9103 7.93572 83.0427 7.99349 83.1404 8.0962C83.238 8.1989 83.2929 8.33815 83.2931 8.4834V8.57503C83.2929 8.72034 83.238 8.85966 83.1404 8.96246C83.0428 9.06527 82.9103 9.12319 82.7722 9.12352ZM80.5942 8.21934C80.5276 8.21934 80.4637 8.24716 80.4166 8.29668C80.3695 8.3462 80.3431 8.41337 80.3431 8.4834V8.57503C80.3431 8.64512 80.3695 8.71236 80.4166 8.76198C80.4636 8.8116 80.5275 8.83956 80.5942 8.83973H82.7722C82.8388 8.83956 82.9027 8.8116 82.9498 8.76198C82.9968 8.71236 83.0233 8.64512 83.0233 8.57503V8.4834C83.0233 8.41337 82.9968 8.3462 82.9497 8.29668C82.9026 8.24716 82.8388 8.21934 82.7722 8.21934H80.5942Z" fill="black"/>
<path d="M102.829 21.4023H69.3715C69.0363 21.4023 68.7646 21.6881 68.7646 22.0406V23.4474C68.7646 23.7999 69.0363 24.0856 69.3715 24.0856H102.829C103.164 24.0856 103.436 23.7999 103.436 23.4474V22.0406C103.436 21.6881 103.164 21.4023 102.829 21.4023Z" fill="white"/>
<path d="M102.831 24.2314H69.3742C69.1774 24.2311 68.9888 24.1487 68.8496 24.0023C68.7105 23.856 68.6322 23.6576 68.6318 23.4506V22.0444C68.6322 21.8375 68.7105 21.6391 68.8496 21.4927C68.9888 21.3464 69.1774 21.264 69.3742 21.2637H102.831C103.028 21.2638 103.217 21.3462 103.356 21.4925C103.495 21.6389 103.573 21.8374 103.574 22.0444V23.4506C103.573 23.6577 103.495 23.8561 103.356 24.0025C103.217 24.1489 103.028 24.2312 102.831 24.2314ZM69.3742 21.55C69.249 21.5503 69.129 21.6028 69.0404 21.6959C68.9519 21.7891 68.902 21.9153 68.9017 22.047V23.4532C68.9018 23.5849 68.9517 23.7112 69.0402 23.8044C69.1288 23.8976 69.2489 23.95 69.3742 23.9501H102.831C102.957 23.9501 103.077 23.8978 103.165 23.8046C103.254 23.7114 103.304 23.585 103.304 23.4532V22.047C103.304 21.9152 103.254 21.7889 103.165 21.6957C103.077 21.6026 102.956 21.5502 102.831 21.55H69.3742Z" fill="black"/>
<path d="M43.8671 12.4902C43.8358 12.4901 43.8054 12.4787 43.7812 12.4578L39.6907 8.90658C39.6814 8.89835 39.6695 8.89417 39.6574 8.89488C39.6452 8.89559 39.6338 8.90114 39.6254 8.91039L36.5253 12.3751C36.5008 12.4025 36.4669 12.4185 36.4311 12.4197C36.3953 12.4208 36.3605 12.4069 36.3345 12.3811C36.3084 12.3553 36.2931 12.3196 36.2921 12.282C36.291 12.2443 36.3042 12.2078 36.3287 12.1804L39.4264 8.71632C39.4817 8.6546 39.5573 8.6173 39.6379 8.61199C39.7184 8.60667 39.7979 8.63373 39.8601 8.68769L43.9506 12.2389C43.972 12.2575 43.9875 12.2826 43.9948 12.3108C44.0022 12.339 44.0011 12.3688 43.9917 12.3963C43.9823 12.4238 43.9651 12.4476 43.9423 12.4644C43.9196 12.4812 43.8925 12.4902 43.8647 12.4902H43.8671Z" fill="black"/>
<path d="M50.4164 12.3066H28.6494C28.205 12.3066 27.8447 12.6855 27.8447 13.1529V28.9078C27.8447 29.3752 28.205 29.7541 28.6494 29.7541H50.4164C50.8608 29.7541 51.2211 29.3752 51.2211 28.9078V13.1529C51.2211 12.6855 50.8608 12.3066 50.4164 12.3066Z" fill="white"/>
<path d="M50.4156 29.8933H28.6486C28.3995 29.8932 28.1607 29.7891 27.9846 29.6039C27.8084 29.4188 27.7093 29.1677 27.709 28.9058V13.1503C27.7093 12.8883 27.8084 12.6372 27.9845 12.4519C28.1607 12.2667 28.3995 12.1624 28.6486 12.1621H50.4156C50.6646 12.1624 50.9034 12.2667 51.0794 12.452C51.2554 12.6372 51.3544 12.8884 51.3546 13.1503V28.9058C51.3544 29.1676 51.2554 29.4187 51.0794 29.6039C50.9033 29.7891 50.6646 29.8932 50.4156 29.8933ZM28.6486 12.4472C28.471 12.4473 28.3007 12.5216 28.1752 12.6537C28.0496 12.7857 27.979 12.9648 27.9788 13.1516V28.9058C27.979 29.0925 28.0496 29.2715 28.1752 29.4034C28.3008 29.5354 28.471 29.6095 28.6486 29.6095H50.4156C50.593 29.6094 50.7631 29.5352 50.8886 29.4032C51.014 29.2713 51.0846 29.0924 51.0847 28.9058V13.1503C51.0842 12.9639 51.0136 12.7852 50.8882 12.6534C50.7628 12.5217 50.5928 12.4475 50.4156 12.4472H28.6486Z" fill="black"/>
<path d="M49.0596 13.5508H29.9606C29.552 13.5508 29.2207 13.8992 29.2207 14.329V27.6481C29.2207 28.0779 29.552 28.4263 29.9606 28.4263H49.0596C49.4682 28.4263 49.7995 28.0779 49.7995 27.6481V14.329C49.7995 13.8992 49.4682 13.5508 49.0596 13.5508Z" fill="white"/>
<path d="M49.0597 28.5661H29.9608C29.7289 28.5658 29.5065 28.4687 29.3425 28.2963C29.1785 28.1238 29.0863 27.8899 29.0859 27.646V14.3269C29.0858 14.2059 29.1083 14.0861 29.1522 13.9742C29.196 13.8624 29.2604 13.7607 29.3417 13.6751C29.4229 13.5894 29.5194 13.5214 29.6256 13.4749C29.7318 13.4285 29.8457 13.4045 29.9608 13.4043H49.0597C49.2916 13.4046 49.514 13.5017 49.678 13.6742C49.842 13.8466 49.9342 14.0805 49.9345 14.3244V27.646C49.9342 27.8899 49.842 28.1238 49.678 28.2963C49.514 28.4687 49.2916 28.5658 49.0597 28.5661ZM29.9608 13.6906C29.8003 13.6906 29.6464 13.7577 29.533 13.877C29.4195 13.9963 29.3558 14.1582 29.3558 14.3269V27.646C29.3558 27.8148 29.4195 27.9766 29.533 28.096C29.6464 28.2153 29.8003 28.2823 29.9608 28.2823H49.0597C49.2202 28.2823 49.3741 28.2153 49.4875 28.096C49.601 27.9766 49.6647 27.8148 49.6647 27.646V14.3269C49.6647 14.1582 49.601 13.9963 49.4875 13.877C49.3741 13.7577 49.2202 13.6906 49.0597 13.6906H29.9608Z" fill="black"/>
<path d="M56.3858 69.3242H39.8594V70.1756H56.3858V69.3242Z" fill="white"/>
<path d="M56.386 70.3148H39.8595C39.8237 70.3148 39.7894 70.2999 39.7641 70.2733C39.7388 70.2467 39.7246 70.2106 39.7246 70.173V69.3216C39.7246 69.2839 39.7388 69.2479 39.7641 69.2213C39.7894 69.1946 39.8237 69.1797 39.8595 69.1797H56.386C56.4217 69.1797 56.4561 69.1946 56.4814 69.2213C56.5067 69.2479 56.5209 69.2839 56.5209 69.3216V70.173C56.5209 70.2106 56.5067 70.2467 56.4814 70.2733C56.4561 70.2999 56.4217 70.3148 56.386 70.3148ZM39.9944 70.0311H56.251V69.4635H39.9944V70.0311Z" fill="black"/>
<path d="M59.1345 41.302C62.0425 41.302 64.3999 38.8227 64.3999 35.7643C64.3999 32.7059 62.0425 30.2266 59.1345 30.2266C56.2265 30.2266 53.8691 32.7059 53.8691 35.7643C53.8691 38.8227 56.2265 41.302 59.1345 41.302Z" fill="white"/>
<path d="M59.1339 41.4394C58.0658 41.4396 57.0216 41.1067 56.1333 40.4827C55.2451 39.8588 54.5527 38.9718 54.1438 37.934C53.7349 36.8961 53.6278 35.7541 53.8361 34.6522C54.0444 33.5504 54.5587 32.5382 55.3139 31.7438C56.0692 30.9494 57.0315 30.4084 58.0791 30.1892C59.1267 29.97 60.2126 30.0825 61.1995 30.5125C62.1863 30.9424 63.0298 31.6705 63.6231 32.6046C64.2165 33.5387 64.5332 34.637 64.533 35.7604C64.5313 37.2658 63.9619 38.7091 62.9498 39.7737C61.9377 40.8383 60.5654 41.4373 59.1339 41.4394ZM59.1339 30.3677C58.1192 30.3677 57.1273 30.6842 56.2836 31.2771C55.4399 31.87 54.7823 32.7127 54.394 33.6986C54.0057 34.6846 53.9041 35.7695 54.102 36.8162C54.3 37.8629 54.7886 38.8244 55.5062 39.579C56.2237 40.3336 57.1378 40.8475 58.133 41.0557C59.1283 41.2639 60.1598 41.157 61.0973 40.7486C62.0348 40.3403 62.836 39.6487 63.3998 38.7613C63.9635 37.874 64.2644 36.8307 64.2644 35.7635C64.2638 34.3324 63.7231 32.96 62.7612 31.9477C61.7993 30.9354 60.4947 30.366 59.1339 30.3645V30.3677Z" fill="black"/>
<path d="M59.1626 38.5507C59.1372 38.5674 59.1079 38.5767 59.0779 38.5775C59.0479 38.5783 59.0182 38.5706 58.992 38.5552C58.528 38.2822 56.3753 36.9179 56.4594 35.1338C56.5484 33.2484 58.4941 33.5755 58.9744 34.5032C58.9832 34.5206 58.9965 34.5349 59.0128 34.5445C59.0291 34.5541 59.0478 34.5586 59.0664 34.5573C59.0851 34.5563 59.1031 34.5498 59.1184 34.5386C59.1337 34.5273 59.1457 34.5117 59.1529 34.4936C59.3883 33.8974 60.1494 33.466 60.8663 33.7492C61.7212 34.0858 62.59 36.3173 59.1626 38.5507Z" fill="black"/>
</g>
<defs>
<clipPath id="clip0_480_18409">
<rect width="116" height="122" fill="white"/>
</clipPath>
</defs>
</svg>
