<svg width="116" height="122" viewBox="0 0 116 122" fill="none" xmlns="http://www.w3.org/2000/svg">
<g clip-path="url(#clip0_480_18560)">
<path d="M100.096 42.8856L99.7627 43.2402L100.326 43.8257L100.659 43.4711L100.096 42.8856Z" fill="#231F20"/>
<path d="M101.263 44.118L100.93 44.4727L101.493 45.0581L101.826 44.7035L101.263 44.118Z" fill="#231F20"/>
<path d="M100.329 44.1033L99.7725 44.6953L100.11 45.046L100.666 44.454L100.329 44.1033Z" fill="#231F20"/>
<path d="M101.496 42.8866L100.939 43.4785L101.277 43.8292L101.833 43.2374L101.496 42.8866Z" fill="#231F20"/>
<path d="M0.333481 56.5712L0 56.9258L0.562941 57.5113L0.896422 57.1567L0.333481 56.5712Z" fill="#231F20"/>
<path d="M1.49945 57.7899L1.16602 58.1445L1.72896 58.73L2.06239 58.3754L1.49945 57.7899Z" fill="#231F20"/>
<path d="M0.559694 57.7927L0.00292969 58.3848L0.340111 58.7355L0.896876 58.1434L0.559694 57.7927Z" fill="#231F20"/>
<path d="M1.72751 56.5663L1.1709 57.1582L1.50808 57.5089L2.06469 56.917L1.72751 56.5663Z" fill="#231F20"/>
<path d="M64.8676 43.0302L64.5342 43.3848L65.0971 43.9702L65.4305 43.6156L64.8676 43.0302Z" fill="#231F20"/>
<path d="M66.0366 44.2626L65.7031 44.6172L66.2661 45.2027L66.5995 44.8481L66.0366 44.2626Z" fill="#231F20"/>
<path d="M65.0988 44.2556L64.542 44.8477L64.8792 45.1984L65.4359 44.6063L65.0988 44.2556Z" fill="#231F20"/>
<path d="M66.2656 43.0311L65.709 43.623L66.0462 43.9738L66.6028 43.3819L66.2656 43.0311Z" fill="#231F20"/>
<path d="M9.71741 18.2734C9.26998 18.2734 8.91211 18.6499 8.91211 19.1205C8.91211 19.5854 9.27005 19.9674 9.71741 19.9674C10.1596 19.9674 10.5228 19.5854 10.5228 19.1205C10.5228 18.6498 10.1596 18.2734 9.71741 18.2734ZM9.71741 19.4691C9.53318 19.4691 9.38584 19.3086 9.38584 19.1204C9.38584 18.9266 9.53318 18.7716 9.71741 18.7716C9.89638 18.7716 10.049 18.9266 10.049 19.1204C10.049 19.3086 9.89638 19.4691 9.71741 19.4691Z" fill="#231F20"/>
<path d="M83.152 22.0234C82.7099 22.0234 82.3467 22.3999 82.3467 22.8704C82.3467 23.3354 82.7099 23.7174 83.152 23.7174C83.5942 23.7174 83.9573 23.3354 83.9573 22.8704C83.9574 22.3998 83.5942 22.0234 83.152 22.0234ZM83.152 23.2191C82.9678 23.2191 82.8203 23.0641 82.8203 22.8704C82.8203 22.6766 82.9678 22.5217 83.152 22.5217C83.3362 22.5217 83.4836 22.6767 83.4836 22.8704C83.4836 23.0641 83.3362 23.2191 83.152 23.2191Z" fill="#231F20"/>
<path d="M65.0265 55.7188C64.5895 55.7188 64.2422 56.0897 64.2422 56.5436C64.2422 56.9976 64.5895 57.3684 65.0265 57.3684C65.458 57.3684 65.8055 56.9975 65.8055 56.5436C65.8055 56.0897 65.4581 55.7188 65.0265 55.7188ZM65.0265 57.1193C64.7212 57.1193 64.479 56.8592 64.479 56.5436C64.479 56.228 64.7211 55.9679 65.0265 55.9679C65.3265 55.9679 65.5686 56.228 65.5686 56.5436C65.5686 56.8592 65.3265 57.1193 65.0265 57.1193Z" fill="#231F20"/>
<path d="M110.693 66.4883C110.262 66.4883 109.909 66.8592 109.909 67.3131C109.909 67.767 110.262 68.1379 110.693 68.1379C111.125 68.1379 111.478 67.767 111.478 67.3131C111.478 66.8592 111.125 66.4883 110.693 66.4883ZM110.693 67.8889C110.393 67.8889 110.151 67.6286 110.151 67.3132C110.151 66.9977 110.393 66.7374 110.693 66.7374C110.999 66.7374 111.241 66.9977 111.241 67.3132C111.241 67.6286 110.999 67.8889 110.693 67.8889Z" fill="#231F20"/>
<path d="M95.0676 67.9485L93.578 66.2656L93.3938 66.5701C93.1569 66.9687 92.7358 67.3064 92.1936 67.5776C91.9831 67.6883 91.7621 67.7825 91.5199 67.8766C88.1302 69.1443 81.798 68.9007 81.7191 68.8952H81.656L79.3978 69.9193C79.3978 69.9193 79.3873 69.9248 79.3768 69.9248L79.2452 69.9857L79.2189 70.1296C79.2084 70.1573 79.1874 70.3179 79.2347 70.5504C79.2716 70.7552 79.3716 71.0154 79.5979 71.2811C80.1506 71.9398 81.4823 72.6429 84.672 72.6429C85.3036 72.6429 86.0142 72.6151 86.8037 72.5543C93.6674 72.0173 94.9412 69.3269 95.1728 68.502C95.2097 68.3692 95.2202 68.2861 95.2202 68.264L95.2307 68.1367L95.0676 67.9485ZM86.767 72.0007C82.0246 72.3772 80.4981 71.497 80.0139 70.9379C79.8086 70.7054 79.7507 70.495 79.7349 70.3677L81.7561 69.4487C82.6562 69.4819 91.4832 69.7476 93.6413 67.1458L94.6677 68.3139C94.5098 68.8896 93.4201 71.4804 86.767 72.0007Z" fill="#231F20"/>
<path d="M100.561 71.36C98.8773 67.819 95.0177 68.5087 94.9737 68.5114L94.9375 67.9589C94.9861 67.9551 99.189 67.2383 101.031 71.1124L100.561 71.36Z" fill="#231F20"/>
<path d="M79.5503 70.4472C79.5442 70.4536 79.4295 70.4869 79.2348 70.552C78.0078 70.9521 73.4814 72.4077 70.549 73.2648C67.375 74.2061 58.6229 74.6998 57.0592 74.7823C56.9008 76.4982 56.0481 87.0443 58.0539 89.7286C59.7215 91.954 60.9803 92.3698 62.728 92.9397C63.2848 93.1222 63.9128 93.327 64.601 93.6095C66.9177 94.5619 69.9649 96.089 69.7129 98.3763C69.6434 98.9842 69.2118 100.829 68.4858 103.141C68.4738 103.183 68.4013 103.381 68.2987 103.662C68.0814 104.254 67.7267 105.207 67.5048 105.81C67.3961 106.105 67.3176 106.318 67.3041 106.364L66.7109 106.588C66.7184 106.564 66.7456 106.484 66.7879 106.364C66.8362 106.226 66.9041 106.034 66.9825 105.81C67.2361 105.088 67.6073 104.037 67.8278 103.408C67.9289 103.121 67.9984 102.922 68.0119 102.883C68.7122 100.651 69.1288 98.8859 69.1906 98.3144C69.3446 96.8811 67.7855 95.508 64.4123 94.1238C63.7376 93.8524 63.143 93.654 62.5755 93.4715C60.8066 92.8905 59.406 92.4365 57.6433 90.0667C57.4214 89.7683 57.2267 89.3857 57.0697 88.9381C56.9957 88.7381 56.9279 88.527 56.869 88.3063C55.8533 84.6253 56.2744 77.876 56.4751 75.4077C56.4963 75.1872 56.5113 74.9982 56.5219 74.8537C56.543 74.66 56.5536 74.5331 56.5581 74.4886L56.5793 74.2505L56.8057 74.2394C56.9068 74.2346 67.0445 73.7251 70.4071 72.7346C73.6913 71.7711 78.9978 70.0489 79.3767 69.9266C79.3872 69.9266 79.3978 69.9219 79.3978 69.9219L79.5503 70.4472Z" fill="#231F20"/>
<path d="M116 83.1487L115.948 83.2372C105.178 101.959 90.3509 110.313 79.8132 114.028C70.3703 117.349 62.5855 117.648 60.1117 117.648C59.5958 117.648 59.3116 117.631 59.2958 117.631L57.5693 117.543L59.2431 117.089C62.3276 116.247 65.0014 111.088 66.7964 106.366C66.8701 106.178 66.9385 105.995 67.0069 105.812H67.5806C67.5122 105.995 67.4438 106.178 67.3753 106.366C65.7594 110.662 63.3961 115.378 60.5854 117.089C63.4382 117.05 70.8178 116.613 79.6658 113.496C90.0982 109.815 104.768 101.544 115.448 83.038C115.258 81.9806 113.368 72.7026 105.384 71.3795C104.041 71.1581 102.678 71.1471 101.32 71.3131C101.131 71.3297 100.941 71.3573 100.752 71.3851C93.1563 72.5531 85.7346 78.9692 82.5081 83.9016C78.4682 90.0599 71.8003 109.53 71.8959 114.73C71.8986 114.877 71.7929 114.999 71.6537 115.01C71.5053 115.021 71.3766 114.9 71.3737 114.744C71.2745 109.341 77.8957 89.9614 82.0713 83.586C85.3242 78.6203 92.751 72.1932 100.425 70.8868C100.62 70.848 100.82 70.8203 101.015 70.7982C102.504 70.5934 103.999 70.5878 105.468 70.8314C114.274 72.2928 115.969 82.9438 115.984 83.0489L116 83.1487Z" fill="#231F20"/>
<path d="M56.779 74.8755L56.7422 75.4291C56.3053 75.3959 54.1683 75.2077 51.9787 74.9253C51.7945 74.9031 51.605 74.881 51.4207 74.8533C50.8312 74.7703 50.2417 74.6817 49.6995 74.5876V74.5821C49.5048 74.5543 49.3153 74.5211 49.1311 74.4824C48.0678 74.2776 47.2204 74.0506 46.8835 73.8071C46.5308 73.5469 45.5255 72.4895 44.2201 70.9285C44.0727 70.7513 43.9201 70.5687 43.7622 70.3749C43.6148 70.1978 43.4674 70.0096 43.3147 69.8213C43.1674 69.6441 43.0252 69.456 42.8726 69.2677C42.4199 68.692 41.9462 68.072 41.4672 67.4243C41.3357 67.2472 41.1988 67.0645 41.0672 66.8763C40.525 66.1235 39.9723 65.3374 39.4302 64.5236C39.3092 64.3409 39.1829 64.1583 39.067 63.97C38.9038 63.7264 38.7407 63.4717 38.5828 63.2227C38.2775 62.7465 37.9827 62.2595 37.6932 61.7723C37.688 61.7668 37.688 61.7612 37.6827 61.7557C37.5775 61.573 37.4669 61.3848 37.3617 61.2021C36.3248 59.3974 35.4194 57.554 34.7878 55.7936L34.7667 55.7327L34.772 55.6719C34.7772 55.6332 35.0667 51.9241 33.8298 50.6232C33.4086 50.1803 33.156 50.0142 33.0245 49.9533H33.0192V49.9478C32.9245 49.909 32.8877 49.92 32.8877 49.92L32.4456 49.9256H32.3613C32.3666 49.8813 32.3718 49.8315 32.3876 49.7761C32.4298 49.6377 32.5192 49.4771 32.7035 49.4051C32.735 49.3941 32.7719 49.383 32.8035 49.3775C33.1456 49.3166 33.593 49.5878 34.2036 50.23C35.53 51.625 35.3405 55.1236 35.3037 55.6551C35.8037 57.0446 36.4775 58.4784 37.2512 59.9067C37.4775 60.3384 37.7196 60.7702 37.9723 61.202C38.0407 61.3238 38.1144 61.4511 38.1881 61.5729L38.2986 61.7556C38.746 62.5085 39.2144 63.2503 39.6934 63.97C39.8145 64.1582 39.9408 64.3409 40.0619 64.5236C40.6146 65.3374 41.1725 66.1235 41.7199 66.8708C41.8515 67.059 41.9831 67.2417 42.1199 67.4243C42.6094 68.0776 43.0884 68.6976 43.5463 69.2677C43.6937 69.4615 43.8411 69.6442 43.9885 69.8213C44.1411 70.0095 44.2938 70.1978 44.4412 70.3749C44.599 70.5687 44.757 70.7514 44.9044 70.9285C46.0255 72.246 46.8677 73.1207 47.1835 73.3532C47.4415 73.5414 48.1099 73.7241 48.9994 73.9012C49.1784 73.9344 49.3679 73.9732 49.5679 74.0064C50.0995 74.1005 50.6837 74.1891 51.2891 74.272C51.4733 74.2998 51.6576 74.3219 51.847 74.3496C53.7209 74.5932 55.6789 74.7815 56.779 74.8755Z" fill="#231F20"/>
<path d="M33.7842 52.7833C33.6474 52.8384 33.4941 52.7665 33.4417 52.6226C33.1453 51.808 32.7983 50.8607 32.4469 49.9269C32.4258 49.8771 32.4048 49.8272 32.389 49.7774C31.9837 48.7256 31.5837 47.6959 31.2468 46.8877C31.0415 46.395 30.8626 45.9853 30.7205 45.703C30.6152 45.4871 30.5362 45.3432 30.4836 45.2878C30.3046 45.1052 30.073 45.0332 29.9204 45.1218C29.7203 45.2325 29.5572 45.6532 29.6467 46.4892C29.6625 46.6331 29.6835 46.7937 29.7152 46.9652C29.7467 47.1202 29.773 47.2642 29.7994 47.4025C30.1047 48.9415 30.2626 49.2017 30.2836 49.2293L30.11 49.3622L30.0678 49.6999C29.9836 49.6889 29.8836 49.6778 29.7415 49.3235C29.6837 49.1851 29.6205 48.9857 29.552 48.7145C29.5099 48.5651 29.4678 48.3879 29.4205 48.1831C29.3678 47.9396 29.3099 47.6517 29.2468 47.3195C29.231 47.2419 29.2152 47.1589 29.1994 47.0704C28.9046 45.4429 29.2941 44.845 29.6731 44.6346C30.0363 44.4298 30.5099 44.535 30.8574 44.9003C31.0206 45.0719 31.3206 45.703 31.6732 46.5389C31.8206 46.8876 31.9785 47.2696 32.1417 47.6737C32.3627 48.2273 32.5891 48.8086 32.8049 49.3788C32.8785 49.5725 32.9522 49.7663 33.0207 49.9545H33.0259C33.4099 50.9755 33.7457 51.8956 33.9373 52.4239C33.9894 52.5677 33.9208 52.7283 33.7842 52.7833Z" fill="#231F20"/>
<path d="M57.3272 88.4405L57.1956 88.9776C56.4429 88.7727 55.7113 88.5513 54.9954 88.3188C54.8007 88.2579 54.6059 88.1914 54.4112 88.1195C53.7953 87.9147 53.19 87.6933 52.6005 87.4608C52.4005 87.3834 52.2004 87.3058 52.0057 87.2228C43.5629 83.7961 38.3257 78.7253 37.5519 77.4078C37.1993 76.8099 36.2466 74.1251 35.1729 70.9309C35.1097 70.7482 35.0465 70.5655 34.9834 70.3773C34.9202 70.1946 34.8623 70.012 34.7991 69.8237C34.7359 69.641 34.6728 69.4528 34.6149 69.2701C34.4149 68.6722 34.2201 68.0744 34.0201 67.4766C33.9569 67.2939 33.899 67.1056 33.8412 66.9229C33.5727 66.1092 33.3095 65.3009 33.0569 64.5259C32.999 64.3377 32.9358 64.155 32.8779 63.9723C32.6253 63.1862 32.3831 62.4444 32.1674 61.7579C32.1042 61.5697 32.0463 61.3815 31.9884 61.2044C31.4567 59.5492 31.0725 58.3424 30.962 57.988C30.5725 57.678 28.746 56.0948 28.0985 53.6147C27.4564 51.1624 29.0933 49.2026 29.5513 48.7155C29.6145 48.6435 29.6566 48.6048 29.6671 48.5938L30.025 49.0034C30.0198 49.0089 29.904 49.1196 29.7408 49.3245C29.1933 49.9832 28.1143 51.5941 28.6038 53.4708C29.2671 55.9952 31.3198 57.5784 31.3356 57.595L31.4041 57.6503L31.4356 57.7333C31.4514 57.7831 31.8936 59.1782 32.5463 61.2043C32.5989 61.387 32.6621 61.5697 32.7199 61.7578C32.941 62.4443 33.1831 63.1916 33.4305 63.9722C33.4937 64.1549 33.5516 64.3376 33.6148 64.5258C33.8674 65.3064 34.1306 66.109 34.3938 66.9229C34.457 67.1056 34.5148 67.2882 34.578 67.4709C34.778 68.0743 34.9728 68.6777 35.1728 69.2701C35.236 69.4583 35.2938 69.641 35.357 69.8236C35.4202 70.0063 35.4833 70.1945 35.5412 70.3772C35.6044 70.5599 35.6675 70.7481 35.7307 70.9308C36.7676 74.0087 37.673 76.5607 37.9993 77.1198C38.7414 78.382 43.7471 83.2093 51.8583 86.575C52.053 86.6581 52.253 86.7355 52.453 86.8186C53.0426 87.0511 53.6479 87.2781 54.269 87.4939C54.4638 87.5604 54.6585 87.6268 54.8533 87.6877C55.6533 87.959 56.4797 88.2136 57.3272 88.4405Z" fill="#231F20"/>
<path d="M61.0384 70.2176C60.7226 70.6659 60.1751 70.9095 59.4119 70.9261C59.3803 70.9317 59.3435 70.9317 59.3066 70.9317V70.3781C59.6698 70.3781 59.9699 70.3228 60.2014 70.2176C60.3804 70.1401 60.5172 70.0294 60.6172 69.891C60.6488 69.8523 60.6699 69.808 60.6857 69.7637C60.912 69.3209 60.7594 68.7673 60.7541 68.7562L61.2594 68.5957L61.2647 68.6123C61.3016 68.7505 61.4911 69.5753 61.0384 70.2176Z" fill="#231F20"/>
<path d="M5.64877 33.9964L5.37505 33.9854L5.10666 33.9743C5.10666 33.9965 5.11192 34.0242 5.11718 34.0518L5.21719 34.5335L5.4909 34.5445L5.76462 34.5556L5.64877 33.9964ZM60.232 69.8243C60.2268 69.7911 60.2162 69.7523 60.211 69.7191L60.1057 69.2708L53.321 40.3572L52.4999 36.8474C52.4051 36.4322 52.0472 36.1277 51.6367 36.1056L5.64884 33.9964L5.37512 33.9854L5.10673 33.9743L5.01725 33.9688C4.93302 33.9633 4.85405 33.9688 4.77516 33.9909C4.57515 34.0352 4.39618 34.1459 4.26454 34.3175C4.09609 34.5279 4.02245 34.7881 4.05401 35.0538C4.05401 35.087 4.06453 35.1258 4.06979 35.1589L9.58601 61.205L9.70713 61.7586L10.1756 63.9729L10.2914 64.5265L11.4862 70.1675C11.5809 70.6159 11.9546 70.9314 12.3915 70.9314H35.7302C35.667 70.7487 35.6039 70.5606 35.5407 70.3779H12.3914C12.2019 70.3779 12.0387 70.2395 12.0019 70.0457L10.8334 64.5265L10.7123 63.9729L10.2438 61.7586L10.128 61.205L4.58026 35.0372C4.55389 34.9098 4.58552 34.7769 4.66449 34.6718C4.74346 34.5777 4.85398 34.5223 4.97503 34.5223H4.9908L5.21712 34.5333L5.49083 34.5444L5.76455 34.5555L51.6155 36.6591C51.7945 36.6702 51.9471 36.7975 51.9892 36.9802L52.7787 40.3404L59.5635 69.2706L59.695 69.8242L59.7003 69.8518C59.7266 69.9792 59.7003 70.112 59.6266 70.2117C59.5477 70.3169 59.4318 70.3778 59.3055 70.3778H43.7623C43.9202 70.5716 44.0728 70.7543 44.2203 70.9313H59.3057C59.3425 70.9313 59.3794 70.9313 59.4109 70.9258C59.6583 70.8926 59.8847 70.7653 60.0373 70.5549C60.1162 70.4497 60.1689 70.339 60.2005 70.2172C60.2373 70.09 60.2478 69.9572 60.232 69.8243ZM5.64877 33.9964L5.37505 33.9854L5.10666 33.9743C5.10666 33.9965 5.11192 34.0242 5.11718 34.0518L5.21719 34.5335L5.4909 34.5445L5.76462 34.5556L5.64877 33.9964ZM5.64877 33.9964L5.37505 33.9854L5.10666 33.9743C5.10666 33.9965 5.11192 34.0242 5.11718 34.0518L5.21719 34.5335L5.4909 34.5445L5.76462 34.5556L5.64877 33.9964Z" fill="#231F20"/>
<path d="M35.3565 69.8255C35.4197 70.0082 35.4828 70.1964 35.5408 70.3791H12.3916C12.2021 70.3791 12.0389 70.2407 12.0021 70.047L4.58041 35.0383C4.55404 34.911 4.58567 34.7781 4.66464 34.6729C4.7436 34.5788 4.85413 34.5234 4.97517 34.5234H4.99095L5.21726 34.5345L12.5389 69.0614C12.6337 69.5098 13.0073 69.8254 13.4442 69.8254L35.3565 69.8255Z" fill="#231F20"/>
<path d="M59.6262 70.2117C59.5473 70.3169 59.4315 70.3778 59.3052 70.3778H43.7619C43.6145 70.2007 43.4671 70.0125 43.3145 69.8242H59.6947L59.6999 69.8519C59.7262 69.9792 59.6999 70.1121 59.6262 70.2117Z" fill="#231F20"/>
<path d="M5.90232 33.4371C5.83395 33.4481 5.74972 33.4647 5.65498 33.4924C5.61816 33.4979 5.58653 33.509 5.54971 33.5201C5.50756 33.5311 5.46548 33.5478 5.41815 33.5644C5.41815 33.5644 5.41815 33.5699 5.41289 33.5699C5.36029 33.6972 5.34444 33.8412 5.376 33.9851L5.64972 33.9962L5.63394 33.9297C5.60756 33.8023 5.63394 33.6695 5.71816 33.5698C5.77069 33.5035 5.82861 33.4592 5.90232 33.4371ZM34.6151 69.2704H13.445C13.2555 69.2704 13.0977 69.132 13.0555 68.9383L12.1187 64.5262L12.0029 63.9726L11.5344 61.7583L11.4186 61.2047L6.73933 39.1389L5.76557 34.5552L5.64972 33.9962L5.63401 33.9297C5.60764 33.8023 5.63401 33.6695 5.71823 33.5698C5.77083 33.5034 5.82876 33.4591 5.90247 33.437C5.83409 33.4481 5.74986 33.4647 5.65512 33.4923C5.6183 33.4979 5.58667 33.5089 5.54985 33.52C5.5077 33.531 5.46563 33.5477 5.41829 33.5643C5.41829 33.5643 5.41829 33.5698 5.41303 33.5698C5.36043 33.6971 5.34458 33.8411 5.37614 33.985V33.9906L5.492 34.5441L5.21828 34.533L10.8766 61.2047L10.9924 61.7582L11.4608 63.9725L11.5766 64.5262L12.5399 69.06C12.6346 69.5083 13.0083 69.824 13.4452 69.824H34.7995C34.7361 69.6413 34.673 69.4531 34.6151 69.2704ZM34.6151 69.2704H13.445C13.2555 69.2704 13.0977 69.132 13.0555 68.9383L12.1187 64.5262L12.0029 63.9726L11.5344 61.7583L11.4186 61.2047L6.73933 39.1389L5.76557 34.5552L5.64972 33.9962L5.63401 33.9297C5.60764 33.8023 5.63401 33.6695 5.71823 33.5698C5.77083 33.5034 5.82876 33.4591 5.90247 33.437C5.83409 33.4481 5.74986 33.4647 5.65512 33.4923C5.6183 33.4979 5.58667 33.5089 5.54985 33.52C5.5077 33.531 5.46563 33.5477 5.41829 33.5643C5.41829 33.5643 5.41829 33.5698 5.41303 33.5698C5.36043 33.6971 5.34458 33.8411 5.37614 33.985V33.9906L5.492 34.5441L5.21828 34.533L10.8766 61.2047L10.9924 61.7582L11.4608 63.9725L11.5766 64.5262L12.5399 69.06C12.6346 69.5083 13.0083 69.824 13.4452 69.824H34.7995C34.7361 69.6413 34.673 69.4531 34.6151 69.2704ZM61.2856 68.7279C61.2804 68.6892 61.2751 68.6504 61.2646 68.6117L61.2593 68.5951L53.5534 35.7344C53.4534 35.3192 53.1061 35.0203 52.6902 34.9982L6.07078 32.8613H6.04448C6.03922 32.8613 6.01818 32.8613 5.97603 32.8669C5.93921 32.8724 5.8918 32.8779 5.82869 32.889C5.62342 32.9388 5.44444 33.044 5.31281 33.2156C5.19702 33.3595 5.12858 33.5256 5.10754 33.7083C5.09176 33.7913 5.09176 33.8855 5.10754 33.974C5.10754 33.9962 5.1128 34.0238 5.11806 34.0515L5.21806 34.5331L10.8764 61.2047L10.9922 61.7583L11.4606 63.9726L11.5764 64.5262L12.5396 69.06C12.6344 69.5084 13.008 69.824 13.445 69.824H35.3572C35.294 69.6413 35.2361 69.4587 35.1729 69.2705H13.445C13.2555 69.2705 13.0977 69.132 13.0555 68.9383L12.1187 64.5262L12.0029 63.9726L11.5344 61.7583L11.4186 61.2047L6.73933 39.1389L5.76557 34.5553L5.64979 33.9962L5.63401 33.9298C5.60764 33.8024 5.63401 33.6695 5.71823 33.5698C5.77083 33.5034 5.82876 33.4591 5.90247 33.437L5.91825 33.4371C5.95506 33.4205 5.99195 33.415 6.03403 33.415H6.04981C6.06033 33.415 6.07085 33.415 6.07085 33.415L52.664 35.5518C52.8429 35.5628 53.0008 35.6958 53.0429 35.8728L54.1009 40.379L60.7488 68.7445C60.7804 68.8719 60.7541 69.0047 60.6804 69.1099C60.6014 69.2096 60.4856 69.2704 60.3593 69.2704H42.8737C43.0263 69.4586 43.1684 69.6469 43.3158 69.824H60.3592C60.4697 69.824 60.5802 69.8018 60.6855 69.7631C60.8434 69.7023 60.9855 69.5915 61.0961 69.4476C61.2487 69.2427 61.3119 68.9825 61.2856 68.7279ZM34.6151 69.2704H13.445C13.2555 69.2704 13.0977 69.132 13.0555 68.9383L12.1187 64.5262L12.0029 63.9726L11.5344 61.7583L11.4186 61.2047L6.73933 39.1389L5.76557 34.5552L5.64972 33.9962L5.63401 33.9297C5.60764 33.8023 5.63401 33.6695 5.71823 33.5698C5.77083 33.5034 5.82876 33.4591 5.90247 33.437C5.83409 33.4481 5.74986 33.4647 5.65512 33.4923C5.6183 33.4979 5.58667 33.5089 5.54985 33.52C5.5077 33.531 5.46563 33.5477 5.41829 33.5643C5.41829 33.5643 5.41829 33.5698 5.41303 33.5698C5.36043 33.6971 5.34458 33.8411 5.37614 33.985V33.9906L5.492 34.5441L5.21828 34.533L10.8766 61.2047L10.9924 61.7582L11.4608 63.9725L11.5766 64.5262L12.5399 69.06C12.6346 69.5083 13.0083 69.824 13.4452 69.824H34.7995C34.7361 69.6413 34.673 69.4531 34.6151 69.2704ZM34.6151 69.2704H13.445C13.2555 69.2704 13.0977 69.132 13.0555 68.9383L12.1187 64.5262L12.0029 63.9726L11.5344 61.7583L11.4186 61.2047L6.73933 39.1389L5.76557 34.5552L5.64972 33.9962L5.63401 33.9297C5.60764 33.8023 5.63401 33.6695 5.71823 33.5698C5.77083 33.5034 5.82876 33.4591 5.90247 33.437C5.83409 33.4481 5.74986 33.4647 5.65512 33.4923C5.6183 33.4979 5.58667 33.5089 5.54985 33.52C5.5077 33.531 5.46563 33.5477 5.41829 33.5643C5.41829 33.5643 5.41829 33.5698 5.41303 33.5698C5.36043 33.6971 5.34458 33.8411 5.37614 33.985V33.9906L5.492 34.5441L5.21828 34.533L10.8766 61.2047L10.9924 61.7582L11.4608 63.9725L11.5766 64.5262L12.5399 69.06C12.6346 69.5083 13.0083 69.824 13.4452 69.824H34.7995C34.7361 69.6413 34.673 69.4531 34.6151 69.2704ZM5.90232 33.4371C5.83395 33.4481 5.74972 33.4647 5.65498 33.4924C5.61816 33.4979 5.58653 33.509 5.54971 33.5201C5.50756 33.5311 5.46548 33.5478 5.41815 33.5644C5.41815 33.5644 5.41815 33.5699 5.41289 33.5699C5.36029 33.6972 5.34444 33.8412 5.376 33.9851L5.64972 33.9962L5.63394 33.9297C5.60756 33.8023 5.63394 33.6695 5.71816 33.5698C5.77069 33.5035 5.82861 33.4592 5.90232 33.4371ZM5.90232 33.4371C5.83395 33.4481 5.74972 33.4647 5.65498 33.4924C5.61816 33.4979 5.58653 33.509 5.54971 33.5201C5.50756 33.5311 5.46548 33.5478 5.41815 33.5644C5.41815 33.5644 5.41815 33.5699 5.41289 33.5699C5.36029 33.6972 5.34444 33.8412 5.376 33.9851L5.64972 33.9962L5.63394 33.9297C5.60756 33.8023 5.63394 33.6695 5.71816 33.5698C5.77069 33.5035 5.82861 33.4592 5.90232 33.4371Z" fill="#231F20"/>
<path d="M60.6854 69.7656C60.6696 69.81 60.6486 69.8542 60.617 69.8929C60.517 70.0313 60.3801 70.142 60.2012 70.2195C60.2381 70.0921 60.2485 69.9593 60.2327 69.8265H60.359C60.4696 69.8265 60.5802 69.8044 60.6854 69.7656Z" fill="#231F20"/>
<path d="M5.10599 33.709C5.09021 33.792 5.09021 33.8862 5.10599 33.9747L5.0165 33.9691C4.93227 33.9636 4.85331 33.9691 4.77441 33.9913C4.86909 33.8751 4.98487 33.781 5.10599 33.709Z" fill="#231F20"/>
<path d="M6.06994 33.4149C6.06994 33.4149 6.05942 33.4149 6.0489 33.4149C6.0226 33.4204 5.97519 33.4259 5.91734 33.437H5.90156C5.83318 33.4481 5.74896 33.4647 5.65421 33.4923C5.61739 33.4979 5.58576 33.5089 5.54895 33.52C5.5068 33.531 5.46472 33.5477 5.41738 33.5643C5.31738 33.5975 5.21211 33.6474 5.10685 33.7083C4.9858 33.7803 4.86995 33.8743 4.77527 33.9906C4.75949 34.0072 4.74371 34.0238 4.72786 34.0459C4.54363 34.3006 4.49629 34.6272 4.58052 35.0369L4.0699 35.1587C4.06464 35.1255 4.05412 35.0867 4.05412 35.0535C3.95938 34.5276 4.0436 34.0791 4.31206 33.7083C4.72786 33.1325 5.46479 32.9443 5.82799 32.889C5.89118 32.8779 5.93852 32.8724 5.97534 32.8669C6.01749 32.8613 6.03852 32.8613 6.04378 32.8613L6.05956 33.1381L6.06994 33.4149Z" fill="#231F20"/>
<path d="M53.3004 35.8054C53.2267 35.5065 52.974 35.2906 52.6793 35.274L6.05988 33.1372C5.76512 33.1261 5.5177 33.3088 5.4177 33.5634C5.4177 33.5634 5.4177 33.569 5.41244 33.569C5.35984 33.6963 5.34399 33.8403 5.37555 33.9842V33.9897L5.4914 34.5432L6.46516 39.1324L6.73888 39.138L52.7794 40.3392L53.3215 40.3558L54.1005 40.378L54.3742 40.3835L53.3004 35.8054ZM9.718 36.8019C9.17057 36.8019 8.72321 36.4199 8.72321 35.9493C8.72321 35.4789 9.17057 35.0969 9.718 35.0969C10.2654 35.0969 10.7075 35.4789 10.7075 35.9493C10.7075 36.4199 10.2654 36.8019 9.718 36.8019ZM12.4972 36.8019C11.9498 36.8019 11.5077 36.4199 11.5077 35.9493C11.5077 35.4789 11.9498 35.0969 12.4972 35.0969C13.0446 35.0969 13.4867 35.4789 13.4867 35.9493C13.4867 36.4199 13.0446 36.8019 12.4972 36.8019ZM15.2764 36.8019C14.7289 36.8019 14.2868 36.4199 14.2868 35.9493C14.2868 35.4789 14.7289 35.0969 15.2764 35.0969C15.8238 35.0969 16.2659 35.4789 16.2659 35.9493C16.2659 36.4199 15.8237 36.8019 15.2764 36.8019Z" fill="#231F20"/>
<path d="M34.3943 66.9278C34.4575 67.1105 34.5153 67.2931 34.5785 67.4758L34.0206 67.4814L16.056 67.5976L16.0508 67.044L16.6982 67.0384H17.0719L22.0829 67.0053L22.5934 66.9997H22.604L26.5569 66.9776L27.099 66.9721L33.8417 66.9277L34.3943 66.9278Z" fill="#231F20"/>
<path d="M58.2549 67.3238L50.2806 67.3737L49.7384 67.3792L48.0804 67.3903L47.5383 67.3958L42.1221 67.429H41.4694C41.3378 67.2519 41.201 67.0692 41.0693 66.881L41.722 66.8755L42.501 66.8699H43.0432L47.412 66.8422L47.8962 66.8367H48.4384L49.6122 66.8311L50.1543 66.8256L55.5178 66.7869H56.0653L57.5759 66.7758L51.4467 41.8232C51.4103 41.6749 51.4951 41.5236 51.6362 41.4854C51.7771 41.4472 51.9209 41.5363 51.9573 41.6845L58.2549 67.3238Z" fill="#231F20"/>
<path d="M29.7136 46.9702C29.7451 47.1252 29.7714 47.2692 29.7978 47.4076L29.4188 48.1881L24.6605 58.064L19.5812 55.0138L15.9042 60.6417C15.8217 60.768 15.6573 60.7995 15.5376 60.7121C15.4189 60.6252 15.3891 60.4539 15.4711 60.3286L19.4232 54.283L24.4394 57.2945L29.2451 47.3245L29.6451 46.4941C29.6609 46.6381 29.682 46.7987 29.7136 46.9702Z" fill="#231F20"/>
<path d="M50.9226 44.3482L45.5147 55.5665L38.2035 47.0026L35.398 50.5454L32.1399 47.6779L31.2451 46.8918C31.0398 46.3991 30.8608 45.9895 30.7188 45.7072L31.6715 46.543L35.3297 49.7593L38.1877 46.1555L45.3935 54.5977L50.4543 44.0986C50.5198 43.9627 50.6776 43.9083 50.8069 43.977C50.9364 44.0459 50.9882 44.2122 50.9226 44.3482Z" fill="#231F20"/>
<path d="M55.6007 67.1265L51.1847 48.5899C51.1494 48.4417 51.2351 48.2915 51.3761 48.2545L51.3763 48.2544C51.5171 48.2174 51.6598 48.3074 51.695 48.4555L56.1111 66.9925L55.6007 67.1265Z" fill="#231F20"/>
<path d="M48.473 66.9883L48.015 67.1101L47.9624 67.1267L47.894 66.8333L47.4308 64.8957L46.6833 61.7569L46.5518 61.2033L45.7843 57.9905C45.7489 57.842 45.8349 57.6915 45.9762 57.6546C46.1168 57.618 46.2592 57.708 46.2945 57.8558L47.0939 61.2033L47.2254 61.7569L48.4362 66.8333L48.473 66.9883Z" fill="#231F20"/>
<path d="M43.0725 66.988L42.5619 67.1264L42.4987 66.8662L41.9408 64.5246L41.1513 61.203L38.3888 49.5977C38.3535 49.4492 38.4394 49.2988 38.5807 49.2621H38.5808C38.7215 49.2255 38.8638 49.3155 38.899 49.4633L41.6934 61.203L42.3514 63.9709L42.4882 64.5246L43.0409 66.8662L43.0725 66.988Z" fill="#231F20"/>
<path d="M38.5845 63.2221C38.2792 62.746 37.9845 62.2589 37.695 61.7717L37.6897 61.7551L37.5582 61.2015L37.2529 59.9062L35.7853 53.7481C35.7499 53.5997 35.8359 53.4492 35.9772 53.4125C36.1179 53.3759 36.2602 53.4659 36.2954 53.6138L38.1003 61.2015L38.1898 61.5725L38.232 61.7552L38.5845 63.2221Z" fill="#231F20"/>
<path d="M27.1039 66.9909L26.5934 67.1293L26.5565 66.9743L25.9723 64.5275L25.8407 63.9738L25.3091 61.7595L25.1776 61.2059L25.1405 61.048C25.1057 60.8998 25.1918 60.75 25.3326 60.7133L25.3329 60.7132C25.4738 60.6766 25.6164 60.767 25.6513 60.9152L25.7197 61.2059L25.8566 61.7594L26.5145 64.5273L27.0988 66.9686L27.1039 66.9909Z" fill="#231F20"/>
<path d="M22.6243 66.9877L22.6033 66.9932H22.5928L22.1138 67.126L22.0822 66.9987L21.4927 64.5242L20.7032 61.2027L19.7199 57.0763C19.6845 56.9278 19.7705 56.7773 19.9117 56.7406H19.9118C20.0524 56.704 20.1947 56.7939 20.23 56.9418L21.2453 61.2026L22.0348 64.5241L22.6243 66.9877Z" fill="#231F20"/>
<path d="M17.2288 66.9862L17.0709 67.0304H17.0656L16.7183 67.1245L16.6972 67.0304L16.1025 64.5227L15.6769 62.7323C15.6416 62.5838 15.7276 62.4335 15.8688 62.3968H15.869C16.0097 62.3602 16.152 62.4503 16.1872 62.5982L16.6446 64.5227L17.2288 66.9862Z" fill="#231F20"/>
<path d="M9.20508 41.5859L25.73 42.0174L26.0916 43.541H9.71685L9.20508 41.5859Z" fill="#231F20"/>
<path d="M10.3721 44.75L26.897 45.1815L27.2586 46.7051H10.8838L10.3721 44.75Z" fill="#231F20"/>
<path d="M68.012 102.884L55.4006 96.0415C55.301 95.986 55.1908 95.959 55.0792 95.959H15.3659C15.0339 95.959 14.7608 96.186 14.6868 96.5288C14.6129 96.8669 14.7608 97.1987 15.0612 97.3543L32.4206 106.294C32.5142 106.343 32.6199 106.366 32.7255 106.366H67.3041C67.3177 106.319 67.3962 106.107 67.5048 105.812H32.7255C32.6998 105.812 32.6727 105.807 32.6515 105.796L15.292 96.8558C15.1818 96.8003 15.1924 96.6955 15.2029 96.6511C15.2089 96.6114 15.2452 96.5114 15.3659 96.5114H55.0791C55.1108 96.5114 55.138 96.5178 55.1591 96.5336L67.8278 103.41L67.8384 103.415L68.2987 103.664C68.4014 103.383 68.4738 103.185 68.4858 103.143L68.012 102.884Z" fill="#231F20"/>
<path d="M53.7318 103.881L49.563 101.617L49.4577 101.572H39.3359C39.1622 101.572 39.0096 101.694 38.9727 101.877C38.9306 102.054 39.0148 102.237 39.1727 102.314L43.5626 104.578L43.6678 104.622H53.5634C53.737 104.622 53.8845 104.495 53.9266 104.318C53.9686 104.141 53.8896 103.964 53.7318 103.881ZM43.7678 104.069L39.9938 102.126H49.3524L52.9317 104.069H43.7678Z" fill="#231F20"/>
<path d="M59.2377 99.5929L55.1058 97.3509C55.0531 97.3232 54.9952 97.3066 54.9321 97.3066H20.4715C20.2873 97.3066 20.1346 97.434 20.0925 97.6222C20.0557 97.8049 20.1399 97.9931 20.3031 98.0761L24.656 100.318C24.7087 100.346 24.7613 100.357 24.8192 100.357H59.0588C59.2378 100.357 59.3904 100.229 59.4324 100.047C59.4746 99.8642 59.3956 99.676 59.2377 99.5929ZM24.8508 99.8033L21.0821 97.8602H54.9005L58.4797 99.8033H24.8508Z" fill="#231F20"/>
<path d="M39.6942 63.9688H39.0679C39.1837 64.157 39.3101 64.3397 39.4311 64.5224H40.0628C39.9416 64.3397 39.8153 64.157 39.6942 63.9688ZM33.4306 63.9688H32.8779C32.9359 64.1514 32.999 64.3341 33.0569 64.5224H33.6149C33.5517 64.3341 33.4938 64.1514 33.4306 63.9688ZM39.6942 63.9688H39.0679C39.1837 64.157 39.3101 64.3397 39.4311 64.5224H40.0628C39.9416 64.3397 39.8153 64.157 39.6942 63.9688ZM33.4306 63.9688H32.8779C32.9359 64.1514 32.999 64.3341 33.0569 64.5224H33.6149C33.5517 64.3341 33.4938 64.1514 33.4306 63.9688ZM21.9034 63.9688H21.3613L21.4929 64.5224H22.035L21.9034 63.9688ZM53.6901 92.3011L53.5901 91.8582L53.469 91.3102H52.9269L53.0532 91.8638L53.1795 92.4285C53.269 92.827 53.1795 93.2422 52.9374 93.5688C52.6952 93.8899 52.3268 94.0781 51.9373 94.0781H13.3922C12.7974 94.0781 12.2868 93.6519 12.15 93.0485L6.0653 66.172C5.97581 65.7735 6.06529 65.3527 6.30738 65.0317C6.54954 64.7051 6.91801 64.5224 7.30744 64.5224H12.1184L12.0026 63.9688H7.30751C7.28121 63.9688 7.2601 63.9687 7.2338 63.9743C6.70748 63.9909 6.22323 64.2511 5.89158 64.6884C5.54942 65.1479 5.42837 65.7347 5.55468 66.2993L11.6394 93.1758C11.8289 94.0338 12.5499 94.6317 13.3921 94.6317H51.9373C52.49 94.6317 53.0058 94.366 53.3479 93.912C53.6954 93.4526 53.8164 92.8658 53.6901 92.3011ZM49.5688 74.0052L48.874 70.9273L48.7529 70.3738L48.5003 69.2666H47.9582L48.0845 69.8202L48.2056 70.3738L48.3319 70.9273L49.0004 73.9001L49.1319 74.4813C49.3162 74.5201 49.5056 74.5533 49.7004 74.581L49.5688 74.0052ZM47.9528 66.8308L47.637 65.4247C47.5896 65.2365 47.5212 65.0538 47.4318 64.8933L47.895 66.8308L47.4107 66.8364L47.537 67.39L48.0791 67.3845L47.9528 66.8308ZM39.6942 63.9688H39.0679C39.1837 64.157 39.3101 64.3397 39.4311 64.5224H40.0628C39.9416 64.3397 39.8153 64.157 39.6942 63.9688ZM42.3524 63.9688H41.8103L41.9418 64.5224H42.4892L42.3524 63.9688ZM33.4306 63.9688H32.8779C32.9359 64.1514 32.999 64.3341 33.0569 64.5224H33.6149C33.5517 64.3341 33.4938 64.1514 33.4306 63.9688ZM26.3827 63.9688H25.8405L25.9721 64.5224H26.5143L26.3827 63.9688ZM16.5135 63.9688H15.9713L16.1029 64.5224H16.6451L16.5135 63.9688ZM39.6942 63.9688H39.0679C39.1837 64.157 39.3101 64.3397 39.4311 64.5224H40.0628C39.9416 64.3397 39.8153 64.157 39.6942 63.9688ZM39.6942 63.9688H39.0679C39.1837 64.157 39.3101 64.3397 39.4311 64.5224H40.0628C39.9416 64.3397 39.8153 64.157 39.6942 63.9688ZM33.4306 63.9688H32.8779C32.9359 64.1514 32.999 64.3341 33.0569 64.5224H33.6149C33.5517 64.3341 33.4938 64.1514 33.4306 63.9688Z" fill="#231F20"/>
<path d="M21.2465 61.2012H20.7044L20.8359 61.7547H21.378L21.2465 61.2012ZM32.5474 61.2012H31.9894C32.0473 61.3783 32.1052 61.5666 32.1684 61.7547H32.7211C32.6632 61.5666 32.6 61.3839 32.5474 61.2012ZM38.1899 61.5721L38.1004 61.2012H37.3635C37.4688 61.3839 37.5793 61.5721 37.6846 61.7547H38.3004L38.1899 61.5721ZM47.0959 61.2012H46.5538L46.6853 61.7547H47.2274L47.0959 61.2012ZM50.154 66.82L49.6119 66.8256L49.7382 67.3736L50.2803 67.368L50.154 66.82ZM51.8489 74.3487L51.0804 70.9276L50.9541 70.374L50.833 69.8204L50.7067 69.2668H50.1646L50.2856 69.8204L50.412 70.374L50.5383 70.9276L51.291 74.2712L51.4226 74.8525C51.6068 74.8802 51.7963 74.9023 51.9805 74.9245L51.8489 74.3487ZM55.2702 89.5335L54.9965 88.3157L54.8543 87.6846C54.6595 87.6238 54.4648 87.5573 54.27 87.4909L54.4122 88.1164L54.7596 89.6609C54.849 90.0595 54.7596 90.4746 54.5175 90.8012C54.2753 91.1223 53.9069 91.3105 53.5174 91.3105H14.9723C14.3775 91.3105 13.8669 90.8843 13.7301 90.2809L7.89805 64.5227L7.77175 63.9691L7.64544 63.4045C7.55596 63.0059 7.64544 62.5852 7.88753 62.2641C8.12969 61.9375 8.49816 61.7548 8.88759 61.7548H11.5351L11.4194 61.2012H8.88759C8.33489 61.2012 7.81909 61.4615 7.47166 61.9209C7.12949 62.3804 7.00845 62.9671 7.13475 63.5318L7.23476 63.9747L7.36106 64.5227L13.2194 90.4082C13.4089 91.2662 14.1299 91.8641 14.9721 91.8641H53.5173C53.5436 91.8641 53.5647 91.8641 53.591 91.8586C54.1173 91.842 54.6016 91.5762 54.9279 91.1444C55.2755 90.685 55.3965 90.0982 55.2702 89.5335ZM41.6954 61.2012H41.1533L41.2849 61.7547H41.827L41.6954 61.2012ZM25.5172 61.2012H25.5152C25.3441 61.2012 25.2186 61.3702 25.2601 61.5447L25.2602 61.5453C25.2895 61.6684 25.3947 61.7547 25.5153 61.7547H25.5174C25.6894 61.7547 25.8152 61.5838 25.7719 61.4086L25.7717 61.408C25.7415 61.2863 25.6369 61.2012 25.5172 61.2012Z" fill="#231F20"/>
<path d="M27.1141 83.2875L25.3455 75.4487C25.2718 75.1111 24.9823 74.873 24.6507 74.873H13.3972C13.1814 74.873 12.9761 74.9782 12.8392 75.1609C12.7077 75.3381 12.655 75.5706 12.7077 75.7975L14.4815 83.6363C14.5605 83.9739 14.8447 84.212 15.1763 84.212H26.4192C26.6403 84.212 26.8403 84.1068 26.9772 83.9297C27.1141 83.747 27.1614 83.5144 27.1141 83.2875ZM26.5667 83.5864C26.5456 83.6141 26.4982 83.6584 26.4193 83.6584H15.1763C15.0868 83.6584 15.0131 83.5975 14.9921 83.5089L14.8079 82.6841L14.6816 82.1471L13.2183 75.6701C13.2025 75.5871 13.2341 75.5318 13.2551 75.504C13.2762 75.4709 13.3236 75.4265 13.3973 75.4265H24.6508C24.7403 75.4265 24.814 75.4874 24.835 75.576L25.5877 78.9307L25.7667 79.7113L26.5983 83.4148C26.6193 83.4978 26.5878 83.5587 26.5667 83.5864Z" fill="#231F20"/>
<path d="M26.5674 83.5865C26.5463 83.6142 26.4989 83.6585 26.42 83.6585H15.1771C15.0876 83.6585 15.0139 83.5976 14.9928 83.509L14.8086 82.6841C16.3456 82.1693 18.8668 79.6062 19.6143 78.8146L21.0986 80.8518L23.883 78.416L25.7674 79.7113L26.599 83.4148C26.62 83.4979 26.5885 83.5588 26.5674 83.5865Z" fill="#231F20"/>
<path d="M15.7911 72.288H12.2495C12.1042 72.288 11.9863 72.1641 11.9863 72.0112C11.9863 71.8584 12.1041 71.7344 12.2495 71.7344H15.7911C15.9365 71.7344 16.0543 71.8583 16.0543 72.0112C16.0543 72.164 15.9365 72.288 15.7911 72.288Z" fill="#231F20"/>
<path d="M32.3631 72.288H18.5318C18.3864 72.288 18.2686 72.1641 18.2686 72.0112C18.2686 71.8584 18.3864 71.7344 18.5318 71.7344H32.363C32.5083 71.7344 32.6262 71.8583 32.6262 72.0112C32.6262 72.164 32.5084 72.288 32.3631 72.288Z" fill="#231F20"/>
<path d="M33.6067 76.3974H27.1323C26.987 76.3974 26.8691 76.2735 26.8691 76.1206C26.8691 75.9677 26.9869 75.8438 27.1323 75.8438H33.6067C33.752 75.8438 33.8699 75.9677 33.8699 76.1206C33.8699 76.2735 33.7521 76.3974 33.6067 76.3974Z" fill="#231F20"/>
<path d="M34.7396 79.5771H28.0571C27.9118 79.5771 27.7939 79.4532 27.7939 79.3003C27.7939 79.1474 27.9117 79.0234 28.0571 79.0234H34.7396C34.885 79.0234 35.0028 79.1473 35.0028 79.3003C35.0028 79.4532 34.885 79.5771 34.7396 79.5771Z" fill="#231F20"/>
<path d="M38.5494 83.9814H29.4468C29.3015 83.9814 29.1836 83.8575 29.1836 83.7045C29.1836 83.5517 29.3014 83.4277 29.4468 83.4277H38.5493C38.6946 83.4277 38.8125 83.5516 38.8125 83.7045C38.8125 83.8574 38.6947 83.9814 38.5494 83.9814Z" fill="#231F20"/>
<path d="M39.2195 87.6103H15.8023C15.6569 87.6103 15.5391 87.4864 15.5391 87.3334C15.5391 87.1806 15.6569 87.0566 15.8023 87.0566H39.2195C39.3648 87.0566 39.4827 87.1805 39.4827 87.3334C39.4827 87.4864 39.3648 87.6103 39.2195 87.6103Z" fill="#231F20"/>
<path d="M48.6419 87.6103H42.3716C42.2263 87.6103 42.1084 87.4864 42.1084 87.3334C42.1084 87.1806 42.2262 87.0566 42.3716 87.0566H48.6419C48.7872 87.0566 48.9051 87.1805 48.9051 87.3334C48.905 87.4864 48.7872 87.6103 48.6419 87.6103Z" fill="#231F20"/>
<path d="M26.1411 79.3171L25.8568 79.7765L25.7673 79.7157L23.8829 78.4204L21.0985 80.8561L19.6142 78.8189C18.8667 79.6106 16.3455 82.1737 14.8085 82.6885C14.7138 82.7217 14.6243 82.7439 14.5348 82.7605L14.4453 82.218C14.519 82.2069 14.5979 82.1848 14.6821 82.1515C16.0401 81.6754 18.5456 79.1843 19.4509 78.2045L19.6667 77.9775L21.1826 80.059L23.846 77.7285L25.5883 78.9353L26.1411 79.3171Z" fill="#231F20"/>
<path d="M16.0552 78.3647C16.7151 78.3647 17.2501 77.9525 17.2501 77.4441C17.2501 76.9356 16.7151 76.5234 16.0552 76.5234C15.3953 76.5234 14.8604 76.9356 14.8604 77.4441C14.8604 77.9525 15.3953 78.3647 16.0552 78.3647Z" fill="#231F20"/>
<path d="M68.0591 9.52539H45.2099C44.0993 9.52539 43.1992 10.4775 43.1992 11.6456V26.5924C43.1992 27.7549 44.0993 28.707 45.2099 28.707H68.0591C69.1697 28.707 70.075 27.7549 70.075 26.5924V11.6456C70.075 10.4775 69.1697 9.52539 68.0591 9.52539ZM69.5486 26.5924C69.5486 27.4504 68.8802 28.1534 68.0591 28.1534H45.2099C44.3888 28.1534 43.7256 27.4504 43.7256 26.5924V11.6456C43.7256 10.7821 44.3888 10.079 45.2099 10.079H68.0591C68.8802 10.079 69.5486 10.7821 69.5486 11.6456V26.5924Z" fill="#231F20"/>
<path d="M61.2893 6.83594H52.1728C51.478 6.83594 50.9043 7.43374 50.9043 8.17006V10.0799H62.5578V8.17006C62.5578 7.43374 61.9893 6.83594 61.2893 6.83594ZM51.4306 9.52632V8.17006C51.4306 7.73829 51.7675 7.38949 52.1728 7.38949H61.2893C61.6998 7.38949 62.0315 7.73829 62.0315 8.17006V9.52632H51.4306Z" fill="#231F20"/>
<path d="M71.1476 30.7314H58.0298C57.8845 30.7314 57.7666 30.6075 57.7666 30.4546C57.7666 30.3017 57.8844 30.1778 58.0298 30.1778H71.1479C71.6281 30.1778 72.0174 29.7684 72.0174 29.2633V23.1499C72.0174 22.997 72.1352 22.873 72.2806 22.873C72.4259 22.873 72.5438 22.9969 72.5438 23.1499V29.2631C72.5436 30.074 71.9186 30.7314 71.1476 30.7314Z" fill="#231F20"/>
<path d="M42.9727 4.35156C40.504 4.35156 38.5039 6.4552 38.5039 9.05154C38.5039 11.6479 40.5041 13.7514 42.9727 13.7514C43.0463 13.7514 43.1253 13.7514 43.199 13.7459C43.3779 13.7348 43.5516 13.7183 43.7253 13.6851C45.5149 13.3695 46.9413 11.9302 47.3308 10.0813C47.373 9.89858 47.3993 9.71588 47.4203 9.52772C47.4361 9.37268 47.4414 9.21219 47.4414 9.05162C47.4414 6.4552 45.4412 4.35156 42.9727 4.35156ZM42.3305 11.0942L40.2513 8.20443L40.6725 7.86677L42.4042 10.2804L45.4307 7.39627L45.7833 7.80592L42.3305 11.0942Z" fill="#231F20"/>
<path d="M93.8362 13.7754C89.1358 13.7754 85.3145 17.7944 85.3145 22.7379C85.3145 25.1737 86.1724 26.4192 86.9988 27.6316C87.5358 28.4176 88.0463 29.165 88.2884 30.2223C89.2411 34.4571 89.9517 36.129 90.9517 36.7601C91.4097 37.0535 91.9307 37.1254 92.5624 37.1254C92.7256 37.1254 92.894 37.1199 93.0729 37.1143C93.5467 37.0921 94.1257 37.0921 94.5994 37.1143C95.4732 37.1475 96.1469 37.1254 96.7259 36.7545C97.7259 36.1234 98.4366 34.446 99.384 30.2222C99.6261 29.1648 100.137 28.4175 100.674 27.6315C101.5 26.4191 102.358 25.1736 102.358 22.7378C102.358 17.7944 98.5366 13.7754 93.8362 13.7754ZM100.216 27.2828C99.6682 28.0855 99.0998 28.9159 98.8366 30.084C97.3681 36.6273 96.5628 36.6052 94.6204 36.5221C94.1309 36.4999 93.5414 36.4999 93.0519 36.5221C91.1097 36.6052 90.3044 36.6273 88.8358 30.084C88.5726 28.916 88.0042 28.0856 87.4567 27.2828C86.6777 26.1535 85.8777 24.9799 85.8777 22.7379C85.8777 18.121 89.4464 14.3677 93.8362 14.3677C98.226 14.3677 101.795 18.121 101.795 22.7379C101.795 24.9799 100.995 26.1535 100.216 27.2828Z" fill="#231F20"/>
<path d="M96.7256 36.7514C96.6151 36.7237 96.5046 36.707 96.3888 36.707H91.2936C91.1725 36.707 91.062 36.7236 90.9514 36.7569C90.3777 36.9119 89.9619 37.4544 89.9619 38.1021C89.9619 38.5505 90.1619 38.949 90.4777 39.2037C90.704 39.3864 90.983 39.4971 91.2936 39.4971H96.3888C96.6941 39.4971 96.9783 39.3864 97.1993 39.2037C97.5151 38.949 97.7151 38.5505 97.7151 38.1021C97.7151 37.4544 97.2941 36.9119 96.7256 36.7514ZM91.2936 38.9048C90.8673 38.9048 90.5251 38.5449 90.5251 38.1021C90.5251 37.6592 90.8673 37.2994 91.2936 37.2994H96.3888C96.8098 37.2994 97.152 37.6592 97.152 38.1021C97.152 38.5449 96.8099 38.9048 96.3888 38.9048H91.2936Z" fill="#231F20"/>
<path d="M97.1993 39.2091C96.9783 39.0209 96.6941 38.9102 96.3888 38.9102H91.2936C90.9831 38.9102 90.7041 39.0209 90.4777 39.2091C90.1619 39.4583 89.9619 39.8623 89.9619 40.3107C89.9619 41.0802 90.5567 41.7058 91.2936 41.7058H96.3888C97.1204 41.7058 97.7151 41.0802 97.7151 40.3107C97.7151 39.8568 97.5151 39.4583 97.1993 39.2091ZM96.3888 41.1134H91.2936C90.8673 41.1134 90.5251 40.7536 90.5251 40.3107C90.5251 39.8624 90.8673 39.5025 91.2936 39.5025H96.3888C96.8098 39.5025 97.152 39.8623 97.152 40.3107C97.152 40.7536 96.8098 41.1134 96.3888 41.1134Z" fill="#231F20"/>
<path d="M96.4021 42.9538H91.2751C91.223 42.9538 91.1807 42.9094 91.1807 42.8545V41.5016C91.1807 41.4468 91.2229 41.4023 91.2751 41.4023H96.4021C96.4542 41.4023 96.4965 41.4467 96.4965 41.5016V42.8545C96.4965 42.9093 96.4543 42.9538 96.4021 42.9538Z" fill="#231F20"/>
<path d="M91.8081 63.009C91.6625 63.009 91.6063 62.8636 91.5961 62.7779C91.5914 62.7376 91.5778 62.5342 91.7817 62.4799C92.5864 62.2652 93.2709 61.8061 93.761 61.1522C94.1084 60.6889 94.2867 60.2837 94.3226 59.8768C94.3445 59.6254 94.3141 59.3778 94.2848 59.1387C94.2659 58.9855 94.2481 58.8409 94.2432 58.6962C94.1999 57.408 94.9053 56.0989 95.9983 55.4386C96.1113 55.3702 96.2509 55.3173 96.3987 55.2613C96.6604 55.1621 96.9308 55.0596 97.1177 54.8491C97.4753 54.447 97.3208 53.8218 96.9939 53.4377C96.5678 52.9372 95.8299 52.5856 94.8005 52.3927C94.4561 52.3283 94.1034 52.2955 93.7521 52.2955C92.5802 52.2955 91.4276 52.6516 90.4189 53.3251C90.378 53.3524 90.3388 53.3662 90.3021 53.3662C90.203 53.3662 90.1297 53.264 90.1034 53.169C90.0895 53.1185 90.0564 52.9456 90.2163 52.8387C91.2508 52.148 92.4991 51.7676 93.7311 51.7676C94.0346 51.7676 94.3391 51.7904 94.6359 51.8355C95.6268 51.9857 97.3479 52.4352 97.7413 53.7579C97.9158 54.345 97.7751 54.9523 97.3831 55.3053C97.1557 55.5099 96.8882 55.6344 96.6047 55.7663C96.2705 55.922 95.9247 56.0828 95.6348 56.3872C95.112 56.9362 94.7888 57.6798 94.7481 58.4273C94.7327 58.7069 94.754 58.9737 94.7743 59.2317C94.8107 59.6902 94.8451 60.1231 94.6706 60.5718C94.2202 61.7297 93.1502 62.66 91.8781 62.9993C91.8536 63.0057 91.83 63.009 91.8081 63.009Z" fill="#231F20"/>
<path d="M89.4233 56.8523C89.398 56.8523 89.3713 56.8481 89.3438 56.8397C87.6814 56.3319 85.9436 56.2063 84.263 56.0851C83.4948 56.0297 82.7003 55.9723 81.9258 55.8791C80.6754 55.7286 79.6859 55.5145 78.8124 55.2053C77.9609 54.9042 76.9009 54.4609 76.255 53.6978C75.801 53.1613 75.502 52.2537 75.9184 51.5284C76.3874 50.7113 77.5006 50.4684 78.418 50.348C79.1412 50.2531 79.9229 50.2051 80.7417 50.2051C82.0881 50.2051 83.5577 50.3308 85.2344 50.5895C87.605 50.9552 89.0433 51.4713 90.968 52.466C91.0592 52.5132 91.0939 52.5803 91.0737 52.6715C91.0475 52.7905 90.9282 52.919 90.7817 52.919C90.7402 52.919 90.6983 52.9082 90.6574 52.8871C88.7063 51.8788 87.1863 51.3726 84.681 51.0407C83.0991 50.8309 81.8225 50.7332 80.6635 50.7332C79.9143 50.7332 79.2037 50.7759 78.5515 50.86C77.9683 50.9352 76.8828 51.0751 76.4277 51.6912C76.2613 51.9164 76.1954 52.1828 76.2319 52.4825C76.3672 53.5926 77.6324 54.1468 78.312 54.4444C80.2865 55.3091 82.4299 55.4605 84.5026 55.607C86.1692 55.7248 87.8927 55.8464 89.5089 56.3402C89.6713 56.3898 89.6784 56.5237 89.6682 56.599C89.6516 56.7218 89.5601 56.8523 89.4233 56.8523Z" fill="#231F20"/>
<path d="M84.0797 64.8841C83.2931 64.8841 82.5127 64.7533 81.7603 64.4953C81.6474 64.4567 81.5352 64.4146 81.4232 64.3703C77.6028 62.8481 79.1497 56.3982 79.4475 55.2891L79.929 55.4444C79.6557 56.4875 78.2346 62.5345 81.6015 63.876C82.3989 64.1953 83.2276 64.3573 84.0638 64.3573C85.3552 64.3573 86.4135 63.9756 87.0739 63.6553C88.4138 63.0055 89.4625 61.9678 89.8108 60.9474C90.2871 59.5515 90.1206 59.3177 89.5689 58.8473C89.3796 58.6856 89.1489 58.4884 88.9248 58.2065C88.2405 57.3462 88.1995 56.7058 88.2282 56.4203L88.7256 56.5908C88.7372 56.8115 88.8297 57.263 89.31 57.8674C89.5061 58.1134 89.7075 58.2852 89.8853 58.4367C90.5174 58.9757 90.875 59.394 90.2841 61.126C89.8921 62.2749 88.7426 63.4282 87.2843 64.1355C86.2597 64.6323 85.1814 64.8841 84.0797 64.8841Z" fill="#231F20"/>
<path d="M83.0568 69.4647C82.6854 69.4647 82.3051 69.4399 81.9265 69.3911L81.9173 69.3898H81.908C81.9016 69.3889 81.8914 69.3852 81.8827 69.3827L81.8563 69.3756L81.8464 69.3744C81.5244 69.335 81.1973 69.2608 80.8744 69.1537L80.8644 69.1504L80.8541 69.1485C80.83 69.1443 80.8057 69.1406 80.7816 69.1322C78.5876 68.3731 77.784 66.5012 77.5003 65.453C77.3867 65.0397 77.3179 64.6138 77.2953 64.1867C77.2791 63.9314 77.2806 63.7198 77.2999 63.5375C77.4406 62.0245 78.6952 58.8244 78.909 58.2876L79.3643 58.4944C79.1099 59.1422 78.8755 59.7773 78.6664 60.3836L78.6464 60.4053L78.6436 60.4458C78.1419 61.8914 77.8562 62.9462 77.7945 63.5813C77.653 65.1151 78.4911 68.4245 81.9848 68.8702C82.338 68.9147 82.6927 68.9373 83.0389 68.9373C83.039 68.9373 83.0392 68.9373 83.0393 68.9373C85.9735 68.9372 88.067 67.3669 89.0479 65.8975C89.3105 65.5055 89.5691 65.1676 89.8093 64.861C89.8751 64.7768 89.9385 64.6982 89.9995 64.6221C90.1634 64.4184 90.3182 64.226 90.4607 64.0011C90.4783 63.9765 90.4938 63.9464 90.5048 63.9147C90.5907 63.7741 90.6746 63.6346 90.7521 63.4852H90.8124L90.8165 63.3596C91.049 62.8431 91.1848 62.2998 91.2434 61.6529L91.2959 61.083C91.4641 59.1313 91.6228 57.2888 92.9526 57.0276C93.035 57.0118 93.1147 57.0039 93.1888 57.0039C93.6644 57.0039 93.8292 57.329 93.878 57.4688C94.12 58.1478 93.5338 59.2881 92.6326 60.0007C92.5141 60.0944 92.3437 60.0571 92.2692 59.9223C92.2062 59.8082 92.2335 59.6619 92.3345 59.5835C92.6552 59.3345 93.3015 58.7507 93.4087 58.0201C93.444 57.7793 93.4113 57.6613 93.3961 57.6302L93.3754 57.5869L93.3351 57.5634C93.3099 57.5485 93.2631 57.5308 93.1829 57.5308C93.1404 57.5308 93.0925 57.5359 93.0404 57.5456C92.3509 57.6798 92.113 58.542 91.9829 59.4036L91.9733 59.3864L91.9172 59.8519C91.8858 60.1126 91.8618 60.3842 91.8363 60.672C91.8233 60.819 91.81 60.9682 91.7955 61.1181L91.7429 61.7003C91.7267 61.9148 91.7005 62.0987 91.6623 62.2649L91.6581 62.2833V62.294C91.6107 62.5768 91.5453 62.8277 91.4638 63.0398L91.4528 63.0684V63.0803C91.3715 63.3477 91.2539 63.6113 91.0739 63.9319C91.0611 63.9515 91.0453 63.9786 91.0295 64.0058C91.0196 64.0228 91.0098 64.04 90.9993 64.0571C90.9763 64.0828 90.9652 64.1109 90.9597 64.129C90.7446 64.4863 90.4992 64.8144 90.198 65.1955C90.1964 65.1965 90.1883 65.2072 90.1805 65.2181C89.9551 65.4998 89.7566 65.7672 89.5656 66.0456C89.5504 66.0693 89.5376 66.0883 89.5243 66.1077C89.5019 66.1406 89.4786 66.1753 89.4552 66.214C88.3997 67.782 86.1612 69.4647 83.0568 69.4647Z" fill="#231F20"/>
<path d="M91.3424 68.2677C90.8404 67.9488 90.6411 67.2293 90.5625 66.6726C90.3926 65.4727 90.6415 64.0329 90.9069 63.5977L91.1239 63.6912C90.6987 64.9793 90.8318 67.2332 91.7609 68.1581L91.3424 68.2677Z" fill="#231F20"/>
</g>
<defs>
<clipPath id="clip0_480_18560">
<rect width="116" height="122" fill="white"/>
</clipPath>
</defs>
</svg>
