<svg width="1320" height="179" viewBox="0 0 1320 179" fill="none" xmlns="http://www.w3.org/2000/svg">
<path fill-rule="evenodd" clip-rule="evenodd" d="M1164.99 178.814C1164.77 179.15 1164.32 179.246 1163.99 179.028C1163.65 178.809 1163.55 178.36 1163.77 178.024C1183.41 147.767 1198.99 138.021 1211.27 138.083C1223.65 138.145 1232.56 148.095 1238.89 157.146C1244.23 164.781 1247.59 168.743 1249.37 170.105C1249.74 170.384 1249.9 170.474 1249.9 170.415C1249.88 169.508 1249.33 167.791 1248.34 165.548C1244.86 157.602 1236.19 143.606 1226.86 135.525C1222.62 131.855 1218.97 127.959 1217.64 123.003C1216.32 118.037 1217.36 112.09 1222.53 104.391C1223.97 102.24 1225.56 100.084 1227.19 97.8678C1234.21 88.3216 1242.07 77.6433 1241.39 63.484C1241.36 62.8644 1241.32 62.26 1241.29 61.7293C1241.16 59.6984 1241.08 58.6067 1241.91 58.108C1242.77 57.5895 1244.08 58.2343 1246.93 59.6282L1247.35 59.8337C1259.85 65.9541 1272.24 67.4407 1283.1 65.4228C1291.96 63.7747 1299.8 59.7867 1305.83 54.0771C1311.85 48.3747 1316.06 40.9525 1317.68 32.4287C1319.41 23.3381 1318.2 12.9846 1313.1 2.11169L1241.75 57.1221C1241.61 57.2322 1241.44 57.2812 1241.27 57.2726L1200.99 55.1686C1200.59 55.1483 1200.28 54.8068 1200.3 54.4063C1200.32 54.0058 1200.66 53.6975 1201.06 53.718L1241.08 55.8084L1312.9 0.429509C1312.95 0.391677 1313 0.35886 1313.05 0.332106C1313.41 0.157785 1313.85 0.309327 1314.02 0.67051C1319.6 12.1372 1320.94 23.0892 1319.11 32.696C1317.43 41.531 1313.07 49.222 1306.83 55.1295C1300.6 61.0297 1292.51 65.1498 1283.36 66.8508C1272.22 68.9222 1259.51 67.4035 1246.71 61.1369L1246.29 60.9314C1243.93 59.7758 1242.84 59.2413 1242.66 59.3488C1242.6 59.3891 1242.65 60.1756 1242.74 61.6385C1242.78 62.1412 1242.81 62.7125 1242.85 63.4162C1243.55 78.0897 1235.53 88.9863 1228.36 98.7273C1226.73 100.943 1225.14 103.099 1223.73 105.199C1218.84 112.497 1217.83 118.053 1219.05 122.634C1220.28 127.226 1223.76 130.921 1227.81 134.428C1237.32 142.659 1246.14 156.892 1249.68 164.969C1250.73 167.377 1251.33 169.284 1251.36 170.382C1251.4 172.327 1250.51 172.804 1248.49 171.261C1246.6 169.82 1243.14 165.75 1237.7 157.977C1231.57 149.22 1223 139.593 1211.27 139.534C1199.44 139.474 1184.3 149.06 1164.99 178.814ZM1189.22 53.0989L1151.13 51.1088C1150.78 51.0913 1150.48 51.3183 1150.39 51.6379C1147.84 60.6746 1148.57 64.708 1149.07 67.4102C1149.6 70.3111 1149.82 71.4891 1143.91 77.025C1139.11 81.5185 1138.75 83.4429 1139.93 84.7066C1140.42 85.2181 1141.11 85.5304 1141.86 85.8648C1143.47 86.5844 1145.38 87.4389 1143.7 91.1952C1143.06 92.6221 1142.74 93.5794 1143.25 94.5388L1143.28 94.5875C1143.68 95.2886 1144.54 95.8479 1146.1 96.4603C1144.21 98.8013 1144.71 99.1832 1145.74 99.9783C1146.45 100.528 1147.66 101.458 1146.28 106.983C1144.8 112.901 1146.52 115.131 1149.93 115.983C1151.79 116.448 1154.16 116.441 1156.78 116.432C1165.22 116.406 1176.43 116.371 1179.54 133.306C1180.96 141.063 1172.02 158.994 1167.72 167.628L1167.28 168.498C1167.11 168.858 1167.25 169.294 1167.61 169.471C1167.98 169.649 1168.41 169.501 1168.59 169.141L1169.02 168.277C1173.4 159.503 1182.48 141.283 1180.97 133.044C1177.64 114.916 1165.74 114.953 1156.78 114.982C1154.26 114.989 1151.99 114.996 1150.28 114.572C1147.74 113.937 1146.48 112.157 1147.69 107.336C1149.31 100.889 1147.63 99.595 1146.63 98.8287C1146.34 98.609 1146.22 98.515 1147.87 96.6173C1147.93 96.5485 1147.98 96.467 1148.01 96.3753C1148.14 95.9967 1147.94 95.5827 1147.56 95.4508C1145.73 94.8126 1144.83 94.3609 1144.55 93.879L1144.53 93.8501C1144.32 93.4561 1144.57 92.8046 1145.03 91.7865C1147.3 86.7071 1144.67 85.5302 1142.45 84.5388C1141.85 84.2671 1141.28 84.0133 1140.99 83.7106C1140.4 83.083 1140.96 81.7758 1144.9 78.083C1151.39 72.0077 1151.13 70.6046 1150.5 67.1485C1150.04 64.6369 1149.36 60.9137 1151.64 52.5897L1189.14 54.5493C1189.54 54.5698 1189.88 54.2615 1189.91 53.861C1189.93 53.4607 1189.62 53.1194 1189.22 53.0989Z" fill="black" fill-opacity="0.5"/>
<path fill-rule="evenodd" clip-rule="evenodd" d="M1161.59 178C1163.47 178 1165 178.224 1165 178.5C1165 178.776 1163.47 179 1161.59 179H0V178H1161.59Z" fill="black" fill-opacity="0.5"/>
</svg>
