<svg width="97" height="147" viewBox="0 0 97 147" fill="none" xmlns="http://www.w3.org/2000/svg">
<path fill-rule="evenodd" clip-rule="evenodd" d="M51.2254 146.149C50.835 146.247 50.438 146.012 50.3389 145.622C50.2398 145.233 50.4759 144.837 50.8664 144.737C55.4301 143.578 58.9128 140.677 61.1056 137.003C62.7901 134.181 63.7174 130.903 63.7939 127.604C63.8701 124.312 63.0982 121 61.3849 118.104C59.2336 114.467 55.5878 111.477 50.2608 109.989C49.8735 109.882 49.6462 109.482 49.7532 109.096C49.8108 108.888 49.9531 108.727 50.1328 108.638C54.4983 106.486 55.7464 102.051 57.0156 97.5414C57.569 95.5746 58.1267 93.5933 58.9438 91.7405C62.4716 83.7406 65.274 81.4663 70.6398 77.1124C73.7032 74.6268 77.6204 71.448 83.027 66.0662C91.6705 57.4626 95.072 47.8585 94.5464 38.7607C94.1664 32.1794 91.7308 25.851 87.7392 20.3496C83.7355 14.8317 78.1686 10.1479 71.5391 6.874C59.8253 1.08943 44.7964 -0.296149 29.1987 5.87824C13.9854 11.9007 5.21059 23.8402 2.42705 34.4669C1.4865 38.058 1.23302 41.4916 1.64967 44.4839C2.05878 47.4206 3.11308 49.9225 4.79497 51.7117C7.15788 54.2252 10.8095 55.3532 15.7096 54.3219C20.8256 53.2453 23.1909 47.6444 25.7637 41.5513C30.2469 30.9339 35.3282 18.9011 56.1083 24.3473C58.7071 25.0283 61.4263 26.4164 63.7465 28.3843C65.9295 30.2355 67.7664 32.6027 68.8301 35.3811C69.8985 38.1713 70.1871 41.3693 69.2662 44.868C68.4713 47.8888 66.7722 51.1286 63.8892 54.513C60.3679 58.6465 56.4372 62.0895 52.6115 65.4398C44.4352 72.6008 36.7468 79.3343 34.8778 91.4862C34.3244 95.0846 34.3388 99.0825 35.5521 102.43C36.5023 105.051 38.197 107.28 40.9481 108.594C41.31 108.767 41.4634 109.2 41.2901 109.561C41.1961 109.757 41.0251 109.892 40.8307 109.946L40.8312 109.948C35.9114 111.331 32.4156 113.898 30.2004 117.041C28.2106 119.865 27.2468 123.159 27.2072 126.479C27.1674 129.81 28.0568 133.17 29.7726 136.112C31.8465 139.667 35.1309 142.607 39.4417 144.138C39.8211 144.272 40.0203 144.687 39.8864 145.066C39.7528 145.444 39.3363 145.643 38.957 145.509C34.3001 143.855 30.7524 140.68 28.5126 136.84C26.6669 133.676 25.7105 130.056 25.7532 126.462C25.7961 122.856 26.8446 119.276 29.0087 116.205C31.1554 113.159 34.3939 110.618 38.8296 109.056C36.5538 107.537 35.0737 105.381 34.1832 102.924C32.8756 99.317 32.8509 95.0692 33.4351 91.2698C35.3845 78.596 43.2688 71.6907 51.6534 64.3473C55.4336 61.0366 59.3177 57.6344 62.7768 53.5739C65.5109 50.3642 67.1153 47.3184 67.8577 44.4979C68.6937 41.3214 68.4338 38.4232 67.467 35.8987C66.4961 33.3626 64.8111 31.1947 62.8054 29.4937C60.6521 27.6675 58.1361 26.381 55.7374 25.7525C36.1774 20.6261 31.3567 32.0414 27.1035 42.1146C24.3763 48.5733 21.8695 54.5105 16.006 55.7443C10.5518 56.8922 6.44001 55.5857 3.73419 52.7073C1.83905 50.6915 0.657171 47.9149 0.207005 44.6831C-0.235202 41.507 0.0291632 37.8802 1.01852 34.1028C3.90093 23.0988 12.9644 10.7442 28.6626 4.52987C44.6811 -1.81111 60.1311 -0.380593 72.1832 5.57099C79.0292 8.95185 84.7804 13.7919 88.9192 19.496C93.07 25.2166 95.603 31.8107 96 38.6811C96.5482 48.1716 93.0212 58.1693 84.0533 67.0959C78.5985 72.5255 74.6475 75.7316 71.5577 78.2388C66.3738 82.4453 63.6665 84.6423 60.2776 92.3264C59.4998 94.0905 58.9568 96.0189 58.418 97.9337C57.2045 102.246 56.0084 106.494 52.2332 109.089C57.1094 110.81 60.5298 113.798 62.639 117.364C64.4937 120.5 65.3295 124.078 65.2474 127.632C65.1653 131.179 64.1669 134.704 62.3539 137.742C59.9711 141.736 56.1859 144.888 51.2254 146.149Z" fill="black" fill-opacity="0.5"/>
</svg>
