<svg width="50" height="50" viewBox="0 0 50 50" fill="none" xmlns="http://www.w3.org/2000/svg">
<path d="M9.79559 31.1289C15.5104 31.1289 21.1289 31.1289 26.8906 31.1289C27.2461 29.4101 27.6966 27.694 27.9427 25.9505C28.4805 22.151 28.2565 18.3841 27.1003 14.7057C26.7839 13.7005 26.3672 12.7278 25.9805 11.7461C25.7604 11.1888 25.8581 10.7695 26.2865 10.5872C26.7031 10.4101 27.0651 10.5989 27.3112 11.1367C29.0664 14.9622 29.8021 18.9856 29.6602 23.1849C29.5729 25.7513 29.1537 28.2617 28.4349 30.7239C28.3985 30.8463 28.3724 30.9726 28.3294 31.151C29.0573 31.151 29.7526 31.1692 30.444 31.1341C30.5664 31.1276 30.75 30.9166 30.7813 30.7721C31.1849 28.9166 31.7005 27.0729 31.9258 25.194C32.4688 20.6679 31.8763 16.2708 30.0313 12.0742C29.9011 11.7773 29.7552 11.4856 29.6263 11.1875C29.4141 10.694 29.5352 10.2994 29.9505 10.1146C30.336 9.94138 30.7136 10.1015 30.9375 10.5599C32.0755 12.8815 32.8464 15.3203 33.2474 17.8763C33.28 18.0846 33.3177 18.2929 33.3633 18.5521C34.5117 18.5521 35.6667 18.4869 36.8099 18.5742C37.6628 18.6393 38.2136 18.289 38.7396 17.7031C40.6068 15.625 40.6771 12.4987 38.8854 10.3229C37.1458 8.21221 34.0573 7.69789 31.6953 9.12497C31.0625 9.50778 30.6302 9.48825 30.3802 9.06638C30.1276 8.64059 30.3112 8.24737 30.9414 7.86586C33.8216 6.11716 37.5313 6.63929 39.8008 9.11325C42.0768 11.595 42.3021 15.3346 40.3373 18.0638C40.237 18.2044 40.1341 18.3437 39.9818 18.5521C41.1003 18.5521 42.1328 18.5508 43.1667 18.5521C44.7109 18.5547 45.4805 19.6705 44.9245 21.1041C44.5781 21.9974 44.2292 22.8906 43.8724 23.7799C43.5287 24.6367 42.9987 24.9948 42.0768 24.9974C39.8503 25.0013 37.625 25 35.3984 24.9974C34.7943 24.9961 34.4636 24.7174 34.4779 24.2409C34.4922 23.7864 34.8125 23.5351 35.3998 23.5351C37.5768 23.5325 39.7539 23.526 41.931 23.5416C42.28 23.5442 42.457 23.4349 42.5768 23.1054C42.888 22.2513 43.2383 21.4101 43.5638 20.5612C43.7279 20.1341 43.6589 20.0195 43.2188 20.0195C40.0664 20.0156 36.9141 20.0182 33.7617 20.0195C33.6992 20.0195 33.638 20.0325 33.5117 20.0481C33.7591 23.8086 33.3451 27.4869 32.2227 31.0989C32.4232 31.151 32.5925 31.1875 32.7578 31.2396C33.6432 31.5234 34.1185 32.3997 33.8802 33.3359C33.7292 33.931 33.5521 34.5182 33.3802 35.1341C36.2852 35.1341 39.1393 35.1341 42.0261 35.1341C41.75 33.4739 41.4805 31.8398 41.207 30.207C41.0052 29.0052 40.7969 27.8034 40.5964 26.6002C40.5156 26.1172 40.7448 25.7474 41.1589 25.6718C41.6094 25.5898 41.9427 25.8372 42.0326 26.3619C42.4896 29.0377 42.9375 31.7161 43.388 34.3932C43.4284 34.6328 43.474 34.8711 43.5195 35.1276C44.1016 35.2435 44.6029 35.4856 44.8997 36.026C45.1758 36.5286 45.1862 37.0429 44.9727 37.5755C44.6393 38.4036 44.3229 39.2396 44.0117 40.0403C44.3607 40.2304 44.7865 40.3398 45.0078 40.6146C45.2852 40.9583 45.5339 41.4323 45.5521 41.8593C45.6159 43.4036 45.5964 44.9518 45.5716 46.4974C45.5547 47.5742 44.8425 48.2409 43.7604 48.2422C41.0964 48.2474 38.431 48.2461 35.7656 48.2422C35.1953 48.2422 34.8672 47.9674 34.8659 47.5117C34.8646 47.056 35.194 46.7799 35.763 46.7799C38.3464 46.7773 40.9297 46.7669 43.513 46.789C43.9896 46.7929 44.1328 46.6393 44.125 46.1758C44.1016 44.8255 44.1107 43.4739 44.1211 42.1224C44.1237 41.7643 44.0287 41.5937 43.6263 41.595C40.6198 41.608 37.6146 41.6015 34.6081 41.6028C34.513 41.6028 34.4193 41.6185 34.2708 41.6315C34.2708 42.2643 34.2708 42.8776 34.2708 43.4909C34.2708 44.4518 34.28 45.4114 34.2682 46.3724C34.2539 47.5703 33.5729 48.2422 32.3802 48.2435C23.7357 48.2448 15.0925 48.2448 6.44793 48.2435C5.22267 48.2435 4.54168 47.5755 4.53647 46.3489C4.52736 44.233 4.53126 42.1172 4.53387 40.0013C4.53517 38.776 4.98439 38.2226 6.22918 37.9492C5.89454 36.7682 5.56121 35.5898 5.22658 34.4114C5.12501 34.0521 5.01043 33.6953 4.92059 33.3333C4.63543 32.1927 5.40757 31.0924 6.57033 31.1823C7.59507 31.2617 8.16928 30.8372 8.77345 30.082C11.7305 26.388 14.7461 22.7396 17.7396 19.0755C17.8399 18.9518 17.9323 18.8229 18.0612 18.6523C16.8151 18.2213 15.5964 17.8307 14.4037 17.3724C13.7669 17.1276 13.1992 17.0911 12.5391 17.3229C11.569 17.664 10.5508 17.7825 9.51564 17.5794C7.94272 17.2708 6.80861 15.8177 6.92449 14.2174C6.97397 13.5364 7.3685 13.0976 7.94923 12.7799C10.4141 11.4336 12.8737 10.0768 15.3346 8.72393C17.5547 7.50518 19.7695 6.27731 22 5.07679C22.3698 4.87758 22.513 4.65101 22.4779 4.24086C22.444 3.83721 22.474 3.42705 22.4805 3.0208C22.4896 2.48435 22.7188 2.07679 23.2175 1.85804C23.7201 1.63799 24.1745 1.75778 24.5664 2.11846C26.53 3.92185 28.2253 5.94919 29.6419 8.2083C29.9089 8.63409 29.8399 9.04294 29.4896 9.28252C29.1315 9.52731 28.6862 9.42054 28.4102 8.98435C27.2643 7.17836 25.9401 5.5156 24.4245 4.00648C24.2995 3.88148 24.1667 3.76299 23.931 3.54164C23.931 4.03382 23.9037 4.41403 23.9375 4.78903C23.9948 5.42054 23.7448 5.79685 23.1784 6.10414C18.4284 8.68617 13.694 11.2968 8.95574 13.8971C8.306 14.2539 8.26954 14.345 8.51954 15.0429C8.78387 15.7799 9.35939 16.2409 10.2643 16.1758C11.1419 16.1119 12.0039 15.8385 12.8789 15.6901C13.2123 15.6328 13.5912 15.5755 13.8984 15.6744C15.6875 16.2565 17.4609 16.8841 19.2396 17.5C20.1458 17.8138 20.2787 18.2812 19.6771 19.0169C16.4987 22.9088 13.3203 26.8008 10.1419 30.694C10.0365 30.8138 9.94272 30.9401 9.79559 31.1289ZM32.806 42.3815C32.806 41.5859 32.8073 40.8541 32.806 40.1224C32.8047 39.4518 32.8034 39.4518 32.125 39.4518C23.6432 39.4518 15.1602 39.4518 6.6784 39.4518C6.56512 39.4518 6.43491 39.4179 6.34116 39.4609C6.21486 39.5195 6.02345 39.6354 6.02085 39.7317C5.99611 40.6028 6.00652 41.4739 6.00652 42.3815C7.38413 42.3815 8.69793 42.3776 10.0117 42.3828C10.5404 42.3854 10.862 42.6718 10.8607 43.1146C10.8594 43.556 10.5391 43.8411 10.0091 43.8437C8.95314 43.8502 7.89715 43.8463 6.83986 43.8463C6.56902 43.8463 6.29949 43.8463 5.99741 43.8463C5.99741 44.6445 5.99611 45.3763 5.99741 46.108C5.99871 46.776 6.00001 46.776 6.681 46.776C15.1628 46.776 23.6458 46.776 32.1276 46.776C32.2409 46.776 32.3711 46.8099 32.4649 46.7656C32.5912 46.7057 32.7813 46.5885 32.7839 46.4922C32.8086 45.6224 32.7982 44.7513 32.7982 43.8463C32.5391 43.8463 32.3464 43.8463 32.1537 43.8463C25.9297 43.8463 19.7057 43.8463 13.4831 43.8463C13.3203 43.8463 13.155 43.8606 12.9961 43.8372C12.5886 43.7747 12.3464 43.5286 12.3477 43.1132C12.349 42.6979 12.5899 42.4518 12.9987 42.3919C13.1576 42.3685 13.3229 42.3828 13.4857 42.3828C19.7096 42.3828 25.9336 42.3828 32.1563 42.3828C32.3477 42.3815 32.5391 42.3815 32.806 42.3815ZM19.4037 32.6146C15.2279 32.6146 11.0521 32.6146 6.87762 32.6146C6.29819 32.6146 6.25522 32.6731 6.41538 33.2396C6.82684 34.6927 7.24871 36.1445 7.64715 37.6015C7.72397 37.8802 7.82553 37.9935 8.13543 37.9935C15.6419 37.9843 23.1471 37.9843 30.6537 37.9935C30.9544 37.9935 31.0703 37.8997 31.1485 37.6106C31.5417 36.1692 31.961 34.7343 32.3698 33.2968C32.5521 32.6536 32.5208 32.6146 31.832 32.6146C27.6901 32.6146 23.5469 32.6146 19.4037 32.6146ZM34.2826 40.0976C34.3737 40.1133 34.4362 40.1328 34.4974 40.1328C37.0117 40.1341 39.5261 40.1419 42.0417 40.1198C42.207 40.1185 42.4518 39.9349 42.5208 39.776C42.875 38.9583 43.1849 38.1211 43.5091 37.289C43.7513 36.6692 43.7188 36.6198 43.0651 36.6185C40.112 36.6172 37.1602 36.6185 34.207 36.6185C32.8984 36.6185 32.8985 36.6185 32.5846 37.9544C33.8125 38.1302 34.3242 38.8997 34.2826 40.0976Z" fill="#060606"/>
</svg>
