<svg width="20" height="30" viewBox="0 0 20 30" fill="none" xmlns="http://www.w3.org/2000/svg">
<path d="M10 2.8125C5.3418 2.8125 1.5625 6.40957 1.5625 10.8398C1.5625 15.9375 7.1875 24.0158 9.25293 26.8061C9.33866 26.9238 9.45103 27.0197 9.58087 27.0858C9.7107 27.1518 9.85432 27.1863 10 27.1863C10.1457 27.1863 10.2893 27.1518 10.4191 27.0858C10.549 27.0197 10.6613 26.9238 10.7471 26.8061C12.8125 24.017 18.4375 15.9416 18.4375 10.8398C18.4375 6.40957 14.6582 2.8125 10 2.8125Z" stroke="black" stroke-linecap="round" stroke-linejoin="round"/>
<path d="M10 14.0625C11.5533 14.0625 12.8125 12.8033 12.8125 11.25C12.8125 9.6967 11.5533 8.4375 10 8.4375C8.4467 8.4375 7.1875 9.6967 7.1875 11.25C7.1875 12.8033 8.4467 14.0625 10 14.0625Z" stroke="black" stroke-linecap="round" stroke-linejoin="round"/>
</svg>
