<svg width="26" height="30" viewBox="0 0 26 30" fill="none" xmlns="http://www.w3.org/2000/svg">
<path d="M13 2.8125C8.3418 2.8125 4.5625 6.40957 4.5625 10.8398C4.5625 15.9375 10.1875 24.0158 12.2529 26.8061C12.3387 26.9238 12.451 27.0197 12.5809 27.0858C12.7107 27.1518 12.8543 27.1863 13 27.1863C13.1457 27.1863 13.2893 27.1518 13.4191 27.0858C13.549 27.0197 13.6613 26.9238 13.7471 26.8061C15.8125 24.017 21.4375 15.9416 21.4375 10.8398C21.4375 6.40957 17.6582 2.8125 13 2.8125Z" stroke="black" stroke-linecap="round" stroke-linejoin="round"/>
<path d="M13 14.0625C14.5533 14.0625 15.8125 12.8033 15.8125 11.25C15.8125 9.6967 14.5533 8.4375 13 8.4375C11.4467 8.4375 10.1875 9.6967 10.1875 11.25C10.1875 12.8033 11.4467 14.0625 13 14.0625Z" stroke="black" stroke-linecap="round" stroke-linejoin="round"/>
</svg>
