<svg width="20" height="21" viewBox="0 0 20 21" fill="none" xmlns="http://www.w3.org/2000/svg">
<path d="M17.6172 15.1089C16.9969 14.4839 15.4945 13.5718 14.7656 13.2042C13.8164 12.7261 13.7383 12.687 12.9922 13.2413C12.4945 13.6113 12.1637 13.9417 11.5812 13.8175C10.9988 13.6933 9.73318 12.9929 8.62498 11.8882C7.51678 10.7835 6.77576 9.48118 6.65115 8.90071C6.52654 8.32025 6.86248 7.99329 7.22889 7.49446C7.74529 6.79134 7.70623 6.67415 7.26482 5.72493C6.92068 4.98665 5.98201 3.49837 5.35467 2.88118C4.68357 2.21829 4.68357 2.33548 4.25115 2.51517C3.89909 2.66326 3.56135 2.84331 3.24217 3.05306C2.61717 3.46829 2.27029 3.81321 2.02771 4.33157C1.78514 4.84993 1.67615 6.06517 2.92889 8.34095C4.18162 10.6167 5.06053 11.7804 6.87967 13.5945C8.69881 15.4085 10.0976 16.3839 12.1426 17.5308C14.6722 18.9476 15.6426 18.6714 16.1625 18.4292C16.6824 18.187 17.0289 17.8433 17.4449 17.2183C17.6552 16.8996 17.8356 16.5623 17.984 16.2105C18.164 15.7796 18.2812 15.7796 17.6172 15.1089Z" stroke="white" stroke-miterlimit="10"/>
</svg>
