<svg width="301" height="260" viewBox="0 0 301 260" fill="none" xmlns="http://www.w3.org/2000/svg">
<path d="M77.8113 88.3573C66.1246 88.3573 55.1373 83.7719 46.8735 75.4457C38.6097 67.1195 34.0586 56.0493 34.0586 44.2744C34.0586 32.4994 38.6097 21.4291 46.8735 13.103C55.1372 4.77684 66.1246 0.191406 77.8113 0.191406C89.4981 0.191406 100.485 4.77684 108.749 13.103C117.013 21.4291 121.564 32.4994 121.564 44.2744C121.564 56.0493 117.013 67.1195 108.749 75.4457C100.485 83.7719 89.4982 88.3573 77.8113 88.3573ZM77.8113 1.75903C54.5439 1.75903 35.6145 20.8313 35.6145 44.2744C35.6145 67.7174 54.5439 86.7897 77.8113 86.7897C101.079 86.7897 120.008 67.7174 120.008 44.2744C120.008 20.8313 101.079 1.75903 77.8113 1.75903Z" fill="black"/>
<path d="M77.8107 84.2599C54.6272 84.2599 35.7349 65.7625 34.8703 42.6172C34.8498 43.167 34.8359 43.7187 34.8359 44.2737C34.8359 68.1871 54.0764 87.5728 77.8107 87.5728C101.545 87.5728 120.786 68.1871 120.786 44.2737C120.786 43.7187 120.772 43.167 120.751 42.6172C119.887 65.7625 100.994 84.2599 77.8107 84.2599Z" fill="black"/>
<path d="M77.8128 73.6339C70.0295 73.6339 62.712 70.5801 57.2085 65.0348C51.7048 59.4896 48.6738 52.117 48.6738 44.2749C48.6738 36.4329 51.7048 29.0602 57.2085 23.515C62.7122 17.9699 70.0296 14.916 77.8128 14.916C85.5961 14.916 92.9136 17.9699 98.4172 23.515C103.921 29.0602 106.952 36.4329 106.952 44.2749C106.952 52.117 103.921 59.4896 98.4172 65.0348C92.9137 70.5801 85.5962 73.6339 77.8128 73.6339ZM77.8128 16.4836C62.6034 16.4836 50.2297 28.9508 50.2297 44.2749C50.2297 59.5991 62.6035 72.0663 77.8128 72.0663C93.0222 72.0663 105.396 59.5991 105.396 44.2749C105.396 28.9508 93.0223 16.4836 77.8128 16.4836Z" fill="black"/>
<path d="M77.812 49.3365C80.586 49.3365 82.8349 47.0707 82.8349 44.2757C82.8349 41.4807 80.586 39.2148 77.812 39.2148C75.0379 39.2148 72.7891 41.4807 72.7891 44.2757C72.7891 47.0707 75.0379 49.3365 77.812 49.3365Z" fill="black"/>
<path d="M77.8117 22.1452C72.0896 22.3903 66.537 24.7623 62.5094 28.8579C58.4452 32.9169 56.0921 38.5105 55.8471 44.2757C55.6355 39.9143 56.8975 35.4647 59.2933 31.8087C63.2527 25.6555 70.5269 21.7608 77.8117 22.1452Z" fill="black"/>
<path d="M77.8125 66.406C83.5345 66.1609 89.0872 63.7889 93.1149 59.6933C97.1791 55.6343 99.5322 50.0407 99.7772 44.2754C99.9888 48.6368 98.7268 53.0864 96.331 56.7423C92.3713 62.8958 85.0971 66.7904 77.8125 66.406Z" fill="black"/>
<path d="M77.8105 81.9949C90.0491 81.7602 101.901 75.3307 108.684 65.0588C112.799 58.9506 115.06 51.6734 115.248 44.2754L115.25 46.1288C115.205 47.0488 115.171 47.988 115.062 48.905L114.964 49.8286C114.955 49.9055 114.948 49.9827 114.938 50.0595C114.873 50.4508 114.752 51.2611 114.686 51.6662C111.521 69.3894 95.7019 82.4829 77.8105 81.9949Z" fill="black"/>
<path d="M82.6584 53.5154H72.9661C72.6881 53.5154 72.4312 53.3659 72.2924 53.1235L67.446 44.6661C67.307 44.4235 67.307 44.1248 67.446 43.8823L72.2924 35.4251C72.4313 35.1827 72.6882 35.0332 72.9661 35.0332H82.6584C82.9363 35.0332 83.1933 35.1827 83.3321 35.4251L88.1783 43.8823C88.3173 44.1248 88.3173 44.4235 88.1783 44.6661L83.3321 53.1235C83.1931 53.3661 82.9363 53.5154 82.6584 53.5154ZM73.4151 51.9478H82.2093L86.6064 44.2742L82.2093 36.6008H73.4151L69.018 44.2742L73.4151 51.9478Z" fill="black"/>
<path d="M172.204 88.3573C160.517 88.3573 149.53 83.7719 141.266 75.4457C133.002 67.1195 128.451 56.0493 128.451 44.2744C128.451 32.4994 133.002 21.4291 141.266 13.103C149.53 4.77684 160.517 0.191406 172.204 0.191406C183.891 0.191406 194.878 4.77684 203.142 13.103C211.405 21.4291 215.957 32.4994 215.957 44.2744C215.957 56.0493 211.405 67.1195 203.142 75.4457C194.878 83.7719 183.891 88.3573 172.204 88.3573ZM172.204 1.75903C148.936 1.75903 130.007 20.8313 130.007 44.2744C130.007 67.7174 148.937 86.7897 172.204 86.7897C195.471 86.7897 214.401 67.7174 214.401 44.2744C214.401 20.8313 195.471 1.75903 172.204 1.75903Z" fill="black"/>
<path d="M172.203 84.2599C149.02 84.2599 130.127 65.7625 129.263 42.6172C129.242 43.167 129.229 43.7187 129.229 44.2737C129.229 68.1871 148.469 87.5728 172.203 87.5728C195.938 87.5728 215.178 68.1871 215.178 44.2737C215.178 43.7187 215.164 43.167 215.144 42.6172C214.279 65.7625 195.387 84.2599 172.203 84.2599Z" fill="black"/>
<path d="M172.204 73.6339C164.42 73.6339 157.103 70.5801 151.599 65.0348C146.095 59.4896 143.064 52.117 143.064 44.2749C143.064 36.4329 146.095 29.0602 151.599 23.515C157.103 17.9699 164.42 14.916 172.204 14.916C179.987 14.916 187.304 17.9699 192.808 23.5151C198.312 29.0602 201.343 36.4329 201.343 44.275C201.343 52.1171 198.312 59.4898 192.808 65.035C187.304 70.5801 179.987 73.6339 172.204 73.6339ZM172.204 16.4836C156.994 16.4836 144.62 28.9508 144.62 44.2749C144.62 59.5991 156.994 72.0663 172.204 72.0663C187.413 72.0663 199.787 59.5991 199.787 44.2749C199.787 28.9508 187.413 16.4836 172.204 16.4836Z" fill="black"/>
<path d="M172.205 49.3365C174.979 49.3365 177.227 47.0707 177.227 44.2757C177.227 41.4807 174.979 39.2148 172.205 39.2148C169.43 39.2148 167.182 41.4807 167.182 44.2757C167.182 47.0707 169.43 49.3365 172.205 49.3365Z" fill="black"/>
<path d="M172.205 22.1452C166.483 22.3903 160.93 24.7623 156.902 28.8579C152.838 32.9169 150.485 38.5105 150.24 44.2757C150.028 39.9143 151.29 35.4647 153.686 31.8087C157.646 25.6554 164.92 21.7608 172.205 22.1452Z" fill="black"/>
<path d="M172.205 66.406C177.927 66.1609 183.48 63.7889 187.507 59.6933C191.572 55.6343 193.925 50.0407 194.17 44.2754C194.381 48.6368 193.119 53.0864 190.723 56.7423C186.764 62.8958 179.49 66.7904 172.205 66.406Z" fill="black"/>
<path d="M172.203 81.9949C184.442 81.7602 196.293 75.3307 203.077 65.0588C207.191 58.9506 209.452 51.6734 209.64 44.2754L209.643 46.1288C209.598 47.0488 209.564 47.988 209.454 48.905L209.356 49.8286C209.348 49.9055 209.341 49.9827 209.331 50.0595C209.266 50.4508 209.145 51.2611 209.078 51.6662C205.914 69.3894 190.094 82.4829 172.203 81.9949Z" fill="black"/>
<path d="M177.051 53.5154H167.358C167.08 53.5154 166.824 53.3659 166.685 53.1235L161.839 44.6661C161.7 44.4235 161.7 44.1248 161.839 43.8823L166.685 35.4251C166.824 35.1827 167.081 35.0332 167.358 35.0332H177.051C177.329 35.0332 177.586 35.1827 177.725 35.4251L182.571 43.8823C182.71 44.1248 182.71 44.4235 182.571 44.6661L177.725 53.1235C177.586 53.3661 177.329 53.5154 177.051 53.5154ZM167.808 51.9478H176.602L180.999 44.2742L176.602 36.6008H167.808L163.41 44.2742L167.808 51.9478Z" fill="black"/>
<path d="M206.187 198.882H77.8111C77.3815 198.882 77.0332 198.531 77.0332 198.099V163.041C77.0332 162.608 77.3815 162.257 77.8111 162.257H176.061C181.297 162.257 185.556 157.966 185.556 152.691C185.556 147.416 181.296 143.124 176.061 143.124H77.8111C77.3815 143.124 77.0332 142.773 77.0332 142.34V108.274C77.0332 107.841 77.3815 107.49 77.8111 107.49H206.187C206.616 107.49 206.965 107.841 206.965 108.274V198.099C206.965 198.531 206.616 198.882 206.187 198.882ZM78.5891 197.315H205.409V109.058H78.5891V141.556H176.061C182.155 141.556 187.112 146.551 187.112 152.69C187.112 158.83 182.155 163.825 176.061 163.825H78.5891V197.315Z" fill="black"/>
<path d="M300.223 176.289C300.125 176.289 300.026 176.27 299.932 176.232L239.501 151.684C239.206 151.564 239.014 151.276 239.014 150.957V129.651C239.014 129.331 239.206 129.043 239.501 128.924L299.932 104.375C300.172 104.278 300.444 104.307 300.658 104.453C300.873 104.598 301.001 104.842 301.001 105.102V175.505C301.001 175.766 300.873 176.009 300.658 176.155C300.528 176.243 300.376 176.289 300.223 176.289ZM240.57 150.428L299.445 174.344V106.264L240.57 130.18V150.428Z" fill="black"/>
<path d="M297.824 171.536C279.788 164.685 261.64 157.302 243.908 149.688L242.188 148.936L243.944 149.596C261.96 156.503 280.115 163.867 297.824 171.536Z" fill="black"/>
<path d="M297.823 168.786C294.433 167.691 290.975 166.339 287.661 165.01C284.358 163.652 280.94 162.211 277.742 160.629C281.132 161.723 284.59 163.075 287.904 164.405C291.207 165.764 294.625 167.205 297.823 168.786Z" fill="black"/>
<path d="M297.823 111.822C294.627 113.402 291.206 114.845 287.904 116.204C284.589 117.534 281.135 118.885 277.742 119.98C280.937 118.398 284.359 116.956 287.661 115.598C290.977 114.269 294.431 112.918 297.823 111.822Z" fill="black"/>
<path d="M197.895 193.082H86.1022C85.6725 193.082 85.3242 192.731 85.3242 192.298V163.042C85.3242 162.61 85.6725 162.259 86.1022 162.259H176.06C181.296 162.259 185.556 157.967 185.556 152.692C185.556 147.417 181.296 143.125 176.06 143.125H86.1022C85.6725 143.125 85.3242 142.774 85.3242 142.341V114.077C85.3242 113.644 85.6725 113.293 86.1022 113.293H197.895C198.325 113.293 198.673 113.644 198.673 114.077V192.299C198.673 192.731 198.325 193.082 197.895 193.082ZM86.8801 191.515H197.117V114.86H86.8801V141.557H176.06C182.154 141.557 187.112 146.552 187.112 152.692C187.112 158.831 182.154 163.826 176.06 163.826H86.8801V191.515Z" fill="black"/>
<path d="M222.507 151.739H218.618C218.188 151.739 217.84 151.388 217.84 150.955V129.649C217.84 129.216 218.188 128.865 218.618 128.865H222.507C222.937 128.865 223.285 129.216 223.285 129.649V150.955C223.285 151.388 222.937 151.739 222.507 151.739ZM219.396 150.171H221.73V130.433H219.396V150.171Z" fill="black"/>
<path d="M231.931 151.739H228.042C227.612 151.739 227.264 151.388 227.264 150.955V129.649C227.264 129.216 227.612 128.865 228.042 128.865H231.931C232.361 128.865 232.709 129.216 232.709 129.649V150.955C232.709 151.388 232.361 151.739 231.931 151.739ZM228.82 150.171H231.153V130.433H228.82V150.171Z" fill="black"/>
<path d="M213.086 151.739H206.186C205.757 151.739 205.408 151.388 205.408 150.955V129.649C205.408 129.216 205.757 128.865 206.186 128.865H213.086C213.516 128.865 213.864 129.216 213.864 129.649V150.955C213.864 151.388 213.516 151.739 213.086 151.739ZM206.964 150.171H212.308V130.433H206.964V150.171Z" fill="black"/>
<path d="M239.792 151.739H237.463C237.034 151.739 236.686 151.388 236.686 150.955V129.649C236.686 129.216 237.034 128.865 237.463 128.865H239.792C240.222 128.865 240.57 129.216 240.57 129.649V150.955C240.57 151.388 240.222 151.739 239.792 151.739ZM238.241 150.171H239.014V130.433H238.241V150.171Z" fill="black"/>
<path d="M231.931 129.65H228.041V150.956H231.931V129.65Z" fill="black"/>
<path d="M222.507 129.65H218.617V150.956H222.507V129.65Z" fill="black"/>
<path d="M239.79 129.65H237.461V150.956H239.79V129.65Z" fill="black"/>
<path d="M213.085 129.65H206.186V150.956H213.085V129.65Z" fill="black"/>
<path d="M237.462 156.481H231.93C231.501 156.481 231.152 156.13 231.152 155.698V124.913C231.152 124.48 231.501 124.129 231.93 124.129H237.462C237.892 124.129 238.24 124.48 238.24 124.913V155.698C238.24 156.13 237.892 156.481 237.462 156.481ZM232.708 154.914H236.684V125.697H232.708V154.914Z" fill="black"/>
<path d="M228.04 156.481H222.508C222.079 156.481 221.73 156.13 221.73 155.698V124.913C221.73 124.48 222.079 124.129 222.508 124.129H228.04C228.47 124.129 228.818 124.48 228.818 124.913V155.698C228.818 156.13 228.47 156.481 228.04 156.481ZM223.286 154.914H227.262V125.697H223.286V154.914Z" fill="black"/>
<path d="M218.621 156.481H213.088C212.659 156.481 212.311 156.13 212.311 155.698V124.913C212.311 124.48 212.659 124.129 213.088 124.129H218.621C219.05 124.129 219.399 124.48 219.399 124.913V155.698C219.399 156.13 219.05 156.481 218.621 156.481ZM213.866 154.914H217.843V125.697H213.866V154.914Z" fill="black"/>
<path d="M188.105 109.06C182.979 109.06 178.541 107.811 174.916 105.348C172.011 103.375 169.63 100.63 167.838 97.1892C164.811 91.3761 164.52 85.6503 164.509 85.4094C164.489 84.977 164.821 84.6104 165.25 84.5907C165.675 84.5705 166.043 84.9056 166.063 85.338C166.066 85.3934 166.357 90.9992 169.24 96.5065C173.056 103.796 179.403 107.492 188.106 107.492C188.535 107.492 188.883 107.843 188.883 108.276C188.883 108.709 188.535 109.06 188.105 109.06Z" fill="black"/>
<path d="M129.226 45.0598H120.786C120.356 45.0598 120.008 44.7089 120.008 44.276C120.008 43.8432 120.356 43.4922 120.786 43.4922H129.226C129.656 43.4922 130.004 43.8432 130.004 44.276C130.004 44.7089 129.656 45.0598 129.226 45.0598Z" fill="black"/>
<path d="M92.8501 109.058C92.4205 109.058 92.0722 108.707 92.0722 108.274C92.0722 102.255 91.5291 97.4313 90.4584 93.9362C89.6696 91.3611 88.6167 89.5532 87.329 88.5629C85.9278 87.4851 84.7455 87.7938 84.6958 87.8076C84.2851 87.9332 83.8553 87.6978 83.7305 87.2836C83.6058 86.8693 83.843 86.4301 84.2541 86.3044C84.3312 86.2808 86.169 85.7438 88.2024 87.2632C89.7701 88.4346 91.0202 90.495 91.9184 93.3871C93.0529 97.0405 93.6279 102.049 93.6279 108.274C93.628 108.707 93.2798 109.058 92.8501 109.058Z" fill="black"/>
<path d="M101.15 101.919C102.797 101.919 104.132 100.574 104.132 98.9148C104.132 97.2554 102.797 95.9102 101.15 95.9102C99.5031 95.9102 98.168 97.2554 98.168 98.9148C98.168 100.574 99.5031 101.919 101.15 101.919Z" fill="black"/>
<path d="M111.783 101.919C113.43 101.919 114.765 100.574 114.765 98.9148C114.765 97.2554 113.43 95.9102 111.783 95.9102C110.136 95.9102 108.801 97.2554 108.801 98.9148C108.801 100.574 110.136 101.919 111.783 101.919Z" fill="black"/>
<path d="M122.414 101.919C124.061 101.919 125.396 100.574 125.396 98.9148C125.396 97.2554 124.061 95.9102 122.414 95.9102C120.767 95.9102 119.432 97.2554 119.432 98.9148C119.432 100.574 120.767 101.919 122.414 101.919Z" fill="black"/>
<path d="M133.047 101.919C134.694 101.919 136.029 100.574 136.029 98.9148C136.029 97.2554 134.694 95.9102 133.047 95.9102C131.4 95.9102 130.064 97.2554 130.064 98.9148C130.064 100.574 131.4 101.919 133.047 101.919Z" fill="black"/>
<path d="M143.679 101.919C145.326 101.919 146.661 100.574 146.661 98.9148C146.661 97.2554 145.326 95.9102 143.679 95.9102C142.032 95.9102 140.697 97.2554 140.697 98.9148C140.697 100.574 142.032 101.919 143.679 101.919Z" fill="black"/>
<path d="M94.4082 87.6803C100.367 85.7727 105.895 82.4736 110.51 78.2376C115.122 73.9988 118.687 68.6366 120.846 62.7372C122.306 58.8031 123.153 54.649 123.581 50.4492C123.508 52.5607 123.279 54.6689 122.912 56.7554C122.353 59.8861 121.447 62.967 120.164 65.8761C116.785 73.7005 110.608 80.1503 103.181 84.1882C100.406 85.6862 97.4776 86.9494 94.4082 87.6803Z" fill="black"/>
<path d="M105.738 86.1558C112.757 82.1917 119.496 76.508 122.607 68.8517C122.801 68.4104 123.019 67.7547 123.189 67.3008C123.014 68.097 122.789 68.9424 122.523 69.7071C119.931 77.1152 112.818 83.2153 105.738 86.1558Z" fill="black"/>
<path d="M176.694 105.102H92.8496V108.274H184.733L176.694 105.102Z" fill="black"/>
<path d="M105.195 161.939C100.133 161.939 96.0156 157.79 96.0156 152.69C96.0156 147.59 100.133 143.441 105.195 143.441C110.256 143.441 114.374 147.59 114.374 152.69C114.374 157.79 110.256 161.939 105.195 161.939ZM105.195 145.009C100.991 145.009 97.5715 148.455 97.5715 152.69C97.5715 156.925 100.991 160.371 105.195 160.371C109.399 160.371 112.818 156.925 112.818 152.69C112.818 148.455 109.399 145.009 105.195 145.009Z" fill="black"/>
<path d="M105.673 154.708C106.787 154.443 107.477 153.318 107.214 152.196C106.951 151.073 105.835 150.378 104.721 150.643C103.606 150.908 102.916 152.033 103.179 153.156C103.443 154.278 104.559 154.973 105.673 154.708Z" fill="black"/>
<path d="M137.254 161.939C132.192 161.939 128.074 157.79 128.074 152.69C128.074 147.59 132.192 143.441 137.254 143.441C142.315 143.441 146.433 147.59 146.433 152.69C146.433 157.79 142.315 161.939 137.254 161.939ZM137.254 145.009C133.05 145.009 129.63 148.455 129.63 152.69C129.63 156.925 133.05 160.371 137.254 160.371C141.457 160.371 144.877 156.925 144.877 152.69C144.877 148.455 141.457 145.009 137.254 145.009Z" fill="black"/>
<path d="M138.718 154.168C139.527 153.353 139.527 152.03 138.718 151.215C137.908 150.399 136.596 150.399 135.786 151.215C134.977 152.03 134.977 153.353 135.786 154.168C136.596 154.984 137.908 154.984 138.718 154.168Z" fill="black"/>
<path d="M169.308 161.939C164.247 161.939 160.129 157.79 160.129 152.69C160.129 147.59 164.247 143.441 169.308 143.441C174.37 143.441 178.488 147.59 178.488 152.69C178.488 157.79 174.37 161.939 169.308 161.939ZM169.308 145.009C165.105 145.009 161.685 148.455 161.685 152.69C161.685 156.925 165.105 160.371 169.308 160.371C173.512 160.371 176.932 156.925 176.932 152.69C176.932 148.455 173.512 145.009 169.308 145.009Z" fill="black"/>
<path d="M169.785 154.704C170.899 154.439 171.589 153.314 171.326 152.192C171.063 151.069 169.946 150.374 168.832 150.639C167.718 150.904 167.028 152.029 167.291 153.152C167.554 154.274 168.67 154.97 169.785 154.704Z" fill="black"/>
<path d="M105.195 188.198C100.133 188.198 96.0156 184.049 96.0156 178.95C96.0156 173.85 100.133 169.701 105.195 169.701C110.256 169.701 114.374 173.85 114.374 178.95C114.374 184.049 110.256 188.198 105.195 188.198ZM105.195 171.269C100.991 171.269 97.5715 174.714 97.5715 178.95C97.5715 183.185 100.991 186.631 105.195 186.631C109.399 186.631 112.818 183.185 112.818 178.95C112.818 174.714 109.399 171.269 105.195 171.269Z" fill="black"/>
<path d="M105.675 180.964C106.789 180.699 107.479 179.574 107.216 178.452C106.953 177.329 105.837 176.634 104.722 176.899C103.608 177.164 102.918 178.289 103.181 179.412C103.445 180.534 104.561 181.229 105.675 180.964Z" fill="black"/>
<path d="M169.304 188.198C164.243 188.198 160.125 184.049 160.125 178.95C160.125 173.85 164.243 169.701 169.304 169.701C174.366 169.701 178.484 173.85 178.484 178.95C178.484 184.049 174.366 188.198 169.304 188.198ZM169.304 171.269C165.101 171.269 161.681 174.714 161.681 178.95C161.681 183.185 165.101 186.631 169.304 186.631C173.508 186.631 176.928 183.185 176.928 178.95C176.928 174.714 173.508 171.269 169.304 171.269Z" fill="black"/>
<path d="M169.783 180.96C170.897 180.695 171.587 179.57 171.324 178.448C171.061 177.325 169.944 176.63 168.83 176.895C167.716 177.16 167.026 178.285 167.289 179.408C167.552 180.53 168.668 181.225 169.783 180.96Z" fill="black"/>
<path d="M149.595 241.716C144.534 241.716 140.416 237.567 140.416 232.467C140.416 227.368 144.534 223.219 149.595 223.219C154.657 223.219 158.775 227.368 158.775 232.467C158.775 237.567 154.657 241.716 149.595 241.716ZM149.595 224.786C145.392 224.786 141.972 228.232 141.972 232.467C141.972 236.703 145.392 240.148 149.595 240.148C153.799 240.148 157.219 236.703 157.219 232.467C157.219 228.232 153.799 224.786 149.595 224.786Z" fill="black"/>
<path d="M150.078 234.476C151.192 234.211 151.882 233.086 151.619 231.963C151.355 230.841 150.239 230.146 149.125 230.411C148.011 230.676 147.321 231.801 147.584 232.923C147.847 234.046 148.963 234.741 150.078 234.476Z" fill="black"/>
<path d="M129.306 180.424C130.115 179.608 130.115 178.286 129.306 177.47C128.496 176.655 127.184 176.655 126.374 177.47C125.564 178.286 125.564 179.608 126.374 180.424C127.184 181.24 128.496 181.24 129.306 180.424Z" fill="black"/>
<path d="M148.118 180.424C148.928 179.608 148.928 178.286 148.118 177.47C147.309 176.655 145.996 176.655 145.186 177.47C144.377 178.286 144.377 179.608 145.186 180.424C145.996 181.24 147.309 181.24 148.118 180.424Z" fill="black"/>
<path d="M115.484 198.098C115.484 214.181 126.45 227.682 141.258 231.43C141.766 227.244 145.303 224.001 149.595 224.001C153.887 224.001 157.424 227.244 157.931 231.43C172.74 227.682 183.705 214.181 183.705 198.098H115.484Z" fill="black"/>
<path d="M176.06 163.825H53.694C53.2644 163.825 52.916 163.474 52.916 163.042V142.34C52.916 141.908 53.2644 141.557 53.694 141.557H176.06C182.154 141.557 187.111 146.551 187.111 152.691C187.111 158.831 182.154 163.825 176.06 163.825ZM54.4719 162.258H176.06C181.296 162.258 185.555 157.966 185.555 152.691C185.555 147.416 181.295 143.124 176.06 143.124H54.4719V162.258Z" fill="black"/>
<path d="M2.2213 171.002C2.06831 171.002 1.91635 170.957 1.78604 170.868C1.57172 170.722 1.44336 170.479 1.44336 170.218V135.165C1.44336 134.904 1.57172 134.661 1.78604 134.515C2.00037 134.369 2.27239 134.34 2.51225 134.438L32.601 146.66C32.8953 146.78 33.088 147.068 33.088 147.387V157.995C33.088 158.315 32.8953 158.603 32.601 158.722L2.51225 170.945C2.41838 170.983 2.31971 171.002 2.2213 171.002ZM2.99924 136.326V169.057L31.5321 157.467V147.917L2.99924 136.326Z" fill="black"/>
<path d="M53.6935 163.861C53.3213 163.861 53.0061 163.621 52.9421 163.248C52.8063 162.948 50.5646 158.777 32.3092 158.777C31.8796 158.777 31.5312 158.426 31.5312 157.993V147.385C31.5312 146.952 31.8796 146.601 32.3092 146.601C50.5646 146.601 52.8063 142.43 52.9421 142.131C53.0098 141.736 53.3587 141.491 53.7582 141.52C54.1648 141.55 54.4721 141.928 54.4721 142.339V163.04C54.4721 163.451 54.1647 163.829 53.7582 163.859C53.7364 163.86 53.7149 163.861 53.6935 163.861ZM33.0871 157.212C45.5369 157.294 50.7441 159.35 52.9162 160.967V144.411C50.7439 146.029 45.5369 148.084 33.0871 148.166V157.212Z" fill="black"/>
<path d="M32.3086 147.386V157.994C52.4547 157.994 53.6937 163.041 53.6937 163.041V142.34C53.6937 142.34 52.4547 147.386 32.3086 147.386Z" fill="black"/>
<path d="M128.722 117.997C117.429 118.364 106.129 118.375 94.8322 118.251C93.6288 118.237 91.1948 118.198 89.9908 118.172L90.1652 117.997L90.092 121.237C90.0625 122.317 90.0303 123.397 89.9908 124.477C89.9513 123.397 89.9191 122.317 89.8897 121.237L89.8165 117.997C89.8141 117.899 89.894 117.819 89.991 117.821C93.1326 117.757 96.544 117.715 99.6737 117.694C109.357 117.642 119.042 117.673 128.722 117.997Z" fill="black"/>
<path d="M47.2141 218.61H3.7806C1.70129 218.61 0.015625 216.912 0.015625 214.817C0.015625 212.722 1.70129 211.023 3.7806 211.023H47.2141C49.2934 211.023 50.9791 212.722 50.9791 214.817C50.9791 216.912 49.2934 218.61 47.2141 218.61Z" fill="black"/>
<path d="M44.7897 215.602C44.3601 215.602 44.0117 215.251 44.0117 214.818C44.0117 214.385 44.3601 214.034 44.7897 214.034C83.6053 214.034 102.749 209.745 111.974 206.146C121.484 202.436 122.418 198.824 122.425 198.789C122.506 198.364 122.913 198.085 123.335 198.167C123.757 198.248 124.034 198.659 123.953 199.084C123.867 199.534 122.818 203.597 112.535 207.608C106.569 209.935 98.6314 211.787 88.9425 213.113C76.8722 214.764 62.0169 215.602 44.7897 215.602Z" fill="black"/>
<path d="M149.595 259.075C144.534 259.075 140.416 254.926 140.416 249.827V232.469C140.416 232.037 140.764 231.686 141.194 231.686C141.624 231.686 141.972 232.037 141.972 232.469V249.827C141.972 254.062 145.392 257.508 149.595 257.508C153.799 257.508 157.219 254.062 157.219 249.827V232.469C157.219 232.037 157.567 231.686 157.997 231.686C158.426 231.686 158.775 232.037 158.775 232.469V249.827C158.775 254.926 154.657 259.075 149.595 259.075Z" fill="black"/>
<path d="M92.2013 145.682C80.8868 146.129 69.4161 146.132 58.1016 145.682C69.4161 145.232 80.8868 145.235 92.2013 145.682Z" fill="black"/>
<path d="M5.7207 141.633C13.6054 143.897 21.4642 146.62 29.059 149.732C21.1731 147.472 13.3167 144.741 5.7207 141.633Z" fill="black"/>
</svg>
