<svg width="50" height="50" viewBox="0 0 50 50" fill="none" xmlns="http://www.w3.org/2000/svg">
<path d="M17.4582 39.001C15.8137 39.8565 13.7291 39.1404 13.3059 36.82C12.4218 36.9802 11.6015 36.8227 10.9035 36.225C10.2095 35.6299 9.86578 34.8643 9.86708 33.9086C8.77854 33.8422 7.8736 33.4346 7.33583 32.449C6.80458 31.475 6.91396 30.5075 7.48688 29.5388C7.1262 29.2602 6.77073 28.9867 6.39313 28.6964C6.2525 28.9216 6.13792 29.1156 6.01292 29.3031C5.71865 29.7458 5.40484 29.8344 4.93349 29.5727C3.68479 28.8786 2.44391 28.1703 1.19651 27.4737C0.807188 27.2562 0.718647 26.945 0.815001 26.5271C2.02333 21.2693 3.22646 16.0089 4.42958 10.7497C4.54156 10.2589 4.64833 9.76666 4.77073 9.27708C4.93219 8.63255 5.42307 8.43073 5.9374 8.82786C8.61578 10.8917 11.2824 12.9685 13.9569 15.0375C14.3124 15.3122 14.328 15.6573 14.1666 16.1104C15.4765 16.0258 16.7369 15.9776 17.9895 15.8539C19.5728 15.6977 21.1457 15.4307 22.7304 15.3135C23.3189 15.2693 23.9283 15.5245 24.5311 15.6156C24.7512 15.6482 25.0324 15.6781 25.2017 15.574C26.4022 14.8305 27.6223 14.7693 28.9296 15.281C29.8502 15.6404 30.8137 15.8865 31.7486 16.2094C33.1952 16.7081 34.5585 16.4815 35.9127 15.7784C35.6809 15.2523 35.9582 14.9424 36.3541 14.6378C38.8918 12.6846 41.4179 10.7172 43.9478 8.75364C44.7291 8.14687 45.1692 8.2875 45.3866 9.23672C46.6913 14.9229 47.9895 20.6104 49.2955 26.2966C49.3983 26.7445 49.2629 27.0466 48.8632 27.2667C47.6418 27.9437 46.4296 28.6378 45.2082 29.3148C44.677 29.6091 44.3944 29.5297 44.0689 29.0167C43.7746 28.5531 43.4895 28.0831 43.1718 27.5687C42.2291 28.5115 41.3228 29.4151 40.4257 30.3266C40.358 30.3956 40.3345 30.5297 40.328 30.6365C40.216 32.3982 39.4687 33.2315 37.7134 33.5414C37.6679 33.5492 37.6249 33.5766 37.5832 33.5935C37.3489 35.7966 36.3606 36.7432 34.3528 36.6625C34.2864 37.6117 33.9348 38.4216 33.1028 38.9542C32.2903 39.4737 31.4257 39.4906 30.5064 39.1469C30.4739 39.2536 30.44 39.3396 30.4218 39.4268C30.0324 41.251 28.1405 42.143 26.4895 41.2536C25.5181 40.7302 24.565 40.169 23.621 39.5974C23.3306 39.4216 23.1431 39.4346 22.9088 39.6742C22.6145 39.975 22.2864 40.2458 21.9608 40.5154C20.384 41.824 18.2056 41.2003 17.552 39.2575C17.5259 39.1833 17.4986 39.1117 17.4582 39.001ZM23.0494 16.7289C23.039 16.7003 23.0272 16.6703 23.0168 16.6417C22.9439 16.6417 22.8684 16.6325 22.7968 16.643C19.759 17.1156 16.703 17.3773 13.6314 17.449C13.3072 17.4568 13.1835 17.6182 13.0416 17.8487C11.1405 20.9542 9.23427 24.0557 7.33063 27.1586C7.25641 27.2784 7.19261 27.4047 7.11578 27.5453C7.47516 27.8187 7.83063 28.0518 8.13792 28.337C8.41136 28.5896 8.59495 28.531 8.83063 28.2953C9.1288 27.9971 9.47906 27.751 9.77464 27.4503C11.5715 25.6195 14.1028 26.6234 14.5819 28.6352C14.5845 28.6469 14.6054 28.6534 14.6171 28.6638C16.7785 27.5922 18.8463 29.0401 18.9231 31.2159C20.6093 31.3266 21.7252 32.3331 21.8319 34.1378C23.9973 34.2289 25.3671 36.2406 24.2746 38.4203C25.1978 38.9542 26.1171 39.501 27.0494 40.0232C27.7681 40.4255 28.5351 40.2432 28.9309 39.6065C29.328 38.9672 29.1392 38.2484 28.4348 37.7549C27.4778 37.0844 26.5142 36.4216 25.5546 35.7523C24.9153 35.3057 24.272 34.8656 23.647 34.4008C23.2655 34.1169 23.2056 33.7497 23.4361 33.4281C23.6561 33.1195 24.0324 33.074 24.4309 33.3096C24.5142 33.3591 24.5976 33.4112 24.677 33.4659C26.2642 34.5661 27.8528 35.6677 29.44 36.7693C29.9465 37.1208 30.4439 37.4893 30.9634 37.8227C31.4114 38.1104 31.8931 38.1039 32.3463 37.8279C32.7825 37.5622 32.9843 37.1547 32.9686 36.6365C32.9517 36.1286 32.6653 35.8044 32.2746 35.5284C30.233 34.0831 28.1939 32.6352 26.1627 31.1768C25.9621 31.0323 25.7147 30.8279 25.6757 30.6156C25.6353 30.393 25.759 29.9841 25.9205 29.9164C26.1692 29.8122 26.5832 29.82 26.8007 29.9672C28.2916 30.9776 29.7512 32.0362 31.2186 33.0831C32.1314 33.7328 33.0311 34.4008 33.9543 35.0362C34.5364 35.4359 35.2681 35.3552 35.746 34.8891C36.2069 34.4385 36.3267 33.725 35.9778 33.1911C35.8241 32.9542 35.5871 32.7575 35.3554 32.5883C32.9009 30.8005 30.4387 29.0219 27.9804 27.2393C27.5129 26.9008 27.4088 26.5258 27.6666 26.1742C27.9231 25.824 28.289 25.8148 28.7785 26.1534C29.2317 26.4685 29.6848 26.7849 30.1314 27.1078C32.3293 28.6964 34.5233 30.2901 36.7226 31.876C37.6223 32.5258 38.8163 32.0596 38.9673 30.9893C39.052 30.3878 38.7629 29.9424 38.2994 29.5661C35.0572 26.932 31.8137 24.2992 28.5976 21.6338C28.0741 21.2003 27.6418 20.9828 27.0507 21.4372C26.914 21.5427 26.7278 21.5857 26.5611 21.6495C24.2499 22.5206 21.9726 22.6052 19.7499 21.3552C19.1822 21.0362 18.8267 20.5753 18.8319 19.9112C18.8371 19.225 19.2121 18.7667 19.8111 18.4581C20.6197 18.0427 21.4179 17.6078 22.2199 17.1807C22.496 17.0284 22.772 16.8786 23.0494 16.7289ZM36.6705 16.962C36.4791 17.0401 36.3423 17.0883 36.2108 17.1508C34.4413 17.9854 32.6561 18.0258 30.8267 17.3318C29.8723 16.9698 28.8853 16.6964 27.9127 16.3839C27.3957 16.2185 26.884 16.2354 26.4009 16.4906C24.4218 17.5362 22.4439 18.5857 20.4686 19.6404C20.0793 19.8474 20.078 19.9802 20.4582 20.2003C21.4699 20.7875 22.5637 21.0297 23.7291 20.9424C25.0494 20.8435 26.259 20.3956 27.4009 19.7484C27.7811 19.5323 28.1119 19.5115 28.4713 19.8057C32.2291 22.8825 35.9921 25.9516 39.703 28.9802C40.5832 28.1 41.4765 27.2081 42.3944 26.2901C40.5129 23.2211 38.6028 20.1091 36.6705 16.962ZM5.89443 10.4958C5.83583 10.7094 5.78766 10.8604 5.7525 11.0141C5.44 12.3747 5.1288 13.7367 4.81761 15.0987C3.97906 18.7719 3.13792 22.4437 2.30979 26.1195C2.27594 26.2667 2.32542 26.5349 2.42568 26.5948C3.31109 27.1247 4.21735 27.6208 5.14182 28.1391C7.67698 24.0075 10.1887 19.9151 12.7199 15.7901C10.4361 14.0193 8.18349 12.2719 5.89443 10.4958ZM44.9726 27.8982C45.8476 27.4047 46.6744 26.9242 47.5168 26.4737C47.8072 26.3187 47.8892 26.1781 47.8085 25.8318C47.0585 22.6221 46.3358 19.406 45.6015 16.1924C45.1535 14.2315 44.6991 12.2732 44.2317 10.2432C41.927 12.031 39.6653 13.7849 37.3892 15.5505C39.9296 19.6859 42.4335 23.7641 44.9726 27.8982ZM16.0377 29.5714C15.7278 29.7263 15.3723 29.8292 15.1171 30.0466C13.9686 31.0271 12.8449 32.0349 11.7213 33.0427C11.1015 33.5987 11.0559 34.376 11.5806 34.9932C12.1197 35.6286 12.9296 35.7224 13.5676 35.1729C14.7473 34.156 15.9101 33.1169 17.0676 32.0727C17.5246 31.6599 17.6288 31.1 17.4061 30.5622C17.177 30.018 16.6509 29.656 16.0377 29.5714ZM16.0715 38.0648C16.3476 37.9463 16.6731 37.8865 16.8918 37.7016C17.9569 36.7992 19.0064 35.8786 20.0351 34.9333C20.5728 34.4385 20.5689 33.6378 20.091 33.0844C19.6197 32.5388 18.8033 32.4229 18.2538 32.8904C17.177 33.8044 16.1236 34.7458 15.0793 35.6977C14.6496 36.0896 14.6028 36.6052 14.802 37.1352C15.0038 37.6664 15.4856 37.9893 16.0715 38.0648ZM8.26422 31.057C8.35667 31.7133 8.65224 32.1417 9.17828 32.3878C9.69521 32.6286 10.1952 32.5427 10.6301 32.1651C11.3293 31.557 12.022 30.9424 12.716 30.3292C13.3658 29.7562 13.4595 28.9516 12.9478 28.3448C12.414 27.7107 11.5989 27.6638 10.9192 28.2484C10.2056 28.863 9.48297 29.4711 8.80979 30.1286C8.5624 30.3708 8.44261 30.7432 8.26422 31.057ZM18.7095 38.3995C18.7942 39.0089 19.039 39.4281 19.522 39.6859C20.0077 39.945 20.5168 39.9268 20.9413 39.5805C21.6314 39.0167 22.3046 38.4281 22.9478 37.8109C23.4491 37.3305 23.4296 36.518 22.966 35.9971C22.4869 35.4581 21.6783 35.3708 21.1262 35.8344C20.4804 36.376 19.8384 36.9281 19.2382 37.5193C19.0025 37.7523 18.8827 38.1026 18.7095 38.3995Z" fill="#060606"/>
</svg>
