<svg width="39" height="39" viewBox="0 0 39 39" fill="none" xmlns="http://www.w3.org/2000/svg">
<path d="M13.65 26.5005L19.5 20.6505L25.35 26.5005L26.5005 25.35L20.6505 19.5L26.5005 13.65L25.35 12.4995L19.5 18.3495L13.65 12.4995L12.4995 13.65L18.3495 19.5L12.4995 25.35L13.65 26.5005ZM19.5049 34.125C17.4834 34.125 15.5821 33.7415 13.8011 32.9745C12.0212 32.2064 10.4726 31.1642 9.15525 29.848C7.83792 28.5317 6.79521 26.9848 6.02713 25.207C5.25904 23.4293 4.875 21.5285 4.875 19.5049C4.875 17.4812 5.25904 15.58 6.02713 13.8011C6.79413 12.0212 7.83467 10.4726 9.14875 9.15525C10.4628 7.83792 12.0104 6.79521 13.7914 6.02713C15.5724 5.25904 17.4736 4.875 19.4951 4.875C21.5166 4.875 23.4179 5.25904 25.1989 6.02713C26.9788 6.79413 28.5274 7.83521 29.8447 9.15037C31.1621 10.4655 32.2048 12.0131 32.9729 13.793C33.741 15.5729 34.125 17.4736 34.125 19.4951C34.125 21.5166 33.7415 23.4179 32.9745 25.1989C32.2075 26.9799 31.1653 28.5285 29.848 29.8447C28.5307 31.161 26.9837 32.2037 25.207 32.9729C23.4303 33.742 21.5296 34.1261 19.5049 34.125ZM19.5 32.5C23.1292 32.5 26.2031 31.2406 28.7219 28.7219C31.2406 26.2031 32.5 23.1292 32.5 19.5C32.5 15.8708 31.2406 12.7969 28.7219 10.2781C26.2031 7.75937 23.1292 6.5 19.5 6.5C15.8708 6.5 12.7969 7.75937 10.2781 10.2781C7.75937 12.7969 6.5 15.8708 6.5 19.5C6.5 23.1292 7.75937 26.2031 10.2781 28.7219C12.7969 31.2406 15.8708 32.5 19.5 32.5Z" fill="white"/>
</svg>
