<svg width="26" height="30" viewBox="0 0 26 30" fill="none" xmlns="http://www.w3.org/2000/svg">
<path d="M22.2945 5.08203H3.70703C2.87823 5.08203 2.08337 5.41127 1.49732 5.99732C0.911271 6.58337 0.582031 7.37823 0.582031 8.20703V21.7945C0.582031 22.6233 0.911271 23.4182 1.49732 24.0042C2.08337 24.5903 2.87823 24.9195 3.70703 24.9195H22.2945C23.1233 24.9195 23.9182 24.5903 24.5042 24.0042C25.0903 23.4182 25.4195 22.6233 25.4195 21.7945V8.20703C25.4195 7.37823 25.0903 6.58337 24.5042 5.99732C23.9182 5.41127 23.1233 5.08203 22.2945 5.08203ZM3.70703 6.33203H22.2945C22.7676 6.33096 23.2233 6.50994 23.5692 6.83263C23.9151 7.15532 24.1253 7.59754 24.157 8.06953C21.0695 9.71953 17.9695 11.357 14.8695 13.007C14.4508 13.271 14.007 13.493 13.5445 13.6695C13.1819 13.7413 12.8082 13.735 12.4482 13.6509C12.0882 13.5669 11.7503 13.407 11.457 13.182C9.68203 12.2445 7.90703 11.2945 6.14453 10.357C4.71953 9.60703 3.26953 8.84453 1.84453 8.08203C1.87323 7.60782 2.08205 7.1625 2.42828 6.83719C2.7745 6.51187 3.23195 6.33116 3.70703 6.33203ZM24.1695 21.7945C24.1695 22.2918 23.972 22.7687 23.6204 23.1204C23.2687 23.472 22.7918 23.6695 22.2945 23.6695H3.70703C3.20975 23.6695 2.73284 23.472 2.38121 23.1204C2.02958 22.7687 1.83203 22.2918 1.83203 21.7945V9.50078C4.78203 11.0508 7.71953 12.6258 10.6695 14.1883C11.1964 14.5117 11.7639 14.7639 12.357 14.9383C13.225 15.0796 14.1147 14.8973 14.857 14.4258C16.6695 13.4758 18.4695 12.5133 20.282 11.5633C21.582 10.8633 22.8695 10.1883 24.1695 9.50078V21.7945Z" fill="black"/>
</svg>
