<svg width="20" height="30" viewBox="0 0 20 30" fill="none" xmlns="http://www.w3.org/2000/svg">
<path d="M5.96044 2.73991C7.24856 2.56241 8.33169 3.35054 8.84419 4.37491L10.1048 6.89554C10.8042 8.29429 10.4023 9.93554 9.34231 10.968C8.71606 11.5774 8.08669 12.2737 7.72169 12.888C7.6974 12.9318 7.68985 12.9829 7.70044 13.0318C8.03794 14.8605 9.27731 16.6674 10.3829 17.963C10.4387 18.0246 10.5113 18.0685 10.5917 18.0893C10.6721 18.11 10.7568 18.1068 10.8354 18.0799L13.3198 17.3037C13.989 17.0945 14.7077 17.1052 15.3704 17.3342C16.0331 17.5632 16.605 17.9984 17.0023 18.5762L18.8004 21.1918C19.2879 21.9012 19.5348 22.8637 19.1611 23.7893C18.8273 24.6162 18.1817 25.8087 17.0073 26.6018C15.7886 27.4243 14.1192 27.7368 11.9348 26.988C9.49419 26.1505 7.18856 24.0505 5.27669 21.3649C3.35356 18.6624 1.77044 15.2868 0.810438 11.7668C-0.0970624 8.44366 0.450438 6.20616 1.73919 4.76554C2.98231 3.37554 4.76356 2.90429 5.96044 2.73991ZM7.44606 5.07366C7.16044 4.50304 6.65106 4.22116 6.17294 4.28679C5.10981 4.43304 3.77856 4.82866 2.90419 5.80679C2.07544 6.73366 1.50169 8.36616 2.31669 11.3555C3.23231 14.7105 4.73981 17.9168 6.54919 20.4587C8.36981 23.0168 10.4386 24.823 12.4411 25.5099C14.2254 26.1218 15.3723 25.8193 16.1323 25.3068C16.9361 24.7637 17.4304 23.9005 17.7117 23.2043C17.8404 22.8855 17.7848 22.473 17.5123 22.0768L15.7142 19.4618C15.5061 19.1592 15.2066 18.9311 14.8595 18.8111C14.5124 18.6911 14.136 18.6854 13.7854 18.7949L11.3011 19.5712C10.5586 19.803 9.72231 19.5962 9.19419 18.9774C8.04356 17.6293 6.57731 15.5618 6.16294 13.3149C6.08379 12.8938 6.16019 12.4583 6.37794 12.0893C6.85169 11.293 7.60169 10.4812 8.25106 9.84866C8.88544 9.23116 9.06544 8.31241 8.70669 7.59429L7.44606 5.07366Z" fill="black"/>
</svg>
