<svg width="26" height="30" viewBox="0 0 26 30" fill="none" xmlns="http://www.w3.org/2000/svg">
<path d="M8.96044 2.73991C10.2486 2.56241 11.3317 3.35054 11.8442 4.37491L13.1048 6.89554C13.8042 8.29429 13.4023 9.93554 12.3423 10.968C11.7161 11.5774 11.0867 12.2737 10.7217 12.888C10.6974 12.9318 10.6898 12.9829 10.7004 13.0318C11.0379 14.8605 12.2773 16.6674 13.3829 17.963C13.4387 18.0246 13.5113 18.0685 13.5917 18.0893C13.6721 18.11 13.7568 18.1068 13.8354 18.0799L16.3198 17.3037C16.989 17.0945 17.7077 17.1052 18.3704 17.3342C19.0331 17.5632 19.605 17.9984 20.0023 18.5762L21.8004 21.1918C22.2879 21.9012 22.5348 22.8637 22.1611 23.7893C21.8273 24.6162 21.1817 25.8087 20.0073 26.6018C18.7886 27.4243 17.1192 27.7368 14.9348 26.988C12.4942 26.1505 10.1886 24.0505 8.27669 21.3649C6.35356 18.6624 4.77044 15.2868 3.81044 11.7668C2.90294 8.44366 3.45044 6.20616 4.73919 4.76554C5.98231 3.37554 7.76356 2.90429 8.96044 2.73991ZM10.4461 5.07366C10.1604 4.50304 9.65106 4.22116 9.17294 4.28679C8.10981 4.43304 6.77856 4.82866 5.90419 5.80679C5.07544 6.73366 4.50169 8.36616 5.31669 11.3555C6.23231 14.7105 7.73981 17.9168 9.54919 20.4587C11.3698 23.0168 13.4386 24.823 15.4411 25.5099C17.2254 26.1218 18.3723 25.8193 19.1323 25.3068C19.9361 24.7637 20.4304 23.9005 20.7117 23.2043C20.8404 22.8855 20.7848 22.473 20.5123 22.0768L18.7142 19.4618C18.5061 19.1592 18.2066 18.9311 17.8595 18.8111C17.5124 18.6911 17.136 18.6854 16.7854 18.7949L14.3011 19.5712C13.5586 19.803 12.7223 19.5962 12.1942 18.9774C11.0436 17.6293 9.57731 15.5618 9.16294 13.3149C9.08379 12.8938 9.16019 12.4583 9.37794 12.0893C9.85169 11.293 10.6017 10.4812 11.2511 9.84866C11.8854 9.23116 12.0654 8.31241 11.7067 7.59429L10.4461 5.07366Z" fill="black"/>
</svg>
