<svg width="200" height="141" viewBox="0 0 200 141" fill="none" xmlns="http://www.w3.org/2000/svg">
<path d="M198.758 2.21094H2.32422V138.775H198.758V2.21094Z" fill="white"/>
<path d="M88.7337 28.6772C88.71 28.8818 88.5252 29.0283 88.322 29.0045C88.1174 28.9808 87.971 28.7974 87.9947 28.5928L89.251 17.7967C89.2616 17.7056 89.3025 17.6278 89.3632 17.5697C89.6245 17.2965 94.2433 12.6237 102.928 13.9288C102.958 13.9328 102.981 13.938 103.165 13.9671C107.512 14.6533 110.645 16.0535 112.67 17.4206C114.79 18.8511 115.735 20.3292 115.637 20.9758V20.9771V20.9798C115.636 20.9903 115.634 20.9996 115.631 21.0101C115.454 22.2203 114.558 33.2024 114.555 33.2341C114.538 33.4386 114.36 33.5917 114.154 33.5759C114.014 33.5653 113.897 33.4769 113.844 33.3568C113.651 32.9886 110.615 27.4078 103.171 26.4906C95.4058 25.5339 89.8712 28.61 89.8554 28.6179C89.6745 28.7156 89.4489 28.6496 89.3513 28.4701C89.2536 28.2893 89.3196 28.065 89.5004 27.966C89.5162 27.9568 95.2607 24.7658 103.26 25.7516C109.349 26.5025 112.646 30.2451 113.905 32.0543C114.138 29.2223 114.747 21.9339 114.897 20.9019C114.898 20.89 114.9 20.8781 114.901 20.8662V20.8636C114.964 20.4294 114.112 19.2905 112.254 18.0369C110.299 16.7186 107.271 15.3659 103.052 14.6995C103.024 14.6955 103.006 14.6929 102.818 14.6652C94.9493 13.4814 90.6221 17.3718 89.9755 18.0078L88.7337 28.6772Z" fill="black"/>
<path d="M101.136 26.7901C100.987 26.6502 100.979 26.4153 101.121 26.2649C101.262 26.1158 101.497 26.1092 101.646 26.2491C101.662 26.2635 106.992 31.2466 107.756 35.5394C108.211 38.0916 109.07 48.348 109.204 57.1501C109.288 62.7956 109.07 67.8591 108.249 69.9561C106.246 75.0737 109.953 84.3957 109.964 84.4234C110.038 84.6148 109.944 84.8299 109.753 84.9051C109.561 84.979 109.346 84.8853 109.271 84.694C109.26 84.6663 105.447 75.0776 107.557 69.6855C108.339 67.6863 108.545 62.7217 108.461 57.1594C108.33 48.4035 107.475 38.2038 107.022 35.6675C106.302 31.6201 101.151 26.8046 101.136 26.7901Z" fill="black"/>
<path d="M112.818 33.3506C112.739 33.1619 112.827 32.9441 113.016 32.865C113.205 32.7858 113.423 32.8742 113.502 33.0629C113.515 33.0919 117.754 43.0039 118.444 53.4622C118.784 58.6352 119.381 62.5823 120.274 65.9448C121.165 69.2967 122.355 72.0706 123.885 74.9026C127.043 80.7526 125.745 84.8845 125.741 84.8964C125.682 85.093 125.475 85.2052 125.278 85.1471C125.082 85.0877 124.969 84.8805 125.029 84.6839C125.032 84.6734 126.24 80.8305 123.229 75.255C121.674 72.3755 120.464 69.5514 119.556 66.1335C118.65 62.7262 118.047 58.7329 117.702 53.5097C117.02 43.1754 112.83 33.3796 112.818 33.3506Z" fill="black"/>
<path d="M115.445 70.42C115.368 70.23 115.461 70.0136 115.652 69.937C115.842 69.8605 116.058 69.9529 116.135 70.1442C116.147 70.1759 120.65 81.2557 118.415 86.3126C118.332 86.5 118.113 86.5858 117.924 86.5027C117.737 86.4209 117.651 86.2005 117.734 86.0131C119.842 81.2438 115.458 70.4517 115.445 70.42Z" fill="black"/>
<path d="M118.87 87.6528C118.705 87.7768 118.473 87.7438 118.349 87.5802C118.225 87.4165 118.258 87.183 118.421 87.0603C118.433 87.0511 122.346 84.1557 120.596 80.5491C120.506 80.3643 120.584 80.1413 120.769 80.0529C120.954 79.9632 121.175 80.0411 121.265 80.2258C123.284 84.3879 118.882 87.6435 118.87 87.6528Z" fill="black"/>
<path d="M121.516 78.506C121.42 78.3252 121.489 78.1009 121.669 78.0045C121.85 77.9082 122.074 77.9768 122.171 78.1576C122.179 78.1721 124.912 83.229 124.554 86.0333C124.528 86.2365 124.342 86.3803 124.138 86.3539C123.935 86.3289 123.791 86.1428 123.818 85.9396C124.145 83.3742 121.524 78.5205 121.516 78.506Z" fill="black"/>
<path d="M111.994 67.8765C112.029 67.6746 112.22 67.5374 112.422 67.5717C112.625 67.6047 112.762 67.7973 112.728 67.9993C112.725 68.0177 111.61 74.4814 114.271 78.4707C117.132 82.7623 115.214 86.5972 115.209 86.6077C115.121 86.7925 114.897 86.8703 114.713 86.7806C114.528 86.6922 114.451 86.4691 114.54 86.2844C114.545 86.2752 116.274 82.819 113.65 78.8838C110.826 74.6477 111.992 67.8963 111.994 67.8765Z" fill="black"/>
<path d="M111.078 45.8477C111.036 45.6457 111.164 45.4491 111.365 45.4069C111.565 45.3633 111.763 45.4926 111.805 45.6932C111.813 45.7288 114.556 58.4134 114.441 62.8012C114.436 63.0071 114.265 63.1694 114.061 63.1641C113.856 63.1588 113.694 62.9886 113.699 62.784C113.811 58.4899 111.086 45.8833 111.078 45.8477Z" fill="black"/>
<path d="M112.285 37.9802C112.234 37.7823 112.354 37.579 112.552 37.5275C112.75 37.4761 112.953 37.5962 113.005 37.7941C113.011 37.8218 115.522 47.524 116.325 52.4515C116.358 52.6534 116.221 52.8448 116.017 52.8778C115.815 52.9108 115.624 52.7735 115.591 52.5703C114.794 47.6731 112.293 38.0079 112.285 37.9802Z" fill="black"/>
<path d="M94.0224 26.4014C94.1491 26.239 94.3827 26.21 94.5437 26.3367C94.7047 26.4634 94.7338 26.6957 94.6071 26.858C94.5939 26.8764 89.5884 33.224 89.3641 39.8421C89.2506 43.1834 89.3628 45.6301 89.6874 47.4855C90.0055 49.3027 90.5254 50.5379 91.2328 51.492C91.3951 51.7097 91.5218 51.8839 91.659 52.074C93.203 54.2052 95.907 57.9359 99.1956 57.7392C102.871 57.5202 106.644 53.3039 106.654 53.292C106.793 53.1403 107.026 53.1284 107.178 53.2656C107.33 53.4029 107.342 53.6378 107.205 53.7895C107.193 53.8014 103.219 58.2433 99.2404 58.4809C95.5427 58.7026 92.6883 54.7608 91.0559 52.5094C90.8896 52.2785 90.7339 52.0647 90.6363 51.9341C89.8603 50.8876 89.2942 49.5534 88.955 47.6135C88.6225 45.7132 88.5063 43.219 88.6212 39.8183C88.8547 32.9561 94.0079 26.4198 94.0224 26.4014Z" fill="black"/>
<path d="M92.0508 54.9698C92.0508 54.7653 92.2171 54.5977 92.4229 54.5977C92.6288 54.5977 92.7951 54.7653 92.7951 54.9698V57.7701C92.7951 57.9747 92.6288 58.1423 92.4229 58.1423C92.2171 58.1423 92.0508 57.9747 92.0508 57.7701V54.9698Z" fill="black"/>
<path d="M90.5003 55.6372C90.6059 55.4617 90.8342 55.4049 91.0097 55.5092C91.1852 55.6148 91.2433 55.843 91.1377 56.0186C91.1311 56.0292 88.9273 59.6885 89.7429 60.7429C90.3565 61.536 93.847 65.5293 96.8637 68.3006C98.5265 69.8301 100.011 70.9729 100.683 70.9386C102.665 70.833 107.577 63.5248 107.591 63.5037C107.706 63.3334 107.937 63.2885 108.107 63.4034C108.277 63.5182 108.322 63.7491 108.207 63.9193C108.193 63.9418 103.079 71.5562 100.721 71.6803C99.8157 71.7278 98.1543 70.4965 96.3596 68.8483C93.3138 66.0493 89.7771 62.0032 89.1542 61.1969C88.0272 59.7374 90.4937 55.6491 90.5003 55.6372Z" fill="black"/>
<path d="M99.5367 72.028C99.5182 71.8234 99.6673 71.6427 99.8719 71.6228C100.076 71.6031 100.257 71.7535 100.276 71.958C100.278 71.9818 100.847 82.0151 100.969 81.2471C101.306 79.104 101.306 73.0956 101.306 73.0785C101.306 72.8726 101.473 72.7063 101.677 72.7063C101.883 72.7063 102.048 72.8726 102.048 73.0785C102.048 73.0956 102.048 79.1621 101.701 81.3606C100.895 86.4703 99.5407 72.0689 99.5367 72.028Z" fill="black"/>
<path d="M91.1247 58.0751C90.9571 57.9589 90.9136 57.728 91.031 57.5591C91.1471 57.3902 91.3781 57.3479 91.547 57.4641C91.5655 57.4773 98.1176 62.0288 100.383 61.0285C102.822 59.9503 107.242 57.2873 107.255 57.2793C107.43 57.1737 107.659 57.2318 107.764 57.4073C107.87 57.5842 107.812 57.8112 107.636 57.9167C107.623 57.9246 103.156 60.6154 100.683 61.7094C98.0357 62.8786 91.1458 58.0883 91.1247 58.0751Z" fill="black"/>
<path d="M97.6587 61.9057C97.833 61.7988 98.0613 61.8555 98.1668 62.0297C98.2737 62.2052 98.2169 62.4335 98.0427 62.5391C98.0348 62.5443 95.571 64.0118 95.9326 66.3938C95.9643 66.597 95.8231 66.787 95.6198 66.8174C95.4166 66.8478 95.2279 66.7079 95.1975 66.5047C94.7595 63.6318 97.6495 61.9096 97.6587 61.9057Z" fill="black"/>
<path d="M101.625 61.8672C101.538 61.6824 101.618 61.4608 101.804 61.375C101.989 61.2879 102.211 61.3684 102.297 61.5532C102.303 61.5663 104.345 65.9238 104.217 67.5655C104.202 67.7701 104.024 67.9231 103.818 67.9086C103.614 67.8928 103.461 67.7146 103.475 67.51C103.587 66.0597 101.63 61.8804 101.625 61.8672Z" fill="black"/>
<path d="M87.5176 29.6473C87.6509 29.4929 87.8858 29.4758 88.0415 29.6104C88.1959 29.7437 88.2131 29.9786 88.0785 30.1329C88.0732 30.1396 86.1069 32.3209 85.7704 41.3289C85.4246 50.5216 82.107 61.0459 82.0978 61.0762C82.0371 61.2729 81.8286 61.3824 81.632 61.3217C81.4367 61.2596 81.3271 61.0511 81.3878 60.8559C81.3971 60.8255 84.687 50.3897 85.0274 41.3025C85.3758 32.0293 87.511 29.6553 87.5176 29.6473Z" fill="black"/>
<path d="M88.4345 59.7303C88.6258 59.6591 88.8396 59.7567 88.9109 59.9494C88.9835 60.1408 88.8858 60.3546 88.6931 60.4258C88.6707 60.4351 80.8583 63.3607 76.2844 65.3046C71.8768 67.1772 70.3301 72.4796 70.3262 72.4954C70.2668 72.692 70.0609 72.8042 69.863 72.7448C69.6663 72.6867 69.5542 72.4796 69.6136 72.2829C69.6175 72.2657 71.2605 66.6321 75.9941 64.621C80.5601 62.6797 88.412 59.7395 88.4345 59.7303Z" fill="black"/>
<path d="M85.1899 58.9818C85.1503 59.1837 84.955 59.3157 84.7544 59.2761C84.5525 59.2365 84.4205 59.0412 84.4601 58.8393C84.4641 58.8195 85.8234 51.9071 85.8234 49.7706C85.8234 49.566 85.9909 49.3984 86.1955 49.3984C86.4014 49.3984 86.569 49.566 86.569 49.7706C86.5689 51.9758 85.1939 58.962 85.1899 58.9818Z" fill="black"/>
<path d="M88.3469 33.3458C88.397 33.1465 88.5989 33.0277 88.7982 33.0779C88.9962 33.1281 89.1163 33.33 89.0648 33.5292C89.0582 33.5543 86.799 42.2534 87.3585 45.8337C87.3902 46.0356 87.2516 46.2256 87.0484 46.2573C86.8465 46.2876 86.6565 46.1491 86.6261 45.9472C86.0428 42.2151 88.3403 33.3708 88.3469 33.3458Z" fill="black"/>
<path d="M91.7258 36.0865C91.5226 36.1116 91.3365 35.9664 91.3114 35.7619C91.2863 35.5573 91.4315 35.3726 91.636 35.3475C91.6453 35.3462 94.951 34.9252 96.4514 36.3623C96.5993 36.5048 96.6032 36.7397 96.462 36.8875C96.3195 37.0353 96.0846 37.0406 95.9368 36.8981C94.695 35.7091 91.7351 36.0852 91.7258 36.0865Z" fill="black"/>
<path d="M102.471 37.1934C102.289 37.287 102.065 37.2158 101.971 37.0324C101.877 36.8503 101.948 36.626 102.132 36.5322C102.14 36.5283 104.976 35.0463 106.253 36.1218C106.41 36.2538 106.43 36.4874 106.298 36.6444C106.166 36.8015 105.933 36.8212 105.775 36.6893C104.882 35.937 102.479 37.1894 102.471 37.1934Z" fill="black"/>
<path d="M98.5046 39.5362C98.5099 39.3316 98.6814 39.1706 98.8859 39.1759C99.0905 39.1812 99.2528 39.3514 99.2462 39.5573C99.2462 39.5665 99.1591 42.8142 98.5033 43.8449C98.0506 44.5561 98.9586 45.633 98.9612 45.6356C99.0918 45.794 99.0707 46.0276 98.9123 46.1582C98.7553 46.2889 98.5217 46.2677 98.3911 46.1107C98.3871 46.1054 97.1308 44.6195 97.8777 43.4463C98.4214 42.5912 98.5046 39.5454 98.5046 39.5362Z" fill="black"/>
<path d="M95.4138 48.5598C95.2092 48.5572 95.0443 48.3896 95.0469 48.1851C95.0496 47.9805 95.2172 47.8156 95.423 47.8182C95.4283 47.8182 97.5318 47.8473 99.8412 47.8182C100.93 47.805 102.086 47.8605 102.788 48.0901C103.098 48.1917 103.341 48.3329 103.485 48.5255C103.671 48.775 103.697 49.0613 103.516 49.3899C103.358 49.6763 103.01 50.0075 102.417 50.3876C101.512 50.9669 100.439 51.277 99.4084 51.3694C98.5466 51.4459 97.71 51.3707 97.0237 51.1741C96.2914 50.9643 95.7107 50.6106 95.4125 50.1434C95.2884 49.9494 95.2118 49.737 95.1921 49.5061C95.1736 49.3029 95.3253 49.122 95.5286 49.1049C95.7331 49.0877 95.9126 49.2382 95.9311 49.4427C95.9403 49.547 95.9773 49.6473 96.038 49.7423C96.2346 50.0497 96.6648 50.2965 97.227 50.4575C97.8353 50.6318 98.5769 50.6977 99.3437 50.6304C100.263 50.5473 101.216 50.2728 102.015 49.7621C102.498 49.4519 102.764 49.2144 102.865 49.0323C102.886 48.994 102.894 48.9742 102.891 48.9702C102.846 48.9109 102.729 48.8528 102.558 48.7974C101.942 48.5955 100.871 48.548 99.8491 48.5598C97.5318 48.5889 95.4203 48.5598 95.4138 48.5598Z" fill="black"/>
<path fill-rule="evenodd" clip-rule="evenodd" d="M93.7482 37.3633H94.1454C94.4476 37.3633 94.6944 37.6114 94.6944 37.9136V38.8782C94.6944 39.1804 94.4476 39.4272 94.1454 39.4272H93.7482C93.4473 39.4272 93.1992 39.1804 93.1992 38.8782V37.9136C93.1992 37.6114 93.4473 37.3633 93.7482 37.3633Z" fill="black"/>
<path fill-rule="evenodd" clip-rule="evenodd" d="M103.963 37.8398H104.36C104.661 37.8398 104.909 38.0866 104.909 38.3888V39.3535C104.909 39.6557 104.661 39.9025 104.36 39.9025H103.963C103.661 39.9025 103.414 39.6557 103.414 39.3535V38.3888C103.414 38.0866 103.661 37.8398 103.963 37.8398Z" fill="black"/>
<path d="M87.8337 23.198C88.0198 23.2824 88.1016 23.5028 88.0172 23.6902C87.9314 23.8763 87.711 23.9581 87.5249 23.8723L75.8143 18.5026C75.6283 18.4182 75.5465 18.1978 75.6309 18.0117C75.6639 17.9391 75.718 17.8824 75.7827 17.8441L98.1179 4.8191C98.2274 4.75709 98.3554 4.75443 98.461 4.80457V4.80327L128.395 18.7415C128.581 18.8286 128.661 19.0503 128.576 19.2363C128.541 19.3102 128.484 19.3683 128.419 19.4052L121.134 24.3566C120.964 24.4714 120.734 24.4265 120.619 24.2576C120.505 24.0874 120.548 23.8577 120.718 23.7429L127.488 19.1413L98.3225 5.56076L76.7738 18.1265L87.8337 23.198Z" fill="black"/>
<path d="M114.873 27.3922C114.691 27.4872 114.467 27.4173 114.371 27.2365C114.276 27.0544 114.345 26.83 114.526 26.7337L116.983 25.4378C117.166 25.3415 117.39 25.4114 117.485 25.5935C117.581 25.7743 117.511 26 117.329 26.095L114.873 27.3922Z" fill="black"/>
<path d="M117.586 14.9633C117.586 14.7574 117.752 14.5898 117.958 14.5898C118.164 14.5898 118.33 14.7574 118.33 14.9633V20.7896C118.33 23.0977 118.574 27.4011 118.917 29.7263C118.931 29.8174 118.944 29.9045 118.957 29.9876C118.983 29.0005 118.924 27.4921 118.859 25.8386C118.716 22.1885 118.544 17.8495 119.28 16.3424C119.37 16.1576 119.593 16.0811 119.778 16.1708C119.963 16.2606 120.039 16.4836 119.949 16.6684C119.294 18.0105 119.461 22.2465 119.601 25.8096C119.707 28.47 119.796 30.7676 119.493 31.4037C119.425 31.5436 119.342 31.6399 119.243 31.6966C118.874 31.9064 118.611 31.6794 118.44 31.1159C118.346 30.8124 118.26 30.3703 118.181 29.8346C117.833 27.4751 117.586 23.1202 117.586 20.7896V14.9633Z" fill="black"/>
<path d="M117.74 31.1108C117.832 30.9287 118.055 30.8534 118.237 30.9458C118.421 31.0369 118.496 31.2599 118.404 31.4433C118.401 31.4473 117.628 32.9794 118.145 33.0824C118.437 33.1417 118.839 33.056 119.201 32.8831C119.432 32.7723 119.639 32.6271 119.783 32.4635C119.899 32.3302 119.969 32.189 119.962 32.053C119.957 31.9633 119.919 31.867 119.838 31.764C119.71 31.603 119.738 31.3708 119.899 31.2428C120.06 31.1161 120.292 31.1438 120.42 31.3048C120.604 31.5371 120.692 31.7773 120.704 32.0148C120.722 32.3605 120.58 32.6785 120.341 32.9517C120.13 33.1932 119.838 33.3991 119.52 33.5521C119.024 33.791 118.446 33.9019 118 33.8134C116.518 33.5165 117.737 31.1187 117.74 31.1108Z" fill="black"/>
<path d="M117.778 34.6316C117.677 34.4521 117.742 34.2264 117.922 34.1274C118.101 34.0272 118.327 34.0918 118.426 34.2713C118.427 34.2726 118.732 34.8374 119.381 34.1881C119.925 33.6444 119.404 33.5072 119.402 33.5072C119.204 33.4518 119.088 33.2472 119.144 33.0506C119.198 32.8526 119.402 32.7365 119.6 32.7906C119.605 32.7919 121.363 33.2591 119.908 34.7147C118.556 36.066 117.779 34.6355 117.778 34.6316Z" fill="black"/>
<path d="M118.222 35.8475C118.254 35.6456 118.444 35.507 118.646 35.54C118.849 35.5717 118.988 35.7617 118.955 35.9637C118.952 35.9847 117.809 43.0674 118.803 44.4266C120.012 46.0814 118.792 49.0058 118.788 49.0151C118.711 49.2038 118.494 49.2948 118.304 49.217C118.115 49.1391 118.024 48.9214 118.102 48.7327C118.105 48.7248 119.165 46.1818 118.203 44.8661C117.025 43.2547 118.218 35.8686 118.222 35.8475Z" fill="black"/>
<path d="M119.216 37.6306C119.241 37.4274 119.426 37.2835 119.629 37.3073C119.833 37.3323 119.978 37.5171 119.953 37.7203C119.951 37.7295 119.566 40.7014 120.38 42.4935C121.303 44.5218 119.933 47.9133 119.929 47.9239C119.854 48.1139 119.639 48.2076 119.447 48.1311C119.257 48.0559 119.164 47.8408 119.24 47.6508C119.243 47.6416 120.494 44.5403 119.702 42.7984C118.803 40.8189 119.215 37.6398 119.216 37.6306Z" fill="black"/>
<path d="M120.375 35.0381C120.443 34.8441 120.655 34.7425 120.848 34.8098C121.042 34.8771 121.143 35.0896 121.076 35.2823C121.073 35.2902 120.092 38.0166 121.076 40.8063C121.604 42.3002 121.911 43.6383 121.991 44.7891C122.071 45.9662 121.915 46.9546 121.513 47.7279C121.418 47.91 121.193 47.9813 121.011 47.8863C120.829 47.7913 120.758 47.5669 120.853 47.3848C121.191 46.7356 121.32 45.8777 121.249 44.8392C121.174 43.7558 120.881 42.4849 120.375 41.0531C119.304 38.0166 120.373 35.0474 120.375 35.0381Z" fill="black"/>
<path d="M77.2268 66.3594C77.2201 66.1548 77.3812 65.9833 77.5857 65.9767C77.7903 65.9714 77.9618 66.1311 77.9684 66.3369C77.971 66.4095 78.7668 91.8485 79.1112 97.1152C79.4477 102.278 80.1973 103.454 80.1999 103.457C80.3068 103.632 80.2514 103.861 80.0759 103.968C79.9003 104.074 79.672 104.02 79.5651 103.844C79.5625 103.84 78.7179 102.51 78.3682 97.1614C78.0265 91.9171 77.2281 66.4332 77.2268 66.3594Z" fill="black"/>
<path d="M79.9056 76.6059C79.701 76.6178 79.5242 76.4621 79.5124 76.2575C79.5005 76.053 79.6562 75.8761 79.8621 75.8643C79.9096 75.8616 96.6705 74.8349 98.1208 74.893C98.3254 74.9009 98.4851 75.0738 98.4772 75.2783C98.4693 75.4842 98.2964 75.6439 98.0918 75.6346C96.6864 75.5792 79.9531 76.6033 79.9056 76.6059Z" fill="black"/>
<path d="M103.11 75.2304C102.906 75.2489 102.725 75.0971 102.708 74.8938C102.691 74.6893 102.842 74.5098 103.046 74.4913C103.055 74.4913 106.592 74.1627 106.592 74.8608C106.592 75.0667 106.426 75.2343 106.22 75.2343C106.014 75.2343 105.848 75.0667 105.848 74.8608C105.848 74.7341 103.117 75.2304 103.11 75.2304Z" fill="black"/>
<path d="M62.1673 97.3853C62.2544 97.5714 62.1752 97.7931 61.9905 97.8802C61.8044 97.9673 61.5827 97.8881 61.4956 97.7033C61.4877 97.6862 58.7362 91.8981 58.3271 90.0849C58.0737 88.9619 57.1803 84.2534 56.729 80.3895C56.4611 78.0906 56.3503 76.0689 56.6208 75.2112C56.8517 74.4788 57.051 73.6329 57.2437 72.8134C57.6343 71.1493 58.0025 69.5842 58.6306 69.0893C59.1004 68.7211 60.4729 68.5878 61.8651 68.6459C63.2574 68.7026 64.7116 68.9441 65.3133 69.3242C65.9125 69.7029 66.3678 70.0949 66.5551 70.4961C66.7966 71.012 66.6673 71.4898 65.9929 71.8988C65.3067 72.3145 64.2708 72.2565 63.3233 72.2037C62.8047 72.1746 62.3164 72.1469 61.9799 72.205C61.2105 72.337 60.7895 73.7951 60.7882 73.7991C60.7301 73.9958 60.5243 74.1093 60.3276 74.0512C60.1297 73.9931 60.0175 73.7873 60.0756 73.5906C60.0769 73.584 60.6246 71.6824 61.8545 71.4713C62.2702 71.4001 62.8007 71.4304 63.3628 71.4621C64.2035 71.5083 65.1206 71.5597 65.6089 71.2641C65.8781 71.1005 65.9481 70.95 65.8834 70.8102C65.7633 70.5541 65.4044 70.2612 64.9187 69.9537C64.4265 69.6423 63.1187 69.4403 61.836 69.3876C60.5943 69.3361 59.4158 69.4192 59.0911 69.6739C58.6662 70.0078 58.3284 71.4488 57.9681 72.9823C57.7715 73.8202 57.5683 74.6833 57.3307 75.4342C57.0958 76.1798 57.2107 78.0959 57.468 80.3051C57.9167 84.1479 58.8008 88.8115 59.0516 89.9227C59.4422 91.6514 62.1594 97.3695 62.1673 97.3853Z" fill="black"/>
<path d="M59.4492 76.4839C59.2948 76.6197 59.0612 76.6053 58.9253 76.4522C58.7893 76.2991 58.8039 76.0642 58.9569 75.9283C58.9661 75.9204 62.1531 73.0831 63.1244 72.9538C63.6721 72.8799 65.5605 73.1425 67.024 73.6004C68.0969 73.9356 68.9811 74.4027 69.1064 74.9847C69.4429 76.5406 68.4281 76.4337 68.4255 76.4324C68.2209 76.4152 68.0691 76.2357 68.0876 76.0312C68.1048 75.8266 68.2843 75.6762 68.4888 75.6934C68.4888 75.6934 68.4993 75.7 68.3792 75.1417C68.3212 74.8739 67.6429 74.573 66.8023 74.3104C65.4245 73.8802 63.6984 73.6255 63.2207 73.6888C62.4778 73.7878 59.4571 76.4759 59.4492 76.4839Z" fill="black"/>
<path d="M61.3113 78.2719C61.1464 78.3959 60.9141 78.3629 60.7901 78.1993C60.666 78.0356 60.699 77.8021 60.8626 77.6793C60.8719 77.6714 64.2805 75.0915 64.9892 75.2406C65.3429 75.3158 66.9238 75.8582 68.2554 76.5167C69.0801 76.9245 69.8257 77.3863 70.1768 77.8324C71.2866 79.2497 69.769 79.99 69.7637 79.9926C69.5803 80.0837 69.3586 80.0098 69.2662 79.8264C69.1751 79.6429 69.249 79.4199 69.4325 79.3288C69.4338 79.3275 70.1372 78.9857 69.5908 78.2889C69.3203 77.9432 68.6657 77.5486 67.9267 77.1831C66.6493 76.551 65.1634 76.0377 64.8387 75.969C64.4627 75.8899 61.3193 78.2652 61.3113 78.2719Z" fill="black"/>
<path d="M62.2201 80.9743C62.0644 81.1088 61.8308 81.0917 61.6962 80.9373C61.5616 80.7816 61.5787 80.548 61.7345 80.4134C61.7424 80.4055 64.6535 77.8836 65.8742 78.2228C66.0788 78.2795 66.3546 78.3323 66.6449 78.3891C67.1807 78.492 67.7666 78.6055 68.2113 78.8035C68.8342 79.0806 69.1826 79.4897 68.8856 80.1588C68.5966 80.8067 67.9936 80.8925 67.3575 80.9835C66.8151 81.0614 66.2371 81.1432 66.0774 81.7582C65.8624 82.5882 65.6116 84.8026 65.4955 86.8811C65.4017 88.5531 65.3952 90.1195 65.5641 90.7688C65.9494 92.2561 66.7742 93.577 66.7768 93.581C66.885 93.7552 66.8309 93.9835 66.6567 94.0917C66.4812 94.1986 66.2529 94.1445 66.146 93.9703C66.1434 93.9663 65.2592 92.5517 64.8448 90.9549C64.6548 90.2238 64.6574 88.5755 64.7538 86.8402C64.8725 84.7209 65.1325 82.4444 65.3595 81.5721C65.6432 80.4782 66.4732 80.3594 67.2519 80.2472C67.6808 80.1865 68.0872 80.1284 68.2073 79.8592C68.2759 79.7035 68.1374 79.5821 67.9117 79.4818C67.5514 79.3221 67.0051 79.2152 66.5049 79.1189C66.2041 79.0609 65.9204 79.0054 65.6762 78.9381C64.8409 78.7058 62.228 80.9676 62.2201 80.9743Z" fill="black"/>
<path d="M65.7884 91.3967C65.6472 91.2489 65.6525 91.0126 65.8016 90.8714C65.9494 90.7303 66.1856 90.7368 66.3268 90.8846C66.3321 90.8912 68.4092 93.0291 67.1173 95.1603C66.4706 96.2253 64.3566 98.3077 62.6872 99.2922C62.1831 99.5904 61.708 99.7963 61.3082 99.857C60.7988 99.9349 60.3937 99.8016 60.1548 99.3832C59.9766 99.0718 59.9225 98.6007 60.036 97.9342C60.069 97.7323 60.2604 97.5951 60.4636 97.6294C60.6655 97.6624 60.8027 97.855 60.7684 98.057C60.6866 98.5413 60.7051 98.8487 60.8001 99.0137C60.8621 99.1219 61.0033 99.1509 61.1973 99.1206C61.4982 99.0744 61.8835 98.9042 62.3097 98.6521C63.8907 97.7191 65.8821 95.7687 66.4825 94.7763C67.4762 93.1373 65.7923 91.4019 65.7884 91.3967Z" fill="black"/>
<path d="M59.155 94.4068C59.2461 94.222 59.4691 94.1468 59.6526 94.2379C59.8373 94.3289 59.9125 94.552 59.8215 94.7354C59.8162 94.746 57.875 98.5743 60.3414 101.47C62.5915 104.11 63.6841 107.993 64.3043 110.195C64.4244 110.625 64.5274 110.991 64.6118 111.252C65.0645 112.656 69.7031 112.309 69.7162 112.308C69.9208 112.293 70.099 112.448 70.1134 112.654C70.128 112.858 69.9736 113.036 69.769 113.051C69.7532 113.051 64.5379 113.445 63.9045 111.479C63.8095 111.185 63.7078 110.822 63.5878 110.396C62.9833 108.25 61.9184 104.467 59.7779 101.953C56.9882 98.6785 59.1498 94.4186 59.155 94.4068Z" fill="black"/>
<path d="M69.5489 111.174C69.6531 111.35 69.5964 111.579 69.4209 111.683C69.2915 111.761 69.1358 111.75 69.0197 111.671C68.6739 111.626 67.7766 111.283 64.9723 106.761C61.3934 100.988 61.1545 99.4998 61.1545 99.4959C61.1176 99.294 61.2522 99.1013 61.4541 99.0644C61.656 99.0287 61.8487 99.162 61.8843 99.3639C61.8856 99.3678 62.0994 100.719 65.6045 106.371C68.3982 110.878 68.9419 110.92 69.1372 110.935C69.3127 110.948 69.4183 110.956 69.5489 111.174Z" fill="black"/>
<path d="M60.8628 102.97C60.6675 103.029 60.459 102.919 60.3996 102.723C60.3388 102.528 60.4484 102.319 60.645 102.26C60.6648 102.253 67.7434 100.093 68.9364 96.7844C69.005 96.5917 69.2175 96.4914 69.4101 96.5613C69.6028 96.63 69.7031 96.8424 69.6345 97.0351C68.3135 100.697 60.8839 102.963 60.8628 102.97Z" fill="black"/>
<path d="M67.6547 92.4232C67.5491 92.2477 67.6058 92.0194 67.7813 91.9125C67.9582 91.8069 68.1865 91.8636 68.2921 92.0392C68.3066 92.0629 73.2328 100.196 74.6185 105.969C75.5119 109.694 74.6937 111.078 74.0009 112.251C73.638 112.863 73.316 113.411 73.3714 114.257C73.4255 115.071 73.6459 115.856 73.8307 116.517C74.0326 117.239 74.1962 117.825 74.0933 118.254C73.9548 118.84 73.4889 119.072 72.4015 118.814C69.8176 118.199 68.0374 113.982 68.0321 113.969C67.9516 113.78 68.0401 113.563 68.2288 113.482C68.4175 113.402 68.6353 113.49 68.7157 113.679C68.721 113.689 70.3574 117.561 72.5731 118.089C73.1274 118.221 73.3412 118.201 73.3689 118.083C73.4283 117.836 73.2871 117.333 73.1142 116.715C72.9202 116.02 72.6892 115.193 72.6299 114.306C72.5586 113.23 72.9374 112.59 73.361 111.872C73.9839 110.818 74.7202 109.572 73.8968 106.141C72.54 100.49 67.6692 92.4469 67.6547 92.4232Z" fill="black"/>
<path d="M74.8631 76.3261C74.9066 76.1269 75.1046 76.0002 75.3052 76.0437C75.5058 76.0886 75.6311 76.2866 75.5876 76.4871C75.5863 76.4937 75.0241 78.9654 74.7958 86.3568C74.5582 94.1138 72.2977 94.255 72.291 94.2563C72.0865 94.276 71.9057 94.1269 71.8846 93.9224C71.8648 93.7192 72.0139 93.537 72.2185 93.5173C72.2224 93.5173 73.8364 93.4315 74.0541 86.3357C74.2838 78.8744 74.8618 76.3341 74.8631 76.3261Z" fill="black"/>
<path d="M69.6099 90.412C69.5082 90.5888 69.2813 90.6496 69.1031 90.5479C68.9263 90.4463 68.8656 90.2193 68.9672 90.0425C68.9764 90.0253 72.2399 84.3983 72.9182 77.7367C72.938 77.5335 73.1201 77.3843 73.3233 77.4041C73.5279 77.4239 73.677 77.606 73.6572 77.8093C72.9631 84.6306 69.6191 90.3948 69.6099 90.412Z" fill="black"/>
<path d="M69.1146 83.7584C68.9339 83.6621 68.8653 83.4377 68.9616 83.2569C69.0592 83.0761 69.2836 83.0075 69.4644 83.1038C69.4657 83.1051 70.1757 83.5222 70.5201 80.0818C70.9318 75.9619 72.3227 74.4482 72.3267 74.4443C72.4626 74.2912 72.6975 74.278 72.8506 74.4152C73.0024 74.5512 73.0155 74.786 72.8796 74.9391C72.8757 74.9431 71.6458 76.2772 71.2591 80.1544C70.8025 84.7112 69.1199 83.761 69.1146 83.7584Z" fill="black"/>
<path d="M58.7152 55.48C58.789 55.2887 59.0042 55.1937 59.1942 55.2676C59.3855 55.3414 59.4806 55.5566 59.4067 55.7479C59.4054 55.7519 57.7228 58.1747 58.2599 57.7511C58.3774 57.6574 58.5304 57.4846 58.6875 57.3051C58.9804 56.9712 59.2853 56.6242 59.6139 56.5147C59.9266 56.4104 60.1971 56.4685 60.3924 56.7944C60.4465 56.4698 60.4228 56.0778 60.2341 55.8535C60.1008 55.6978 60.1206 55.4629 60.2776 55.3296C60.4346 55.1976 60.6682 55.2174 60.8015 55.3731C61.2119 55.8601 61.2145 56.6888 61.0589 57.2127C61.0061 57.3909 60.9308 57.5453 60.8424 57.6561C60.6788 57.8593 60.4742 57.9412 60.2394 57.8541C60.0691 57.7894 59.9213 57.6244 59.8223 57.3302C59.7999 57.2615 59.8804 57.2074 59.8474 57.2193C59.7115 57.2642 59.474 57.5347 59.2457 57.7934C59.0675 57.9979 58.8933 58.1959 58.7191 58.3331C57.0973 59.6131 58.7099 55.4919 58.7152 55.48Z" fill="black"/>
<path d="M60.2485 54.328C60.4043 54.4626 60.4214 54.6962 60.2868 54.8519C60.1522 55.0062 59.9186 55.0234 59.7629 54.8901C59.7457 54.8743 53.4681 49.4202 53.6924 51.2505C53.9221 53.1323 56.1826 54.4507 57.2858 55.0946C57.5313 55.2385 57.724 55.3506 57.856 55.4483C58.1212 55.6476 58.1951 55.8508 58.0183 56.0883C57.8956 56.252 57.662 56.285 57.4984 56.1623C57.4482 56.1253 57.4113 56.0778 57.3862 56.025C57.2965 55.963 57.1249 55.8627 56.9098 55.7373C55.7023 55.0326 53.228 53.5889 52.9535 51.3403C52.4916 47.5727 60.2274 54.3082 60.2485 54.328Z" fill="black"/>
<path d="M54.1852 52.4879C54.0018 52.3955 53.9279 52.1738 54.0203 51.9904C54.1113 51.807 54.3343 51.7331 54.5178 51.8241C54.531 51.8307 59.1604 54.1348 59.4309 55.7211C59.4652 55.923 59.3293 56.1157 59.1261 56.1499C58.9242 56.1842 58.7315 56.0483 58.6972 55.8464C58.4913 54.6323 54.1985 52.4932 54.1852 52.4879Z" fill="black"/>
<path d="M60.684 53.99C60.5995 54.1774 60.3791 54.2605 60.1917 54.1761C60.0044 54.0916 59.9212 53.8725 60.0057 53.6852C60.0096 53.6746 61.4678 50.3504 65.2922 52.0119C67.4723 52.9594 68.8421 54.4757 69.4399 55.5353C69.6114 55.8402 69.7249 56.1134 69.7777 56.3324C69.8543 56.6425 69.82 56.8972 69.6788 57.0608C69.5798 57.1756 69.4478 57.2377 69.2855 57.2377C68.9899 57.2377 68.7418 57.1387 68.5399 57.0397C68.4818 57.1281 68.3868 57.1928 68.2733 57.206C68.0688 57.2311 67.884 57.0859 67.8589 56.8813C67.7982 56.401 67.9407 56.2096 68.2522 56.1701C68.425 56.1489 68.5662 56.2215 68.7458 56.3139C68.8316 56.3574 68.9331 56.4089 69.0387 56.4459C68.9938 56.2954 68.9134 56.1093 68.7946 55.8995C68.2535 54.9414 67.0038 53.5651 64.9953 52.6928C61.8505 51.3269 60.6866 53.9821 60.684 53.99Z" fill="black"/>
<path d="M67.5977 56.5379C67.7495 56.6765 67.7614 56.9114 67.6228 57.0631C67.4843 57.2149 67.2493 57.2254 67.0976 57.0882C67.0884 57.079 63.8737 54.1414 63.0079 54.214C62.8034 54.2298 62.6239 54.0781 62.6068 53.8735C62.5896 53.6677 62.7427 53.4882 62.9472 53.471C64.1389 53.3721 67.5885 56.5287 67.5977 56.5379Z" fill="black"/>
<path d="M66.9958 54.4003C67.1792 54.4914 67.2531 54.7144 67.1621 54.8978C67.0697 55.0813 66.8467 55.1551 66.6633 55.0641C66.625 55.0443 66.5709 55.01 66.4877 54.9572C65.8979 54.585 63.5845 53.1229 63.0606 53.8487C62.2556 54.9638 61.4335 56.2689 61.4322 56.2729C61.3226 56.4458 61.093 56.4986 60.9188 56.389C60.7459 56.2795 60.6945 56.0499 60.8027 55.877C60.8053 55.873 61.6354 54.5573 62.4589 53.4159C63.3919 52.1226 66.1737 53.8804 66.8837 54.3291C66.9523 54.3726 66.9932 54.399 66.9958 54.4003Z" fill="black"/>
<path d="M57.6373 58.712C57.7218 58.5246 57.9422 58.4415 58.1283 58.5259C58.3156 58.6104 58.3988 58.8308 58.3143 59.0169C58.3077 59.034 55.7727 64.5951 57.5885 65.6257C57.7126 65.6956 57.83 65.7181 57.9395 65.6996C58.247 65.6481 58.5637 65.3182 58.8659 64.8325C59.2051 64.2849 59.5059 63.5578 59.7527 62.7884C60.3136 61.0306 60.592 59.1066 60.3769 58.613C60.2951 58.4256 60.3809 58.2065 60.5696 58.1247C60.757 58.0429 60.9761 58.1287 61.0579 58.3161C61.3324 58.9429 61.0671 61.1098 60.4588 63.0127C60.1962 63.8362 59.8689 64.6214 59.4967 65.2218C59.085 65.8843 58.6046 66.3422 58.0622 66.432C57.7851 66.4781 57.504 66.4307 57.2216 66.271C54.8093 64.9026 57.6294 58.7292 57.6373 58.712Z" fill="black"/>
<path d="M58.8659 58.6211C58.8765 58.4165 59.052 58.2595 59.2565 58.27C59.4624 58.2819 59.6194 58.4574 59.6076 58.662C59.6063 58.6791 59.3054 64.4843 57.4235 64.2665C57.219 64.2428 57.0725 64.0594 57.0963 63.8548C57.12 63.6502 57.3034 63.5038 57.508 63.5275C58.5967 63.6529 58.8646 58.6356 58.8659 58.6211Z" fill="black"/>
<path d="M61.2229 56.1083C61.0447 56.008 60.9814 55.7824 61.0817 55.6029C61.182 55.4247 61.409 55.3614 61.5871 55.4617C61.5911 55.4643 63.1984 56.3802 65.3851 56.9687C65.7427 57.0651 65.938 57.1152 66.1268 57.1654C67.4504 57.5111 68.4863 57.783 68.6328 58.2462C68.7502 58.617 68.4889 58.9232 67.7143 59.1673C67.1548 59.3455 67.2841 59.7321 67.3778 60.0132C67.4491 60.2283 67.5098 60.4131 67.4636 60.6071C67.3792 60.9568 67.1113 61.1085 66.4316 60.9449C64.7979 60.5516 61.1134 57.3026 61.1029 57.2934C60.9484 57.1575 60.934 56.9239 61.0686 56.7695C61.2031 56.6151 61.4381 56.5992 61.5925 56.7338C61.603 56.7431 65.1529 59.8733 66.6032 60.223C66.7392 60.256 66.7167 60.5424 66.7418 60.4354C66.7444 60.4249 66.7088 60.3536 66.6732 60.2467C66.4792 59.6648 66.2139 58.8624 67.4914 58.4573C67.7645 58.3715 67.9506 58.5575 67.9229 58.4705C67.8991 58.3966 67.0387 58.1709 65.9408 57.8833C65.6505 57.808 65.3456 57.7275 65.1938 57.6866C62.9239 57.0756 61.2282 56.111 61.2229 56.1083Z" fill="black"/>
<path d="M57.1459 50.8923C57.1789 51.0955 57.0417 51.2856 56.8398 51.3186C56.6365 51.3515 56.4465 51.2143 56.4135 51.0124L53.9853 36.1029C53.9655 35.9802 54.0077 35.8628 54.0882 35.7823C54.2387 35.6107 55.2746 34.5272 57.0258 34.6143C58.8139 34.7041 59.8459 35.1897 59.8485 35.1911C59.9726 35.2478 60.0491 35.3639 60.0623 35.4893L62.5736 51.2077C62.6052 51.4109 62.4667 51.6009 62.2648 51.6326C62.0629 51.6656 61.8715 51.527 61.8398 51.3251L59.3602 35.7941C59.0211 35.6688 58.2095 35.418 56.9914 35.3573C55.7866 35.2966 55.0212 35.9023 54.748 36.1636L57.1459 50.8923Z" fill="black"/>
<path d="M63.7233 60.1781C63.6916 59.9762 63.8301 59.7861 64.032 59.7545C64.2353 59.7228 64.424 59.8627 64.4556 60.0646L65.9416 69.5754C65.9719 69.7786 65.8334 69.9686 65.6315 69.999C65.4283 70.0306 65.2395 69.8921 65.2079 69.6888L63.7233 60.1781Z" fill="black"/>
<path d="M59.0414 65.7333C59.0044 65.5314 59.1364 65.3374 59.3383 65.2992C59.5402 65.2622 59.7342 65.3942 59.7724 65.5961L60.2291 67.9952C60.266 68.1971 60.134 68.3911 59.9321 68.4294C59.7302 68.4663 59.5362 68.3344 59.498 68.1325L59.0414 65.7333Z" fill="black"/>
<path d="M119.929 59.7443C119.73 59.6955 119.607 59.4949 119.655 59.2956C119.704 59.0964 119.904 58.9736 120.103 59.0224C120.121 59.0264 126.022 60.4596 128.627 61.675C130.071 62.348 132.007 64.4792 133.749 67.4406C135.237 69.9717 136.599 73.1217 137.401 76.4921C139.108 83.6591 140.711 91.4477 140.716 91.4701C140.757 91.6707 140.628 91.8673 140.426 91.9083C140.226 91.9492 140.03 91.8199 139.989 91.618C139.984 91.5955 138.398 83.8913 136.677 76.6636C135.892 73.3645 134.562 70.287 133.109 67.8166C131.441 64.982 129.63 62.9616 128.313 62.3467C125.778 61.1643 119.945 59.7483 119.929 59.7443Z" fill="black"/>
<path d="M133.024 72.3483C132.965 72.1517 133.074 71.9445 133.271 71.8838C133.466 71.8231 133.675 71.934 133.734 72.1293C133.748 72.1768 138.874 88.6909 140.584 93.5947C142.316 98.558 142.66 104.304 142.661 104.321C142.673 104.525 142.517 104.701 142.313 104.714C142.107 104.726 141.932 104.569 141.92 104.364C141.918 104.349 141.579 98.7031 139.883 93.8402C138.167 88.9192 133.038 72.3958 133.024 72.3483Z" fill="black"/>
<path d="M140.41 104.708C140.206 104.679 140.065 104.49 140.096 104.287C140.126 104.084 140.315 103.943 140.518 103.973C140.532 103.974 145.828 104.697 146.546 111.154C147.089 116.034 140.658 126.391 137.097 132.125C136.048 133.813 135.253 135.097 134.973 135.689C134.886 135.874 134.664 135.953 134.478 135.866C134.293 135.779 134.214 135.557 134.301 135.371C134.599 134.738 135.406 133.439 136.465 131.732C139.978 126.076 146.32 115.86 145.807 111.236C145.153 105.355 140.423 104.71 140.41 104.708Z" fill="black"/>
<path d="M131.872 118.337C131.839 118.134 131.976 117.944 132.178 117.911C132.381 117.878 132.571 118.015 132.604 118.217C132.611 118.256 134.795 131.358 133.598 133.752C133.507 133.936 133.284 134.01 133.101 133.919C132.917 133.827 132.843 133.604 132.934 133.421C134.023 131.246 131.877 118.374 131.872 118.337Z" fill="black"/>
<path d="M134.382 117.339C134.588 117.321 134.767 117.473 134.784 117.679C134.8 117.884 134.648 118.063 134.444 118.08C134.309 118.091 87.5446 122.027 86.5152 121.785C86.0428 121.674 84.9501 120.878 83.8271 119.954C82.3266 118.722 80.7259 117.228 80.5108 116.871C80.1057 116.196 80.6863 109.075 80.6876 109.054C80.7034 108.849 80.8829 108.696 81.0875 108.712C81.292 108.728 81.4451 108.907 81.4293 109.112C81.428 109.132 80.8684 116.024 81.1482 116.49C81.3289 116.791 82.8505 118.191 84.2982 119.381C85.3473 120.243 86.3331 120.977 86.6841 121.06C87.596 121.275 134.248 117.349 134.382 117.339Z" fill="black"/>
<path d="M133.687 108.079C133.89 108.06 134.071 108.211 134.089 108.415C134.108 108.619 133.957 108.799 133.753 108.818C133.621 108.83 87.7574 113.001 86.2214 112.018C85.968 111.854 85.613 111.643 85.2145 111.404C83.4527 110.35 80.8372 108.785 80.5205 107.571C80.3371 106.867 80.2011 104.928 80.1629 103.146C80.1246 101.427 80.188 99.8166 80.3978 99.5025C80.8517 98.8229 83.5571 98.8242 83.5649 98.8242C83.7695 98.8242 83.9357 98.9892 83.9357 99.195C83.9357 99.3996 83.7694 99.5658 83.5649 99.5658C83.5583 99.5658 81.2502 99.5672 81.018 99.9156C80.8953 100.099 80.8689 101.54 80.9045 103.132C80.9428 104.866 81.0695 106.734 81.2384 107.385C81.4786 108.303 83.9397 109.776 85.5959 110.767C85.9892 111.002 86.3376 111.21 86.62 111.393C87.9396 112.237 133.555 108.091 133.687 108.079Z" fill="black"/>
<path d="M135.465 98.8258C135.668 98.8073 135.849 98.9577 135.867 99.1609C135.886 99.3655 135.735 99.5463 135.531 99.5648C135.399 99.5766 89.3085 103.855 87.5322 103.381C85.7652 102.91 81.9039 100.547 81.8933 100.54C81.7178 100.433 81.6624 100.205 81.7692 100.029C81.8761 99.8538 82.1044 99.7983 82.2799 99.9052C82.2905 99.9118 86.0621 102.22 87.7222 102.663C89.3731 103.103 135.331 98.8377 135.465 98.8258Z" fill="black"/>
<path d="M119.108 99.23C119.312 99.2036 119.499 99.3461 119.525 99.5494C119.552 99.7526 119.408 99.9386 119.205 99.9664C119.115 99.977 87.9751 104.109 85.7871 101.252C83.64 98.4501 84.5097 89.9317 84.5123 89.908C84.5308 89.7219 84.6839 89.5807 84.8646 89.5728C84.9953 89.5662 130.539 87.3967 131.481 87.8361C132.375 88.2531 135.305 90.3791 135.312 90.3857C135.479 90.5058 135.516 90.738 135.396 90.9043C135.32 91.0085 135.202 91.0613 135.083 91.0573L86.794 92.5881C86.7953 93.7534 86.8389 97.521 87.3588 99.9795C87.401 100.18 87.2717 100.377 87.0711 100.419C86.8705 100.46 86.6739 100.331 86.6316 100.13C86.0101 97.1924 86.051 92.4654 86.0536 92.2358C86.0497 92.0326 86.2093 91.8637 86.4126 91.8571L133.985 90.35C133.065 89.7007 131.693 88.7546 131.167 88.5091C130.432 88.166 89.2815 90.1072 85.2223 90.2999C85.0916 91.8386 84.639 98.5306 86.377 100.8C88.301 103.313 119.02 99.2419 119.108 99.23Z" fill="black"/>
<path d="M86.9062 104.399C86.9062 104.194 87.0725 104.027 87.2784 104.027C87.4843 104.027 87.6506 104.194 87.6506 104.399V108.626C87.6506 108.832 87.4843 108.998 87.2784 108.998C87.0725 108.998 86.9062 108.832 86.9062 108.626V104.399Z" fill="black"/>
<path d="M80.8594 100.518C80.8555 100.312 81.0191 100.145 81.2237 100.141C81.4296 100.138 81.5971 100.302 81.6011 100.506C81.6011 100.523 81.7133 106.772 82.699 107.462C83.7099 108.171 86.5261 109.897 87.0922 110.244L133.532 107.166C133.738 107.155 133.914 107.31 133.927 107.515C133.94 107.719 133.784 107.896 133.58 107.909L87.0222 110.993C86.9497 110.999 86.8731 110.982 86.8058 110.939C86.7966 110.934 83.4341 108.883 82.2741 108.07C80.9756 107.161 80.8594 100.537 80.8594 100.518Z" fill="black"/>
<path d="M82.4171 110.557C82.4857 110.363 82.6982 110.261 82.8908 110.33C83.0848 110.397 83.1865 110.61 83.1178 110.804C83.1152 110.814 81.8668 114.289 83.0769 116.131C83.684 117.056 84.6975 118.02 85.5249 118.808C86.0712 119.327 86.5397 119.774 86.7904 120.113C87.0913 120.519 87.1414 120.849 86.8155 121.089C86.6519 121.212 86.4183 121.178 86.2969 121.013C86.1742 120.848 86.2098 120.615 86.3734 120.493C86.479 120.415 86.2151 120.584 86.194 120.555C85.9828 120.268 85.5342 119.842 85.0129 119.346C84.1591 118.533 83.1152 117.539 82.458 116.539C81.0407 114.384 82.4131 110.568 82.4171 110.557Z" fill="black"/>
<path d="M85.9432 113.682C85.9234 113.477 86.0725 113.296 86.2771 113.275C86.4803 113.255 86.6624 113.405 86.6822 113.609L87.2536 119.322C87.2747 119.525 87.1243 119.707 86.9211 119.727C86.7165 119.747 86.5344 119.598 86.5146 119.394L85.9432 113.682Z" fill="black"/>
<path d="M107.394 120.731C107.412 120.528 107.593 120.378 107.796 120.396C108.001 120.415 108.151 120.594 108.133 120.799C108.131 120.804 107.951 122.552 109.328 122.423C110.093 122.352 111.152 122.521 112.225 122.692C113.755 122.936 115.31 123.185 115.714 122.742C115.853 122.591 116.088 122.58 116.239 122.717C116.391 122.856 116.402 123.091 116.265 123.243C115.59 123.982 113.834 123.7 112.109 123.426C111.082 123.261 110.066 123.1 109.396 123.162C107.118 123.376 107.392 120.739 107.394 120.731Z" fill="black"/>
<path d="M96.6124 121.447C96.4251 121.365 96.3393 121.144 96.4224 120.957C96.5055 120.768 96.7246 120.684 96.9133 120.766C96.9265 120.772 101.566 122.828 103.868 122.233C105.7 121.758 108.408 122.902 110.684 123.861C111.605 124.251 112.452 124.608 113.12 124.806C114.379 125.178 116.798 125.483 118.952 125.502C120.629 125.516 122.121 125.365 122.71 124.945C122.878 124.826 123.11 124.866 123.229 125.033C123.347 125.2 123.308 125.432 123.141 125.551C122.412 126.069 120.761 126.259 118.946 126.243C116.727 126.225 114.223 125.908 112.91 125.519C112.211 125.312 111.341 124.945 110.396 124.546C108.225 123.629 105.643 122.539 104.054 122.951C101.499 123.612 96.627 121.453 96.6124 121.447Z" fill="black"/>
<path d="M120.709 119.637C120.556 119.499 120.544 119.264 120.681 119.112C120.819 118.959 121.054 118.946 121.207 119.084C121.219 119.095 125.311 122.741 124.747 125.184C124.482 126.333 124.213 127.199 123.867 127.769C123.458 128.445 122.951 128.732 122.264 128.608C122.062 128.573 121.927 128.379 121.963 128.178C122 127.976 122.192 127.842 122.394 127.879C122.733 127.939 122.999 127.77 123.232 127.385C123.529 126.895 123.773 126.097 124.023 125.019C124.487 123.006 120.72 119.646 120.709 119.637Z" fill="black"/>
<path d="M120.182 127.398C120.376 127.468 120.475 127.681 120.403 127.874C120.332 128.068 120.12 128.167 119.926 128.096C119.92 128.094 118.065 127.403 118.04 127.77C118.04 127.778 118.047 127.768 118.058 127.783C118.202 127.989 118.619 128.225 119.174 128.431C119.766 128.65 120.489 128.817 121.194 128.864C121.986 128.915 122.746 128.818 123.241 128.47C124.972 127.259 132.008 122.957 132.028 122.945C132.204 122.838 132.432 122.894 132.539 123.069C132.646 123.245 132.59 123.473 132.415 123.58C132.395 123.592 125.363 127.891 123.666 129.079C123.015 129.534 122.089 129.667 121.148 129.605C120.366 129.554 119.569 129.37 118.917 129.129C118.229 128.874 117.682 128.539 117.45 128.208C117.34 128.053 117.288 127.89 117.298 127.723C117.388 126.348 120.174 127.395 120.182 127.398Z" fill="black"/>
<path d="M118.795 126.565C118.627 126.451 118.582 126.22 118.696 126.049C118.811 125.88 119.042 125.836 119.211 125.95L122.068 127.893C122.237 128.008 122.282 128.239 122.167 128.408C122.052 128.578 121.821 128.621 121.651 128.507L118.795 126.565Z" fill="black"/>
<path d="M80.4459 112.783C80.5 112.584 80.7046 112.468 80.9025 112.521C81.1018 112.575 81.2179 112.779 81.1651 112.977C81.1546 113.013 77.8752 124.886 81.1414 131.843C81.2285 132.029 81.148 132.249 80.9619 132.337C80.7771 132.424 80.5555 132.343 80.4697 132.157C77.0848 124.948 80.4367 112.817 80.4459 112.783Z" fill="black"/>
<path d="M60.9177 108.949C60.9679 108.75 61.1698 108.63 61.369 108.679C61.5683 108.729 61.6897 108.931 61.6396 109.13C61.6343 109.151 59.8263 116.27 60.1642 120.55C60.5007 124.798 65.4626 132.467 65.4758 132.489C65.5866 132.662 65.5365 132.892 65.3636 133.003C65.1921 133.114 64.9611 133.063 64.8503 132.891C64.8358 132.868 59.7736 125.044 59.4225 120.609C59.0755 116.206 60.9125 108.971 60.9177 108.949Z" fill="black"/>
<path d="M63.7652 114.801C63.7375 114.598 63.88 114.41 64.0832 114.383C64.2864 114.354 64.4739 114.496 64.5016 114.699C64.5082 114.744 66.646 130.258 69.6482 131.546C69.8369 131.627 69.9253 131.844 69.8449 132.033C69.7644 132.222 69.5466 132.31 69.3579 132.23C65.9637 130.774 63.7718 114.847 63.7652 114.801Z" fill="black"/>
<path d="M133.911 91.8726C133.894 91.668 134.045 91.4886 134.249 91.4701C134.453 91.4529 134.633 91.6034 134.65 91.8079L135.222 98.1489C135.239 98.3535 135.089 98.5329 134.884 98.55C134.681 98.5685 134.5 98.4168 134.483 98.2123L133.911 91.8726Z" fill="black"/>
<path d="M132.143 100.343C132.118 100.138 132.264 99.9537 132.468 99.9286C132.673 99.9035 132.857 100.049 132.882 100.253L133.569 105.794C133.592 105.998 133.447 106.184 133.244 106.209C133.039 106.234 132.853 106.089 132.83 105.884L132.143 100.343Z" fill="black"/>
<path d="M131.857 110.155C131.839 109.949 131.99 109.77 132.195 109.751C132.401 109.734 132.58 109.886 132.599 110.09L133.112 116.032C133.13 116.236 132.979 116.417 132.774 116.434C132.568 116.453 132.389 116.301 132.37 116.095L131.857 110.155Z" fill="black"/>
</svg>
