<svg width="216" height="152" viewBox="0 0 216 152" fill="none" xmlns="http://www.w3.org/2000/svg">
<path d="M215.01 2.23438H2.16016V150.211H215.01V2.23438Z" fill="white"/>
<path d="M95.7957 30.9055C95.77 31.1272 95.5697 31.2859 95.3496 31.2601C95.1279 31.2344 94.9692 31.0357 94.9949 30.814L96.3562 19.1157C96.3677 19.017 96.412 18.9327 96.4778 18.8697C96.7609 18.5737 101.766 13.5103 111.176 14.9246C111.209 14.9289 111.233 14.9346 111.433 14.966C116.144 15.7096 119.538 17.2268 121.732 18.7082C124.03 20.2582 125.054 21.8598 124.948 22.5605V22.5619V22.5648C124.946 22.5762 124.943 22.5862 124.941 22.5977C124.749 23.9089 123.778 35.8089 123.775 35.8432C123.757 36.0648 123.564 36.2307 123.341 36.2135C123.189 36.2021 123.062 36.1063 123.004 35.9761C122.796 35.5772 119.505 29.53 111.439 28.5362C103.025 27.4995 97.0282 30.8326 97.0111 30.8412C96.8151 30.9471 96.5706 30.8755 96.4648 30.6811C96.359 30.4851 96.4305 30.2421 96.6264 30.1348C96.6436 30.1248 102.868 26.6672 111.536 27.7354C118.134 28.549 121.706 32.6043 123.07 34.5648C123.323 31.4961 123.983 23.5986 124.146 22.4804C124.147 22.4675 124.148 22.4547 124.15 22.4417V22.4389C124.219 21.9684 123.295 20.7344 121.281 19.3759C119.164 17.9474 115.882 16.4818 111.31 15.7596C111.28 15.7553 111.26 15.7525 111.057 15.7225C102.531 14.4398 97.8419 18.6552 97.1412 19.3445L95.7957 30.9055Z" fill="black" fill-opacity="0.5"/>
<path d="M109.228 28.8633C109.067 28.7117 109.058 28.4571 109.211 28.2942C109.364 28.1326 109.619 28.1254 109.78 28.277C109.797 28.2927 115.573 33.6922 116.401 38.3438C116.894 41.1093 117.825 52.2227 117.97 61.7605C118.061 67.8777 117.825 73.3644 116.936 75.6366C114.765 81.1819 118.782 91.283 118.793 91.313C118.873 91.5203 118.772 91.7534 118.564 91.8349C118.357 91.9149 118.124 91.8134 118.042 91.6061C118.031 91.5761 113.898 81.1861 116.185 75.3434C117.033 73.1771 117.256 67.7977 117.164 61.7705C117.023 52.2828 116.096 41.2308 115.606 38.4825C114.825 34.0969 109.244 28.879 109.228 28.8633Z" fill="black" fill-opacity="0.5"/>
<path d="M121.887 35.9678C121.801 35.7633 121.897 35.5274 122.101 35.4416C122.306 35.3558 122.542 35.4516 122.628 35.6561C122.642 35.6875 127.235 46.4278 127.983 57.7601C128.352 63.3654 128.998 67.6424 129.966 71.2859C130.931 74.9179 132.221 77.9236 133.878 80.9923C137.3 87.3312 135.895 91.8084 135.89 91.8212C135.826 92.0343 135.601 92.1558 135.388 92.0929C135.175 92.0286 135.054 91.8041 135.118 91.5911C135.121 91.5796 136.431 87.4156 133.168 81.3742C131.483 78.254 130.172 75.194 129.188 71.4904C128.206 67.7984 127.552 63.4713 127.179 57.8117C126.44 46.6137 121.9 35.9993 121.887 35.9678Z" fill="black" fill-opacity="0.5"/>
<path d="M124.732 76.1345C124.649 75.9286 124.749 75.6941 124.957 75.6112C125.163 75.5282 125.397 75.6283 125.48 75.8356C125.493 75.87 130.372 87.8757 127.951 93.3553C127.861 93.5583 127.624 93.6513 127.419 93.5612C127.216 93.4725 127.123 93.2337 127.213 93.0306C129.497 87.8629 124.747 76.1688 124.732 76.1345Z" fill="black" fill-opacity="0.5"/>
<path d="M128.443 94.8105C128.264 94.945 128.013 94.9092 127.878 94.7319C127.744 94.5546 127.78 94.3015 127.957 94.1685C127.97 94.1585 132.21 91.0212 130.314 87.1132C130.216 86.913 130.301 86.6714 130.501 86.5756C130.701 86.4783 130.941 86.5627 131.039 86.7629C133.226 91.2729 128.456 94.8005 128.443 94.8105Z" fill="black" fill-opacity="0.5"/>
<path d="M131.313 84.8992C131.208 84.7033 131.283 84.4603 131.479 84.3558C131.675 84.2515 131.918 84.3258 132.022 84.5217C132.031 84.5374 134.992 90.0169 134.605 93.0555C134.576 93.2757 134.374 93.4316 134.154 93.403C133.934 93.3758 133.778 93.1742 133.807 92.954C134.161 90.1743 131.321 84.9149 131.313 84.8992Z" fill="black" fill-opacity="0.5"/>
<path d="M120.995 73.379C121.032 73.1602 121.239 73.0115 121.458 73.0487C121.678 73.0844 121.827 73.2932 121.79 73.512C121.787 73.532 120.579 80.5359 123.461 84.8586C126.562 89.5087 124.484 93.6641 124.478 93.6755C124.382 93.8758 124.141 93.9601 123.94 93.8628C123.74 93.7671 123.657 93.5254 123.753 93.3252C123.759 93.3152 125.632 89.5702 122.789 85.3061C119.729 80.716 120.992 73.4004 120.995 73.379Z" fill="black" fill-opacity="0.5"/>
<path d="M120.005 49.5141C119.959 49.2953 120.098 49.0822 120.315 49.0365C120.532 48.9893 120.747 49.1294 120.793 49.3468C120.801 49.3854 123.773 63.1299 123.648 67.8845C123.643 68.1075 123.458 68.2834 123.236 68.2777C123.015 68.2719 122.839 68.0875 122.845 67.8659C122.966 63.2129 120.013 49.5527 120.005 49.5141Z" fill="black" fill-opacity="0.5"/>
<path d="M121.31 40.9878C121.254 40.7733 121.384 40.553 121.599 40.4973C121.813 40.4415 122.033 40.5717 122.089 40.7861C122.096 40.8162 124.817 51.3291 125.687 56.6685C125.723 56.8872 125.574 57.0946 125.354 57.1303C125.135 57.1661 124.928 57.0174 124.892 56.7972C124.028 51.4907 121.318 41.0178 121.31 40.9878Z" fill="black" fill-opacity="0.5"/>
<path d="M101.524 28.4407C101.662 28.2648 101.915 28.2334 102.089 28.3706C102.264 28.5079 102.295 28.7596 102.158 28.9355C102.144 28.9555 96.7197 35.8335 96.4767 43.0046C96.3537 46.6252 96.4753 49.2764 96.827 51.2868C97.1717 53.2559 97.735 54.5943 98.5015 55.6281C98.6774 55.8641 98.8147 56.0528 98.9634 56.2588C100.636 58.5681 103.566 62.6105 107.13 62.3975C111.112 62.1601 115.2 57.5915 115.212 57.5786C115.362 57.4142 115.615 57.4013 115.779 57.55C115.944 57.6987 115.957 57.9533 115.808 58.1177C115.795 58.1305 111.49 62.9437 107.178 63.2011C103.172 63.4413 100.079 59.1701 98.3098 56.7306C98.1297 56.4804 97.9609 56.2487 97.8551 56.1072C97.0143 54.9732 96.4009 53.5276 96.0334 51.4255C95.6731 49.3664 95.5472 46.6638 95.6716 42.9789C95.9247 35.5432 101.509 28.4607 101.524 28.4407Z" fill="black" fill-opacity="0.5"/>
<path d="M99.3867 59.3954C99.3867 59.1738 99.5669 58.9922 99.79 58.9922C100.013 58.9922 100.193 59.1738 100.193 59.3954V62.4298C100.193 62.6514 100.013 62.833 99.79 62.833C99.5669 62.833 99.3867 62.6514 99.3867 62.4298V59.3954Z" fill="black" fill-opacity="0.5"/>
<path d="M97.7078 60.1171C97.8222 59.9269 98.0696 59.8654 98.2597 59.9784C98.4499 60.0928 98.5128 60.3401 98.3985 60.5304C98.3913 60.5418 96.0033 64.507 96.887 65.6495C97.5519 66.5089 101.334 70.8359 104.603 73.8388C106.405 75.4961 108.013 76.7344 108.741 76.6972C110.889 76.5828 116.211 68.6639 116.227 68.641C116.351 68.4565 116.602 68.4078 116.786 68.5323C116.97 68.6567 117.019 68.907 116.895 69.0914C116.879 69.1157 111.338 77.3664 108.783 77.5009C107.802 77.5524 106.001 76.2182 104.057 74.4322C100.756 71.3993 96.9241 67.0151 96.2492 66.1414C95.028 64.5599 97.7006 60.13 97.7078 60.1171Z" fill="black" fill-opacity="0.5"/>
<path d="M107.498 77.8784C107.478 77.6568 107.639 77.4609 107.861 77.4394C108.083 77.418 108.279 77.581 108.299 77.8026C108.301 77.8283 108.918 88.7001 109.049 87.8679C109.415 85.5457 109.415 79.0352 109.415 79.0167C109.415 78.7936 109.596 78.6134 109.817 78.6134C110.04 78.6134 110.219 78.7936 110.219 79.0167C110.219 79.0352 110.219 85.6087 109.843 87.9909C108.969 93.5277 107.502 77.9228 107.498 77.8784Z" fill="black" fill-opacity="0.5"/>
<path d="M98.3842 62.7593C98.2025 62.6334 98.1554 62.3832 98.2827 62.2002C98.4085 62.0172 98.6587 61.9714 98.8417 62.0972C98.8618 62.1115 105.961 67.0434 108.417 65.9595C111.059 64.7912 115.848 61.9056 115.862 61.897C116.052 61.7826 116.3 61.8455 116.414 62.0357C116.529 62.2273 116.466 62.4733 116.276 62.5876C116.261 62.5962 111.421 65.5119 108.741 66.6973C105.873 67.9642 98.407 62.7736 98.3842 62.7593Z" fill="black" fill-opacity="0.5"/>
<path d="M105.462 66.9102C105.651 66.7944 105.898 66.8559 106.012 67.0446C106.128 67.2348 106.067 67.4822 105.878 67.5965C105.869 67.6022 103.2 69.1924 103.592 71.7734C103.626 71.9936 103.473 72.1995 103.253 72.2324C103.032 72.2653 102.828 72.1137 102.795 71.8935C102.32 68.7805 105.452 66.9145 105.462 66.9102Z" fill="black" fill-opacity="0.5"/>
<path d="M109.761 66.8683C109.666 66.6681 109.754 66.4279 109.955 66.335C110.155 66.2406 110.396 66.3278 110.489 66.528C110.496 66.5423 112.708 71.264 112.569 73.0428C112.553 73.2645 112.36 73.4303 112.137 73.4146C111.916 73.3974 111.75 73.2044 111.765 72.9827C111.887 71.4112 109.766 66.8826 109.761 66.8683Z" fill="black" fill-opacity="0.5"/>
<path d="M94.4726 31.9588C94.6171 31.7915 94.8716 31.7729 95.0404 31.9187C95.2077 32.0632 95.2262 32.3177 95.0804 32.485C95.0747 32.4922 92.9441 34.8558 92.5795 44.6166C92.2048 54.5775 88.6099 65.9813 88.5999 66.0142C88.5342 66.2273 88.3082 66.3459 88.0952 66.2801C87.8836 66.2129 87.7649 65.987 87.8306 65.7754C87.8406 65.7425 91.4055 54.4345 91.7744 44.588C92.1519 34.5398 94.4655 31.9674 94.4726 31.9588Z" fill="black" fill-opacity="0.5"/>
<path d="M95.4696 64.5565C95.6769 64.4793 95.9086 64.5851 95.9858 64.7939C96.0644 65.0012 95.9586 65.2329 95.7499 65.3101C95.7256 65.3201 87.2603 68.4903 82.3042 70.5966C77.5282 72.6257 75.8523 78.3712 75.848 78.3883C75.7836 78.6014 75.5606 78.7229 75.3461 78.6586C75.133 78.5957 75.0115 78.3712 75.0758 78.1581C75.0801 78.1395 76.8604 72.0351 81.9896 69.8558C86.9372 67.7524 95.4453 64.5665 95.4696 64.5565Z" fill="black" fill-opacity="0.5"/>
<path d="M91.9507 63.7436C91.9078 63.9624 91.6961 64.1054 91.4788 64.0625C91.26 64.0196 91.117 63.808 91.16 63.5892C91.1642 63.5677 92.6371 56.0777 92.6371 53.7626C92.6371 53.541 92.8187 53.3594 93.0403 53.3594C93.2634 53.3594 93.445 53.541 93.445 53.7626C93.445 56.1521 91.955 63.7222 91.9507 63.7436Z" fill="black" fill-opacity="0.5"/>
<path d="M95.3736 35.9628C95.428 35.7469 95.6467 35.6183 95.8627 35.6726C96.0772 35.727 96.2073 35.9457 96.1515 36.1616C96.1444 36.1888 93.6963 45.6149 94.3026 49.4944C94.3369 49.7132 94.1868 49.9191 93.9666 49.9534C93.7478 49.9863 93.5419 49.8361 93.509 49.6174C92.877 45.5734 95.3665 35.99 95.3736 35.9628Z" fill="black" fill-opacity="0.5"/>
<path d="M99.0341 38.9344C98.8139 38.9615 98.6123 38.8042 98.5851 38.5826C98.5579 38.361 98.7152 38.1608 98.9368 38.1336C98.9468 38.1322 102.529 37.676 104.155 39.2332C104.315 39.3877 104.319 39.6422 104.166 39.8024C104.012 39.9625 103.757 39.9683 103.597 39.8138C102.251 38.5254 99.0441 38.933 99.0341 38.9344Z" fill="black" fill-opacity="0.5"/>
<path d="M110.68 40.132C110.483 40.2335 110.24 40.1563 110.138 39.9576C110.037 39.7602 110.114 39.5172 110.313 39.4157C110.321 39.4114 113.394 37.8055 114.779 38.9709C114.949 39.1139 114.97 39.367 114.827 39.5372C114.684 39.7074 114.431 39.7288 114.261 39.5858C113.293 38.7707 110.689 40.1277 110.68 40.132Z" fill="black" fill-opacity="0.5"/>
<path d="M106.381 42.6718C106.387 42.4501 106.573 42.2757 106.795 42.2814C107.016 42.2871 107.192 42.4716 107.185 42.6946C107.185 42.7046 107.091 46.2237 106.38 47.3405C105.89 48.1112 106.873 49.2781 106.876 49.2809C107.018 49.4525 106.995 49.7056 106.823 49.8472C106.653 49.9888 106.4 49.9659 106.258 49.7957C106.254 49.79 104.893 48.1799 105.702 46.9086C106.291 45.9821 106.381 42.6818 106.381 42.6718Z" fill="black" fill-opacity="0.5"/>
<path d="M103.03 52.4462C102.809 52.4433 102.63 52.2617 102.633 52.0401C102.636 51.8185 102.817 51.6397 103.04 51.6426C103.046 51.6426 105.325 51.6741 107.828 51.6426C109.008 51.6283 110.26 51.6884 111.021 51.9371C111.357 52.0473 111.62 52.2003 111.776 52.409C111.978 52.6793 112.006 52.9896 111.81 53.3456C111.639 53.6559 111.261 54.0149 110.619 54.4267C109.638 55.0544 108.476 55.3904 107.359 55.4906C106.425 55.5735 105.518 55.492 104.775 55.2789C103.981 55.0516 103.352 54.6683 103.029 54.1621C102.895 53.9519 102.812 53.7217 102.79 53.4715C102.77 53.2513 102.935 53.0554 103.155 53.0368C103.376 53.0182 103.571 53.1812 103.591 53.4028C103.601 53.5158 103.641 53.6245 103.707 53.7274C103.92 54.0606 104.386 54.328 104.995 54.5025C105.654 54.6912 106.458 54.7627 107.289 54.6898C108.285 54.5997 109.318 54.3023 110.183 53.7489C110.706 53.4128 110.995 53.1554 111.104 52.9581C111.127 52.9166 111.135 52.8952 111.132 52.8909C111.084 52.8265 110.956 52.7636 110.772 52.7036C110.104 52.4848 108.943 52.4333 107.836 52.4462C105.325 52.4777 103.037 52.4462 103.03 52.4462Z" fill="black" fill-opacity="0.5"/>
<path fill-rule="evenodd" clip-rule="evenodd" d="M101.224 40.3203H101.654C101.982 40.3203 102.249 40.5891 102.249 40.9166V41.9618C102.249 42.2893 101.982 42.5567 101.654 42.5567H101.224C100.898 42.5567 100.629 42.2893 100.629 41.9618V40.9166C100.629 40.5891 100.898 40.3203 101.224 40.3203Z" fill="black" fill-opacity="0.5"/>
<path fill-rule="evenodd" clip-rule="evenodd" d="M112.294 40.8359H112.724C113.05 40.8359 113.319 41.1033 113.319 41.4308V42.4761C113.319 42.8035 113.05 43.071 112.724 43.071H112.294C111.967 43.071 111.699 42.8035 111.699 42.4761V41.4308C111.699 41.1033 111.967 40.8359 112.294 40.8359Z" fill="black" fill-opacity="0.5"/>
<path d="M94.8172 24.9685C95.0189 25.06 95.1075 25.2988 95.016 25.5019C94.923 25.7035 94.6843 25.7921 94.4826 25.6992L81.7934 19.8808C81.5918 19.7893 81.5031 19.5505 81.5946 19.3488C81.6304 19.2702 81.689 19.2087 81.7591 19.1672L105.961 5.05371C106.08 4.98652 106.218 4.98364 106.333 5.03797V5.03656L138.768 20.1395C138.97 20.2339 139.057 20.4741 138.964 20.6758C138.927 20.7558 138.865 20.8188 138.794 20.8588L130.9 26.2239C130.716 26.3483 130.467 26.2997 130.343 26.1167C130.218 25.9322 130.266 25.6834 130.45 25.559L137.786 20.5728L106.183 5.85735L82.8331 19.4732L94.8172 24.9685Z" fill="black" fill-opacity="0.5"/>
<path d="M124.118 29.5123C123.921 29.6152 123.678 29.5395 123.573 29.3435C123.47 29.1462 123.546 28.9031 123.742 28.7987L126.405 27.3945C126.602 27.2902 126.845 27.3659 126.948 27.5633C127.052 27.7592 126.977 28.0037 126.779 28.1066L124.118 29.5123Z" fill="black" fill-opacity="0.5"/>
<path d="M127.055 16.0492C127.055 15.8261 127.235 15.6445 127.458 15.6445C127.681 15.6445 127.861 15.8261 127.861 16.0492V22.3624C127.861 24.8634 128.126 29.5264 128.498 32.0459C128.512 32.1446 128.526 32.239 128.54 32.3291C128.569 31.2595 128.505 29.6251 128.435 27.8334C128.279 23.8782 128.093 19.1765 128.891 17.5435C128.988 17.3433 129.23 17.2604 129.43 17.3576C129.63 17.4549 129.713 17.6965 129.616 17.8968C128.905 19.351 129.087 23.9411 129.238 27.8019C129.353 30.6847 129.45 33.1742 129.121 33.8635C129.048 34.015 128.958 34.1194 128.851 34.1809C128.45 34.4083 128.166 34.1623 127.98 33.5517C127.878 33.2228 127.785 32.7438 127.7 32.1633C127.322 29.6066 127.055 24.8877 127.055 22.3624V16.0492Z" fill="black" fill-opacity="0.5"/>
<path d="M127.221 33.5419C127.321 33.3446 127.563 33.2631 127.76 33.3632C127.959 33.4619 128.04 33.7035 127.94 33.9023C127.937 33.9065 127.099 35.5667 127.66 35.6783C127.976 35.7426 128.412 35.6497 128.804 35.4624C129.054 35.3423 129.279 35.1849 129.435 35.0077C129.56 34.8632 129.636 34.7102 129.629 34.5629C129.623 34.4657 129.582 34.3613 129.495 34.2498C129.356 34.0753 129.386 33.8237 129.56 33.6849C129.735 33.5477 129.986 33.5777 130.125 33.7522C130.324 34.0039 130.42 34.2641 130.433 34.5215C130.453 34.8961 130.298 35.2407 130.039 35.5367C129.811 35.7984 129.495 36.0215 129.15 36.1873C128.612 36.4462 127.986 36.5663 127.503 36.4704C125.897 36.1487 127.218 33.5505 127.221 33.5419Z" fill="black" fill-opacity="0.5"/>
<path d="M127.262 37.3568C127.153 37.1624 127.224 36.9178 127.418 36.8106C127.612 36.7019 127.857 36.772 127.964 36.9664C127.966 36.9679 128.296 37.5799 129 36.8764C129.589 36.2872 129.024 36.1385 129.022 36.1385C128.808 36.0785 128.682 35.8568 128.742 35.6437C128.801 35.4292 129.022 35.3034 129.237 35.362C129.243 35.3635 131.147 35.8697 129.57 37.4469C128.106 38.9112 127.264 37.3611 127.262 37.3568Z" fill="black" fill-opacity="0.5"/>
<path d="M127.744 38.6744C127.778 38.4556 127.984 38.3055 128.203 38.3412C128.423 38.3755 128.573 38.5815 128.538 38.8002C128.535 38.8231 127.296 46.4976 128.373 47.9704C129.683 49.7636 128.362 52.9323 128.357 52.9424C128.273 53.1469 128.038 53.2455 127.833 53.1611C127.628 53.0767 127.529 52.8408 127.614 52.6364C127.617 52.6278 128.765 49.8723 127.722 48.4466C126.447 46.7006 127.74 38.6973 127.744 38.6744Z" fill="black" fill-opacity="0.5"/>
<path d="M128.822 40.607C128.849 40.3868 129.049 40.231 129.27 40.2567C129.49 40.2839 129.647 40.484 129.62 40.7043C129.618 40.7143 129.201 43.9345 130.083 45.8764C131.083 48.0741 129.598 51.7491 129.594 51.7606C129.513 51.9665 129.28 52.068 129.072 51.9851C128.866 51.9036 128.765 51.6705 128.848 51.4646C128.851 51.4546 130.206 48.0942 129.348 46.2067C128.374 44.0618 128.821 40.617 128.822 40.607Z" fill="black" fill-opacity="0.5"/>
<path d="M130.079 37.8011C130.152 37.5909 130.382 37.4808 130.591 37.5538C130.801 37.6267 130.911 37.8569 130.838 38.0657C130.836 38.0742 129.772 41.0285 130.838 44.0514C131.41 45.6701 131.744 47.12 131.829 48.367C131.917 49.6425 131.748 50.7135 131.312 51.5514C131.209 51.7487 130.966 51.8259 130.768 51.723C130.571 51.62 130.494 51.377 130.597 51.1796C130.963 50.4761 131.103 49.5466 131.026 48.4213C130.944 47.2473 130.627 45.8703 130.079 44.3188C128.918 41.0285 130.076 37.8112 130.079 37.8011Z" fill="black" fill-opacity="0.5"/>
<path d="M83.3244 71.739C83.3173 71.5174 83.4918 71.3315 83.7134 71.3244C83.935 71.3187 84.1209 71.4916 84.128 71.7147C84.1309 71.7933 84.9932 99.3583 85.3663 105.065C85.731 110.659 86.5432 111.933 86.5461 111.937C86.6619 112.126 86.6018 112.375 86.4116 112.491C86.2214 112.605 85.9741 112.547 85.8582 112.356C85.8554 112.352 84.9402 110.911 84.5613 105.115C84.191 99.4326 83.3259 71.8191 83.3244 71.739Z" fill="black" fill-opacity="0.5"/>
<path d="M86.2276 82.8391C86.0059 82.852 85.8143 82.6832 85.8015 82.4616C85.7886 82.2399 85.9573 82.0483 86.1804 82.0355C86.2319 82.0326 104.394 80.9201 105.965 80.983C106.187 80.9916 106.36 81.179 106.351 81.4006C106.343 81.6236 106.155 81.7967 105.934 81.7866C104.411 81.7266 86.2791 82.8362 86.2276 82.8391Z" fill="black" fill-opacity="0.5"/>
<path d="M111.37 81.3494C111.15 81.3694 110.954 81.205 110.935 80.9847C110.916 80.7631 111.079 80.5686 111.301 80.5486C111.311 80.5486 115.143 80.1925 115.143 80.9489C115.143 81.172 114.963 81.3536 114.74 81.3536C114.517 81.3536 114.337 81.172 114.337 80.9489C114.337 80.8117 111.378 81.3494 111.37 81.3494Z" fill="black" fill-opacity="0.5"/>
<path d="M67.0032 105.355C67.0976 105.556 67.0118 105.796 66.8116 105.891C66.61 105.985 66.3698 105.899 66.2754 105.699C66.2668 105.681 63.2854 99.4088 62.8421 97.4441C62.5675 96.2272 61.5995 91.1252 61.1104 86.9384C60.8202 84.4474 60.7001 82.2568 60.9932 81.3273C61.2434 80.5337 61.4594 79.6171 61.6681 78.7291C62.0914 76.926 62.4903 75.2301 63.171 74.6938C63.68 74.2949 65.1672 74.1504 66.6758 74.2134C68.1844 74.2749 69.7601 74.5365 70.4122 74.9484C71.0614 75.3587 71.5547 75.7834 71.7578 76.2182C72.0194 76.7773 71.8793 77.2949 71.1486 77.7382C70.405 78.1886 69.2825 78.1257 68.2558 78.0685C67.6938 78.037 67.1648 78.007 66.8001 78.0699C65.9665 78.2129 65.5103 79.793 65.5089 79.7973C65.446 80.0104 65.2229 80.1333 65.0098 80.0704C64.7953 80.0075 64.6738 79.7844 64.7367 79.5714C64.7381 79.5642 65.3316 77.5037 66.6643 77.2749C67.1147 77.1977 67.6895 77.2306 68.2987 77.2649C69.2096 77.315 70.2033 77.3707 70.7325 77.0504C71.0242 76.8731 71.1 76.7101 71.0299 76.5585C70.8998 76.2811 70.5108 75.9637 69.9846 75.6305C69.4513 75.293 68.0341 75.0742 66.6443 75.017C65.2987 74.9613 64.0218 75.0513 63.67 75.3273C63.2095 75.6891 62.8435 77.2506 62.4531 78.9121C62.24 79.8202 62.0198 80.7554 61.7625 81.569C61.5079 82.3769 61.6324 84.4532 61.9112 86.8469C62.3974 91.0109 63.3554 96.0643 63.6271 97.2683C64.0504 99.1414 66.9946 105.337 67.0032 105.355Z" fill="black" fill-opacity="0.5"/>
<path d="M64.0594 82.7057C63.892 82.8529 63.639 82.8372 63.4917 82.6714C63.3444 82.5055 63.3601 82.251 63.526 82.1037C63.536 82.0951 66.9893 79.0207 68.0417 78.8806C68.6351 78.8005 70.6814 79.085 72.2672 79.5813C73.4297 79.9445 74.3878 80.4506 74.5236 81.0812C74.8883 82.7671 73.7887 82.6514 73.7858 82.6499C73.5641 82.6313 73.3997 82.4368 73.4197 82.2152C73.4383 81.9935 73.6328 81.8306 73.8544 81.8491C73.8544 81.8491 73.8658 81.8563 73.7357 81.2514C73.6728 80.9611 72.9378 80.6351 72.0269 80.3506C70.534 79.8844 68.6637 79.6084 68.1461 79.6771C67.3411 79.7843 64.0679 82.6971 64.0594 82.7057Z" fill="black" fill-opacity="0.5"/>
<path d="M66.0799 84.6429C65.9012 84.7773 65.6495 84.7416 65.5151 84.5642C65.3807 84.3869 65.4164 84.1338 65.5937 84.0008C65.6037 83.9922 69.2973 81.1967 70.0651 81.3583C70.4484 81.4398 72.1614 82.0275 73.6043 82.741C74.4979 83.1829 75.3059 83.6834 75.6862 84.1667C76.8888 85.7024 75.2444 86.5046 75.2387 86.5075C75.0399 86.6062 74.7997 86.5261 74.6996 86.3273C74.6009 86.1285 74.681 85.8869 74.8798 85.7882C74.8812 85.7868 75.6433 85.4164 75.0513 84.6614C74.7582 84.2867 74.0489 83.8592 73.2482 83.4631C71.864 82.7782 70.2539 82.222 69.9021 82.1476C69.4947 82.0619 66.0886 84.6357 66.0799 84.6429Z" fill="black" fill-opacity="0.5"/>
<path d="M67.0605 87.5701C66.8918 87.7159 66.6387 87.6974 66.4928 87.53C66.347 87.3613 66.3656 87.1082 66.5343 86.9624C66.5429 86.9538 69.6973 84.2212 71.02 84.5887C71.2417 84.6502 71.5405 84.7074 71.8551 84.7689C72.4357 84.8804 73.0705 85.0034 73.5524 85.2179C74.2274 85.5182 74.6048 85.9614 74.2831 86.6864C73.9699 87.3885 73.3165 87.4815 72.6273 87.5801C72.0396 87.6645 71.4132 87.7532 71.2402 88.4195C71.0072 89.319 70.7355 91.7184 70.6096 93.9706C70.5081 95.7823 70.5009 97.4796 70.684 98.1832C71.1015 99.7947 71.9952 101.226 71.9981 101.23C72.1153 101.419 72.0567 101.666 71.8679 101.784C71.6777 101.9 71.4303 101.841 71.3145 101.652C71.3116 101.648 70.3536 100.115 69.9046 98.3848C69.6987 97.5926 69.7015 95.8066 69.8059 93.9263C69.9346 91.6298 70.2163 89.1631 70.4623 88.218C70.7697 87.0325 71.6691 86.9039 72.5128 86.7823C72.9775 86.7165 73.4179 86.6536 73.5481 86.3619C73.6224 86.1931 73.4723 86.0616 73.2277 85.9529C72.8374 85.7799 72.2454 85.6641 71.7035 85.5597C71.3774 85.4968 71.07 85.4367 70.8054 85.3638C69.9004 85.1121 67.0691 87.5629 67.0605 87.5701Z" fill="black" fill-opacity="0.5"/>
<path d="M70.9303 98.8671C70.7773 98.7069 70.783 98.4509 70.9446 98.2979C71.1048 98.1449 71.3607 98.152 71.5137 98.3122C71.5194 98.3194 73.7702 100.636 72.3703 102.945C71.6696 104.099 69.3788 106.356 67.57 107.422C67.0238 107.746 66.509 107.969 66.0757 108.034C65.5237 108.119 65.0848 107.974 64.8259 107.521C64.6329 107.184 64.5743 106.673 64.6972 105.951C64.733 105.732 64.9403 105.583 65.1605 105.621C65.3793 105.656 65.528 105.865 65.4908 106.084C65.4022 106.609 65.4222 106.942 65.5251 107.121C65.5923 107.238 65.7453 107.269 65.9555 107.236C66.2816 107.186 66.6991 107.002 67.161 106.729C68.874 105.718 71.0318 103.604 71.6825 102.529C72.7592 100.753 70.9346 98.8728 70.9303 98.8671Z" fill="black" fill-opacity="0.5"/>
<path d="M63.7417 102.127C63.8404 101.927 64.082 101.846 64.2808 101.944C64.481 102.043 64.5625 102.285 64.4638 102.483C64.4581 102.495 62.3547 106.643 65.0273 109.78C67.4653 112.642 68.6493 116.848 69.3213 119.235C69.4515 119.701 69.563 120.097 69.6545 120.38C70.145 121.902 75.1712 121.526 75.1855 121.524C75.4072 121.509 75.6002 121.676 75.6159 121.899C75.6316 122.121 75.4643 122.314 75.2427 122.329C75.2256 122.329 69.5745 122.757 68.8881 120.626C68.7851 120.307 68.675 119.914 68.5449 119.452C67.89 117.127 66.736 113.028 64.4167 110.304C61.3937 106.756 63.736 102.14 63.7417 102.127Z" fill="black" fill-opacity="0.5"/>
<path d="M75.0048 120.299C75.1178 120.491 75.0563 120.738 74.8661 120.851C74.7259 120.936 74.5572 120.924 74.4314 120.838C74.0567 120.79 73.0844 120.418 70.0458 115.517C66.1678 109.263 65.909 107.65 65.909 107.646C65.8689 107.427 66.0148 107.218 66.2336 107.178C66.4524 107.14 66.6612 107.284 66.6997 107.503C66.7012 107.507 66.9328 108.971 70.7308 115.096C73.7579 119.979 74.3471 120.025 74.5587 120.04C74.7489 120.055 74.8633 120.063 75.0048 120.299Z" fill="black" fill-opacity="0.5"/>
<path d="M65.5943 111.409C65.3827 111.474 65.1567 111.355 65.0924 111.142C65.0266 110.93 65.1453 110.704 65.3583 110.64C65.3797 110.633 73.05 108.292 74.3426 104.707C74.417 104.498 74.6472 104.39 74.8559 104.466C75.0647 104.54 75.1734 104.77 75.099 104.979C73.6677 108.947 65.6172 111.402 65.5943 111.409Z" fill="black" fill-opacity="0.5"/>
<path d="M72.9521 99.9781C72.8377 99.7879 72.8992 99.5406 73.0893 99.4247C73.2809 99.3103 73.5283 99.3718 73.6427 99.562C73.6585 99.5877 78.9964 108.4 80.4979 114.656C81.4659 118.692 80.5794 120.192 79.8286 121.463C79.4354 122.126 79.0865 122.72 79.1466 123.636C79.2052 124.519 79.444 125.369 79.6442 126.086C79.863 126.868 80.0403 127.503 79.9288 127.968C79.7787 128.603 79.2739 128.854 78.0956 128.574C75.2958 127.908 73.3668 123.339 73.3611 123.325C73.2739 123.12 73.3697 122.884 73.5742 122.797C73.7786 122.71 74.0146 122.806 74.1018 123.01C74.1075 123.022 75.8807 127.217 78.2816 127.789C78.8822 127.932 79.1138 127.91 79.1438 127.782C79.2082 127.514 79.0552 126.97 78.8678 126.3C78.6576 125.547 78.4074 124.65 78.343 123.689C78.2658 122.524 78.6762 121.83 79.1352 121.053C79.8102 119.91 80.6081 118.56 79.7158 114.842C78.2457 108.719 72.9678 100.004 72.9521 99.9781Z" fill="black" fill-opacity="0.5"/>
<path d="M80.7645 82.534C80.8117 82.3181 81.0262 82.1809 81.2435 82.228C81.4609 82.2767 81.5967 82.4912 81.5495 82.7085C81.5481 82.7156 80.9389 85.3939 80.6915 93.403C80.4342 101.808 77.9847 101.961 77.9775 101.963C77.7558 101.984 77.56 101.822 77.5371 101.601C77.5156 101.381 77.6772 101.183 77.8989 101.162C77.9031 101.162 79.652 101.069 79.8879 93.3801C80.1368 85.2953 80.7631 82.5427 80.7645 82.534Z" fill="black" fill-opacity="0.5"/>
<path d="M75.07 97.8C74.9599 97.9916 74.714 98.0574 74.5209 97.9473C74.3293 97.8372 74.2636 97.5912 74.3736 97.3996C74.3836 97.381 77.9199 91.2837 78.6549 84.0654C78.6763 83.8452 78.8736 83.6836 79.0938 83.705C79.3155 83.7265 79.4771 83.9238 79.4556 84.1441C78.7035 91.5354 75.08 97.7814 75.07 97.8Z" fill="black" fill-opacity="0.5"/>
<path d="M74.5334 90.5901C74.3375 90.4857 74.2632 90.2426 74.3676 90.0467C74.4734 89.8508 74.7165 89.7765 74.9124 89.8808C74.9138 89.8823 75.6831 90.3341 76.0563 86.6063C76.5024 82.142 78.0096 80.5019 78.0139 80.4976C78.1612 80.3317 78.4157 80.3174 78.5816 80.4661C78.746 80.6134 78.7603 80.8679 78.6131 81.0338C78.6088 81.0381 77.2761 82.4837 76.8571 86.6849C76.3623 91.6225 74.5391 90.593 74.5334 90.5901Z" fill="black" fill-opacity="0.5"/>
<path d="M63.2674 59.9491C63.3475 59.7418 63.5806 59.6388 63.7865 59.7189C63.9939 59.799 64.0968 60.0321 64.0168 60.2394C64.0153 60.2437 62.1922 62.869 62.7741 62.41C62.9014 62.3085 63.0673 62.1212 63.2374 61.9267C63.5549 61.5649 63.8852 61.1889 64.2412 61.0702C64.5801 60.9572 64.8733 61.0202 65.0849 61.3733C65.1435 61.0216 65.1178 60.5969 64.9133 60.3538C64.7688 60.1851 64.7903 59.9305 64.9604 59.7861C65.1306 59.6431 65.3837 59.6646 65.5281 59.8333C65.9729 60.361 65.9757 61.2589 65.807 61.8266C65.7498 62.0197 65.6683 62.187 65.5725 62.3071C65.3952 62.5273 65.1735 62.616 64.919 62.5216C64.7345 62.4515 64.5744 62.2727 64.4671 61.9539C64.4428 61.8795 64.53 61.8209 64.4943 61.8338C64.347 61.8824 64.0897 62.1755 63.8423 62.4558C63.6492 62.6774 63.4605 62.8919 63.2717 63.0406C61.5143 64.4276 63.2617 59.962 63.2674 59.9491Z" fill="black" fill-opacity="0.5"/>
<path d="M64.9262 58.7007C65.095 58.8465 65.1135 59.0997 64.9677 59.2683C64.8219 59.4356 64.5687 59.4542 64.4 59.3098C64.3814 59.2927 57.5792 53.3827 57.8223 55.366C58.0711 57.4051 60.5206 58.8336 61.716 59.5314C61.9819 59.6873 62.1907 59.8088 62.3337 59.9146C62.6212 60.1305 62.7012 60.3508 62.5096 60.6082C62.3766 60.7855 62.1235 60.8212 61.9462 60.6883C61.8919 60.6482 61.8519 60.5968 61.8247 60.5396C61.7275 60.4723 61.5416 60.3637 61.3085 60.2278C60.0001 59.4642 57.319 57.8999 57.0215 55.4633C56.5211 51.3809 64.9034 58.6792 64.9262 58.7007Z" fill="black" fill-opacity="0.5"/>
<path d="M58.3547 56.7068C58.1559 56.6067 58.0758 56.3665 58.176 56.1677C58.2746 55.9689 58.5163 55.8889 58.7151 55.9875C58.7293 55.9947 63.7456 58.4913 64.0387 60.2101C64.0759 60.4289 63.9286 60.6377 63.7084 60.6748C63.4896 60.712 63.2808 60.5647 63.2437 60.3459C63.0206 59.0304 58.369 56.7125 58.3547 56.7068Z" fill="black" fill-opacity="0.5"/>
<path d="M65.3997 58.3348C65.3082 58.5378 65.0693 58.6279 64.8663 58.5364C64.6633 58.4449 64.5732 58.2075 64.6647 58.0045C64.669 57.993 66.2491 54.3911 70.393 56.1913C72.7553 57.218 74.2395 58.861 74.8873 60.0093C75.0732 60.3396 75.1962 60.6356 75.2534 60.8729C75.3363 61.209 75.2991 61.4849 75.1461 61.6623C75.0389 61.7867 74.8959 61.8539 74.72 61.8539C74.3997 61.8539 74.1309 61.7466 73.9121 61.6394C73.8492 61.7351 73.7462 61.8052 73.6233 61.8195C73.4016 61.8467 73.2014 61.6894 73.1742 61.4677C73.1085 60.9472 73.2629 60.7399 73.6004 60.697C73.7877 60.6741 73.9407 60.7528 74.1352 60.8529C74.2281 60.9001 74.3382 60.9559 74.4526 60.9959C74.404 60.8329 74.3168 60.6312 74.1881 60.4039C73.6018 59.3657 72.2477 57.8743 70.0713 56.9292C66.6637 55.4491 65.4025 58.3262 65.3997 58.3348Z" fill="black" fill-opacity="0.5"/>
<path d="M72.886 61.0913C73.0505 61.2414 73.0633 61.4959 72.9132 61.6604C72.7631 61.8248 72.5085 61.8362 72.3441 61.6876C72.3341 61.6775 68.8508 58.4945 67.9127 58.5731C67.691 58.5903 67.4966 58.4259 67.478 58.2042C67.4594 57.9812 67.6253 57.7867 67.8469 57.7681C69.1381 57.6608 72.876 61.0813 72.886 61.0913Z" fill="black" fill-opacity="0.5"/>
<path d="M72.2368 58.7755C72.4356 58.8741 72.5157 59.1158 72.417 59.3146C72.3169 59.5133 72.0753 59.5934 71.8765 59.4947C71.835 59.4733 71.7764 59.4361 71.6863 59.3789C71.0471 58.9756 68.5405 57.3913 67.9728 58.1777C67.1005 59.3861 66.2097 60.8003 66.2082 60.8046C66.0895 60.9919 65.8408 61.0491 65.652 60.9304C65.4647 60.8117 65.4089 60.5629 65.5262 60.3756C65.5291 60.3713 66.4285 58.9456 67.3208 57.7088C68.3317 56.3074 71.346 58.2121 72.1154 58.6983C72.1897 58.7455 72.234 58.7741 72.2368 58.7755Z" fill="black" fill-opacity="0.5"/>
<path d="M62.0973 63.4512C62.1889 63.2481 62.4277 63.158 62.6293 63.2496C62.8323 63.3411 62.9224 63.5799 62.8309 63.7815C62.8238 63.8001 60.0769 69.8259 62.0444 70.9426C62.1789 71.0184 62.3061 71.0427 62.4248 71.0227C62.758 70.9669 63.1012 70.6094 63.4286 70.0832C63.7961 69.4898 64.1221 68.7019 64.3895 67.8682C64.9972 65.9636 65.2989 63.8787 65.0659 63.3439C64.9773 63.1408 65.0702 62.9035 65.2747 62.8148C65.4777 62.7262 65.7151 62.8191 65.8037 63.0222C66.1012 63.7013 65.8137 66.0493 65.1546 68.1113C64.87 69.0036 64.5154 69.8544 64.1121 70.505C63.666 71.2229 63.1455 71.719 62.5578 71.8163C62.2575 71.8663 61.9529 71.8149 61.6469 71.6418C59.033 70.1591 62.0888 63.4698 62.0973 63.4512Z" fill="black" fill-opacity="0.5"/>
<path d="M63.4242 63.3497C63.4356 63.128 63.6258 62.9578 63.8474 62.9693C64.0705 62.9822 64.2407 63.1723 64.2278 63.394C64.2264 63.4126 63.9004 69.7029 61.8613 69.4669C61.6396 69.4412 61.4809 69.2424 61.5066 69.0208C61.5324 68.7991 61.7311 68.6404 61.9528 68.6662C63.1324 68.802 63.4227 63.3654 63.4242 63.3497Z" fill="black" fill-opacity="0.5"/>
<path d="M65.9818 60.6273C65.7887 60.5186 65.7201 60.2741 65.8288 60.0796C65.9374 59.8865 66.1834 59.8179 66.3764 59.9266C66.3807 59.9295 68.1224 60.9218 70.4918 61.5596C70.8793 61.664 71.0909 61.7183 71.2954 61.7727C72.7297 62.1473 73.8521 62.4419 74.0109 62.9438C74.1382 63.3456 73.855 63.6774 73.0157 63.9419C72.4094 64.135 72.5495 64.5539 72.651 64.8585C72.7283 65.0916 72.794 65.2918 72.744 65.502C72.6525 65.8809 72.3622 66.0453 71.6258 65.868C69.8555 65.4419 65.8632 61.9214 65.8517 61.9113C65.6844 61.7641 65.6687 61.511 65.8145 61.3437C65.9604 61.1764 66.2149 61.1592 66.3822 61.3051C66.3937 61.3151 70.2402 64.7069 71.8117 65.0858C71.959 65.1215 71.9347 65.4319 71.9619 65.316C71.9647 65.3045 71.9261 65.2274 71.8875 65.1115C71.6773 64.4809 71.3899 63.6116 72.7741 63.1725C73.0701 63.0796 73.2717 63.2812 73.2416 63.1869C73.2159 63.1068 72.2836 62.8622 71.0939 62.5505C70.7793 62.469 70.449 62.3818 70.2846 62.3375C67.825 61.6754 65.9875 60.6301 65.9818 60.6273Z" fill="black" fill-opacity="0.5"/>
<path d="M61.5628 54.9796C61.5985 55.1998 61.4498 55.4057 61.231 55.4415C61.0109 55.4772 60.8049 55.3286 60.7692 55.1097L58.1381 38.9543C58.1166 38.8213 58.1624 38.6941 58.2496 38.6068C58.4126 38.421 59.5351 37.2469 61.4326 37.3413C63.3702 37.4386 64.4884 37.9648 64.4913 37.9662C64.6257 38.0277 64.7086 38.1535 64.7229 38.2894L67.4441 55.3214C67.4784 55.5416 67.3282 55.7475 67.1095 55.7818C66.8907 55.8175 66.6833 55.6674 66.649 55.4486L63.9621 38.6197C63.5946 38.4839 62.7152 38.2122 61.3954 38.1464C60.0899 38.0806 59.2605 38.7369 58.9645 39.0201L61.5628 54.9796Z" fill="black" fill-opacity="0.5"/>
<path d="M68.6924 65.042C68.6581 64.8232 68.8082 64.6173 69.027 64.583C69.2472 64.5487 69.4517 64.7003 69.486 64.919L71.0961 75.2246C71.129 75.4448 70.9789 75.6507 70.7601 75.6836C70.5399 75.7179 70.3354 75.5678 70.3011 75.3475L68.6924 65.042Z" fill="black" fill-opacity="0.5"/>
<path d="M63.6161 71.0592C63.576 70.8404 63.7191 70.6302 63.9378 70.5888C64.1566 70.5487 64.3668 70.6917 64.4083 70.9105L64.903 73.5101C64.9431 73.7289 64.8001 73.9391 64.5813 73.9806C64.3625 74.0206 64.1523 73.8776 64.1109 73.6588L63.6161 71.0592Z" fill="black" fill-opacity="0.5"/>
<path d="M129.594 64.5673C129.378 64.5143 129.245 64.297 129.296 64.0811C129.349 63.8652 129.566 63.7321 129.782 63.785C129.801 63.7893 136.196 65.3423 139.018 66.6593C140.583 67.3885 142.68 69.6979 144.568 72.9067C146.181 75.6493 147.657 79.0625 148.526 82.7146C150.375 90.4806 152.112 98.9201 152.118 98.9444C152.162 99.1618 152.022 99.3748 151.803 99.4191C151.586 99.4635 151.374 99.3233 151.33 99.1045C151.324 99.0802 149.606 90.7322 147.741 82.9005C146.89 79.3257 145.449 75.991 143.874 73.3142C142.067 70.2427 140.105 68.0534 138.678 67.3871C135.931 66.1059 129.611 64.5715 129.594 64.5673Z" fill="black" fill-opacity="0.5"/>
<path d="M143.783 78.2245C143.719 78.0114 143.837 77.7869 144.051 77.7211C144.262 77.6554 144.488 77.7755 144.552 77.9871C144.568 78.0386 150.122 95.9328 151.975 101.246C153.851 106.624 154.224 112.85 154.226 112.869C154.239 113.091 154.07 113.281 153.848 113.295C153.625 113.308 153.435 113.138 153.422 112.916C153.421 112.899 153.053 106.782 151.216 101.512C149.356 96.1802 143.799 78.2759 143.783 78.2245Z" fill="black" fill-opacity="0.5"/>
<path d="M151.786 113.289C151.566 113.258 151.413 113.053 151.446 112.833C151.479 112.613 151.683 112.46 151.904 112.493C151.919 112.494 157.658 113.278 158.436 120.274C159.023 125.562 152.055 136.784 148.197 142.998C147.061 144.826 146.198 146.218 145.895 146.86C145.801 147.06 145.561 147.146 145.359 147.051C145.159 146.957 145.073 146.717 145.167 146.515C145.49 145.829 146.364 144.422 147.512 142.571C151.319 136.443 158.191 125.374 157.635 120.363C156.926 113.99 151.801 113.292 151.786 113.289Z" fill="black" fill-opacity="0.5"/>
<path d="M142.533 128.057C142.497 127.837 142.646 127.631 142.864 127.595C143.085 127.559 143.29 127.708 143.326 127.927C143.333 127.968 145.7 142.166 144.403 144.76C144.304 144.959 144.063 145.039 143.864 144.94C143.665 144.842 143.585 144.6 143.684 144.401C144.863 142.045 142.538 128.097 142.533 128.057Z" fill="black" fill-opacity="0.5"/>
<path d="M145.255 126.974C145.478 126.955 145.673 127.12 145.691 127.343C145.708 127.564 145.544 127.759 145.322 127.777C145.176 127.789 94.5037 132.054 93.3884 131.791C92.8765 131.671 91.6925 130.809 90.4756 129.808C88.8498 128.472 87.1153 126.854 86.8822 126.468C86.4432 125.735 87.0723 118.019 87.0737 117.997C87.0909 117.775 87.2854 117.609 87.507 117.626C87.7287 117.643 87.8945 117.838 87.8774 118.06C87.876 118.081 87.2697 125.55 87.5728 126.054C87.7687 126.38 89.4174 127.897 90.9861 129.187C92.1228 130.121 93.191 130.916 93.5714 131.006C94.5594 131.239 145.111 126.985 145.255 126.974Z" fill="black" fill-opacity="0.5"/>
<path d="M144.504 116.946C144.724 116.926 144.92 117.089 144.94 117.311C144.96 117.531 144.797 117.727 144.576 117.747C144.433 117.76 94.7368 122.28 93.0723 121.214C92.7977 121.037 92.4131 120.808 91.9813 120.55C90.0723 119.407 87.2382 117.711 86.895 116.396C86.6963 115.633 86.549 113.531 86.5075 111.601C86.466 109.738 86.5347 107.993 86.762 107.653C87.2539 106.917 90.1853 106.918 90.1939 106.918C90.4155 106.918 90.5957 107.097 90.5957 107.32C90.5957 107.541 90.4155 107.722 90.1939 107.722C90.1867 107.722 87.6857 107.723 87.4341 108.101C87.3012 108.299 87.2725 109.861 87.3111 111.585C87.3526 113.464 87.4899 115.489 87.6729 116.194C87.9332 117.189 90.6 118.785 92.3946 119.859C92.8207 120.113 93.1982 120.339 93.5042 120.537C94.9341 121.452 144.361 116.959 144.504 116.946Z" fill="black" fill-opacity="0.5"/>
<path d="M146.425 106.92C146.645 106.9 146.841 107.063 146.861 107.283C146.881 107.504 146.718 107.7 146.497 107.72C146.354 107.733 96.4118 112.369 94.4871 111.856C92.5724 111.345 88.3884 108.784 88.377 108.777C88.1868 108.661 88.1267 108.414 88.2425 108.224C88.3584 108.034 88.6057 107.973 88.7959 108.089C88.8074 108.096 92.8941 110.597 94.693 111.078C96.4818 111.554 146.281 106.933 146.425 106.92Z" fill="black" fill-opacity="0.5"/>
<path d="M128.706 107.355C128.926 107.326 129.129 107.481 129.158 107.701C129.186 107.921 129.03 108.123 128.81 108.153C128.713 108.164 94.9706 112.642 92.5998 109.546C90.2733 106.51 91.2156 97.2797 91.2184 97.254C91.2385 97.0524 91.4043 96.8993 91.6002 96.8908C91.7418 96.8836 141.092 94.5328 142.113 95.009C143.081 95.4608 146.255 97.7645 146.264 97.7716C146.444 97.9017 146.484 98.1534 146.354 98.3336C146.272 98.4465 146.144 98.5037 146.015 98.4994L93.6908 100.158C93.6922 101.421 93.7394 105.503 94.3028 108.167C94.3486 108.385 94.2084 108.598 93.9911 108.643C93.7737 108.688 93.5607 108.548 93.5149 108.33C92.8414 105.147 92.8858 100.025 92.8886 99.7764C92.8843 99.5562 93.0573 99.3731 93.2775 99.366L144.825 97.733C143.829 97.0294 142.342 96.0042 141.772 95.7383C140.976 95.3665 96.3862 97.4699 91.9877 97.6787C91.8462 99.346 91.3557 106.597 93.2389 109.057C95.3238 111.779 128.61 107.368 128.706 107.355Z" fill="black" fill-opacity="0.5"/>
<path d="M93.8125 112.954C93.8125 112.731 93.9927 112.551 94.2158 112.551C94.4388 112.551 94.619 112.731 94.619 112.954V117.534C94.619 117.757 94.4388 117.937 94.2158 117.937C93.9927 117.937 93.8125 117.757 93.8125 117.534V112.954Z" fill="black" fill-opacity="0.5"/>
<path d="M87.2579 108.749C87.2536 108.526 87.4309 108.344 87.6526 108.34C87.8756 108.337 88.0572 108.514 88.0615 108.736C88.0615 108.755 88.183 115.525 89.2512 116.273C90.3465 117.041 93.3981 118.911 94.0115 119.287L144.332 115.953C144.555 115.94 144.746 116.109 144.76 116.33C144.774 116.552 144.606 116.744 144.384 116.758L93.9357 120.1C93.8571 120.105 93.7741 120.087 93.7012 120.041C93.6912 120.035 90.0477 117.813 88.7908 116.932C87.3837 115.947 87.2579 108.769 87.2579 108.749Z" fill="black" fill-opacity="0.5"/>
<path d="M88.9478 119.629C89.0221 119.418 89.2524 119.308 89.4611 119.383C89.6713 119.456 89.7814 119.686 89.7071 119.896C89.7042 119.907 88.3515 123.672 89.6627 125.669C90.3205 126.671 91.4187 127.715 92.3153 128.569C92.9072 129.132 93.4149 129.615 93.6866 129.983C94.0126 130.423 94.0669 130.781 93.7138 131.041C93.5364 131.174 93.2834 131.137 93.1518 130.958C93.0188 130.779 93.0574 130.528 93.2347 130.395C93.3491 130.31 93.0631 130.493 93.0403 130.462C92.8115 130.152 92.3253 129.69 91.7605 129.152C90.8353 128.271 89.7042 127.194 88.9921 126.111C87.4564 123.775 88.9435 119.64 88.9478 119.629Z" fill="black" fill-opacity="0.5"/>
<path d="M92.7675 123.017C92.7461 122.795 92.9077 122.599 93.1293 122.576C93.3495 122.555 93.5469 122.716 93.5683 122.938L94.1875 129.128C94.2104 129.348 94.0473 129.546 93.8271 129.567C93.6055 129.588 93.4082 129.427 93.3867 129.207L92.7675 123.017Z" fill="black" fill-opacity="0.5"/>
<path d="M116.008 130.65C116.028 130.43 116.224 130.267 116.444 130.287C116.666 130.307 116.829 130.501 116.809 130.723C116.807 130.729 116.611 132.623 118.104 132.483C118.932 132.406 120.08 132.589 121.243 132.775C122.9 133.039 124.586 133.308 125.024 132.829C125.174 132.665 125.428 132.653 125.593 132.802C125.757 132.952 125.769 133.207 125.62 133.371C124.889 134.172 122.986 133.867 121.117 133.57C120.005 133.391 118.904 133.217 118.177 133.284C115.709 133.516 116.007 130.659 116.008 130.65Z" fill="black" fill-opacity="0.5"/>
<path d="M104.33 131.424C104.127 131.335 104.034 131.097 104.124 130.893C104.214 130.689 104.452 130.597 104.656 130.686C104.67 130.693 109.698 132.921 112.192 132.276C114.177 131.761 117.111 133.001 119.578 134.041C120.576 134.463 121.494 134.85 122.217 135.065C123.581 135.468 126.202 135.798 128.536 135.818C130.354 135.834 131.971 135.669 132.609 135.215C132.79 135.086 133.042 135.129 133.171 135.31C133.299 135.491 133.256 135.742 133.076 135.871C132.285 136.433 130.497 136.639 128.53 136.622C126.125 136.602 123.413 136.259 121.99 135.837C121.232 135.612 120.29 135.215 119.266 134.783C116.914 133.789 114.115 132.608 112.394 133.054C109.625 133.771 104.346 131.431 104.33 131.424Z" fill="black" fill-opacity="0.5"/>
<path d="M130.438 129.469C130.272 129.319 130.259 129.064 130.408 128.9C130.557 128.734 130.811 128.72 130.977 128.87C130.99 128.881 135.424 132.832 134.814 135.479C134.526 136.724 134.235 137.662 133.86 138.28C133.417 139.012 132.868 139.324 132.123 139.19C131.904 139.151 131.758 138.941 131.797 138.723C131.837 138.505 132.045 138.359 132.264 138.399C132.632 138.465 132.919 138.282 133.172 137.864C133.494 137.334 133.758 136.468 134.029 135.3C134.532 133.12 130.45 129.479 130.438 129.469Z" fill="black" fill-opacity="0.5"/>
<path d="M129.868 137.876C130.078 137.952 130.186 138.183 130.108 138.392C130.031 138.602 129.801 138.709 129.591 138.632C129.585 138.631 127.574 137.881 127.547 138.279C127.547 138.288 127.554 138.278 127.567 138.293C127.723 138.516 128.175 138.772 128.776 138.995C129.418 139.233 130.201 139.414 130.965 139.464C131.823 139.52 132.646 139.414 133.183 139.038C135.059 137.726 142.683 133.064 142.705 133.051C142.895 132.935 143.142 132.995 143.258 133.186C143.374 133.376 143.314 133.623 143.124 133.739C143.102 133.752 135.482 138.411 133.643 139.697C132.938 140.191 131.934 140.335 130.915 140.268C130.068 140.212 129.205 140.013 128.498 139.752C127.752 139.476 127.16 139.113 126.908 138.754C126.789 138.586 126.732 138.409 126.744 138.229C126.841 136.739 129.86 137.873 129.868 137.876Z" fill="black" fill-opacity="0.5"/>
<path d="M128.364 136.974C128.181 136.849 128.132 136.599 128.256 136.415C128.381 136.232 128.631 136.183 128.814 136.307L131.91 138.412C132.093 138.537 132.142 138.787 132.017 138.97C131.893 139.154 131.643 139.201 131.458 139.077L128.364 136.974Z" fill="black" fill-opacity="0.5"/>
<path d="M86.8086 122.041C86.8672 121.825 87.0889 121.699 87.3034 121.756C87.5193 121.815 87.6451 122.036 87.5879 122.251C87.5765 122.289 84.0231 135.154 87.5622 142.693C87.6566 142.895 87.5694 143.134 87.3678 143.228C87.1675 143.322 86.9273 143.235 86.8344 143.033C83.1666 135.222 86.7986 122.078 86.8086 122.041Z" fill="black" fill-opacity="0.5"/>
<path d="M65.6518 117.887C65.7061 117.671 65.9249 117.541 66.1408 117.594C66.3567 117.648 66.4883 117.867 66.4339 118.083C66.4282 118.106 64.4692 125.819 64.8353 130.458C65.1999 135.061 70.5765 143.37 70.5908 143.394C70.7109 143.582 70.6565 143.83 70.4692 143.95C70.2834 144.071 70.0331 144.016 69.913 143.829C69.8973 143.805 64.412 135.327 64.0316 130.52C63.6556 125.75 65.6461 117.91 65.6518 117.887Z" fill="black" fill-opacity="0.5"/>
<path d="M68.7381 124.227C68.7081 124.007 68.8625 123.804 69.0827 123.774C69.3029 123.742 69.506 123.897 69.536 124.117C69.5432 124.165 71.8597 140.976 75.1128 142.371C75.3172 142.459 75.4131 142.695 75.3259 142.899C75.2387 143.103 75.0027 143.199 74.7982 143.112C71.1204 141.535 68.7453 124.277 68.7381 124.227Z" fill="black" fill-opacity="0.5"/>
<path d="M144.744 99.3829C144.725 99.1613 144.888 98.9668 145.11 98.9468C145.33 98.9281 145.526 99.0912 145.544 99.3128L146.164 106.184C146.182 106.405 146.019 106.6 145.797 106.618C145.577 106.638 145.381 106.474 145.363 106.252L144.744 99.3829Z" fill="black" fill-opacity="0.5"/>
<path d="M142.827 108.561C142.8 108.34 142.957 108.14 143.179 108.112C143.401 108.085 143.601 108.243 143.628 108.464L144.372 114.469C144.397 114.689 144.24 114.89 144.02 114.918C143.798 114.945 143.597 114.787 143.571 114.566L142.827 108.561Z" fill="black" fill-opacity="0.5"/>
<path d="M142.517 119.193C142.497 118.97 142.662 118.775 142.883 118.755C143.106 118.737 143.301 118.901 143.321 119.123L143.877 125.56C143.897 125.782 143.733 125.978 143.511 125.997C143.288 126.017 143.094 125.852 143.074 125.629L142.517 119.193Z" fill="black" fill-opacity="0.5"/>
</svg>
