<svg width="148" height="148" viewBox="0 0 148 148" fill="none" xmlns="http://www.w3.org/2000/svg">
<path d="M71.6545 7.12337C74.1813 6.10587 77.1506 6.3244 79.534 7.63009C79.8413 7.81582 80.206 7.77607 80.5489 7.75699C92.9332 7.7106 105.319 7.75034 117.704 7.73647C117.718 45.6707 117.706 83.605 117.711 121.539C105.301 121.619 92.8881 121.58 80.4778 121.557C80.3645 123.26 80.318 125.013 80.8685 126.653C81.7208 128.893 80.859 131.274 80.9272 133.578C80.9067 135.085 78.7936 135.279 78.9673 136.773C79.0847 137.378 78.4551 137.96 78.8416 138.512C78.3567 139.219 79.1353 140.273 78.3418 140.87C77.2133 141.564 75.815 141.434 74.546 141.515C73.277 141.463 71.9275 141.56 70.7502 141.007C70.0564 140.407 70.1943 139.399 70.0344 138.584C63.3869 138.783 56.7377 139.261 50.0872 139.171C56.7501 138.913 63.4087 138.611 70.0726 138.421C70.0276 137.762 69.2736 137.929 68.8147 137.884C63.7965 137.64 58.7879 137.236 53.767 136.999C59.1472 136.958 64.5301 137.46 69.8977 137.839C70.0713 135.741 70.3894 133.641 70.9713 131.603C71.0327 128.067 69.5112 124.754 68.2259 121.532C55.5822 121.632 42.9341 121.567 30.2891 121.561C30.3013 83.6242 30.2849 45.6872 30.2986 7.75164C43.546 7.71609 56.7952 7.7489 70.0425 7.73806C70.6328 7.7093 71.1161 7.32556 71.6545 7.12337ZM69.4554 8.90977C67.199 10.7946 65.665 13.9035 66.2838 16.8661C66.4914 15.9425 66.6144 14.9989 66.9191 14.0987C68.1402 12.1087 69.7205 9.99029 72.1653 9.4139C76.9964 8.14361 82.3916 11.7222 83.5282 16.4783C83.9639 15.2366 83.4941 13.8653 82.8697 12.7685C82.9775 12.8313 83.192 12.9556 83.3001 13.0184C82.714 11.4819 81.9532 9.92192 80.6107 8.90573C77.4882 6.29564 72.5845 6.32425 69.4554 8.90977ZM30.6046 8.06441C30.5924 45.7965 30.5664 83.5287 30.6141 121.261C43.1187 121.251 55.6247 121.246 68.1291 121.281C67.8819 120.538 67.6114 119.803 67.3725 119.059C55.854 118.995 44.333 119.045 32.8133 119.033C32.8173 82.7882 32.7847 46.5422 32.8282 10.2976C44.3547 10.2757 55.8868 10.344 67.4106 10.2674C68.2112 9.497 68.9431 8.63386 69.8869 8.01642C56.7936 8.10126 43.6978 8.02351 30.6046 8.06441ZM80.2787 8.0316C81.1336 8.66682 81.9353 9.37849 82.5159 10.2811C93.4196 10.3181 104.325 10.2934 115.228 10.2948C115.223 46.5395 115.242 82.784 115.223 119.029C103.769 119.037 92.3147 119.019 80.8605 119.038C80.7636 119.779 80.5832 120.511 80.5641 121.261C92.8392 121.257 105.117 121.258 117.392 121.259C117.449 83.5217 117.449 45.7829 117.396 8.04533C105.024 8.04663 92.6492 8.08219 80.2787 8.0316ZM33.1014 10.6035C33.1151 46.646 33.1191 82.6899 33.1041 118.731C44.4887 118.776 55.8731 118.74 67.2589 118.753C67.013 118.007 66.8342 117.242 66.5813 116.501C64.0682 116.367 62.3035 114.326 59.9092 113.866C56.7799 112.885 54.9305 109.853 53.592 107.06C53.0321 106.146 53.7517 105.273 54.0974 104.445C52.334 103.545 50.1978 102.627 49.5503 100.579C49.4874 99.1635 50.1527 97.8154 50.6717 96.53C50.7113 98.1036 49.1596 100.02 50.6184 101.3C51.6579 102.487 53.1575 103.052 54.4251 103.93C57.1512 98.4615 58.673 92.356 58.2085 86.226C59.103 92.9268 57.109 99.639 54.1805 105.608C53.8349 106.272 54.4427 106.905 54.6845 107.498C56.1064 110.29 58.2931 113.143 61.6628 113.442C62.2104 109.698 62.5629 105.927 62.9577 102.164H63.1092C62.9385 105.99 62.4468 109.811 62.1792 113.619C63.3525 114.545 64.7388 115.228 66.2152 115.494C65.3711 111.76 65.1074 107.935 64.8001 104.129C63.9901 95.9649 60.9989 88.2694 58.9555 80.3829C58.0704 76.8384 58.0253 73.1713 57.8396 69.5461C55.9656 71.1017 56.3905 73.7134 56.0996 75.8415C55.1243 77.9203 54.201 80.0878 54.1902 82.4344C53.9566 86.9377 53.4431 91.7811 50.8054 95.5658C52.3312 92.2127 53.1302 88.5602 53.26 84.8806C53.421 82.0491 53.8294 79.1508 55.2295 76.6362C55.706 75.8738 55.829 74.974 55.7539 74.0915C55.6828 72.1984 56.3754 70.2342 57.9243 69.0732C57.9188 66.683 57.6759 64.2368 57.576 61.826C57.1418 61.2236 56.5065 60.5967 56.8152 59.7744C57.4872 58.489 55.9575 57.3062 56.4261 55.9732C56.8003 55.1484 57.4927 54.5199 57.9039 53.7114C55.7007 51.3361 57.8779 48.2029 58.4968 45.6266C58.6634 42.0154 58.7153 38.3083 59.8694 34.8378C60.0702 34.1371 60.7258 33.6865 61.4428 33.6645C62.6489 33.655 63.5982 32.8163 64.486 32.106C63.7703 32.0473 62.9549 31.9326 62.5354 31.2673C63.1787 31.6675 64.3507 31.3957 64.18 30.4806C63.4876 29.6325 62.205 29.5286 61.5385 28.623C60.2914 27.1301 61.3458 24.7712 62.929 23.9886C61.8281 24.0337 60.6029 23.0994 60.7408 21.9179C60.7995 21.1092 61.4387 20.4714 62.1722 20.201C61.8199 20.5055 61.6927 21.1981 62.2841 21.2936C62.7662 21.1299 63.0189 20.6025 63.4807 20.3799C63.1214 21.1217 63.6761 22.1734 64.5816 21.9193C66.4268 21.7226 66.9076 19.3829 66.1947 17.9473C65.061 15.5216 65.8546 12.6654 67.3175 10.5649C55.9129 10.6158 44.5065 10.5394 33.1014 10.6035ZM82.7247 10.5845C83.6329 12.1265 84.1437 13.8912 84.1998 15.6792C85.4155 15.9427 86.8797 16.7937 86.7376 18.2304C86.8265 19.3191 85.5522 20.0813 85.9264 21.185C86.4578 22.0303 88.0422 21.7517 88.2035 20.7206C89.7469 21.5768 89.311 24.0504 87.463 24.0955C88.6226 24.9548 89.7004 26.3657 89.2864 27.8899C88.8617 29.2764 87.3606 29.7393 86.2529 30.4387C86.3647 31.0479 87.0641 31.1218 87.5531 31.2624C87.3373 31.799 86.9275 32.2157 86.4415 32.5175C88.4178 32.3331 90.7274 33.2101 91.1974 35.3382C92.3924 40.3851 91.5005 46.0302 94.3566 50.6127C95.0804 51.6536 94.3114 52.7598 93.2133 53.0207C93.8704 53.7432 94.1925 54.7061 94.9302 55.3617C95.8139 56.2633 95.4848 57.7178 94.6475 58.5292C93.981 59.0607 94.3647 60.0767 93.7241 60.6245C93.3361 61.0329 92.5919 61.022 92.4102 61.6244C91.7339 63.2756 90.8394 64.8286 90.1715 66.4799C89.8247 68.6708 90.3164 70.9067 90.2247 73.092C88.945 75.1531 89.9091 77.6117 90.1129 79.8287C90.0419 80.8037 91.4829 81.2587 91.002 82.309C91.7368 82.7926 91.7737 83.6898 91.0689 84.2253C91.2779 85.8014 91.3709 87.3927 91.6358 88.962C92.223 89.0044 93.2433 88.8227 93.2884 89.6696C94.0684 94.1482 94.8989 98.6173 95.6718 103.096C95.8971 104.13 95.6991 105.376 96.6142 106.124C97.9433 107.166 97.0402 109.024 96.2208 110.099C95.5176 110.78 96.453 112.287 95.2538 112.559C92.7831 113.165 90.3287 113.911 87.8291 114.362C86.645 113.738 85.8008 112.607 84.6425 111.937C83.9649 111.802 83.1086 112.227 82.6211 111.56C82.0473 113.951 81.3917 116.323 80.9478 118.744C92.2777 118.756 103.609 118.765 114.939 118.738C114.931 82.6915 114.95 46.6449 114.928 10.5983C104.193 10.5584 93.4591 10.5871 82.7247 10.5845ZM76.0594 12.1948C76.5687 12.0786 77.0906 11.9668 77.6151 12.0582C77.234 12.6825 76.3802 12.2099 75.8845 12.6592C77.7475 12.5829 80.3905 13.5976 80.3496 15.7802C80.4945 15.2216 80.4807 14.6439 80.445 14.0717C80.8577 14.4719 81.0393 15.0524 80.8358 15.6029C80.9409 15.4594 81.0474 15.3187 81.1607 15.1807C81.2223 15.9866 80.68 16.6368 80.3168 17.3033C80.9695 16.8156 81.027 15.8542 81.7248 15.439C81.703 16.1723 81.2345 16.7624 80.8522 17.3498C81.6799 17.1668 81.7837 16.0412 82.5691 15.7559C82.6196 15.9428 82.6728 16.1301 82.7288 16.3158C82.5185 13.8354 80.3346 11.3073 77.6888 11.594C77.1043 11.6129 76.2711 11.4694 76.0594 12.1948ZM72.9725 13.939C71.6147 13.3517 69.7081 14.1425 69.4008 15.6574C69.133 16.8428 68.4679 18.0148 68.7614 19.2591C69.1548 20.4925 69.185 21.8009 69.4718 23.0575C70.1644 25.1773 71.623 27.1511 73.6964 28.0772C74.9161 28.5374 76.0484 27.6332 76.9364 26.9025C78.3404 25.8016 79.1298 24.1243 79.5492 22.4265C81.1077 22.6492 80.8633 20.2998 80.9123 19.2754C80.6281 19.4831 80.4932 19.8082 80.373 20.125C80.2882 20.1401 80.1203 20.1688 80.0354 20.1836C80.6325 20.2643 80.7553 21.204 80.3769 21.5591C80.3524 21.2013 80.2937 20.8407 80.0779 20.5444C79.8702 21.0867 79.8909 21.6972 79.6012 22.2094C79.5274 20.6863 80.209 19.1661 79.7529 17.6529C79.7023 17.2364 79.2434 16.8375 79.5589 16.4303C79.3936 15.9645 79.2912 15.4578 78.9156 15.1055C78.9743 15.081 79.0931 15.0331 79.1519 15.0099C78.6342 14.1766 77.6972 14.0072 76.7752 14.1304C77.028 13.9499 77.2889 13.7821 77.5566 13.6222C75.9638 13.2261 74.5187 14.533 72.9725 13.939ZM67.7889 19.0446C67.9802 20.2329 67.7656 22.0318 69.0659 22.6095C69.0032 21.9524 68.9853 21.2587 68.6793 20.659C68.6098 20.883 68.5387 21.1056 68.4485 21.3228C67.9679 20.551 68.7478 19.5335 67.7889 19.0446ZM75.0949 29.3582C73.8301 29.2502 72.9506 28.1931 71.9657 27.5076C72.0954 28.7369 72.2199 30.0207 71.8362 31.2186C71.5616 32.0887 70.8103 32.6704 70.4088 33.4668C73.4712 34.5363 76.924 34.4188 79.8689 33.0378C78.1504 31.6091 78.1191 29.2708 77.8939 27.229C77.0182 27.9841 76.3721 29.2845 75.0949 29.3582ZM78.3457 28.5032C78.5644 30.0288 79.6598 31.1926 80.3479 32.5174C82.0376 35.4759 82.4624 38.9302 82.752 42.2657C83.0784 46.6843 82.9051 51.1233 83.252 55.5405C84.07 50.3612 86.3906 45.5737 87.6363 40.5105C86.5136 39.4288 84.8404 39.0519 83.6289 38.0341C83.835 37.3239 83.8651 36.5836 83.8242 35.8488C85.8307 35.3338 87.9737 35.6534 90.0293 35.3599C88.2209 36.1152 86.104 35.9403 84.1725 36.2859C84.1316 36.7994 83.9937 37.3076 84.0264 37.8251C85.2281 38.6215 86.5463 39.236 87.7907 39.9613C88.3876 40.3314 88.1798 41.1168 88.0242 41.6701C86.6596 46.1829 84.5386 50.4676 83.6233 55.1157C83.0907 58.6492 84.5903 62.0802 86.5422 64.9405C87.1212 63.356 87.5337 61.6992 87.7592 60.0273C86.6051 55.2114 85.5438 49.9733 86.9972 45.1229C86.4958 49.1387 86.9193 53.198 87.6937 57.1413C88.9023 53.9943 93.594 55.9203 94.0188 58.6451C94.5284 57.8911 95.3125 56.9582 94.8139 56.0076C94.228 55.1676 93.1802 54.8372 92.4686 54.1241C91.4181 53.153 90.0524 52.1177 88.5363 52.4276C87.4955 53.1544 87.9504 54.5311 87.538 55.5241C87.1253 54.3318 87.792 53.183 88.1485 52.1245C86.806 50.3926 88.9174 48.6333 88.4765 46.758C89.5077 48.5131 87.142 50.4281 88.5243 52.0876C90.5622 51.7337 92.1042 53.2786 93.6107 54.3562C93.4072 53.7976 92.5917 53.4848 92.7284 52.8346C93.2665 52.3865 94.4098 52.1285 94.0246 51.1928C92.1684 47.1949 89.8109 43.3815 88.6334 39.0982C88.4395 38.3047 88.3166 37.3976 88.7388 36.656C88.833 40.1334 90.7698 43.2284 92.0415 46.3877C91.6494 43.7953 91.3175 41.1879 91.1742 38.5656C91.0048 37.1477 90.9774 35.6288 90.222 34.3695C89.6006 33.3629 88.3345 33.005 87.2117 33.1225C88.1787 33.77 89.352 34.222 90.0267 35.2163C87.6473 34.0498 85.4702 32.4028 82.8559 31.7539C83.1264 32.139 83.405 32.5283 83.543 32.9859C82.1128 31.2227 80.5614 29.2641 78.3457 28.5032ZM67.9269 33.3986C68.0567 32.3892 68.4855 31.4535 68.797 30.4933C65.8862 31.3907 63.679 33.5856 61.1618 35.1632C61.4746 34.6755 61.9226 34.3013 62.3624 33.9325C61.6372 34.0664 60.6236 34.0621 60.4024 34.9501C59.4519 37.8471 59.2563 40.9366 59.1184 43.9634C59.8055 42.3763 60.0254 40.5815 60.8422 39.0736C60.2385 42.4117 59.0652 45.6159 58.0394 48.8436C57.5805 50.3242 56.8114 52.1217 58.083 53.4219C58.8739 52.0697 60.1946 50.8296 61.8473 50.8144C62.5179 50.7695 63.0423 51.2488 63.347 51.798C63.534 50.3392 62.8252 48.9705 62.9249 47.5159L63.0956 47.5214C63.0177 48.8735 63.9984 50.0497 63.7457 51.4073C63.5464 52.3716 63.855 53.3317 63.7991 54.3028C64.2361 52.1762 64.486 50.0127 64.5012 47.8409C64.8849 49.4131 64.6704 51.0575 64.5558 52.6527C64.1422 57.3815 61.6029 61.7508 61.9879 66.5806C63.8647 62.7563 66.2727 59.1378 67.4801 55.02C68.2165 52.0888 67.7056 49.0526 67.5525 46.0845C67.185 41.7123 67.5799 37.1175 69.7105 33.2016C70.444 31.721 71.6311 30.3553 71.6186 28.6163C69.1343 28.8366 68.9009 31.6652 67.9269 33.3986ZM85.473 32.1146C85.981 32.2949 86.4467 31.9642 86.8797 31.7417C86.4017 31.8194 85.9004 31.8674 85.473 32.1146ZM70.1574 33.6868C70.0551 33.8888 69.9526 34.0925 69.8582 34.3C73.2266 35.6126 77.1438 35.4623 80.4478 34.0242C80.3808 33.8547 80.3125 33.684 80.247 33.5161C77.066 34.782 73.3535 35.0238 70.1574 33.6868ZM69.7367 34.5239C68.9909 36.0345 68.5333 37.6737 68.2466 39.329C69.0661 39.135 69.8447 38.7705 70.69 38.6844C69.8132 39.172 68.8092 39.605 68.3352 40.5543C67.4092 42.5348 67.9801 44.8063 68.1905 46.8865C68.2288 47.9232 69.2504 48.3902 70.0821 48.7196C69.1042 49.8779 67.9775 51.23 68.3326 52.8636C68.8668 53.6176 69.7939 52.7858 70.3008 52.3978C69.9976 53.2336 69.0771 53.5029 68.2998 53.6967C68.2398 54.7403 68.3983 55.833 67.7644 56.7467C69.2996 56.8423 70.9987 56.9324 72.3429 56.0501C72.986 55.6539 73.3918 54.9915 73.9913 54.5464C72.8727 56.8587 70.0222 57.2221 67.7315 57.0199C67.5745 57.3286 67.4337 57.6456 67.3026 57.9651C68.7244 57.8735 70.048 58.4746 71.3935 58.8283C73.9722 59.5618 76.6739 59.5262 79.325 59.6846C76.2272 59.6806 73.0816 59.5399 70.1014 58.596C69.0906 58.4279 67.5349 57.7014 66.8491 58.7626C70.783 60.0725 74.9148 60.7841 79.0601 60.8456C80.7167 60.9331 82.3817 61.0559 83.9894 61.4944C83.8583 59.8622 81.9229 60.324 80.8425 59.8608C81.7452 59.8104 82.64 59.9825 83.5169 60.1778C82.9651 58.618 82.9761 56.6703 81.3056 55.8125C81.7837 55.9122 82.2576 56.0352 82.7451 56.0856C82.6235 54.7211 82.4897 53.2187 81.1784 52.4416C82.6851 52.1739 82.898 50.6647 82.4065 49.4284C81.6374 48.6868 80.5679 48.4026 79.657 47.8836C80.6362 47.8495 81.6264 47.9192 82.5894 47.6897C82.4528 44.8609 83.1249 41.2374 80.4465 39.3469C80.975 39.5122 81.5063 39.6925 82.0677 39.687C81.8097 37.8157 81.4025 35.9472 80.6445 34.21C77.2395 35.7326 73.2237 35.8611 69.7367 34.5239ZM59.6007 52.0658C58.5147 53.071 58.0709 54.5653 56.9934 55.5856C56.2899 56.1989 56.7912 57.0852 56.9974 57.8022C57.5698 55.4994 61.1033 55.1471 62.3994 56.9937C61.192 56.6249 59.9641 55.7646 58.6626 56.3013C57.4796 56.6509 56.8499 58.0319 57.5247 59.1136C57.0493 59.6804 56.9523 60.4576 57.4345 61.0545C57.5685 59.993 57.5412 58.4239 58.8986 58.2011C58.4929 58.6738 58.0628 59.1477 57.9207 59.776C58.8876 58.7557 60.3711 58.3992 61.7316 58.6271C60.8545 57.7914 59.6048 57.4074 58.4276 57.7654C59.6786 56.8366 61.7576 57.1289 62.5414 58.5467C62.7954 57.5824 63.6206 56.3217 62.7081 55.4735C61.562 54.4793 59.9532 54.9136 58.6118 55.1362C59.9901 54.1746 62.1261 54.0503 63.3051 55.4011C63.3773 54.8276 63.484 54.2524 63.4375 53.6734C62.3435 53.381 61.2412 53.7334 60.1608 53.9015C61.0417 53.183 62.4979 52.4961 63.4703 53.4344C63.3022 52.6517 63.3051 51.6163 62.4609 51.2243C61.4431 50.9048 60.3683 51.406 59.6007 52.0658ZM89.2236 56.2673C88.266 56.7821 87.8946 57.8722 87.7949 58.891C89.203 57.9294 91.1275 58.3405 92.3704 59.3895C92.074 58.193 90.9144 57.4377 89.7043 57.5237C91.6492 56.8093 93.4194 59.0303 92.667 60.8565C95.4042 59.1929 91.6836 54.5312 89.2236 56.2673ZM88.6827 59.5466C88.2824 61.3727 87.967 63.2331 87.3223 64.9992C86.5535 66.3609 88.1828 67.3744 88.7126 68.5041C89.677 65.969 91.1727 63.6838 92.245 61.2007C93.1763 59.2393 89.7358 58.29 88.6827 59.5466ZM66.5965 59.3281C65.2935 61.4915 64.0465 63.6974 62.8034 65.9005C61.4445 67.8701 61.3105 70.9666 58.6374 71.7492C58.5323 78.8982 61.3173 85.5717 63.1286 92.3657C64.5324 97.373 65.4749 102.515 65.8355 107.707C66.1429 112.699 67.0389 117.737 69.1164 122.306C70.9603 121.828 72.8684 121.735 74.7655 121.694C74.6604 120.37 74.4977 119.045 74.532 117.716C72.3549 117.846 70.1694 117.964 68.0019 118.234C69.1532 117.816 70.4057 117.705 71.6241 117.63C71.6337 117.524 71.6555 117.309 71.6665 117.203C71.7389 117.322 71.81 117.443 71.8823 117.566C72.7606 117.517 73.647 117.546 74.5156 117.38C74.162 111.048 73.9927 104.698 73.2701 98.3921C72.3167 91.0356 72.4123 83.5751 73.2359 76.2158C72.4165 75.417 71.1326 75.1067 70.2788 74.2817C71.1148 74.4157 71.9396 74.6492 72.7934 74.6517C72.7305 71.0993 73.031 67.5522 73.326 64.0143C71.6186 63.9254 69.9373 63.5963 68.271 63.2276C67.6836 65.648 67.5157 68.2063 66.8368 70.5706C67.0594 68.0642 67.5854 65.5946 67.9214 63.1021C66.9516 62.777 65.8384 62.729 64.9792 62.1704C65.9873 62.2974 66.9488 62.6758 67.9623 62.7783C68.1782 61.7841 68.2956 60.7706 68.5372 59.783C67.9009 59.6436 67.218 59.3035 66.5965 59.3281ZM58.0094 60.9767C58.2019 64.446 58.5722 67.9084 58.7197 71.3834C60.5594 70.5366 61.3627 68.373 61.3283 66.4579C61.353 64.6156 61.6958 62.8016 61.8284 60.9712C61.6112 58.9961 58.0886 58.9033 58.0094 60.9767ZM68.8721 59.8784C68.7491 60.8809 68.5114 61.8659 68.3462 62.8616C70.0167 63.1047 71.7022 63.3602 73.3958 63.2849C73.4368 62.4874 73.5571 61.6978 73.6704 60.9098C72.045 60.7036 70.4524 60.302 68.8721 59.8784ZM74.0378 60.9698C73.9436 61.7526 73.8466 62.5351 73.732 63.3149C75.375 63.4053 77.029 63.341 78.6585 63.1168C78.597 62.5459 78.4865 61.9832 78.3551 61.4274C76.9076 61.3837 75.472 61.1624 74.0378 60.9698ZM78.7679 61.4821C78.8594 61.9955 78.9644 62.5079 79.0834 63.0175C79.343 63.0132 79.6011 63.0107 79.862 63.0146C79.6189 63.1077 79.3716 63.188 79.1243 63.2645C79.5369 65.5771 80.1051 67.862 80.4985 70.1758C79.6449 68.0163 79.3633 65.6261 78.7624 63.3697C77.0838 63.7344 75.3736 63.9353 73.6607 64.0185C73.2865 67.5658 72.982 71.1198 72.8863 74.6846C75.5101 74.8936 78.115 74.4168 80.7156 74.1724C78.5998 74.9523 76.0608 74.8866 74.236 76.3495C73.7018 80.0346 73.3399 83.7525 73.213 87.4774C72.9712 95.9293 74.8041 104.271 74.8424 112.714C76.5852 114.241 79.545 114.446 81.2535 112.757C82.5225 111.575 82.3436 109.689 82.5717 108.116C82.8653 106.39 81.5513 105.031 81.0802 103.473C80.2237 101.232 80.5803 98.7948 80.9517 96.4932C81.9802 90.2829 85.0671 84.7113 87.0203 78.7848C88.0706 75.6461 88.3506 72.3256 88.7387 69.0625C87.2826 66.9141 85.5603 64.9444 83.9704 62.8903C82.8614 61.1393 80.5038 61.7962 78.7679 61.4821ZM87.8741 77.8425C87.2731 79.1249 88.4736 80.2095 88.6418 81.4428C88.7102 82.2186 89.3574 82.7939 90.1184 82.8619C89.9666 79.5538 88.4136 76.0681 89.8355 72.8734C89.7577 71.2643 89.6375 69.6539 89.6443 68.0381C88.6758 71.2166 88.8956 74.6557 87.8741 77.8425ZM87.3085 79.5554C87.2513 79.7739 87.1967 79.9937 87.1393 80.2122C87.2935 80.2137 87.4492 80.2151 87.605 80.2192C87.5041 79.9977 87.4042 79.7766 87.3085 79.5554ZM90.2016 80.8748C90.2561 81.3021 90.3055 81.7352 90.4324 82.1504C91.2191 82.052 90.5184 81.1696 90.2016 80.8748ZM87.9806 82.3825C88.0516 82.3772 88.1949 82.3663 88.266 82.3593C88.3452 82.0971 88.4586 81.828 88.3726 81.5522C88.2087 81.8116 88.0886 82.0958 87.9806 82.3825ZM86.6078 88.2256C85.8321 88.3008 85.0426 88.346 84.3078 88.6328C83.5798 93.5812 83.2272 98.5955 83.0716 103.595C83.084 104.622 82.957 105.723 83.5442 106.631C84.2011 107.771 83.6793 109.162 84.0837 110.334C84.4827 104.704 84.6792 99.0558 85.1588 93.4298C85.2503 99.1691 84.387 104.958 84.6412 110.696C84.5809 110.709 84.4608 110.737 84.4007 110.752C85.4932 111.623 86.5643 112.527 87.7129 113.324C87.2034 105.698 88.4493 98.1299 88.8807 90.5328C87.4249 89.9564 85.761 89.7459 84.4608 88.8828C85.9689 89.2379 87.415 89.8129 88.9081 90.2118C88.8617 89.4005 89.5323 88.9921 90.2714 89.0262C89.0965 88.686 87.8947 88.4183 86.6817 88.2667C87.5109 86.3641 87.2225 84.0735 87.3264 82.0083C86.6872 83.9507 86.7022 86.1687 86.6078 88.2256ZM83.9609 88.2667C84.6396 88.0032 85.3621 87.8871 86.0848 87.8105C86.3429 85.9803 86.2787 84.1309 86.3838 82.2938C85.5848 84.288 84.8474 86.3094 83.9609 88.2667ZM87.8291 82.8676C87.534 83.7048 88.1419 84.2471 88.8794 84.4669C88.8154 84.2074 88.7524 83.9478 88.6908 83.691C89.4341 83.5995 88.7852 85.0639 89.7072 84.7825C89.6879 84.2238 89.5227 83.6391 89.8505 83.1173C89.1089 82.847 88.6936 83.5764 88.3043 84.0532C88.1965 83.4289 88.6596 83.0109 89.1702 82.7761C88.7291 82.5246 88.2567 82.6584 87.8291 82.8676ZM90.4352 82.5192C90.6823 82.9303 90.8967 83.3619 91.0305 83.8248C91.7081 83.3468 91.1016 82.5356 90.4352 82.5192ZM90.1715 83.5723C90.3232 85.4639 90.5608 87.3543 90.6962 89.2499C90.8695 89.2499 91.0444 89.2515 91.2191 89.2528C91.0483 87.5209 90.9186 85.7794 90.6645 84.0572C90.6481 83.7798 90.3834 83.0232 90.1715 83.5723ZM88.0939 84.3645C88.3958 85.5994 88.3781 86.8818 88.6512 88.1233C89.1841 88.2751 89.7219 88.4074 90.2643 88.5222C90.2126 87.4129 90.0199 86.3177 89.9269 85.2127C89.2577 85.0774 88.6199 84.8057 88.0939 84.3645ZM87.6664 84.4818C87.6706 85.6374 87.4971 86.7834 87.4453 87.9374C87.6925 87.9756 87.9397 88.0113 88.1884 88.0454C87.9481 86.8692 87.8702 85.6674 87.7732 84.4736L87.6664 84.4818ZM89.4584 89.6776C88.818 94.5635 88.673 99.5051 88.0968 104.402C87.7087 107.409 88.1089 110.427 88.1227 113.44C90.5772 113.067 92.9824 112.369 95.4135 111.85C95.5626 108.915 95.7156 105.949 95.1772 103.04C94.3715 98.5586 93.6011 94.0702 92.8076 89.5877C91.6903 89.6121 90.5743 89.664 89.4584 89.6776ZM95.9558 105.997C96.0175 107.292 96.0323 108.594 95.8865 109.884C96.736 108.755 97.3982 106.961 95.9558 105.997ZM74.8274 113.325C75.1005 117.82 74.8668 122.375 75.8436 126.802C77.4047 126.678 79.0478 126.491 80.5079 127.22C80.1896 126.202 79.9971 125.151 79.9357 124.087C78.5793 124.078 77.0357 125.207 75.8284 124.133C77.2149 124.502 78.5684 123.999 79.9302 123.785C79.9247 120.025 80.9792 116.382 81.8097 112.747C80.1419 114.855 76.8748 114.889 74.8274 113.325ZM69.1138 122.482C70.3472 125.757 72.0491 129.319 71.1326 132.876C71.9972 131.356 74.0472 130.677 75.6262 131.461C76.622 131.842 77.2692 132.716 78.015 133.428C77.5644 132.407 77.2639 131.279 76.5645 130.395C75.6248 129.721 74.3751 129.745 73.2959 130.027C74.1907 129.341 75.4322 129.452 76.4334 129.82C75.9622 128.982 75.7833 128.028 75.4513 127.138C74.4666 126.62 73.3546 127.225 72.3604 127.438C73.2208 126.803 74.3231 126.589 75.3762 126.671C75.0675 125.146 74.8394 123.599 74.7928 122.043C72.8905 121.993 70.9837 122.132 69.1138 122.482ZM76.0348 127.279C76.3067 128.191 76.6343 129.087 77.0318 129.953C78.2898 129.822 79.6229 129.968 80.6784 130.719C80.4436 129.659 81.4421 127.777 79.9614 127.411C78.7008 126.915 77.3364 127.086 76.0348 127.279ZM77.1738 130.249C77.768 131.255 78.0494 132.41 78.6011 133.418C78.6053 133.11 78.593 132.804 78.5726 132.5C78.6723 132.444 78.8689 132.334 78.9686 132.279C78.9468 132.614 78.9303 132.95 78.9277 133.287C79.8413 132.891 79.9383 131.682 80.1639 130.83C79.2444 130.36 78.1997 130.182 77.1738 130.249ZM71.6655 132.55C73.2511 131.621 75.2426 131.863 76.8024 132.722C75.5363 131.139 73.0051 130.966 71.6655 132.55ZM80.5216 132.01C80.1487 132.804 79.7293 133.87 78.6914 133.885C78.8511 134.302 78.9974 134.725 79.1489 135.147C80.284 134.572 80.8126 133.225 80.5216 132.01ZM71.6066 133.037C70.5822 133.677 70.5851 135.012 70.5919 136.08C72.7402 133.794 76.4146 134.328 78.5235 136.386C78.6053 135.657 78.5629 134.836 77.9974 134.296C76.4896 132.519 73.6376 131.607 71.6066 133.037ZM72.1706 135.419C73.5489 135.252 75.0309 135.035 76.3257 135.686C76.734 135.847 76.4187 136.342 76.4198 136.657C76.8174 136.547 77.2175 136.442 77.6109 136.317C76.1618 134.934 73.9901 134.438 72.1706 135.419ZM73.5747 135.561C73.5338 135.972 73.4627 136.381 73.3754 136.787C73.885 136.789 74.3957 136.78 74.9066 136.741C74.9161 136.353 74.9299 135.967 74.9407 135.58C74.49 135.492 74.027 135.464 73.5747 135.561ZM70.9619 136.262C71.0779 136.379 71.1954 136.499 71.3143 136.621C71.3703 136.18 71.6435 135.833 71.9193 135.505C71.5559 135.695 71.2338 135.954 70.9619 136.262ZM71.7295 136.587C72.3644 137.258 73.5885 136.583 73.2578 135.63C72.5983 135.542 71.6367 135.752 71.7295 136.587ZM75.1961 135.53C75.237 135.905 75.2546 136.282 75.2589 136.662C75.5471 136.64 75.8368 136.62 76.1277 136.598C76.151 136.392 76.1741 136.187 76.2 135.983C75.9119 135.74 75.5594 135.608 75.1961 135.53ZM70.4825 136.5C70.3459 137.072 70.3692 137.662 70.5056 138.233C73.0339 138.629 75.6373 138.421 78.1669 138.094C78.2502 137.61 78.3308 137.115 78.22 136.631C76.2341 137.226 74.139 137.208 72.082 137.199C71.474 137.193 70.9522 136.848 70.4825 136.5ZM70.5767 138.764C70.4484 139.808 71.1339 140.735 72.2307 140.7C74.0651 140.772 75.9719 140.936 77.7515 140.387C78.5345 140.127 78.1053 139.178 78.074 138.59C75.5924 138.902 73.0694 138.917 70.5767 138.764Z" fill="black" fill-opacity="0.5"/>
<path d="M72.3906 8.43072C73.9218 7.82976 75.7384 7.83236 77.2694 8.42667C75.6523 8.11376 74.005 8.08659 72.3906 8.43072Z" fill="black" fill-opacity="0.5"/>
<path d="M80.582 10.1992C81.3278 10.5707 81.9234 11.2346 82.3291 11.9543C81.6761 11.4475 81.1516 10.7934 80.582 10.1992Z" fill="black" fill-opacity="0.5"/>
<path d="M69.2812 18.2205C70.0489 17.1674 71.4856 17.5867 72.5156 17.9323C72.8994 18.0401 72.7504 18.5155 72.8162 18.809C71.7357 18.241 70.4765 18.1864 69.2812 18.2205Z" fill="black" fill-opacity="0.5"/>
<path d="M75.7597 17.9621C76.9317 17.574 78.4205 17.1657 79.4462 18.1069C78.1446 18.1353 76.7964 18.2284 75.6055 18.8021C75.6532 18.5207 75.7052 18.242 75.7597 17.9621Z" fill="black" fill-opacity="0.5"/>
<path d="M70.6248 18.6065C71.775 18.5682 72.6055 19.616 72.9605 20.6117C72.6055 20.5133 72.3828 20.2047 72.1164 19.9739C72.0563 20.1433 71.9961 20.3127 71.9375 20.4819C72.1615 20.5065 72.3867 20.5338 72.6108 20.5666C71.9635 20.837 71.2025 20.8985 70.5128 20.7742C69.9241 20.4737 69.7685 19.6364 69.0117 19.5805C69.2794 19.3961 69.5322 19.1898 69.7698 18.9685C69.8231 19.0479 69.9325 19.2048 69.9856 19.2841C70.0074 19.1665 70.0294 19.0479 70.0512 18.9304C70.2151 18.9617 70.3804 18.9946 70.5445 19.0288C70.5646 18.922 70.6056 18.7117 70.6248 18.6065ZM70.1918 19.8879C70.3174 20.3072 70.7163 20.4764 71.1097 20.5652C70.9717 20.3357 70.8296 20.1103 70.6877 19.8849C70.5209 19.885 70.3557 19.8863 70.1918 19.8879ZM71.3378 19.9615C71.3145 20.1473 71.2927 20.3331 71.2722 20.5186C71.4443 20.5173 71.6166 20.516 71.7899 20.516C71.6616 20.3138 71.5208 20.1186 71.3378 19.9615Z" fill="black" fill-opacity="0.5"/>
<path d="M77.031 18.7875C77.4231 18.7068 77.8205 18.6509 78.2206 18.625C78.2043 18.7561 78.1892 18.8872 78.1742 19.0183C78.487 19.1112 78.7957 19.2163 79.1071 19.3189C79.3255 19.241 79.5483 19.1742 79.775 19.1207C79.8651 19.7518 78.9376 19.5866 78.7669 20.1054C78.3627 21.0806 77.1417 20.8527 76.318 20.6833C76.4096 20.5562 76.5024 20.4319 76.5966 20.3062C76.7196 20.3731 76.8452 20.4415 76.971 20.5084C76.964 20.3432 76.96 20.1778 76.9558 20.0126C76.5365 20.0358 76.2401 20.3227 76.0283 20.66C75.9533 20.6259 75.8017 20.5562 75.7266 20.522C76.0408 20.0944 76.3863 18.5292 76.9926 19.1479C77.0023 19.0579 77.0214 18.8775 77.031 18.7875ZM77.6865 20.3076C77.501 20.2845 77.3177 20.2531 77.1347 20.2176C77.1457 20.2899 77.169 20.4361 77.18 20.5085C77.5461 20.4935 77.9257 20.4744 78.2469 20.2722C78.2359 20.0973 78.2251 19.9239 78.2139 19.7505C77.9912 19.8883 77.7767 20.0509 77.6865 20.3076Z" fill="black" fill-opacity="0.5"/>
<path d="M73.3242 23.1719C73.6071 23.2798 73.8747 23.4232 74.1413 23.568C74.3283 23.4492 74.5426 23.3999 74.764 23.3823C74.6506 23.6008 74.4676 23.766 74.2817 23.9217C73.9334 23.7209 73.3776 23.6553 73.3242 23.1719Z" fill="black" fill-opacity="0.5"/>
<path d="M72.6133 25.1016C73.0885 25.0142 73.4876 24.7383 73.8713 24.4609C73.9969 24.5675 74.1254 24.6741 74.2523 24.7818C74.9092 23.9282 75.4802 25.4539 76.2821 24.9226C75.6906 25.4157 75.3983 26.3526 74.5311 26.4237C73.6335 26.5522 73.0639 25.7395 72.6133 25.1016ZM73.1294 25.4731C73.7864 26.156 74.8998 26.2405 75.5266 25.469C74.7275 25.5004 73.9272 25.5618 73.1294 25.4731Z" fill="black" fill-opacity="0.5"/>
<path d="M76.4182 33.185C76.4114 32.5102 76.5917 31.8232 77.0165 31.2891C76.8827 31.9338 76.8103 32.6345 76.4182 33.185Z" fill="black" fill-opacity="0.5"/>
<path d="M73.6836 31.5078C74.0511 31.994 74.2655 32.573 74.4103 33.1605C73.9349 32.7493 73.7696 32.1047 73.6836 31.5078Z" fill="black" fill-opacity="0.5"/>
<path d="M60.2383 35.8085C61.6985 35.3727 63.3237 35.5148 64.8507 35.4533C66.0924 35.3769 67.0035 36.3739 67.2902 37.4995C65.8 38.6248 63.9876 39.2492 62.5028 40.3923C63.4412 44.0774 65.4845 47.3911 66.4229 51.0856C67.1209 53.2573 67.1359 55.7937 65.8355 57.7334C66.207 56.3073 66.8327 54.8718 66.5595 53.364C66.0145 49.7976 64.1815 46.6233 62.8101 43.3358C62.5178 42.2921 61.473 40.7884 62.507 39.9156C63.948 39.021 65.4531 38.2301 66.8791 37.3151C66.5553 36.7113 66.0226 36.1608 65.3042 36.098C63.6229 35.8945 61.9156 36.0912 60.2383 35.8085Z" fill="black" fill-opacity="0.5"/>
<path d="M75.2812 42.2945C76.5391 41.3698 78.26 41.1978 79.753 41.5337C78.211 41.3412 76.6825 41.6512 75.2812 42.2945Z" fill="black" fill-opacity="0.5"/>
<path d="M73.1367 46.9066C74.3251 46.5896 75.463 46.1375 76.5758 45.6172C75.6295 46.4243 74.3577 46.7987 73.1367 46.9066Z" fill="black" fill-opacity="0.5"/>
<path d="M74.0312 54.4405C74.4971 53.5323 75.0651 52.6034 75.8915 51.9805C75.2975 52.8137 74.7442 53.707 74.0312 54.4405Z" fill="black" fill-opacity="0.5"/>
<path d="M83.5977 82.6087C84.7832 78.9086 85.9839 75.1976 86.8662 71.4141C86.723 74.6088 85.465 77.6029 84.4731 80.6023C84.1755 81.266 84.0937 82.0527 83.5977 82.6087Z" fill="black" fill-opacity="0.5"/>
<path d="M60.0586 73.5898C60.4793 74.7003 60.553 75.9062 60.8016 77.0618C61.5624 81.3383 62.9611 85.4673 63.9635 89.6811C62.2782 84.454 60.5941 79.0887 60.0586 73.5898Z" fill="black" fill-opacity="0.5"/>
<path d="M65.9102 79.0078C67.6299 87.252 70.3205 95.3832 70.6976 103.865C70.6635 108.128 71.0185 112.378 71.5921 116.596C70.5445 112.556 70.5308 108.3 70.315 104.141C70.1062 95.5744 67.1874 87.4093 65.9102 79.0078Z" fill="black" fill-opacity="0.5"/>
<path d="M75.7661 96.4943C76.0952 90.6909 77.5567 84.8735 79.9906 79.6328C78.204 84.7369 76.5117 89.9599 76.1936 95.4015C75.7331 100.638 76.4571 105.874 76.4024 111.114C76.102 111.016 76.2069 110.657 76.166 110.425C76.0679 105.781 75.3385 101.141 75.7661 96.4943Z" fill="black" fill-opacity="0.5"/>
<path d="M85.9309 110.051C85.9036 106.112 86.3407 102.177 86.6495 98.25C86.5959 102.186 86.245 106.127 85.9309 110.051Z" fill="black" fill-opacity="0.5"/>
<path d="M76.125 117.008C77.4649 117.469 78.9305 117.728 80.2637 117.088C79.1327 118.11 77.2273 117.982 76.125 117.008Z" fill="black" fill-opacity="0.5"/>
<path d="M76.5625 120.473C77.6196 120.679 78.6768 120.656 79.7381 120.512C78.76 120.902 77.4874 121.072 76.5625 120.473Z" fill="black" fill-opacity="0.5"/>
<path d="M81.5703 137.873C87.5241 137.282 93.5421 136.955 99.5357 136.855C93.5395 137.062 87.5652 137.745 81.5703 137.873Z" fill="black" fill-opacity="0.5"/>
<path d="M81.4688 138.465C88.9975 138.554 96.522 138.978 104.045 139.31C96.5207 139.142 88.973 138.995 81.4688 138.465Z" fill="black" fill-opacity="0.5"/>
</svg>
