<svg width="216" height="152" viewBox="0 0 216 152" fill="none" xmlns="http://www.w3.org/2000/svg">
<path d="M215.01 2.23438H2.16016V150.211H215.01V2.23438Z" fill="white"/>
<path d="M40 8H176V144H40V8Z" fill="#FEFEFE"/>
<path d="M93.1958 10.1472C95.9956 9.74724 97.5383 11.419 99.9274 11.881C100.663 12.0232 101.595 11.6762 102.27 11.8966C102.446 11.9541 102.516 12.0207 102.584 12.1924C102.766 12.6477 102.403 13.3994 102.228 13.829C102.485 13.9246 102.747 14.0046 103.014 14.0689C103.28 14.1331 103.55 14.1812 103.823 14.2131C104.39 14.2743 105.392 14.0316 105.869 14.3095C106.03 14.4028 106.133 14.5104 106.18 14.6937C106.376 15.4584 105.563 16.727 105.169 17.3348C105.722 17.4148 106.416 17.3743 106.937 17.548C107.114 17.607 107.258 17.7504 107.333 17.9206C107.477 18.2511 107.341 18.6395 107.197 18.9445C106.44 20.5506 105.092 21.3492 103.496 21.9434C103.083 23.8986 102.596 25.8421 102.152 27.791C101.778 29.4356 101.481 31.1719 100.891 32.7518C99.905 35.3878 97.934 36.8144 95.4616 37.9361C95.3886 38.2248 95.3497 38.5057 95.3192 38.8017C96.1368 39.3153 97.0505 39.7293 97.9081 40.1757C100.392 41.4688 103.246 42.8946 105.38 44.728C107.634 46.6641 110.497 58.5968 111.439 61.9528C111.93 63.7011 112.449 65.4305 113.064 67.1395C113.557 67.1447 114.055 67.1379 114.538 67.2497C115.051 67.368 115.532 67.6339 115.795 68.1045C116.103 68.653 116.026 69.2383 115.868 69.8148C116.053 70.2628 116.376 71.5183 116.765 71.7654C116.894 71.7267 117.051 71.6729 117.186 71.6836C117.493 71.7082 117.837 71.9828 118.048 72.1871C119.888 73.9693 119.669 78.4953 119.706 80.8694C120.717 81.735 121.891 82.4587 122.94 83.2894C123.786 82.7006 124.645 82.0131 125.559 81.5376C125.638 81.2936 125.721 81.0587 125.829 80.826C126.259 79.9052 126.983 79.2976 127.921 78.9528C129.145 75.4648 130.221 71.9108 131.392 68.402C131.951 66.7277 132.364 64.7832 133.308 63.2835C133.884 62.3672 134.715 61.7257 135.598 61.1255C135.501 59.1903 136.258 57.8647 136.809 56.0926C137.012 55.4282 137.177 54.7544 137.302 54.071C137.427 53.3877 137.513 52.6994 137.559 52.0061C137.893 46.9074 136.112 41.7532 137.153 36.676C137.658 34.2096 139.032 31.374 141.208 29.9605C141.528 29.7524 142.057 29.4564 142.453 29.5847C142.609 29.635 142.7 29.7489 142.759 29.8962C142.82 30.0507 142.835 30.2041 142.758 30.3568C142.538 30.7995 141.731 31.0488 141.344 31.3991C140.3 32.3452 139.522 33.5127 138.946 34.7941C136.884 39.3814 138.83 46.215 138.76 51.195C138.756 51.5679 138.739 51.9403 138.711 52.3122C138.683 52.6841 138.643 53.0546 138.591 53.424C138.54 53.7933 138.476 54.1605 138.4 54.5258C138.325 54.891 138.238 55.2535 138.139 55.6131C137.544 57.8009 136.17 59.7379 137.065 62.0432C137.472 63.0907 138.342 63.7639 139.343 64.2081C139.163 63.3996 138.909 62.0282 139.313 61.262C139.418 61.0623 139.529 60.9467 139.748 60.8786C139.913 60.9176 139.963 60.9323 140.081 61.0656C140.368 61.3911 140.252 61.9953 140.244 62.3906C140.228 63.1279 140.282 64.1412 140.835 64.6852C141.508 65.3488 142.807 65.3913 143.697 65.4023C143.487 64.7147 143.331 64.0343 143.258 63.3179C143.117 61.9294 143.106 59.9662 144.069 58.8398C144.704 58.0967 145.562 57.8689 146.494 57.7945C146.679 56.9974 146.799 56.1819 146.938 55.3756C145.398 54.9639 144.248 54.2011 143.149 53.0453C140.977 50.7618 138.759 46.5309 138.509 43.3474C138.442 42.4903 138.435 41.6951 138.862 40.9179C139.811 39.1915 141.728 38.0731 142.336 36.1195C142.703 34.9417 142.146 34.0291 142.212 32.8898C142.227 32.6335 142.286 32.4656 142.482 32.2892C142.59 32.2651 142.672 32.2215 142.779 32.2636C143.33 32.4811 143.498 33.852 143.784 34.3887C144.178 35.1314 144.983 35.8257 145.627 36.3514C148.364 38.5866 151.566 40.1076 154.936 41.1208C155.321 40.5825 155.828 40.1152 156.487 39.9548C156.556 39.9383 156.625 39.9254 156.695 39.916C156.766 39.9065 156.836 39.9007 156.907 39.8984C156.978 39.8962 157.048 39.8976 157.119 39.9026C157.189 39.9074 157.26 39.916 157.329 39.9281C157.399 39.9401 157.468 39.9557 157.536 39.9748C157.604 39.994 157.671 40.0165 157.737 40.0423C157.803 40.0682 157.868 40.0975 157.931 40.1299C157.993 40.1624 158.055 40.1979 158.114 40.2366C158.778 40.664 159.163 41.3873 159.321 42.1446C159.333 42.2086 159.345 42.2729 159.354 42.3374C159.364 42.4021 159.372 42.4669 159.378 42.5319C159.385 42.5969 159.389 42.6619 159.392 42.7271C159.395 42.7923 159.397 42.8576 159.396 42.9229C159.396 42.9881 159.394 43.0534 159.39 43.1186C159.387 43.1838 159.382 43.2489 159.375 43.3137C159.368 43.3786 159.359 43.4434 159.349 43.5079C159.339 43.5724 159.327 43.6366 159.314 43.7005C159.3 43.7643 159.285 43.8278 159.268 43.891C159.252 43.9541 159.233 44.0168 159.214 44.079C159.194 44.1412 159.172 44.2028 159.149 44.2639C159.126 44.3251 159.102 44.3856 159.076 44.4455C159.05 44.5053 159.022 44.5645 158.993 44.6229C158.964 44.6814 158.934 44.7392 158.902 44.7961C158.87 44.8529 158.836 44.909 158.801 44.9642C158.767 45.0195 158.73 45.0738 158.693 45.1272C158.242 45.7658 157.5 46.3359 156.716 46.4783C156.353 47.6502 156.005 48.8301 155.574 49.9796C155.579 49.9986 155.584 50.0177 155.589 50.0369C155.597 50.0689 155.604 50.1012 155.612 50.133C155.845 51.0735 155.567 52.3873 155.506 53.365C155.311 56.5407 155.345 60.0767 154.241 63.1015C154.001 63.7604 153.668 64.3581 153.324 64.9662C153.698 64.9184 154.073 64.9214 154.416 64.7439C155.754 64.051 155.777 62.9848 156.195 61.7347C156.264 61.5302 156.362 61.3452 156.572 61.2619C156.709 61.2078 156.891 61.2408 157.014 61.3176C157.165 61.4119 157.224 61.5536 157.258 61.7219C157.439 62.6253 156.724 63.9236 156.238 64.6407C157.617 64.5893 159.039 64.4084 160.358 64C161.068 62.6321 161.219 60.8957 160.927 59.3934C160.861 59.0565 160.651 58.6052 160.703 58.2649C160.73 58.0893 160.792 57.9555 160.95 57.861C161.084 57.7812 161.263 57.7544 161.411 57.8074C161.555 57.8587 161.666 57.9775 161.74 58.1069C162.437 59.3184 162.181 62.0556 161.859 63.3767C162.739 63.2212 163.661 62.9507 164.466 62.5607C164.999 62.3023 165.564 61.9643 165.749 61.3649C166.187 59.9384 164.287 56.1792 163.738 54.6578C162.759 51.9466 162.153 49.1444 161.702 46.3009C161.099 42.5044 160.912 38.5776 159.034 35.1268C157.53 32.3623 155.239 30.1775 152.165 29.2925C150.081 28.6923 147.405 28.5559 145.371 29.4149C144.979 29.5802 144.684 29.8806 144.307 30.0691C144.153 30.1465 143.958 30.1849 143.795 30.1097C143.656 30.0457 143.527 29.9182 143.493 29.7655C143.453 29.5858 143.504 29.3787 143.596 29.2216C143.987 28.5577 145.576 28.0926 146.286 27.921C149.252 27.2054 152.718 27.8054 155.301 29.4095C155.485 29.5246 155.666 29.6441 155.844 29.7681C156.022 29.8922 156.197 30.0206 156.368 30.1533C156.54 30.2859 156.708 30.4228 156.872 30.5638C157.037 30.7049 157.198 30.8499 157.356 30.9989C157.513 31.148 157.667 31.3009 157.817 31.4575C157.967 31.6142 158.113 31.7744 158.255 31.9384C158.397 32.1023 158.535 32.2696 158.668 32.4403C158.802 32.6111 158.932 32.7851 159.057 32.9623C161.574 36.494 161.988 40.4633 162.609 44.6064C162.96 46.945 163.357 49.2624 163.944 51.5558C164.715 54.5685 166.303 57.2993 167 60.3162C167.364 60.4909 167.714 60.6725 168.051 60.8974C171.002 62.8667 172.053 65.6416 172.718 68.9663C173.73 74.0243 174.336 79.1903 174.854 84.3198C175.134 87.0944 175.547 90.0301 175.312 92.8138C175.211 94.0259 174.936 95.2994 174.243 96.3211C173.142 97.9457 171.373 98.2341 169.583 98.6211C168.427 98.8683 167.269 99.1019 166.109 99.3221C166.644 101.192 167.283 103.029 167.799 104.907C168.428 107.194 173.454 126.766 173.052 127.632C172.456 128.912 168.98 130.37 167.585 130.88C166.773 131.167 165.944 131.395 165.116 131.632C164.782 133.106 163.518 142.049 163.089 142.49C162.993 142.588 162.785 142.622 162.653 142.61C162.47 142.593 162.335 142.515 162.229 142.367C162.148 142.253 162.113 142.155 162.115 142.013C162.122 141.256 162.53 139.588 162.676 138.767L163.846 131.925C162.238 132.182 160.654 132.564 159.038 132.795C155.66 133.278 152.255 133.428 148.846 133.428C148.88 134.772 149.497 142.338 149.314 142.762C149.239 142.937 149.124 143.029 148.949 143.099C148.806 143.156 148.609 143.162 148.479 143.073C148.448 143.051 148.42 143.027 148.393 143.001C148.366 142.974 148.342 142.946 148.321 142.915C148.299 142.884 148.281 142.851 148.265 142.818C148.249 142.783 148.236 142.748 148.227 142.711C148.023 141.94 148.066 140.972 148.024 140.171C147.905 137.919 147.9 135.608 147.641 133.369C146.485 133.27 145.32 133.253 144.162 133.152C142.002 132.965 139.895 132.65 137.764 132.259C137.984 134.802 138.302 137.336 138.512 139.88C138.571 140.59 138.701 141.33 138.714 142.039C138.717 142.207 138.691 142.417 138.598 142.56C138.514 142.689 138.401 142.779 138.244 142.795C138.114 142.807 137.972 142.739 137.871 142.664C137.65 142.5 137.532 142.22 137.486 141.956C137.356 141.2 137.362 140.276 137.283 139.488C137.033 136.997 136.817 134.491 136.465 132.012C135.56 131.786 130.804 130.691 130.484 130.138C130.227 129.692 130.682 127.94 130.783 127.417C129.315 127.637 127.849 127.872 126.386 128.121C125.618 128.248 124.804 128.45 124.027 128.47C123.74 128.478 123.497 128.456 123.237 128.332C122.957 128.037 122.286 123.263 122.1 122.413C121.728 124.031 121.378 125.654 121.052 127.283C120.867 128.176 120.743 129.163 120.428 130.017C120.332 130.276 120.211 130.378 119.983 130.524C118.937 131.194 117.736 131.728 116.634 132.304L110.077 135.709L99.7188 141.006C97.8261 141.964 95.9605 142.977 94.0213 143.84L77.8815 137.788L73.4604 136.144C72.703 135.869 71.8709 135.64 71.1415 135.301C70.9577 135.216 70.8752 135.094 70.7796 134.924C70.7747 134.203 70.9999 133.406 71.1389 132.697L71.8308 129.159L73.1505 122.342C73.3883 121.111 73.5543 119.815 73.9171 118.615C74.7373 118.043 77.8415 116.958 78.9567 116.502C78.7524 116.204 78.5523 115.952 78.2933 115.697C78.0587 115.893 77.7974 116.145 77.5012 116.235C77.2526 116.31 76.9742 116.297 76.7448 116.171C76.2739 115.913 76.0524 115.334 75.8991 114.851C73.6682 113.424 71.4845 111.935 69.2718 110.482C69.4064 111.339 69.8051 113.522 69.4589 114.244C69.1262 114.938 68.3435 115.14 67.6761 115.366C67.6857 118.326 68.0245 121.319 68.1642 124.279C68.2957 126.748 68.3535 129.219 68.3377 131.691C68.3218 134.164 68.2324 136.634 68.0693 139.101C68.0103 140.019 68.0527 141.667 67.6897 142.451C67.5773 142.56 67.4903 142.62 67.3313 142.645C67.1276 142.676 66.9746 142.61 66.8168 142.483C66.6978 142.296 66.6969 142.107 66.6993 141.891C66.7097 140.978 66.8281 140.043 66.8801 139.13C66.9887 137.243 67.062 135.354 67.1 133.464C67.1426 130.512 67.1094 127.56 67.0004 124.61C66.8914 121.659 66.7068 118.713 66.4467 115.772C58.7664 117.953 49.6604 117.219 42.6343 113.342C42.4515 114.271 42.2658 115.204 42.1779 116.148C41.8048 120.152 42.6055 124.26 44.794 127.664C45.3368 128.509 45.9795 129.266 46.6214 130.035C46.8875 132.679 47.1217 135.325 47.3241 137.974C47.4208 139.185 47.6023 140.44 47.6261 141.652C47.6312 141.909 47.6152 142.193 47.5044 142.431C47.4216 142.609 47.3248 142.693 47.1434 142.767C46.9784 142.758 46.876 142.738 46.7451 142.629C46.7099 142.6 46.6777 142.568 46.6483 142.533C46.6188 142.499 46.5928 142.462 46.5701 142.422C46.5474 142.383 46.5284 142.342 46.5131 142.298C46.4979 142.256 46.4866 142.212 46.4792 142.167C46.2793 140.954 46.2774 139.628 46.1797 138.396C45.9799 135.75 45.7518 133.106 45.4953 130.465C44.671 129.718 43.9399 128.616 43.4036 127.646C43.3252 127.505 43.2485 127.363 43.1736 127.221C43.0986 127.078 43.0254 126.934 42.9539 126.79C42.8824 126.645 42.8126 126.5 42.7447 126.354C42.6767 126.208 42.6105 126.061 42.5461 125.913C42.4817 125.765 42.419 125.616 42.3582 125.467C42.2974 125.318 42.2384 125.168 42.1812 125.017C42.1241 124.866 42.0687 124.715 42.0152 124.563C41.9617 124.411 41.91 124.258 41.8602 124.105C41.8104 123.951 41.7624 123.798 41.7163 123.643C41.6702 123.489 41.626 123.334 41.5837 123.178C41.5413 123.022 41.5009 122.866 41.4623 122.71C41.4238 122.553 41.3871 122.396 41.3524 122.239C41.3176 122.081 41.2848 121.924 41.2539 121.765C41.2229 121.607 41.1939 121.449 41.1668 121.29C41.1397 121.131 41.1146 120.971 41.0913 120.812C41.0681 120.652 41.0468 120.493 41.0274 120.333C41.0081 120.172 40.9906 120.012 40.9751 119.852C40.9596 119.691 40.9461 119.531 40.9345 119.37C40.9229 119.209 40.9133 119.048 40.9056 118.887C40.8979 118.726 40.8922 118.565 40.8884 118.404C40.8845 118.243 40.8827 118.081 40.8828 117.92C40.8829 117.759 40.885 117.598 40.889 117.437C40.893 117.275 40.899 117.114 40.9069 116.953C40.9148 116.792 40.9246 116.631 40.9364 116.471C40.9483 116.31 40.962 116.149 40.9777 115.989C40.9934 115.828 41.011 115.668 41.0306 115.508C41.0502 115.348 41.0717 115.188 41.0952 115.029C41.1186 114.869 41.144 114.71 41.1713 114.551C41.1986 114.392 41.2278 114.234 41.259 114.076C41.2901 113.917 41.3232 113.76 41.3581 113.602C41.3931 113.445 41.43 113.288 41.4688 113.131C41.5075 112.975 41.5482 112.819 41.5907 112.663C41.3759 112.518 41.1912 112.339 41.0007 112.165C41.162 110.161 41.585 108.128 41.9863 106.16C42.4531 103.786 42.9708 101.424 43.5392 99.0725C43.7686 98.1067 44.5397 95.9751 44.5688 95.1523C44.5968 94.3573 44.1218 92.4026 43.9858 91.5008C43.4617 88.0263 43.0464 84.4452 43.0523 80.9293C43.0505 80.6615 43.0514 80.3936 43.0549 80.1258C43.0585 79.858 43.0647 79.5901 43.0737 79.3224C43.0826 79.0547 43.0942 78.7872 43.1085 78.5197C43.1228 78.2522 43.1398 77.9849 43.1595 77.7178C43.1791 77.4506 43.2015 77.1837 43.2265 76.917C43.2515 76.6503 43.2792 76.3839 43.3095 76.1178C43.3399 75.8516 43.3729 75.5858 43.4086 75.3204C43.4443 75.0549 43.4827 74.7898 43.5236 74.5251C43.5646 74.2603 43.6083 73.9961 43.6546 73.7323C43.7009 73.4684 43.7499 73.2051 43.8015 72.9422C43.8531 72.6794 43.9073 72.4171 43.9641 72.1554C44.021 71.8936 44.0804 71.6324 44.1425 71.3718C44.2046 71.1113 44.2693 70.8514 44.3366 70.5921C44.4039 70.3328 44.4738 70.0743 44.5463 69.8164C44.6188 69.5586 44.6939 69.3015 44.7715 69.0451C44.8492 68.7887 44.9294 68.5332 45.0122 68.2785C45.0949 68.0236 45.1803 67.7698 45.2681 67.5168C45.356 67.2637 45.4464 67.0116 45.5393 66.7603C45.6322 66.5091 45.7276 66.2588 45.8256 66.0095C45.9236 65.7603 46.024 65.5119 46.1269 65.2645C46.2298 65.0173 46.3352 64.7711 46.4431 64.5259C46.5509 64.2807 46.6613 64.0366 46.774 63.7937C46.8868 63.5507 47.0019 63.3089 47.1195 63.0683C47.2371 62.8276 47.3572 62.5881 47.4796 62.3499C47.602 62.1116 47.7268 61.8746 47.8539 61.6389C47.9811 61.4032 48.1106 61.1687 48.2425 60.9356C48.3743 60.7024 48.5085 60.4706 48.645 60.2402C48.7815 60.0097 48.9204 59.7806 49.0615 59.5529C49.2026 59.3252 49.346 59.099 49.4916 58.8742C49.6373 58.6494 49.7852 58.4261 49.9353 58.2043C50.0854 57.9824 50.2377 57.7621 50.3923 57.5433C50.5468 57.3245 50.7036 57.1074 50.8625 56.8917C50.7384 56.9065 50.614 56.9171 50.4892 56.9236C50.3644 56.9301 50.2396 56.9323 50.1146 56.9304C49.9897 56.9285 49.865 56.9225 49.7405 56.9123C49.6159 56.9022 49.4919 56.8878 49.3683 56.8693C49.2447 56.8508 49.122 56.8282 48.9999 56.8014C48.8778 56.7748 48.7568 56.7441 48.6368 56.7093C48.5168 56.6745 48.3981 56.6357 48.2806 56.593C48.1632 56.5504 48.0474 56.5038 47.9331 56.4533C46.5778 55.8578 45.5099 54.6941 44.9762 53.319C44.9391 53.2218 44.9044 53.1239 44.8721 53.025C44.8399 52.9261 44.81 52.8266 44.7826 52.7262C44.7552 52.626 44.7303 52.5251 44.7078 52.4235C44.6853 52.3219 44.6653 52.22 44.6479 52.1175C44.6304 52.015 44.6155 51.9121 44.603 51.8089C44.5906 51.7056 44.5807 51.6022 44.5733 51.4985C44.5659 51.3947 44.5611 51.2908 44.5588 51.1869C44.5565 51.0829 44.5567 50.979 44.5596 50.875C44.5623 50.7711 44.5677 50.6673 44.5756 50.5636C44.5834 50.46 44.5938 50.3566 44.6068 50.2533C44.6197 50.1502 44.6352 50.0474 44.6532 49.945C44.6711 49.8426 44.6916 49.7407 44.7146 49.6392C44.7375 49.5378 44.7629 49.4371 44.7908 49.3369C44.8188 49.2367 44.8491 49.1373 44.8818 49.0386C44.9146 48.9399 44.9497 48.8421 44.9873 48.7451C45.0248 48.6482 45.0647 48.5522 45.1069 48.4572C46.0223 46.4107 47.6627 45.2891 49.6916 44.5017C49.6238 44.3393 49.5577 44.1764 49.4931 44.0128C49.4571 43.9238 49.4222 43.8344 49.3885 43.7445C49.3547 43.6546 49.3221 43.5643 49.2905 43.4736C49.2589 43.383 49.2285 43.2919 49.1992 43.2005C49.1699 43.1091 49.1417 43.0173 49.1147 42.9251C49.0876 42.833 49.0617 42.7406 49.0369 42.6478C49.0121 42.5551 48.9885 42.4621 48.966 42.3688C48.9435 42.2755 48.9222 42.1819 48.902 42.088C48.8818 41.9942 48.8628 41.9 48.8449 41.8056C48.8271 41.7113 48.8104 41.6168 48.7948 41.5221C48.7793 41.4273 48.7649 41.3324 48.7517 41.2374C48.7385 41.1423 48.7265 41.0471 48.7156 40.9517C48.7048 40.8562 48.6951 40.7607 48.6866 40.6651C48.6781 40.5695 48.6707 40.4737 48.6646 40.3779C48.6584 40.2821 48.6534 40.1863 48.6497 40.0904C48.6459 39.9944 48.6433 39.8984 48.6418 39.8024C48.6404 39.7065 48.6402 39.6105 48.6411 39.5145C48.642 39.4185 48.6442 39.3225 48.6474 39.2266C48.6507 39.1306 48.6552 39.0347 48.6609 38.9389C48.6665 38.8431 48.6733 38.7473 48.6814 38.6516C48.6894 38.556 48.6986 38.4605 48.709 38.365C48.7193 38.2696 48.7309 38.1743 48.7436 38.0791C48.7563 37.9839 48.7702 37.8889 48.7852 37.7941C48.8003 37.6993 48.8165 37.6047 48.8339 37.5103C48.8512 37.4159 48.8698 37.3217 48.8895 37.2278C48.9092 37.1337 48.93 37.04 48.952 36.9466C48.9741 36.8532 48.9972 36.76 49.0215 36.6672C49.0458 36.5743 49.0712 36.4817 49.0978 36.3895C49.1244 36.2972 49.1521 36.2053 49.1809 36.1137C49.2097 36.0221 49.2397 35.9309 49.2708 35.8401C49.3019 35.7493 49.3341 35.6589 49.3674 35.5688C49.4007 35.4788 49.4351 35.3892 49.4706 35.3C49.5061 35.2108 49.5427 35.122 49.5804 35.0337C50.7186 32.423 52.7411 30.3654 55.4089 29.3282C57.8154 28.3927 60.4049 28.5292 62.7531 29.5645C63.6516 29.3276 64.5503 29.3223 65.4638 29.4849C67.6834 29.8802 69.6359 31.2998 70.909 33.134C72.3787 35.2517 72.8727 38.2757 72.4303 40.7864C75.425 39.2424 80.3479 38.3346 83.6799 37.6447C84.0463 36.8931 84.4216 36.1367 84.6387 35.3255C85.0771 33.6862 84.9945 30.6562 85.0022 28.8698C84.3691 28.617 83.8652 28.3072 83.4377 27.7579C83.4005 27.7096 83.3646 27.6604 83.33 27.6103C83.2952 27.5602 83.2619 27.5092 83.2298 27.4575C83.1977 27.4056 83.1669 27.3531 83.1375 27.2997C83.1081 27.2463 83.0801 27.1922 83.0535 27.1375C83.0267 27.0827 83.0014 27.0272 82.9776 26.9712C82.9537 26.9152 82.9313 26.8585 82.9103 26.8014C82.8892 26.7442 82.8697 26.6865 82.8516 26.6283C82.8336 26.57 82.8169 26.5114 82.8018 26.4525C82.7867 26.3934 82.7731 26.334 82.761 26.2743C82.7489 26.2146 82.7383 26.1546 82.7293 26.0944C82.7202 26.0341 82.7126 25.9736 82.7066 25.9129C82.7006 25.8523 82.6962 25.7916 82.6933 25.7307C82.6903 25.6699 82.6889 25.609 82.689 25.548C82.6892 25.4871 82.691 25.4262 82.6942 25.3654C82.6974 25.3045 82.7022 25.2438 82.7086 25.1831C82.7149 25.1226 82.7227 25.0622 82.7321 25.002C82.8632 24.1636 83.2653 23.5752 83.9367 23.0843C83.7288 21.591 83.4863 20.0675 83.5189 18.5562C83.5607 16.6037 84.0173 14.5263 85.4856 13.1352C86.6814 12.0022 88.0329 11.7297 89.6284 11.7845C90.7753 10.8324 91.7091 10.3529 93.1958 10.1472Z" fill="#030303" fill-opacity="0.5"/>
<path d="M93.5545 83.3906C93.8319 83.4196 94.1707 83.4189 94.3645 83.6383L94.3025 83.7576C94.0881 83.8132 93.8767 83.8871 93.6531 83.8678C93.5102 83.7001 93.5519 83.606 93.5545 83.3906Z" fill="#FEFEFE"/>
<path d="M125.474 82.9062C125.661 83.0983 125.715 83.6486 125.777 83.9167L124.136 84.2098L123.93 84.1518L123.935 84.0594C124.321 83.6095 124.988 83.249 125.474 82.9062Z" fill="#FEFEFE"/>
<path d="M134.879 76.0664C134.987 76.0738 135.09 76.099 135.196 76.1199C135.672 76.4702 135.911 77.4566 136.248 77.9769L136.312 78.0752C135.887 77.9678 135.517 77.9201 135.081 77.9311C134.801 77.9729 133.987 78.182 133.764 78.0647C133.658 78.0087 133.568 77.944 133.523 77.8314C133.427 77.5891 133.527 77.3244 133.639 77.1026C133.927 76.5324 134.285 76.2624 134.879 76.0664Z" fill="#FEFEFE"/>
<path d="M102.084 68.6172C102.167 68.637 102.242 68.6736 102.315 68.7177C103.007 69.1365 103.014 70.3286 103.196 71.043L101.905 71.565C101.82 71.5994 101.773 71.5963 101.683 71.5952C101.308 71.1356 101.06 69.8356 100.891 69.2397C101.295 69.0432 101.69 68.8321 102.084 68.6172Z" fill="#FEFEFE"/>
<path d="M69.1868 87.1135C69.4096 87.0941 69.6178 87.0921 69.8407 87.1096C70.1575 87.6222 68.805 91.6152 69.0206 92.5647C69.1245 93.0219 69.6189 93.303 69.9709 93.5633C69.9244 94.5283 69.7738 95.5061 69.6673 96.4672L69.5847 97.1404L68.8789 96.4843C68.8857 95.3578 68.9347 87.456 69.1026 87.1496L69.1179 87.1962L69.1868 87.1135Z" fill="#FEFEFE"/>
<path d="M94.6057 120.183C94.8347 120.165 95.0423 120.129 95.2616 120.216C95.4083 120.531 97.1666 125.94 97.1665 125.978C97.1664 126.025 97.1439 126.07 97.1325 126.117L96.9448 126.129L96.0197 125.876C95.6345 124.849 95.3391 123.77 95.0067 122.724C94.7739 121.992 94.4744 121.248 94.3054 120.499C94.2741 120.36 94.2461 120.362 94.3223 120.24L94.6057 120.183Z" fill="#FEFEFE"/>
<path d="M79.3735 117.504C79.3854 117.505 79.398 117.502 79.4092 117.506C79.6008 117.58 80.9048 120.159 81.0363 120.524C80.245 120.305 79.4721 120.003 78.6992 119.727C77.7967 119.446 76.897 119.157 76 118.858C77.1139 118.38 78.2384 117.929 79.3735 117.504Z" fill="#FEFEFE"/>
<path d="M62.0552 57.2461C62.9165 57.4619 63.737 57.5261 64.623 57.5248C64.1253 58.724 63.6432 59.9294 63.1765 61.1411C63.0174 61.5368 62.8514 61.9158 62.6501 62.2919C61.6363 59.8964 61.8205 59.7732 62.0552 57.2461Z" fill="#FEFEFE"/>
<path d="M111.67 68.4922C111.735 68.5155 111.689 68.4946 111.779 68.5951C111.801 68.818 111.805 68.9549 111.722 69.1647C110.862 69.8386 109.532 70.2126 108.527 70.6664C106.481 71.5912 104.429 72.505 102.373 73.4079C101.063 73.9845 99.7282 74.6209 98.3676 75.0674L98.2807 75.0296C98.2203 74.8883 98.1909 74.831 98.2541 74.6757C98.4942 74.0861 110.239 69.0865 111.67 68.4922Z" fill="#FEFEFE"/>
<path d="M140.565 78.0666C141.113 78.035 141.55 78.0889 142.028 78.377C142.618 78.7325 143.24 79.5075 143.39 80.1973C143.428 80.3732 143.426 80.5553 143.312 80.7048C143.134 80.9403 141.484 81.1113 141.122 81.1737L139.039 81.5572C138.885 80.7989 138.724 80.2524 138.336 79.5824C138.902 78.7147 139.565 78.3009 140.565 78.0666Z" fill="#FEFEFE"/>
<path d="M108.223 118.863C108.314 118.843 108.395 118.854 108.488 118.859C108.677 119.074 108.664 119.573 108.69 119.858C104.666 120.35 100.598 120.594 96.561 120.982L96.4457 120.946C96.2698 120.665 96.1749 120.317 96.0625 120.006C97.7991 119.776 99.5674 119.674 101.313 119.525C103.618 119.322 105.921 119.101 108.223 118.863Z" fill="#FEFEFE"/>
<path d="M135.125 79.0714C135.727 79.0578 136.25 79.1664 136.736 79.5411C137.435 80.0796 137.741 80.8825 137.854 81.7294C136.955 81.9224 136.052 82.0949 135.146 82.2467C134.33 82.3817 133.518 82.5403 132.705 82.6894C132.605 81.7998 132.578 80.8696 133.141 80.1104C133.624 79.459 134.349 79.1822 135.125 79.0714Z" fill="#FEFEFE"/>
<path d="M106.908 117.069L106.972 117.066C107.169 117.233 107.33 117.431 107.498 117.627C107.772 117.665 108.093 117.676 108.352 117.769C108.481 117.815 108.519 117.818 108.582 117.944C107.801 118.332 98.9397 118.917 97.2914 119.053C96.6199 119.113 95.9472 119.155 95.2734 119.177L96.0609 118.694C96.0963 118.517 96.1336 118.34 96.1729 118.164C96.2126 118.12 96.2422 118.064 96.292 118.033C96.5013 117.898 105.779 117.187 106.908 117.069Z" fill="#FEFEFE"/>
<path d="M128.639 79.9248C128.888 79.9082 129.14 79.8885 129.39 79.8963C130.04 79.9167 130.691 80.1404 131.14 80.6269C131.746 81.2839 131.716 82.0396 131.698 82.8721L129.388 83.2846C128.608 83.4198 127.827 83.5737 127.039 83.6524C127.03 83.6347 127.02 83.6173 127.011 83.5995L126.965 83.5105C126.891 83.3662 126.818 83.2243 126.772 83.0676C126.586 82.4374 126.676 81.7344 126.989 81.1598C127.364 80.4706 127.92 80.1501 128.639 79.9248Z" fill="#FEFEFE"/>
<path d="M106.28 121.118C106.385 121.099 106.457 121.105 106.562 121.115C106.34 121.367 98.838 125.39 98.0303 125.799L97.8194 125.158C97.5053 124.118 97.1814 123.08 96.8477 122.046C99.9981 121.762 103.141 121.512 106.28 121.118Z" fill="#FEFEFE"/>
<path d="M112.904 68.1491C113.152 68.1392 113.393 68.1444 113.639 68.1748C114.082 68.2292 114.626 68.3045 114.913 68.6741C114.993 68.9277 114.954 69.0893 114.835 69.3169C113.021 72.7762 103.929 75.9465 100.245 77.0695L99.2951 77.3352C99.1422 76.9075 98.9579 76.4862 98.7891 76.0641C101.495 74.9254 104.168 73.7229 106.86 72.5516C108.478 71.8471 110.153 71.2131 111.732 70.4271C112.111 70.2385 112.837 69.9182 113.071 69.5571C113.21 69.342 112.949 68.4457 112.904 68.1491Z" fill="#FEFEFE"/>
<path d="M117.132 72.7461C117.657 73.2435 117.957 73.9571 118.141 74.646C118.49 75.9601 118.705 79.2576 118.44 80.5786C118.342 81.0696 116.676 84.9259 116.348 85.4987C115.484 85.2366 114.815 84.9528 114.31 84.156L114.262 84.0798C114.085 84.0055 113.982 84.0779 113.803 84.1301C113.224 84.367 112.661 84.6629 112.088 84.9178C111.982 84.3685 111.875 83.8436 111.971 83.2824C112.309 81.2927 115.729 81.376 116.58 79.6231C117.374 77.9894 115.584 75.3541 117.132 72.7461Z" fill="#FEFEFE"/>
<path d="M54.1734 52.3516C55.7418 54.6944 58.3098 55.9192 60.8979 56.8143C60.8117 57.6204 60.6945 61.7204 60.4075 62.1013L60.2337 62.0701C58.9567 61.5003 54.1726 59.2404 53.4977 58.3094C53.3525 58.109 53.29 57.916 53.2801 57.6691C53.2439 56.7627 53.57 55.7344 53.7446 54.8426C53.9026 54.0148 54.0456 53.1845 54.1734 52.3516Z" fill="#FEFEFE"/>
<path d="M154.399 52.0898L154.444 52.1492C154.443 53.0958 154.341 54.0455 154.285 54.9905C154.176 56.8258 154.128 58.718 153.714 60.5154C151.612 61.0409 149.7 61.2119 147.625 60.4752C147.408 60.383 147.211 60.2792 147.008 60.16C147.508 58.6369 147.872 57.0187 147.994 55.4181C150.58 55.013 152.669 54.1005 154.399 52.0898Z" fill="#FEFEFE"/>
<path d="M90.44 78.7459C90.677 78.7068 90.8279 78.743 91.0422 78.843C91.3014 78.9641 91.5384 79.1326 91.7599 79.3122C92.4787 79.8953 93.1109 80.5797 93.8205 81.1728C94.2131 81.501 95.3025 82.1138 95.4788 82.5651L95.3857 82.6401C95.0073 82.6593 94.218 82.4972 93.918 82.2622C93.677 82.0736 93.4668 81.92 93.1552 81.8708C92.6529 81.7912 92.1809 82.0511 91.8 82.3518C91.5199 82.5728 89.8666 84.0315 89.7298 84.2035C89.6349 84.323 89.581 84.4312 89.5709 84.5873C89.5601 84.7551 89.6557 84.898 89.7733 85.0091C90.4853 85.6821 93.309 84.9248 94.3453 84.9089C93.938 85.1665 93.5141 85.3716 93.0795 85.5786C92.037 86.0419 90.8922 86.3515 89.7527 86.4253C87.5622 85.3104 85.6303 83.0985 83.1077 82.8625C82.981 81.6101 83.0955 80.4462 83.302 79.2124C85.7416 79.3135 88.0288 79.0723 90.44 78.7459Z" fill="#FEFEFE"/>
<path d="M50.0833 45.5195C50.5901 46.1491 51.2032 46.6361 51.744 47.2267C52.4737 48.0237 52.4562 48.471 53.4835 49.1707C53.1686 51.1659 52.8959 53.172 52.5127 55.1555C51.3046 55.6228 50.5026 55.8886 49.1931 55.6595C48.9883 55.6105 48.7908 55.5502 48.5938 55.4754C47.5021 55.0611 46.5753 54.1262 46.1157 53.0594C46.0831 52.9829 46.0525 52.9055 46.0238 52.8273C45.9951 52.7492 45.9684 52.6704 45.9436 52.5909C45.9188 52.5114 45.896 52.4314 45.8752 52.3509C45.8543 52.2703 45.8355 52.1892 45.8187 52.1077C45.8019 52.0262 45.7871 51.9442 45.7744 51.862C45.7616 51.7797 45.7509 51.6972 45.7422 51.6144C45.7336 51.5317 45.727 51.4488 45.7224 51.3657C45.7179 51.2825 45.7153 51.1993 45.7149 51.1161C45.7145 51.0329 45.7161 50.9497 45.7198 50.8666C45.7235 50.7834 45.7292 50.7004 45.737 50.6176C45.7448 50.5347 45.7546 50.452 45.7665 50.3696C45.7784 50.2872 45.7923 50.2052 45.8082 50.1235C45.8242 50.0418 45.8421 49.9606 45.8621 49.8798C45.8821 49.7989 45.904 49.7187 45.928 49.639C45.9519 49.5593 45.9779 49.4802 46.0057 49.4017C46.0336 49.3233 46.0634 49.2456 46.0951 49.1687C46.8341 47.3513 48.3254 46.2623 50.0833 45.5195Z" fill="#FEFEFE"/>
<path d="M135.794 62.4375L135.936 62.5006C136.531 63.687 137.232 64.3289 138.36 65.0045C137.988 66.0935 137.615 67.1791 137.122 68.2213C135.905 70.8004 135.004 71.9016 135.087 74.9103C134.61 75.0118 134.14 75.123 133.694 75.3254C133.099 75.595 132.572 76.0245 132.348 76.6555C132.073 77.4312 132.326 78.1148 132.661 78.8134C132.475 78.9788 132.3 79.1557 132.124 79.3302C132.044 79.4431 131.957 79.5433 131.864 79.6459C131.015 79.0405 130.313 78.7644 129.262 78.7074C130.48 75.2668 131.526 71.7601 132.675 68.295C133.124 66.9429 133.473 65.3169 134.191 64.0955C134.588 63.4204 135.17 62.897 135.794 62.4375Z" fill="#FEFEFE"/>
<path d="M82.164 111.262C82.8539 111.699 83.546 112.105 84.3234 112.368C84.9428 112.577 85.5992 112.723 86.2052 112.965C86.3415 113.02 86.4748 113.08 86.6051 113.148C86.7355 113.215 86.8623 113.289 86.9856 113.368C87.109 113.448 87.2282 113.533 87.3433 113.624C87.4584 113.715 87.5689 113.811 87.6748 113.913C88.7665 114.969 90.1689 117.392 90.7973 118.785C90.2761 118.31 88.1875 116.03 87.8401 115.844C87.6733 115.754 87.5457 115.757 87.3645 115.804C87.13 115.969 87.0268 116.147 86.9601 116.427C86.7606 117.266 86.988 120.249 87.3208 121.025C87.6178 121.718 88.1541 122.404 88.5344 123.061L88.5555 123.123L88.4877 123.172C87.9421 123.021 87.4086 122.801 86.8772 122.606C86.7684 122.237 86.6724 121.822 86.4939 121.48C86.3167 121.141 86.1231 120.901 85.7581 120.777C85.6181 120.813 85.5994 120.785 85.5187 120.928C85.3063 121.304 85.5686 121.878 85.7091 122.235C85.2707 122.095 84.848 121.934 84.4226 121.759C84.1349 121.209 83.96 120.536 83.607 120.032C83.4808 119.851 83.3789 119.787 83.1663 119.744C83.0207 119.806 82.9092 119.87 82.8375 120.02C82.6692 120.372 83.0084 121.016 83.1378 121.352L82.3398 121.018C82.0401 119.843 81.4131 118.875 80.8845 117.801C80.5534 117.128 80.2761 116.419 79.8811 115.78C79.6682 115.435 79.406 115.119 79.1523 114.804C80.0984 113.585 81.1558 112.431 82.164 111.262Z" fill="#FEFEFE"/>
<path d="M101.196 105.422L101.272 105.517C100.884 107.772 100.48 110.025 100.06 112.274C99.2266 112.614 98.4141 113.025 97.5887 113.385C95.3301 114.372 93.0484 115.369 90.7515 116.262C90.2629 115.429 89.644 114.645 89.0835 113.858C88.3614 112.849 87.5612 112.209 86.3789 111.83C87.4058 111.429 88.4092 110.947 89.4259 110.517L101.196 105.422Z" fill="#FEFEFE"/>
<path d="M100.541 112.941C102.085 113.355 103.617 113.967 105.131 114.486C107.969 115.459 110.822 116.424 113.623 117.501C112.244 118.146 110.919 118.889 109.545 119.539C109.416 118.858 109.435 118.459 109.641 117.796L109.148 117.556C108.88 116.927 108.585 116.605 108.012 116.25C106.408 116.25 104.76 116.482 103.162 116.621C100.904 116.817 98.6355 116.966 96.3822 117.195C95.9332 117.241 95.7554 117.259 95.458 117.63L95.4017 117.702C94.5033 117.94 94.4469 118.024 93.9375 118.777C93.8784 118.864 93.7939 119.034 93.7131 119.098C93.6815 119.123 93.6431 119.138 93.6082 119.158C93.4641 119.261 93.302 119.363 93.225 119.527C93.0592 119.882 94.7789 124.791 95.0372 125.547C93.441 124.889 91.7707 124.366 90.1307 123.825C89.6231 122.825 88.5063 121.106 88.2668 120.107C88.0682 119.278 88.0631 118.32 87.9805 117.466C88.6634 118.404 89.6202 119.482 90.717 119.934C90.9287 120.021 91.2118 120.115 91.4295 119.997C91.5813 119.914 91.6614 119.759 91.7028 119.598C91.95 118.639 91.6202 117.763 91.1442 116.948C94.2534 115.567 97.4729 114.417 100.541 112.941Z" fill="#FEFEFE"/>
<path d="M68.6172 77.1445L82.3568 78.2361C81.9247 80.2905 81.6296 82.3318 82.1716 84.4014C81.8132 84.4706 81.4511 84.5181 81.0896 84.569C77.0881 85.1374 73.0568 85.4813 69.0528 86.0265C69.0154 84.843 69.122 83.6478 69.0895 82.459C69.0408 80.6829 68.8144 78.9089 68.6172 77.1445Z" fill="#FEFEFE"/>
<path d="M139.791 89.4453C140.424 89.6186 141.054 89.8802 141.673 90.0985C142.623 90.4332 143.619 90.7301 144.518 91.1845C145.586 91.7237 146.368 92.7273 147.594 92.9704C148.591 93.1683 149.769 92.946 150.779 92.8485C151.644 94.2643 151.834 95.9518 152.028 97.5652C150.26 98.1815 148.583 99.036 146.791 99.6007C145.756 99.927 144.63 99.9123 143.614 100.315C142.739 100.662 141.975 101.244 141.123 101.632C139.641 102.308 137.306 101.713 135.842 101.169C137.318 101.174 138.883 101.162 140.322 100.79C140.685 100.696 141.167 100.574 141.366 100.231C141.364 100.069 141.365 100.03 141.256 99.9C141.065 99.6703 140.787 99.6589 140.511 99.6715C139.706 99.7085 138.897 99.9397 138.093 100.029C136.698 100.184 135.292 100.061 133.899 99.9543C133.83 99.9442 133.766 99.9307 133.7 99.9114C133.56 99.8705 133.537 99.8949 133.463 99.7597C134.177 99.2641 138.995 99.4349 139.874 98.483C139.981 98.3672 140.062 98.2299 140.039 98.0653C140.026 97.9745 139.996 97.8604 139.913 97.8106C139.418 97.5119 138.171 97.9176 137.61 98.0224C136.874 98.1599 132.546 98.7601 132.076 98.3812C131.989 98.3109 132.014 98.2583 132.008 98.1562C132.147 97.9312 132.34 97.8046 132.59 97.7175C133.034 97.5628 133.596 97.5557 134.064 97.4999C135.06 97.3813 138.53 97.1253 139.198 96.4441C139.352 96.2876 139.345 96.1635 139.332 95.9641C139.227 95.8091 139.202 95.741 139.008 95.6937C138.661 95.6092 137.601 95.897 137.178 95.9681C136.241 96.1253 132.843 96.6312 132.105 96.3839L132.073 96.2804C132.768 95.4692 136.557 95.1197 137.766 94.7804C138.825 94.4833 139.896 94.034 140.878 93.5363C141.315 93.3146 142.218 92.9073 142.349 92.3974C142.498 91.821 140.254 91.2423 139.765 90.3623C139.599 90.0648 139.663 89.8206 139.766 89.5167L139.791 89.4453Z" fill="#FEFEFE"/>
<path d="M114.223 71.8086C114.303 71.8881 114.341 72.0002 114.378 72.1053C114.785 73.2583 114.958 74.5771 115.217 75.7757C115.411 76.6764 115.818 77.8531 115.694 78.7637C115.516 80.0666 112.053 80.2374 111.121 82.33C110.675 83.333 110.843 84.4239 111.22 85.4103C109.508 86.2651 106.874 86.9153 104.994 86.3034C104.528 85.7919 104.155 85.1672 103.763 84.5968C102.358 82.5589 101.06 80.5318 99.9922 78.2921C104.277 77.0917 110.839 74.6416 114.223 71.8086Z" fill="#FEFEFE"/>
<path d="M102.078 105.211C104.52 105.922 106.935 106.851 109.334 107.699L120.276 111.562C120.413 112.319 120.542 113.077 120.663 113.837C119.707 114.35 118.728 114.826 117.761 115.317C116.681 115.889 115.595 116.466 114.482 116.97C112.827 116.463 111.188 115.799 109.557 115.214L100.891 112.193C101.369 109.89 101.71 107.536 102.078 105.211Z" fill="#FEFEFE"/>
<path d="M93.4982 11.2085C95.6681 11.0256 97.3154 12.3577 99.2906 12.8994C99.9926 13.0919 100.642 13.1209 101.368 13.1126C101.168 13.312 100.899 13.565 100.851 13.8596C100.813 14.0907 100.87 14.2786 101.021 14.4562C101.61 15.152 104.041 15.3921 104.926 15.4481C104.794 15.7232 104.654 16.0129 104.469 16.2567C104.2 16.6101 103.591 17.0709 103.484 17.4931C103.444 17.6488 103.475 17.7711 103.583 17.8902C104.01 18.3617 105.405 18.5035 106.03 18.6099C105.482 19.615 104.609 20.2905 103.532 20.6589C100.655 21.6422 97.3124 20.0997 94.7367 18.8589C93.7269 18.3932 91.8429 17.5218 90.7681 17.5163C90.4253 17.5146 90.1497 17.6277 90.0138 17.9658C89.8473 18.3806 89.9282 18.9742 89.8919 19.4229C89.7628 21.0185 89.0458 22.7665 87.8705 23.8781C87.8551 23.8927 87.8393 23.9068 87.8238 23.9212C87.6895 23.749 87.5536 23.567 87.3993 23.4117C86.7248 22.733 85.9365 22.6636 85.0366 22.6746C84.9497 22.0477 84.87 21.4199 84.7974 20.7913C84.5629 18.7218 84.5042 16.0757 85.8961 14.359C86.5644 13.5347 87.634 12.9398 88.7019 12.9007C89.1597 12.8839 89.7012 12.9446 90.1353 12.7854C90.4979 12.6523 90.763 12.3973 91.0548 12.1541C91.8008 11.5321 92.5507 11.3125 93.4982 11.2085Z" fill="#FEFEFE"/>
<path d="M143.579 36.0117C145.118 37.4901 146.699 38.6291 148.541 39.691C148.031 39.7914 147.215 39.9287 146.863 40.3377C146.739 40.482 146.745 40.5682 146.756 40.7507C146.868 40.9205 146.893 40.9489 147.074 41.0401C147.385 41.027 147.59 40.8425 147.866 40.7287C148.141 40.6155 150.02 40.6141 150.35 40.6766C150.817 40.7649 151.358 41.0731 151.808 41.2493C152.517 41.5262 155.018 42.5899 155.577 42.0851C155.93 41.7666 156.13 41.2582 156.599 41.0748C156.87 40.9686 157.151 41.0121 157.409 41.1322C157.789 41.3086 158.033 41.6767 158.163 42.0639C158.379 42.7061 158.269 43.5937 157.966 44.1964C157.501 45.1231 156.824 45.1714 155.979 45.5264C155.92 45.5512 155.815 45.6093 155.771 45.6564C155.586 45.8555 154.601 49.4848 154.357 50.1298C154.116 50.6442 153.713 51.1497 153.326 51.5618C151.94 53.0334 149.794 54.1814 147.744 54.216C146.349 54.2394 145.286 53.5502 144.321 52.617C142.044 50.4148 141.191 47.7441 140.702 44.6913C140.501 43.437 140.354 42.1972 140.336 40.9257C141.562 39.2817 143.005 38.0578 143.579 36.0117Z" fill="#FEFEFE"/>
<path d="M156.427 41.9077C156.645 41.9015 156.874 41.9094 157.055 42.0499C157.176 42.1435 157.243 42.2803 157.268 42.4286C157.352 42.9241 157.032 43.5028 156.753 43.8861C156.698 43.8987 156.643 43.9093 156.587 43.9181C156.407 43.9462 156.231 43.9349 156.09 43.8003C155.982 43.6968 155.935 43.5296 155.923 43.3841C155.88 42.8736 156.118 42.3011 156.427 41.9077Z" fill="#030303" fill-opacity="0.5"/>
<path d="M141.986 40.6185C142.179 40.6084 142.377 40.5936 142.571 40.5987C142.86 40.6063 143.268 40.734 143.439 40.9865C143.529 41.121 143.499 41.1868 143.453 41.3228C143.016 41.6787 142.298 41.433 141.746 41.6057L141.664 41.6322C141.478 41.7792 141.213 42.0385 140.971 42.0657C140.794 42.0857 140.747 42.0516 140.622 41.9475C140.568 41.735 140.606 41.5944 140.718 41.4128C141.013 40.9365 141.464 40.7568 141.986 40.6185Z" fill="#030303" fill-opacity="0.5"/>
<path d="M148.973 41.7422C149.075 41.7552 149.177 41.7681 149.276 41.797C149.561 41.8799 149.775 42.0701 149.912 42.3316C149.932 42.3696 149.95 42.4085 149.966 42.4482C149.982 42.488 149.996 42.5286 150.008 42.5697C150.02 42.6109 150.03 42.6526 150.038 42.6947C150.046 42.7369 150.052 42.7793 150.055 42.8221C150.059 42.8648 150.06 42.9077 150.06 42.9505C150.059 42.9934 150.056 43.0361 150.051 43.0787C150.047 43.1214 150.039 43.1637 150.03 43.2055C150.021 43.2474 150.01 43.2888 149.997 43.3296C149.88 43.6887 149.683 43.9011 149.354 44.0751C149.165 44.0744 148.926 44.0833 148.756 43.9909C148.526 43.866 148.362 43.6052 148.276 43.366C148.146 43.0056 148.166 42.5876 148.338 42.2447C148.487 41.9496 148.667 41.8418 148.973 41.7422Z" fill="#030303" fill-opacity="0.5"/>
<path d="M141.958 42.8659C142.048 42.8575 142.145 42.8448 142.236 42.8482C142.521 42.859 142.79 43.0043 142.981 43.2141C143.216 43.4728 143.317 43.8185 143.301 44.164C143.28 44.6245 143.081 44.8871 142.748 45.1835C142.62 45.2128 142.487 45.2452 142.355 45.2362C142.097 45.2187 141.867 45.0921 141.703 44.8955C141.443 44.5857 141.372 44.1477 141.428 43.7565C141.486 43.3512 141.641 43.1151 141.958 42.8659Z" fill="#030303" fill-opacity="0.5"/>
<path d="M144.825 43.9648C144.969 43.9868 145.14 44.0194 145.259 44.1104C145.865 44.5725 144.809 45.5245 144.883 46.0926C144.943 46.5573 145.72 46.6398 145.996 46.9341C146.12 47.0655 146.107 47.1154 146.096 47.2806C145.995 47.4634 145.909 47.5419 145.742 47.6687C145.303 47.6527 144.696 47.3977 144.386 47.0872C144.093 46.7943 143.95 46.4503 143.971 46.0347C143.999 45.4717 144.392 44.3467 144.825 43.9648Z" fill="#030303" fill-opacity="0.5"/>
<path d="M149.071 47.6479C149.24 47.6239 149.375 47.6227 149.546 47.6439C149.725 47.7502 149.802 47.8582 149.857 48.055C150.065 48.8039 149.804 49.824 149.438 50.4938C149.102 51.1076 148.567 51.6954 147.867 51.8757C147.212 52.0448 146.641 51.8261 146.087 51.4917C145.664 51.1268 145.269 50.7164 144.978 50.2366C144.804 49.9505 144.572 49.4877 144.694 49.1447C144.765 48.9486 144.937 48.8389 145.124 48.7731C145.618 48.599 146.228 48.6399 146.747 48.5558C147.529 48.4293 148.351 47.9724 149.071 47.6479Z" fill="#030303" fill-opacity="0.5"/>
<path d="M148.693 49.043L148.755 49.1021L148.758 49.3362C148.586 49.7283 148.128 49.9859 147.753 50.1545C147.295 50.36 146.892 50.4537 146.413 50.273C146.284 50.1388 146.198 50.0379 146.113 49.869L146.179 49.798C147.042 49.7579 147.92 49.4009 148.693 49.043Z" fill="#FEFEFE"/>
<path d="M57.9778 29.9395C59.0846 29.734 60.4712 29.9695 61.5199 30.3427C61.799 30.442 62.0733 30.661 62.3499 30.7352C62.6776 30.8229 63.3793 30.5641 63.7603 30.5339C65.4938 30.3969 67.254 31.1396 68.5478 32.2601C70.719 34.1409 71.2132 36.5106 71.3988 39.2526C71.2799 38.9905 71.1518 38.733 71.0145 38.48C70.4257 37.4123 69.1992 36.072 67.9757 35.7593C67.7153 35.6927 67.4469 35.7163 67.2353 35.8937C66.8514 36.2157 66.5253 37.078 66.2602 37.5272C65.2778 39.1921 63.6697 40.5116 62.0118 41.459C60.394 42.3603 58.5847 43.1837 56.8382 43.7982C56.482 43.4496 56.1206 43.1942 55.64 43.0444C54.9785 42.8381 54.2153 42.9234 53.609 43.2553C52.6682 43.7705 52.2139 44.6781 51.9193 45.6589C50.7476 44.3627 50.1147 42.5866 49.8968 40.8741C49.5607 38.2323 50.2856 35.4169 51.943 33.3195C53.4602 31.3992 55.5619 30.2351 57.9778 29.9395Z" fill="#FEFEFE"/>
<path d="M67.8889 37.0742C68.2845 37.2583 68.6469 37.46 68.9774 37.7496C70.3977 38.9943 70.7511 40.8387 70.8713 42.6322C70.3632 42.5298 69.8688 42.4793 69.3545 42.5558C69.0403 42.6026 68.5799 42.729 68.4112 43.0322C68.3345 43.1702 68.287 43.3393 68.3453 43.4944C68.4127 43.6741 68.4953 43.7191 68.6498 43.8081C69.0589 43.841 69.5709 43.6005 69.9638 43.475C70.2537 43.5989 70.5511 43.7002 70.8483 43.8047C70.4524 47.0098 70.8222 49.3652 69.2131 52.4088C68.4236 53.9022 67.0814 55.6145 65.3948 56.1203C63.088 56.8121 60.0068 55.3919 58.029 54.3048C57.219 53.815 56.3951 53.2169 55.7497 52.5208C54.9886 51.7001 54.8585 50.8044 54.8936 49.7354C55.027 49.5541 55.5 49.5629 55.7308 49.4061C55.8175 49.2501 55.8441 49.1999 55.8114 49.0133C55.7174 48.4755 54.463 48.446 53.9001 47.963C53.432 47.5612 53.1229 47.0012 53.0893 46.3805C53.0568 45.7775 53.2591 45.0701 53.6838 44.6291C54.0093 44.291 54.4506 44.0797 54.925 44.0872C56.2604 44.1087 56.1189 45.4592 56.7756 45.9769C56.9318 46.1 56.9624 46.0975 57.1467 46.0745C57.263 45.9805 57.3659 45.8961 57.4446 45.7668C57.6256 45.4693 57.4941 45.1503 57.4176 44.8383C62.1349 42.7926 65.0476 41.7665 67.8889 37.0742Z" fill="#FEFEFE"/>
<path d="M69.429 45.1189C69.548 45.1061 69.6672 45.094 69.7868 45.1075C69.9848 45.1299 70.1227 45.2242 70.2425 45.3782C70.4288 45.6177 70.4839 45.9048 70.4351 46.2009C70.3781 46.5456 70.2551 46.7261 69.9743 46.9272C69.6699 46.9386 69.4063 46.9419 69.1728 46.7172C69.0149 46.5651 68.9397 46.348 68.9414 46.1313C68.9446 45.7095 69.1367 45.4042 69.429 45.1189Z" fill="#030303" fill-opacity="0.5"/>
<path d="M63.56 45.1226C63.6012 45.121 63.6425 45.1189 63.6838 45.1178C63.9944 45.1095 64.2731 45.18 64.493 45.4118C64.6654 45.5935 64.7421 45.8313 64.7156 46.0797C64.6757 46.4551 64.4656 46.6797 64.1866 46.9095C64.1033 46.9168 64.0212 46.924 63.9374 46.9248C63.6711 46.9269 63.4569 46.8691 63.2706 46.6689C63.0957 46.481 63.0236 46.2477 63.0474 45.9925C63.0846 45.5944 63.2665 45.3736 63.56 45.1226Z" fill="#030303" fill-opacity="0.5"/>
<path d="M54.3821 45.3825C54.5146 45.3804 54.6699 45.3701 54.8005 45.3978C55.1561 45.4735 55.5255 45.9409 55.7235 46.2299C55.9494 46.5594 56.2063 47.0588 56.0994 47.4715C56.0439 47.6859 55.8797 47.7842 55.709 47.9007C54.9321 47.9367 55.1544 47.3233 54.7606 46.9723C54.5979 46.8272 54.3678 46.7627 54.2004 46.6154C54.0417 46.4757 53.9461 46.3189 53.9493 46.1009C53.9532 45.8204 54.183 45.5537 54.3821 45.3825Z" fill="#030303" fill-opacity="0.5"/>
<path d="M63.2623 42.6106C63.6022 42.5865 63.9311 42.5965 64.2694 42.6371C64.6119 42.6784 65.0292 42.796 65.2278 43.1048C65.2386 43.1215 65.2484 43.1388 65.2572 43.1566C65.2661 43.1744 65.2739 43.1926 65.2806 43.2114C65.2873 43.2301 65.293 43.2491 65.2976 43.2685C65.3021 43.2878 65.3055 43.3074 65.3078 43.3273C65.3101 43.347 65.3113 43.3668 65.3114 43.3866C65.3114 43.4066 65.3103 43.4264 65.3081 43.4461C65.3059 43.4659 65.3025 43.4855 65.298 43.5048C65.2935 43.5242 65.2879 43.5433 65.2813 43.5621C65.2287 43.7144 65.0967 43.8232 64.9453 43.8694C64.7402 43.932 64.5231 43.8132 64.3398 43.7311C64.098 43.6229 63.9484 43.5811 63.6786 43.5833C63.6532 43.5836 63.628 43.5845 63.6026 43.585C63.0848 43.6605 62.4984 44.0362 62.0017 44.0026C61.8235 43.9905 61.6775 43.9439 61.5578 43.8084C61.5355 43.6501 61.5426 43.6017 61.6233 43.4524C61.9174 42.9082 62.7106 42.7313 63.2623 42.6106Z" fill="#030303" fill-opacity="0.5"/>
<path d="M66.4674 46.2485C66.6384 46.2307 66.7495 46.2227 66.9189 46.2681C67.1481 46.4378 67.2873 46.6778 67.4233 46.9239C67.786 47.5803 68.2507 48.5399 68.0058 49.2905C67.8656 49.7202 67.5269 49.9261 67.1412 50.1153C66.963 50.1174 66.7218 50.1174 66.5649 50.0169C66.4012 49.9119 66.3857 49.853 66.3328 49.6786C66.4025 49.2351 66.6104 49.0812 66.9425 48.8134C66.6848 48.2879 66.0385 47.2459 66.1544 46.65C66.194 46.4462 66.3138 46.364 66.4674 46.2485Z" fill="#030303" fill-opacity="0.5"/>
<path d="M63.005 51.092C63.6302 51.0443 64.3727 51.2898 65.0046 51.3814C65.4974 51.4529 65.9954 51.465 66.4924 51.4824C66.7621 51.4918 67.3586 51.4311 67.5492 51.625C67.6654 51.7433 67.7222 51.9258 67.6944 52.0898C67.6122 52.5746 67.2382 52.3697 66.9577 52.5899C66.87 52.6589 66.8721 52.9606 66.86 53.0738C66.831 53.3466 66.7604 53.5229 66.6358 53.7694C66.5687 53.8649 66.5 53.9613 66.421 54.0474C66.3818 54.09 66.3406 54.1306 66.2975 54.1692C66.2544 54.2079 66.2095 54.2443 66.163 54.2786C66.1163 54.3129 66.0681 54.3449 66.0183 54.3745C65.9686 54.4041 65.9175 54.4312 65.8652 54.4559C65.8129 54.4806 65.7595 54.5027 65.7049 54.5222C65.6504 54.5417 65.5951 54.5586 65.539 54.5728C65.4829 54.5869 65.4262 54.5984 65.3689 54.607C65.3117 54.6157 65.2542 54.6216 65.1964 54.6247C64.6107 54.6518 64.0392 54.4029 63.615 54.0076C62.9992 53.4342 62.6793 52.5323 62.6797 51.7014C62.68 51.4126 62.8165 51.2842 63.005 51.092Z" fill="#030303" fill-opacity="0.5"/>
<path d="M63.9219 52.4023C64.5416 52.5059 65.1641 52.5883 65.7894 52.6498L65.5473 53.3025C65.3588 53.4486 65.2024 53.4965 64.9677 53.4631C64.4898 53.3954 64.1521 52.7717 63.9219 52.4023Z" fill="#FEFEFE"/>
<path d="M91.0935 18.7227C92.1848 18.9556 93.2309 19.4393 94.2426 19.8997C96.8653 21.0935 99.3302 22.1752 102.28 22.0959L100.898 28.1493C100.566 29.6009 100.293 31.1108 99.7384 32.4978C98.976 34.4043 97.4599 35.7873 95.5851 36.581C93.9021 37.2934 93.1769 37.4366 91.4976 36.5598C90.9652 36.2817 90.4266 35.952 90.0175 35.5073C89.7678 35.236 89.3364 34.6013 88.9718 34.5206C88.7741 34.4769 88.5744 34.6078 88.4368 34.7289C88.3696 34.8706 88.3243 34.9785 88.3524 35.1388C88.4659 35.7885 89.3327 36.4792 89.8361 36.8628C91.0377 37.7783 92.4673 38.4133 94.0002 38.205C94.1079 38.2207 94.0543 38.1996 94.1535 38.2855C94.1924 39.306 94.1833 40.7051 93.7086 41.6213C93.2413 42.5234 92.3719 43.1784 91.4065 43.464C90.0667 43.8602 88.599 43.643 87.3811 42.9812C85.8059 42.1251 84.7583 40.5633 84.2564 38.8738C85.0712 37.7352 85.6758 36.3886 85.9211 35.005C86.0489 34.2844 86.3841 28.5944 86.0457 28.1725C85.6279 27.6516 84.7096 27.6565 84.1781 26.8437C83.8321 26.3143 83.7949 25.5796 83.9375 24.9771C84.0467 24.5157 84.4702 24.1768 84.8571 23.9457C85.1655 23.7615 85.5195 23.6209 85.8794 23.726C86.6253 23.9438 86.8373 24.7475 87.1937 25.3296C87.2832 25.4758 87.3717 25.5701 87.5511 25.5901C87.695 25.6062 87.8367 25.5406 87.9482 25.4556C88.2732 25.2081 88.59 24.7593 88.8596 24.4472C90.4563 22.5994 90.8617 21.1252 91.0935 18.7227Z" fill="#FEFEFE"/>
<path d="M85.231 24.5997C85.501 24.5832 85.7799 24.59 85.9952 24.7714C86.107 25.0261 85.9387 25.3446 85.924 25.6186C85.9123 25.8364 85.9921 25.9214 86.1337 26.0702C86.2398 26.182 86.3002 26.2315 86.3256 26.3905C86.2856 26.6118 86.2052 26.7213 86.0662 26.8953C86.0409 26.8991 86.0157 26.9037 85.9903 26.9071C85.6975 26.947 85.4875 26.9248 85.2539 26.7326C84.9735 26.5018 84.85 26.1503 84.8258 25.7971C84.7923 25.3065 84.9101 24.9642 85.231 24.5997Z" fill="#030303" fill-opacity="0.5"/>
<path d="M92.5367 24.2637C92.6137 24.2603 92.6907 24.2613 92.7676 24.2666C93.0301 24.2837 93.2669 24.3965 93.434 24.6034C93.6254 24.8405 93.6671 25.1489 93.6216 25.4432C93.5425 25.9561 93.2805 26.2511 92.8827 26.5575C92.7723 26.5676 92.6664 26.5771 92.5559 26.5644C92.3008 26.5349 92.0861 26.4243 91.939 26.2094C91.762 25.9505 91.7463 25.6259 91.8021 25.3266C91.894 24.8321 92.1241 24.5346 92.5367 24.2637Z" fill="#030303" fill-opacity="0.5"/>
<path d="M99.0469 25.5962C99.1509 25.587 99.2653 25.572 99.3693 25.5808C99.6085 25.6008 99.8375 25.7513 99.9797 25.9415C100.191 26.224 100.231 26.5939 100.17 26.933C100.088 27.3899 99.865 27.7326 99.4809 27.9863C99.3454 28.0138 99.1993 28.0492 99.0604 28.0408C98.8561 28.0282 98.659 27.9227 98.529 27.7662C98.3284 27.5246 98.2904 27.1862 98.3228 26.8841C98.3848 26.3067 98.6037 25.9541 99.0469 25.5962Z" fill="#030303" fill-opacity="0.5"/>
<path d="M98.5161 23.2251C98.7453 23.2104 98.9918 23.2006 99.2206 23.2299C99.8393 23.3092 100.806 23.6836 101.17 24.1988C101.243 24.3026 101.299 24.4559 101.27 24.5815C101.206 24.8595 100.999 25.0186 100.764 25.1504C100.297 25.0365 99.9555 24.6636 99.5063 24.5223C99.2616 24.4454 98.9791 24.4552 98.7246 24.43C98.4769 24.4054 98.2013 24.3863 98.0516 24.1555C97.9252 23.9605 97.9336 23.7261 97.9822 23.5098C98.1098 23.3267 98.3142 23.2913 98.5161 23.2251Z" fill="#030303" fill-opacity="0.5"/>
<path d="M93.1093 22.1655C93.4156 22.127 93.7584 22.1123 94.0668 22.1263C94.5077 22.1467 94.9945 22.2667 95.2938 22.6164C95.4474 22.7958 95.4792 22.9459 95.4679 23.1758C95.4079 23.2851 95.3855 23.3683 95.2756 23.4365C94.9905 23.6139 94.6734 23.5049 94.369 23.4409L94.3184 23.4317L94.234 23.4177C93.5107 23.293 92.8303 23.5109 92.1284 23.4044C91.9679 23.2927 91.9007 23.2373 91.8128 23.0547C91.7989 22.8665 91.8151 22.7722 91.9306 22.6176C92.1967 22.2619 92.7073 22.2334 93.1093 22.1655Z" fill="#030303" fill-opacity="0.5"/>
<path d="M96.8917 25.5861C97.0139 25.5871 97.1538 25.58 97.273 25.6066C97.4497 25.646 97.5141 25.7633 97.6041 25.9043C97.6618 26.3433 97.4726 26.7929 97.3511 27.2121C97.6049 27.8115 97.8838 28.3757 97.8929 29.0428C97.9004 29.6058 97.7133 30.1858 97.307 30.5865C96.8216 31.0652 96.1741 31.1717 95.5216 31.1661C95.3807 31.1292 95.2418 31.0844 95.1181 31.0053C94.9229 30.8806 94.8351 30.6882 94.7773 30.4735C95.012 29.7081 95.9881 30.2941 96.4668 29.8515C97.1997 29.1741 96.2909 27.9061 96.2834 27.1029C96.2785 26.5812 96.5305 25.9604 96.8917 25.5861Z" fill="#030303" fill-opacity="0.5"/>
<path d="M91.7683 30.5626C92.581 30.5518 93.5549 31.5662 94.3898 31.8845C95.0467 32.1348 96.0831 31.7548 96.5876 32.1421C96.7357 32.2558 96.7565 32.3888 96.777 32.5625C96.6509 33.0534 96.1464 33.1649 95.7838 33.457L95.7348 33.4972C95.2022 33.9274 94.6857 34.3153 93.9819 34.4138C93.4238 34.4918 92.8753 34.3509 92.4387 33.991C91.8186 33.4802 91.4804 32.5665 91.44 31.7744C91.416 31.3025 91.4459 30.9235 91.7683 30.5626Z" fill="#030303" fill-opacity="0.5"/>
<path d="M92.6484 32.2812L92.8945 32.4271C93.3416 32.6934 93.8232 32.8672 94.3276 32.9931L94.3887 33.0077L94.2948 33.1607C94.2151 33.2069 94.1349 33.2497 94.05 33.2858C93.8124 33.3872 93.5585 33.4318 93.3162 33.3158C92.9222 33.1273 92.7819 32.6625 92.6484 32.2812Z" fill="#FEFEFE"/>
<path d="M145.962 81.5367L146.058 81.5234C146.094 81.5533 146.147 81.5704 146.165 81.6132C146.31 81.9539 146.496 83.3547 146.586 83.8278C147.096 86.5151 147.561 89.2088 148.094 91.892C147.184 91.7319 146.599 91.1958 145.862 90.6856C144.988 90.0803 140.478 88.2365 139.544 88.4371C139.2 88.511 138.923 88.7201 138.749 89.025C138.488 89.4824 138.471 90.0391 138.614 90.5369C138.904 91.5432 139.723 91.9648 140.571 92.4408C138.89 93.3247 137.197 93.8345 135.341 94.1864C134.242 94.3949 133.043 94.5321 132.014 94.9838C131.354 95.2733 131.125 95.6631 130.869 96.3092C128.908 96.7162 126.942 97.0977 124.971 97.4537C124.563 95.0357 124.076 92.6307 123.664 90.2142C123.452 88.9672 123.326 87.6774 123.05 86.445C123.005 86.2426 122.929 85.926 122.777 85.7723C122.667 85.6615 122.532 85.625 122.378 85.6423C122.221 85.6597 122.056 85.742 121.962 85.871C121.688 86.2462 121.917 86.9897 121.988 87.4047C122.307 89.3438 122.668 91.2766 122.971 93.2181L122.28 93.6472C120.893 92.8264 119.585 91.6848 118.297 90.7112C116.572 89.4073 114.679 88.1608 113.137 86.6466C113.599 86.8375 114.146 87.1234 114.651 87.1423C115.123 87.1598 115.353 86.9503 115.676 86.6356C116.028 86.6159 116.443 86.62 116.766 86.4721C117.672 86.0584 118.725 82.9578 119.108 82.0298C120.3 82.6955 121.392 83.5779 122.469 84.4113C122.52 84.7198 122.536 85.136 122.827 85.3172C123.142 85.513 123.659 85.4277 124.013 85.3886C125.57 85.2163 127.121 84.8249 128.668 84.5635C134.434 83.5896 140.173 82.3585 145.962 81.5367Z" fill="#FEFEFE"/>
<path d="M71.0727 94.1719C73.764 95.1871 76.6543 95.6101 79.4989 95.9602C86.843 96.864 93.4718 96.8921 100.663 94.8998C101.357 97.919 101.49 101.065 101.414 104.148C98.8489 105.232 96.2949 106.34 93.7518 107.473C92.6492 107.972 91.5393 108.449 90.4307 108.933C90.0183 109.114 89.5704 109.4 89.1335 109.486L89.0664 109.435L89.0514 109.155C89.0783 107.319 89.0517 105.482 89.091 103.646C90.0408 103.349 91.1253 102.827 91.7407 102.013C91.8806 101.828 91.9884 101.643 91.9365 101.404C91.9005 101.238 91.7803 101.133 91.6333 101.059C91.188 100.835 90.7959 101.324 90.5038 101.588C89.2652 102.71 88.8381 102.228 87.5569 102.712C87.3748 102.781 87.1843 102.911 87.1232 103.105C87.0764 103.255 87.1129 103.413 87.202 103.537C87.3533 103.748 87.7247 103.743 87.9562 103.767C87.9253 105.887 87.9303 108.006 87.8779 110.126C86.8614 110.495 85.8854 110.945 84.883 111.347C84.3597 111.205 83.7911 110.984 83.3584 110.653C82.8772 110.286 82.4494 109.787 82.0146 109.363C81.1614 108.529 80.3039 107.699 79.442 106.875C77.457 105.004 75.4912 103.114 73.5445 101.204C72.5731 100.246 71.5646 99.3023 70.6719 98.2701C70.7452 96.9046 70.9397 95.5337 71.0727 94.1719Z" fill="#FEFEFE"/>
<path d="M101.956 83.9375C102.841 84.7886 103.523 86.8526 104.687 87.401C106.687 88.3433 109.889 87.1487 111.834 86.4732C112.202 87.1569 112.753 87.8575 113.32 88.3893C114.218 89.2304 121.141 94.5268 121.987 94.7949C122.469 94.9479 122.81 94.7709 123.226 94.5356C123.475 95.5638 123.632 96.6211 123.788 97.6668C123.209 97.745 118.603 98.6149 118.434 98.8995C118.124 99.4191 119.03 104.082 119.182 105.034C119.479 106.786 119.829 108.544 120.062 110.306C119.339 110.093 118.636 109.8 117.925 109.549L113.736 108.101C110.02 106.809 106.285 105.555 102.589 104.207C102.711 100.827 102.365 97.7709 101.808 94.4393C101.877 94.3897 101.947 94.3392 102.016 94.2877C102.466 93.9501 102.781 93.5307 102.819 92.9527C102.875 92.0825 102.452 91.1354 102.266 90.2889C101.812 88.2245 101.654 86.035 101.956 83.9375Z" fill="#FEFEFE"/>
<path d="M120.769 115.051L120.834 115.095C121.004 115.639 121.532 119.001 121.504 119.533C121.442 120.708 120.769 123.094 120.483 124.358C120.088 126.099 119.785 127.872 119.321 129.595C115.638 131.665 111.846 133.567 108.083 135.486C103.854 137.671 99.6092 139.823 95.3477 141.943L94.7695 142.233C95.8668 137.208 96.8313 132.151 97.9467 127.132C105.413 122.842 113.113 118.983 120.769 115.051Z" fill="#FEFEFE"/>
<path d="M74.8867 119.566C77.9637 120.599 81.0135 121.72 84.074 122.8L96.7592 127.317C95.7812 132.301 94.7687 137.309 93.6153 142.256C93.5898 142.327 93.6117 142.282 93.5199 142.372C92.6165 142.164 91.6685 141.702 90.7897 141.383C88.6725 140.622 86.5615 139.844 84.4568 139.049L77.0634 136.298C75.3666 135.672 73.6432 135.075 71.9844 134.354C73.0322 129.448 73.717 124.445 74.8867 119.566Z" fill="#FEFEFE"/>
<path d="M77.7614 124.282C77.9442 124.273 78.1136 124.273 78.2913 124.323C79.0145 124.527 79.7339 124.832 80.4411 125.088L84.9716 126.744L88.5071 128.035C89.1584 128.273 89.8502 128.485 90.4765 128.781C90.7075 128.89 90.7699 128.958 90.8573 129.196C90.8309 129.412 90.7641 129.524 90.6464 129.698C90.527 129.712 90.4168 129.724 90.2976 129.7C89.625 129.565 88.8995 129.227 88.25 128.995C86.6357 128.417 85.0256 127.827 83.4199 127.226C82.2959 126.81 81.1688 126.402 80.0386 126.004C79.3641 125.764 78.647 125.547 77.9991 125.244C77.7972 125.149 77.7253 125.094 77.6062 124.905C77.5801 124.666 77.6688 124.498 77.7614 124.282Z" fill="#030303" fill-opacity="0.5"/>
<path d="M101.559 61.0063C102.96 60.7703 104.811 61.8273 105.946 62.5253C107.101 63.2361 107.888 63.8808 108.211 65.2484C107.172 63.3886 105.991 63.0154 104.047 62.3743C103.713 62.2641 103.294 62.1051 102.97 62.3287C102.821 62.4313 102.837 62.5103 102.829 62.6721C103.177 63.48 104.36 63.5776 105.107 63.889C105.998 64.2602 106.957 64.7086 107.324 65.6731C107.594 66.3826 107.46 66.9172 107.161 67.5718C107.1 66.946 106.992 66.2529 106.591 65.7464C105.987 64.9825 104.472 64.1346 103.491 64.0318C103.295 64.0112 103.074 64.0327 102.929 64.1816C102.81 64.3036 102.786 64.4307 102.774 64.5927C103.015 65.1332 104.844 65.5103 105.531 66.1222C105.871 66.4244 106.057 66.9095 106.065 67.3597C106.074 67.8936 105.821 68.7834 105.429 69.1629C105.31 69.2782 105.231 69.3543 105.059 69.3442C104.825 68.7115 105.313 67.9654 104.812 67.0431C104.583 66.6219 104.196 66.3603 103.744 66.226C103.391 66.1215 102.569 65.9854 102.241 66.2108C102.094 66.312 101.99 66.4502 101.965 66.6302C101.943 66.7849 102.004 66.9346 102.11 67.046C102.467 67.4214 103.144 67.1249 103.593 67.2069C103.745 67.2348 103.882 67.2899 103.957 67.4325C104.209 67.9117 103.965 68.6213 103.808 69.0975C103.607 68.7544 103.411 68.3922 103.18 68.068C102.99 67.7998 102.71 67.5307 102.369 67.4875C101.686 67.4009 100.682 68.1277 100.027 68.3694C99.5471 68.5468 99.0396 68.6649 98.5388 68.7686C97.9651 68.8875 97.3647 68.9831 96.7769 68.9641C96.3293 68.9496 95.8582 68.8774 95.4129 68.907C95.2774 68.916 95.198 68.9413 95.0891 69.0279C95.0049 69.178 94.9743 69.2786 94.9935 69.448C95.0179 69.6639 95.1172 69.8495 95.2955 69.9774C96.1444 70.5866 98.8015 69.8515 99.7317 69.6185C100.047 70.4693 100.314 71.344 100.609 72.2026C99.712 72.5703 98.5516 72.9811 97.7987 73.6008C97.2733 74.0332 97.1389 74.43 97.0843 75.0771C97.502 75.9723 97.8238 76.951 98.2864 77.8168C98.5154 78.2452 98.8227 78.6213 99.0708 79.0372C99.7379 80.1556 100.33 81.3216 101.005 82.4414C100.59 84.8894 100.471 87.4073 101.007 89.8469C101.154 90.5179 101.761 92.1718 101.727 92.7078C101.713 92.9415 101.566 93.1354 101.39 93.2775C100.813 93.7418 99.7719 93.9145 99.0645 94.1036C93.747 95.5257 88.2937 95.5989 82.8403 95.145C80.0078 94.8934 72.2219 94.1689 70.2461 92.2842C70.3769 90.5166 70.8091 88.6482 71.173 86.9097C73.9367 86.482 76.7586 86.271 79.5366 85.9336C80.5059 85.8158 81.6353 85.7806 82.5695 85.5088C82.7586 85.4536 82.9378 85.3508 83.059 85.1928C83.2239 84.978 83.246 84.7562 83.2164 84.495C83.2006 84.3562 83.1902 84.2562 83.2196 84.1169C84.2205 83.7077 88.1917 87.3881 89.8447 87.5239C91.5653 87.6654 95.0225 86.0671 96.3412 84.946C96.761 84.589 97.0029 84.1469 97.0452 83.5955C97.1005 82.878 96.8238 82.385 96.3496 81.8636C95.6602 81.1058 94.6939 80.4671 93.9172 79.7862C93.1138 79.0818 92.2575 78.1488 91.2614 77.7306C90.3612 77.3528 87.4267 78.0269 86.2096 78.0949C85.3289 78.1442 84.4676 78.0977 83.5894 78.0414C83.5508 77.8155 83.5269 77.5705 83.3777 77.3861C83.2523 77.2315 83.0508 77.1862 82.8653 77.1493C81.9114 76.9595 80.8658 76.9549 79.8949 76.883L74.5672 76.4826C77.471 75.7149 93.4069 71.4054 94.5456 70.0722C95.0034 69.5363 93.9374 64.5632 93.8259 63.5142C95.3321 63.2208 96.7289 62.7458 98.1553 62.1914C99.279 61.7548 100.377 61.2655 101.559 61.0063Z" fill="#FEFEFE"/>
<path d="M53.6165 63.998C54.5299 63.9341 55.255 64.0296 56.0398 64.5399C56.1293 64.5987 56.2169 64.6602 56.3027 64.7244C56.3883 64.7886 56.4718 64.8555 56.5533 64.925C56.6348 64.9945 56.714 65.0666 56.7909 65.1411C56.8678 65.2156 56.9422 65.2925 57.0143 65.3717C57.0863 65.4508 57.1559 65.5322 57.2229 65.6158C57.2899 65.6994 57.3541 65.7849 57.4156 65.8725C57.4773 65.9602 57.536 66.0496 57.5919 66.1409C57.6478 66.2322 57.7009 66.3252 57.751 66.4198C58.5841 67.9922 59.2082 70.3375 59.7028 72.073C61.7336 79.1988 62.9782 86.5064 64.5025 93.7491C64.0258 93.7458 63.1089 93.6811 62.7344 94.0062C62.5961 94.1263 62.538 94.2222 62.5232 94.4074C62.5141 94.5226 62.5779 94.6899 62.6409 94.7825C62.8538 95.0956 64.283 94.9741 64.7069 95.0572C65.9135 95.294 66.9363 96.235 67.7779 97.0797C72.2336 101.589 76.7716 106.014 81.3919 110.355C80.7046 111.089 78.1919 114.343 77.6219 114.648L77.486 114.571C75.8946 113.346 74.124 112.284 72.4483 111.178L63.7112 105.405C62.1394 104.369 60.4794 103.394 59.0113 102.213C58.4674 101.775 57.8978 101.26 57.5639 100.636C57.1082 99.7849 56.8038 98.8244 56.4715 97.9185L55.0513 94.0526C53.4529 89.5915 51.8864 85.1192 50.3519 80.6359C49.7559 78.8646 49.1481 77.0974 48.5284 75.3342C48.1617 74.2837 47.8215 73.2195 47.3906 72.1932C48.1442 70.5589 48.7265 68.8412 49.6514 67.2891C50.5849 65.7226 51.8084 64.4518 53.6165 63.998Z" fill="#FEFEFE"/>
<path d="M164.589 99.5964C164.71 99.5709 164.771 99.5704 164.89 99.6058C165.282 100.125 165.378 101.02 165.571 101.64C167.441 107.626 168.868 113.709 170.285 119.815C170.657 121.409 171.019 123.006 171.371 124.604C171.563 125.465 171.821 126.328 171.914 127.206C171.558 127.521 171.178 127.805 170.775 128.057C168.557 129.465 166.196 130.129 163.674 130.731C154.864 132.831 145.346 132.724 136.522 130.785C134.854 130.419 133.241 129.975 131.605 129.487L132.003 127.184C136.978 126.312 141.962 125.49 146.953 124.718C148.72 124.445 150.483 124.152 152.242 123.838C153.358 123.641 154.614 123.529 155.655 123.076C155.759 122.905 155.673 122.534 155.645 122.334C155.348 120.227 154.912 118.118 154.54 116.021C153.639 111.056 152.773 106.085 151.942 101.108C152.189 101.198 152.425 101.269 152.69 101.284C153.59 101.334 154.594 101.148 155.49 101.044C158.546 100.692 161.562 100.14 164.589 99.5964Z" fill="#FEFEFE"/>
<path d="M51.9828 57.2461C52.1836 57.8181 52.1659 58.3641 52.4941 58.9149C52.6875 59.2395 52.9315 59.4973 53.2329 59.7227C54.5371 60.6986 59.2579 63.1059 60.7342 63.4821C61.0661 63.2146 61.3197 62.9334 61.5778 62.5982C62.9413 66.2147 65.0582 69.5349 66.4325 73.1462C67.5739 76.1453 67.937 80.4755 67.9251 83.7021C67.9191 85.3184 67.8005 86.9352 67.7822 88.5524C67.7561 90.8476 67.831 93.1597 67.7026 95.4512C67.095 94.9007 66.441 94.4715 65.7454 94.0441C65.5245 93.2499 65.4116 92.4159 65.2619 91.6051C65.0547 90.4923 64.834 89.3822 64.5997 88.2748C63.4288 82.6034 62.367 76.9065 60.713 71.3495C60.175 69.5419 59.674 67.6113 58.818 65.927C58.1076 64.5293 56.9909 63.441 55.4756 62.958C54.2726 62.5746 53.0712 62.744 51.9585 63.3195C49.4485 64.6178 48.1082 67.4775 47.0576 69.9561C46.7484 70.6856 46.4146 71.4151 46.1788 72.1721L51.7574 88.2977C52.6921 91.016 53.661 93.7221 54.664 96.416C55.3378 98.2191 55.883 100.405 57.0661 101.934C57.9535 103.08 59.3706 103.93 60.5637 104.731C62.0918 105.757 63.6389 106.756 65.1794 107.763C66.1392 108.391 67.1265 108.998 68.0283 109.708C68.1915 111.077 68.3302 112.468 68.3875 113.847C67.8134 114.091 67.2294 114.308 66.6357 114.5C66.042 114.691 65.4408 114.856 64.8323 114.993C57.4462 116.727 48.7765 115.781 42.2852 111.744C42.5021 109.538 42.9313 107.326 43.3725 105.155C43.8661 102.726 44.3977 100.322 45.0485 97.9291C45.2916 97.036 45.607 96.1668 45.8532 95.2755C45.7722 95.092 45.7077 94.9062 45.6654 94.71C45.2171 92.6304 44.9608 89.9988 44.7032 87.8467C43.6094 78.71 44.4499 70.5618 48.8269 62.3471C49.7674 60.5818 50.9043 58.9278 51.9828 57.2461Z" fill="#FEFEFE"/>
<path d="M130.798 97.4644L130.959 97.4609C131.07 97.7389 130.673 98.4139 130.925 98.9889C131.169 99.5452 131.598 99.6287 132.103 99.815C132.638 101.056 133.511 101.322 134.644 101.862C136.536 102.763 139.456 103.551 141.471 102.639C142.353 102.24 143.147 101.653 144.074 101.354C144.971 101.064 145.94 101.013 146.848 100.758C148.077 100.413 149.239 99.871 150.44 99.4461C150.838 101.985 151.322 104.513 151.759 107.046L154.456 122.297C150.872 122.917 147.282 123.505 143.687 124.06C141.05 124.526 138.397 124.911 135.757 125.358C131.89 126.013 128.035 126.713 124.157 127.301C123.872 126.192 123.733 125.011 123.537 123.881L122.441 117.512C121.415 111.573 120.428 105.627 119.48 99.6746C120.562 99.436 121.667 99.262 122.756 99.0524C125.441 98.5483 128.122 98.019 130.798 97.4644Z" fill="#FEFEFE"/>
<path d="M145.835 59.0599C145.92 59.0538 145.973 59.0694 146.054 59.0902C146.113 59.545 145.679 59.9447 145.829 60.4973C145.918 60.823 146.16 61.0415 146.443 61.2064C148.481 62.3957 151.295 62.2578 153.495 61.696C153.281 62.3498 153.071 62.995 152.773 63.6168C152.544 64.0947 151.527 65.3356 151.599 65.7821C151.616 65.8839 151.642 65.9564 151.736 66.0023C152.66 66.4561 154.513 65.9502 155.519 65.868C156.955 65.7508 158.415 65.7708 159.822 65.3994C160.371 65.2543 160.84 64.8659 161.379 64.688C162.173 64.4257 163.026 64.3438 163.831 64.0749C165.282 63.5898 166.279 63.0401 166.981 61.6209C167.462 61.8817 167.912 62.2309 168.321 62.5928C169.313 63.4706 170.133 64.5789 170.628 65.8103C171.225 67.2949 171.523 68.9649 171.816 70.5341C172.322 73.327 172.737 76.1336 173.058 78.9537C173.475 82.397 173.895 85.8541 174.125 89.3156C174.268 91.4715 174.479 94.3774 172.931 96.1068C172.566 96.5132 172.014 96.7865 171.501 96.9629C170.12 97.4392 168.318 97.6659 166.866 97.954C162.376 98.8445 157.74 99.8608 153.166 100.121C153.43 97.5854 153.08 94.8722 151.952 92.5766L160.301 90.5558C161.815 90.1822 164.74 89.2929 166.181 89.2674C167.175 89.2497 168.12 89.6033 168.831 90.2986C168.974 90.4419 169.161 90.5788 169.37 90.6039C169.504 90.62 169.613 90.5949 169.706 90.4929C169.829 90.3585 169.851 90.1748 169.832 90.002C169.787 89.5948 169.47 89.25 169.163 89.0072C167.984 88.0765 166.489 88.0076 165.063 88.1992C164.28 83.3521 162.854 78.348 162.762 73.4309C162.747 72.6252 162.795 71.7974 162.914 71.0014C162.987 70.5159 163.139 69.9748 163.151 69.4872C163.156 69.3276 163.12 69.1937 163 69.0804C162.875 68.9631 162.66 68.8767 162.487 68.8953C162.318 68.9135 162.215 68.9812 162.115 69.1159C161.839 69.4875 161.812 70.2267 161.754 70.683C161.014 76.4778 163.186 82.7484 163.888 88.4799C159.002 89.5645 154.171 91.125 149.225 91.8923C148.878 89.6143 148.419 87.3517 147.989 85.088C147.737 83.7566 147.554 82.3583 147.201 81.0519C147.126 80.7761 147.028 80.5283 146.877 80.285C146.461 80.1187 145.047 80.5159 144.51 80.6157C144.421 79.7998 144.178 79.0259 143.671 78.3696C143.634 78.3214 143.596 78.2742 143.557 78.228C143.518 78.1817 143.478 78.1365 143.437 78.0923C143.395 78.0481 143.353 78.005 143.309 77.9629C143.266 77.9208 143.221 77.8799 143.175 77.8402C143.13 77.8004 143.083 77.7619 143.035 77.7245C142.988 77.6871 142.939 77.6509 142.89 77.616C142.84 77.581 142.79 77.5473 142.739 77.5149C142.688 77.4825 142.636 77.4515 142.583 77.4218C142.53 77.3921 142.477 77.3637 142.422 77.3366C142.368 77.3095 142.313 77.2839 142.258 77.2598C142.202 77.2355 142.146 77.2127 142.09 77.1913C142.033 77.1699 141.976 77.15 141.918 77.1315C141.86 77.113 141.802 77.096 141.744 77.0805C141.685 77.0649 141.626 77.0509 141.567 77.0384C141.508 77.0258 141.448 77.0148 141.389 77.0054C141.329 76.9958 141.269 76.9878 141.209 76.9813C139.928 76.847 138.964 77.3638 138.021 78.1474C137.554 77.6938 137.142 77.2172 136.829 76.6433C135.16 73.5876 137.157 71.0098 138.389 68.3227C138.834 67.3524 139.128 66.3311 139.427 65.3095C141.089 66.1332 141.797 66.5037 143.681 66.5324C144.093 66.5387 144.609 66.5708 145.004 66.4463C145.175 66.3924 145.301 66.3258 145.359 66.1433C145.51 65.6681 144.909 65.2177 144.723 64.8159C144.239 63.7691 144.118 61.309 144.568 60.2364C144.834 59.6021 145.226 59.3148 145.835 59.0599Z" fill="#FEFEFE"/>
<path d="M83.0212 39.0352C83.1582 39.133 83.271 39.6502 83.3431 39.84C83.6093 40.5399 83.9623 41.3102 84.4082 41.9129C85.533 43.4332 87.2248 44.5277 89.1105 44.7863C89.2071 44.7999 89.304 44.811 89.4012 44.8198C89.4985 44.8286 89.5958 44.8349 89.6933 44.8389C89.7908 44.8429 89.8883 44.8445 89.9859 44.8437C90.0835 44.8429 90.181 44.8397 90.2785 44.834C90.3759 44.8284 90.4731 44.8204 90.5701 44.81C90.6671 44.7996 90.7637 44.7869 90.8602 44.7717C90.9566 44.7565 91.0525 44.739 91.1481 44.7191C91.2436 44.6992 91.3386 44.677 91.433 44.6525C91.5274 44.628 91.6213 44.6011 91.7144 44.5719C91.8075 44.5427 91.8998 44.5113 91.9915 44.4776C92.083 44.4438 92.1737 44.4079 92.2635 44.3697C92.3533 44.3315 92.4421 44.2912 92.5299 44.2486C92.6177 44.2061 92.7045 44.1614 92.7901 44.1146C92.8757 44.0677 92.9601 44.0188 93.0434 43.9678C93.1266 43.9169 93.2085 43.8639 93.2891 43.8089C93.3696 43.7539 93.4488 43.697 93.5267 43.6381C94.6957 42.7393 95.1377 41.6913 95.3345 40.2482C96.2336 40.6531 97.1108 41.1127 97.9857 41.5673C99.7761 42.4978 103.597 44.4702 104.859 45.9034C106.64 47.9274 109.573 59.7358 110.492 63.0413C110.893 64.4849 111.369 65.9124 111.82 67.3409C110.039 67.8068 108.451 68.6775 106.779 69.4137L106.726 69.3648L106.799 69.2792C106.922 69.242 107.047 69.2043 107.165 69.1518C107.929 68.8109 108.635 67.6537 108.945 66.8965C109.326 65.9629 109.386 64.9013 108.968 63.9667C108.193 62.2332 105.795 60.9929 104.105 60.3788C104.184 59.4708 104.778 54.2885 104.6 53.8381C104.54 53.6844 104.425 53.5893 104.27 53.5347C104.09 53.4713 103.969 53.4856 103.796 53.5502C103.618 53.735 103.544 53.9157 103.487 54.166C103.354 54.7525 103.354 55.4037 103.305 56.0032C103.196 57.3236 103.103 58.6783 102.936 59.9914C100.723 59.5375 98.6292 60.8516 96.5982 61.6024C95.5533 61.9886 94.5009 62.2642 93.4158 62.509L92.8986 62.2063C92.1203 62.1904 91.3151 62.2936 90.5398 62.3617C89.0732 62.4955 87.6077 62.64 86.1432 62.7951C82.7369 63.1133 79.333 63.4556 75.9314 63.822C77.0766 60.5623 78.4247 56.8856 78.7072 53.4374C78.717 53.1245 78.7781 52.8195 78.7922 52.5088C78.8044 52.2376 78.6605 51.9038 78.4622 51.7175C78.3256 51.5891 78.2027 51.5624 78.0218 51.5729C77.4509 51.9366 77.5162 53.5743 77.4251 54.226C76.982 57.3963 75.7633 60.9628 74.6003 63.9536C73.4359 64.0155 72.4271 64.3129 71.503 65.0526C71.1624 65.3253 70.7238 65.7763 70.7107 66.2468C70.7057 66.4319 70.7467 66.5142 70.8611 66.6528C70.9424 66.6865 71.0123 66.7108 71.1019 66.7088C71.4582 66.7005 71.6289 66.5308 71.8651 66.2885C72.3752 65.7654 73.0208 65.4355 73.7304 65.2628C74.6915 65.0289 75.7514 64.9795 76.7386 64.882L81.6789 64.4027L88.0292 63.7584C89.5592 63.5945 91.1009 63.3862 92.6385 63.3197C92.8435 64.0637 92.9334 64.8764 93.0625 65.6393C93.2756 66.8986 93.528 68.1724 93.6222 69.4465C89.5696 71.0194 85.3695 72.2108 81.2046 73.4488C78.2304 74.3329 74.9356 75.4322 71.887 75.9192C70.682 76.1118 69.5934 76.1239 68.3868 75.976C67.9599 72.5479 64.8633 67.0255 63.3164 63.7237C64.361 61.6064 65.0475 59.3077 66.0674 57.1703C66.5386 56.9538 67.0026 56.677 67.4236 56.3749C69.6901 54.7484 71.0765 51.7915 71.5394 49.1027C71.7141 48.0875 71.7115 47.0858 71.792 46.0649C71.8925 44.7879 72.0942 43.4878 72.3033 42.2248C75.5271 40.4701 79.448 39.7084 83.0212 39.0352Z" fill="#FEFEFE"/>
</svg>
