<svg width="181" height="134" viewBox="0 0 181 134" fill="none" xmlns="http://www.w3.org/2000/svg">
<path fill-rule="evenodd" clip-rule="evenodd" d="M83.9967 0C84.7911 1.59124 84.8732 3.64107 85.0043 5.68598C85.1404 7.79552 85.1256 10.0208 85.2924 12.0919C85.4488 14.03 85.9151 15.9838 86.0844 17.9939C86.5867 23.9701 86.7399 30.5927 87.4515 36.7077C87.7815 39.5408 88.0117 42.4783 88.1714 45.9929C88.2065 46.7651 88.3075 48.7309 87.7396 48.8719C86.2309 49.2462 86.6488 45.3638 86.5879 43.9775C86.466 41.1992 85.8526 37.3205 85.7242 34.9084C85.4466 29.689 85.4165 25.0754 85.4362 19.4334C85.4476 16.2777 84.8357 13.1876 84.5008 10.1482C84.3377 8.66932 84.174 7.11932 83.9967 5.54163C83.8274 4.03165 83.4131 2.41425 83.5652 0.935042C83.603 0.566319 83.6113 0.0129269 83.9967 0Z" fill="white" fill-opacity="0.5"/>
<path fill-rule="evenodd" clip-rule="evenodd" d="M71.0416 2.95163C71.1029 2.9387 71.1096 2.97995 71.1136 3.02365C72.1287 4.69399 72.3552 7.70287 72.8412 10.0777C74.0336 15.9065 76.2007 21.0154 77.8073 26.7041C79.6165 33.1085 81.5866 39.8003 82.8457 46.8578C82.9371 47.3696 83.328 49.5253 82.5576 49.6647C81.5761 49.8426 81.4084 48.0042 81.2622 47.3619C78.8273 36.6465 75.9218 26.5238 73.4888 15.9798C72.8249 13.1032 72.3328 9.9503 71.6172 7.1267C71.2952 5.85525 70.6227 4.33327 71.0416 2.95163Z" fill="white" fill-opacity="0.5"/>
<path fill-rule="evenodd" clip-rule="evenodd" d="M108.829 3.23982C108.89 3.22658 108.897 3.26783 108.901 3.31184C109.356 5.00895 108.243 7.8424 107.821 9.71772C107.359 11.7672 107.077 13.8519 106.669 15.6921C104.541 25.2918 101.536 34.38 99.4715 44.1229C99.3241 44.8185 99.1748 45.8197 98.8957 47.1459C98.835 47.435 98.5522 49.4971 97.6002 49.3771C96.7098 49.2647 97.1041 47.2641 97.2404 46.5698C98.5688 39.8195 100.347 33.1018 102.207 26.776C103.301 23.0561 104.542 19.4818 105.59 15.9796C106.128 14.18 106.785 12.364 107.173 10.4376C107.647 8.08893 107.851 5.177 108.829 3.23982Z" fill="white" fill-opacity="0.5"/>
<path fill-rule="evenodd" clip-rule="evenodd" d="M48.5124 13.7462C48.6288 13.7259 48.6362 13.8142 48.7282 13.8182C50.18 15.1094 50.9756 16.9071 51.8953 18.5685C52.8485 20.2906 53.6219 22.128 54.4865 23.8947C57.8841 30.8389 62.6812 36.8474 66.3626 43.6165C67.7492 46.1659 69.2573 48.5767 70.7531 51.1024C71.1775 51.8186 72.015 52.8875 71.3293 53.837C70.2933 53.8509 69.8304 52.7198 69.3859 52.0377C65.8969 46.6876 62.8019 40.808 59.5969 35.0512C58.6859 33.415 57.8487 31.7272 57.0057 29.9408C55.3578 26.4475 53.5237 23.3238 51.5355 20.0801C51.0803 19.3371 50.5613 18.5125 50.096 17.7052C49.3693 16.4442 48.7109 15.5772 48.5124 13.9623C48.3844 13.909 48.502 13.8308 48.5124 13.7462Z" fill="white" fill-opacity="0.5"/>
<path fill-rule="evenodd" clip-rule="evenodd" d="M131.357 14.0361C131.406 14.0361 131.454 14.0361 131.502 14.0361C131.226 16.0915 129.734 18.4759 128.623 20.2259C127.594 21.8464 126.547 23.4266 125.672 24.9049C123.798 28.0679 122.332 31.8672 120.561 35.0534C118.79 38.2392 116.79 41.5808 115.019 44.8421C113.758 47.164 112.315 49.7242 110.772 52.0399C110.316 52.7253 109.037 55.0626 108.469 53.5514C108.206 52.8515 109.014 51.838 109.189 51.5361C110.552 49.1791 112.136 46.6651 113.436 44.3383C115.281 41.0333 117.253 37.8431 119.194 34.7656C121.161 31.6456 123.382 28.5299 124.952 25.1923C126.134 22.6793 127.527 20.0434 128.839 17.5627C129.592 16.1389 130.181 14.9589 131.357 14.0361Z" fill="white" fill-opacity="0.5"/>
<path fill-rule="evenodd" clip-rule="evenodd" d="M94.4335 19.2183C94.4948 19.2051 94.5015 19.2466 94.5052 19.29C94.8099 20.495 94.5419 22.3331 94.4335 23.6806C94.3624 24.57 94.6145 25.6778 94.002 26.128C93.9525 23.9462 93.5563 20.856 94.4335 19.2183Z" fill="white" fill-opacity="0.5"/>
<path fill-rule="evenodd" clip-rule="evenodd" d="M63.1956 23.611C63.2566 23.5975 63.2636 23.6387 63.2673 23.6824C65.2027 25.4208 66.3212 28.875 67.4418 31.6001C68.3941 33.915 69.8071 36.0094 70.969 38.078C72.7997 41.3378 74.526 44.4491 76.2228 47.7947C76.6743 48.6836 77.815 50.0295 77.1588 51.2499C75.7796 50.9772 75.4463 49.4743 74.9277 48.4426C73.3004 45.206 71.4694 41.949 69.889 38.5099C68.8985 36.3551 67.9983 33.8353 66.8659 31.5284C65.5526 28.8516 63.7413 26.8935 63.1953 23.8268C63.1956 23.7548 63.1956 23.6827 63.1956 23.611Z" fill="white" fill-opacity="0.5"/>
<path fill-rule="evenodd" clip-rule="evenodd" d="M116.674 23.8965C116.733 23.9103 116.746 23.9688 116.818 23.9685C116.287 26.9395 114.482 29.2938 113.22 31.7422C112.124 33.8674 111.222 36.2595 110.197 38.5079C108.682 41.8304 106.999 44.9331 105.302 48.2969C105.018 48.862 104.206 51.3307 103.215 51.1042C101.989 50.8232 103.837 47.9054 103.935 47.721C105.639 44.4939 107.329 41.3773 109.117 38.2201C110.332 36.0758 111.715 33.9776 112.573 31.8142C113.01 30.7108 113.506 29.5197 114.012 28.3593C114.503 27.235 114.994 25.9472 115.596 25.0485C115.862 24.6499 116.398 24.2169 116.674 23.8965Z" fill="white" fill-opacity="0.5"/>
<path fill-rule="evenodd" clip-rule="evenodd" d="M30.8064 26.0557C30.8787 26.0557 30.9508 26.0557 31.0228 26.0557C33.927 28.7983 36.8442 31.4754 39.8038 34.1171C42.7693 36.7637 45.4156 39.6295 48.2251 42.5387C52.3509 46.8101 56.8245 50.6223 61.1092 54.9183C62.0134 55.8253 63.3086 57.0322 63.9161 58.4449C64.1319 58.9472 64.3129 59.6252 63.8441 59.8847C62.9783 60.3636 61.8866 58.9469 61.3249 58.3728C59.2899 56.2941 57.3505 53.781 55.4949 51.6792C50.2983 45.7938 44.9435 39.9484 39.1563 34.693C36.2708 32.0725 33.1517 29.6004 30.8791 26.3438C30.823 26.2797 30.8012 26.1812 30.8064 26.0557Z" fill="white" fill-opacity="0.5"/>
<path fill-rule="evenodd" clip-rule="evenodd" d="M149.136 26.1974C149.265 26.1771 149.284 26.2651 149.208 26.2694C148.401 28.1506 146.768 29.4291 145.393 30.804C144.001 32.1961 142.429 33.446 141.002 34.7627C136.707 38.7263 132.622 42.9368 128.622 47.3587C125.867 50.4042 123.62 53.0517 120.849 56.2834C120.23 57.0058 119.722 57.5537 118.834 58.4425C118.451 58.8254 117.106 60.3573 116.314 59.8823C115.314 59.2828 116.826 57.4072 117.106 57.0748C117.693 56.3804 118.895 55.2293 119.121 54.9877C120.532 53.4842 121.93 52.1832 123.296 50.957C126.191 48.3599 128.962 45.5785 131.645 42.8958C134.447 40.0944 137.045 37.2145 139.851 34.6906C141.292 33.394 142.746 32.0976 144.169 30.804C145.853 29.2727 147.449 27.6366 149.136 26.1974Z" fill="white" fill-opacity="0.5"/>
<path fill-rule="evenodd" clip-rule="evenodd" d="M93.9298 29.8676C93.9908 29.8547 93.9975 29.896 94.0015 29.9397C94.0566 34.9538 93.6491 40.3932 93.3536 45.9185C93.2921 47.0693 93.3552 49.1001 92.4177 49.0856C91.2887 49.0684 91.8868 45.6489 91.9862 44.479C92.1287 42.7967 92.1102 40.6591 92.2739 39.2966C92.7218 35.5702 93.181 32.766 93.9298 29.8676Z" fill="white" fill-opacity="0.5"/>
<path fill-rule="evenodd" clip-rule="evenodd" d="M49.8079 31.8838C50.8652 32.3513 51.3958 33.3017 52.039 34.3313C52.3401 34.8123 52.9048 35.3236 52.7586 35.9145C52.0821 35.7705 51.5312 35.0142 51.0311 34.403C50.4841 33.7342 50.016 33.0054 49.8076 32.0995C49.8079 32.0275 49.8079 31.9558 49.8079 31.8838Z" fill="white" fill-opacity="0.5"/>
<path fill-rule="evenodd" clip-rule="evenodd" d="M127.184 36.2023C127.742 34.4572 128.748 33.1602 130.063 32.1716C130.146 32.1599 130.191 32.1873 130.207 32.2436C130.099 33.2248 129.505 33.9035 128.983 34.5468C128.507 35.1337 128.056 36.0112 127.184 36.2023Z" fill="white" fill-opacity="0.5"/>
<path fill-rule="evenodd" clip-rule="evenodd" d="M35.1966 42.4663C33.8882 42.1074 32.7925 41.0295 31.598 40.1631C30.4693 39.3441 29.0788 38.5676 28.2151 37.5719C27.9021 37.2112 27.7476 36.7058 27.4235 36.3481C27.41 36.2869 27.4515 36.2801 27.4952 36.2761C27.5534 36.2623 27.5669 36.2038 27.6393 36.2041C30.1228 37.1118 32.1584 39.032 33.9734 40.8107C34.4717 41.3001 35.2203 41.7365 35.1966 42.4663Z" fill="white" fill-opacity="0.5"/>
<path fill-rule="evenodd" clip-rule="evenodd" d="M152.519 36.4941C151.919 38.1663 150.091 39.2149 148.488 40.3808C147.292 41.2509 146.154 42.3109 144.817 42.7563C144.746 42.025 145.512 41.5172 146.041 41.0287C147.079 40.0709 148.105 39.1445 149.28 38.2217C150.283 37.4338 151.031 36.7314 152.519 36.4941Z" fill="white" fill-opacity="0.5"/>
<path fill-rule="evenodd" clip-rule="evenodd" d="M21.0177 44.4073C18.9746 43.801 16.7641 42.3642 14.8996 41.0965C14.3991 40.7561 12.8476 39.926 13.5318 39.2969C15.5262 40.018 17.7681 41.6379 19.4341 42.8958C20.0029 43.3251 20.8367 43.6662 21.0177 44.4073Z" fill="white" fill-opacity="0.5"/>
<path fill-rule="evenodd" clip-rule="evenodd" d="M68.0185 56.2857C66.9277 56.7274 66.5021 55.4621 66.0752 54.8462C65.5858 54.1402 64.8921 53.4849 64.4199 52.8309C63.4166 51.4403 62.476 49.9057 61.3969 48.5121C60.3994 47.2243 59.3455 45.7648 58.3018 44.2656C57.2908 42.8129 56.1009 41.1354 55.4228 39.731C55.3413 39.7178 55.3828 39.659 55.4228 39.6593C55.4025 39.5307 55.4912 39.5119 55.4949 39.5873C57.7115 41.7821 60.3175 45.1539 62.3329 47.6484C63.4267 49.0024 64.4439 50.4733 65.4996 51.8229C66.0103 52.4763 66.6418 53.1451 67.1552 53.8382C67.6335 54.4852 68.3322 55.3599 68.0185 56.2857Z" fill="white" fill-opacity="0.5"/>
<path fill-rule="evenodd" clip-rule="evenodd" d="M166.698 39.731C166.047 41.1354 164.458 41.8205 163.171 42.61C162.51 43.0163 161.802 43.3884 161.084 43.7617C160.404 44.1154 159.74 44.7066 158.925 44.6254C159.2 44.028 159.9 43.6297 160.508 43.1859C162.112 42.016 164.454 40.2592 166.194 39.5153C166.347 39.4497 166.581 39.5599 166.698 39.731Z" fill="white" fill-opacity="0.5"/>
<path fill-rule="evenodd" clip-rule="evenodd" d="M124.664 39.8037C122.201 44.37 118.908 48.2194 115.955 52.5438C115.546 53.143 115.055 53.8349 114.443 54.6311C114.017 55.1858 113.333 56.4338 112.644 56.3587C111.429 56.2255 112.579 54.4194 112.86 54.0553C113.452 53.2864 114.058 52.6189 114.515 52.0399C115.563 50.7137 116.657 49.2022 117.682 47.9372C120.147 44.8951 122.157 42.2004 124.52 39.8037C124.568 39.8037 124.616 39.8037 124.664 39.8037Z" fill="white" fill-opacity="0.5"/>
<path fill-rule="evenodd" clip-rule="evenodd" d="M37.86 44.8412C37.8465 44.78 37.888 44.7732 37.9317 44.7695C42.3272 47.2164 46.3222 50.4851 50.24 53.4786C53.1775 55.7229 55.9284 58.1353 59.0213 60.4603C59.1463 60.5542 59.9844 61.3085 60.3888 61.6837C60.5655 61.8484 61.6603 62.6776 60.9647 63.2676C60.6418 63.5412 59.7283 63.046 59.2371 62.6917C57.7754 61.6373 56.2353 60.2362 54.9906 59.1648C50.3114 55.1375 45.4518 51.5497 40.739 47.5045C39.7818 46.6827 38.6033 45.8077 38.0038 44.9853C37.9256 44.9674 37.9548 44.8425 37.86 44.8412Z" fill="white" fill-opacity="0.5"/>
<path fill-rule="evenodd" clip-rule="evenodd" d="M119.337 63.1228C119.116 61.69 120.709 61.0258 121.569 60.3872C124.459 58.2413 127.092 55.8403 129.99 53.5495C132.736 51.3787 135.698 49.1011 138.771 47.0716C139.852 46.3578 141.048 45.5022 142.01 44.9842C142.093 44.9722 142.138 44.9999 142.154 45.0565C138.823 48.5369 134.783 51.3895 130.998 54.4852C128.174 56.7941 125.455 59.1933 122.504 61.4669C121.625 62.1452 120.691 63.489 119.337 63.1228Z" fill="white" fill-opacity="0.5"/>
<path fill-rule="evenodd" clip-rule="evenodd" d="M154.03 47.7212C154.091 47.7082 154.099 47.7495 154.102 47.7932C154.102 47.8412 154.102 47.8892 154.102 47.9372C144.463 54.4631 134.043 60.6505 123.872 66.8668C123.412 67.1484 121.968 67.9923 121.785 66.8668C121.687 66.2654 122.747 65.5775 123.369 65.2115C130.692 60.8983 138.155 56.4985 145.537 52.2554C146.831 51.5121 148.222 50.7033 149.639 49.9523C151.087 49.1862 152.629 48.2404 154.03 47.7212Z" fill="white" fill-opacity="0.5"/>
<path fill-rule="evenodd" clip-rule="evenodd" d="M28.5752 59.5977C30.0547 59.726 31.0322 60.3554 31.958 61.0372C30.71 61.2471 29.2348 60.4545 28.5752 59.5977Z" fill="white" fill-opacity="0.5"/>
<path fill-rule="evenodd" clip-rule="evenodd" d="M151.439 59.8833C150.722 60.7509 149.382 61.3736 148.057 61.3948C148.328 60.8728 148.975 60.6432 149.496 60.3868C150.019 60.1301 150.683 59.8454 151.439 59.8833Z" fill="white" fill-opacity="0.5"/>
<path fill-rule="evenodd" clip-rule="evenodd" d="M92.0585 63.5552C91.4014 63.6623 91.237 62.8498 90.619 62.8356C89.8268 62.8168 89.2894 63.8614 88.6754 64.2751C88.7083 65.5973 89.7375 67.0504 88.6754 68.0181C88.636 68.7509 89.0296 69.3612 88.8194 70.0334C88.2045 69.8346 87.9659 68.9094 87.8834 68.2338C87.5732 65.6746 88.4375 61.8055 91.0508 62.3318C91.5501 62.4321 92.1404 62.9627 92.0585 63.5552Z" fill="white" fill-opacity="0.5"/>
<path fill-rule="evenodd" clip-rule="evenodd" d="M36.5645 63.4848C36.6226 63.4716 36.6362 63.4131 36.7082 63.4131C42.5354 65.1899 48.4427 67.8649 53.9825 70.3948C54.5574 70.6574 56.0659 71.236 56.1416 71.6906C56.2142 72.1261 55.8674 72.5702 55.0622 72.4822C54.7883 72.452 54.1182 72.0338 53.8384 71.9064C51.294 70.746 48.7262 69.7454 46.2808 68.5952C44.7376 67.8698 43.0091 66.8929 41.4585 66.148C39.778 65.3407 37.6959 64.6137 36.5645 63.4848Z" fill="white" fill-opacity="0.5"/>
<path fill-rule="evenodd" clip-rule="evenodd" d="M143.306 63.6991C143.482 63.9161 142.878 64.3091 142.586 64.4913C141.589 65.1112 140.25 65.6889 139.131 66.2186C135.972 67.7132 132.93 69.233 129.702 70.7532C128.121 71.4974 126.481 72.4244 124.664 72.4807C123.657 71.4164 125.278 70.8199 126.247 70.4654C128.751 69.5482 131.002 68.4953 133.229 67.514C136.776 65.9514 139.672 64.8003 142.802 63.7714C142.947 63.7234 143.037 63.6825 143.306 63.6991Z" fill="white" fill-opacity="0.5"/>
<path fill-rule="evenodd" clip-rule="evenodd" d="M92.7065 63.8438C93.1331 64.2245 93.4757 65.0964 93.4981 65.9311C93.5277 67.0336 93.3122 68.5116 92.7065 69.0262C92.4015 68.1232 92.078 67.4427 92.1307 66.507C92.1833 65.575 92.8456 65.0533 92.7065 63.8438Z" fill="white" fill-opacity="0.5"/>
<path fill-rule="evenodd" clip-rule="evenodd" d="M13.8913 64.3447C13.8796 64.2613 13.907 64.2169 13.963 64.2006C14.0215 64.1868 14.0351 64.1289 14.1074 64.1289C16.4512 64.3573 18.4173 65.1203 20.4413 65.7845C25.3002 67.3785 29.6249 69.3557 34.9086 70.7509C38.2139 71.6237 41.8405 72.3978 45.1294 73.4864C46.6099 73.9761 48.0958 74.6655 49.8801 75.2134C50.3347 75.3531 51.3534 75.5904 52.3993 75.9333C52.5787 75.9921 54.4799 76.4227 54.2709 77.3008C54.0727 78.1284 52.1897 77.3436 51.7517 77.2288C48.9299 76.4898 46.5862 75.576 44.1221 74.7096C37.3828 72.3415 31.0484 69.9134 23.8247 67.9439C22.074 67.4665 20.284 66.9805 18.5702 66.4324C16.9036 65.899 15.1345 65.4696 13.8913 64.3447Z" fill="white" fill-opacity="0.5"/>
<path fill-rule="evenodd" clip-rule="evenodd" d="M166.122 64.4909C165.016 65.7768 163.174 66.1132 161.516 66.65C159.808 67.203 158.011 67.693 156.262 68.1615C149.117 70.075 142.803 72.5455 136.036 74.9275C133.616 75.7794 131.328 76.7055 128.478 77.5184C127.987 77.6584 126.261 78.2451 125.959 77.5904C125.55 76.7012 127.136 76.2962 127.686 76.1506C128.513 75.9327 130.062 75.5649 130.278 75.503C132.012 75.0056 133.505 74.2897 135.028 73.7757C138.296 72.6726 141.877 72.0023 145.249 71.0405C152.384 69.0051 158.016 66.3649 164.61 64.4909C164.852 64.4222 165.775 64.341 166.122 64.4909Z" fill="white" fill-opacity="0.5"/>
<path fill-rule="evenodd" clip-rule="evenodd" d="M105.95 77.0884C105.586 77.1401 105.431 76.9828 105.302 76.8C104.936 76.9619 104.826 77.3796 104.726 77.8077C104.559 77.1229 104.542 75.4618 105.446 75.6483C105.831 75.7283 106.146 76.5064 105.95 77.0884Z" fill="white" fill-opacity="0.5"/>
<path fill-rule="evenodd" clip-rule="evenodd" d="M102.927 77.2314C103.08 77.5269 103.513 77.8698 103.431 78.1671C103.335 78.1671 103.239 78.1671 103.143 78.1671C103.094 77.8319 102.883 77.659 102.927 77.2314Z" fill="white" fill-opacity="0.5"/>
<path fill-rule="evenodd" clip-rule="evenodd" d="M24.4004 78.02C23.2702 78.6041 21.4647 77.96 20.5137 77.6602C21.566 77.08 23.5281 77.5257 24.4004 78.02Z" fill="white" fill-opacity="0.5"/>
<path fill-rule="evenodd" clip-rule="evenodd" d="M105.735 91.6268C103.634 88.6717 105.736 83.8232 105.806 80.0384C105.822 79.1893 105.32 78.5066 105.518 77.6633C105.93 77.5346 106.649 77.4577 106.742 77.8793C106.832 78.2881 106.237 78.5278 106.166 78.887C106.072 79.3613 106.406 80.1197 106.454 80.686C106.499 81.2071 106.41 81.7534 106.454 82.3419C106.644 84.8398 106.885 87.4206 106.526 89.8272C106.423 90.5169 106.518 91.4987 105.735 91.6268Z" fill="white" fill-opacity="0.5"/>
<path fill-rule="evenodd" clip-rule="evenodd" d="M159.5 77.8775C158.567 78.3232 156.885 78.7491 155.613 78.3813C155.677 77.9514 156.409 77.8984 156.909 77.8055C157.779 77.6439 158.802 77.5429 159.5 77.8775Z" fill="white" fill-opacity="0.5"/>
<path fill-rule="evenodd" clip-rule="evenodd" d="M28.8633 78.6679C35.4424 78.4826 41.8625 79.6587 48.1529 80.4675C49.5287 80.6448 51.1738 80.6691 52.6875 81.1154C53.1243 81.2441 53.5955 81.5238 53.5515 81.9791C53.461 82.9027 51.5253 82.3961 50.7439 82.2668C45.5691 81.4127 40.1214 80.7501 34.837 79.8197C32.7878 79.4586 30.6278 79.3038 28.8633 78.6679Z" fill="white" fill-opacity="0.5"/>
<path fill-rule="evenodd" clip-rule="evenodd" d="M151.152 78.8105C150.464 79.412 149.327 79.4187 148.345 79.6025C145.317 80.1697 142.257 80.5877 138.988 81.042C135.916 81.4689 132.857 81.9469 129.559 82.4094C128.575 82.5473 126.655 82.872 126.68 81.6898C126.706 80.4292 129.983 80.6178 131.287 80.4658C133.093 80.2556 134.815 80.1543 136.613 80.034C138.651 79.8979 140.853 79.5003 142.875 79.3144C145.669 79.0577 148.242 78.8185 151.152 78.8105Z" fill="white" fill-opacity="0.5"/>
<path fill-rule="evenodd" clip-rule="evenodd" d="M0 85.3673C0.94951 84.608 2.87377 84.8788 4.60658 85.0075C7.68872 85.2364 11.0817 85.5427 14.3956 85.2952C23.1025 84.6449 32.2295 85.0638 40.9548 85.5116C44.5891 85.6975 48.6992 85.5824 52.4714 86.0151C53.1664 86.0952 53.4572 86.2546 53.4788 86.6627C53.5376 87.7698 51.2871 87.3321 50.6718 87.3109C42.6239 87.0324 34.797 86.603 26.9196 86.2309C22.4764 86.0207 17.8197 85.5842 13.3159 85.7991C11.0783 85.9059 8.67455 85.9607 6.40619 86.0148C4.13783 86.0693 1.83069 86.1487 0 85.3673Z" fill="white" fill-opacity="0.5"/>
<path fill-rule="evenodd" clip-rule="evenodd" d="M180.014 85.5802C179.247 86.1675 178.139 86.1604 177.135 86.2278C173.847 86.4497 170.246 86.2414 166.914 86.0835C162.441 85.8723 157.815 86.3048 153.383 86.4436C149.076 86.579 144.491 86.9979 140.067 87.1635C136.898 87.2823 133.355 87.3448 129.846 87.5236C129.083 87.5624 127.255 87.7276 127.111 87.0915C126.87 86.0238 128.67 85.9517 129.27 85.94C130.662 85.9127 132.022 85.94 132.509 85.94C134.902 85.94 136.824 85.8902 138.843 85.796C146.946 85.419 155.856 85.0398 164.179 85.4362C168.375 85.636 172.499 85.7822 176.487 85.2201C177.501 85.0773 179.314 85.0595 180.014 85.5802Z" fill="white" fill-opacity="0.5"/>
<path fill-rule="evenodd" clip-rule="evenodd" d="M29.6543 94.3597C30.3967 93.8189 31.4062 93.8506 32.3175 93.7118C36.8429 93.0239 41.9034 92.1763 46.6411 91.5527C48.6916 91.2825 50.8534 90.8371 52.6152 90.6884C53.2637 90.634 53.7632 90.7688 53.8389 91.1206C54.0735 92.2163 51.9587 92.0544 51.3918 92.1282C44.4448 93.0337 37.1796 94.319 29.6543 94.3597Z" fill="white" fill-opacity="0.5"/>
<path fill-rule="evenodd" clip-rule="evenodd" d="M150.359 94.5788C145.992 94.6635 141.289 94.1562 136.971 93.5714C134.25 93.203 132.504 92.971 129.342 92.7075C128.502 92.6376 126.64 92.7367 126.534 91.9162C126.361 90.5629 129.05 91.3172 130.277 91.4841C135.207 92.1541 140.073 92.7315 144.816 93.4994C146.759 93.8137 148.647 94.0039 150.359 94.5788Z" fill="white" fill-opacity="0.5"/>
<path fill-rule="evenodd" clip-rule="evenodd" d="M25.8392 94.4336C25.5169 95.0911 23.8915 95.2813 22.9602 95.3696C22.2926 95.4327 21.5798 95.4161 21.0889 95.1535C22.1409 94.4259 24.2039 94.3392 25.8392 94.4336Z" fill="white" fill-opacity="0.5"/>
<path fill-rule="evenodd" clip-rule="evenodd" d="M158.924 95.3691C157.561 96.0275 155.163 95.3876 154.102 94.865C155.071 94.3181 157.927 94.8407 158.924 95.3691Z" fill="white" fill-opacity="0.5"/>
<path fill-rule="evenodd" clip-rule="evenodd" d="M7.84473 109.26C9.48983 107.986 11.6203 107.906 13.5307 107.461C19.5165 106.067 24.6327 103.458 30.3015 101.775C38.1047 99.4574 46.0593 97.4568 53.982 95.5846C54.4276 95.479 54.9884 95.5563 55.0617 96.1605C55.1968 97.2716 53.2137 97.4045 52.6862 97.5279C45.7035 99.1604 38.8988 100.839 31.9567 102.566C25.9156 104.069 20.7445 105.844 14.8262 107.532C13.905 107.795 12.9244 108.082 12.0192 108.396C10.6366 108.876 9.60555 109.535 7.84473 109.26Z" fill="white" fill-opacity="0.5"/>
<path fill-rule="evenodd" clip-rule="evenodd" d="M172.097 109.404C171.087 110.003 170.047 109.352 169.146 109.044C166.405 108.106 163.404 107.458 160.436 106.524C158.586 105.942 156.764 105.211 154.822 104.653C147.18 102.456 138.972 100.609 130.926 98.679C129.907 98.4347 128.992 98.2155 127.903 97.9595C126.76 97.6901 125.414 97.5387 125.384 96.8077C125.349 95.9798 126.326 96.0435 127.111 96.1598C128.97 96.4353 130.887 97.0777 132.798 97.5273C134.691 97.973 136.57 98.4864 138.412 98.9668C142.165 99.9462 145.933 100.828 149.496 101.918C154.736 103.521 159.53 105.999 165.187 107.316C166.113 107.531 167.063 107.809 167.994 108.036C169.563 108.419 171.094 108.592 172.097 109.404Z" fill="white" fill-opacity="0.5"/>
<path fill-rule="evenodd" clip-rule="evenodd" d="M43.1143 106.601C44.8031 105.414 47.0049 104.366 49.1607 103.218C50.1883 102.67 51.2397 102.094 52.2557 101.562C53.2431 101.045 54.437 100.242 55.3505 99.9787C55.8149 99.8448 56.4126 99.959 56.5022 100.338C56.7392 101.341 54.1994 102.161 53.6229 102.426C52.5235 102.93 51.3025 103.47 50.24 103.937C47.8353 104.995 45.8618 106.097 43.1143 106.601Z" fill="white" fill-opacity="0.5"/>
<path fill-rule="evenodd" clip-rule="evenodd" d="M136.972 106.956C133.363 105.942 130.176 104.531 126.895 102.925C126.194 102.582 124.062 101.821 123.944 101.198C123.804 100.462 124.375 100.402 124.448 100.406C125.495 100.471 126.961 101.398 127.831 101.846C128.895 102.393 129.895 102.95 130.926 103.502C133.193 104.715 135.319 105.724 136.972 106.956Z" fill="white" fill-opacity="0.5"/>
<path fill-rule="evenodd" clip-rule="evenodd" d="M121.713 104.872C123.349 105.093 124.918 106.175 126.247 106.959C132.257 110.504 138.467 113.741 144.313 117.324C145.49 118.045 146.632 118.834 147.768 119.555C148.879 120.261 150.186 120.745 150.935 121.859C148.217 120.94 145.768 119.348 143.234 117.972C140.756 116.626 138.301 115.233 135.821 113.797C132.202 111.703 128.465 109.754 124.664 107.607C123.691 107.058 121.455 106.104 121.497 105.088C121.538 104.984 121.609 104.912 121.713 104.872Z" fill="white" fill-opacity="0.5"/>
<path fill-rule="evenodd" clip-rule="evenodd" d="M29.2231 121.569C29.0956 121.28 29.4924 120.98 29.6549 120.849C30.3739 120.27 31.3384 119.787 32.1741 119.265C37.6951 115.819 43.6827 112.323 49.5204 108.973C50.6863 108.304 51.9537 107.704 53.1193 107.029C54.3212 106.334 55.4698 105.562 56.6459 105.086C56.8235 105.014 57.4834 104.828 57.5815 105.446C57.7419 106.451 55.0109 107.543 54.4148 107.893C50.8811 109.965 47.2179 111.794 43.6904 113.795C38.8308 116.553 34.3895 119.331 29.2231 121.569Z" fill="white" fill-opacity="0.5"/>
<path fill-rule="evenodd" clip-rule="evenodd" d="M40.4511 107.821C40.063 108.777 38.8402 108.897 37.7158 109.116C38.2181 108.321 39.4237 107.853 40.4511 107.821Z" fill="white" fill-opacity="0.5"/>
<path fill-rule="evenodd" clip-rule="evenodd" d="M142.443 109.335C141.329 109.345 139.972 108.974 139.491 108.111C140.702 108.008 141.679 108.752 142.443 109.335Z" fill="white" fill-opacity="0.5"/>
<path fill-rule="evenodd" clip-rule="evenodd" d="M25.3354 124.016C24.6158 125.042 23.3669 125.626 22.3127 126.319C21.2724 127.004 20.2306 128.026 18.7861 127.975C19.3918 127.104 20.5685 126.409 21.6651 125.744C22.7445 125.089 23.9138 124.354 24.9042 123.944C24.9673 123.918 25.1751 123.916 25.3354 124.016Z" fill="white" fill-opacity="0.5"/>
<path fill-rule="evenodd" clip-rule="evenodd" d="M161.157 128.264C158.728 127.855 156.527 125.772 154.679 124.449C154.679 124.377 154.679 124.305 154.679 124.233C154.737 124.219 154.75 124.161 154.822 124.161C156.497 124.839 158.333 126.031 159.861 127.04C160.35 127.363 161.016 127.655 161.157 128.264Z" fill="white" fill-opacity="0.5"/>
<path fill-rule="evenodd" clip-rule="evenodd" d="M25.9836 47.5074C25.8057 47.5166 25.8614 47.4194 25.9836 47.4354C35.8899 52.5036 45.5173 58.3223 54.9906 63.9901C55.6028 64.3567 56.3177 64.8294 56.9336 65.2858C57.4747 65.6866 58.439 66.1578 58.3011 67.0134C57.6037 67.8051 56.6803 66.8912 56.1417 66.5813C54.1029 65.4077 52.1608 64.0513 50.0956 62.8384C43.3179 58.8581 36.5264 54.7883 29.87 50.3864C29.3055 50.0127 28.6641 49.4566 27.999 49.0189C27.1719 48.4748 26.2954 48.2322 25.9836 47.5074Z" fill="white" fill-opacity="0.5"/>
<path fill-rule="evenodd" clip-rule="evenodd" d="M81.837 95.6583C82.1054 97.0122 81.2322 97.7675 80.7573 98.6096C80.6751 99.0272 81.3916 98.6465 81.4048 98.9694C81.3063 99.7342 80.5637 99.8558 79.8936 100.049C79.9032 103.028 79.2199 105.507 78.9577 108.614C78.9238 109.015 78.9124 109.462 78.9577 109.766C78.9894 109.98 79.1697 110.263 79.1734 110.486C79.1805 110.875 78.9481 111.251 78.9577 111.637C78.966 111.994 79.195 112.281 79.2454 112.645C79.4138 113.848 78.9266 115.169 78.6693 116.315C78.347 117.754 77.7739 119.148 78.0217 120.562C77.8647 120.861 77.5098 120.962 77.1581 121.066C77.2018 121.621 78.0494 121.939 78.1657 122.578C78.2519 123.052 77.9638 123.776 78.094 124.449C78.2476 125.243 78.9244 125.847 78.8856 126.536C78.8527 127.113 78.3716 127.585 78.2378 128.048C77.0851 128.405 75.4588 128.129 74.5668 127.76C74.4348 128.884 75.5853 131.29 74.4228 131.647C73.2234 132.014 71.7294 129.902 70.6802 129.847C69.6091 128.622 70.493 126.81 70.8962 125.456C70.8017 125.217 70.3305 125.271 70.1043 124.952C70.0203 124.834 70.1108 124.596 70.0326 124.377C69.8805 123.951 69.5924 123.86 69.6008 123.585C69.6121 123.195 69.9005 123.139 70.0326 122.793C69.9655 121.422 69.73 119.693 70.0326 118.403C69.9766 118.074 69.5441 118.123 69.4564 117.827C69.7559 117.336 69.313 116.916 69.2407 116.315C69.1332 115.423 69.642 114.631 68.8808 114.228C68.6765 112.709 69.694 111.404 69.0969 110.197C69.4915 106.671 68.4955 104.203 68.5211 100.84C68.2994 100.702 67.8104 100.831 67.6574 100.625C67.2071 101.393 67.2096 102.417 67.0095 103.432C66.8338 104.323 66.4823 105.239 66.362 106.167C66.2558 106.986 66.0819 107.977 66.1459 108.83C66.1825 109.311 66.4177 109.706 66.362 110.413C66.1847 112.666 65.6377 116.365 65.4263 118.619C65.3931 118.973 65.2444 119.284 65.2823 119.554C65.3454 120 66.0274 120.447 65.57 120.994C65.679 121.733 66.8495 121.712 66.7938 122.434C66.7236 123.349 64.4208 123.214 63.2672 123.153C62.9028 122.966 62.8846 122.432 62.4756 122.29C62.6039 121.878 62.868 121.775 62.6913 121.21C63.6682 120.649 63.5442 120.042 63.483 118.691C63.4463 117.878 63.4673 116.88 63.4116 116.1C63.2555 113.925 62.8458 111.318 62.9797 108.902C63.2158 108.778 63.2337 108.436 63.6273 108.47C63.4254 108 63.1536 107.6 62.8354 107.247C62.6735 108.141 62.695 108.894 62.6196 109.694C62.5458 110.479 62.2137 111.228 62.1875 112.141C62.1549 113.311 62.571 114.64 62.7637 115.884C62.8471 116.425 62.9453 117.087 63.0514 117.755C63.1539 118.402 63.39 119.232 63.2672 119.699C63.189 119.997 62.7683 120.172 62.6193 120.49C62.3771 121.009 62.5584 121.671 62.0435 121.93C61.0429 122.007 60.4128 121.271 60.3882 120.562C60.3654 119.916 61.0761 119.31 61.1078 118.619C61.1263 118.219 60.9339 118.203 60.82 117.828C60.7132 117.476 60.6729 117.013 60.5319 116.532C60.2866 115.696 60.1497 114.752 59.8841 113.724C59.7483 113.199 59.543 112.683 59.5243 112.285C59.4704 111.16 60.262 110.088 60.3159 108.974C60.3744 107.756 59.7345 106.596 59.596 105.376C59.563 105.085 59.6354 104.787 59.596 104.511C59.2805 102.291 57.5298 100.394 57.7246 98.1778C57.219 97.8912 56.6511 97.6675 56.3569 97.1704C56.2467 96.5105 56.5665 95.7506 56.5012 95.0827C56.4698 94.7648 56.2852 94.5724 56.2852 94.2911C56.2855 93.4087 56.8549 92.4007 56.9327 91.4121C56.95 91.1976 56.7893 90.9809 56.789 90.7645C56.789 90.2228 57.1288 89.6359 57.2208 89.0369C57.399 87.8827 57.2688 86.5513 57.3645 85.4383C57.4021 85.0013 57.5991 84.5725 57.6523 84.1429C57.8955 82.1943 57.4341 80.4569 58.0124 78.8161C58.6065 78.1239 59.6391 77.8533 60.4596 77.4486C60.7609 77.3002 61.3131 76.8392 61.2512 76.5132C61.1789 76.1325 60.3014 75.9651 60.0995 75.6493C59.1543 74.171 60.7289 71.3243 61.8271 70.3951C62.6233 70.5309 63.3057 70.2292 64.0582 70.4672C64.4137 70.5789 64.7384 71.176 65.0659 71.6906C65.3589 72.1507 65.719 72.5108 65.9295 72.9861C66.5602 74.408 66.5131 76.2901 66.2173 77.5206C66.663 77.8906 67.2893 78.0802 67.7291 78.4563C66.6857 77.3319 68.373 76.4698 69.2407 75.7933C70.0966 75.1258 70.887 74.7004 71.6161 74.4979C71.645 73.8549 72.019 73.5573 72.2637 73.1304C71.947 72.5188 72.055 71.4277 72.0479 70.3234C72.0436 69.6965 72.2028 68.9015 72.12 68.5238C72.0239 68.0865 71.4958 68.0446 71.6161 67.5879C71.8562 67.1092 72.457 67.2782 72.9116 67.1563C73.4043 67.024 73.8482 66.6125 74.3511 66.5805C75.0996 66.5322 75.5702 66.9 76.2944 67.2284C76.247 67.7424 76.9444 68.0932 77.086 68.6679C77.3243 69.6352 76.9525 72.0036 76.3661 72.2665C76.5493 72.758 76.1805 73.0002 76.4378 73.3465C76.6896 73.5985 77.1054 73.6863 77.2295 74.0661C77.9903 73.9796 78.7164 74.7312 79.3892 75.0737C79.9229 75.3458 80.6683 75.2501 81.0444 75.7216C81.4356 76.2113 81.351 77.2528 81.4045 78.0971C81.4368 78.6095 81.6492 79.1623 81.6923 79.7523C81.7933 81.1417 81.5972 82.6849 81.6923 84.2149C81.8148 86.1835 82.3026 88.0896 82.4839 89.6848C82.5849 90.5737 82.0567 91.4481 82.0521 92.2043C82.0453 93.401 82.5215 94.9054 81.837 95.6583ZM73.1997 68.5949C73.215 70.1637 73.1319 71.8297 73.4157 73.1295C73.6235 73.155 73.7669 73.3298 73.8472 73.3452C76.2772 73.8146 75.5179 69.2963 75.3588 67.947C74.3489 67.8732 73.6195 68.0794 73.1997 68.5949ZM61.8994 72.698C61.4476 74.0353 61.9853 75.3766 62.619 76.0805C62.6005 76.2304 62.3026 76.1005 62.2592 76.2248C62.4097 76.7268 62.2528 77.1183 61.9711 77.3763C62.4196 77.8598 62.5396 78.7856 61.8994 79.1759C61.7058 78.4818 61.2802 78.0198 60.82 77.5923C61.4516 78.3803 61.2638 80.0232 61.8994 80.6151C62.2454 80.5295 62.2971 80.1488 62.547 79.9675C62.5187 78.74 62.9286 77.9497 63.5547 77.3763C63.563 77.2925 63.3799 76.7856 63.3386 76.5126C63.1872 76.3763 62.7412 76.5342 62.7631 76.2248C64.1955 75.9368 64.6815 73.2511 63.9145 71.9064C63.2823 71.9774 62.9222 72.7931 61.8994 72.698ZM74.2797 74.2815C73.8035 74.1362 73.5333 73.0892 73.1279 73.3455C73.3702 74.4465 74.3043 74.8564 74.2797 76.2245C74.5308 76.1879 74.8229 76.1922 74.9993 76.0802C74.745 76.0469 74.7355 75.7684 74.6392 75.5767C74.8211 75.0864 75.1904 74.7838 75.3591 74.2812C75.0888 74.1199 74.7059 74.3692 74.2797 74.2815ZM72.0482 75.7927C71.682 75.6791 71.6906 75.1907 71.6881 74.713C70.9932 74.7844 70.7328 75.5991 70.2486 76.0802C69.6817 76.6444 68.8849 77.0263 68.449 77.664C69.1234 78.3569 69.1228 80.3288 68.3053 80.8311C68.1052 83.7261 67.7454 86.4614 67.2976 89.1083C68.0231 90.5229 67.032 92.5869 67.2976 94.2188C67.5759 94.2224 68.2111 94.0602 68.5931 94.2905C68.718 93.8156 68.8602 93.3582 69.0252 92.9233C67.7716 92.3434 68.6143 90.9224 69.4567 90.4758C68.5878 88.4891 68.5761 84.446 69.313 82.2706C69.3733 83.6042 69.6851 84.4362 69.7448 85.7975C69.8054 87.1755 69.8051 88.7664 70.1046 89.6125C70.2413 89.9978 70.7639 90.4527 70.6808 90.8362C70.5493 91.4389 69.3407 91.2243 69.3853 91.9162C70.0184 92.5801 71.0119 92.3037 71.9045 92.2757C73.2698 92.2329 74.653 93.2283 75.9352 92.7799C75.8484 92.8913 75.7053 93.0603 75.8635 93.2114C76.195 93.2071 76.5019 93.1784 76.7272 93.0673C76.5431 92.9879 76.5859 92.6811 76.5831 92.4198C76.8915 91.6725 77.7868 91.5121 78.6702 91.3401C78.6594 90.3853 79.0278 89.445 79.1023 88.4611C79.1568 87.7445 79.2513 86.6778 79.0303 86.0139C78.953 85.7818 78.6437 85.6245 78.5988 85.366C78.4784 84.6809 78.9703 83.7471 79.1743 83.1349C79.4221 82.3919 79.5511 81.6511 79.966 81.2633C80.1952 82.5547 79.4209 84.1706 79.5344 85.0782C79.5705 85.3678 79.8591 85.6538 79.8945 85.9422C79.9167 86.1271 79.8355 86.3906 79.8222 86.5897C79.5649 90.4613 79.5837 95.3492 79.5344 98.97C79.7634 98.8869 80.0149 98.8263 80.1103 98.6102C79.2128 97.4428 81.2094 97.0808 81.4778 96.163C80.7936 96.0384 79.6828 96.0134 80.038 95.083C80.3338 94.9171 80.6615 94.9316 81.0453 95.0113C81.6597 94.1794 81.1223 93.2286 81.1897 92.2043C81.2417 91.409 81.7751 90.7051 81.7652 89.9729C81.7609 89.6436 81.563 89.153 81.4775 88.7495C81.1851 87.3654 80.8585 86.1235 80.7576 84.7908C80.5778 82.4236 80.8761 80.2057 81.1174 77.8087C80.2026 76.564 79.1235 75.4843 77.2304 75.2175C77.0125 75.3114 77.0617 75.6727 76.6551 75.5776C76.3372 75.5354 76.4049 75.1076 76.151 75.0017C75.9115 75.2569 76.002 75.5597 75.9349 75.8654C75.7084 76.0226 75.4822 76.1802 75.0713 76.1534C75.3745 76.5625 75.0633 77.126 74.9993 77.5932C75.4532 79.3873 75.1818 82.64 75.0713 85.1509C75.0516 85.5894 75.0898 86.0394 75.0713 86.4463C75.0359 87.2281 75.1701 88.3456 74.6392 88.8218C73.9245 88.5617 74.5302 87.4066 74.3514 86.5904C73.4065 85.7695 73.5493 83.7277 73.6315 81.9121C73.7103 80.1802 73.6262 78.3759 74.1356 77.3055C74.1018 76.8832 73.5561 76.9731 73.488 76.5856C73.7943 75.7056 73.1144 75.0756 72.7681 74.4262C72.3536 74.7069 72.7589 75.8075 72.0482 75.7927ZM63.7707 80.3273C64.1155 79.9829 64.6821 79.2319 64.4186 78.7437C64.004 78.737 64.0348 79.1756 63.699 79.2473C63.4565 78.9623 63.4032 78.4871 63.1232 78.2399C63.2641 79.0106 63.1552 80.0312 63.7707 80.3273ZM62.8351 81.4787C63.1078 81.1882 63.0105 80.1346 62.8351 79.8234C63.0084 80.4655 62.4368 81.0878 62.8351 81.4787ZM60.0281 80.7591C60.2091 80.7003 60.1287 80.3799 60.2439 80.2553C60.1235 80.1595 60.0029 80.0644 59.7403 80.1112C59.7351 80.4282 59.776 80.6994 60.0281 80.7591ZM60.4599 81.623C60.7526 81.5892 60.7477 80.8754 60.5319 80.7591C60.483 81.022 60.4313 81.2826 60.4599 81.623ZM58.3005 81.4067C58.4772 81.3867 58.6323 80.9773 58.5166 80.9031C58.3916 81.0186 58.2543 81.1211 58.3005 81.4067ZM59.5243 81.7668C59.4015 82.6357 58.8361 83.3709 58.9481 84.286C58.9798 84.5427 59.1734 84.7738 59.2362 85.0059C59.4076 85.6393 59.4633 86.269 59.74 86.8055C59.2214 88.0625 58.8985 89.8987 58.7323 91.2677C59.2611 89.8532 59.6588 88.3075 60.0998 86.8055C59.8265 86.0708 59.3971 85.4928 59.3802 84.5024C59.4119 84.2463 59.672 84.218 59.812 84.0702C59.4162 83.4183 59.8804 82.1731 59.74 81.5513C59.644 81.5513 59.548 81.5513 59.4519 81.5513C59.4492 81.6498 59.4864 81.7086 59.5243 81.7668ZM60.8917 83.8542C61.0798 83.2583 61.6455 82.094 60.9638 81.6951C60.9117 82.3393 60.7739 83.2795 60.8917 83.8542ZM62.4753 93.139C63.0785 92.4718 62.7837 91.2502 62.8348 90.1163C62.8933 88.8316 62.9373 86.9178 62.691 85.8692C62.406 88.1056 62.2758 91.0366 62.4753 93.139ZM58.8767 92.7796C58.9392 92.477 58.6375 92.5389 58.5166 92.4194C58.5526 92.6232 58.7213 92.6946 58.8767 92.7796ZM59.8841 93.2111C59.5538 93.1683 59.2399 92.8759 59.0924 93.1394C59.86 93.3668 60.6464 93.9208 61.5393 93.7869C61.5196 93.1277 60.5129 93.2926 59.8841 93.2111ZM63.699 93.7869C64.6735 93.7534 65.7679 93.8408 66.0739 93.1394C65.1751 92.9661 64.5427 93.6666 63.699 93.7869ZM70.0329 93.4988C69.7648 93.903 69.6543 94.4641 69.313 94.7946C69.313 95.898 69.313 97.0017 69.313 98.1054C70.0498 96.7312 70.7999 95.3695 71.4724 93.9307C70.9519 93.8651 70.4564 93.4259 70.0329 93.4988ZM77.1584 93.7869C76.825 94.2898 76.4972 94.8291 76.151 95.3708C75.818 95.8912 75.3144 96.4268 75.287 97.026C75.3723 96.8952 75.6625 96.9694 75.7909 96.882C76.2002 95.4677 77.3221 94.7669 78.022 93.6432C78.0069 93.5623 77.9426 93.5312 77.8783 93.4991C77.7044 93.661 77.4646 93.7568 77.1584 93.7869ZM75.287 93.8586C73.2083 97.018 70.7365 100.426 70.1046 105.015C69.9175 105.105 69.7876 105.462 70.0329 105.591C71.3243 102.311 72.8774 99.1245 74.7112 96.4499C75.3246 95.5554 76.0239 94.7075 76.5108 93.7869C76.0768 93.7848 75.7699 93.9097 75.287 93.8586ZM74.2797 94.2188C74.5247 94.224 74.5474 94.007 74.6392 93.8586C74.5191 93.8586 74.3997 93.8586 74.2797 93.8586C74.2797 93.9787 74.2797 94.0987 74.2797 94.2188ZM77.5905 95.2264C77.7361 94.7965 78.1728 94.6567 78.1663 94.075C77.8262 94.264 77.5003 94.8469 77.5905 95.2264ZM71.9762 94.2188C71.1067 96.1088 69.8085 97.5696 69.4567 99.9771C69.995 99.2673 70.2779 98.303 70.8245 97.6016C70.5989 99.0411 69.473 100.518 69.385 102.064C69.3604 102.494 69.4173 103.294 69.7448 103.648C70.5644 100.005 72.3856 97.3637 74.0636 94.5786C73.256 94.8134 72.7958 94.1991 71.9762 94.2188ZM67.9455 95.8743C68.1043 95.9796 68.2545 96.0928 68.5214 96.0901C68.6328 95.9854 68.5848 95.7217 68.5931 95.5142C68.3773 95.5142 68.1613 95.5142 67.9455 95.5142C67.9455 95.6342 67.9455 95.7543 67.9455 95.8743ZM57.0771 97.026C57.3175 97.0734 57.4289 97.2495 57.6526 97.3138C57.5323 96.8589 57.4258 96.3892 57.4369 95.8023C57.2999 95.7712 57.2562 95.6472 57.0774 95.6583C56.9946 95.9731 57.1279 96.5213 57.0771 97.026ZM62.4033 99.5452C62.4854 101.28 62.9293 103.016 63.1228 104.584C62.8412 102.195 63.1389 99.7373 63.0508 97.3858C62.8477 97.1809 62.6993 96.9217 62.3312 96.8817C62.7077 97.6598 62.3586 98.6019 62.4033 99.5452ZM67.5857 98.8253C67.919 98.8955 68.3096 99.2254 68.5214 99.1851C68.4783 98.5323 68.6106 97.7044 68.4493 97.1701C67.9461 97.2169 67.6023 97.1058 67.1539 97.0977C67.3521 97.6194 67.4666 98.2242 67.5857 98.8253ZM75.215 97.9617C75.5277 97.9863 75.593 97.7632 75.6468 97.5299C75.4129 97.584 75.1904 97.649 75.215 97.9617ZM69.8888 108.326C70.3942 107.937 70.7762 107.341 71.1846 106.742C72.0812 105.43 72.7922 104.15 73.6318 102.712C74.4486 101.313 75.1125 99.9974 74.4957 98.1775C74.4237 98.1775 74.3517 98.1775 74.28 98.1775C72.7377 101.483 70.6863 104.277 69.8888 108.326ZM75.5751 101.777C75.6752 101.493 75.9322 101.366 75.9349 100.985C75.5182 100.906 75.4646 101.567 75.5751 101.777ZM73.9913 103.36C73.2307 104.644 72.5995 106.055 71.8322 107.678C71.0335 109.369 69.678 111.273 70.1046 113.365C71.3163 111.886 72.9651 109.686 73.9196 107.75C74.5607 106.451 74.3803 104.927 74.2076 103.288C74.2033 103.244 74.1969 103.203 74.1359 103.216C74.1347 103.311 74.0094 103.282 73.9913 103.36ZM70.0329 109.262C70.4869 109.339 70.7205 108.485 70.5364 108.398C70.4739 108.791 70.0809 108.854 70.0329 109.262ZM72.5518 113.724C73.0969 112.899 75.4289 110.278 73.3434 109.91C72.6503 110.888 72.2101 112.037 71.6881 113.221C71.2234 114.274 70.5152 115.431 70.6084 116.676C71.2911 115.963 71.7595 114.925 72.5518 113.724ZM77.3741 110.845C77.645 110.66 77.886 110.446 77.9503 110.054C77.8783 110.054 77.8059 110.054 77.7342 110.054C77.624 110.327 77.4446 110.531 77.3741 110.845ZM71.1843 119.195C71.7472 118.617 72.1827 117.793 72.6958 116.963C73.3489 115.909 74.2689 114.807 73.8475 113.293C72.7718 115.072 71.7457 116.901 71.1843 119.195ZM70.3927 114.444C70.522 114.261 70.6158 114.043 70.6808 113.797C70.4068 113.79 70.2043 114.228 70.3927 114.444ZM75.287 115.452C75.4009 115.206 75.568 115.013 75.6468 114.732C75.3067 114.707 75.0802 115.17 75.287 115.452ZM71.6881 119.771C71.5638 120.102 71.2335 120.227 71.3283 120.778C71.348 121.031 71.5964 120.597 71.6161 120.85C71.6534 121.247 71.5746 121.529 71.5441 121.858C72.6758 120.854 73.195 119.238 74.1353 118.043C74.1245 117.441 74.4148 116.458 73.991 116.099C73.3406 117.44 73.168 119.259 71.6881 119.771ZM74.3514 120.85C74.6152 120.387 74.9075 119.291 74.5671 118.691C74.2363 119.201 74.1061 120.165 74.3514 120.85ZM72.6958 123.514C73.163 122.444 74.2483 121.611 73.8475 119.915C73.4884 121.091 72.7087 122.23 72.6958 123.514ZM70.9685 123.226C71.2819 123.145 71.3166 123.537 71.7602 123.514C71.6629 123.196 72.0747 123.018 71.8322 122.794C71.7399 123.134 70.9941 122.819 70.9685 123.226ZM73.5598 123.514C73.6558 123.514 73.7515 123.514 73.8475 123.514C73.858 123.335 73.8611 123.164 73.7038 123.153C73.6727 123.29 73.5487 123.334 73.5598 123.514ZM74.1356 125.169C74.1741 125.514 74.151 125.921 74.4234 126.033C74.4179 125.475 74.8254 125.331 74.8555 124.809C74.468 124.782 74.5074 125.181 74.1356 125.169ZM71.6881 125.457C71.557 125.807 71.2896 126.4 71.4724 126.824C71.7149 126.299 72.2049 126.022 72.408 125.457C72.2129 125.283 72.0085 125.536 71.6881 125.457ZM72.408 126.465C72.8706 126.16 73.1233 125.644 73.7038 125.457C72.9661 125.209 72.4551 125.784 72.408 126.465ZM74.5671 127.112C74.6075 127.008 74.6795 126.936 74.7829 126.896C74.7007 126.643 74.5995 126.408 74.4231 126.249C74.4477 126.56 74.3412 127.003 74.5671 127.112ZM73.9913 130.567C74.0334 130.309 73.7786 130.348 73.5598 130.351C73.5785 130.557 73.8842 130.666 73.9913 130.567Z" fill="white" fill-opacity="0.5"/>
<path fill-rule="evenodd" clip-rule="evenodd" d="M117.754 71.9045C118.404 72.3098 118.515 73.2556 119.122 73.7041C120.543 74.4769 123.745 74.6388 122.721 76.9429C123.16 78.0244 122.699 79.2519 123.009 80.3257C123.098 80.6341 123.402 80.8394 123.513 81.1173C123.763 81.7434 123.771 82.6125 123.873 83.3488C123.975 84.0877 124.253 84.8258 124.304 85.4358C124.327 85.7015 124.208 85.9658 124.233 86.2275C124.265 86.5866 124.496 86.9132 124.448 87.3075C124.403 87.674 123.997 88.261 123.729 88.747C122.97 90.1191 122.36 91.601 121.641 92.9934C121.092 96.3092 120.833 100.189 120.562 103.718C120.493 104.612 120.465 105.944 120.705 106.669C120.904 107.267 121.333 107.417 121.21 108.324C121.077 109.297 120.523 110.177 120.418 111.276C120.393 111.533 120.45 111.799 120.418 112.067C120.086 114.82 118.597 117.635 118.618 120.057C118.622 120.401 118.701 120.945 118.834 121.281C119.13 122.025 120.252 122.584 119.122 123.296C119.376 123.909 120.366 124.377 119.842 125.167C119.49 125.698 114.77 125.889 114.588 124.808C114.504 124.308 114.935 123.87 114.948 123.656C114.982 123.071 114.517 122.755 114.876 121.928C114.415 121.832 114.5 122.451 114.012 122.648C113.328 122.925 112.034 122.712 111.709 122.289C110.87 121.197 112.617 120.438 112.213 118.906C112.266 118.559 112.616 118.957 112.789 118.761C112.801 118.555 112.488 118.031 112.789 117.682C111.871 117.497 111.468 116.47 112.357 115.954C111.924 115.519 112.14 114.9 111.997 114.299C111.923 113.99 111.65 113.76 111.565 113.435C111.41 112.84 111.242 111.326 111.277 110.628C111.302 110.14 111.559 109.827 111.565 109.476C111.574 108.978 111.204 108.777 111.061 108.181C110.989 107.877 111.096 107.516 111.061 107.245C110.912 106.094 110.309 105.151 109.982 104.15C109.642 104.622 109.675 105.232 109.406 105.734C109.286 105.958 109.015 106.081 108.902 106.309C108.587 106.95 108.434 107.85 108.182 108.613C107.935 109.363 107.61 110.194 107.535 110.916C107.444 111.784 107.889 112.534 107.966 113.507C108.083 114.976 107.656 116.709 107.462 118.329C107.228 120.286 106.952 121.943 106.815 124.016C106.853 124.361 107.282 124.317 107.318 124.663C107.289 125.858 107.763 126.529 107.463 127.471C107.491 127.778 107.898 127.707 107.823 128.118C107.338 129.085 105.75 127.828 105.807 126.822C105.996 126.556 106.292 126.395 106.743 126.391C106.764 126.01 106.557 125.858 106.599 125.455C106.168 125.608 105.583 125.6 105.375 125.023C104.771 126.371 106.329 127.839 106.095 129.558C106.055 129.85 105.394 131.647 104.944 131.717C104.367 131.806 104.013 130.871 103.576 130.422C103.406 130.247 102.79 129.964 102.712 129.63C102.602 129.159 102.984 127.443 103.072 126.751C103.276 125.149 103.626 124.109 103.503 122.289C103.286 119.037 102.148 115.205 101.777 111.636C101.544 109.407 102.226 107.447 101.705 105.446C101.64 105.197 101.426 105.043 101.345 104.798C100.963 103.651 100.93 102.297 100.697 101.128C100.448 99.8813 100.22 98.7259 99.9052 97.6003C99.1247 97.2316 98.5633 95.8974 99.1139 94.8651C98.7898 92.4979 98.723 89.6605 99.0419 86.8756C99.1419 85.9972 99.4718 85.1074 99.6177 84.2127C99.7762 83.2377 99.9508 82.3275 100.121 81.4771C100.324 80.4645 99.795 78.7597 99.9775 77.7348C100.182 76.584 101.592 75.9595 102.497 75.6474C102.656 75.5052 102.356 75.1236 102.569 74.9278C103.134 74.1528 103.162 73.0981 103.36 71.7607C103.432 71.2809 103.66 70.8023 103.72 70.3212C103.764 69.9738 103.661 69.5973 103.72 69.3136C104.033 67.8156 105.441 67.3804 107.391 67.4419C108.027 67.7146 108.241 68.5761 108.615 69.2415C108.727 69.4404 109.061 69.6971 109.119 69.9611C109.19 70.2889 109.001 70.7004 108.975 71.0408C108.853 72.6204 109.099 74.4338 109.191 75.7912C109.878 75.6834 110.364 75.2676 110.99 74.9275C111.249 74.7869 111.609 74.7823 111.854 74.6391C112.578 74.2178 112.961 73.3166 114.085 73.488C114.032 73.1802 114.188 72.8189 114.373 72.5521C114.003 71.97 113.99 71.1224 113.869 70.0329C113.805 69.4548 113.643 68.9602 113.725 68.5934C113.877 67.9128 114.557 67.5869 114.877 67.1539C115.188 67.0677 115.28 67.3893 115.453 67.2259C115.919 66.9886 116.558 66.4558 117.18 66.5063C117.766 66.5534 118.485 67.3376 118.547 67.9458C118.609 68.5349 118.187 69.1711 118.044 69.8174C117.88 70.5518 117.877 71.2135 117.754 71.9045ZM114.659 76.0069C113.779 78.222 111.726 79.6477 111.996 82.7726C112.89 81.3152 113.485 79.5587 114.948 78.6698C114.492 79.4962 114.076 80.3488 113.58 81.2611C112.98 82.3639 112.04 83.4303 112.284 84.9323C113.443 84.2198 113.525 82.43 114.804 81.8369C115.077 82.3149 114.643 82.8277 114.444 83.2044C113.713 84.5817 112.868 85.9098 112.5 87.5232C113.434 87.0388 113.757 85.3257 114.875 84.788C114.957 84.8985 115.083 84.9649 115.164 85.0757C114.682 86.2983 113.879 87.1985 113.508 88.5309C114.224 88.2868 114.273 87.3767 115.091 87.2351C115.777 87.7768 114.84 88.6088 114.659 89.1785C115.355 89.7937 116.521 89.3093 117.395 89.2502C118.26 89.1923 118.544 88.9206 118.979 89.0344C118.984 88.6325 119.367 88.6072 119.554 88.3869C119.303 85.9631 119.842 82.3235 119.626 79.7495C119.598 79.4165 119.356 79.1343 119.41 78.8136C119.492 78.3214 120.33 77.6773 120.49 77.3741C119.778 79.712 120.789 82.3632 121.21 84.6436C121.606 84.6073 121.811 84.7621 121.785 85.1478C122.11 85.1351 122.444 85.1127 122.433 85.4358C122.334 86.1705 121.486 86.2576 121.21 86.9474C121.012 87.4404 121.118 88.0526 120.994 88.6026C120.81 89.4173 120.42 90.1298 120.346 90.9061C120.695 91.1717 120.449 91.5903 120.562 92.0575C120.689 92.0738 120.923 91.9851 120.85 92.2015C122.08 90.7205 122.755 88.6845 123.801 87.0191C123.599 86.6088 123.517 86.0403 123.729 85.5796C123.095 84.2838 123.517 82.8434 123.01 81.5489C122.896 81.2583 122.558 81.0475 122.434 80.7569C121.859 79.4101 122.505 78.0444 122.434 76.2227C122.083 75.7942 121.503 75.7749 120.922 75.5028C119.942 75.0445 118.911 74.1445 117.827 74.1356C118.205 74.5225 117.969 75.2498 117.827 75.7191C117.446 75.4766 117.291 75.0079 117.18 74.4954C117.063 74.3233 116.545 74.5536 116.532 74.2796C116.272 73.9398 116.588 73.6478 116.604 73.1996C116.573 72.9663 116.12 73.1556 116.1 72.9115C117.315 72.3892 117.294 70.3622 117.323 68.8811C116.674 68.4647 115.545 68.4896 114.66 68.6651C114.38 70.3696 114.333 72.6622 115.956 73.0556C115.983 73.3945 115.393 73.1162 115.38 73.4154C116.459 74.1036 115.616 75.6988 114.659 76.0069ZM107.03 69.3853C106.972 69.132 106.767 69.0246 106.454 69.0258C106.499 69.2917 106.677 69.4265 107.03 69.3853ZM104.799 72.9842C104.967 73.3114 105.398 73.5031 105.518 73.8478C105.721 74.4271 105.362 74.9669 105.159 75.3593C104.989 75.5295 104.805 75.348 104.583 75.3593C103.732 76.6462 100.48 76.4403 100.84 78.3824C100.874 77.7259 101.797 78.2029 101.992 78.4541C102.052 77.9844 101.657 77.5908 101.92 77.1586C102.276 78.4815 103.237 79.2002 103.791 80.3257C103.688 80.343 103.67 80.4442 103.575 80.4695C102.916 80.3125 102.791 79.6218 102.279 79.318C101.753 80.7154 103.256 81.1817 103.503 82.2691C102.629 82.2315 102.529 81.4199 101.992 81.0453C101.556 81.7443 102.454 81.9711 102.496 82.6289C102.279 82.916 101.885 82.2106 101.848 82.5571C101.946 83.8508 102.311 84.8769 102.568 86.012C102.502 86.2099 102.251 86.2232 102.064 86.3001C101.949 86.7128 102.003 87.2945 101.992 87.8113C101.174 88.0917 101.506 89.7602 100.624 89.7546C100.964 90.9461 100.029 92.0292 100.409 93.4973C101.324 94.4625 103.233 94.6025 104.871 94.1452C105.162 93.6441 105.144 92.834 105.663 92.5616C106.108 93.0338 106.006 93.8029 106.527 94.1452C107.603 94.8528 109.285 93.8709 110.125 93.5693C110.024 91.8242 109.44 89.8642 108.974 88.4589C108.873 88.1557 108.922 87.8033 108.83 87.5235C108.752 87.2893 108.537 87.1148 108.47 86.8756C108.016 85.2509 109.359 83.8846 109.261 82.1973C109.216 81.4156 109.02 80.7677 109.261 79.8942C109.667 79.6283 109.35 78.6388 110.197 78.8142C110.165 79.3134 109.65 79.6935 109.622 80.182C109.589 80.7391 109.999 81.3131 110.053 81.9093C110.204 83.5504 109.311 84.595 109.261 85.7242C109.239 86.2321 109.396 87.4835 109.549 87.8113C109.592 87.9027 109.796 87.9926 109.838 88.0997C110.398 89.538 110.61 91.1354 110.917 92.922C112.625 91.4798 111.294 88.1806 111.061 86.2281C110.721 83.3765 111.523 80.6264 111.061 78.1666C110.118 77.6699 109.71 76.6388 108.398 76.5114C108.237 76.2648 108.273 75.821 107.751 75.9355C107.705 76.6293 108.138 77.2263 108.11 77.6628C107.725 77.4239 107.646 76.8792 107.246 76.6551C106.946 76.9072 106.934 77.4464 106.383 77.4467C106.155 76.6357 106.761 76.0565 107.102 75.5757C106.781 75.2113 106.588 74.8056 106.743 74.1362C106.638 74.0171 106.357 74.2224 106.31 73.9201C106.65 73.2344 107.623 72.6555 107.678 71.8328C107.714 71.3028 107.221 70.8032 107.318 70.1052C106.196 70.2437 105.935 69.5213 105.231 69.2415C105.224 69.3545 105.241 69.4912 105.087 69.4573C105.055 69.3213 105.185 69.0236 104.943 69.0975C104.349 69.9405 104.222 71.8626 104.799 72.9842ZM107.318 73.6318C107.485 73.6548 107.594 73.6201 107.678 73.5597C107.667 73.4751 107.69 73.3557 107.606 73.344C107.54 73.4708 107.341 73.4628 107.318 73.6318ZM113.724 74.6394C113.177 76.131 111.358 77.0912 112.14 79.246C112.867 78.1011 113.442 76.8053 114.515 76.0072C114.3 75.2735 114.666 74.858 114.803 74.2803C114.315 74.0057 114.183 74.6502 113.724 74.6394ZM113.148 74.9278C113.405 74.8484 113.573 74.6807 113.652 74.4237C113.361 74.2255 112.942 74.6139 113.148 74.9278ZM111.277 76.151C111.597 76.0872 111.641 75.7475 111.852 75.5754C111.438 75.5443 111.342 75.8324 111.277 76.151ZM111.133 77.0869C111.08 77.2833 111.276 77.2319 111.277 77.3747C111.507 77.3652 111.593 77.2116 111.564 76.9432C111.296 76.8656 111.36 77.1214 111.133 77.0869ZM100.48 81.3334C100.552 81.3334 100.624 81.3334 100.696 81.3334C100.759 81.1026 100.585 81.1081 100.48 81.0453C100.48 81.1414 100.48 81.2374 100.48 81.3334ZM101.344 86.5158C101.252 85.5519 100.963 84.7852 100.624 84.0684C100.666 85.0825 100.901 85.9027 101.344 86.5158ZM120.346 87.7393C120.554 86.8267 120.929 85.6319 120.418 84.7883C120.348 85.6784 120.262 86.9354 120.346 87.7393ZM100.984 88.819C100.89 87.6657 100.476 86.8319 100.264 85.7959C100.18 85.807 100.06 85.7833 100.048 85.8677C100.337 86.8747 100.353 88.1542 100.984 88.819ZM100.192 90.3305C100.212 89.943 100.478 89.8002 100.624 89.5389C100.15 89.0286 100.027 88.1683 99.6882 87.5235C99.4968 88.582 99.4814 90.0747 100.192 90.3305ZM99.6885 92.4179C99.8061 91.7112 99.9655 90.8488 99.4004 90.5466C99.4845 91.1818 99.1819 92.2046 99.6885 92.4179ZM118.69 93.9294C119.183 93.6069 119.521 93.1286 119.842 92.6336C119.502 92.1572 119.403 91.441 118.834 91.1941C117.907 91.7589 118.464 92.9864 118.69 93.9294ZM117.107 93.3539C116.22 94.6025 115.211 95.7281 114.587 97.2402C114.944 97.6994 115.416 98.0429 115.811 98.464C116.533 97.1953 117.26 95.93 118.114 94.7934C117.958 94.1578 117.938 93.3862 117.826 92.706C117.64 92.975 117.479 93.2701 117.107 93.3539ZM99.6165 93.7134C99.6682 93.3259 99.5426 93.1156 99.4004 92.922C99.4537 93.204 99.2487 93.7451 99.6165 93.7134ZM111.133 94.505C111.498 94.3184 111.704 93.9728 111.708 93.4256C111.529 93.3649 111.323 93.3311 111.061 93.3539C111.19 93.7903 110.997 94.1504 111.133 94.505ZM119.122 94.577C119.472 94.7786 119.584 95.2184 119.914 95.4409C119.846 94.6053 120.52 93.991 120.202 93.3539C119.69 93.6099 119.43 94.1175 119.122 94.577ZM109.621 102.063C110.125 99.6551 110.831 97.2587 110.629 94.3615C110.613 94.3052 110.569 94.2778 110.485 94.2895C110.11 96.7459 109.616 99.4667 109.621 102.063ZM101.776 95.2966C101.171 95.8838 101.348 97.271 101.488 98.2479C102.006 97.3507 102.175 96.1039 102.568 95.0808C102.315 94.9494 101.978 94.9035 101.704 94.7931C101.646 95.043 101.811 95.0697 101.776 95.2966ZM103.287 95.0808C102.783 96.6887 102.377 98.3938 102.136 100.263C102.934 98.95 102.841 96.7462 104.079 95.8728C104.474 96.2476 104.15 96.8715 104.007 97.3123C103.559 98.6957 102.974 100.393 103.143 102.135C103.66 100.486 104.067 98.5526 104.655 96.9525C104.83 96.476 104.927 95.7213 105.518 95.585C105.912 96.2636 105.285 97.0965 105.087 97.8878C104.861 98.7878 104.748 99.7243 104.583 100.623C105.407 99.0728 105.79 97.0796 106.598 95.5126C105.418 95.452 104.448 94.7207 103.287 95.0808ZM106.958 95.585C106.617 97.7395 105.596 99.5972 105.662 101.919C105.662 101.798 105.662 101.679 105.662 101.559C106.121 100.033 106.421 98.2291 106.958 96.8804C107.13 96.448 107.57 95.9515 107.318 95.513C107.144 95.4834 107.161 95.6444 106.958 95.585ZM118.258 95.6567C117.692 96.4908 117.123 97.4074 116.531 98.5357C115.868 99.8007 114.924 101.16 115.379 102.783C115.879 102.779 116.003 102.399 116.387 102.279C116.908 101.276 117.453 100.356 118.043 99.4717C118.635 98.5831 119.531 97.837 119.77 96.6647C119.201 96.2338 118.981 95.8758 118.258 95.6567ZM111.996 97.0962C112.159 96.5874 112.561 96.3172 112.716 95.8007C112.7 95.7447 112.656 95.7173 112.572 95.729C112.408 96.1648 111.837 96.5757 111.996 97.0962ZM113.58 96.0168C113.626 96.3787 113.875 96.5369 114.156 96.6647C114.203 96.4483 114.432 96.4135 114.372 96.0888C114.001 96.1821 113.768 95.8811 113.58 96.0168ZM111.996 99.6154C112.127 98.7419 114.003 97.4046 113.148 96.8084C112.797 97.729 112.026 98.6133 111.996 99.6154ZM114.156 98.7521C114.186 98.5468 114.591 98.2645 114.227 98.1042C114.149 98.2221 113.962 98.5988 114.156 98.7521ZM117.682 101.415C116.77 103.002 115.851 104.254 115.667 106.382C116.435 106.092 117.062 105.336 117.754 104.582C118.298 103.99 119.334 103.12 119.554 102.422C119.797 101.65 119.654 98.9044 119.626 98.3196C118.927 99.227 118.331 100.287 117.682 101.415ZM115.092 99.9032C115.215 99.5711 115.467 99.3673 115.523 98.9678C114.943 98.7976 114.945 99.5871 115.092 99.9032ZM112.5 101.055C112.846 100.555 113.523 100.022 113.436 99.3279C113.42 99.2716 113.376 99.2442 113.292 99.2559C113.082 99.9087 112.676 100.368 112.5 101.055ZM113.724 101.919C113.807 101.323 114.825 100.918 114.372 100.263C114.223 100.805 113.519 101.497 113.724 101.919ZM103.791 104.15C103.315 104.346 102.823 104.525 102.279 104.654C102.739 106.354 102.366 108.887 103.791 109.62C104.307 108.409 104.438 106.812 105.231 105.878C104.774 105.279 104.46 104.537 103.791 104.15ZM116.531 110.052C117.034 109.717 117.576 109.082 118.115 108.397C118.429 107.995 119.399 106.911 119.482 106.525C119.552 106.204 119.428 104.197 119.194 104.15C118.252 106.016 116.901 107.854 116.531 110.052ZM115.235 108.109C115.261 108.566 115.598 108.974 115.883 109.332C116.223 108.136 116.724 107.103 117.322 106.166C117.314 106.078 117.301 105.995 117.179 106.022C116.708 106.786 115.173 106.993 115.235 108.109ZM105.878 109.116C106.147 108.593 106.408 108.063 106.598 107.461C106.257 107.131 105.936 106.78 105.591 106.453C105.717 107.311 105.513 108.498 105.878 109.116ZM107.75 107.029C108.012 107.075 108.033 106.88 108.038 106.669C107.835 106.683 107.731 106.795 107.75 107.029ZM107.678 107.461C107.531 107.626 107.201 107.608 107.03 107.749C106.266 109.144 105.563 110.984 105.951 113.291C106.627 111.401 107.12 109.326 107.822 107.461C107.774 107.461 107.726 107.461 107.678 107.461ZM119.554 107.605C118.628 109.054 117.522 110.707 117.107 112.427C117.982 110.919 119.572 109.753 120.058 107.965C119.841 107.893 119.88 107.566 119.554 107.605ZM103.647 110.628C102.96 110.654 103.094 109.693 102.351 109.62C102.596 113.245 103.179 116.399 103.719 119.697C103.898 120.789 104.346 121.943 104.439 122.864C104.516 123.638 104.189 124.356 104.439 125.095C104.772 121.073 104.898 116.928 105.086 112.788C105.139 111.62 105.086 110.416 105.158 109.261C105.177 108.958 105.529 108.179 105.014 108.181C104.294 108.783 104.604 110.592 103.647 110.628ZM116.027 112.067C116.36 111.825 116.498 111.387 116.603 110.916C116.338 111.06 116.119 110.922 115.811 110.916C115.906 111.277 115.913 111.725 116.027 112.067ZM117.539 114.874C118.064 113.812 119.529 112.937 119.05 111.347C118.589 112.518 117.694 113.638 117.539 114.874ZM105.662 118.042C106.04 116.788 106.306 115.423 106.886 114.371C106.927 116.19 106.005 117.803 106.094 119.193C107.048 117.95 107.26 115.625 107.174 113.579C106.852 113.753 106.72 113.688 106.383 113.579C106.053 114.93 105.543 116.482 105.662 118.042ZM116.315 114.803C116.349 114.573 116.541 114.501 116.531 114.227C116.439 114.223 116.431 114.134 116.315 114.155C116.117 114.29 116.177 114.625 116.315 114.803ZM116.963 117.538C116.942 117.343 117.264 117.126 117.035 116.962C116.922 117.071 116.643 117.428 116.963 117.538ZM106.238 121.281C106.249 120.857 106.577 120.373 106.382 119.985C106.369 120.424 105.81 121.069 106.238 121.281ZM105.518 120.849C105.461 120.607 105.903 120.235 105.518 120.129C105.431 120.238 105.377 120.749 105.518 120.849ZM118.043 124.304C118.246 124.378 118.342 124.378 118.546 124.304C118.506 124.128 118.485 123.933 118.258 123.943C118.236 124.113 118.008 124.078 118.043 124.304ZM104.007 127.902C103.929 128.514 103.582 128.974 103.647 129.27C103.765 129.802 104.351 129.836 105.014 129.846C104.93 128.275 104.582 126.968 104.295 125.599C103.876 126.147 104.127 126.952 104.007 127.902Z" fill="white" fill-opacity="0.5"/>
<path fill-rule="evenodd" clip-rule="evenodd" d="M92.9941 69.3114C93.3961 70.0368 92.325 70.3378 92.2025 70.8949C91.9904 71.8583 92.7737 72.456 93.4982 72.8382C93.7248 72.873 93.5521 72.5086 93.714 72.4788C94.5007 73.1091 95.6524 73.1183 96.737 73.7025C97.5527 74.1417 98.7422 74.9536 99.0402 75.5738C99.5074 76.547 99.247 80.518 98.7521 81.5479C98.5862 81.8932 98.1371 82.2216 97.9605 82.5553C98.7678 83.6153 98.0386 85.449 97.0962 85.8661C96.6992 85.9036 96.4182 85.8251 96.0888 85.7944C95.9694 86.4176 96.3452 86.546 96.3046 87.0898C95.9134 87.2748 95.3896 87.3262 95.0091 87.5219C95.0267 87.8162 95.2114 87.9433 95.2972 88.1698C94.5592 89.4382 95.5 90.6096 95.1532 92.2005C95.48 92.3354 95.2514 91.9143 95.513 91.9845C96.3357 92.4997 96.3585 93.2963 96.6647 94.6477C96.8823 95.6077 97.1571 96.5649 97.3126 97.6705C97.597 99.6935 97.4148 102.112 97.3126 104.364C97.2649 105.411 97.3181 106.458 97.2406 107.387C97.1221 108.806 96.3123 109.902 96.0168 110.842C96.3277 111.785 96.6573 112.595 96.3769 113.578C96.2947 113.865 95.9959 114.084 95.9451 114.369C95.8469 114.919 96.018 115.34 96.2329 115.737C96.1907 117.344 96.3489 118.798 96.2329 120.415C96.1621 121.408 95.6715 122.217 95.5853 123.294C95.4628 124.829 95.079 126.935 95.2255 128.117C95.3502 129.127 95.9242 130.194 96.2329 131.14C96.279 131.281 96.2418 131.509 96.3046 131.716C96.4256 132.109 96.7869 132.443 96.8087 132.723C96.9716 134.802 92.9233 133.604 91.4823 133.587C90.8704 132.943 91.586 132.571 91.9144 132.003C92.4244 131.122 92.5029 129.448 93.1378 128.836C92.8987 123.964 91.1837 119.142 92.4902 114.801C92.5869 114.48 92.8553 114.188 92.8497 113.865C92.8433 113.48 92.4656 113.141 92.4179 112.713C92.3785 112.358 92.593 111.936 92.5623 111.562C92.4995 110.81 91.794 110.025 91.5546 109.114C91.0686 107.268 91.0246 105.401 91.3388 103.213C91.682 104.525 91.8513 106.011 92.0584 107.459C92.9904 105.656 93.7084 103.639 95.1535 102.349C94.549 103.691 93.5004 105.325 92.8503 106.955C92.4068 108.068 92.0316 108.903 92.7786 109.906C93.7555 107.357 94.826 104.9 96.7373 103.284C96.6826 103.613 96.4019 103.717 96.2332 103.932C95.4357 106.195 93.4982 108.041 93.4982 110.626C94.2471 110.251 94.4819 109.317 94.8654 108.611C95.2643 107.877 95.769 107.217 96.1612 106.523C96.3147 106.324 96.5533 106.656 96.593 106.379C96.8752 104.902 96.8066 103.383 96.737 101.845C96.7093 101.235 96.8592 100.544 96.737 99.9013C96.6902 99.6566 96.4502 99.4476 96.3772 99.1817C96.0485 97.9832 96.5742 96.4723 96.0891 95.2947C94.0701 96.9706 92.9535 99.5492 91.4826 101.773C91.4524 102.067 91.7196 102.064 91.6266 102.42C91.4355 102.814 90.9092 103.063 90.4752 102.996C89.8095 105.57 88.9347 107.934 87.7399 109.978C87.6559 110.299 88.2798 110.479 88.3875 110.842C88.4269 111.889 88.2822 112.752 87.8834 113.362C88.3758 115.697 88.7048 118.718 88.1714 121.351C88.0086 122.155 87.6851 122.954 87.5956 123.798C87.5614 124.119 87.6414 124.426 87.5956 124.733C87.4389 125.779 86.8043 126.86 86.804 127.901C86.804 128.335 87.1007 128.666 86.948 129.124C87.3361 130.469 88.9557 133.229 86.948 133.803C85.4765 133.6 83.8034 134.247 82.8453 133.659C82.7462 133.326 82.8419 133.097 82.7015 132.723C83.6163 131.673 83.8929 130.134 84.3568 128.405C84.5941 127.521 85.0348 126.739 85.0764 125.885C85.1712 123.944 84.5695 122.007 84.2851 120.343C83.8942 118.06 84.3454 115.77 84.5728 113.505C83.9945 112.61 84.182 110.896 84.7889 110.194C83.8542 108.198 84.0659 104.831 84.213 101.485C84.3128 99.2149 84.4593 97.4252 84.9329 95.5828C85.1555 94.7176 85.7086 94.0306 85.3648 93.1356C85.8135 92.577 86.0908 91.8463 86.876 91.6241C86.4799 91.1507 86.6097 90.4831 87.02 90.1129C86.8135 89.7654 86.6898 89.208 86.7322 88.8171C86.7575 88.5853 86.9708 88.4524 87.02 88.2412C87.2345 87.3191 86.6033 86.6343 86.5165 85.7941C85.788 85.7614 85.6799 86.3493 84.8606 86.2259C84.5741 86.051 84.7175 85.594 84.6446 85.3619C82.8625 85.7183 82.2814 83.7331 83.2051 82.8427C81.9782 81.9895 82.9434 78.6603 82.9173 77.1564C82.9102 76.7523 82.6938 76.3097 82.7015 76.0047C82.752 73.8909 85.1136 73.8435 86.7322 73.0537C87.5623 72.649 88.3303 72.3279 89.0351 71.9023C89.0575 71.7401 88.8402 70.9583 89.0351 70.6065C89.1982 70.8213 89.3653 70.6545 89.1074 70.5348C89.5654 70.533 90.1902 70.9869 90.6906 71.1827C90.9532 70.725 91.537 70.5893 91.9864 70.319C92.1074 69.8069 92.3077 69.0217 92.9941 69.3114ZM91.2665 71.3267C91.4915 71.3119 91.795 71.3754 91.9144 71.2547C91.9144 71.1587 91.9144 71.063 91.9144 70.9669C91.5663 70.9546 91.4699 71.1941 91.2665 71.3267ZM88.9634 73.054C89.1985 73.086 89.5854 73.3399 89.827 73.126C89.4777 73.0435 89.4201 72.6696 89.3235 72.3344C89.0982 72.4692 88.8812 72.612 88.9634 73.054ZM91.6263 72.9103C91.8516 72.9435 91.9476 72.8478 91.9144 72.6222C91.7312 72.6311 91.6352 72.7271 91.6263 72.9103ZM93.4979 73.198C93.2452 73.3806 92.8599 73.1974 92.5623 73.198C91.8497 74.2439 89.2314 74.3642 88.4595 73.2701C87.6562 74.026 86.0702 73.9995 85.5085 74.9973C85.5913 75.2023 85.9157 75.166 86.0844 75.2851C86.1385 76.5024 86.2844 77.628 86.5879 78.5959C87.0622 78.9 87.5017 78.9933 88.0277 79.4596C88.3937 79.7843 88.7101 80.3632 89.1791 80.4673C89.5146 80.5417 89.8664 80.4103 90.1868 80.3955C91.794 80.3186 93.4293 80.8255 95.0091 80.7553C95.5216 79.0844 95.1649 76.5446 96.3769 75.5732C95.3757 74.7508 94.4339 73.8687 93.6414 72.8376C93.6524 73.0171 93.6047 73.1371 93.4979 73.198ZM84.6446 76.7969C85.1019 76.6785 85.2149 76.2159 85.3648 75.7896C85.2657 75.7927 85.2066 75.756 85.1487 75.7179C84.9828 76.0798 84.703 76.3273 84.6446 76.7969ZM83.9967 76.2934C83.9967 76.1971 83.9967 76.1014 83.9967 76.005C83.9006 76.005 83.8049 76.005 83.7089 76.005C83.6975 76.2085 83.9126 76.1854 83.9967 76.2934ZM98.2482 77.085C98.2045 76.9127 98.3387 76.5627 98.1765 76.5092C98.0799 76.6141 98.0291 77.0792 98.2482 77.085ZM96.3772 77.8046C96.3708 77.4125 96.8626 77.1417 96.593 76.7249C96.4948 77.0062 95.9688 77.4793 96.3772 77.8046ZM85.8683 80.7556C86.068 80.844 86.3392 80.8609 86.4439 81.0437C86.4749 81.3386 86.3771 81.5051 86.3001 81.6916C87.5042 81.7202 87.8344 80.8744 88.6753 80.5399C87.5279 79.8505 86.6411 79.7621 85.8683 80.7556ZM89.2511 81.1158C87.4281 82.0514 85.3802 82.763 85.4359 85.5783C86.6455 84.9941 87.912 84.3672 89.2511 83.8507C89.9067 83.598 90.6451 83.4435 91.2665 83.1311C91.8851 82.8199 92.3831 82.2635 92.9938 82.0511C93.2923 81.9477 93.7586 82.1053 93.9297 81.7633C92.4028 81.5153 90.8473 81.2949 89.2511 81.1158ZM97.0248 83.0588C96.0171 82.8101 95.7007 83.9338 96.0171 84.8584C96.243 84.9923 96.5037 85.0917 96.8087 85.1462C97.5237 84.7734 97.5677 83.6503 97.0248 83.0588ZM84.2851 83.2745C83.824 83.2308 83.7412 83.739 83.5652 84.2822C84.2429 85.5395 85.3571 83.3764 84.2851 83.2745ZM91.7703 85.0024C91.9015 85.1896 92.9744 84.7307 93.2819 84.8584C92.9929 85.0748 92.2446 85.2111 92.3462 85.5783C92.7189 85.5004 93.3394 85.0849 93.5696 85.5066C93.6614 85.8568 93.1507 85.8433 93.3539 86.0818C94.0205 86.1588 94.5675 86.3561 95.1532 86.514C95.1292 85.0264 94.4007 84.2434 93.8574 83.2749C92.7198 83.3026 92.0467 83.9 91.1948 84.2825C90.6974 84.5063 90.0363 84.4823 89.971 85.0024C90.9673 84.703 92.1292 84.1862 93.2819 84.2825C92.7355 84.4798 92.2308 84.7193 91.7703 85.0024ZM93.4259 87.8094C93.3967 87.4444 93.7405 87.4521 93.7857 87.1618C93.69 87.1618 93.594 87.1618 93.4979 87.1618C93.5635 87.4241 93.1855 87.6103 93.4259 87.8094ZM90.763 90.9765C91.305 89.8872 91.9172 88.8676 92.3465 87.6654C91.4549 88.0701 90.9732 89.8912 90.763 90.9765ZM88.7476 91.3363C88.8735 90.9097 89.4047 90.5074 89.3235 90.1129C88.9603 90.3024 88.5417 90.8171 88.7476 91.3363ZM87.4518 92.0562C87.8818 91.8383 87.8224 91.1313 88.0277 90.6884C88.0117 90.6327 87.9674 90.605 87.8834 90.6167C87.7362 91.0928 87.5531 91.5333 87.4518 92.0562ZM88.6753 92.7038C89.4109 92.9365 89.6645 91.3621 89.6109 91.0482C89.3724 91.6733 88.8772 92.0417 88.6753 92.7038ZM86.3001 94.1436C86.5137 93.8974 86.7122 93.5849 86.2281 93.4957C86.133 93.6114 86.0727 94.1297 86.3001 94.1436ZM84.7886 102.42C85.2007 102.233 85.2453 101.678 85.5802 101.413C85.016 102.749 84.483 104.402 84.7886 106.38C85.7627 104.666 86.426 102.26 87.8834 101.269C86.8948 103.447 85.6569 105.376 85.0764 107.963C85.4602 108.411 84.8594 109.075 85.6522 109.187C86.3783 107.298 87.112 105.416 88.3875 104.076C87.7615 106.017 86.5636 107.77 86.3004 109.835C86.362 109.657 86.8012 109.856 86.876 109.691C87.4131 108.453 88.5491 107.255 89.1077 105.732C89.3481 105.076 89.3185 104.243 89.4672 103.5C89.5334 103.172 89.7147 102.864 89.7553 102.565C89.9621 101.036 89.209 100.019 88.6753 98.7502C88.1582 97.5212 87.7307 96.3396 86.804 95.7988C86.6581 95.3689 86.2718 95.1793 86.1564 94.7194C86.0847 94.7194 86.0123 94.7194 85.9403 94.7194C84.8976 96.6274 85.1724 99.8536 84.7886 102.42ZM92.2022 96.8065C92.4983 96.0466 92.9839 95.4772 93.3539 94.7912C92.7602 95.0598 92.1089 96.4969 92.2022 96.8065ZM87.5956 95.2947C87.5956 95.1746 87.5956 95.0549 87.5956 94.9352C87.2875 94.909 87.2133 95.3405 87.5956 95.2947ZM88.3155 95.5108C88.3616 95.2984 88.7799 95.2196 88.6033 95.0069C88.2955 94.9189 88.1228 95.3369 88.3155 95.5108ZM91.5546 95.0072C90.8802 95.8681 90.3219 96.8459 90.0431 98.1023C90.9523 97.3085 91.473 96.1251 92.0584 95.0072C91.8907 95.0072 91.7223 95.0072 91.5546 95.0072ZM89.7553 95.2947C89.5355 96.0109 89.0809 96.4923 89.0351 97.3824C89.6827 96.9503 89.9867 96.1746 90.2585 95.367C90.0092 95.4249 89.9821 95.2596 89.7553 95.2947ZM88.5315 96.3747C88.6331 96.2793 88.839 95.9204 88.6756 95.7988C88.5322 95.9441 88.0883 96.258 88.5315 96.3747ZM89.8993 99.5418C89.8935 99.4162 89.915 99.3177 89.971 99.254C89.8747 99.254 89.779 99.254 89.6827 99.254C89.7134 99.3916 89.7094 99.5636 89.8993 99.5418ZM94.7934 110.482C95.1541 110.499 95.4289 110.068 95.657 109.762C96.2175 109.012 96.6718 108.124 96.4486 106.811C96.0205 108.115 95.0365 109.232 94.7934 110.482ZM85.0764 113.001C86.3515 113.873 88.0151 112.964 87.4518 111.202C86.3115 109.851 84.017 111.091 85.0764 113.001ZM93.5699 113.433C94.0612 113.858 95.0553 113.883 95.4413 113.362C96.1889 112.351 95.1978 110.834 94.0018 111.13C93.0267 111.371 92.8165 112.781 93.5699 113.433ZM86.948 113.937C86.2937 114.891 85.6938 116.281 85.5085 117.464C86.2041 116.527 86.82 115.131 87.0917 114.009C87.076 113.953 87.0314 113.925 86.948 113.937ZM93.1378 116.096C93.336 115.478 93.6906 115.017 93.9297 114.441C93.2194 113.989 93.1704 115.649 93.1378 116.096ZM85.0764 116.168C85.2543 115.626 85.6338 115.286 85.6522 114.585C85.5165 114.577 85.6024 114.347 85.4362 114.369C85.2244 114.83 84.8508 115.51 85.0764 116.168ZM93.5699 117.32C93.8931 116.655 94.5105 115.915 94.5053 115.161C94.4336 115.161 94.3616 115.161 94.2895 115.161C94.0907 115.874 93.4739 116.552 93.5699 117.32ZM86.3001 118.616C86.4783 117.526 87.4715 116.552 87.3078 115.593C87.0763 116.616 86.209 117.747 86.3001 118.616ZM94.0018 118.975C94.4634 118.142 95.1621 117.545 95.1532 116.24C94.5592 116.894 94.2615 118.227 94.0018 118.975ZM93.4259 123.726C93.457 123.959 93.3311 124.348 93.5699 124.373C93.5533 124.021 93.7894 123.921 93.7857 123.581C93.5641 123.528 93.6475 123.779 93.4259 123.726Z" fill="white" fill-opacity="0.5"/>
<path fill-rule="evenodd" clip-rule="evenodd" d="M116.53 74.6406C116.946 74.8487 116.914 75.5043 117.105 75.9364C117.057 76.2242 116.727 76.2303 116.674 76.5122C117.695 79.2204 117.551 83.7442 117.321 87.2366C117.21 87.3407 117.179 87.5263 116.89 87.4527C116.98 87.8593 117.356 88.6192 116.818 88.8202C115.954 88.34 116.435 86.5164 115.306 86.301C115.021 84.6288 115.478 82.7218 115.378 80.9745C115.326 80.0493 115.489 79.0933 115.594 78.1672C115.677 77.4365 115.916 76.6434 115.882 76.2242C115.861 75.9604 115.576 75.6754 115.594 75.4322C115.626 75.0241 116.058 74.6545 116.53 74.6406ZM116.242 80.1832C116.481 80.1118 116.28 79.4925 116.098 79.3916C116.17 79.6307 115.939 80.1746 116.242 80.1832ZM115.954 82.7741C116.127 82.8036 116.111 82.6427 116.314 82.7027C116.307 82.374 116.27 82.0751 116.098 81.9108C115.926 82.0567 115.773 82.5039 115.954 82.7741ZM116.386 86.373C116.232 85.8304 116.202 85.1649 115.882 84.7895C115.651 85.4407 115.984 86.1185 116.386 86.373Z" fill="white" fill-opacity="0.5"/>
</svg>
