<svg width="200" height="141" viewBox="0 0 200 141" fill="none" xmlns="http://www.w3.org/2000/svg">
<path d="M198.501 2.21484H2.06641V138.779H198.501V2.21484Z" fill="white"/>
<path d="M20.8066 73.0985C20.9741 73.0945 21.1406 73.1051 21.3063 73.1302C22.1245 73.2515 23.0052 73.8775 23.4872 74.5347C23.809 74.9733 23.9952 75.4742 23.9038 76.0203C23.7744 76.7924 23.1986 77.2139 22.6108 77.6476C22.387 77.7337 22.1298 77.8349 21.8867 77.8028C21.1954 77.7108 20.5483 77.0075 20.1995 76.4527C19.794 75.808 19.511 75.028 19.7267 74.266C19.892 73.6819 20.3019 73.3835 20.8066 73.0985Z" fill="black"/>
<path d="M21.4306 74.6641C21.7214 74.8464 22.1076 75.2057 22.247 75.5229C22.3324 75.7169 22.2613 75.7763 22.1976 75.9679C22.0863 75.9641 21.9347 75.9641 21.8279 75.9364C21.6192 75.8824 21.4346 75.6685 21.3527 75.4787C21.2235 75.1794 21.3294 74.9414 21.4306 74.6641Z" fill="white"/>
<path d="M95.43 14.8627C96.4421 14.7815 97.4624 15.1505 98.2364 15.8066C98.6076 16.1211 98.9705 16.5853 98.9711 17.0964C98.9715 17.3346 98.8757 17.5525 98.6921 17.7054C98.2073 18.1097 97.6568 18.0229 97.0808 17.9701C95.8159 19.2912 95.4855 21.1167 95.2881 22.865C96.0615 22.6662 96.7897 22.5469 97.5907 22.5557C100.367 22.5864 102.356 23.9901 104.227 25.8945C105.381 24.6955 106.565 23.7979 108.167 23.2835C109.544 22.8419 110.733 22.8256 112.039 23.4866C112.253 21.1783 112.895 18.469 114.372 16.6164C114.801 16.0781 115.336 15.5987 116.055 15.5481C117.055 15.4776 118.361 16.2912 119.087 16.9466C119.488 17.3085 119.764 17.6519 119.781 18.2029C119.706 18.3999 119.655 18.5113 119.493 18.6557C118.784 19.292 118.139 18.8445 117.351 18.8028C116.931 18.7805 116.544 18.9759 116.244 19.2579C115.085 20.3448 114.842 22.2763 114.805 23.7738C115.81 23.5091 116.713 23.3701 117.753 23.5065C121.62 24.0138 123.964 26.8477 126.179 29.7458C126.282 28.2112 126.561 26.7806 127.266 25.4002C127.923 24.1116 128.716 22.9009 130.15 22.44C131.239 22.7274 132.399 23.1582 133.133 24.0622C133.388 24.3749 133.634 24.8298 133.55 25.246C133.509 25.4498 133.365 25.5922 133.19 25.6934C132.442 26.1283 131.529 25.8352 130.753 25.6569C130.595 25.7929 130.449 25.9395 130.314 26.0971C129.205 27.3661 129.261 29.0599 129.375 30.6309C130.763 30.5008 131.885 30.5335 133.221 30.9523C136.408 31.9517 139.289 34.2632 140.821 37.2497C142.455 40.434 142.206 43.2105 141.155 46.4974C142.619 46.4978 147.376 46.0518 148.416 46.6543C148.65 46.927 148.746 47.1582 148.736 47.5241C148.723 48.0441 148.544 48.359 148.18 48.7121C144.978 51.8105 143.541 51.3652 139.371 51.2994C139.266 51.7121 139.119 52.11 138.819 52.4237C138.541 52.7143 138.196 52.8304 137.805 52.8858C136.323 53.0963 134.688 52.9436 133.186 52.9348L125.004 52.9139L85.5731 52.8565L75.0631 52.8169C71.8932 52.8161 68.6759 52.8798 65.5197 52.55C63.1315 52.3004 61.7845 51.7681 59.5517 51.2036C58.5736 50.9561 57.5366 50.8119 56.6037 50.4155C56.0311 50.172 55.4826 49.8117 55.0207 49.3958C54.4409 48.8736 54.0255 48.2542 54.0081 47.453C54.0042 47.2847 54.0438 47.0708 54.1834 46.9602C54.8197 46.4565 61.9509 46.6846 63.2671 46.6892C62.5599 45.0451 62.0592 43.4481 62.0727 41.6405C62.0753 41.4676 62.0819 41.2946 62.0929 41.1219C62.104 40.9492 62.1191 40.7769 62.1385 40.6049C62.158 40.433 62.1817 40.2617 62.2096 40.0908C62.2373 39.9201 62.2693 39.7502 62.3056 39.5808C62.3418 39.4115 62.382 39.2434 62.4263 39.0761C62.4707 38.9088 62.5193 38.7429 62.5717 38.578C62.6242 38.4131 62.6808 38.2497 62.7415 38.0876C62.8019 37.9255 62.8664 37.7648 62.9349 37.606C63.0032 37.4471 63.0755 37.2898 63.1516 37.1344C63.2277 36.9789 63.3074 36.8255 63.391 36.6741C63.4747 36.5224 63.5619 36.3732 63.6529 36.226C63.7439 36.0788 63.8383 35.9338 63.9363 35.7912C64.0343 35.6486 64.1357 35.5084 64.2407 35.3708C64.3456 35.2332 64.4538 35.0983 64.5653 34.9659C64.6768 34.8335 64.7915 34.7042 64.9093 34.5775C65.0272 34.4507 65.1479 34.3268 65.2719 34.2061C67.777 31.7912 71.1873 30.554 74.6455 30.6245C74.7024 29.5582 74.7504 28.4867 74.8789 27.4261C75.0679 25.8656 75.5756 23.7877 76.9133 22.7979C77.3541 22.4717 77.8721 22.3336 78.4157 22.4163C79.3858 22.5639 80.8941 23.5005 81.4408 24.3074C81.6451 24.6089 81.7939 25.0481 81.6826 25.4115C81.5832 25.736 81.3976 25.9698 81.0932 26.1247C80.301 26.5277 79.4057 26.2066 78.6214 25.9561C77.7052 27.4711 77.4732 29.033 77.4646 30.7796C78.2703 30.8205 79.0791 30.9591 79.8789 31.0664C80.0737 30.5038 80.2808 29.9515 80.5346 29.4126C81.8823 26.5541 84.6545 23.8521 87.6609 22.8003C89.1608 22.2757 90.5225 22.3243 91.9565 23.015C92.069 22.0291 92.2023 21.0363 92.4397 20.0719C92.8916 18.2356 93.7349 15.89 95.43 14.8627Z" fill="black"/>
<path d="M115.569 17.1328C116.004 17.1635 116.392 17.3204 116.801 17.4632C116.308 17.6831 115.862 17.8978 115.462 18.2728C114.08 19.569 113.818 21.3314 113.732 23.1233C113.729 23.4254 113.711 23.7134 113.673 24.0132L113.543 24.04L113.432 23.805L113.558 23.7419L113.43 23.7098C113.417 21.2957 114.169 19.0651 115.569 17.1328Z" fill="white"/>
<path d="M129.926 23.9492C130.198 24.0306 130.479 24.2167 130.732 24.3513C130.127 24.6674 129.599 24.9835 129.148 25.513C127.769 27.1348 127.931 29.2197 128.104 31.188L128.107 31.3546L127.904 31.3649C127.554 31.0566 127.512 30.6334 127.465 30.1779C127.231 27.9395 128.548 25.6003 129.926 23.9492Z" fill="white"/>
<path d="M77.8388 23.9688C78.5086 23.9886 79.3975 24.3397 79.8838 24.8063C79.6229 24.8593 79.2286 24.688 78.9535 24.6476C78.5297 24.5851 78.132 24.6494 77.7878 24.9167C76.6565 25.795 76.4677 28.3166 76.3538 29.6327C76.3646 30.3461 76.3721 31.054 76.3349 31.7666L76.258 31.7188C76.0545 31.0737 75.9836 30.4818 76.0363 29.8112C76.1833 27.9388 76.2907 25.2865 77.8388 23.9688Z" fill="white"/>
<path d="M95.6729 16.418C95.9832 16.4971 96.2903 16.6132 96.5944 16.7144C94.7706 18.2275 94.1584 20.7341 93.8686 22.9931C93.8437 23.1498 93.7987 23.2757 93.7451 23.4241L93.5912 23.4701C93.4496 23.2592 93.4659 23.0459 93.4615 22.8005C93.4605 22.737 93.4611 22.6736 93.4593 22.6101C93.4024 20.4959 94.4376 18.0906 95.6729 16.418Z" fill="white"/>
<path d="M122.254 51.1597L133.063 51.1217C134.262 51.1217 136.185 50.9399 137.289 51.1934C137.354 51.2083 137.419 51.2257 137.484 51.2418L137.286 51.1904L137.248 51.3808C135.145 51.5517 132.943 51.4191 130.826 51.4191L118.505 51.4211L81.4286 51.5019L71.535 51.5147C69.9495 51.5135 67.7021 51.7244 66.1912 51.3492L66.1289 51.242C67.2685 51.0203 69.1684 51.202 70.3817 51.2022L81.1201 51.2038L122.254 51.1597Z" fill="white"/>
<path d="M144.48 48.0503C145.191 48.0084 145.907 48.0064 146.619 47.9883C146.246 48.307 145.84 48.5669 145.425 48.8272C144.698 49.2837 144.092 49.6306 143.218 49.6812C141.002 49.8095 138.713 49.6868 136.489 49.6784L124.912 49.6928L87.9358 49.7294C82.3233 49.7193 76.711 49.7398 71.0986 49.791C67.3704 49.8167 62.2335 50.1851 58.7023 49.3711C57.8642 49.1797 57.1164 48.827 56.3633 48.4225L118.032 48.2211C126.841 48.1502 135.674 48.2801 144.48 48.0503Z" fill="white"/>
<path d="M109.993 24.5367C110.941 24.4923 111.446 25.432 112.361 25.5652C113.759 25.7686 115.308 25.3188 116.713 25.2226C119.366 25.041 121.8 26.8767 123.39 28.8192C123.937 29.4878 124.354 30.3169 125.02 30.872C125.046 30.8943 125.074 30.9154 125.102 30.9371L125.066 31.0066L124.495 30.9624C123.498 30.8785 122.594 31.1163 121.633 31.3352C120.706 29.8773 119.572 28.7417 118.133 27.7863C119.18 28.9618 119.94 30.3354 120.805 31.6447L119.494 32.2902C117.23 33.4619 115.596 35.2417 114.348 37.4323C112.15 36.6384 109.85 36.1801 107.568 35.7013C107.868 33.8272 107.668 32.5107 107.02 30.7322C107.238 29.8174 107.527 28.9548 107.846 28.0721C107.423 28.5539 107.037 29.0301 106.681 29.5642C106.216 28.6979 105.737 27.8387 105.246 26.9867C106.545 25.6277 108.123 24.7978 109.993 24.5367Z" fill="white"/>
<path d="M88.4747 24.2044C89.2616 24.1428 90.0501 24.2101 90.8362 24.2569C91.3331 24.6258 91.8326 24.9144 92.3807 25.1996C92.8279 25.1582 93.2798 25.0741 93.7289 25.0675C94.2975 25.0588 94.8926 25.1673 95.4552 25.0958L95.5937 24.7889C96.3091 24.2737 97.2374 24.145 98.1024 24.2012C100.096 24.3308 101.894 25.5304 103.162 27.01C105.189 29.3741 106.454 32.3197 106.198 35.4588C103.611 34.9603 101.037 35.0061 98.422 35.1563C95.1904 35.4128 92.3769 36.214 89.346 37.3172C88.9159 36.7173 88.5643 36.069 88.106 35.4861C86.3191 33.2148 83.8812 32.2427 81.1641 31.5816C81.2301 31.3801 81.303 31.1873 81.3914 30.9943C82.6909 28.159 85.5302 25.291 88.4747 24.2044Z" fill="white"/>
<path d="M98.375 26.1797C98.8152 26.3478 99.2704 26.7145 99.6162 27.0369C101.249 28.5595 101.741 31.0252 101.851 33.1583C101.395 32.5359 101.14 31.1158 100.833 30.3403C100.243 28.8465 99.3555 27.4442 98.375 26.1797Z" fill="black"/>
<path d="M95.2878 28.2617C95.3595 28.5503 95.4027 28.8452 95.4441 29.1394C95.6186 30.3814 96.2239 34.0094 95.5146 34.956C95.4617 34.87 95.4111 34.7829 95.3627 34.6943C94.529 33.1464 94.7807 29.8662 95.2878 28.2617Z" fill="black"/>
<path d="M131.248 32.1778C132.159 32.0977 133.563 32.85 134.393 33.232C136.785 34.3336 138.904 36.562 139.798 39.0516C140.725 41.6364 140.399 44.0777 139.263 46.5143C135.569 46.6436 131.87 46.58 128.173 46.6189C127.57 45.9578 127.021 45.2432 126.458 44.5478C123.39 41.2022 120.028 39.6027 115.949 37.9229C116.145 37.5897 116.359 37.2677 116.59 36.957C116.821 36.6465 117.067 36.3493 117.33 36.0651C117.592 35.7809 117.869 35.5114 118.16 35.2567C118.451 35.002 118.755 34.7636 119.072 34.5413C120.876 33.2889 123.365 32.2975 125.596 32.6908L125.736 32.9848C126.616 33.3551 128.784 33.4734 129.644 33.0764C130.511 32.6763 130.177 32.2581 131.248 32.1778Z" fill="white"/>
<path d="M125.816 36.3203C125.895 36.8339 125.427 41.0104 125.334 41.8015C125.261 41.5882 125.198 41.3735 125.154 41.1522C124.88 39.7639 125.009 37.5191 125.816 36.3203Z" fill="black"/>
<path d="M129.984 36.7227C130.059 36.7938 130.084 36.8112 130.147 36.9092C131.392 38.8482 131.879 41.6638 131.193 43.8558L131.042 44.1144L130.935 44.0556C130.726 43.2115 130.768 42.242 130.685 41.3693C130.533 39.7925 130.31 38.2724 129.984 36.7227Z" fill="black"/>
<path d="M133.457 35.2188C133.55 35.2559 133.566 35.2581 133.662 35.3228C135.497 36.568 137.094 39.4252 137.482 41.5744C137.715 42.8686 137.581 44.0092 136.821 45.1074C136.616 45.2663 136.521 45.4103 136.253 45.4036C136.143 44.7378 136.474 43.9903 136.547 43.3197C136.867 40.3896 135.278 37.3788 133.457 35.2188Z" fill="black"/>
<path d="M73.5461 32.1719C74.2681 32.2249 74.0097 32.5764 74.4212 32.8698C74.7853 33.1297 77.1181 33.4257 77.5308 33.3026C77.9421 33.1801 78.0974 32.8879 78.3137 32.5444L78.3866 32.4269C78.4392 32.4296 78.5561 32.4332 78.6158 32.4428C79.1982 32.5354 79.7953 32.8421 80.3792 32.9915C83.8997 33.8935 85.6762 34.7493 87.8627 37.75C86.9621 38.2451 85.9762 38.639 85.0481 39.0873C81.8736 40.6205 79.575 42.1133 77.3555 44.893C76.9237 45.4806 76.5899 46.1147 76.2448 46.7554L65.1744 46.8542C64.505 45.5293 63.9381 44.2643 63.8075 42.7659C63.6004 40.3921 64.2369 37.8609 65.798 36.0286C67.7048 33.7907 70.6377 32.4042 73.5461 32.1719Z" fill="white"/>
<path d="M79.1836 36.9062C79.371 37.0121 79.5067 37.1631 79.6435 37.3272C80.6395 38.5208 80.7086 39.8205 80.5738 41.2962L80.4794 41.2965C80.232 41.052 79.6277 37.8084 79.1836 36.9062Z" fill="black"/>
<path d="M74.128 37.8359C74.1445 38.276 73.3027 40.9058 73.1706 41.8725C73.0436 42.8011 73.3813 43.7049 73.2891 44.6145L73.1561 44.4906C72.7773 43.8507 72.5273 43.2095 72.4403 42.4657C72.2292 40.6624 73.0244 39.1804 74.128 37.8359Z" fill="black"/>
<path d="M71.7683 34.7305L71.8275 34.7459C71.8556 34.9086 71.0559 35.5039 70.8868 35.6505C68.843 37.4203 67.6426 40.2452 67.5337 42.927C67.502 43.7053 67.6783 44.5753 67.5906 45.3233L67.4785 45.2494C66.701 43.5462 66.4526 41.7957 67.0369 39.9897C67.8175 37.5766 69.5446 35.852 71.7683 34.7305Z" fill="black"/>
<path d="M100.59 36.6992C101.704 36.6988 102.817 36.741 103.928 36.8256C111.626 37.4355 120.999 40.6323 126.093 46.5875L103.277 46.7289C94.8617 46.9237 86.4518 46.7519 78.0352 46.7957C78.2844 46.3561 78.5585 45.9325 78.8576 45.5252C79.1567 45.1177 79.4784 44.7293 79.8231 44.3595C82.956 41.0517 90.9782 38.0402 95.5164 37.1626C97.2029 36.8366 98.8789 36.7466 100.59 36.6992Z" fill="white"/>
<path d="M85.7881 44.4648C86.0939 44.4815 86.3876 44.4849 86.6111 44.7324C86.8047 44.9465 86.7919 45.0563 86.7858 45.3234C86.5976 45.6163 86.5137 45.6488 86.2163 45.8079C86.0182 45.7697 85.7041 45.7064 85.54 45.5763C85.3127 45.3955 85.292 45.3224 85.25 45.0549C85.3554 44.7434 85.5312 44.6422 85.7881 44.4648Z" fill="black"/>
<path d="M95.7432 43.4297C95.937 43.4602 96.1443 43.5393 96.2959 43.6669C96.4902 43.8306 96.588 44.0234 96.5795 44.2784C96.5697 44.5775 96.3208 44.7787 96.12 44.9659C95.8712 44.9286 95.5781 44.8888 95.3749 44.7267C95.1521 44.549 95.166 44.4118 95.1523 44.1551C95.2857 43.8209 95.4745 43.6621 95.7432 43.4297Z" fill="black"/>
<path d="M100.443 43.9871C100.479 43.9851 100.514 43.9821 100.55 43.9813C100.977 43.9725 101.453 44.0305 101.756 44.3733C101.927 44.5661 102.033 44.7772 101.987 45.0415C101.914 45.4611 101.596 45.6587 101.261 45.8573C100.796 45.8712 100.4 45.871 100.038 45.5362C99.8437 45.3571 99.7359 45.1283 99.767 44.8592C99.8172 44.4249 100.115 44.2175 100.443 43.9871Z" fill="black"/>
<path d="M96.9881 39.3641C97.038 39.3587 97.0874 39.3518 97.1374 39.3482C97.5812 39.3157 98.0253 39.3663 98.3454 39.7119C98.5314 39.9126 98.5812 40.1285 98.5642 40.395C98.538 40.8075 98.2249 41.1172 97.9436 41.3825C97.5497 41.3797 97.2243 41.3361 96.8988 41.0953C96.6574 40.9166 96.4915 40.6493 96.4846 40.342C96.4752 39.9204 96.7212 39.6513 96.9881 39.3641Z" fill="black"/>
<path d="M115.694 43.5848C115.928 43.5725 116.168 43.5574 116.4 43.5896C116.735 43.636 117.169 43.8916 117.331 44.1975C117.435 44.3935 117.461 44.5833 117.368 44.7906C117.23 45.0987 116.949 45.1907 116.655 45.2957C115.924 45.31 115.523 45.3486 114.971 44.8392C114.914 44.681 114.843 44.586 114.89 44.4154C115.003 44.0113 115.35 43.781 115.694 43.5848Z" fill="black"/>
<path d="M88.3608 41.7861C88.5112 41.7768 88.6605 41.7668 88.8113 41.7702C89.1901 41.7791 89.5972 41.8963 89.846 42.203C90.0175 42.4147 90.0939 42.6059 90.0404 42.8807C89.9571 43.3079 89.6803 43.5047 89.3487 43.7399C89.2244 43.7628 89.0848 43.7953 88.9571 43.7979C88.6026 43.8049 88.2626 43.6971 88.02 43.4282C87.8362 43.2245 87.7782 43.0018 87.7814 42.7333C87.7866 42.2916 88.0503 42.0494 88.3608 41.7861Z" fill="black"/>
<path d="M110.965 42.1729C111.143 42.1602 111.324 42.1458 111.502 42.1556C111.865 42.1761 112.28 42.4195 112.51 42.6935C112.676 42.8907 112.762 43.1283 112.719 43.3882C112.653 43.7919 112.366 43.9935 112.056 44.2104C111.92 44.2365 111.786 44.264 111.648 44.2749C111.302 44.3018 110.991 44.2307 110.728 43.9951C110.485 43.7764 110.39 43.5111 110.395 43.1895C110.4 42.7525 110.658 42.4476 110.965 42.1729Z" fill="black"/>
<path d="M104.406 39.0786C104.736 39.032 105.057 39.0151 105.39 39.0272C106.025 39.0505 107.179 39.1055 107.584 39.6584C107.73 39.8579 107.747 40.1374 107.666 40.3672C107.568 40.6442 107.428 40.7012 107.19 40.8312C106.578 40.8543 105.954 40.895 105.342 40.8767C104.9 40.8635 104.283 40.7655 104.002 40.3807C103.861 40.1867 103.819 39.8878 103.876 39.6574C103.952 39.3477 104.169 39.2491 104.406 39.0786Z" fill="black"/>
<path d="M38.7483 18.7227C38.9246 18.7261 39.1403 18.7182 39.3094 18.7779C40.2335 19.1041 41.1003 21.0878 41.4516 21.9261C42.201 23.7148 42.8115 26.2012 41.0765 27.6334C40.6934 27.9497 40.1749 28.1375 39.9839 28.6071C40.0116 28.7115 40.0058 28.8314 40.0668 28.9204C40.1737 29.076 42.5338 28.9043 43.3608 29.6085C43.9382 30.1001 44.0336 30.834 44.063 31.5484C44.1154 32.8219 43.7099 33.6464 42.8587 34.56C42.8117 36.8153 42.88 39.0792 42.8563 41.3364C42.8326 43.5895 42.648 45.9943 42.9417 48.2251C42.9871 48.5707 43.0449 48.9144 43.115 49.256C43.1851 49.5976 43.2676 49.9363 43.3622 50.2719C43.4568 50.6075 43.5633 50.9393 43.6818 51.2672C43.8003 51.5952 43.9304 51.9186 44.0722 52.2371C44.6002 53.4068 45.3465 54.4168 46.0913 55.4534C47.7115 57.7084 48.7064 59.8251 49.1246 62.5963C49.805 67.1056 47.99 71.436 48.0404 75.9063C49.4272 76.0967 49.1593 75.5574 50.1706 75.0565C51.0535 74.6191 52.3272 75.2072 53.1868 75.5012C53.8377 75.1395 54.5172 74.8864 55.1769 74.554C55.3376 74.4731 55.5613 74.3642 55.6515 74.2042C55.8228 73.8999 56.1354 72.2008 56.3195 71.6476C55.8214 70.7999 54.6592 69.26 54.7608 68.2944C54.9253 68.0241 54.9691 67.9863 55.246 67.8321C55.4666 67.8094 55.6186 67.8303 55.8204 67.9136C56.6545 68.2576 57.4473 68.8244 58.2428 69.2562C59.5637 69.9732 60.9445 70.5324 62.1345 71.4687C62.1423 71.392 62.1516 71.3157 62.1588 71.2389C62.2277 70.5133 62.3576 69.875 62.7123 69.2247C63.2385 68.2598 64.0021 67.8172 65.0176 67.5226L64.9583 66.7244C64.9145 66.1944 64.8601 65.479 65.2144 65.0267C65.3654 64.8339 65.4526 64.8194 65.6727 64.8154C66.1234 65.0373 66.368 65.4663 66.5271 65.9287C66.826 66.7979 66.8021 68.5207 66.3765 69.3528C66.268 69.5647 66.2162 69.5587 66.0019 69.6195C65.6601 69.485 65.2351 69.2602 64.869 69.4221C64.2423 69.6993 63.879 70.7834 63.6535 71.3876C64.8916 73.7149 68.6434 76.1405 70.7972 77.7412C70.4222 76.4433 68.4068 70.4125 69.1097 69.3771C69.2593 69.1568 69.4939 69.0588 69.746 69.0116C71.3774 68.7053 75.2719 71.1439 76.6827 72.06C77.1096 70.9977 77.3067 69.8815 77.816 68.8409C78.1486 68.1614 79.1416 66.5967 79.9056 66.4346C80.0395 66.4063 80.2908 66.445 80.3733 66.5708C80.5366 66.8192 80.8907 68.4856 81.0616 68.9411C81.7818 70.8597 83.0206 72.2837 84.6476 73.496C85.1747 72.9521 86.0674 71.9722 86.8603 71.91C87.0005 71.8991 87.0383 71.8907 87.126 72.0246C87.2034 72.1429 87.6101 73.8812 87.9495 74.5177C88.9428 76.3813 90.6912 77.8209 92.1933 79.2716C92.6231 78.9049 93.0802 78.5717 93.6152 78.3768C94.2266 78.1541 95.1237 77.9541 95.7327 78.2539C95.7612 78.268 95.7887 78.2841 95.8166 78.2989C95.9641 78.2158 96.0697 78.0977 96.2021 77.993C96.7624 77.5504 97.715 77.1114 98.4358 77.228C98.6395 77.261 98.7112 77.0214 98.8301 76.8599C99.5374 75.8993 100.286 75.2507 101.462 74.9475C103.127 74.5179 104.919 74.5526 106.417 75.4883C107.109 75.921 108.218 76.8878 108.326 77.7303C108.359 77.9898 108.331 78.2489 108.157 78.4572C107.855 78.8191 107.35 78.8151 106.92 78.8512C106.676 79.1266 106.434 79.413 106.216 79.7096C106.079 79.8962 105.951 80.0912 105.781 80.2503C105.328 80.6743 104.957 80.6508 104.368 80.6277C103.978 80.9392 103.552 81.2525 103.454 81.7713C103.375 82.1936 103.41 82.4957 103.655 82.8606C103.862 82.9797 103.904 82.9878 104.144 82.9888C104.516 82.8161 104.806 82.324 105.056 82.002C105.428 82.0416 105.799 82.1143 106.168 82.1736C106.456 81.125 106.943 80.0856 107.787 79.3684C108.709 78.5847 109.7 78.4849 110.853 78.562C110.943 78.0852 111.037 77.6138 111.082 77.13C110.757 76.6645 109.532 77.9954 108.775 77.7514C108.551 77.6793 108.41 77.5024 108.334 77.2883C108.279 77.132 108.319 77.066 108.387 76.9234C108.693 76.2807 109.69 75.8258 110.336 75.5827C111.797 75.0332 113.7 74.9133 115.127 75.5906C116.339 76.1652 117.038 77.1037 117.469 78.3399C118.049 78.3152 118.662 78.2577 119.235 78.37C120.683 78.6534 122.209 79.7209 123 80.9771C123.84 82.3123 123.704 83.7134 123.339 85.1659C124.611 85.091 125.78 85.0832 127.042 85.277C126.507 84.2157 125.884 83.2101 125.387 82.1252C123.909 78.8944 122.868 75.0057 122.772 71.4565C122.714 69.3004 122.725 66.7264 124.333 65.0797C126.069 63.3027 128.941 62.7889 131.224 63.6937C132.256 64.1026 133.161 64.8098 134.24 65.1038C135.077 65.3316 135.911 65.2677 136.767 65.2412C136.727 65.1464 136.686 65.052 136.641 64.9592C135.29 62.181 135.29 61.624 132.349 60.6678C131.422 60.3666 131.13 59.8633 130.707 59.0171C130.251 58.1053 129.775 56.9689 130.147 55.9535C130.353 55.3891 130.769 54.9193 131.322 54.6761C131.945 54.4024 132.717 54.4044 133.345 54.6585C133.911 54.8872 134.374 55.3244 134.727 55.8143C135.443 56.8091 135.948 58.032 136.503 59.1252C137.547 61.1804 138.605 63.229 139.554 65.3302C141.012 64.8482 142.238 63.846 143.788 63.5947C145.411 63.3316 147.082 63.8717 148.388 64.8399C151.96 67.4884 150.647 74.2596 149.58 77.8962C149.364 78.6301 148.477 80.6046 148.575 81.2477C149.129 81.2631 149.524 81.5734 149.989 81.8448C151.039 81.8157 151.776 81.5594 152.685 81.0625C152.865 79.3805 152.261 77.7556 152.422 76.1091C152.461 75.7125 152.592 75.1403 152.948 74.9041C153.182 74.7486 153.381 74.7796 153.642 74.8236C154.223 75.2869 154.436 76.5558 154.647 77.2686C154.992 76.1999 155.504 75.1963 155.898 74.1449C155.743 74.0326 155.586 73.9188 155.445 73.789C154.58 72.9937 154.783 71.8895 154.322 70.9298C153.883 70.0134 152.686 69.1395 152.669 68.0857C152.658 67.3826 153.195 66.9265 153.638 66.4501C153.125 64.8339 154.052 65.0466 154.041 64.2047C154.035 63.7574 153.668 63.2643 153.865 62.7877C154.103 62.2119 154.828 62.4955 155.321 62.3278C155.711 61.8478 156.023 61.4778 156.567 61.1647L158.103 61.174C158.113 61.1286 158.123 61.0828 158.134 61.0376C158.149 60.9737 158.167 60.9105 158.183 60.8466C158.331 60.2487 158.823 59.9062 158.963 59.3353C158.914 59.0687 158.882 58.8185 158.865 58.5482C159.051 58.0934 159.369 58.0083 159.784 57.8203C160.48 57.5054 160.391 57.4598 160.709 56.8014C161.178 55.8306 161.987 56.6837 162.585 56.5759C162.957 56.5088 163.356 56.1595 163.732 56.029C164.559 55.7414 165.145 56.4026 165.816 56.7542C165.889 56.6721 166.019 56.4996 166.119 56.4377C166.327 56.3092 166.497 56.3297 166.723 56.4058C166.977 56.4917 167.096 56.7685 167.217 56.9866L167.275 57.0924C167.313 57.0812 167.353 57.0744 167.389 57.0585C168.076 56.7587 168.183 56.0017 168.444 55.3949C168.592 55.0529 168.683 54.9581 169.033 54.827C169.061 54.8165 169.274 54.741 169.307 54.7253C169.531 54.6159 169.551 54.6165 169.619 54.3803C169.532 54.1122 169.475 53.938 169.497 53.6512C169.587 53.5084 169.661 53.3893 169.818 53.3086C170.17 53.128 170.558 53.2688 170.905 53.3799L171.023 53.4187C171.443 53.2465 171.895 53.1853 172.319 53.0154C172.487 52.786 172.665 52.4825 172.911 52.3311C173.585 51.9166 173.702 52.7778 174.125 52.9198C174.388 53.0083 174.696 53.0083 174.965 53.0841C175.304 53.1791 175.428 53.4329 175.599 53.7143C175.623 53.7523 175.645 53.791 175.668 53.8294C175.957 53.9991 176.3 53.8639 176.618 53.8804C176.867 53.893 177.065 54.0079 177.21 54.213C177.404 54.4873 177.302 54.7103 177.222 55.0101C177.154 55.2678 178.03 56.5715 178.216 56.9589C179.136 56.2995 179.999 55.7567 181.156 55.5331C181.589 55.6227 181.667 55.9944 182.013 56.1433C182.648 56.416 182.873 55.8958 183.624 56.5877C183.753 56.8388 183.842 56.946 184.081 57.0981C184.818 57.5658 185.206 58.2746 185.739 58.9468C185.87 59.1123 185.989 59.2276 186.029 59.4445C186.101 59.8378 186.211 61.3593 186.066 61.6807C185.976 61.8795 185.764 62.1201 185.637 62.3043C185.967 62.8387 186.828 62.7839 187.124 63.5144L186.976 63.8056C187.166 64.0667 187.412 64.1004 187.701 64.2055C187.996 64.3129 188.251 64.4386 188.35 64.7634C188.426 65.0134 188.345 65.2294 188.243 65.4515L188.096 65.778C187.995 66.0008 188.03 66.0018 188.076 66.2287C188.307 66.4495 188.51 66.6101 188.593 66.9321C188.48 67.5788 187.962 67.9945 187.508 68.4245C187.692 68.8136 187.914 69.1898 188.12 69.5679C188.007 70.7621 187.175 73.0871 186.581 74.1015C185.737 74.1276 184.889 74.1144 184.044 74.1176C183.467 78.3383 182.386 82.3457 180.294 86.0847C182.684 87.8939 185.316 89.5091 187.796 91.2014C188.911 91.9618 190.239 92.7059 191.135 93.7196C191.087 94.6282 190.863 95.5255 190.736 96.4261C190.445 98.4972 190.923 100.541 191.587 102.497C191.891 103.395 192.209 104.343 192.668 105.175C193.046 105.86 193.563 106.531 193.861 107.249C193.967 107.506 193.962 107.611 193.923 107.874C193.596 108.283 193.114 108.305 192.629 108.369C192.588 109.335 192.891 111.884 192.471 112.591C191.101 113.037 183.29 112.78 181.197 112.821C181.194 114.66 181.483 124.577 180.885 125.491C180.208 125.76 173.299 125.697 172.68 125.447C172.443 125.142 172.407 124.777 172.362 124.405C172.205 123.108 172.303 121.7 172.304 120.392L172.319 112.772L26.9776 112.765C26.9774 114.468 27.2308 124.63 26.7183 125.394C26.6128 125.551 26.2206 125.599 26.0416 125.618C24.9529 125.734 23.8067 125.585 22.7113 125.582C21.507 125.578 20.2697 125.709 19.07 125.614C18.8915 125.6 18.4864 125.574 18.3586 125.437C18.1106 125.173 18.0718 124.539 18.0477 124.191C17.9606 122.928 18.0427 121.62 18.0461 120.351L18.065 112.779L11.3991 112.762C10.2171 112.761 8.75259 112.916 7.60438 112.66C6.2981 112.368 7.54473 109.169 6.93076 108.232C6.62126 108.233 6.36639 108.223 6.06774 108.138C5.84762 107.852 5.81769 107.657 5.91871 107.306C6.07015 106.779 6.52445 106.248 6.7743 105.746C7.23603 104.816 7.59835 103.769 7.90966 102.783C8.57906 100.663 9.09563 98.4538 8.81766 96.2198C8.72568 95.4801 8.39328 94.4484 8.4931 93.7324C8.60758 92.9104 15.5748 88.3197 16.7551 87.4129C16.5521 86.5648 16.3583 85.7144 16.1735 84.8618C15.4794 84.47 14.9445 83.9829 14.6993 83.1979C14.6768 83.1282 14.6579 83.0577 14.6427 82.986C14.6274 82.9145 14.616 82.8424 14.6081 82.7694C14.6003 82.6967 14.5963 82.6238 14.5961 82.5505C14.5959 82.4774 14.5993 82.4045 14.6065 82.3316C14.6138 82.2587 14.6248 82.1866 14.6395 82.1149C14.6541 82.0432 14.6724 81.9725 14.6945 81.9026C14.7164 81.8329 14.7419 81.7644 14.771 81.6972C14.8001 81.6301 14.8325 81.5646 14.8682 81.5007C15.2384 80.8544 15.8158 80.561 16.5029 80.3539C16.7603 80.0239 17.0279 79.6731 17.3434 79.3953C19.2261 77.7392 20.98 78.8476 23.0855 78.9318L23.2459 78.937C23.7486 78.3321 23.8928 77.5544 24.2463 76.8667C24.6315 76.117 25.264 75.6354 26.0669 75.3837C26.6261 75.2086 27.3574 75.1614 27.882 75.4674C28.1242 75.6088 28.2842 75.8284 28.3328 76.1057C28.429 76.653 28.1145 77.4094 27.7896 77.8376C27.1334 78.7018 26.369 78.326 25.4827 78.5526C25.2359 78.6157 25.1111 78.7092 24.9862 78.9223L25.1575 79.0738C25.8253 79.2001 26.222 78.992 26.8502 78.8747C29.2872 78.4204 29.0043 79.9767 30.3441 80.7992C30.4814 80.8835 30.4477 80.856 30.6162 80.8169C31.3933 79.8761 30.0814 69.8128 29.9064 67.7786C29.5244 63.3324 30.0693 59.5976 32.56 55.8336C33.6935 54.1204 34.6503 52.595 35.1337 50.5691C35.7011 48.1909 35.5234 45.759 35.5238 43.337C35.5368 40.3702 35.5194 37.4035 35.4714 34.4371C34.8098 33.4596 34.4302 32.5922 34.5615 31.3699C34.9032 28.1911 37.6055 29.6507 38.5111 28.8991C38.5595 28.7772 38.7172 28.4619 38.6242 28.3311C38.2841 27.8527 37.3215 27.8758 36.8321 26.6035C36.1538 24.8407 37.3557 22.4348 37.9761 20.7941C38.2369 20.1036 38.4378 19.3937 38.7483 18.7227Z" fill="black"/>
<path d="M154.551 78.6719C154.742 78.6934 154.827 78.6982 154.996 78.7984C155.124 79.4256 155.04 80.0956 154.938 80.7231C154.741 80.6447 154.553 80.5881 154.415 80.418C154.127 80.0627 154.465 79.0924 154.551 78.6719Z" fill="white"/>
<path d="M23.9551 80.1289C24.2216 80.2223 24.6173 80.3105 24.7946 80.5436C25.024 80.8453 24.936 81.2932 24.9001 81.6429C24.556 81.6374 24.3435 81.6459 24.0527 81.4557C23.8495 81.0817 23.9396 80.5459 23.9551 80.1289Z" fill="white"/>
<path d="M19.4091 79.8047C19.5053 79.8408 19.4444 79.8103 19.5663 79.9346C19.5382 80.2939 19.5461 80.7657 19.3135 81.0622C19.1376 81.2859 18.8293 81.2148 18.5732 81.2202C18.5139 81.1714 18.4009 81.0834 18.3583 81.0228C18.2735 80.9021 18.2609 80.7906 18.3097 80.6567C18.4655 80.2295 19.0305 80.0085 19.4091 79.8047Z" fill="white"/>
<path d="M147.977 83.7264C148.199 83.447 148.185 83.3864 148.558 83.3406C149.044 83.2807 149.687 83.2645 150.058 83.6658C150.297 83.9246 150.194 84.2263 150.174 84.5474C149.779 84.2558 149.584 84.2522 149.111 84.262L148.997 83.9146L148.817 83.8481C148.62 83.9949 148.662 84.0799 148.618 84.3125C148.338 84.1883 148.129 83.9881 147.977 83.7264Z" fill="white"/>
<path d="M132.18 56.0742C132.553 56.0804 132.87 56.0881 133.18 56.3203C133.83 56.8083 134.038 57.6396 134.15 58.4046C134.017 58.3877 133.877 58.3755 133.749 58.3279C132.941 58.0266 132.477 56.8171 132.18 56.0742Z" fill="white"/>
<path d="M21.3097 80.2227C21.6638 80.2261 22.0665 80.2686 22.3312 80.5352C22.4917 80.6964 22.573 80.8965 22.5338 81.1232C22.4796 81.4365 22.2165 81.6135 21.9817 81.7904C21.6821 81.8254 21.4037 81.8422 21.1356 81.6755C20.9257 81.5448 20.8134 81.3717 20.8052 81.122C20.7919 80.7119 21.0396 80.4825 21.3097 80.2227Z" fill="white"/>
<path d="M156.248 81.3398C156.706 81.4109 157.28 81.5288 157.605 81.8791L157.577 82.0703C157.366 82.2187 157.203 82.2545 156.956 82.3109C156.048 81.7449 155.971 82.288 155.151 82.2145C154.941 82.1956 154.717 82.1448 154.507 82.1115C153.997 82.0046 153.304 82.2667 152.727 82.192C153.505 81.5726 155.163 81.7024 156.135 81.3788C156.173 81.3662 156.21 81.3529 156.248 81.3398Z" fill="white"/>
<path d="M27.5097 80.1289C27.7471 80.2546 28.0454 80.4535 28.1779 80.6923C28.2872 80.8893 28.298 81.1438 28.2056 81.349C28.0215 81.7579 27.6726 81.8505 27.278 81.956C26.9596 81.8252 26.6553 81.6672 26.5001 81.339C26.3987 81.1241 26.4067 80.8885 26.525 80.682C26.7441 80.3 27.1147 80.2163 27.5097 80.1289Z" fill="white"/>
<path d="M61.0247 78.4727C62.1163 78.978 63.2958 79.7068 64.2613 80.4156C64.629 80.6857 65.087 81.0033 65.1621 81.4702C65.097 81.4674 65.0319 81.464 64.9666 81.462C63.8325 81.4262 63.6003 80.2951 62.6393 79.9619C62.0567 79.7599 61.5088 80.134 60.99 79.6285C60.8683 79.2626 60.9739 78.8472 61.0247 78.4727Z" fill="white"/>
<path d="M41.7097 80.1757L42.9418 80.1641C42.4433 80.8501 41.9314 81.5147 41.3883 82.1663C41.2275 82.1478 41.0053 82.1182 40.8587 82.0524C40.5771 81.9258 40.316 81.5756 40.2566 81.2715C40.2058 81.0104 40.2937 80.7419 40.4534 80.5348C40.7545 80.1446 41.264 80.1974 41.7097 80.1757Z" fill="white"/>
<path d="M102.379 83.6615C102.748 83.6313 103.355 83.5474 103.694 83.6898C104.112 83.8649 104.21 84.6593 104.329 85.0485L102.835 85.1212C102.195 85.1515 101.401 85.2881 100.847 84.9067L100.812 84.6374C101.148 84.1973 101.869 83.8561 102.379 83.6615Z" fill="white"/>
<path d="M113.831 82.8633L113.962 82.945C113.888 83.38 113.807 83.8139 113.721 84.2465C113.954 84.5624 114.232 84.8518 114.493 85.1461C113.514 85.1589 112.529 85.1087 111.55 85.0812C111.245 85.0852 110.893 85.1477 110.664 84.9388L110.689 84.6596C111.367 83.6397 112.687 83.1198 113.831 82.8633Z" fill="white"/>
<path d="M39.667 83.4622C39.9239 83.4476 40.2292 83.4143 40.4718 83.5181C41.0149 83.7503 41.1026 85.067 41.3244 85.6135L41.3806 85.7484L39.3724 85.637C39.0758 85.599 38.7769 85.5556 38.4837 85.4968C38.1692 85.4337 38.0039 85.3172 37.8235 85.0471C37.8068 84.8179 37.7926 84.7394 37.9121 84.5323C38.2366 83.9696 39.0752 83.635 39.667 83.4622Z" fill="white"/>
<path d="M106.316 83.4811C106.612 83.4517 106.91 83.4274 107.209 83.4299C108.596 83.4409 109.346 84.1864 110.267 85.0999L109.297 85.138C108.231 85.126 106.418 85.4585 105.48 84.9878C105.396 84.8626 105.318 84.8157 105.345 84.6554C105.425 84.1762 105.971 83.7874 106.316 83.4811Z" fill="white"/>
<path d="M116.073 82.1328C116.397 82.1394 116.767 82.1746 117.084 82.2513C117.497 82.3511 117.881 82.6984 118.08 83.0673C118.243 83.37 118.283 83.715 118.175 84.0428C117.995 84.5835 117.617 84.844 117.123 85.0735C116.864 85.083 116.602 85.0876 116.344 85.0757C116.291 85.0735 116.239 85.0687 116.187 85.0613C116.135 85.0537 116.084 85.0434 116.033 85.0306C115.982 85.0177 115.932 85.0022 115.883 84.9842C115.834 84.9661 115.786 84.9456 115.739 84.9225C115.691 84.8994 115.646 84.8741 115.601 84.8464C115.557 84.8185 115.514 84.7885 115.472 84.7564C115.431 84.7241 115.391 84.6897 115.354 84.6534C115.316 84.617 115.28 84.5789 115.246 84.5389C115.028 84.2852 114.935 83.9765 114.973 83.6445C115.051 82.9671 115.563 82.5228 116.073 82.1328Z" fill="white"/>
<path d="M112.668 76.5256C113.358 76.4842 113.901 76.5219 114.534 76.829C115.194 77.149 115.923 77.6332 116.16 78.356C116.12 78.6113 116.114 78.6276 115.935 78.8131C115.668 78.8411 115.477 78.9007 115.235 79.0082L115.153 79.0453C114.743 79.1186 114.31 79.3408 113.92 79.4926C113.392 79.2648 112.862 79.0445 112.328 78.8318C112.56 78.1241 112.317 77.1068 112.668 76.5256Z" fill="white"/>
<path d="M39.4357 21.5508C39.6544 21.7799 39.8193 22.0933 39.9535 22.3809C40.3389 23.2067 40.9597 25.3304 40.5132 26.1798C40.371 26.4501 40.3132 26.4618 40.0403 26.5475C39.7892 26.1852 39.6255 25.9928 39.2027 25.84C39.1692 25.8277 39.1351 25.8173 39.1011 25.806C38.8605 26.0755 38.7782 26.4093 38.6643 26.7447L38.5552 26.7496C38.4167 26.5817 38.2554 26.3995 38.1785 26.1932C37.6972 24.9012 38.8884 22.7014 39.4357 21.5508Z" fill="white"/>
<path d="M97.3898 82.1602C97.7312 82.1822 98.1008 82.2168 98.39 82.415C98.4338 82.4449 98.4758 82.4773 98.5159 82.512C98.5563 82.5466 98.5947 82.5831 98.631 82.6219C98.6674 82.6607 98.7015 82.701 98.7334 82.7434C98.7654 82.7858 98.7951 82.8296 98.8224 82.8752C98.8497 82.9207 98.8744 82.9675 98.8967 83.0157C98.919 83.0639 98.9385 83.1131 98.9556 83.1634C98.9725 83.2138 98.9867 83.2648 98.9982 83.3166C99.0096 83.3684 99.0184 83.4206 99.0243 83.4735C99.0297 83.5275 99.0325 83.5817 99.0327 83.6361C99.0329 83.6906 99.0303 83.7448 99.0249 83.799C99.0194 83.853 99.0114 83.9069 99.0006 83.9601C98.9899 84.0133 98.9765 84.0659 98.9604 84.118C98.9443 84.17 98.9257 84.221 98.9046 84.271C98.8835 84.321 98.8598 84.37 98.8337 84.4178C98.8076 84.4654 98.779 84.5118 98.7483 84.5566C98.7176 84.6014 98.6846 84.6446 98.6495 84.6861C98.2593 85.1545 97.8849 85.1818 97.2994 85.2196C96.9482 85.2129 96.3952 85.2589 96.0683 85.1236C95.7791 85.0035 95.5461 84.6554 95.488 84.3616C95.4139 83.9864 95.5636 83.5777 95.762 83.2644C96.1717 82.6177 96.6557 82.3158 97.3898 82.1602Z" fill="white"/>
<path d="M156.441 74.0747C156.676 74.0727 156.974 74.0347 157.188 74.1403C157.529 74.3088 159.086 79.127 159.371 79.8481C159.07 80.2708 158.718 80.6418 158.366 81.0222L158.152 81.1644C157.581 81.1587 156.874 80.2666 156.488 79.885C156.778 78.4588 157.323 76.305 157.067 74.8849C156.989 74.4494 156.781 74.3119 156.441 74.0747Z" fill="white"/>
<path d="M40.3368 30.713C40.8415 30.6985 41.7656 30.587 42.204 30.8371C42.437 30.97 42.5061 31.1402 42.5402 31.3922C42.588 31.7461 42.5471 32.1845 42.2882 32.4541C41.7423 33.0222 38.8381 32.736 37.9106 32.732C37.7984 32.7367 37.6861 32.7409 37.5738 32.7443C37.052 32.7602 36.6873 32.8268 36.2826 32.4466C36.0842 31.9596 36.1464 31.3717 36.1444 30.8518C36.9824 30.7903 37.8307 30.8092 38.6708 30.8042C38.9673 31.0403 39.1956 31.2414 39.5873 31.2769C39.9183 31.1926 40.1066 30.9488 40.3368 30.713Z" fill="white"/>
<path d="M157.476 84.3042C157.765 84.0254 158.02 83.7241 158.418 83.6147C159.231 83.7954 159.663 83.8507 160.468 83.5962C160.839 83.6713 161.202 83.9252 161.561 83.8573L161.854 83.367L161.992 83.3516C162.279 83.8199 162.499 84.3522 162.651 84.8804L162.64 84.9109C162.364 84.7404 162.055 84.4592 161.736 84.5058L161.641 84.5936C161.461 84.7587 161.272 84.9906 161.01 84.9836C160.21 84.9621 159.469 84.7703 158.653 84.8113C158.585 84.8145 158.517 84.8089 158.451 84.8197C158.237 84.8551 158.092 85.0173 157.928 85.1431C157.783 85.2535 157.67 85.277 157.492 85.2955C157.237 85.2055 157.065 85.0655 156.857 84.8994L156.609 84.8826C156.498 85.0107 156.392 85.1395 156.289 85.2748C155.888 85.3437 155.623 85.184 155.306 84.9631C155.142 84.8472 154.98 84.7267 154.822 84.602L154.617 85.0057C154.194 85.0133 154.283 84.7113 153.829 85.0947C153.506 84.9503 153.62 84.6615 153.277 84.6898L153.182 84.7577C152.96 84.9147 152.81 85.0449 152.525 85.0467C152.311 84.9025 152.152 84.7514 151.972 84.5691L151.713 84.5213C151.679 84.5512 151.646 84.5817 151.611 84.6112C151.451 84.7482 151.514 84.6978 151.319 84.8231C151.097 84.6868 150.905 84.5339 150.707 84.3674C150.513 84.4345 150.473 84.4751 150.333 84.6151L150.172 84.5478C150.319 84.1925 150.435 83.7918 150.817 83.6279C151.019 83.541 151.129 83.514 151.331 83.6239C151.403 83.6633 151.519 83.7637 151.586 83.8185C151.984 83.7707 152.46 83.4725 152.801 83.7621C152.896 83.8428 152.985 83.933 153.074 84.0208C153.358 84.0732 153.382 84.1065 153.618 83.9258C153.681 83.8782 153.771 83.793 153.831 83.7376C154.202 83.6693 154.405 83.7382 154.75 83.875C156.1 84.4098 155.874 83.0887 157.476 84.3042Z" fill="white"/>
<path d="M86.0386 73.6797C86.2332 73.8751 86.9705 76.0328 87.3925 76.6122C88.5891 78.2555 90.4045 79.4736 91.4923 81.1789C91.0269 81.2277 90.5528 81.2321 90.085 81.252C88.456 79.777 86.698 78.7891 84.6992 77.9146C84.8274 76.4858 85.2043 74.8673 86.0386 73.6797Z" fill="white"/>
<path d="M163.538 64.3555C163.577 64.3643 163.62 64.3657 163.657 64.3824C164.957 64.9602 164.249 67.6977 164.709 68.7457C164.796 68.9441 164.782 68.8318 164.763 69.0361C163.693 69.2144 162.476 69.0989 161.387 69.0917C160.989 69.0967 160.493 69.1711 160.129 69.0116L160.198 68.822C160.229 68.7348 160.256 68.6461 160.292 68.5605C160.536 67.972 160.495 67.5719 160.436 66.9509C160.729 66.7973 161.029 66.6579 161.328 66.5157C161.319 66.1136 161.319 65.725 161.355 65.3241C161.426 65.2934 161.536 65.2438 161.604 65.2253C162.32 65.0323 162.814 64.5025 163.538 64.3555Z" fill="white"/>
<path d="M180.776 57.3359C181.232 57.3661 181.831 57.6396 182.281 57.777C182.646 58.2751 182.821 58.4147 183.429 58.5458L183.579 58.5767C183.692 59.3554 183.903 59.3279 184.47 59.7804C184.559 60.2329 184.557 60.8523 184.441 61.2967C183.48 61.0089 182.865 61.3184 181.942 61.5709L181.641 61.3933C181.399 61.2033 181.155 61.0196 180.888 60.8649C180.702 60.7577 180.324 60.5504 180.111 60.6599C180.027 60.703 180.014 60.7579 179.981 60.838C179.885 61.071 179.801 61.3743 179.632 61.5667C179.476 61.7446 179.296 61.7669 179.074 61.7739C178.861 61.6412 178.862 61.6311 178.773 61.3939C178.95 61.0943 179.256 61.1539 179.515 60.929C179.48 60.7004 179.522 60.8045 179.374 60.6038C178.577 59.5219 179.527 59.3895 179.146 58.1903L179.1 58.0483C179.674 57.8099 180.229 57.6426 180.776 57.3359Z" fill="white"/>
<path d="M16.6763 81.8906C17.7976 82.7466 18.5924 82.7976 19.9372 82.6183C20.2415 82.8105 20.5592 83.0304 20.9014 83.1467C21.7733 83.4433 22.5279 82.8663 23.3863 82.9059C23.796 82.9248 24.2657 83.1734 24.6696 83.1055C24.8833 83.0696 25.1097 82.933 25.2991 82.832C25.7994 82.5644 26.9801 83.5717 27.7911 83.3931C28.5298 83.2306 29.0373 82.5887 29.4348 81.9961C30.0845 82.1865 30.7214 82.3674 31.3366 82.6546C31.3599 82.8892 31.3918 83.0097 31.2259 83.2079C30.8628 83.6418 30.0638 83.7743 29.5292 83.8542C26.8622 84.2531 18.4182 84.7034 16.4649 83.1457C16.2423 82.9681 16.1845 82.7892 16.1523 82.5116C16.2837 82.1732 16.399 82.1138 16.6763 81.8906Z" fill="white"/>
<path d="M57.5594 74.8047C57.5891 74.8053 57.619 74.8055 57.649 74.8065C58.0517 74.8203 58.3527 74.9049 58.6239 75.2208C58.8468 75.4803 58.9394 75.8137 58.905 76.1525C58.8693 76.5054 58.6638 76.8579 58.3843 77.0728L57.8976 77.4462C58.0422 77.5616 58.3415 77.5428 58.5234 77.5379C58.6895 77.5337 58.86 77.5217 59.0257 77.5341C59.2923 77.5544 59.5234 77.7191 59.6714 77.9372C59.8269 78.1664 59.844 78.4014 59.7735 78.6628C59.6883 78.9782 59.3937 79.2656 59.1143 79.4158C58.2423 79.885 56.8151 79.2819 55.9151 79.0332C54.5072 78.5731 53.4136 77.8523 52.1172 77.168C52.5825 77.082 53.0993 77.0593 53.545 76.9009C54.7052 76.4881 56.1742 75.355 57.5594 74.8047Z" fill="white"/>
<path d="M164.107 57.7109C164.622 57.7812 164.815 58.1873 165.277 58.3137C165.919 58.4892 166.658 58.339 167.263 58.6579C167.52 59.0269 167.802 59.3655 168.091 59.7089C167.821 60.1112 166.811 59.976 166.409 60.2912C165.899 60.6914 165.464 61.5518 165.385 62.172C165.38 62.21 165.376 62.248 165.372 62.2859L165.268 62.3283C165.037 62.2761 164.804 62.2056 164.565 62.2343C164.285 62.2678 164.04 62.6016 163.895 62.8191C163.878 62.8439 163.862 62.8692 163.846 62.8941C163.616 62.7049 163.384 62.5074 163.111 62.3827C162.697 62.1935 162.434 62.3034 162.033 62.4592L161.912 62.5076C161.586 62.3916 161.259 61.9449 161.03 61.686C160.721 61.3369 160.56 61.2168 160.1 61.0801C159.905 61.022 159.892 60.9282 159.777 60.7655L159.81 60.8877L159.828 60.7866L159.953 60.7322L160.116 60.6599C160.167 60.6378 160.219 60.6197 160.269 60.5954C160.81 60.3295 160.543 59.9907 160.669 59.5657C160.812 59.0815 161.428 59.2227 161.725 58.34L161.767 58.2136C162.22 58.2273 162.674 58.252 163.128 58.2717C163.473 58.1221 163.788 57.91 164.107 57.7109Z" fill="white"/>
<path d="M159.149 62.3555C159.16 62.3569 159.172 62.3575 159.183 62.3595C159.834 62.476 160.253 63.2402 160.62 63.7359C160.342 63.9745 160.084 64.1898 159.873 64.491C159.732 66.106 159.119 65.3325 158.786 66.1154C158.533 66.7095 159.037 67.295 158.726 67.9768C158.562 68.3369 158.456 68.6762 158.351 69.0565L156.014 69.0805C155.803 69.0915 155.571 69.1132 155.361 69.0939C154.822 69.0445 154.497 68.4852 154.188 68.0969C154.441 67.868 154.768 67.6167 154.961 67.3349C155.264 66.8915 155.056 66.2733 154.961 65.7931C155.69 65.0004 155.168 64.7338 155.514 64.0684C155.728 63.6585 156.32 63.4966 156.59 62.9877C157.578 62.9078 158.28 62.869 159.149 62.3555Z" fill="white"/>
<path d="M117.852 79.5649C118.3 79.5169 118.76 79.5969 119.192 79.7166C120.355 80.0387 121.389 80.7501 121.962 81.8326C122.534 82.9118 122.447 84.0156 122.094 85.1411C121.082 85.1429 120.07 85.155 119.058 85.1118L118.986 85.0075C119.101 84.8348 119.211 84.6607 119.278 84.4631C119.518 83.7573 119.398 82.9841 119.042 82.3394C118.527 81.4083 117.791 81.0773 116.825 80.7895C116.023 80.9935 115.421 81.2516 114.778 81.7714L114.405 82.0716L114.393 81.8748C113.664 81.7927 112.767 81.7945 112.051 81.965C111.043 82.2044 110.559 82.6545 110.042 83.5141C110.037 83.5107 110.033 83.5079 110.029 83.5038C109.265 82.6462 108.645 82.3637 107.555 82.0907C107.668 81.8495 107.784 81.6081 107.927 81.3832C108.375 80.6808 109.043 79.9871 109.895 79.8359C110.56 79.7176 110.891 79.9755 111.411 80.3239C111.752 80.1661 112.13 79.9841 112.514 79.9851C113.106 79.9867 113.463 80.3962 113.858 80.7718C115.199 80.3179 116.433 79.7423 117.852 79.5649Z" fill="white"/>
<path d="M79.365 68.5391C79.417 68.5658 79.4349 68.5704 79.4805 68.6216C79.7209 68.8909 79.8994 69.7437 80.0525 70.1012C80.9129 72.1112 82.2115 73.7152 83.9337 75.0646C83.613 76.0592 83.4507 76.9754 83.3939 78.018C83.1099 78.2733 82.7118 78.7709 82.3392 78.7969C81.747 78.4315 81.1585 78.0602 80.5738 77.683C79.4112 76.926 77.7946 75.7515 77.5295 74.3024C77.1935 72.4641 78.3136 69.9974 79.365 68.5391Z" fill="white"/>
<path d="M103.09 76.1362C103.368 76.1024 103.634 76.0831 103.914 76.092C105.24 76.1334 105.976 76.717 106.84 77.6401C106.7 77.6903 106.563 77.7439 106.424 77.7953C105.711 78.0596 105.363 78.7479 104.688 79.0442C104.038 79.3298 103.343 78.4091 102.729 78.1841C102.23 78.0014 101.707 78.0399 101.23 78.2683C100.824 78.4625 100.131 78.921 100.023 79.3868C99.9626 79.6447 99.9911 79.7017 100.14 79.8913C100.972 80.1863 101.973 79.542 102.845 79.5346L102.963 79.6575C102.834 80.0833 102.394 80.4523 102.093 80.7744L102.453 82.1542C101.645 82.3633 101.011 82.625 100.324 83.0925C100.13 82.4522 99.8957 81.8043 99.3924 81.3384C98.7421 80.7366 97.9489 80.7224 97.1178 80.7409C96.204 80.8891 95.3557 81.2383 94.7648 81.9813C94.0142 82.9254 93.9996 84.0116 94.1205 85.1491C93.4581 85.1985 92.7674 85.2831 92.1034 85.2464C91.7479 85.2267 91.6395 85.1315 91.4101 84.8688C91.3507 84.639 91.3222 84.4496 91.3768 84.2144C91.5738 83.3669 91.813 82.9457 92.5664 82.492C92.7716 81.8345 92.8927 81.1968 93.2798 80.6117C94.5322 78.7186 95.3036 80.432 96.7081 80.0644C97.2179 79.9311 97.4281 79.386 97.6631 78.9644C98.297 79.0267 98.962 79.305 99.5759 79.0564C99.9859 78.6774 100.015 78.188 100.082 77.6606C100.953 76.6672 101.84 76.3979 103.09 76.1362Z" fill="white"/>
<path d="M148.383 85.8125C148.598 85.839 148.79 85.8661 148.994 85.9414C150.302 86.4229 151.667 86.5669 152.91 87.2447C153.376 87.0573 153.812 86.8119 154.255 86.5753C154.33 86.6008 154.406 86.6233 154.48 86.651C154.962 86.8316 155.23 86.7022 155.698 86.7639C156.038 86.8087 156.323 87.1403 156.651 87.2411C157.216 87.4148 157.451 86.9137 157.869 86.7089C158.107 86.5918 159.841 86.6673 160.663 86.2272C160.693 86.2112 160.721 86.1907 160.749 86.1726C160.667 86.8565 160.127 87.7 159.801 88.3102C158.84 89.7918 157.57 90.7526 155.826 91.1161C155.732 91.1366 155.636 91.1547 155.541 91.1704C155.445 91.1862 155.349 91.1995 155.253 91.2103C155.156 91.221 155.06 91.2294 154.963 91.2354C154.866 91.2412 154.769 91.2449 154.672 91.2459C154.575 91.2469 154.478 91.2455 154.381 91.2416C154.284 91.2378 154.188 91.2316 154.091 91.2228C153.995 91.2141 153.898 91.2029 153.802 91.1892C153.706 91.1758 153.611 91.1597 153.515 91.1412C153.42 91.1228 153.326 91.1019 153.231 91.0788C153.137 91.0555 153.044 91.0298 152.951 91.0018C152.858 90.9739 152.766 90.9436 152.674 90.9109C152.583 90.8783 152.493 90.8434 152.403 90.8062C152.313 90.7691 152.225 90.7295 152.138 90.6877C152.05 90.6462 151.963 90.6022 151.878 90.5562C151.793 90.5102 151.709 90.462 151.626 90.4116C151.543 90.3614 151.461 90.3089 151.381 90.2545C151.285 90.1917 151.191 90.1264 151.098 90.0587C151.006 89.991 150.915 89.9211 150.826 89.849C150.737 89.7769 150.65 89.7026 150.564 89.6261C150.479 89.5496 150.395 89.4712 150.314 89.3907C150.232 89.3102 150.153 89.2276 150.075 89.1431C149.998 89.0585 149.922 88.9721 149.849 88.884C149.776 88.7958 149.705 88.7058 149.636 88.614C149.567 88.5223 149.501 88.4289 149.437 88.3339C149.373 88.2389 149.311 88.1423 149.252 88.0443C149.192 87.946 149.135 87.8466 149.081 87.7458C149.027 87.645 148.974 87.5427 148.925 87.4393C148.876 87.3359 148.829 87.2312 148.785 87.1254C148.741 87.0196 148.699 86.9129 148.66 86.8051C148.621 86.6972 148.585 86.5886 148.551 86.4789C148.518 86.3692 148.487 86.2588 148.459 86.1477C148.431 86.0366 148.405 85.9248 148.383 85.8125Z" fill="white"/>
<path d="M172.634 54.2891C172.784 54.3614 172.898 54.42 173.067 54.4218C173.264 54.4238 173.435 54.4262 173.629 54.476C174.08 54.5919 175.022 54.7871 175.27 55.2067C175.263 55.268 175.235 55.4983 175.243 55.5528C175.278 55.8036 175.52 55.9038 175.71 56.0402C176.542 56.6385 175.937 56.7548 176.234 57.4467C176.4 57.8335 176.897 57.9992 177.235 58.1816C177.457 58.3009 177.591 58.3846 177.627 58.6602C177.673 59.0195 177.47 59.2924 177.277 59.5706C177.577 60.0082 177.842 60.4694 178.114 60.9243C177.946 61.3169 177.781 61.7072 177.475 62.0142C176.928 62.5625 176.338 62.9939 175.544 62.9988C175.271 62.8401 175.286 62.7162 175.187 62.4244C174.664 61.8271 173.5 60.4651 172.788 60.1472C172.459 60.1603 172.118 60.2243 171.83 60.0365C170.921 58.4863 170.245 59.6819 169.343 59.3898C169.396 59.3067 169.485 59.1703 169.526 59.0862C169.791 58.5391 169.31 58.1812 169.113 57.6933C169.344 57.5688 169.589 57.4543 169.783 57.2752C170.05 57.0273 170.006 56.3274 170.019 55.9822C170.693 55.8028 170.807 55.6468 171.181 55.1005C171.309 55.0209 171.395 54.9902 171.546 54.979C171.688 54.9685 171.848 54.9741 171.988 54.9452C172.258 54.8894 172.409 54.6074 172.558 54.3969L172.634 54.2891Z" fill="white"/>
<path d="M18.0391 85.4102C19.3279 85.5194 20.6026 85.7166 21.897 85.7924C24.5287 85.9464 27.1081 85.7675 29.728 85.5232C29.4065 86.8731 29.0486 87.9968 28.0514 89.0082C27.2398 89.677 26.3987 90.2844 25.5315 90.8769C24.1882 90.8751 22.8072 90.9417 21.4714 90.7959C20.9623 90.4236 20.4375 90.0564 19.9545 89.6509C18.5327 88.4573 18.1869 87.1701 18.0391 85.4102Z" fill="white"/>
<path d="M180.541 62.4961C180.772 62.513 181.021 62.6734 181.253 62.7299C181.94 62.8968 182.721 62.7883 183.41 62.6807L184.32 63.2119C184.352 63.4921 184.392 63.7226 184.498 63.9881C184.765 64.2378 185.211 64.2282 185.563 64.2675L185.884 65.3679C186.161 65.5306 186.403 65.6756 186.63 65.9054C186.561 66.7381 186.086 68.1783 185.563 68.823C184.473 69.0371 183.161 68.8817 182.039 68.874C179.967 68.868 177.897 68.9815 175.824 68.961C176.053 68.6949 176.337 68.4053 176.471 68.0771C176.754 67.381 176.328 66.717 176.038 66.1004L176.512 65.9204C178.064 65.345 177.01 64.7136 178.15 63.4828C178.337 63.5099 178.52 63.5403 178.71 63.5409C179.059 63.5421 179.226 63.4573 179.468 63.2101C179.822 62.8492 180.068 62.6773 180.541 62.4961Z" fill="white"/>
<path d="M170.393 60.9492C170.878 61.0101 171.27 61.6046 171.873 61.7164C171.893 61.7201 172.179 61.768 172.211 61.7785C172.59 61.9022 172.696 62.2902 172.842 62.6256C173.085 62.8446 173.275 62.8564 173.586 62.8928C173.625 62.8974 173.665 62.9012 173.705 62.9054C173.721 63.2266 173.463 63.6399 173.33 63.9375C173.475 64.1761 173.617 64.4155 173.789 64.6361C174.429 65.4569 174.105 65.4143 174.351 66.2396C174.453 66.584 174.79 66.966 175 67.2601C174.36 67.781 174.338 68.1618 174.218 68.9339L173.94 68.91L173.838 69.0036C172.512 68.9074 171.127 68.9901 169.795 68.9951L166.781 69.0182C166.585 68.7391 166.373 68.4725 166.255 68.1494C167.077 67.186 166.574 67.3328 166.322 66.395C166.242 66.0998 166.386 65.6475 166.449 65.3519C166.154 65.0462 165.806 64.7552 165.656 64.3505L165.728 64.2338C165.809 64.2366 165.89 64.2378 165.971 64.2374C167.364 64.2288 166.6 62.2647 167.257 61.5867C168.101 61.8496 169.569 61.2218 170.393 60.9492Z" fill="white"/>
<path d="M56.6445 69.8203C58.0221 70.3973 59.3143 71.3102 60.6035 72.0591C62.0164 72.8797 63.5392 73.5935 64.8063 74.6333C66.3843 75.9279 67.7137 77.4503 69.4402 78.5798C70.9686 79.58 73.8581 80.6067 74.994 81.689L66.8149 81.6398C65.1466 79.446 63.0096 77.8112 60.615 76.483C59.5397 74.4774 58.8206 72.1099 56.9127 70.749C56.853 70.4349 56.7399 70.1258 56.6445 69.8203Z" fill="white"/>
<path d="M70.4805 70.7617C72.461 71.0935 74.4089 72.4743 76.0293 73.6095C76.0305 73.6464 76.0311 73.6836 76.0327 73.7205L76.0418 73.9051C76.0544 74.1873 76.0683 74.4626 76.1287 74.7398C76.7769 77.7165 79.9692 79.2611 82.2892 80.8046C82.7953 80.3955 83.3631 79.8197 83.9959 79.6383C84.9194 79.3736 86.2572 80.4644 87.0485 80.9303C87.2658 81.0623 87.4474 81.1647 87.6002 81.3754C86.7458 81.5309 85.785 81.5021 84.9156 81.5467C82.4191 81.6963 79.9204 81.7548 77.4197 81.7223C75.9566 80.5544 74.5435 79.4997 72.8614 78.666C71.9896 76.0489 71.1344 73.4438 70.4805 70.7617Z" fill="white"/>
<path d="M175.166 70.5385C178.847 70.4429 182.537 70.4871 186.219 70.4849C186.06 71.191 185.832 71.8401 185.519 72.4911C183.475 72.5766 181.406 72.5216 179.359 72.5252L166.882 72.4997C163.373 72.5021 159.859 72.4328 156.351 72.4999C156.06 71.8805 155.933 71.2456 155.805 70.5793C162.259 70.6465 168.712 70.6329 175.166 70.5385Z" fill="white"/>
<path d="M173.848 112.785L179.701 112.797C179.682 114.027 179.85 123.584 179.563 124.032C177.661 124.062 175.759 124.07 173.858 124.056C173.894 120.293 173.95 116.548 173.848 112.785Z" fill="white"/>
<path d="M19.625 112.785C21.5677 112.773 23.5103 112.77 25.453 112.778L25.4239 123.982L19.6338 124.022L19.625 112.785Z" fill="white"/>
<path d="M17.1117 89.1562C18.3509 90.2247 19.6837 91.249 20.7247 92.5169C22.6393 92.5201 24.5535 92.5027 26.4677 92.4645C26.76 92.2207 26.9929 91.9066 27.2747 91.6481C28.1446 90.8501 29.0709 90.1918 29.8353 89.2782L37.6803 89.2446C39.5164 90.91 41.4401 92.2516 43.7239 93.239L41.1057 93.2558L11.4141 93.2319C13.2319 91.7929 15.3903 90.7061 17.1117 89.1562Z" fill="white"/>
<path d="M108.79 86.7098C112.83 86.6779 116.869 86.6829 120.909 86.7249C122.561 86.7351 124.362 86.555 125.991 86.7406C126.196 86.9288 126.185 86.9946 126.246 87.2714C126.194 87.4684 126.15 87.5737 126.009 87.7289C125.516 88.2738 124.43 88.5514 123.738 88.753C118.155 90.3796 112.103 90.2696 106.341 90.2515C102.421 90.2252 98.4221 89.9209 94.5583 89.2427C93.2801 89.0185 89.5306 88.4461 88.8315 87.4515C88.8052 87.2166 88.7989 87.2254 88.9361 87.0338C89.924 86.5415 106.369 86.7275 108.79 86.7098Z" fill="white"/>
<path d="M90.1701 82.6992C90.1895 83.1288 89.8003 84.2393 89.8375 85.1782C87.543 85.6928 85.3324 86.0067 82.9837 86.1226C82.3392 87.1523 81.9862 88.2527 80.7837 88.7793C78.6604 89.709 73.7653 89.8325 71.6165 88.9024C70.3187 88.3409 69.9728 87.3198 69.5057 86.0894C69.0164 86.0613 68.527 86.0366 68.0373 86.0153L66.0319 85.8687C65.5047 85.3919 65.1727 85.2342 64.4688 85.1185C64.9538 84.3883 65.1532 83.8788 65.238 83.0045C73.1746 83.2551 82.3093 83.7221 90.1701 82.6992Z" fill="white"/>
<path d="M63.1976 86.6868C63.6687 86.6565 64.2227 86.5753 64.6862 86.6683C65.0035 86.7318 65.2389 86.836 65.4287 87.1055C65.4789 87.3604 65.4484 87.5261 65.3186 87.7482C64.0379 89.9422 59.9367 91.9834 57.5768 92.6227C56.2569 92.9804 47.8414 92.8217 46.3347 92.4734C44.8149 92.1224 43.5024 91.4439 42.1544 90.6878C40.5693 89.7358 39.1434 88.6542 37.9375 87.2471C39.6848 87.395 41.4675 87.2702 43.2206 87.3166C47.7233 87.4359 52.2179 87.641 56.7238 87.5207C58.3993 87.4761 60.1655 87.4839 61.8142 87.1622C62.2914 87.069 62.7495 86.871 63.1976 86.6868Z" fill="white"/>
<path d="M49.9051 77.5977C51.4245 77.7587 52.9896 79.2353 54.3469 79.9298C55.5747 80.5579 56.939 80.7294 58.2362 81.1529L58.3631 81.1953C58.6748 81.5285 58.8468 81.6669 58.8514 82.1461C58.8542 82.4267 58.8769 82.6607 58.9307 82.9358C59.15 83.1437 59.178 83.116 59.485 83.1335C59.9428 82.7482 60.0141 81.2006 60.1725 80.5753C61.0783 80.8643 62.0958 80.9764 62.8542 81.5944C63.2777 81.9399 63.5979 82.4171 63.6439 82.9712C63.7013 83.6639 63.3492 84.3463 62.8992 84.8505C61.8889 85.9816 60.5073 85.9772 59.1085 86.0461C54.0314 86.1666 48.8935 86.2298 43.826 85.8725C43.447 85.6124 42.9704 85.3391 42.6848 84.9754C42.4286 84.6492 42.3709 84.2927 42.4424 83.8892C42.7204 82.3221 44.5864 79.9284 46.1502 79.4775C46.8435 79.2777 47.8045 79.396 48.4209 79.0519C48.9368 78.7639 49.3803 77.9859 49.9051 77.5977Z" fill="white"/>
<path d="M51.458 79.7891C51.9173 79.9568 52.2035 80.1849 52.4833 80.585L52.4409 80.6816L52.2236 80.6947C51.8751 80.5972 51.3298 80.5764 51.0547 80.3424C51.0989 80.0562 51.2557 79.9833 51.458 79.7891Z" fill="black"/>
<path d="M47.738 80.5078C47.7669 80.6257 47.7856 80.7261 47.7902 80.8484C47.7916 80.8838 47.7914 80.9193 47.792 80.9547C48.0228 81.0415 48.0204 81.021 48.2536 80.9306C48.402 81.2168 48.349 81.4821 48.3385 81.7974C48.1098 81.8073 47.9077 81.7808 47.682 81.7488C47.4534 81.5831 47.4359 81.5707 47.3438 81.3052C47.4006 80.9539 47.5195 80.7846 47.738 80.5078Z" fill="black"/>
<path d="M55.4081 81.9727C55.5388 82.0393 55.6198 82.0962 55.7051 82.2225C55.8439 82.4286 55.8804 82.6732 55.7923 82.9084C55.5774 83.4824 54.8646 84.0186 54.3004 84.2064C54.0134 84.302 53.8562 84.2257 53.5971 84.1122C53.4699 83.7796 53.3856 83.3996 53.5109 83.0558L53.6967 83.046C53.722 83.0982 53.808 83.2823 53.8431 83.3209C54.0016 83.4944 54.1016 83.449 54.3085 83.4571C54.6654 83.3026 55.0228 82.9168 55.1566 82.5519C55.2313 82.3482 55.3113 82.1677 55.4081 81.9727Z" fill="black"/>
<path d="M158.943 74.1505C162.482 74.1109 166.021 74.1029 169.561 74.1266C173.866 74.128 178.173 74.0962 182.477 74.1467C182.399 75.1589 182.168 76.1625 181.933 77.1486C181.128 80.524 180.215 84.7455 177.073 86.6812C176.438 87.0011 175.807 87.2558 175.12 87.44C170.917 88.5657 166.893 88.1594 163.142 85.9843C163.384 85.9561 163.639 85.9371 163.876 85.8826C164.127 85.8252 164.202 85.7523 164.316 85.533C164.255 84.9142 164.044 84.3096 163.822 83.7314C163.582 83.105 163.035 81.5535 162.415 81.2791C161.71 81.3288 161.098 81.8883 160.539 82.2825C161.027 81.6113 161.574 80.9048 161.971 80.1757C162.167 79.8156 162.322 79.4995 162.202 79.0952L161.968 78.9825C161.529 78.9883 161.188 79.1982 160.804 79.3896C160.455 78.4549 160.127 77.5065 159.749 76.5831C159.434 75.812 159.02 75.0494 158.781 74.2525L158.943 74.1505Z" fill="white"/>
<path d="M145.908 86.5352C146.403 86.5844 146.934 86.5659 147.433 86.5795C147.613 87.1807 147.791 87.7952 148.065 88.3618C148.113 88.4616 148.163 88.56 148.215 88.6575C148.268 88.7549 148.322 88.8507 148.38 88.9453C148.437 89.0399 148.496 89.133 148.558 89.2246C148.62 89.3162 148.684 89.4062 148.75 89.4948C148.816 89.5831 148.885 89.6699 148.955 89.7549C149.026 89.8398 149.099 89.9232 149.173 90.0045C149.248 90.0858 149.325 90.1654 149.404 90.2431C149.482 90.3206 149.563 90.3961 149.645 90.4697C149.728 90.5434 149.812 90.6149 149.898 90.6841C149.984 90.7534 150.072 90.8207 150.161 90.8858C150.251 90.9507 150.341 91.0135 150.434 91.074C150.526 91.1344 150.62 91.1927 150.716 91.2483C150.811 91.3042 150.908 91.3576 151.006 91.4086C151.104 91.4596 151.203 91.508 151.304 91.554C151.404 91.6 151.506 91.6436 151.608 91.6845C151.711 91.7255 151.814 91.7639 151.919 91.7998C153.874 92.4652 156.209 92.3861 158.059 91.4459C160.11 90.4038 160.928 88.8836 161.62 86.772C163.28 88.0057 165.163 88.9248 167.203 89.3192C171.202 90.0929 175.737 89.5474 179.156 87.2508C180.285 87.9194 181.354 88.7283 182.439 89.4678C184.302 90.7171 186.149 91.989 187.98 93.2836C177.687 93.3302 167.395 93.3218 157.103 93.2581L97.7172 93.1676C89.8934 93.1179 82.0698 93.1206 74.2462 93.1754L65.5841 93.1774C63.6986 93.1814 61.7882 93.124 59.9102 93.3091C59.9859 93.2832 60.0612 93.2565 60.1361 93.229C62.8342 92.2365 65.8404 90.4245 67.071 87.7261L68.3945 87.7816C68.9557 88.9236 69.5038 89.742 70.7154 90.2648C73.3294 91.3925 78.6001 91.3871 81.2395 90.3074C82.5223 89.7828 83.4293 89.0067 83.9628 87.7161C84.9885 87.6384 86.0131 87.5486 87.0368 87.447C87.2517 87.885 87.4676 88.3068 87.787 88.681C89.3375 90.4968 97.0922 91.3756 99.587 91.601C105.174 92.1057 123.247 92.4893 127.264 88.9143C127.936 88.3168 127.954 87.4596 127.99 86.6287C128.725 87.7318 130.049 89.3779 131.104 90.1702C132.7 91.3694 138.557 91.0471 140.474 90.7713C141.047 90.6888 141.686 90.5825 142.207 90.3202C143.444 89.6976 145.057 87.6655 145.908 86.5352Z" fill="white"/>
<path d="M37.0865 34.4414L41.1984 34.4527L41.2225 41.6187C41.2357 45.2965 40.9415 49.2485 42.4556 52.6945C44.0188 56.2522 46.7151 57.976 47.368 62.1782C48.0469 66.5476 46.5385 70.714 46.5177 75.0526C46.945 75.7244 47.4849 76.343 47.9814 76.9662C47.1433 77.5951 46.3062 78.0074 45.3074 78.3117C44.923 77.8708 44.208 76.811 43.6414 76.7136C43.4906 76.6874 43.4279 76.7835 43.314 76.8658C43.0349 77.4239 43.0778 78.0028 43.0598 78.6127C42.0917 78.8901 41.1062 78.9029 40.1504 79.157C39.7009 79.2767 39.3418 79.4753 39.1219 79.8977C38.7983 80.5187 39.1417 81.3528 39.3546 81.9565C38.4263 82.1536 37.3725 82.4189 36.6638 83.0826C36.3639 83.3632 36.0815 83.7388 36.0675 84.1608C36.0395 84.9961 35.5818 85.4893 35.5366 86.2076C35.4989 86.8083 36.0195 87.3439 36.3758 87.7789C35.7216 87.7259 35.0669 87.6855 34.4113 87.6576C33.2209 87.6412 32.0265 87.6709 30.8359 87.6811C31.0659 86.789 31.2296 85.89 31.3931 84.9842C31.5556 84.9029 31.7106 84.8169 31.8642 84.7197C32.3991 84.3813 32.8815 83.9495 33.0076 83.2983C33.147 82.5789 32.8528 82.0146 32.4479 81.4496C33.3914 74.2143 29.5186 64.9991 33.0135 58.3036C33.4031 57.5575 34.4288 55.4203 35.1725 55.1851C35.4079 55.2476 35.6654 55.3297 35.9082 55.3583C36.0807 55.3783 36.2434 55.3376 36.3741 55.2233C36.5581 55.0622 36.6987 54.82 36.6768 54.5655C36.6395 54.1275 36.1723 53.8769 35.8518 53.6551C36.0126 53.2054 36.238 52.7694 36.4372 52.335C36.8507 52.5234 37.3603 52.8018 37.8164 52.5644C38.0552 52.44 38.0887 52.3121 38.1721 52.0791C38.1548 51.9283 38.1399 51.7895 38.0622 51.6549C37.7678 51.1458 37.2659 51.092 36.7427 50.9809C36.8001 50.6068 36.8664 50.2617 36.9827 49.9012C37.339 49.6917 37.7306 49.844 38.1307 49.6967C38.2835 49.5359 38.4667 49.2776 38.4884 49.045C38.5035 48.8815 38.489 48.7472 38.3952 48.6122C38.0923 48.177 37.5364 48.1503 37.056 48.0673C37.0831 47.715 37.0739 47.2535 37.1876 46.9193C37.2759 46.66 37.4237 46.5887 37.6517 46.4664C37.8049 46.4726 38.0076 46.4997 38.1562 46.469C38.3189 46.4355 38.3834 46.3887 38.4603 46.2461C38.5884 46.0085 38.6517 45.7386 38.5559 45.4785C38.4012 45.0591 37.6252 44.9733 37.246 44.8273C37.162 44.6317 37.1383 44.3096 37.188 44.1015C37.3496 43.4224 37.9483 43.7747 38.4221 43.5321C38.5659 43.3301 38.5838 43.1738 38.5748 42.9326C38.5416 42.0483 37.8331 42.3204 37.3408 41.8932C37.1821 41.5823 37.1853 41.3546 37.1914 41.0097C37.5386 40.9354 37.8963 40.8625 38.2199 40.7115C38.5139 40.5743 38.6272 40.4098 38.7298 40.112C38.7079 39.8782 38.6511 39.7227 38.5069 39.5392C38.2199 39.173 37.6226 39.1873 37.195 39.1375C37.1864 38.7354 37.1886 38.3514 37.2398 37.9519L37.4276 37.8278C37.6425 37.8396 37.8672 37.8607 38.0819 37.8471C38.3559 37.8296 38.4498 37.7523 38.6308 37.5585C38.7138 37.2855 38.7296 37.1516 38.6637 36.873C38.3072 36.3472 37.7029 36.3145 37.1269 36.1974C37.096 35.6141 37.0978 35.0257 37.0865 34.4414Z" fill="white"/>
<path d="M128.377 64.898C130.533 64.6911 131.899 66.223 133.845 66.719C135.15 67.0516 138.1 67.0084 139.509 66.8934C141.614 66.7212 142.479 65.508 144.183 65.2356C145.199 65.0731 146.355 65.4053 147.178 66.0113C148.273 66.8182 148.756 68.1082 148.934 69.4119C149.585 74.1887 146.72 82.7102 143.842 86.4985C143.246 87.238 142.424 88.0824 141.628 88.6061C139.806 89.805 134.293 89.4125 132.246 88.9667C128.016 84.995 125.546 79.2303 124.608 73.5663C124.227 71.2645 123.976 68.4601 125.47 66.4662C126.214 65.4722 127.19 65.0757 128.377 64.898Z" fill="white"/>
<path d="M29.812 106.781C32.0782 106.468 34.5687 106.982 36.8209 107.29C40.0113 107.725 43.1912 108.242 46.3862 108.645C49.8596 109.082 53.4048 109.207 56.9031 109.167C59.4242 109.123 61.9346 108.934 64.4338 108.6C67.4655 108.191 70.5123 107.621 73.5788 107.595C76.5414 107.569 79.5154 107.9 82.4618 108.175C86.0812 108.514 89.7037 108.815 93.3416 108.838C99.6669 108.876 106.092 107.692 112.311 107.974C117.419 108.205 122.449 109.339 127.552 109.441C133.753 109.565 139.735 107.607 145.941 107.473C151.704 107.349 157.829 107.893 163.57 108.413C166.852 108.71 170.15 109.09 173.446 109.153C174.609 109.17 175.769 109.126 176.927 109.021C178.085 108.916 179.234 108.75 180.374 108.525C184.193 107.801 187.221 106.407 191.04 108.081L191.019 111.191C185.434 111.299 179.814 111.253 174.226 111.257L83.7359 111.257L21.1135 111.249C16.932 111.271 12.7541 111.153 8.57033 111.206C8.56973 110.138 8.58158 109.085 8.66473 108.02C10.2608 107.218 11.7161 107.125 13.3889 107.768C14.6215 108.242 15.8229 108.818 17.1346 109.041C19.8878 109.508 22.5875 108.215 25.2081 107.552C25.9626 107.356 26.7242 107.193 27.493 107.065C28.2617 106.936 29.0347 106.841 29.812 106.781Z" fill="white"/>
<path d="M10.0181 94.7734C15.836 94.8622 21.6542 94.8823 27.4726 94.8337L62.3166 94.7863L139.934 94.8606C156.439 94.7694 172.944 94.7758 189.448 94.8801C188.501 99.1914 189.809 102.253 191.231 106.271C187.682 105.112 185.994 105.532 182.453 106.428C175.149 108.073 169.899 107.269 162.539 106.663C157.463 106.2 152.377 105.938 147.281 105.879C145.808 105.873 144.338 105.925 142.869 106.035C141.401 106.146 139.94 106.314 138.484 106.54C135.186 107.043 131.907 107.786 128.559 107.842C126.161 107.882 123.814 107.557 121.443 107.256C118.433 106.873 115.381 106.474 112.348 106.352C105.851 106.092 99.288 107.204 92.7335 107.185C86.5028 107.167 80.3446 106.028 74.1317 105.939C70.9631 105.893 67.8422 106.557 64.7125 106.959C63.0479 107.173 61.3779 107.329 59.7023 107.425C58.0269 107.522 56.35 107.56 54.6718 107.539C51.2348 107.489 47.8143 107.226 44.4098 106.751C40.0889 106.116 35.6991 105.159 31.3233 105.092C29.0179 105.057 26.659 105.422 24.4397 106.045C22.4759 106.598 20.3482 107.511 18.2891 107.481C16.6209 107.457 15.2586 106.643 13.737 106.075C11.9249 105.397 10.2235 105.48 8.46094 106.282C9.83851 102.252 11.0946 99.0696 10.0181 94.7734Z" fill="white"/>
</svg>
