<svg width="216" height="152" viewBox="0 0 216 152" fill="none" xmlns="http://www.w3.org/2000/svg">
<path d="M215.01 2.23438H2.16016V150.211H215.01V2.23438Z" fill="white"/>
<path d="M22.4617 79.04C22.6432 79.0356 22.8236 79.0471 23.0031 79.0743C23.8897 79.2058 24.844 79.8841 25.3663 80.5962C25.7149 81.0715 25.9167 81.6143 25.8177 82.206C25.6775 83.0425 25.0536 83.4993 24.4166 83.9692C24.1742 84.0625 23.8954 84.1722 23.632 84.1374C22.883 84.0377 22.1818 83.2756 21.8038 82.6745C21.3644 81.9759 21.0578 81.1307 21.2915 80.305C21.4706 79.6722 21.9148 79.3488 22.4617 79.04Z" fill="black" fill-opacity="0.5"/>
<path d="M23.1374 80.7383C23.4525 80.9359 23.871 81.3252 24.022 81.6688C24.1145 81.8791 24.0375 81.9435 23.9685 82.1511C23.8479 82.147 23.6836 82.147 23.5679 82.1169C23.3417 82.0584 23.1418 81.8266 23.053 81.621C22.913 81.2967 23.0277 81.0388 23.1374 80.7383Z" fill="white"/>
<path d="M103.321 15.9378C104.418 15.8499 105.523 16.2497 106.362 16.9606C106.764 17.3014 107.158 17.8044 107.158 18.3582C107.159 18.6163 107.055 18.8525 106.856 19.0181C106.331 19.4561 105.734 19.3621 105.11 19.3049C103.739 20.7364 103.381 22.7144 103.167 24.6089C104.005 24.3934 104.795 24.2641 105.662 24.2737C108.67 24.307 110.826 25.828 112.853 27.8915C114.103 26.5923 115.386 25.6197 117.123 25.0624C118.614 24.5838 119.902 24.5662 121.318 25.2824C121.549 22.7812 122.246 19.8455 123.846 17.8381C124.311 17.2549 124.89 16.7354 125.67 16.6806C126.753 16.6042 128.168 17.4858 128.955 18.1959C129.389 18.588 129.688 18.9602 129.707 19.5571C129.626 19.7706 129.57 19.8914 129.396 20.0479C128.627 20.7373 127.928 20.2524 127.074 20.2072C126.619 20.183 126.2 20.3948 125.874 20.7003C124.619 21.8781 124.355 23.971 124.315 25.5936C125.404 25.3068 126.383 25.1562 127.51 25.3039C131.7 25.8537 134.239 28.9244 136.64 32.0647C136.751 30.4018 137.053 28.8517 137.817 27.3559C138.53 25.9597 139.388 24.6478 140.942 24.1484C142.123 24.4598 143.379 24.9266 144.175 25.9061C144.451 26.245 144.717 26.7379 144.626 27.1888C144.582 27.4097 144.426 27.564 144.237 27.6737C143.426 28.1448 142.437 27.8273 141.596 27.6341C141.425 27.7814 141.267 27.9403 141.12 28.1111C139.918 29.4861 139.979 31.3215 140.102 33.0238C141.606 32.8827 142.823 32.9182 144.27 33.372C147.724 34.4549 150.846 36.9595 152.506 40.1956C154.275 43.646 154.006 46.6545 152.867 50.2161C154.453 50.2166 159.608 49.7332 160.735 50.3861C160.988 50.6816 161.092 50.9321 161.082 51.3286C161.068 51.8921 160.874 52.2333 160.479 52.6159C157.009 55.9732 155.452 55.4907 150.934 55.4194C150.82 55.8666 150.661 56.2977 150.336 56.6376C150.034 56.9525 149.661 57.0783 149.237 57.1384C147.632 57.3664 145.86 57.201 144.233 57.1915L135.366 57.1688L92.6406 57.1066L81.2523 57.0637C77.8175 57.0629 74.3314 57.1318 70.9114 56.7745C68.3236 56.504 66.864 55.9273 64.4447 55.3155C63.3848 55.0474 62.2612 54.8912 61.2504 54.4616C60.6299 54.1978 60.0356 53.8074 59.535 53.3567C58.9068 52.7909 58.4567 52.1197 58.4378 51.2516C58.4336 51.0692 58.4765 50.8375 58.6278 50.7176C59.3172 50.1718 67.0444 50.419 68.4705 50.424C67.7042 48.6425 67.1617 46.9119 67.1763 44.9533C67.1791 44.7659 67.1863 44.5786 67.1983 44.3914C67.2102 44.2043 67.2266 44.0175 67.2477 43.8312C67.2688 43.645 67.2945 43.4593 67.3247 43.2741C67.3547 43.0891 67.3893 42.905 67.4287 42.7216C67.4679 42.5381 67.5114 42.356 67.5595 42.1747C67.6076 41.9934 67.6603 41.8136 67.7171 41.635C67.7739 41.4563 67.8353 41.2792 67.901 41.1035C67.9665 40.9279 68.0363 40.7538 68.1106 40.5817C68.1845 40.4095 68.2629 40.2391 68.3454 40.0707C68.4278 39.9022 68.5142 39.736 68.6048 39.5719C68.6955 39.4076 68.79 39.2459 68.8886 39.0864C68.9871 38.9268 69.0894 38.7697 69.1956 38.6152C69.3018 38.4607 69.4117 38.3088 69.5255 38.1597C69.6392 38.0106 69.7564 37.8644 69.8772 37.721C69.998 37.5776 70.1223 37.4374 70.25 37.3001C70.3778 37.1628 70.5086 37.0285 70.6428 36.8977C73.3573 34.281 77.0525 32.9404 80.7998 33.0168C80.8614 31.8614 80.9134 30.7004 81.0527 29.5511C81.2575 27.8602 81.8077 25.6086 83.257 24.5362C83.7347 24.1827 84.296 24.033 84.8851 24.1227C85.9362 24.2826 87.5706 25.2974 88.163 26.1718C88.3843 26.4985 88.5455 26.9744 88.425 27.3681C88.3173 27.7198 88.1162 27.9731 87.7863 28.1409C86.9279 28.5777 85.9578 28.2297 85.1079 27.9583C84.1151 29.5999 83.8638 31.2923 83.8544 33.1848C84.7275 33.2292 85.6039 33.3794 86.4705 33.4956C86.6816 32.886 86.906 32.2875 87.181 31.7037C88.6413 28.6062 91.6452 25.6785 94.9028 24.5388C96.528 23.9703 98.0035 24.023 99.5574 24.7714C99.6793 23.7031 99.8237 22.6274 100.081 21.5823C100.571 19.5926 101.484 17.051 103.321 15.9378Z" fill="black" fill-opacity="0.5"/>
<path d="M125.142 18.3984C125.614 18.4317 126.035 18.6017 126.477 18.7564C125.943 18.9947 125.46 19.2274 125.026 19.6337C123.529 21.0382 123.246 22.9479 123.152 24.8895C123.148 25.2168 123.13 25.5289 123.088 25.8538L122.947 25.8828L122.827 25.6282L122.963 25.5598L122.824 25.525C122.81 22.9092 123.625 20.4922 125.142 18.3984Z" fill="white"/>
<path d="M140.7 25.7852C140.995 25.8733 141.3 26.075 141.574 26.2208C140.918 26.5634 140.346 26.9059 139.858 27.4796C138.363 29.2369 138.539 31.4961 138.726 33.6288L138.729 33.8094L138.51 33.8205C138.13 33.4865 138.085 33.0279 138.033 32.5344C137.78 30.1089 139.208 27.5743 140.7 25.7852Z" fill="white"/>
<path d="M84.2604 25.8047C84.9862 25.8262 85.9494 26.2066 86.4762 26.7122C86.1935 26.7696 85.7663 26.584 85.4682 26.5403C85.009 26.4726 84.5781 26.5422 84.2051 26.8319C82.9792 27.7836 82.7746 30.5158 82.6513 31.9419C82.663 32.7149 82.6711 33.4821 82.6308 34.2542L82.5474 34.2024C82.327 33.5034 82.2502 32.8621 82.3072 32.1354C82.4665 30.1065 82.5829 27.2325 84.2604 25.8047Z" fill="white"/>
<path d="M103.585 17.625C103.921 17.7107 104.254 17.8365 104.583 17.9462C102.607 19.5858 101.944 22.3018 101.63 24.7496C101.603 24.9194 101.554 25.0558 101.496 25.2166L101.329 25.2665C101.176 25.038 101.193 24.8068 101.188 24.5409C101.187 24.4721 101.188 24.4034 101.186 24.3346C101.124 22.0437 102.246 19.4374 103.585 17.625Z" fill="white"/>
<path d="M132.386 55.2697L144.098 55.2285C145.397 55.2285 147.481 55.0316 148.677 55.3062C148.748 55.3223 148.818 55.3413 148.888 55.3587L148.674 55.303L148.633 55.5093C146.354 55.6945 143.968 55.5508 141.674 55.5508L128.323 55.553L88.1486 55.6405L77.4281 55.6544C75.7102 55.6531 73.275 55.8816 71.6378 55.4751L71.5703 55.3589C72.8051 55.1186 74.8639 55.3156 76.1785 55.3158L87.8143 55.3175L132.386 55.2697Z" fill="white"/>
<path d="M156.468 51.8993C157.238 51.8538 158.015 51.8516 158.786 51.832C158.382 52.1774 157.942 52.459 157.493 52.7411C156.705 53.2357 156.048 53.6115 155.101 53.6664C152.7 53.8055 150.22 53.6725 147.81 53.6633L135.265 53.679L95.1992 53.7186C89.1176 53.7077 83.0363 53.7299 76.955 53.7854C72.9152 53.8133 67.349 54.2124 63.5227 53.3304C62.6146 53.123 61.8044 52.7408 60.9883 52.3025L127.81 52.0843C137.355 52.0074 146.927 52.1482 156.468 51.8993Z" fill="white"/>
<path d="M119.101 26.4196C120.128 26.3715 120.675 27.3898 121.666 27.5341C123.182 27.7545 124.859 27.2671 126.383 27.1628C129.257 26.9661 131.894 28.9552 133.617 31.06C134.21 31.7845 134.662 32.6829 135.383 33.2844C135.412 33.3085 135.442 33.3314 135.472 33.3549L135.433 33.4302L134.814 33.3823C133.735 33.2913 132.755 33.549 131.713 33.7862C130.709 32.2065 129.48 30.976 127.921 29.9408C129.056 31.2146 129.878 32.7029 130.816 34.1216L129.396 34.821C126.942 36.0907 125.172 38.0193 123.82 40.3929C121.438 39.5326 118.946 39.036 116.473 38.5172C116.798 36.4865 116.582 35.06 115.879 33.1329C116.115 32.1416 116.429 31.2069 116.775 30.2505C116.316 30.7726 115.897 31.2885 115.512 31.8672C115.008 30.9286 114.489 29.9976 113.957 29.0744C115.365 27.6018 117.074 26.7025 119.101 26.4196Z" fill="white"/>
<path d="M95.7848 26.062C96.6375 25.9952 97.4919 26.0681 98.3437 26.1188C98.8821 26.5186 99.4233 26.8313 100.017 27.1403C100.502 27.0955 100.992 27.0043 101.478 26.9971C102.094 26.9878 102.739 27.1053 103.349 27.0278L103.499 26.6953C104.274 26.1371 105.28 25.9976 106.217 26.0585C108.377 26.1989 110.325 27.4987 111.7 29.102C113.896 31.6637 115.266 34.8553 114.989 38.2568C112.186 37.7167 109.396 37.7663 106.563 37.9291C103.062 38.207 100.013 39.0751 96.7289 40.2705C96.263 39.6205 95.8819 38.918 95.3853 38.2864C93.4491 35.8253 90.8075 34.772 87.8633 34.0556C87.9349 33.8373 88.0139 33.6284 88.1096 33.4192C89.5177 30.347 92.5942 27.2393 95.7848 26.062Z" fill="white"/>
<path d="M106.512 28.1992C106.989 28.3814 107.482 28.7788 107.857 29.128C109.626 30.7779 110.159 33.4496 110.278 35.761C109.784 35.0866 109.508 33.5478 109.176 32.7075C108.536 31.0888 107.574 29.5694 106.512 28.1992Z" fill="black" fill-opacity="0.5"/>
<path d="M103.167 30.457C103.244 30.7698 103.291 31.0892 103.336 31.4081C103.525 32.7539 104.181 36.685 103.412 37.7107C103.355 37.6176 103.3 37.5231 103.248 37.4271C102.345 35.7499 102.617 32.1956 103.167 30.457Z" fill="black" fill-opacity="0.5"/>
<path d="M142.131 34.7017C143.119 34.6149 144.64 35.4301 145.539 35.8441C148.131 37.0377 150.428 39.4523 151.396 42.15C152.401 44.9508 152.047 47.596 150.817 50.2363C146.814 50.3764 142.805 50.3074 138.8 50.3496C138.147 49.6332 137.551 48.8589 136.942 48.1055C133.617 44.4803 129.975 42.7471 125.555 40.9269C125.767 40.5659 125.999 40.217 126.249 39.8803C126.499 39.5439 126.766 39.2218 127.05 38.9139C127.335 38.6059 127.635 38.3139 127.95 38.0379C128.266 37.762 128.595 37.5037 128.938 37.2627C130.893 35.9056 133.591 34.8314 136.007 35.2576L136.16 35.5762C137.113 35.9775 139.462 36.1056 140.394 35.6754C141.333 35.2419 140.972 34.7888 142.131 34.7017Z" fill="white"/>
<path d="M136.245 39.1875C136.331 39.744 135.824 44.2695 135.723 45.1267C135.644 44.8956 135.576 44.663 135.528 44.4231C135.231 42.9189 135.371 40.4865 136.245 39.1875Z" fill="black" fill-opacity="0.5"/>
<path d="M140.762 39.625C140.842 39.702 140.869 39.721 140.938 39.8272C142.287 41.9281 142.815 44.979 142.071 47.3542L141.907 47.6345L141.792 47.5707C141.566 46.656 141.611 45.6056 141.521 44.66C141.357 42.9514 141.114 41.3042 140.762 39.625Z" fill="black" fill-opacity="0.5"/>
<path d="M144.527 37.9961C144.628 38.0364 144.646 38.0387 144.749 38.1088C146.738 39.4581 148.469 42.554 148.889 44.8828C149.141 46.2852 148.996 47.5211 148.172 48.7111C147.95 48.8832 147.848 49.0393 147.557 49.0321C147.437 48.3107 147.797 47.5007 147.876 46.774C148.222 43.5991 146.501 40.3367 144.527 37.9961Z" fill="black" fill-opacity="0.5"/>
<path d="M79.6092 34.6953C80.3916 34.7528 80.1115 35.1336 80.5574 35.4516C80.9519 35.7332 83.4797 36.0539 83.9269 35.9205C84.3726 35.7878 84.5408 35.4711 84.7752 35.099L84.8542 34.9717C84.9112 34.9745 85.0378 34.9784 85.1025 34.9889C85.7336 35.0892 86.3806 35.4215 87.0132 35.5834C90.828 36.5608 92.7529 37.4881 95.1222 40.7396C94.1463 41.2761 93.078 41.7028 92.0724 42.1886C88.6326 43.8499 86.1419 45.4675 83.7369 48.4795C83.269 49.1162 82.9073 49.8033 82.5334 50.4975L70.5379 50.6046C69.8126 49.1689 69.1982 47.7983 69.0568 46.1746C68.8324 43.6025 69.5221 40.8598 71.2137 38.8744C73.2798 36.4494 76.4578 34.9471 79.6092 34.6953Z" fill="white"/>
<path d="M85.7148 39.8242C85.9179 39.9389 86.065 40.1026 86.2132 40.2804C87.2924 41.5737 87.3673 42.982 87.2212 44.5811L87.119 44.5813C86.8508 44.3164 86.196 40.8018 85.7148 39.8242Z" fill="black" fill-opacity="0.5"/>
<path d="M80.2367 40.832C80.2546 41.3088 79.3425 44.1584 79.1993 45.2059C79.0618 46.2122 79.4276 47.1915 79.3277 48.1771L79.1836 48.0428C78.7732 47.3495 78.5022 46.6546 78.408 45.8487C78.1793 43.8947 79.0409 42.2888 80.2367 40.832Z" fill="black" fill-opacity="0.5"/>
<path d="M77.6828 37.4648L77.747 37.4816C77.7774 37.6579 76.9108 38.3029 76.7276 38.4618C74.513 40.3795 73.2123 43.4404 73.0944 46.3463C73.06 47.1896 73.251 48.1324 73.1559 48.9428L73.0345 48.8627C72.1921 47.0173 71.9229 45.1205 72.556 43.1636C73.4019 40.5488 75.2732 38.6801 77.6828 37.4648Z" fill="black" fill-opacity="0.5"/>
<path d="M108.912 39.5977C110.12 39.5972 111.325 39.6429 112.529 39.7345C120.871 40.3955 131.027 43.8594 136.546 50.3122L111.824 50.4654C102.705 50.6765 93.5927 50.4904 84.4727 50.5379C84.7427 50.0615 85.0398 49.6025 85.3638 49.1612C85.6879 48.7196 86.0365 48.2987 86.41 47.8981C89.8047 44.3138 98.4973 41.0507 103.415 40.0997C105.242 39.7465 107.058 39.649 108.912 39.5977Z" fill="white"/>
<path d="M92.8721 48.0156C93.2035 48.0337 93.5217 48.0374 93.7639 48.3055C93.9737 48.5375 93.9598 48.6565 93.9532 48.946C93.7493 49.2633 93.6584 49.2985 93.3361 49.4709C93.1215 49.4295 92.7811 49.361 92.6033 49.22C92.357 49.0241 92.3345 48.9449 92.2891 48.655C92.4033 48.3175 92.5937 48.2078 92.8721 48.0156Z" fill="black" fill-opacity="0.5"/>
<path d="M103.66 46.8906C103.87 46.9237 104.094 47.0094 104.259 47.1476C104.469 47.325 104.575 47.5339 104.566 47.8103C104.555 48.1343 104.286 48.3524 104.068 48.5552C103.798 48.5148 103.481 48.4717 103.261 48.296C103.019 48.1035 103.034 47.9548 103.02 47.6767C103.164 47.3146 103.369 47.1424 103.66 46.8906Z" fill="black" fill-opacity="0.5"/>
<path d="M108.754 47.4955C108.792 47.4933 108.831 47.49 108.869 47.4892C109.333 47.4796 109.849 47.5425 110.177 47.914C110.361 48.1229 110.476 48.3516 110.427 48.638C110.348 49.0926 110.003 49.3068 109.641 49.522C109.136 49.537 108.707 49.5368 108.315 49.174C108.105 48.9799 107.988 48.732 108.021 48.4404C108.076 47.9699 108.398 47.7451 108.754 47.4955Z" fill="black" fill-opacity="0.5"/>
<path d="M105.011 42.4872C105.065 42.4813 105.118 42.4739 105.172 42.47C105.653 42.4347 106.135 42.4896 106.481 42.8641C106.683 43.0815 106.737 43.3155 106.718 43.6043C106.69 44.0513 106.351 44.3868 106.046 44.6743C105.619 44.6713 105.267 44.6241 104.914 44.3631C104.652 44.1694 104.473 43.8798 104.465 43.5468C104.455 43.09 104.721 42.7984 105.011 42.4872Z" fill="black" fill-opacity="0.5"/>
<path d="M125.278 47.0586C125.531 47.0454 125.792 47.029 126.043 47.0638C126.406 47.1141 126.877 47.3912 127.052 47.7226C127.164 47.935 127.192 48.1407 127.092 48.3652C126.942 48.6991 126.638 48.7988 126.319 48.9126C125.527 48.928 125.093 48.9698 124.495 48.4179C124.433 48.2464 124.356 48.1435 124.407 47.9587C124.529 47.5209 124.905 47.2712 125.278 47.0586Z" fill="black" fill-opacity="0.5"/>
<path d="M95.6592 45.1117C95.8222 45.1017 95.9839 45.0908 96.1474 45.0945C96.5578 45.1041 96.9989 45.2312 97.2686 45.5635C97.4544 45.7928 97.5371 46 97.4792 46.2977C97.3889 46.7606 97.089 46.9739 96.7297 47.2287C96.595 47.2535 96.4438 47.2888 96.3054 47.2916C95.9213 47.2993 95.5528 47.1824 95.2899 46.891C95.0908 46.6703 95.0279 46.429 95.0314 46.138C95.037 45.6594 95.3228 45.397 95.6592 45.1117Z" fill="black" fill-opacity="0.5"/>
<path d="M120.153 45.5301C120.346 45.5163 120.543 45.5007 120.736 45.5113C121.129 45.5335 121.579 45.7973 121.828 46.0941C122.007 46.3078 122.1 46.5653 122.054 46.8469C121.983 47.2843 121.671 47.5028 121.336 47.7379C121.188 47.7661 121.043 47.796 120.893 47.8077C120.519 47.8369 120.181 47.7598 119.897 47.5046C119.633 47.2676 119.531 46.9801 119.535 46.6317C119.542 46.1581 119.821 45.8278 120.153 45.5301Z" fill="black" fill-opacity="0.5"/>
<path d="M113.046 42.177C113.404 42.1265 113.752 42.1082 114.112 42.1213C114.8 42.1465 116.051 42.2061 116.489 42.8053C116.648 43.0214 116.667 43.3243 116.579 43.5733C116.472 43.8734 116.321 43.9352 116.063 44.076C115.4 44.101 114.724 44.1452 114.061 44.1254C113.581 44.111 112.912 44.0048 112.609 43.5878C112.456 43.3776 112.41 43.0538 112.472 42.8042C112.554 42.4686 112.789 42.3617 113.046 42.177Z" fill="black" fill-opacity="0.5"/>
<path d="M41.9026 20.1211C42.0937 20.1248 42.3274 20.1163 42.5106 20.1809C43.5119 20.5344 44.4512 22.6838 44.8318 23.5922C45.6438 25.5304 46.3054 28.2246 44.4253 29.7765C44.0103 30.1192 43.4484 30.3227 43.2414 30.8315C43.2715 30.9447 43.2651 31.0746 43.3313 31.171C43.4471 31.3397 46.0044 31.1536 46.9006 31.9166C47.5262 32.4493 47.6296 33.2445 47.6614 34.0186C47.7182 35.3986 47.2788 36.2919 46.3565 37.2819C46.3056 39.7256 46.3796 42.1787 46.3539 44.6246C46.3282 47.0659 46.1282 49.6717 46.4464 52.0889C46.4956 52.4634 46.5582 52.8358 46.6342 53.206C46.7101 53.5762 46.7996 53.9431 46.9021 54.3067C47.0046 54.6704 47.1199 55.0299 47.2483 55.3853C47.3767 55.7407 47.5178 56.091 47.6714 56.4362C48.2435 57.7036 49.0522 58.7981 49.8592 59.9212C51.6148 62.3647 52.6929 64.6583 53.146 67.6611C53.8833 72.5472 51.9166 77.2394 51.9712 82.0833C53.4739 82.2896 53.1836 81.7053 54.2794 81.1625C55.236 80.6886 56.6162 81.3258 57.5477 81.6444C58.253 81.2524 58.9892 80.9782 59.7041 80.618C59.8782 80.5303 60.1206 80.4124 60.2184 80.2389C60.404 79.9092 60.7426 78.0681 60.9422 77.4688C60.4025 76.5502 59.1431 74.8817 59.2532 73.8353C59.4314 73.5424 59.4789 73.5015 59.779 73.3343C60.0179 73.3098 60.1827 73.3324 60.4014 73.4227C61.3052 73.7955 62.1641 74.4096 63.0262 74.8775C64.4575 75.6544 65.9536 76.2603 67.2431 77.2749C67.2516 77.1918 67.2616 77.1091 67.2694 77.0259C67.3441 76.2396 67.4849 75.548 67.8692 74.8434C68.4394 73.7979 69.2668 73.3182 70.3671 72.999L70.3029 72.1341C70.2554 71.5598 70.1965 70.7846 70.5804 70.2946C70.744 70.0856 70.8385 70.07 71.077 70.0656C71.5653 70.3061 71.8304 70.7709 72.0028 71.2719C72.3266 72.2138 72.3007 74.0806 71.8395 74.9822C71.722 75.2118 71.6659 75.2053 71.4337 75.2712C71.0633 75.1254 70.6028 74.8819 70.206 75.0573C69.5271 75.3576 69.1334 76.5323 68.889 77.187C70.2306 79.7088 74.2959 82.3371 76.6297 84.0715C76.2234 82.6652 74.0395 76.1304 74.8012 75.0085C74.9633 74.7698 75.2175 74.6636 75.4906 74.6125C77.2584 74.2806 81.4784 76.923 83.007 77.9156C83.4696 76.7645 83.6831 75.555 84.235 74.4275C84.5954 73.6913 85.6713 71.9957 86.4992 71.8201C86.6443 71.7894 86.9166 71.8314 87.006 71.9677C87.183 72.2369 87.5667 74.0425 87.7518 74.5361C88.5322 76.615 89.8746 78.158 91.6375 79.4716C92.2086 78.8823 93.1759 77.8205 94.0351 77.753C94.187 77.7413 94.2279 77.7321 94.323 77.8773C94.4068 78.0055 94.8475 79.889 95.2153 80.5786C96.2917 82.598 98.1861 84.1579 99.8137 85.7298C100.279 85.3325 100.775 84.9714 101.355 84.7603C102.017 84.519 102.989 84.3022 103.649 84.6271C103.68 84.6424 103.71 84.6598 103.74 84.6759C103.9 84.5858 104.014 84.4578 104.158 84.3444C104.765 83.8648 105.797 83.3891 106.578 83.5155C106.799 83.5512 106.876 83.2916 107.005 83.1166C107.772 82.0757 108.583 81.373 109.857 81.0444C111.661 80.5789 113.603 80.6165 115.226 81.6304C115.976 82.0992 117.177 83.1468 117.294 84.0598C117.33 84.341 117.3 84.6217 117.112 84.8474C116.784 85.2395 116.237 85.2352 115.771 85.2743C115.507 85.5727 115.245 85.883 115.009 86.2045C114.86 86.4066 114.721 86.618 114.536 86.7903C114.046 87.2497 113.644 87.2243 113.006 87.1992C112.584 87.5368 112.122 87.8763 112.016 88.4384C111.93 88.8961 111.968 89.2234 112.233 89.6188C112.457 89.7478 112.503 89.7566 112.763 89.7576C113.167 89.5705 113.48 89.0373 113.751 88.6884C114.154 88.7313 114.557 88.8101 114.957 88.8743C115.269 87.7381 115.797 86.6119 116.711 85.8347C117.71 84.9856 118.784 84.8774 120.033 84.961C120.131 84.4443 120.232 83.9336 120.281 83.4093C119.928 82.9048 118.602 84.347 117.781 84.0826C117.538 84.0045 117.386 83.8128 117.303 83.5808C117.243 83.4115 117.287 83.3399 117.361 83.1854C117.692 82.489 118.772 81.996 119.472 81.7327C121.056 81.1373 123.117 81.0074 124.664 81.7412C125.977 82.3638 126.735 83.3808 127.202 84.7203C127.83 84.6935 128.494 84.6313 129.115 84.7529C130.684 85.06 132.338 86.2167 133.195 87.5779C134.105 89.0247 133.957 90.5428 133.562 92.1167C134.94 92.0355 136.208 92.027 137.575 92.237C136.995 91.0871 136.32 89.9975 135.782 88.8219C134.18 85.3211 133.052 81.1075 132.948 77.2616C132.884 74.9254 132.896 72.1363 134.639 70.352C136.52 68.4265 139.633 67.8698 142.106 68.8502C143.224 69.2933 144.205 70.0595 145.375 70.3781C146.281 70.6249 147.185 70.5557 148.113 70.527C148.069 70.4243 148.024 70.322 147.975 70.2214C146.512 67.211 146.512 66.6076 143.325 65.5714C142.321 65.245 142.005 64.6996 141.546 63.7828C141.052 62.7948 140.536 61.5634 140.939 60.4631C141.162 59.8516 141.613 59.3426 142.212 59.079C142.887 58.7824 143.724 58.7846 144.405 59.0599C145.018 59.3078 145.519 59.7815 145.901 60.3123C146.677 61.3902 147.225 62.7153 147.827 63.8999C148.957 66.1268 150.104 68.3466 151.132 70.6234C152.712 70.1011 154.04 69.0151 155.721 68.7429C157.478 68.4578 159.289 69.043 160.704 70.0922C164.575 72.962 163.153 80.299 161.996 84.2395C161.762 85.0347 160.801 87.1742 160.907 87.871C161.507 87.8878 161.935 88.224 162.439 88.5181C163.577 88.4865 164.375 88.2088 165.36 87.6704C165.556 85.8478 164.901 84.0872 165.076 82.3031C165.118 81.8733 165.26 81.2533 165.645 80.9974C165.899 80.8289 166.115 80.8624 166.397 80.9101C167.027 81.4122 167.257 82.7871 167.487 83.5595C167.86 82.4015 168.415 81.314 168.842 80.1747C168.674 80.0531 168.504 79.9297 168.351 79.7891C167.414 78.9273 167.634 77.7308 167.135 76.691C166.658 75.698 165.362 74.7511 165.343 73.6092C165.331 72.8473 165.913 72.3531 166.393 71.8369C165.837 70.0856 166.841 70.3161 166.83 69.4038C166.824 68.9192 166.426 68.3849 166.639 67.8685C166.897 67.2445 167.682 67.5518 168.217 67.3701C168.639 66.85 168.977 66.4491 169.566 66.1098L171.231 66.1199C171.242 66.0707 171.253 66.0211 171.265 65.9721C171.282 65.9029 171.301 65.8343 171.318 65.7651C171.478 65.1173 172.012 64.7462 172.163 64.1275C172.11 63.8387 172.075 63.5676 172.057 63.2746C172.258 62.7819 172.603 62.6897 173.053 62.486C173.807 62.1447 173.711 62.0953 174.055 61.3819C174.563 60.3299 175.44 61.2544 176.088 61.1375C176.491 61.0649 176.924 60.6864 177.33 60.545C178.227 60.2333 178.861 60.9497 179.589 61.3308C179.668 61.2418 179.809 61.0549 179.917 60.9878C180.143 60.8485 180.327 60.8707 180.571 60.9532C180.847 61.0464 180.975 61.3463 181.107 61.5826L181.169 61.6973C181.211 61.6851 181.254 61.6777 181.293 61.6605C182.037 61.3356 182.154 60.5154 182.437 59.8579C182.596 59.4873 182.695 59.3846 183.075 59.2425C183.105 59.2311 183.336 59.1493 183.371 59.1324C183.614 59.0137 183.635 59.0144 183.71 58.7585C183.615 58.4679 183.554 58.2793 183.577 57.9685C183.675 57.8138 183.755 57.6847 183.925 57.5972C184.306 57.4016 184.727 57.5541 185.103 57.6745L185.231 57.7165C185.686 57.53 186.176 57.4636 186.635 57.2795C186.817 57.031 187.01 56.7021 187.276 56.538C188.007 56.0889 188.133 57.022 188.592 57.1759C188.877 57.2719 189.211 57.2719 189.503 57.3539C189.87 57.4569 190.004 57.7319 190.19 58.0368C190.215 58.078 190.239 58.12 190.264 58.1615C190.577 58.3454 190.949 58.199 191.294 58.2168C191.564 58.2305 191.778 58.355 191.935 58.5772C192.146 58.8745 192.034 59.116 191.948 59.4409C191.875 59.7202 192.823 61.1328 193.025 61.5526C194.022 60.8381 194.957 60.2499 196.211 60.0076C196.68 60.1047 196.765 60.5075 197.139 60.6688C197.827 60.9643 198.071 60.4007 198.885 61.1504C199.025 61.4224 199.121 61.5386 199.38 61.7034C200.179 62.2102 200.599 62.9782 201.177 63.7066C201.318 63.8859 201.448 64.0108 201.491 64.2459C201.569 64.672 201.688 66.3207 201.531 66.6689C201.434 66.8844 201.203 67.1451 201.066 67.3447C201.424 67.9238 202.357 67.8643 202.678 68.6558L202.517 68.9714C202.723 69.2543 202.989 69.2909 203.302 69.4047C203.622 69.5211 203.899 69.6573 204.006 70.0093C204.088 70.2802 204.001 70.5141 203.89 70.7548L203.73 71.1087C203.622 71.35 203.659 71.3511 203.709 71.597C203.959 71.8362 204.179 72.0103 204.269 72.3592C204.147 73.0599 203.586 73.5104 203.094 73.9763C203.292 74.3979 203.534 74.8055 203.756 75.2153C203.634 76.5093 202.733 79.0285 202.089 80.1277C201.174 80.156 200.255 80.1417 199.34 80.1451C198.715 84.7185 197.543 89.0608 195.276 93.1123C197.867 95.0727 200.718 96.8228 203.405 98.6565C204.613 99.4805 206.052 100.287 207.023 101.385C206.972 102.37 206.729 103.342 206.592 104.318C206.276 106.562 206.794 108.777 207.513 110.896C207.843 111.87 208.188 112.896 208.685 113.798C209.094 114.54 209.655 115.267 209.977 116.045C210.092 116.323 210.087 116.437 210.045 116.723C209.691 117.166 209.167 117.19 208.642 117.258C208.598 118.305 208.927 121.068 208.472 121.833C206.987 122.317 198.523 122.039 196.255 122.083C196.252 124.075 196.565 134.821 195.917 135.812C195.184 136.103 187.697 136.034 187.026 135.764C186.77 135.434 186.731 135.038 186.682 134.635C186.512 133.229 186.618 131.704 186.619 130.286L186.635 122.03L29.1482 122.022C29.148 123.868 29.4227 134.879 28.8673 135.706C28.753 135.876 28.328 135.929 28.1341 135.949C26.9544 136.074 25.7124 135.914 24.5254 135.91C23.2206 135.905 21.8798 136.048 20.5799 135.945C20.3864 135.929 19.9475 135.901 19.8091 135.753C19.5403 135.467 19.4983 134.78 19.4722 134.403C19.3777 133.034 19.4668 131.617 19.4705 130.242L19.4909 122.038L12.2679 122.019C10.9872 122.018 9.40029 122.186 8.15612 121.908C6.74069 121.592 8.09149 118.125 7.42621 117.111C7.09085 117.112 6.81468 117.1 6.49107 117.009C6.25256 116.699 6.22013 116.488 6.3296 116.107C6.49369 115.536 6.98595 114.961 7.25668 114.416C7.757 113.409 8.14959 112.275 8.48691 111.206C9.21226 108.909 9.77199 106.515 9.4708 104.094C9.37112 103.293 9.01095 102.175 9.11911 101.399C9.24316 100.508 16.7926 95.5341 18.0716 94.5515C17.8515 93.6325 17.6415 92.711 17.4413 91.7872C16.6892 91.3626 16.1097 90.8349 15.8439 89.9842C15.8196 89.9087 15.7991 89.8323 15.7826 89.7546C15.766 89.6771 15.7536 89.599 15.7451 89.52C15.7367 89.4412 15.7323 89.3622 15.7321 89.2828C15.7319 89.2036 15.7356 89.1246 15.7434 89.0456C15.7512 88.9666 15.7632 88.8885 15.7791 88.8108C15.795 88.7331 15.8148 88.6565 15.8387 88.5807C15.8624 88.5052 15.8901 88.431 15.9216 88.3581C15.9532 88.2854 15.9882 88.2145 16.027 88.1453C16.4281 87.4449 17.0537 87.127 17.7982 86.9026C18.0772 86.5451 18.3671 86.1649 18.709 85.8639C20.749 84.0694 22.6495 85.2704 24.9309 85.3616L25.1048 85.3673C25.6495 84.7118 25.8057 83.8691 26.1888 83.124C26.6062 82.3116 27.2915 81.7897 28.1615 81.517C28.7674 81.3273 29.5598 81.2761 30.1282 81.6078C30.3907 81.761 30.5641 81.9989 30.6168 82.2994C30.721 82.8924 30.3802 83.712 30.0281 84.176C29.3171 85.1124 28.4888 84.7053 27.5285 84.9507C27.261 85.0191 27.1259 85.1205 26.9905 85.3514L27.1761 85.5155C27.8997 85.6524 28.3295 85.4269 29.0103 85.2998C31.6509 84.8075 31.3443 86.4939 32.7961 87.3851C32.9449 87.4765 32.9084 87.4467 33.091 87.4042C33.9329 86.3849 32.5114 75.4806 32.3219 73.2765C31.9079 68.4587 32.4984 64.4117 35.1971 60.3332C36.4254 58.4769 37.4622 56.824 37.986 54.6288C38.6008 52.0519 38.4082 49.4167 38.4086 46.7924C38.4228 43.5776 38.4038 40.3631 38.3518 37.1487C37.635 36.0895 37.2237 35.1496 37.366 33.8252C37.7362 30.3808 40.6643 31.9623 41.6456 31.1479C41.698 31.0158 41.8689 30.6742 41.7681 30.5325C41.3997 30.0141 40.3566 30.0391 39.8262 28.6605C39.0913 26.7504 40.3936 24.1435 41.0658 22.3657C41.3485 21.6175 41.5661 20.8482 41.9026 20.1211Z" fill="black" fill-opacity="0.5"/>
<path d="M167.38 85.0781C167.588 85.1014 167.679 85.1066 167.863 85.2152C168.002 85.8949 167.911 86.6209 167.799 87.3007C167.586 87.2159 167.382 87.1545 167.233 86.9702C166.921 86.5852 167.288 85.5338 167.38 85.0781Z" fill="white"/>
<path d="M25.872 86.6602C26.1607 86.7614 26.5895 86.8569 26.7816 87.1096C27.0302 87.4364 26.9348 87.9217 26.8959 88.3006C26.5231 88.2947 26.2928 88.3039 25.9777 88.0978C25.7575 87.6926 25.8552 87.1119 25.872 86.6602Z" fill="white"/>
<path d="M20.9487 86.3047C21.0529 86.3439 20.987 86.3108 21.1191 86.4455C21.0886 86.8348 21.0971 87.346 20.8451 87.6672C20.6544 87.9097 20.3204 87.8326 20.0429 87.8385C19.9787 87.7856 19.8562 87.6903 19.81 87.6246C19.7182 87.4938 19.7045 87.373 19.7574 87.2279C19.9262 86.765 20.5384 86.5256 20.9487 86.3047Z" fill="white"/>
<path d="M160.258 90.5582C160.499 90.2555 160.484 90.1898 160.888 90.1401C161.414 90.0753 162.111 90.0577 162.513 90.4925C162.773 90.773 162.66 91.0999 162.639 91.4478C162.211 91.1319 162 91.1279 161.487 91.1386L161.364 90.7621L161.168 90.6901C160.955 90.8492 161 90.9412 160.952 91.1932C160.65 91.0587 160.423 90.8418 160.258 90.5582Z" fill="white"/>
<path d="M143.141 60.5938C143.545 60.6005 143.889 60.6088 144.224 60.8603C144.929 61.3892 145.154 62.2899 145.276 63.1189C145.131 63.1006 144.98 63.0873 144.842 63.0357C143.966 62.7093 143.462 61.3987 143.141 60.5938Z" fill="white"/>
<path d="M23.0082 86.7578C23.3918 86.7615 23.8282 86.8076 24.115 87.0964C24.2889 87.2712 24.377 87.4879 24.3346 87.7336C24.2758 88.0731 23.9907 88.2649 23.7363 88.4566C23.4116 88.4945 23.11 88.5127 22.8195 88.3321C22.5921 88.1904 22.4704 88.0028 22.4615 87.7323C22.4471 87.2879 22.7155 87.0394 23.0082 86.7578Z" fill="white"/>
<path d="M169.222 87.9688C169.719 88.0458 170.34 88.1735 170.692 88.5531L170.662 88.7603C170.433 88.9211 170.256 88.9598 169.989 89.021C169.005 88.4077 168.922 88.9962 168.033 88.9165C167.806 88.8961 167.563 88.841 167.335 88.8049C166.783 88.6891 166.031 88.9731 165.406 88.8921C166.25 88.221 168.046 88.3616 169.099 88.011C169.14 87.9973 169.181 87.9829 169.222 87.9688Z" fill="white"/>
<path d="M29.725 86.6602C29.9822 86.7964 30.3054 87.0118 30.449 87.2706C30.5674 87.4841 30.5792 87.7598 30.479 87.9822C30.2795 88.4253 29.9015 88.5256 29.4738 88.6399C29.1289 88.4982 28.7992 88.327 28.631 87.9714C28.5211 87.7385 28.5298 87.4832 28.658 87.2595C28.8954 86.8456 29.2969 86.7548 29.725 86.6602Z" fill="white"/>
<path d="M66.0402 84.8633C67.223 85.4108 68.5011 86.2006 69.5472 86.9686C69.9457 87.2613 70.4418 87.6054 70.5232 88.1113C70.4527 88.1083 70.3822 88.1046 70.3115 88.1024C69.0826 88.0637 68.831 86.838 67.7896 86.477C67.1583 86.258 66.5646 86.6635 66.0025 86.1157C65.8706 85.7192 65.9851 85.2692 66.0402 84.8633Z" fill="white"/>
<path d="M45.1096 86.7079L46.4448 86.6953C45.9046 87.4387 45.3499 88.1588 44.7614 88.8648C44.5871 88.8448 44.3464 88.8128 44.1876 88.7414C43.8825 88.6043 43.5995 88.2248 43.5351 87.8953C43.4801 87.6124 43.5754 87.3214 43.7484 87.0971C44.0746 86.6742 44.6267 86.7314 45.1096 86.7079Z" fill="white"/>
<path d="M110.849 90.4861C111.25 90.4535 111.908 90.3625 112.275 90.5168C112.727 90.7066 112.833 91.5673 112.963 91.9891L111.344 92.0678C110.651 92.1007 109.79 92.2487 109.19 91.8354L109.152 91.5436C109.516 91.0668 110.297 90.697 110.849 90.4861Z" fill="white"/>
<path d="M123.26 89.6211L123.402 89.7097C123.321 90.181 123.234 90.6511 123.14 91.1199C123.393 91.4622 123.695 91.7758 123.977 92.0946C122.916 92.1086 121.849 92.0541 120.788 92.0243C120.458 92.0287 120.076 92.0964 119.828 91.87L119.855 91.5675C120.59 90.4624 122.02 89.899 123.26 89.6211Z" fill="white"/>
<path d="M42.9001 90.2684C43.1785 90.2525 43.5093 90.2163 43.7722 90.3289C44.3606 90.5804 44.4557 92.0072 44.696 92.5993L44.7569 92.7456L42.5809 92.6248C42.2594 92.5837 41.9356 92.5367 41.6179 92.4729C41.2771 92.4046 41.098 92.2783 40.9025 91.9856C40.8845 91.7373 40.869 91.6522 40.9985 91.4279C41.3502 90.8181 42.2588 90.4555 42.9001 90.2684Z" fill="white"/>
<path d="M115.116 90.29C115.438 90.2583 115.76 90.2319 116.084 90.2346C117.587 90.2465 118.4 91.0543 119.398 92.0441L118.347 92.0855C117.191 92.0724 115.227 92.4328 114.211 91.9227C114.12 91.7871 114.035 91.7362 114.064 91.5625C114.15 91.0432 114.742 90.6219 115.116 90.29Z" fill="white"/>
<path d="M125.689 88.8281C126.04 88.8353 126.441 88.8734 126.785 88.9565C127.232 89.0647 127.648 89.441 127.863 89.8407C128.04 90.1687 128.084 90.5426 127.966 90.8977C127.772 91.4836 127.363 91.7659 126.827 92.0146C126.547 92.0248 126.262 92.0298 125.982 92.017C125.926 92.0146 125.869 92.0094 125.813 92.0013C125.756 91.993 125.701 91.9819 125.646 91.968C125.591 91.9541 125.536 91.9373 125.483 91.9178C125.43 91.8982 125.378 91.876 125.327 91.8509C125.276 91.8259 125.226 91.7985 125.178 91.7685C125.13 91.7382 125.083 91.7058 125.038 91.671C124.993 91.6359 124.951 91.5987 124.909 91.5593C124.869 91.5199 124.83 91.4786 124.793 91.4353C124.556 91.1604 124.456 90.8259 124.497 90.4662C124.581 89.7321 125.137 89.2508 125.689 88.8281Z" fill="white"/>
<path d="M122.001 82.7533C122.749 82.7084 123.337 82.7494 124.023 83.0821C124.739 83.4288 125.528 83.9535 125.785 84.7367C125.742 85.0133 125.735 85.0309 125.541 85.232C125.251 85.2623 125.044 85.3269 124.782 85.4433L124.693 85.4836C124.249 85.563 123.781 85.8037 123.358 85.9682C122.786 85.7215 122.211 85.4827 121.633 85.2523C121.884 84.4854 121.621 83.3831 122.001 82.7533Z" fill="white"/>
<path d="M42.6478 23.1836C42.8848 23.4319 43.0635 23.7714 43.2088 24.083C43.6265 24.9779 44.2991 27.2791 43.8154 28.1994C43.6613 28.4923 43.5986 28.505 43.3029 28.5979C43.0308 28.2053 42.8535 27.9968 42.3954 27.8312C42.359 27.8179 42.322 27.8066 42.2852 27.7944C42.0245 28.0865 41.9353 28.4482 41.8119 28.8116L41.6937 28.8168C41.5436 28.6349 41.3688 28.4375 41.2855 28.214C40.764 26.814 42.0548 24.4304 42.6478 23.1836Z" fill="white"/>
<path d="M105.445 88.8594C105.815 88.8833 106.215 88.9207 106.529 89.1355C106.576 89.168 106.622 89.203 106.665 89.2407C106.709 89.2781 106.75 89.3177 106.79 89.3597C106.829 89.4017 106.866 89.4454 106.901 89.4914C106.935 89.5373 106.968 89.5847 106.997 89.6341C107.027 89.6835 107.054 89.7342 107.078 89.7865C107.102 89.8387 107.123 89.892 107.141 89.9464C107.16 90.001 107.175 90.0563 107.188 90.1125C107.2 90.1686 107.21 90.2252 107.216 90.2824C107.222 90.341 107.225 90.3997 107.225 90.4587C107.225 90.5177 107.222 90.5764 107.217 90.6352C107.211 90.6937 107.202 90.7521 107.19 90.8097C107.179 90.8674 107.164 90.9244 107.147 90.9808C107.129 91.0371 107.109 91.0924 107.086 91.1466C107.063 91.2008 107.038 91.2539 107.009 91.3057C106.981 91.3573 106.95 91.4075 106.917 91.4561C106.884 91.5046 106.848 91.5514 106.81 91.5964C106.387 92.1039 105.981 92.1335 105.347 92.1745C104.966 92.1673 104.367 92.2171 104.013 92.0704C103.7 91.9403 103.447 91.5631 103.384 91.2448C103.304 90.8382 103.466 90.3954 103.681 90.0559C104.125 89.3551 104.649 89.028 105.445 88.8594Z" fill="white"/>
<path d="M169.43 80.0988C169.684 80.0966 170.007 80.0555 170.238 80.17C170.608 80.3525 172.295 85.5734 172.605 86.3546C172.278 86.8127 171.896 87.2147 171.515 87.6269L171.283 87.781C170.665 87.7749 169.898 86.8082 169.48 86.3947C169.794 84.8493 170.385 82.5155 170.108 80.9767C170.023 80.5049 169.797 80.3558 169.43 80.0988Z" fill="white"/>
<path d="M43.6253 33.1145C44.1722 33.0988 45.1735 32.9781 45.6486 33.249C45.901 33.3931 45.9759 33.5774 46.0129 33.8505C46.0647 34.234 46.0203 34.7091 45.7397 35.0011C45.1482 35.6168 42.0014 35.3067 40.9964 35.3023C40.8747 35.3073 40.7531 35.3119 40.6314 35.3156C40.066 35.3328 39.6708 35.405 39.2323 34.9931C39.0173 34.4653 39.0848 33.8283 39.0826 33.2649C39.9905 33.1983 40.9098 33.2188 41.8201 33.2133C42.1413 33.4692 42.3887 33.6871 42.8131 33.7256C43.1718 33.6342 43.3759 33.37 43.6253 33.1145Z" fill="white"/>
<path d="M170.552 91.1806C170.865 90.8786 171.14 90.5521 171.572 90.4335C172.453 90.6294 172.921 90.6892 173.794 90.4135C174.196 90.4949 174.589 90.77 174.978 90.6964L175.295 90.1652L175.445 90.1484C175.755 90.6559 175.994 91.2326 176.158 91.805L176.146 91.8381C175.848 91.6533 175.513 91.3486 175.167 91.3991L175.065 91.4942C174.87 91.6731 174.664 91.9245 174.38 91.9169C173.514 91.8936 172.711 91.6857 171.826 91.7301C171.753 91.7336 171.68 91.7275 171.608 91.7393C171.376 91.7776 171.219 91.9534 171.041 92.0896C170.883 92.2093 170.761 92.2348 170.568 92.2548C170.292 92.1573 170.105 92.0056 169.88 91.8257L169.612 91.8074C169.492 91.9462 169.376 92.0857 169.265 92.2324C168.831 92.3071 168.543 92.134 168.2 91.8947C168.022 91.7691 167.847 91.6385 167.675 91.5034L167.453 91.9408C166.995 91.9491 167.091 91.6218 166.6 92.0372C166.25 91.8807 166.373 91.5678 166.001 91.5985L165.899 91.672C165.658 91.8422 165.495 91.9832 165.186 91.9852C164.955 91.8289 164.782 91.6653 164.587 91.4677L164.307 91.4159C164.27 91.4483 164.234 91.4814 164.196 91.5134C164.023 91.6618 164.091 91.6072 163.879 91.743C163.639 91.5952 163.431 91.4296 163.216 91.2492C163.006 91.3219 162.963 91.3658 162.811 91.5175L162.637 91.4446C162.796 91.0596 162.922 90.6255 163.335 90.4479C163.555 90.3537 163.674 90.3245 163.893 90.4435C163.971 90.4862 164.097 90.595 164.169 90.6544C164.6 90.6026 165.116 90.2794 165.486 90.5933C165.589 90.6807 165.685 90.7785 165.781 90.8736C166.089 90.9304 166.115 90.9665 166.371 90.7706C166.439 90.7191 166.536 90.6268 166.602 90.5667C167.004 90.4927 167.224 90.5674 167.598 90.7156C169.06 91.2951 168.815 89.8636 170.552 91.1806Z" fill="white"/>
<path d="M93.1427 79.668C93.3536 79.8797 94.1525 82.2177 94.6098 82.8455C95.9064 84.6261 97.8735 85.946 99.0521 87.7939C98.5479 87.8468 98.0341 87.8515 97.5272 87.8731C95.7621 86.2748 93.8572 85.2044 91.6914 84.2568C91.8303 82.7086 92.2387 80.9548 93.1427 79.668Z" fill="white"/>
<path d="M177.119 69.5664C177.162 69.576 177.208 69.5775 177.248 69.5956C178.657 70.2217 177.891 73.1879 178.388 74.3235C178.483 74.5385 178.468 74.4168 178.447 74.6382C177.288 74.8314 175.969 74.7063 174.789 74.6984C174.358 74.7039 173.821 74.7844 173.426 74.6116L173.501 74.4062C173.534 74.3117 173.564 74.2155 173.602 74.1228C173.867 73.4852 173.822 73.0517 173.759 72.3788C174.076 72.2123 174.401 72.0613 174.725 71.9072C174.715 71.4715 174.715 71.0504 174.755 70.616C174.831 70.5827 174.95 70.529 175.024 70.5089C175.8 70.2998 176.335 69.7257 177.119 69.5664Z" fill="white"/>
<path d="M195.799 61.9609C196.293 61.9936 196.942 62.29 197.43 62.4388C197.825 62.9786 198.015 63.1298 198.673 63.2719L198.836 63.3054C198.958 64.1492 199.187 64.1193 199.802 64.6097C199.898 65.1 199.896 65.7711 199.77 66.2527C198.729 65.9409 198.063 66.2762 197.063 66.5498L196.737 66.3574C196.473 66.1515 196.21 65.9524 195.92 65.7848C195.719 65.6686 195.309 65.444 195.078 65.5626C194.987 65.6094 194.973 65.6688 194.937 65.7557C194.833 66.0081 194.742 66.3367 194.559 66.5452C194.39 66.738 194.195 66.7622 193.955 66.7698C193.723 66.6259 193.725 66.6151 193.629 66.358C193.82 66.0334 194.151 66.098 194.433 65.8543C194.395 65.6066 194.44 65.7193 194.28 65.5019C193.416 64.3296 194.445 64.1862 194.033 62.8867L193.982 62.7329C194.604 62.4745 195.206 62.2933 195.799 61.9609Z" fill="white"/>
<path d="M17.9858 88.5664C19.2008 89.4939 20.0619 89.5492 21.5191 89.3549C21.8488 89.5631 22.1931 89.8014 22.5639 89.9274C23.5086 90.2489 24.3263 89.6236 25.2564 89.6665C25.7003 89.687 26.2094 89.9564 26.647 89.8828C26.8786 89.8439 27.1238 89.6959 27.3291 89.5864C27.8712 89.2965 29.1506 90.3879 30.0293 90.1945C30.8298 90.0184 31.3797 89.3229 31.8104 88.6807C32.5144 88.887 33.2045 89.083 33.8711 89.3942C33.8963 89.6484 33.9309 89.779 33.7512 89.9938C33.3577 90.4639 32.492 90.6075 31.9127 90.6941C29.0228 91.1263 19.8732 91.6142 17.7566 89.9263C17.5155 89.734 17.4528 89.5401 17.418 89.2393C17.5603 88.8726 17.6852 88.8082 17.9858 88.5664Z" fill="white"/>
<path d="M62.2837 80.8906C62.3159 80.8913 62.3483 80.8915 62.3808 80.8926C62.8171 80.9076 63.1433 80.9992 63.4371 81.3415C63.6787 81.6227 63.779 81.984 63.7418 82.3511C63.7031 82.7335 63.4804 83.1154 63.1775 83.3483L62.6502 83.7528C62.8069 83.878 63.1311 83.8575 63.3283 83.8523C63.5083 83.8477 63.693 83.8347 63.8726 83.8481C64.1614 83.8701 64.4119 84.0486 64.5723 84.2849C64.7407 84.5332 64.7592 84.7878 64.6828 85.0712C64.5905 85.4129 64.2713 85.7243 63.9686 85.8871C63.0236 86.3954 61.4772 85.7419 60.502 85.4725C58.9765 84.9739 57.7915 84.1929 56.3867 83.4514C56.891 83.3583 57.4509 83.3337 57.9338 83.162C59.191 82.7148 60.7827 81.4869 62.2837 80.8906Z" fill="white"/>
<path d="M177.738 62.3672C178.296 62.4434 178.506 62.8834 179.006 63.0203C179.701 63.2105 180.502 63.0477 181.158 63.3933C181.436 63.7931 181.742 64.16 182.055 64.5321C181.763 64.968 180.668 64.8216 180.233 65.163C179.68 65.5967 179.209 66.5291 179.123 67.2011C179.118 67.2422 179.114 67.2833 179.109 67.3245L178.996 67.3704C178.746 67.3138 178.493 67.2374 178.235 67.2685C177.931 67.3049 177.666 67.6666 177.508 67.9023C177.49 67.929 177.473 67.9565 177.455 67.9834C177.206 67.7784 176.955 67.5645 176.659 67.4294C176.211 67.2244 175.926 67.3434 175.491 67.5123L175.36 67.5647C175.006 67.4389 174.652 66.9549 174.404 66.6744C174.07 66.2962 173.895 66.1661 173.397 66.0179C173.185 65.955 173.171 65.8533 173.047 65.6771L173.082 65.8094L173.102 65.6999L173.238 65.6409L173.414 65.5626C173.469 65.5386 173.525 65.5191 173.579 65.4927C174.166 65.2046 173.876 64.8375 174.013 64.377C174.168 63.8523 174.835 64.0053 175.158 63.0488L175.203 62.9119C175.694 62.9267 176.186 62.9535 176.677 62.9748C177.052 62.8127 177.392 62.5829 177.738 62.3672Z" fill="white"/>
<path d="M172.364 67.3984C172.377 67.4 172.389 67.4006 172.401 67.4028C173.106 67.529 173.561 68.3571 173.958 68.8942C173.657 69.1527 173.378 69.386 173.149 69.7124C172.996 71.4624 172.332 70.6243 171.971 71.4726C171.697 72.1163 172.243 72.7507 171.906 73.4895C171.728 73.8798 171.614 74.2473 171.5 74.6595L168.967 74.6854C168.739 74.6974 168.487 74.7209 168.259 74.7C167.676 74.6464 167.324 74.0403 166.988 73.6197C167.262 73.3716 167.617 73.0993 167.826 72.794C168.155 72.3135 167.929 71.6436 167.826 71.1233C168.617 70.2643 168.05 69.9756 168.426 69.2546C168.657 68.8104 169.299 68.635 169.592 68.0835C170.662 67.9969 171.422 67.9549 172.364 67.3984Z" fill="white"/>
<path d="M127.614 86.0466C128.1 85.9946 128.599 86.0812 129.067 86.2109C130.326 86.56 131.447 87.3308 132.069 88.5038C132.688 89.6731 132.594 90.8692 132.211 92.0887C131.115 92.0907 130.018 92.1038 128.922 92.057L128.844 91.944C128.969 91.7569 129.087 91.5682 129.16 91.354C129.42 90.5893 129.29 89.7514 128.904 89.0529C128.346 88.044 127.548 87.6853 126.502 87.3734C125.633 87.5946 124.98 87.8742 124.284 88.4374L123.88 88.7628L123.867 88.5495C123.077 88.4605 122.105 88.4624 121.329 88.6472C120.237 88.9066 119.713 89.3943 119.152 90.3258C119.147 90.3221 119.142 90.319 119.139 90.3147C118.31 89.3854 117.638 89.0792 116.457 88.7834C116.58 88.5221 116.705 88.2605 116.861 88.0168C117.346 87.2557 118.069 86.504 118.993 86.3402C119.713 86.212 120.072 86.4914 120.635 86.869C121.006 86.6979 121.415 86.5008 121.831 86.5019C122.472 86.5036 122.859 86.9473 123.287 87.3543C124.74 86.8625 126.077 86.2388 127.614 86.0466Z" fill="white"/>
<path d="M85.9141 74.1016C85.9704 74.1305 85.9898 74.1355 86.0392 74.191C86.2997 74.4828 86.4932 75.4069 86.659 75.7943C87.5913 77.9722 88.9985 79.7102 90.8646 81.1724C90.5171 82.2501 90.3412 83.2429 90.2796 84.3726C89.9719 84.6492 89.5406 85.1885 89.1369 85.2166C88.4951 84.8207 87.8575 84.4183 87.2239 84.0096C85.9641 83.1894 84.2125 81.9167 83.9252 80.3465C83.5611 78.3546 84.7748 75.6817 85.9141 74.1016Z" fill="white"/>
<path d="M111.623 82.3315C111.923 82.2949 112.211 82.274 112.515 82.2836C113.952 82.3284 114.749 82.9608 115.685 83.961C115.534 84.0154 115.385 84.0735 115.235 84.1293C114.462 84.4156 114.085 85.1614 113.354 85.4824C112.649 85.7919 111.896 84.7943 111.231 84.5506C110.69 84.3525 110.123 84.3943 109.607 84.6418C109.167 84.8522 108.416 85.349 108.298 85.8537C108.233 86.1331 108.264 86.1949 108.426 86.4004C109.327 86.7201 110.412 86.0219 111.357 86.0139L111.484 86.1471C111.345 86.6084 110.867 87.0082 110.542 87.3573L110.932 88.8524C110.057 89.0789 109.369 89.3625 108.625 89.8691C108.415 89.1753 108.161 88.4733 107.615 87.9684C106.911 87.3164 106.051 87.3009 105.151 87.3209C104.161 87.4816 103.241 87.86 102.601 88.665C101.788 89.688 101.772 90.865 101.903 92.0976C101.185 92.1511 100.437 92.2427 99.7174 92.2029C99.3322 92.1816 99.2147 92.0784 98.9661 91.7938C98.9017 91.5448 98.8708 91.3396 98.93 91.0848C99.1435 90.1664 99.4027 89.71 100.219 89.2184C100.441 88.5059 100.573 87.815 100.992 87.181C102.349 85.1297 103.185 86.9862 104.707 86.588C105.259 86.4435 105.487 85.8528 105.742 85.396C106.428 85.4635 107.149 85.7651 107.814 85.4957C108.259 85.0851 108.29 84.5547 108.363 83.9832C109.307 82.9068 110.268 82.615 111.623 82.3315Z" fill="white"/>
<path d="M160.699 92.8164C160.932 92.8451 161.14 92.8745 161.361 92.9561C162.779 93.4778 164.258 93.6338 165.604 94.3683C166.109 94.1652 166.582 93.8993 167.062 93.6429C167.143 93.6706 167.226 93.695 167.306 93.725C167.828 93.9206 168.118 93.7805 168.626 93.8473C168.994 93.8958 169.303 94.2551 169.659 94.3644C170.271 94.5526 170.525 94.0096 170.978 93.7877C171.236 93.6608 173.115 93.7426 174.006 93.2658C174.039 93.2484 174.068 93.2262 174.099 93.2066C174.01 93.9476 173.424 94.8616 173.072 95.5228C172.031 97.1282 170.654 98.1693 168.765 98.5632C168.662 98.5854 168.559 98.605 168.455 98.622C168.351 98.6392 168.247 98.6535 168.143 98.6653C168.039 98.6768 167.934 98.686 167.829 98.6925C167.724 98.6988 167.619 98.7027 167.514 98.7038C167.409 98.7049 167.304 98.7034 167.199 98.6992C167.094 98.6951 166.989 98.6884 166.885 98.6788C166.78 98.6694 166.675 98.6572 166.571 98.6424C166.467 98.6279 166.364 98.6105 166.261 98.5904C166.157 98.5704 166.055 98.5478 165.953 98.5228C165.851 98.4975 165.749 98.4697 165.649 98.4394C165.548 98.4092 165.448 98.3763 165.349 98.3408C165.25 98.3056 165.152 98.2677 165.055 98.2274C164.958 98.1872 164.862 98.1443 164.768 98.099C164.673 98.054 164.579 98.0063 164.487 97.9565C164.394 97.9066 164.303 97.8544 164.213 97.7998C164.123 97.7454 164.035 97.6886 163.948 97.6296C163.844 97.5615 163.742 97.4908 163.642 97.4174C163.541 97.3441 163.443 97.2684 163.346 97.1902C163.25 97.1121 163.155 97.0316 163.063 96.9487C162.97 96.8658 162.88 96.7809 162.791 96.6936C162.703 96.6063 162.617 96.5169 162.533 96.4253C162.449 96.3337 162.367 96.2401 162.288 96.1445C162.209 96.049 162.132 95.9515 162.057 95.8521C161.983 95.7526 161.911 95.6514 161.841 95.5485C161.772 95.4455 161.705 95.3409 161.641 95.2347C161.576 95.1282 161.515 95.0205 161.456 94.9113C161.397 94.802 161.34 94.6912 161.287 94.5792C161.233 94.4671 161.183 94.3537 161.135 94.239C161.087 94.1243 161.042 94.0088 161 93.8919C160.958 93.775 160.918 93.6573 160.882 93.5385C160.845 93.4197 160.812 93.3 160.781 93.1796C160.751 93.0593 160.724 92.9381 160.699 92.8164Z" fill="white"/>
<path d="M186.975 58.6602C187.137 58.7385 187.261 58.8021 187.445 58.804C187.658 58.8062 187.843 58.8088 188.053 58.8628C188.542 58.9883 189.563 59.1999 189.831 59.6545C189.824 59.7209 189.793 59.9705 189.802 60.0295C189.84 60.3013 190.103 60.4099 190.308 60.5576C191.21 61.2059 190.554 61.3319 190.876 62.0817C191.056 62.5008 191.594 62.6803 191.961 62.878C192.201 63.0072 192.347 63.098 192.385 63.3966C192.435 63.7859 192.215 64.0816 192.007 64.383C192.332 64.8572 192.618 65.3569 192.913 65.8498C192.731 66.2753 192.552 66.6981 192.221 67.0309C191.628 67.625 190.989 68.0925 190.128 68.0977C189.833 67.9258 189.849 67.7915 189.742 67.4753C189.175 66.8281 187.913 65.3523 187.142 65.0078C186.786 65.022 186.416 65.0914 186.104 64.8879C185.119 63.2081 184.387 64.5036 183.41 64.1872C183.466 64.0971 183.563 63.9493 183.607 63.8581C183.895 63.2653 183.373 62.8775 183.16 62.3489C183.41 62.214 183.676 62.0899 183.886 61.8958C184.175 61.6273 184.127 60.8688 184.142 60.4947C184.872 60.3004 184.996 60.1313 185.401 59.5394C185.539 59.4532 185.632 59.4199 185.796 59.4077C185.95 59.3964 186.124 59.4025 186.275 59.3711C186.568 59.3106 186.731 59.0051 186.893 58.777L186.975 58.6602Z" fill="white"/>
<path d="M19.4609 92.3789C20.8574 92.4973 22.2387 92.711 23.6413 92.7931C26.4928 92.96 29.2878 92.7661 32.1267 92.5014C31.7783 93.9641 31.3905 95.1817 30.31 96.2777C29.4306 97.0023 28.5191 97.6604 27.5794 98.3024C26.124 98.3005 24.6276 98.3727 23.1801 98.2147C22.6285 97.8113 22.0598 97.4134 21.5364 96.9741C19.9959 95.6807 19.6211 94.286 19.4609 92.3789Z" fill="white"/>
<path d="M195.545 67.5508C195.795 67.5691 196.065 67.7429 196.316 67.8041C197.06 67.9849 197.907 67.8674 198.653 67.7508L199.639 68.3264C199.674 68.63 199.717 68.8798 199.833 69.1675C200.122 69.438 200.605 69.4276 200.986 69.4702L201.334 70.6626C201.635 70.8389 201.896 70.996 202.142 71.245C202.068 72.1472 201.553 73.7078 200.986 74.4064C199.805 74.6384 198.384 74.47 197.168 74.4617C194.922 74.4552 192.679 74.5781 190.434 74.5559C190.681 74.2676 190.99 73.9537 191.134 73.5981C191.441 72.8439 190.98 72.1244 190.665 71.4563L191.179 71.2613C192.861 70.6378 191.718 69.9536 192.953 68.62C193.156 68.6494 193.355 68.6822 193.56 68.6829C193.939 68.6842 194.119 68.5923 194.382 68.3244C194.766 67.9334 195.032 67.7471 195.545 67.5508Z" fill="white"/>
<path d="M184.547 65.875C185.073 65.9409 185.496 66.5851 186.15 66.7063C186.172 66.7102 186.482 66.7623 186.516 66.7736C186.927 66.9076 187.042 67.3281 187.2 67.6915C187.463 67.9287 187.67 67.9416 188.006 67.981C188.049 67.986 188.092 67.9901 188.136 67.9947C188.153 68.3426 187.873 68.7905 187.73 69.113C187.886 69.3716 188.041 69.631 188.227 69.8699C188.92 70.7594 188.569 70.7132 188.835 71.6075C188.946 71.9807 189.311 72.3946 189.538 72.7132C188.845 73.2777 188.821 73.6903 188.692 74.5269L188.39 74.501L188.279 74.6024C186.843 74.4982 185.342 74.5878 183.899 74.5933L180.633 74.6183C180.42 74.3158 180.191 74.027 180.063 73.6769C180.954 72.6329 180.408 72.792 180.135 71.7759C180.049 71.456 180.205 70.9659 180.273 70.6456C179.954 70.3143 179.577 69.999 179.414 69.5605L179.492 69.434C179.579 69.4371 179.667 69.4384 179.755 69.438C181.265 69.4286 180.436 67.3004 181.149 66.5657C182.063 66.8506 183.654 66.1703 184.547 65.875Z" fill="white"/>
<path d="M61.293 75.4883C62.7857 76.1135 64.1859 77.1026 65.5828 77.9141C67.1138 78.8034 68.7638 79.5768 70.1368 80.7034C71.8467 82.1063 73.2872 83.7558 75.1579 84.9798C76.814 86.0635 79.945 87.176 81.1758 88.3488L72.3133 88.2955C70.5055 85.9184 68.1899 84.1469 65.5952 82.7078C64.43 80.5346 63.6509 77.9692 61.5835 76.4946C61.5189 76.1542 61.3963 75.8193 61.293 75.4883Z" fill="white"/>
<path d="M76.2852 76.5078C78.4312 76.8673 80.5419 78.3635 82.2977 79.5935C82.299 79.6336 82.2997 79.6738 82.3014 79.7139L82.3112 79.9139C82.3249 80.2196 82.3399 80.518 82.4054 80.8183C83.1077 84.0437 86.5669 85.7175 89.0806 87.3899C89.6291 86.9466 90.2443 86.3227 90.93 86.1262C91.9307 85.8394 93.3803 87.0213 94.2377 87.5262C94.4732 87.6692 94.6699 87.7801 94.8355 88.0084C93.9097 88.1769 92.8686 88.1457 91.9265 88.1941C89.2214 88.3562 86.514 88.4195 83.8043 88.3843C82.2189 87.1188 80.6877 85.976 78.8651 85.0727C77.9204 82.2368 76.9937 79.414 76.2852 76.5078Z" fill="white"/>
<path d="M189.721 76.2663C193.71 76.1627 197.708 76.2106 201.698 76.2082C201.526 76.9734 201.279 77.6767 200.939 78.3821C198.725 78.4748 196.482 78.4152 194.265 78.4191L180.745 78.3914C176.943 78.394 173.135 78.319 169.334 78.3916C169.019 77.7205 168.881 77.0326 168.742 76.3105C175.735 76.3834 182.728 76.3686 189.721 76.2663Z" fill="white"/>
<path d="M188.293 122.043L194.636 122.056C194.614 123.388 194.797 133.744 194.485 134.23C192.425 134.262 190.365 134.27 188.304 134.255C188.343 130.178 188.404 126.12 188.293 122.043Z" fill="white"/>
<path d="M21.1797 122.044C23.2848 122.03 25.3896 122.028 27.4947 122.036L27.4632 134.176L21.1893 134.22L21.1797 122.044Z" fill="white"/>
<path d="M18.459 96.4414C19.8017 97.5992 21.2459 98.7091 22.3738 100.083C24.4484 100.086 26.5226 100.067 28.5968 100.026C28.9135 99.7619 29.1659 99.4216 29.4712 99.1415C30.4138 98.2769 31.4174 97.5635 32.2457 96.5735L40.7464 96.5372C42.7359 98.3417 44.8203 99.7954 47.2949 100.865L44.458 100.884L12.2852 100.858C14.2549 99.2984 16.5937 98.1208 18.459 96.4414Z" fill="white"/>
<path d="M117.799 93.7885C122.176 93.7539 126.553 93.7594 130.931 93.8049C132.721 93.816 134.672 93.6207 136.437 93.8218C136.66 94.0257 136.647 94.0971 136.714 94.397C136.658 94.6105 136.609 94.7245 136.457 94.8928C135.923 95.4832 134.746 95.7839 133.996 96.0024C127.946 97.765 121.389 97.6457 115.145 97.6261C110.897 97.5976 106.565 97.2679 102.378 96.533C100.993 96.2901 96.9301 95.6699 96.1726 94.5922C96.1441 94.3376 96.1373 94.3472 96.2859 94.1396C97.3564 93.6062 115.176 93.8077 117.799 93.7885Z" fill="white"/>
<path d="M97.6225 89.4414C97.6436 89.9069 97.2218 91.1101 97.2621 92.1275C94.776 92.6851 92.3806 93.0253 89.8356 93.1508C89.1373 94.2666 88.7547 95.4589 87.4518 96.0296C85.151 97.0369 79.8469 97.1708 77.5185 96.163C76.1122 95.5545 75.7375 94.4481 75.2313 93.1149C74.7011 93.0844 74.1708 93.0577 73.6402 93.0346L71.4672 92.8757C70.8959 92.3591 70.5362 92.1883 69.7734 92.0629C70.299 91.2716 70.5151 90.7195 70.6069 89.7722C79.2068 90.0438 89.1049 90.5498 97.6225 89.4414Z" fill="white"/>
<path d="M68.3944 93.7623C68.9049 93.7294 69.5051 93.6415 70.0074 93.7422C70.3512 93.811 70.6063 93.924 70.812 94.216C70.8664 94.4922 70.8333 94.6717 70.6927 94.9124C69.3049 97.2897 64.861 99.5015 62.3039 100.194C60.8737 100.582 51.755 100.41 50.1223 100.032C48.4756 99.6521 47.0534 98.9169 45.5927 98.0976C43.8752 97.066 42.3301 95.8941 41.0234 94.3694C42.9168 94.5296 44.8484 94.3945 46.7481 94.4447C51.627 94.574 56.4972 94.7962 61.3797 94.6658C63.1951 94.6175 65.1089 94.626 66.8954 94.2774C67.4124 94.1764 67.9088 93.9618 68.3944 93.7623Z" fill="white"/>
<path d="M53.992 83.9141C55.6384 84.0886 57.3343 85.6886 58.805 86.4411C60.1354 87.1216 61.6137 87.3075 63.0193 87.7665L63.1569 87.8124C63.4946 88.1734 63.6809 88.3234 63.6859 88.8426C63.689 89.1466 63.7136 89.4002 63.7719 89.6983C64.0095 89.9236 64.0398 89.8935 64.3725 89.9125C64.8685 89.4951 64.9458 87.818 65.1175 87.1406C66.0989 87.4537 67.2014 87.5752 68.0232 88.2448C68.4822 88.6191 68.8291 89.1362 68.8789 89.7366C68.9411 90.4872 68.5596 91.2267 68.0719 91.7729C66.9773 92.9986 65.4802 92.9938 63.9645 93.0685C58.4631 93.199 52.8958 93.2676 47.4049 92.8804C46.9943 92.5986 46.4779 92.3024 46.1684 91.9083C45.8907 91.5549 45.8283 91.1686 45.9057 90.7314C46.2069 89.0333 48.2289 86.4396 49.9233 85.951C50.6745 85.7345 51.7159 85.8627 52.3838 85.4899C52.9429 85.1778 53.4234 84.3347 53.992 83.9141Z" fill="white"/>
<path d="M55.6753 86.2891C56.173 86.4708 56.4831 86.718 56.7862 87.1515L56.7403 87.2562L56.5049 87.2703C56.1273 87.1648 55.5364 87.1422 55.2383 86.8886C55.2862 86.5785 55.4561 86.4995 55.6753 86.2891Z" fill="black" fill-opacity="0.5"/>
<path d="M51.642 87.0703C51.6734 87.1981 51.6936 87.3069 51.6986 87.4394C51.7001 87.4777 51.6999 87.5162 51.7006 87.5545C51.9506 87.6486 51.948 87.6264 52.2007 87.5284C52.3615 87.8385 52.3041 88.126 52.2927 88.4677C52.0449 88.4784 51.8259 88.4496 51.5813 88.415C51.3337 88.2355 51.3147 88.222 51.2148 87.9343C51.2764 87.5537 51.4053 87.3702 51.642 87.0703Z" fill="black" fill-opacity="0.5"/>
<path d="M59.9546 88.6562C60.0962 88.7285 60.1839 88.7901 60.2764 88.927C60.4268 89.1503 60.4664 89.4153 60.3709 89.6702C60.138 90.2921 59.3657 90.8732 58.7544 91.0767C58.4434 91.1803 58.273 91.0976 57.9922 90.9746C57.8545 90.6142 57.7631 90.2025 57.8989 89.8299L58.1002 89.8192C58.1276 89.8758 58.2207 90.0754 58.2588 90.1172C58.4305 90.3052 58.5389 90.256 58.7631 90.2647C59.1498 90.0974 59.5372 89.6793 59.6821 89.2839C59.7631 89.0632 59.8497 88.8676 59.9546 88.6562Z" fill="black" fill-opacity="0.5"/>
<path d="M172.14 80.1809C175.975 80.138 179.81 80.1293 183.645 80.155C188.31 80.1565 192.977 80.1222 197.641 80.1768C197.556 81.2736 197.306 82.3611 197.051 83.4296C196.179 87.087 195.19 91.6613 191.785 93.7588C191.097 94.1054 190.414 94.3814 189.669 94.581C185.115 95.8007 180.755 95.3605 176.69 93.0036C176.952 92.9731 177.228 92.9525 177.486 92.8935C177.757 92.8312 177.838 92.7523 177.963 92.5146C177.896 91.8441 177.667 91.189 177.427 90.5625C177.166 89.8837 176.574 88.2026 175.903 87.9053C175.138 87.9591 174.475 88.5654 173.87 88.9926C174.398 88.2653 174.991 87.4997 175.421 86.7097C175.634 86.3195 175.801 85.9769 175.671 85.5388L175.418 85.4168C174.943 85.4231 174.573 85.6505 174.157 85.8579C173.779 84.8451 173.423 83.8174 173.014 82.8168C172.672 81.9813 172.223 81.155 171.965 80.2915L172.14 80.1809Z" fill="white"/>
<path d="M158.017 93.5977C158.553 93.651 159.128 93.631 159.668 93.6458C159.864 94.2971 160.057 94.963 160.354 95.577C160.406 95.6851 160.46 95.7918 160.516 95.8973C160.573 96.0029 160.632 96.1067 160.694 96.2092C160.756 96.3117 160.821 96.4126 160.888 96.5119C160.955 96.6111 161.024 96.7086 161.096 96.8046C161.168 96.9003 161.242 96.9943 161.318 97.0864C161.395 97.1785 161.474 97.2688 161.555 97.3569C161.636 97.4451 161.719 97.5312 161.804 97.6155C161.889 97.6995 161.977 97.7813 162.066 97.8609C162.155 97.9408 162.246 98.0183 162.34 98.0934C162.433 98.1684 162.528 98.2414 162.625 98.3119C162.722 98.3822 162.82 98.4503 162.92 98.5158C163.021 98.5813 163.122 98.6444 163.226 98.7047C163.329 98.7652 163.434 98.8231 163.54 98.8783C163.647 98.9336 163.754 98.9861 163.863 99.0359C163.972 99.0857 164.082 99.133 164.193 99.1774C164.304 99.2217 164.416 99.2633 164.53 99.3023C166.648 100.023 169.178 99.9375 171.183 98.9188C173.405 97.7895 174.292 96.1423 175.041 93.8542C176.84 95.1911 178.881 96.187 181.091 96.6144C185.424 97.4527 190.338 96.8616 194.043 94.3731C195.266 95.0975 196.425 95.9741 197.601 96.7754C199.619 98.129 201.62 99.5073 203.604 100.91C192.451 100.961 181.299 100.951 170.146 100.882L105.798 100.784C97.3208 100.731 88.8435 100.733 80.3661 100.793L70.9802 100.795C68.9371 100.799 66.867 100.737 64.832 100.938C64.9141 100.91 64.9957 100.881 65.0769 100.851C68.0004 99.7754 71.2578 97.812 72.5912 94.8882L74.0254 94.9482C74.6334 96.1857 75.2273 97.0725 76.5403 97.639C79.3727 98.8609 85.0838 98.8551 87.9438 97.6851C89.3338 97.1167 90.3166 96.2758 90.8946 94.8773C92.006 94.7931 93.1163 94.6958 94.2256 94.5857C94.4584 95.0603 94.6924 95.5173 95.0384 95.9228C96.7185 97.8903 105.121 98.8426 107.825 99.0868C113.878 99.6337 133.462 100.049 137.815 96.1756C138.542 95.5282 138.562 94.5994 138.601 93.6991C139.397 94.8943 140.832 96.6779 141.975 97.5365C143.704 98.8359 150.051 98.4866 152.128 98.1878C152.75 98.0984 153.442 97.9832 154.006 97.699C155.346 97.0244 157.094 94.8225 158.017 93.5977Z" fill="white"/>
<path d="M40.1011 37.1523L44.5565 37.1645L44.5826 44.9294C44.597 48.9145 44.2782 53.1968 45.9188 56.9308C47.6126 60.7858 50.5342 62.6537 51.2417 67.207C51.9773 71.9415 50.3429 76.4561 50.3203 81.1572C50.7834 81.8852 51.3684 82.5555 51.9063 83.2308C50.9982 83.9122 50.0911 84.3589 49.0089 84.6886C48.5923 84.2109 47.8176 83.0625 47.2037 82.957C47.0402 82.9287 46.9723 83.0327 46.849 83.122C46.5465 83.7267 46.593 84.3539 46.5734 85.0149C45.5245 85.3154 44.4566 85.3293 43.4209 85.6046C42.9339 85.7343 42.5448 85.9495 42.3065 86.4072C41.9559 87.0801 42.328 87.9839 42.5587 88.6381C41.5528 88.8516 40.411 89.1391 39.643 89.8583C39.318 90.1623 39.0121 90.5693 38.9968 91.0265C38.9666 91.9316 38.4706 92.4661 38.4216 93.2444C38.3807 93.8953 38.9448 94.4757 39.3309 94.947C38.6221 94.8896 37.9126 94.8458 37.2023 94.8156C35.9124 94.7978 34.6182 94.83 33.3281 94.8411C33.5773 93.8744 33.7547 92.9003 33.9318 91.9188C34.1079 91.8307 34.2759 91.7375 34.4424 91.6322C35.0219 91.2655 35.5446 90.7976 35.6813 90.092C35.8323 89.3125 35.5135 88.701 35.0748 88.0888C36.0972 80.2489 31.9007 70.2636 35.6876 63.0086C36.1098 62.2001 37.2212 59.8844 38.0271 59.6295C38.2821 59.6972 38.5611 59.7862 38.8242 59.8171C39.0112 59.8389 39.1875 59.7947 39.3291 59.6709C39.5285 59.4963 39.6808 59.2339 39.6571 58.9582C39.6166 58.4835 39.1104 58.2119 38.7631 57.9717C38.9374 57.4844 39.1816 57.0119 39.3975 56.5412C39.8456 56.7454 40.3977 57.047 40.8919 56.7897C41.1507 56.655 41.187 56.5164 41.2773 56.264C41.2586 56.1005 41.2425 55.9501 41.1583 55.8043C40.8392 55.2527 40.2954 55.1943 39.7285 55.074C39.7907 54.6686 39.8625 54.2947 39.9885 53.904C40.3746 53.6771 40.799 53.842 41.2325 53.6825C41.3981 53.5082 41.5966 53.2283 41.6201 52.9763C41.6364 52.7992 41.6207 52.6536 41.5191 52.5073C41.1909 52.0357 40.5885 52.0068 40.068 51.9169C40.0974 51.5352 40.0873 51.0351 40.2105 50.673C40.3063 50.392 40.4664 50.3147 40.7135 50.1822C40.8795 50.189 41.0991 50.2183 41.2601 50.185C41.4364 50.1487 41.5063 50.098 41.5896 49.9435C41.7285 49.686 41.797 49.3935 41.6932 49.1117C41.5256 48.6573 40.6847 48.5644 40.2738 48.4062C40.1829 48.1942 40.1572 47.8451 40.211 47.6197C40.3861 46.8839 41.0349 47.2656 41.5483 47.0027C41.7041 46.7838 41.7235 46.6145 41.7137 46.3531C41.6777 45.3949 40.91 45.6898 40.3766 45.2269C40.2046 44.89 40.2081 44.6432 40.2147 44.2696C40.5909 44.189 40.9785 44.11 41.3291 43.9464C41.6477 43.7977 41.7705 43.6195 41.8817 43.2968C41.8579 43.0435 41.7964 42.875 41.6401 42.6761C41.3291 42.2794 40.6819 42.2948 40.2186 42.2409C40.2092 41.8052 40.2116 41.3891 40.2671 40.9562L40.4706 40.8217C40.7034 40.8346 40.947 40.8574 41.1796 40.8426C41.4764 40.8237 41.5783 40.7399 41.7744 40.5299C41.8643 40.2341 41.8814 40.089 41.8101 39.7871C41.4238 39.2174 40.7689 39.1819 40.1448 39.055C40.1113 38.4231 40.1132 37.7854 40.1011 37.1523Z" fill="white"/>
<path d="M139.021 70.1535C141.358 69.9293 142.837 71.5892 144.946 72.1267C146.36 72.4871 149.557 72.4403 151.083 72.3156C153.364 72.1291 154.301 70.8144 156.147 70.5193C157.249 70.3433 158.501 70.7032 159.393 71.3598C160.58 72.2342 161.104 73.632 161.296 75.0446C162.001 80.2206 158.897 89.4542 155.779 93.5591C155.133 94.3604 154.241 95.2753 153.379 95.8428C151.405 97.1418 145.431 96.7166 143.214 96.2335C138.63 91.9299 135.954 85.6834 134.937 79.5462C134.525 77.052 134.252 74.0133 135.871 71.8527C136.678 70.7757 137.735 70.3461 139.021 70.1535Z" fill="white"/>
<path d="M32.2198 115.535C34.6755 115.196 37.3741 115.753 39.8145 116.086C43.2715 116.558 46.7171 117.119 50.1791 117.555C53.9427 118.029 57.7843 118.164 61.5748 118.121C64.3067 118.073 67.0268 117.868 69.7349 117.506C73.02 117.064 76.3213 116.446 79.644 116.417C82.8542 116.39 86.0768 116.747 89.2694 117.046C93.1912 117.413 97.1165 117.74 101.058 117.764C107.912 117.805 114.874 116.522 121.613 116.828C127.148 117.078 132.598 118.307 138.127 118.418C144.847 118.552 151.328 116.43 158.053 116.285C164.298 116.151 170.935 116.74 177.156 117.303C180.711 117.625 184.286 118.037 187.857 118.106C189.117 118.124 190.374 118.076 191.628 117.962C192.883 117.848 194.128 117.669 195.364 117.425C199.502 116.641 202.783 115.13 206.921 116.944L206.898 120.314C200.846 120.431 194.757 120.381 188.702 120.385L90.65 120.385L22.7945 120.377C18.2635 120.4 13.7365 120.273 9.20315 120.33C9.20249 119.173 9.21534 118.032 9.30543 116.878C11.0349 116.009 12.6118 115.908 14.4244 116.605C15.76 117.119 17.0618 117.743 18.4831 117.984C21.4663 118.49 24.3916 117.089 27.2312 116.37C28.0488 116.158 28.8741 115.982 29.7071 115.842C30.54 115.703 31.3776 115.601 32.2198 115.535Z" fill="white"/>
<path d="M10.7732 102.527C17.0773 102.624 23.3817 102.645 29.6863 102.593L67.4421 102.541L151.546 102.622C169.43 102.523 187.314 102.53 205.197 102.643C204.171 107.314 205.588 110.632 207.129 114.985C203.283 113.73 201.454 114.185 197.617 115.155C189.703 116.938 184.015 116.067 176.04 115.41C170.54 114.908 165.028 114.625 159.506 114.561C157.911 114.554 156.317 114.611 154.726 114.73C153.135 114.85 151.552 115.032 149.975 115.277C146.401 115.823 142.848 116.627 139.22 116.688C136.622 116.732 134.078 116.38 131.509 116.053C128.248 115.638 124.94 115.205 121.654 115.074C114.615 114.792 107.503 115.996 100.401 115.976C93.6494 115.957 86.9766 114.722 80.2446 114.626C76.8111 114.576 73.4294 115.296 70.0382 115.731C68.2345 115.963 66.4249 116.132 64.6093 116.237C62.7938 116.341 60.9769 116.382 59.1584 116.36C55.4342 116.305 51.7278 116.021 48.0389 115.506C43.3569 114.818 38.6003 113.781 33.8589 113.708C31.3607 113.67 28.8047 114.065 26.4 114.741C24.272 115.34 21.9665 116.33 19.7354 116.297C17.9278 116.271 16.4517 115.389 14.8029 114.773C12.8393 114.039 10.9958 114.129 9.08594 114.997C10.5786 110.631 11.9397 107.183 10.7732 102.527Z" fill="white"/>
</svg>
