<svg width="39" height="39" viewBox="0 0 39 39" fill="none" xmlns="http://www.w3.org/2000/svg">
<path fill-rule="evenodd" clip-rule="evenodd" d="M3.89998 7.7998C3.55519 7.7998 3.22453 7.93677 2.98074 8.18057C2.73694 8.42436 2.59998 8.75502 2.59998 9.0998C2.59998 9.44459 2.73694 9.77525 2.98074 10.019C3.22453 10.2628 3.55519 10.3998 3.89998 10.3998H35.1C35.4448 10.3998 35.7754 10.2628 36.0192 10.019C36.263 9.77525 36.4 9.44459 36.4 9.0998C36.4 8.75502 36.263 8.42436 36.0192 8.18057C35.7754 7.93677 35.4448 7.7998 35.1 7.7998H3.89998ZM2.59998 19.4998C2.59998 19.155 2.73694 18.8244 2.98074 18.5806C3.22453 18.3368 3.55519 18.1998 3.89998 18.1998H35.1C35.4448 18.1998 35.7754 18.3368 36.0192 18.5806C36.263 18.8244 36.4 19.155 36.4 19.4998C36.4 19.8446 36.263 20.1752 36.0192 20.419C35.7754 20.6628 35.4448 20.7998 35.1 20.7998H3.89998C3.55519 20.7998 3.22453 20.6628 2.98074 20.419C2.73694 20.1752 2.59998 19.8446 2.59998 19.4998ZM2.59998 29.8998C2.59998 29.555 2.73694 29.2244 2.98074 28.9806C3.22453 28.7368 3.55519 28.5998 3.89998 28.5998H35.1C35.4448 28.5998 35.7754 28.7368 36.0192 28.9806C36.263 29.2244 36.4 29.555 36.4 29.8998C36.4 30.2446 36.263 30.5752 36.0192 30.819C35.7754 31.0628 35.4448 31.1998 35.1 31.1998H3.89998C3.55519 31.1998 3.22453 31.0628 2.98074 30.819C2.73694 30.5752 2.59998 30.2446 2.59998 29.8998Z" fill="white"/>
</svg>
