<svg width="200" height="141" viewBox="0 0 200 141" fill="none" xmlns="http://www.w3.org/2000/svg">
<path d="M198.759 2.21484H2.32422V138.779H198.759V2.21484Z" fill="white"/>
<path d="M45.6063 66.2717C44.7458 65.3214 42.9597 63.7737 40.4524 63.7892C36.645 63.8078 33.7075 67.3458 34.3451 71.0975C34.6578 72.9331 35.6947 75.1432 38.1525 77.6072C38.1525 77.6072 41.9444 81.2134 40.9601 87.4754C40.8394 88.2524 41.412 88.9643 42.1983 88.9705C42.2137 88.9705 42.2261 88.9705 42.2416 88.9705C42.7988 88.9705 43.2971 88.6177 43.4674 88.0852C43.8512 86.8935 44.5539 84.6091 44.9841 82.628C44.9841 82.628 45.0244 82.4608 45.1389 82.2132C46.0521 80.2755 48.5748 79.8576 50.2092 81.2443C51.076 81.978 51.8777 83.2099 52.0634 85.2777C52.0634 85.2777 52.1872 87.2433 52.5896 88.4536C52.7908 89.0603 53.4749 89.4194 54.0785 89.2058C54.1064 89.1965 54.1373 89.1841 54.1652 89.1717C54.6729 88.9674 54.9731 88.4474 54.905 87.9088C54.5738 85.3272 54.744 82.6435 55.5674 80.1671C56.9356 76.0502 61.9378 72.3078 59.6317 67.5749C57.7776 63.7706 52.568 62.8079 49.618 65.9003C49.5066 66.0148 49.3982 66.1386 49.2868 66.2655C48.9525 66.6556 48.5129 66.9465 48.0084 67.0518C47.9155 67.0703 47.8165 67.0889 47.7112 67.1013C46.9188 67.1942 46.1418 66.8629 45.6063 66.2717Z" fill="white" stroke="black" stroke-width="0.922879" stroke-miterlimit="10" stroke-linecap="round" stroke-linejoin="round"/>
<path d="M40.5859 65.4507C40.7067 65.4445 40.8274 65.4414 40.9543 65.4414" stroke="black" stroke-width="0.922879" stroke-miterlimit="10" stroke-linecap="round" stroke-linejoin="round"/>
<path d="M35.7461 69.6364C35.7461 69.6364 36.3621 66.7391 39.0458 65.7578" stroke="black" stroke-width="0.922879" stroke-miterlimit="10" stroke-linecap="round" stroke-linejoin="round"/>
<path d="M61.5352 96.9543L54.5829 101.61L48.3053 94.7472C48.3053 94.7472 40.833 94.32 34.8557 90.1815C34.0694 89.6367 33.5339 88.6059 33.7785 87.6772C33.7847 87.6618 33.7908 87.6401 33.7939 87.6215C34.1406 86.4174 35.5552 85.8943 36.6417 86.5196C37.2361 86.8539 37.8552 87.1294 38.4866 87.3522C40.3996 87.9868 44.1946 89.0981 50.014 88.4418C50.2276 88.4171 50.4412 88.383 50.6548 88.349C51.732 88.1787 56.1244 87.7423 57.3966 91.5868L61.5352 96.9543Z" fill="white" stroke="black" stroke-width="0.922879" stroke-miterlimit="10" stroke-linecap="round" stroke-linejoin="round"/>
<path d="M47.4361 91.4655C42.5236 91.2736 39.6356 90.2428 38.3448 89.6392C37.7845 89.3792 37.5276 88.7013 37.8124 88.1503C37.8216 88.1317 37.8309 88.1131 37.8402 88.0976C38.094 87.6364 38.6357 87.4197 39.1372 87.5714C40.3197 87.9336 43.0034 88.6239 46.3155 88.6455" stroke="black" stroke-width="0.922879" stroke-miterlimit="10" stroke-linecap="round" stroke-linejoin="round"/>
<path d="M118.458 77.7469L103.785 74.2305H97.4335H91.0786L76.4062 77.7469L77.793 112.094L76.7003 128.778H118.074L117.071 112.094L118.458 77.7469Z" fill="white" stroke="black" stroke-width="0.922879" stroke-miterlimit="10" stroke-linecap="round" stroke-linejoin="round"/>
<path d="M111.942 76.1837C112.084 78.725 112.195 81.2664 112.329 83.8077C112.459 86.2841 112.514 88.8069 112.849 91.2677C112.985 92.2707 113.14 93.2829 113.075 94.2982C113 95.4373 112.307 95.5611 111.369 95.9016C110.524 96.2112 106.59 97.6505 105.512 98.0406C106.435 99.2478 107.357 100.455 108.28 101.662C108.803 102.349 110.648 104.018 110.422 104.928C110.196 105.838 109.41 106.875 108.989 107.723C108.407 108.89 107.837 110.063 107.268 111.239C106.101 113.654 104.946 116.075 103.767 118.483C102.603 120.86 101.439 123.237 100.275 125.615C100.089 125.992 98.5446 128.379 98.7272 128.775C96.2787 123.445 93.8333 118.111 91.3848 112.781C90.645 111.165 89.9021 109.549 89.1592 107.937C88.7506 107.045 87.9768 106.107 87.8406 105.117C87.7167 104.222 88.2739 103.377 88.6237 102.554C88.7661 102.219 90.6667 97.7651 90.6729 97.7682C88.3358 96.7962 86.005 95.8056 83.6586 94.8554C82.9126 94.552 83.021 92.704 83.0395 92.1128C83.1479 88.909 83.3584 85.9003 83.3584 82.6934C83.3584 80.4894 83.3584 78.2824 83.3584 76.0784L91.066 74.2305H103.776L111.942 76.1837Z" fill="white" stroke="black" stroke-width="0.922879" stroke-miterlimit="10" stroke-linecap="round" stroke-linejoin="round"/>
<path d="M84.7734 88.9414V93.4824" stroke="black" stroke-width="0.922879" stroke-miterlimit="10" stroke-linecap="round" stroke-linejoin="round"/>
<path d="M84.7734 87.3398V87.5837" stroke="black" stroke-width="0.922879" stroke-miterlimit="10" stroke-linecap="round" stroke-linejoin="round"/>
<path d="M97.4297 74.2305L98.7329 128.778" stroke="black" stroke-width="0.922879" stroke-miterlimit="10" stroke-linecap="round" stroke-linejoin="round"/>
<path d="M76.407 77.7383L75.2617 78.0293C71.6555 78.9424 70.4731 82.5424 69.303 85.6409C68.0648 88.919 66.7121 92.1599 65.4182 95.4163C65.3687 95.537 64.793 96.6823 64.8734 96.7845C63.8953 95.5587 62.9171 94.3329 61.9359 93.1071C60.9391 91.8597 60.1312 89.9002 58.4256 89.4204C56.5932 88.9066 54.7204 90.5317 53.3244 91.4882C51.8262 92.519 50.4301 93.6953 49.161 94.9984C48.1364 96.0478 46.5051 97.7038 47.6752 99.2268C50.5013 103.112 53.3615 106.975 56.4043 110.689C58.9147 113.757 61.6573 117.505 66.0156 117.629C66.5481 117.645 67.0805 117.607 67.6098 117.527C70.2657 117.118 72.6585 115.425 74.0174 113.119L77.5895 107.052L76.407 77.7383Z" fill="white" stroke="black" stroke-width="0.922879" stroke-miterlimit="10" stroke-linecap="round" stroke-linejoin="round"/>
<path d="M63.4284 94.9758C54.7611 98.4179 51.5481 104.132 51.4397 104.327C50.1675 102.64 48.917 100.935 47.6726 99.2228C46.4994 97.7029 48.1338 96.0468 49.1584 94.9944C50.4275 93.6943 51.8236 92.5149 53.3187 91.4873C54.7147 90.5277 56.5874 88.9026 58.4199 89.4195C60.1255 89.9024 60.9334 91.8556 61.9271 93.1031C62.4316 93.7284 62.9269 94.3505 63.4284 94.9758Z" fill="white" stroke="black" stroke-width="0.922879" stroke-miterlimit="10" stroke-linecap="round" stroke-linejoin="round"/>
<path d="M64.8594 96.7852L68.1932 100.701" stroke="black" stroke-width="0.922879" stroke-miterlimit="10" stroke-linecap="round" stroke-linejoin="round"/>
<path d="M69.0703 101.621L69.2956 101.865" stroke="black" stroke-width="0.922879" stroke-miterlimit="10" stroke-linecap="round" stroke-linejoin="round"/>
<path d="M56.7891 91.0405C56.851 91.0064 56.9129 90.9724 56.9748 90.9414" stroke="black" stroke-width="0.922879" stroke-miterlimit="10" stroke-linecap="round" stroke-linejoin="round"/>
<path d="M52.7773 93.9021C52.7773 93.9021 53.9103 92.8311 55.588 91.7539" stroke="black" stroke-width="0.922879" stroke-miterlimit="10" stroke-linecap="round" stroke-linejoin="round"/>
<path d="M107.319 121.072C107.817 119.385 108.328 118.345 109.015 117.212C109.727 116.045 110.832 115.159 112.141 114.751C113.773 114.243 115.19 114.082 116.212 114.045C116.367 114.039 116.918 113.005 117.023 112.85C117.329 112.398 117.636 111.946 117.942 111.494C118.852 110.154 119.778 108.842 120.626 107.464C121.703 105.715 122.87 103.855 124.687 102.787C128.461 100.564 133.862 103.267 133.429 107.894C133.212 110.201 131.364 111.77 129.928 113.41C128.622 114.899 127.315 116.388 126.012 117.88C125.628 118.317 125.244 118.756 124.861 119.193C124.783 119.279 124.437 119.564 124.427 119.685C124.238 122.279 122.626 124.294 120.032 124.74C119.787 124.783 119.536 124.817 119.289 124.814C119.069 126.269 118.122 128.036 116.679 128.584C115.639 128.981 114.401 128.711 113.606 127.934C113.596 127.922 113.587 127.916 113.575 127.919C112.822 128.265 111.95 128.228 111.213 127.851C110.458 127.461 109.891 126.712 109.718 125.882C109.674 125.69 109.653 125.489 109.653 125.288C109.653 125.288 109.656 125.155 109.653 125.155C107.709 124.997 106.823 122.749 107.319 121.072Z" fill="white" stroke="black" stroke-width="0.922879" stroke-miterlimit="10" stroke-linecap="round" stroke-linejoin="round"/>
<path d="M124.423 119.685C124.423 119.685 124.575 118.075 123.578 116.766" stroke="black" stroke-width="0.922879" stroke-miterlimit="10" stroke-linecap="round" stroke-linejoin="round"/>
<path d="M113.576 127.921C113.576 127.921 113.291 125.614 115.337 122.383" stroke="black" stroke-width="0.922879" stroke-miterlimit="10" stroke-linecap="round" stroke-linejoin="round"/>
<path d="M109.657 125.152C109.657 125.152 109.582 123.585 111.44 120.676" stroke="black" stroke-width="0.922879" stroke-miterlimit="10" stroke-linecap="round" stroke-linejoin="round"/>
<path d="M118.96 121.852C118.96 121.852 118.258 124.727 117.184 126.365" stroke="black" stroke-width="0.922879" stroke-miterlimit="10" stroke-linecap="round" stroke-linejoin="round"/>
<path d="M119.292 124.817C119.292 124.817 118.697 124.56 118.168 124.344" stroke="black" stroke-width="0.922879" stroke-miterlimit="10" stroke-linecap="round" stroke-linejoin="round"/>
<path d="M136.737 105.572C134.849 108.751 132.419 111.55 130.107 114.416C129.967 114.586 129.831 114.76 129.692 114.936C128.819 116.023 127.955 117.125 127.129 118.22C126.847 118.592 125.838 120.372 125.498 120.319C124.225 120.136 122.904 119.719 121.774 119.146C120.492 118.487 119.319 117.62 118.298 116.605C117.378 115.694 114.862 113.602 115.357 112.144C115.648 111.296 116.812 110.284 117.36 109.584C118.137 108.587 118.914 107.588 119.69 106.591C120.758 105.216 121.829 103.845 122.897 102.471C122.944 102.403 123.807 101.369 123.78 101.335L117.778 94.4134L118.449 77.7383L120.241 78.1902C123.303 78.9672 125.751 80.7935 127.683 83.2327C129.933 86.0836 132.239 88.8849 134.4 91.8039C135.901 93.8284 137.269 96.0694 137.87 98.5458C138.486 101.106 138.056 103.353 136.737 105.572Z" fill="white" stroke="black" stroke-width="0.922879" stroke-miterlimit="10" stroke-linecap="round" stroke-linejoin="round"/>
<path d="M129.688 114.931C128.815 116.018 127.951 117.12 127.125 118.215C126.843 118.587 125.834 120.367 125.494 120.314C124.221 120.132 122.9 119.714 121.77 119.141C120.488 118.482 119.315 117.615 118.294 116.6C117.374 115.69 114.858 113.597 115.353 112.139C115.644 111.291 116.808 110.279 117.356 109.579C118.133 108.582 118.91 107.583 119.687 106.586C120.646 107.901 124.432 112.721 129.688 114.931Z" fill="white" stroke="black" stroke-width="0.922879" stroke-miterlimit="10" stroke-linecap="round" stroke-linejoin="round"/>
<path d="M117.352 114.016C117.853 114.607 118.549 115.337 119.376 115.953" stroke="black" stroke-width="0.922879" stroke-miterlimit="10" stroke-linecap="round" stroke-linejoin="round"/>
<path d="M116.512 112.918C116.512 112.918 116.543 112.964 116.601 113.048" stroke="black" stroke-width="0.922879" stroke-miterlimit="10" stroke-linecap="round" stroke-linejoin="round"/>
<path d="M123.773 101.334L126.38 97.9883" stroke="black" stroke-width="0.922879" stroke-miterlimit="10" stroke-linecap="round" stroke-linejoin="round"/>
<path d="M127.121 97.002L127.368 96.6562" stroke="black" stroke-width="0.922879" stroke-miterlimit="10" stroke-linecap="round" stroke-linejoin="round"/>
<path d="M103.783 74.2305H97.4312H91.0762L86.2969 75.3758C86.5662 75.3108 90.1631 84.5166 90.4386 85.1635C92.8066 90.757 95.1684 96.3504 97.5333 101.944C98.2638 103.671 98.9077 101.439 99.1801 100.724C99.8146 99.0589 100.446 97.3905 101.071 95.7221C102.947 90.7044 104.774 85.665 106.625 80.638C106.733 80.3409 108.466 75.3479 108.569 75.3727C108.553 75.3727 103.783 74.2305 103.783 74.2305Z" fill="white" stroke="black" stroke-width="0.922879" stroke-miterlimit="10" stroke-linecap="round" stroke-linejoin="round"/>
<path d="M130.432 55.9599C128.937 41.4857 125.387 30.7971 125.387 30.7971C127.427 28.0793 126.402 24.6124 124.994 21.9597C123.294 18.7621 120.685 16.131 117.549 14.317C107.637 8.59357 97.4318 13.4503 97.4318 13.4503C97.4318 13.4503 87.2231 8.59357 77.3146 14.317C74.1789 16.1279 71.5664 18.759 69.8701 21.9597C68.4617 24.6124 67.4371 28.0793 69.477 30.7971C69.477 30.7971 65.9296 41.4857 64.4314 55.9599C63.9919 60.2038 66.1494 64.3238 69.9103 66.3389C74.6866 68.8957 83.0659 71.4742 97.4349 71.4742C111.804 71.4742 120.18 68.8988 124.96 66.3389C128.717 64.3238 130.872 60.2038 130.432 55.9599Z" fill="white" stroke="black" stroke-width="0.922879" stroke-miterlimit="10" stroke-linecap="round" stroke-linejoin="round"/>
<path d="M102.553 67H97.4331H92.3132L91.0781 74.2278C91.0781 74.2278 91.8984 75.1596 94.0528 75.8437C96.2444 76.5432 98.6155 76.5432 100.81 75.8437C102.965 75.1565 103.785 74.2278 103.785 74.2278L102.553 67Z" fill="white" stroke="black" stroke-width="0.922879" stroke-miterlimit="10" stroke-linecap="round" stroke-linejoin="round"/>
<path d="M119.238 48.7991C119.238 48.4091 120.015 47.6105 120.229 47.3195C121.031 46.233 121.931 45.2084 122.959 44.3324C125.581 42.0944 128.915 41.3205 131.821 43.5833C133.672 45.0258 134.632 47.2916 134.52 49.6225C134.394 52.2072 132.79 54.9869 130.506 56.2715C129.137 57.0422 127.59 57.4508 126.042 57.6644C125.386 57.7542 119.238 58.039 119.238 57.6118C119.238 57.6087 119.238 48.7991 119.238 48.7991Z" fill="white" stroke="black" stroke-width="0.922879" stroke-miterlimit="10" stroke-linecap="round" stroke-linejoin="round"/>
<path d="M124.464 47.4423C124.464 47.4423 127.516 44.8669 130.061 46.8758C131.358 47.9004 131.819 49.6803 131.271 51.2404C130.664 52.9676 128.986 55.0478 124.461 55.3418" stroke="black" stroke-width="0.922879" stroke-miterlimit="10" stroke-linecap="round" stroke-linejoin="round"/>
<path d="M75.6151 48.7991C75.6151 48.4091 74.8381 47.6105 74.6246 47.3195C73.8228 46.233 72.9221 45.2084 71.8944 44.3324C69.2726 42.0944 65.9388 41.3205 63.0322 43.5833C61.1811 45.0258 60.2215 47.2916 60.3329 49.6225C60.4599 52.2072 62.0633 54.9869 64.3477 56.2715C65.7159 57.0422 67.2636 57.4508 68.8113 57.6644C69.4676 57.7542 75.6151 58.039 75.6151 57.6118C75.6151 57.6087 75.6151 48.7991 75.6151 48.7991Z" fill="white" stroke="black" stroke-width="0.922879" stroke-miterlimit="10" stroke-linecap="round" stroke-linejoin="round"/>
<path d="M70.389 47.4423C70.389 47.4423 67.3369 44.8669 64.7925 46.8758C63.4955 47.9004 63.0343 49.6803 63.5822 51.2404C64.1889 52.9676 65.8666 55.0478 70.3921 55.3418" stroke="black" stroke-width="0.922879" stroke-miterlimit="10" stroke-linecap="round" stroke-linejoin="round"/>
<path d="M117.83 62.5756C114.159 66.1075 107.94 69.302 97.4215 69.302C86.9063 69.302 80.6845 66.1075 77.0133 62.5756C73.2369 58.9385 71.5654 53.6329 72.3361 48.4481C76.1745 22.7033 97.4184 23.5422 97.4184 23.5422C97.4184 23.5422 97.9044 23.5236 98.7495 23.5793C97.9973 26.3529 96.691 34.6827 107.178 37.1373C107.178 37.1373 113.843 38.2827 113.976 44.7397C113.976 44.7397 116.13 37.6079 108.661 33.7045C108.661 33.7045 104.594 31.3396 105.005 26.7924C105.005 26.7924 109.277 34.0481 117.728 34.8282C119.907 38.2362 121.64 42.6751 122.504 48.4481C123.278 53.6329 121.606 58.9385 117.83 62.5756Z" fill="white" stroke="black" stroke-width="0.922879" stroke-miterlimit="10" stroke-linecap="round" stroke-linejoin="round"/>
<path d="M90.8142 46.723C90.8142 49.32 88.9879 51.428 86.7313 51.428C84.4778 51.428 82.6484 49.32 82.6484 46.723C82.6484 44.1197 84.4747 42.0117 86.7313 42.0117C87.8673 42.0117 88.895 42.5441 89.6286 43.4109C90.1487 44.0083 90.5201 44.7605 90.6904 45.6117C90.777 45.9677 90.8142 46.3391 90.8142 46.723Z" fill="black"/>
<path d="M90.6919 45.6118L87.6367 45.4416L89.6302 43.4141C90.1471 44.0115 90.5217 44.7637 90.6919 45.6118Z" fill="white"/>
<path d="M81.2188 38.7754C81.2188 38.7754 84.6361 34.4851 89.5888 37.3112" stroke="black" stroke-width="0.922879" stroke-miterlimit="10" stroke-linecap="round" stroke-linejoin="round"/>
<path d="M104.055 46.723C104.055 49.32 105.881 51.428 108.138 51.428C110.394 51.428 112.22 49.32 112.22 46.723C112.22 44.1197 110.394 42.0117 108.138 42.0117C107.002 42.0117 105.974 42.5441 105.24 43.4109C104.72 44.0083 104.349 44.7605 104.179 45.6117C104.092 45.9677 104.055 46.3391 104.055 46.723Z" fill="black"/>
<path d="M104.18 45.6118L107.235 45.4416L105.241 43.4141C104.724 44.0115 104.353 44.7637 104.18 45.6118Z" fill="white"/>
<path d="M113.651 38.7754C113.651 38.7754 110.234 34.4851 105.281 37.3112" stroke="black" stroke-width="0.922879" stroke-miterlimit="10" stroke-linecap="round" stroke-linejoin="round"/>
<path d="M97.4333 46.5977V51.4327C97.4333 51.4327 96.7894 50.9839 95.8886 50.9313C94.5731 50.8539 93.6104 52.2313 94.2171 53.4045C94.6009 54.1443 95.4893 54.8687 97.4333 55.1163" stroke="black" stroke-width="0.922879" stroke-miterlimit="10" stroke-linecap="round" stroke-linejoin="round"/>
<path d="M96.4727 60.4801C96.4727 60.4801 100.138 62.0836 103.642 59.4648" stroke="black" stroke-width="0.922879" stroke-miterlimit="10" stroke-linecap="round" stroke-linejoin="round"/>
<path d="M73.5234 30.3526C73.5234 30.3526 81.9461 20.5091 99.3177 20.7258C99.3177 20.7258 117.516 20.9487 122.694 29.7614C122.694 29.7614 121.255 22.4902 109.715 18.7138C103.116 16.5532 96.0025 16.3829 89.2947 18.169C83.271 19.7786 76.2567 23.1743 73.5234 30.3526Z" fill="white" stroke="black" stroke-width="0.922879" stroke-miterlimit="10" stroke-linecap="round" stroke-linejoin="round"/>
<path d="M108.154 20.1719C108.164 20.7384 108.099 21.3079 107.956 21.8713C107.319 24.3817 105.31 26.3287 102.939 27.2635C99.7287 28.5296 95.7356 27.96 93.1045 25.6818C90.9469 23.8121 89.8883 20.6981 90.82 17.9494C92.3646 13.396 98.4658 11.5233 102.691 13.0245C102.697 13.0276 102.703 13.0276 102.706 13.0307C103.524 13.3248 104.304 13.7303 105.003 14.2472C106.842 15.6092 108.117 17.841 108.154 20.1719Z" fill="white" stroke="black" stroke-width="0.922879" stroke-miterlimit="10" stroke-linecap="round" stroke-linejoin="round"/>
<path d="M99.3148 22.7076C101.303 22.7076 102.915 21.2926 102.915 19.5472C102.915 17.8017 101.303 16.3867 99.3148 16.3867C97.3266 16.3867 95.7148 17.8017 95.7148 19.5472C95.7148 21.2926 97.3266 22.7076 99.3148 22.7076Z" fill="white" stroke="black" stroke-width="0.922879" stroke-miterlimit="10" stroke-linecap="round" stroke-linejoin="round"/>
<path d="M104.363 15.4688C105.211 16.2086 106.251 17.4096 106.648 19.0842" stroke="black" stroke-width="0.922879" stroke-miterlimit="10" stroke-linecap="round" stroke-linejoin="round"/>
<path d="M103.125 14.5781C103.125 14.5781 103.199 14.6153 103.323 14.6927" stroke="black" stroke-width="0.922879" stroke-miterlimit="10" stroke-linecap="round" stroke-linejoin="round"/>
<path d="M104.652 113.223L104.73 113.059" stroke="black" stroke-width="0.922879" stroke-miterlimit="10" stroke-linecap="round" stroke-linejoin="round"/>
<path d="M102.047 118.614L104.059 114.457" stroke="black" stroke-width="0.922879" stroke-miterlimit="10" stroke-linecap="round" stroke-linejoin="round"/>
<path d="M137.927 36.3405L150.95 30.0011L150.597 25.556C150.513 24.5067 151.037 23.5037 151.944 22.9713C157.639 19.6313 163.279 16.1645 169.036 12.9359C169.473 12.6914 169.978 12.5149 170.464 12.614C170.987 12.7223 171.395 13.1309 171.702 13.5674C172.401 14.5703 172.284 15.663 171.209 16.248C168.173 17.9041 165.068 19.4332 161.951 20.9345C160.413 21.6743 158.874 22.411 157.336 23.1509C156.546 23.5316 155.757 23.9123 154.971 24.2962C154.565 24.4943 153.479 24.8131 153.256 25.2093C153.188 25.33 153.179 25.4693 153.172 25.6055C153.098 26.884 153.018 28.1593 152.937 29.4377C152.872 30.4778 152.943 31.5642 152.265 32.4341C151.393 33.5484 149.897 34.0375 148.653 34.6009C147.037 35.3283 145.496 36.1981 143.917 37.0029C142.732 37.6065 141.654 38.5073 140.351 38.854C139.302 39.1326 137.986 38.6868 137.844 37.427C137.81 37.1113 137.828 36.7491 137.927 36.3405Z" fill="white" stroke="black" stroke-width="0.922879" stroke-miterlimit="10" stroke-linecap="round" stroke-linejoin="round"/>
<path d="M149.794 22.7724L150.599 25.5552L150.951 30.0002L137.932 36.3397L133.667 30.285C133.329 29.8083 133.434 29.1552 133.899 28.7961C134.642 28.2235 135.97 27.4372 138.112 26.9079C138.112 26.9079 139.73 24.5058 143.405 24.3542C143.405 24.3542 145.5 21.9769 149.001 22.1409C149.373 22.1564 149.688 22.4164 149.794 22.7724Z" fill="white" stroke="black" stroke-width="0.922879" stroke-miterlimit="10" stroke-linecap="round" stroke-linejoin="round"/>
<path d="M138.121 26.9102L141.059 32.6522" stroke="black" stroke-width="0.922879" stroke-miterlimit="10" stroke-linecap="round" stroke-linejoin="round"/>
<path d="M145.934 30.1094L146.008 30.2827" stroke="black" stroke-width="0.922879" stroke-miterlimit="10" stroke-linecap="round" stroke-linejoin="round"/>
<path d="M143.41 24.3516L145.549 29.2331" stroke="black" stroke-width="0.922879" stroke-miterlimit="10" stroke-linecap="round" stroke-linejoin="round"/>
<path d="M149.791 22.7726C149.689 22.4166 149.373 22.1628 149.002 22.1442C145.504 21.9801 143.409 24.3574 143.409 24.3574C139.734 24.5122 138.115 26.9112 138.115 26.9112C135.973 27.4436 134.645 28.2298 133.902 28.7994C133.89 28.8087 133.881 28.8179 133.872 28.8241C133.054 27.9388 131.655 26.0104 132.46 23.76C133.147 21.8223 135.345 20.8441 137.193 20.3086C140.205 19.4357 143.656 19.9155 145.999 17.4391C146.297 17.1234 146.557 16.7767 146.77 16.3991C146.835 16.2845 147.402 15.1268 147.3 15.0742C147.296 15.0773 151.757 17.3401 149.791 22.7726Z" fill="white" stroke="black" stroke-width="0.922879" stroke-miterlimit="10" stroke-linecap="round" stroke-linejoin="round"/>
<path d="M134.393 23.0312C134.3 23.1148 134.254 23.1613 134.254 23.1613" stroke="black" stroke-width="0.922879" stroke-miterlimit="10" stroke-linecap="round" stroke-linejoin="round"/>
<path d="M140.285 20.9414C137.772 21.1983 136.162 21.8886 135.246 22.4303" stroke="black" stroke-width="0.922879" stroke-miterlimit="10" stroke-linecap="round" stroke-linejoin="round"/>
<path d="M171.216 16.2523C168.182 17.9053 165.074 19.4375 161.957 20.9357C160.66 21.5641 159.363 22.1832 158.063 22.8053L156.754 20.1247C160.831 17.6948 164.907 15.2556 169.04 12.9371C169.476 12.6926 169.981 12.513 170.47 12.6152C170.996 12.7204 171.405 13.129 171.711 13.5655C172.408 14.5715 172.29 15.6673 171.216 16.2523Z" stroke="black" stroke-width="0.922879" stroke-miterlimit="10" stroke-linecap="round" stroke-linejoin="round"/>
<path d="M157.855 19.4688L159.115 22.3011" stroke="black" stroke-width="0.922879" stroke-miterlimit="10" stroke-linecap="round" stroke-linejoin="round"/>
<path d="M158.738 18.9453L160.24 21.7653" stroke="black" stroke-width="0.922879" stroke-miterlimit="10" stroke-linecap="round" stroke-linejoin="round"/>
<path d="M169.461 13.8955L169.56 13.8398" stroke="black" stroke-width="0.922879" stroke-miterlimit="10" stroke-linecap="round" stroke-linejoin="round"/>
<path d="M165.777 15.9635L168.656 14.3477" stroke="black" stroke-width="0.922879" stroke-miterlimit="10" stroke-linecap="round" stroke-linejoin="round"/>
<path d="M163.383 42.139L152.048 48.333L150.277 44.7392L162.588 39.1055L163.383 42.139Z" fill="white" stroke="black" stroke-width="0.922879" stroke-miterlimit="10" stroke-linecap="round" stroke-linejoin="round"/>
<path d="M154.173 42.0846C154.241 42.1496 154.291 42.2362 154.337 42.3198C155.046 43.6013 155.743 44.889 156.476 46.1551C156.551 46.2851 156.628 46.4244 156.619 46.5729C156.582 47.0744 154.591 48.0897 154.164 48.3931C153.229 49.0555 152.294 49.7148 151.357 50.3772C151.062 50.5846 150.765 50.7951 150.511 51.049C150.162 51.3987 149.899 51.8259 149.617 52.2314C148.667 53.612 147.459 54.844 145.992 55.655C144.482 56.4907 142.575 56.8436 141.033 56.0697C139.91 55.5095 139.105 54.392 138.829 53.1662C138.142 50.0894 140.569 47.3716 142.974 45.8486C144.435 44.9231 146.054 44.2792 147.692 43.7159C149.66 43.038 151.663 42.4715 153.694 42.0165C153.814 41.9886 153.944 41.9638 154.059 42.0103C154.105 42.0289 154.142 42.0536 154.173 42.0846Z" fill="white" stroke="black" stroke-width="0.922879" stroke-miterlimit="10" stroke-linecap="round" stroke-linejoin="round"/>
<path d="M161.786 40.9561L159.043 53.5762L162.99 54.2603L164.921 40.8633L161.786 40.9561Z" fill="white" stroke="black" stroke-width="0.922879" stroke-miterlimit="10" stroke-linecap="round" stroke-linejoin="round"/>
<path d="M164.455 49.7357C162.901 49.358 161.347 48.9494 159.768 48.6832C159.146 48.578 159.047 49.618 158.914 50.0266C158.508 51.2524 158.081 52.4596 157.663 53.6762C157.41 54.4129 157.156 55.1465 156.905 55.8832C156.797 56.1989 156.308 56.589 156.106 56.8521C155.487 57.6662 154.927 58.5329 154.472 59.4522C153.348 61.7243 152.785 65.2469 155.298 66.8503C157.394 68.1876 160.421 67.1506 162.003 65.4698C164.699 62.6065 164.746 58.1893 164.74 54.4995C164.74 54.0476 164.761 49.8131 164.455 49.7357Z" fill="white" stroke="black" stroke-width="0.922879" stroke-miterlimit="10" stroke-linecap="round" stroke-linejoin="round"/>
<path d="M164.39 39.1265L164.774 34.9353L168.718 33.3411L171.113 30.1404C171.37 29.7968 171.38 29.3294 171.135 28.9766C170.884 28.6144 170.426 28.4596 170.008 28.5958L162.486 31.0412C161.462 31.3755 160.71 32.2546 160.539 33.3195L159.512 39.8261L164.39 39.1265Z" fill="white" stroke="black" stroke-width="0.922879" stroke-miterlimit="10" stroke-linecap="round" stroke-linejoin="round"/>
<path d="M167.535 30.5973L167.628 30.5664" stroke="black" stroke-width="0.922879" stroke-miterlimit="10" stroke-linecap="round" stroke-linejoin="round"/>
<path d="M163.68 31.8933L166.484 30.9492" stroke="black" stroke-width="0.922879" stroke-miterlimit="10" stroke-linecap="round" stroke-linejoin="round"/>
<path d="M164.395 39.1239L168.307 37.5731L168.722 33.3386L171.118 30.1379C171.375 29.7943 171.824 29.655 172.229 29.7881C172.647 29.9274 172.922 30.3236 172.91 30.7632L172.687 38.6689C172.656 39.7461 172.025 40.7181 171.05 41.1793L165.097 44.0023L164.395 39.1239Z" fill="white" stroke="black" stroke-width="0.922879" stroke-miterlimit="10" stroke-linecap="round" stroke-linejoin="round"/>
<path d="M166.589 44.17C165.072 46.1976 161.962 46.6743 159.903 45.1327C158.578 44.1422 157.845 42.4737 158.012 40.8239C158.547 35.5555 166.314 35.1995 167.431 40.2822C167.725 41.6256 167.413 43.0681 166.589 44.17Z" fill="white" stroke="black" stroke-width="0.922879" stroke-miterlimit="10" stroke-linecap="round" stroke-linejoin="round"/>
<path d="M164.496 42.6079C164.236 42.9918 163.797 43.2889 163.14 43.4096C162.37 43.552 161.531 43.2394 161.057 42.611C160.32 41.636 160.58 40.1501 161.614 39.5001C163.75 38.1567 165.536 41.0788 164.496 42.6079Z" fill="white" stroke="black" stroke-width="0.922879" stroke-miterlimit="10" stroke-linecap="round" stroke-linejoin="round"/>
<path d="M152.418 42.4141L155.337 47.5618" stroke="black" stroke-width="0.922879" stroke-miterlimit="10" stroke-linecap="round" stroke-linejoin="round"/>
<path d="M150.969 42.7539L154.03 48.4867" stroke="black" stroke-width="0.922879" stroke-miterlimit="10" stroke-linecap="round" stroke-linejoin="round"/>
<path d="M158.883 50.1133L164.594 51.2895" stroke="black" stroke-width="0.922879" stroke-miterlimit="10" stroke-linecap="round" stroke-linejoin="round"/>
<path d="M158.426 51.4492L164.688 52.6905" stroke="black" stroke-width="0.922879" stroke-miterlimit="10" stroke-linecap="round" stroke-linejoin="round"/>
<path d="M144.082 46.6708C144.175 46.6183 144.267 46.5689 144.363 46.5195" stroke="black" stroke-width="0.922879" stroke-miterlimit="10" stroke-linecap="round" stroke-linejoin="round"/>
<path d="M140.312 50.5456C140.312 50.5456 140.975 48.8276 143.089 47.3047" stroke="black" stroke-width="0.922879" stroke-miterlimit="10" stroke-linecap="round" stroke-linejoin="round"/>
<path d="M36.5547 117.179L44.7297 128.249C45.0733 128.716 45.6862 128.92 46.231 128.716C46.2496 128.71 46.2651 128.704 46.2836 128.697C46.943 128.431 47.2649 127.685 47.0235 127.02L42.2348 113.793C42.2317 113.793 38.576 114.505 36.5547 117.179Z" fill="white" stroke="black" stroke-width="0.922879" stroke-miterlimit="10" stroke-linecap="round" stroke-linejoin="round"/>
<path d="M43.2058 116.488C43.2058 116.488 42.6177 119.407 40.3828 122.367C40.3828 122.367 41.0855 125.078 42.562 125.316C42.562 125.316 44.2769 123.694 44.9207 121.224C44.9207 121.221 45.1157 118.791 43.2058 116.488Z" fill="white" stroke="black" stroke-width="0.922879" stroke-miterlimit="10" stroke-linecap="round" stroke-linejoin="round"/>
<path d="M36.7263 109.686C36.7263 109.686 32.0522 106.916 28.8856 109.652C27.2574 111.058 26.8024 113.392 27.5948 115.391C28.217 116.964 29.5016 118.657 32.1544 118.991C33.7764 119.195 35.4355 118.874 36.878 118.103C37.8809 117.567 39.02 116.71 39.797 115.373C39.797 115.373 40.3758 115.357 41.2023 115.184C44.8333 114.419 47.096 110.788 46.2788 107.17C46.0807 106.294 45.7712 105.359 45.279 104.526C42.7284 100.193 36.163 101.923 36.2311 106.95C36.2403 107.736 36.3889 108.643 36.7263 109.686Z" fill="white" stroke="black" stroke-width="0.922879" stroke-miterlimit="10" stroke-linecap="round" stroke-linejoin="round"/>
<path d="M34.5664 111.942C34.5664 111.942 35.8665 109.171 40.5313 108.23" stroke="black" stroke-width="0.922879" stroke-miterlimit="10" stroke-linecap="round" stroke-linejoin="round"/>
<path d="M40.3008 103.303C41.1458 103.098 42.3809 103.105 43.616 104.194L40.3008 103.303Z" fill="white"/>
<path d="M40.3008 103.303C41.1458 103.098 42.3809 103.105 43.616 104.194" stroke="black" stroke-width="0.922879" stroke-miterlimit="10" stroke-linecap="round" stroke-linejoin="round"/>
<path d="M39.2188 103.746C39.2188 103.746 39.2528 103.722 39.3177 103.688L39.2188 103.746Z" fill="white"/>
<path d="M39.2188 103.746C39.2188 103.746 39.2528 103.722 39.3177 103.688" stroke="black" stroke-width="0.922879" stroke-miterlimit="10" stroke-linecap="round" stroke-linejoin="round"/>
<path d="M53.168 48.9136C52.8275 48.9632 52.4746 48.9787 52.1465 48.9756C45.3241 48.9663 38.5049 48.9632 31.6826 48.9632C30.4846 48.9632 27.9464 49.3749 27.2499 48.211C26.9682 47.7405 26.962 47.1616 26.962 46.6137C26.9682 37.4203 26.9558 28.2269 26.9558 19.0334C26.9558 17.7179 26.8103 15.6811 28.6552 15.6811C36.0409 15.6811 43.4235 15.6811 50.8092 15.6811C52.1774 15.6811 54.8643 15.2694 54.8643 17.3712V47.2731C54.8674 48.3843 54.0656 48.7805 53.168 48.9136Z" fill="white" stroke="black" stroke-width="0.922879" stroke-miterlimit="10" stroke-linecap="round" stroke-linejoin="round"/>
<path d="M39.0061 29.1461H30.636C30.3698 29.1461 30.1562 28.9294 30.1562 28.6663V19.2376C30.1562 18.9714 30.3729 18.7578 30.636 18.7578H39.0061C39.2723 18.7578 39.4859 18.9745 39.4859 19.2376V28.6663C39.4859 28.9325 39.2723 29.1461 39.0061 29.1461Z" fill="white" stroke="black" stroke-width="0.922879" stroke-miterlimit="10" stroke-linecap="round" stroke-linejoin="round"/>
<path d="M38.1807 22.2944C38.0755 21.4926 37.3852 20.855 36.5773 20.8674C35.3143 20.8859 34.8222 22.3687 34.8222 22.3687C34.8222 22.3687 34.3331 20.8859 33.067 20.8674C32.2591 20.855 31.5689 21.4926 31.4636 22.2944C31.38 22.9196 31.5534 23.6997 32.6027 24.2847C32.6027 24.2847 32.3613 25.4827 32.5346 26.758C32.5563 26.9158 32.6956 27.0304 32.8566 27.0304C33.0113 27.0304 33.1444 26.922 33.1754 26.7704C33.2837 26.2163 33.6614 24.9719 34.8222 24.9719C35.9829 24.9719 36.3606 26.2194 36.4689 26.7704C36.4999 26.922 36.633 27.0304 36.7878 27.0304C36.9487 27.0304 37.088 26.9158 37.1097 26.758C37.2861 25.4827 37.0416 24.2847 37.0416 24.2847C38.0909 23.6997 38.2612 22.9196 38.1807 22.2944Z" stroke="black" stroke-width="0.922879" stroke-miterlimit="10" stroke-linecap="round" stroke-linejoin="round"/>
<path d="M42.0273 23.4141H51.6882" stroke="black" stroke-width="0.922879" stroke-miterlimit="10" stroke-linecap="round" stroke-linejoin="round"/>
<path d="M42.0273 27.9141H51.6882" stroke="black" stroke-width="0.922879" stroke-miterlimit="10" stroke-linecap="round" stroke-linejoin="round"/>
<path d="M42.0273 18.918H51.6882" stroke="black" stroke-width="0.922879" stroke-miterlimit="10" stroke-linecap="round" stroke-linejoin="round"/>
<path d="M30.1562 32.4102H51.685" stroke="black" stroke-width="0.922879" stroke-miterlimit="10" stroke-linecap="round" stroke-linejoin="round"/>
<path d="M30.1562 36.9023H51.685" stroke="black" stroke-width="0.922879" stroke-miterlimit="10" stroke-linecap="round" stroke-linejoin="round"/>
<path d="M30.1562 36.9023H51.685" stroke="black" stroke-width="0.922879" stroke-miterlimit="10" stroke-linecap="round" stroke-linejoin="round"/>
<path d="M30.1562 41.3984H51.685" stroke="black" stroke-width="0.922879" stroke-miterlimit="10" stroke-linecap="round" stroke-linejoin="round"/>
<path d="M30.1562 45.8945H51.685" stroke="black" stroke-width="0.922879" stroke-miterlimit="10" stroke-linecap="round" stroke-linejoin="round"/>
<path d="M47.6992 14.1044C46.4889 14.1044 45.2786 14.1044 44.0682 14.1044C43.8825 13.3584 43.4615 12.7548 43.3687 12.6433C43.0251 12.2378 42.5824 11.919 42.0872 11.7271C41.1678 11.3742 40.1185 11.4794 39.2765 11.9809C38.8648 12.2254 38.5057 12.5597 38.2364 12.956C38.0445 13.2438 37.8959 14.1198 37.54 14.1106C36.8683 14.0982 36.1965 14.092 35.5248 14.0982C35.1565 14.1013 34.104 13.9279 33.8409 14.2065C33.5716 14.4882 33.7388 15.3271 33.7388 15.6768H48.0985V14.4975C48.0985 14.2808 47.919 14.1044 47.6992 14.1044Z" fill="white" stroke="black" stroke-width="0.922879" stroke-miterlimit="10" stroke-linecap="round" stroke-linejoin="round"/>
<path d="M40.6914 12.578C40.7316 12.5718 40.7719 12.5687 40.8121 12.5625" stroke="black" stroke-width="0.922879" stroke-miterlimit="10" stroke-linecap="round" stroke-linejoin="round"/>
<path d="M38.9609 13.9267C38.9609 13.9267 39.094 13.3664 39.6791 12.9609" stroke="black" stroke-width="0.922879" stroke-miterlimit="10" stroke-linecap="round" stroke-linejoin="round"/>
<path d="M172.395 83.1849C172.104 87.6547 170.522 92.0162 168.132 95.7864C167.916 96.13 167.628 96.8079 167.293 97.0431C166.575 97.5477 165.049 96.5479 164.347 96.2848C163.786 96.0774 163.226 95.87 162.666 95.6657C159.966 94.672 157.252 93.7063 154.543 92.7188C150.488 91.2423 146.433 89.7658 142.378 88.2892C142.14 88.2026 141.902 88.1159 141.663 88.0292C140.651 87.6609 139.862 86.853 139.518 85.8346L138.051 81.4948L140.01 75.7961L143.969 73.0071C144.796 72.4251 145.827 72.2239 146.805 72.4499C150.055 73.199 153.302 73.9512 156.549 74.6972C160.285 75.5608 164.021 76.4152 167.764 77.2416C168.965 77.5078 170.163 77.771 171.364 78.0279C172.289 78.226 172.283 78.8017 172.357 79.6282C172.46 80.8138 172.469 82.0024 172.395 83.1849Z" fill="white" stroke="black" stroke-width="0.922879" stroke-miterlimit="10" stroke-linecap="round" stroke-linejoin="round"/>
<path d="M172.397 83.1853C172.106 87.6551 170.524 92.0166 168.134 95.7868C167.918 96.1304 167.63 96.8083 167.296 97.0435C166.578 97.5481 165.051 96.5483 164.349 96.2852C163.789 96.0778 163.228 95.8704 162.668 95.6661C162.86 95.3968 168.413 87.522 167.497 77.2266L167.769 77.2451C168.97 77.5113 170.168 77.7745 171.369 78.0314C172.295 78.2295 172.289 78.8052 172.363 79.6317C172.462 80.8142 172.471 82.0028 172.397 83.1853Z" fill="white" stroke="black" stroke-width="0.922879" stroke-miterlimit="10" stroke-linecap="round" stroke-linejoin="round"/>
<path d="M167.59 79.9492L172.4 80.7664" stroke="black" stroke-width="0.922879" stroke-miterlimit="10" stroke-linecap="round" stroke-linejoin="round"/>
<path d="M163.914 93.6055L168.464 95.2522" stroke="black" stroke-width="0.922879" stroke-miterlimit="10" stroke-linecap="round" stroke-linejoin="round"/>
<path d="M165.121 91.1094L169.746 92.9078" stroke="black" stroke-width="0.922879" stroke-miterlimit="10" stroke-linecap="round" stroke-linejoin="round"/>
<path d="M166.215 88.1719L171.007 89.9115" stroke="black" stroke-width="0.922879" stroke-miterlimit="10" stroke-linecap="round" stroke-linejoin="round"/>
<path d="M166.961 85.4062L171.883 86.8178" stroke="black" stroke-width="0.922879" stroke-miterlimit="10" stroke-linecap="round" stroke-linejoin="round"/>
<path d="M167.402 82.7148L172.349 83.7425" stroke="black" stroke-width="0.922879" stroke-miterlimit="10" stroke-linecap="round" stroke-linejoin="round"/>
<path d="M142.363 86.2259C142.363 86.2259 146.678 82.1244 146.384 74.293" stroke="black" stroke-width="0.922879" stroke-miterlimit="10" stroke-linecap="round" stroke-linejoin="round"/>
<path d="M135.435 73.9961L133.531 80.4656L138.571 82.3383C139.474 82.6045 140.682 81.2116 141.264 79.2274C141.849 77.2432 141.589 75.42 140.685 75.1538L135.435 73.9961Z" fill="white" stroke="black" stroke-width="0.922879" stroke-miterlimit="10" stroke-linecap="round" stroke-linejoin="round"/>
<path d="M134.867 75.9609L141.584 77.3044" stroke="black" stroke-width="0.922879" stroke-miterlimit="10" stroke-linecap="round" stroke-linejoin="round"/>
<path d="M134.117 78.5039L140.491 81.0143" stroke="black" stroke-width="0.922879" stroke-miterlimit="10" stroke-linecap="round" stroke-linejoin="round"/>
<path d="M135.956 77.6644C136.481 75.8784 136.248 74.2366 135.435 73.9972C134.621 73.7578 133.536 75.0116 133.01 76.7975C132.485 78.5835 132.718 80.2253 133.531 80.4647C134.345 80.7041 135.43 79.4503 135.956 77.6644Z" fill="white" stroke="black" stroke-width="0.922879" stroke-miterlimit="10" stroke-linecap="round" stroke-linejoin="round"/>
<path d="M149.836 74.6094L152.947 75.2904" stroke="black" stroke-width="0.922879" stroke-miterlimit="10" stroke-linecap="round" stroke-linejoin="round"/>
<path d="M148.578 74.3359L148.751 74.3731" stroke="black" stroke-width="0.922879" stroke-miterlimit="10" stroke-linecap="round" stroke-linejoin="round"/>
<path d="M162.161 85.5967C163.002 82.7415 160.883 79.603 157.429 78.5866C153.975 77.5702 150.494 79.0609 149.654 81.9161C148.814 84.7713 150.933 87.9099 154.386 88.9262C157.84 89.9426 161.321 88.452 162.161 85.5967Z" fill="white" stroke="black" stroke-width="0.922879" stroke-miterlimit="10" stroke-linecap="round" stroke-linejoin="round"/>
<path d="M149.602 84.2304L158.324 78.9062" stroke="black" stroke-width="0.922879" stroke-miterlimit="10" stroke-linecap="round" stroke-linejoin="round"/>
<path d="M149.984 85.3568L159.342 79.4414" stroke="black" stroke-width="0.922879" stroke-miterlimit="10" stroke-linecap="round" stroke-linejoin="round"/>
<path d="M152.637 88.1711L161.898 82.2773" stroke="black" stroke-width="0.922879" stroke-miterlimit="10" stroke-linecap="round" stroke-linejoin="round"/>
<path d="M154.395 88.929L162.313 83.707" stroke="black" stroke-width="0.922879" stroke-miterlimit="10" stroke-linecap="round" stroke-linejoin="round"/>
<path d="M138.26 120.422C138.69 121.042 138.479 122.168 139.145 122.586C139.405 122.75 139.752 122.617 139.854 122.335C140.092 121.67 140.151 120.723 140.717 120.23C141.203 119.81 142.132 119.667 142.736 119.454C143.042 119.345 143.144 118.989 142.974 118.717C142.779 118.407 142.101 118.302 141.767 118.184C141.454 118.073 141.144 117.962 140.832 117.85C140.479 117.723 140.423 117.256 140.337 116.946C140.213 116.494 140.073 116.033 139.844 115.618C139.767 115.479 139.64 115.358 139.482 115.327C139.318 115.296 139.145 115.371 139.03 115.494C138.767 115.779 138.668 116.386 138.538 116.751C138.442 117.017 138.374 117.339 138.238 117.584C137.823 118.33 135.907 117.915 135.734 118.909C135.632 119.484 136.659 119.754 137.043 119.871C137.315 119.955 137.634 119.992 137.894 120.113C138.052 120.184 138.17 120.292 138.26 120.422Z" fill="white" stroke="black" stroke-width="0.922879" stroke-miterlimit="10" stroke-linecap="round" stroke-linejoin="round"/>
<path d="M29.3045 99.6236C29.7008 100.193 29.5058 101.224 30.1156 101.608C30.3539 101.756 30.6727 101.639 30.7656 101.379C30.9823 100.769 31.038 99.9022 31.558 99.4502C32.0038 99.0633 32.855 98.9364 33.4091 98.7383C33.6877 98.6392 33.7836 98.3111 33.6258 98.0635C33.4462 97.7818 32.8241 97.6828 32.5176 97.5744C32.2328 97.4723 31.945 97.3701 31.6602 97.268C31.3352 97.1534 31.2856 96.7232 31.2051 96.4384C31.0906 96.0236 30.9637 95.5995 30.7532 95.2219C30.682 95.0919 30.5644 94.9835 30.422 94.9526C30.2703 94.9216 30.1125 94.9928 30.0072 95.1043C29.7658 95.3674 29.676 95.9214 29.5553 96.2558C29.4686 96.5003 29.4036 96.7944 29.2798 97.0203C28.899 97.7044 27.1439 97.3237 26.983 98.2337C26.8901 98.7631 27.8311 99.0076 28.184 99.119C28.4347 99.1964 28.7257 99.2305 28.964 99.3419C29.1126 99.4069 29.221 99.506 29.3045 99.6236Z" fill="white" stroke="black" stroke-width="0.922879" stroke-miterlimit="10" stroke-linecap="round" stroke-linejoin="round"/>
<path d="M131.074 127.362L131.535 128.656C131.742 129.238 132.166 128.644 132.262 128.375C132.383 128.037 132.504 127.7 132.624 127.362C132.659 127.27 132.733 127.195 132.826 127.161C132.826 127.161 134.113 126.703 134.12 126.7C134.636 126.514 134.336 126.106 133.825 125.966C133.485 125.873 133.16 125.728 132.829 125.61C132.736 125.576 132.662 125.502 132.628 125.409C132.507 125.072 132.299 123.933 131.882 123.896C131.423 123.855 131.197 125.069 131.077 125.409C131.043 125.502 130.968 125.576 130.876 125.61C130.541 125.731 129.241 125.942 129.368 126.48C129.455 126.858 130.563 127.047 130.876 127.158C130.965 127.195 131.04 127.27 131.074 127.362Z" fill="white" stroke="black" stroke-width="0.922879" stroke-miterlimit="10" stroke-linecap="round" stroke-linejoin="round"/>
<path d="M64.3417 15.8151C64.7658 15.518 65.5241 15.4065 66.007 15.2363C66.3785 15.1032 66.3754 14.5646 66.007 14.4346C66.007 14.4346 64.3541 13.8433 64.351 13.8433C63.7164 13.6174 63.9517 11.4784 63.0169 11.6549C62.5959 11.7353 62.4349 12.4628 62.3328 12.7971C62.1594 13.3666 62.1006 13.7659 61.4846 13.9579C61.0667 14.0879 60.039 14.2055 59.9183 14.7441C59.6954 15.7563 61.8746 15.4406 62.1037 16.0875C62.2554 16.5116 62.5463 18.1027 63.153 18.0222C64.0724 17.9014 63.7226 16.2856 64.3076 15.8399C64.32 15.8306 64.3324 15.8213 64.3417 15.8151Z" fill="white" stroke="black" stroke-width="0.922879" stroke-miterlimit="10" stroke-linecap="round" stroke-linejoin="round"/>
<path d="M170.874 69.6287C171.223 69.381 171.852 69.2913 172.251 69.1489C172.558 69.0405 172.555 68.5917 172.251 68.4833C172.251 68.4833 170.883 67.9943 170.88 67.9943C170.357 67.8085 170.549 66.0349 169.775 66.1803C169.428 66.2454 169.292 66.849 169.208 67.1276C169.066 67.6012 169.016 67.9293 168.506 68.0902C168.159 68.1986 167.308 68.2945 167.209 68.7403C167.023 69.5791 168.828 69.3191 169.02 69.8546C169.143 70.2075 169.385 71.5231 169.889 71.4581C170.651 71.359 170.36 70.0187 170.846 69.6503C170.855 69.641 170.864 69.6349 170.874 69.6287Z" fill="white" stroke="black" stroke-width="0.922879" stroke-miterlimit="10" stroke-linecap="round" stroke-linejoin="round"/>
<path d="M48.0215 57.7114C48.2815 57.5288 48.752 57.4607 49.0492 57.3524C49.2783 57.2719 49.2752 56.9376 49.0492 56.8571C49.0492 56.8571 48.0277 56.4918 48.0246 56.4918C47.6346 56.3525 47.777 55.0308 47.2012 55.1391C46.9412 55.1886 46.8422 55.6375 46.7802 55.8449C46.6719 56.1978 46.6379 56.4423 46.2571 56.563C46.0002 56.6435 45.3625 56.7178 45.2913 57.049C45.152 57.6743 46.4986 57.4793 46.641 57.8786C46.7338 58.1417 46.9133 59.1229 47.2879 59.0734C47.8544 58.9991 47.6408 57.9993 47.9998 57.7269C48.006 57.7207 48.0122 57.7145 48.0215 57.7114Z" fill="white" stroke="black" stroke-width="0.922879" stroke-miterlimit="10" stroke-linecap="round" stroke-linejoin="round"/>
<path d="M131.264 16.3286C131.524 16.146 131.994 16.0779 132.291 15.9695C132.52 15.8891 132.517 15.5548 132.291 15.4743C132.291 15.4743 131.27 15.109 131.267 15.109C130.877 14.9697 131.019 13.648 130.443 13.7563C130.183 13.8058 130.084 14.2547 130.022 14.4621C129.914 14.8149 129.88 15.0595 129.499 15.1802C129.242 15.2607 128.605 15.335 128.534 15.6662C128.394 16.2915 129.741 16.0965 129.886 16.4958C129.979 16.7589 130.159 17.7401 130.533 17.6906C131.1 17.6163 130.886 16.6165 131.245 16.3441C131.248 16.3379 131.258 16.3348 131.264 16.3286Z" fill="white" stroke="black" stroke-width="0.922879" stroke-miterlimit="10" stroke-linecap="round" stroke-linejoin="round"/>
<path d="M57.0143 124.281C57.3641 124.033 57.9925 123.944 58.3918 123.801C58.6982 123.693 58.6951 123.244 58.3918 123.136C58.3918 123.136 57.0236 122.647 57.0205 122.647C56.4974 122.461 56.6893 120.687 55.9154 120.833C55.5688 120.898 55.4326 121.501 55.349 121.78C55.2066 122.253 55.1571 122.582 54.6463 122.743C54.2996 122.851 53.4484 122.947 53.3493 123.393C53.1636 124.231 54.9682 123.971 55.1602 124.507C55.2871 124.86 55.5254 126.175 56.03 126.11C56.7914 126.011 56.5005 124.671 56.9865 124.303C56.9957 124.293 57.005 124.287 57.0143 124.281Z" fill="white" stroke="black" stroke-width="0.922879" stroke-miterlimit="10" stroke-linecap="round" stroke-linejoin="round"/>
<path d="M67.5417 75.2888C67.8914 75.0443 68.5198 74.9514 68.9191 74.809C69.2256 74.7007 69.2225 74.2519 68.9191 74.1435C68.9191 74.1435 67.551 73.6544 67.5479 73.6544C67.0247 73.4687 67.2166 71.695 66.4428 71.8405C66.0961 71.9055 65.9599 72.5091 65.8763 72.7877C65.7339 73.2613 65.6844 73.5894 65.1737 73.7504C64.827 73.8587 63.9757 73.9547 63.8767 74.4004C63.6909 75.2393 65.4956 74.9793 65.6875 75.5148C65.8113 75.8677 66.0528 77.1832 66.5573 77.1182C67.3188 77.0192 67.0278 75.6788 67.5138 75.3105C67.5231 75.3012 67.5324 75.295 67.5417 75.2888Z" fill="white" stroke="black" stroke-width="0.922879" stroke-miterlimit="10" stroke-linecap="round" stroke-linejoin="round"/>
<path d="M139.875 71.4424C139.875 71.4424 143.162 67.8578 148.771 69.3808" stroke="black" stroke-width="0.922879" stroke-miterlimit="10" stroke-linecap="round" stroke-linejoin="round"/>
<path d="M143.859 69.2685L143.203 64.418" stroke="black" stroke-width="0.922879" stroke-miterlimit="10" stroke-linecap="round" stroke-linejoin="round"/>
<path d="M138.676 67.3398L141.381 70.2898" stroke="black" stroke-width="0.922879" stroke-miterlimit="10" stroke-linecap="round" stroke-linejoin="round"/>
<path d="M147.043 69.0564L147.928 65.4688" stroke="black" stroke-width="0.922879" stroke-miterlimit="10" stroke-linecap="round" stroke-linejoin="round"/>
<path d="M158.689 107.067C158.689 107.067 157.965 102.321 153.702 101.804C150.808 101.454 147.976 103.107 146.942 105.835C146.292 107.546 146.276 109.806 148.356 112.372C149.709 114.044 150.034 116.334 149.084 118.263C149.072 118.287 149.059 118.312 149.047 118.34C148.638 119.154 148.322 120.009 148.174 120.906C147.843 122.915 147.926 126.119 150.861 128.639C151.056 128.806 151.322 128.858 151.56 128.769C151.864 128.654 152.049 128.345 152 128.023C151.74 126.367 151.35 121.374 155.584 119.498C157.482 118.656 159.683 118.715 161.546 119.631C163.484 120.587 165.632 122.615 165.171 126.874C165.118 127.369 165.394 127.84 165.861 128.013C166.295 128.174 166.78 128.047 167.071 127.688C167.954 126.596 169.443 124.002 167.715 120.327C167.044 118.897 167.242 117.201 168.207 115.95C168.452 115.632 168.749 115.294 169.108 114.941C169.108 114.941 173.018 110.824 170.306 106.305C169.3 104.633 167.579 103.473 165.632 103.377C163.92 103.293 161.791 103.962 160.122 106.958C160.113 106.961 159.385 106.899 158.689 107.067Z" fill="white" stroke="black" stroke-width="0.922879" stroke-miterlimit="10" stroke-linecap="round" stroke-linejoin="round"/>
<path d="M160.113 106.965C160.113 106.965 162.227 107.082 163.76 107.819" stroke="black" stroke-width="0.922879" stroke-miterlimit="10" stroke-linecap="round" stroke-linejoin="round"/>
<path d="M158.686 107.066C158.686 107.066 156.983 107.395 156.055 108.36" stroke="black" stroke-width="0.922879" stroke-miterlimit="10" stroke-linecap="round" stroke-linejoin="round"/>
<path d="M150.582 104.116C150.638 104.089 150.693 104.064 150.752 104.039" stroke="black" stroke-width="0.922879" stroke-miterlimit="10" stroke-linecap="round" stroke-linejoin="round"/>
<path d="M148.145 108.403C148.145 108.403 148.21 106.041 149.77 104.66" stroke="black" stroke-width="0.922879" stroke-miterlimit="10" stroke-linecap="round" stroke-linejoin="round"/>
<path d="M163.469 118.957C164.274 119.486 165.283 120.415 165.846 121.947" stroke="black" stroke-width="0.922879" stroke-miterlimit="10" stroke-linecap="round" stroke-linejoin="round"/>
<path d="M162.262 118.352C162.262 118.352 162.333 118.373 162.457 118.423" stroke="black" stroke-width="0.922879" stroke-miterlimit="10" stroke-linecap="round" stroke-linejoin="round"/>
<path d="M30.9453 67.0159C30.9453 67.0159 31.9359 62.2737 37.486 60.3359" stroke="black" stroke-width="0.922879" stroke-miterlimit="10" stroke-linecap="round" stroke-linejoin="round"/>
<path d="M31.3966 65.7514L27.0352 64.7578" stroke="black" stroke-width="0.922879" stroke-miterlimit="10" stroke-linecap="round" stroke-linejoin="round"/>
<path d="M33.1302 63.1374L28.2734 59.3672" stroke="black" stroke-width="0.922879" stroke-miterlimit="10" stroke-linecap="round" stroke-linejoin="round"/>
<path d="M35.4914 61.254L33.6094 57.2578" stroke="black" stroke-width="0.922879" stroke-miterlimit="10" stroke-linecap="round" stroke-linejoin="round"/>
</svg>
