<svg width="216" height="152" viewBox="0 0 216 152" fill="none" xmlns="http://www.w3.org/2000/svg">
<path d="M215.01 2.23438H2.16016V150.211H215.01V2.23438Z" fill="white"/>
<path d="M49.0625 71.6393C48.13 70.6096 46.1947 68.9326 43.4779 68.9493C39.3523 68.9695 36.1693 72.8032 36.8602 76.8684C37.199 78.8574 38.3226 81.2522 40.9858 83.9221C40.9858 83.9221 45.0946 87.8296 44.028 94.615C43.8972 95.4568 44.5177 96.2283 45.3696 96.235C45.3864 96.235 45.3998 96.235 45.4166 96.235C46.0203 96.235 46.5603 95.8526 46.7448 95.2757C47.1607 93.9844 47.9221 91.5091 48.3883 89.3624C48.3883 89.3624 48.4319 89.1813 48.556 88.913C49.5455 86.8133 52.2791 86.3605 54.05 87.8631C54.9892 88.6581 55.8579 89.993 56.0591 92.2335C56.0591 92.2335 56.1933 94.3634 56.6293 95.6749C56.8474 96.3323 57.5886 96.7213 58.2427 96.4899C58.2729 96.4798 58.3064 96.4664 58.3366 96.453C58.8867 96.2316 59.212 95.6682 59.1382 95.0845C58.7793 92.2872 58.9638 89.3792 59.856 86.6959C61.3385 82.235 66.7587 78.1798 64.2599 73.0514C62.2508 68.9292 56.6059 67.8861 53.4094 71.2368C53.2887 71.3609 53.1713 71.4951 53.0505 71.6326C52.6883 72.0552 52.212 72.3705 51.6653 72.4846C51.5646 72.5047 51.4573 72.5248 51.3433 72.5382C50.4846 72.6389 49.6427 72.28 49.0625 71.6393Z" fill="white" stroke="black" stroke-opacity="0.5" stroke-miterlimit="10" stroke-linecap="round" stroke-linejoin="round"/>
<path d="M43.625 70.7522C43.7558 70.7455 43.8866 70.7422 44.0241 70.7422" stroke="black" stroke-opacity="0.5" stroke-miterlimit="10" stroke-linecap="round" stroke-linejoin="round"/>
<path d="M38.3789 75.2886C38.3789 75.2886 39.0464 72.1492 41.9544 71.0859" stroke="black" stroke-opacity="0.5" stroke-miterlimit="10" stroke-linecap="round" stroke-linejoin="round"/>
<path d="M66.3246 104.884L58.7912 109.928L51.9891 102.492C51.9891 102.492 43.8923 102.029 37.4155 97.5448C36.5636 96.9545 35.9833 95.8376 36.2483 94.8313C36.255 94.8146 36.2617 94.7911 36.2651 94.771C36.6407 93.4662 38.1736 92.8994 39.3508 93.5769C39.9948 93.9392 40.6657 94.2377 41.3499 94.4792C43.4227 95.1668 47.5349 96.3709 53.8406 95.6598C54.072 95.633 54.3035 95.5961 54.5349 95.5592C55.7021 95.3747 60.4616 94.9018 61.8401 99.0676L66.3246 104.884Z" fill="white" stroke="black" stroke-opacity="0.5" stroke-miterlimit="10" stroke-linecap="round" stroke-linejoin="round"/>
<path d="M51.0469 98.9355C45.724 98.7276 42.5946 97.6107 41.1959 96.9566C40.5888 96.6749 40.3104 95.9403 40.619 95.3433C40.6291 95.3232 40.6391 95.303 40.6492 95.2863C40.9242 94.7865 41.5112 94.5517 42.0546 94.7161C43.3358 95.1085 46.2438 95.8565 49.8327 95.8799" stroke="black" stroke-opacity="0.5" stroke-miterlimit="10" stroke-linecap="round" stroke-linejoin="round"/>
<path d="M128.003 84.072L112.105 80.2617H105.222H98.336L82.4375 84.072L83.9401 121.289L82.7561 139.368H127.587L126.5 121.289L128.003 84.072Z" fill="white" stroke="black" stroke-opacity="0.5" stroke-miterlimit="10" stroke-linecap="round" stroke-linejoin="round"/>
<path d="M120.944 82.3782C121.098 85.1319 121.219 87.8856 121.363 90.6393C121.504 93.3226 121.565 96.0562 121.927 98.7227C122.074 99.8095 122.242 100.906 122.172 102.006C122.091 103.241 121.34 103.375 120.324 103.744C119.408 104.079 115.145 105.639 113.978 106.062C114.977 107.37 115.977 108.678 116.976 109.986C117.543 110.73 119.542 112.538 119.297 113.524C119.052 114.51 118.2 115.634 117.744 116.553C117.114 117.818 116.497 119.089 115.879 120.363C114.615 122.98 113.364 125.603 112.086 128.212C110.825 130.788 109.564 133.364 108.302 135.94C108.101 136.349 106.428 138.935 106.625 139.364C103.972 133.589 101.323 127.81 98.6695 122.034C97.8679 120.283 97.0629 118.532 96.2579 116.785C95.8152 115.819 94.9766 114.802 94.8291 113.729C94.6949 112.76 95.2986 111.844 95.6776 110.952C95.8319 110.59 97.8913 105.763 97.8981 105.766C95.3657 104.713 92.8401 103.64 90.2976 102.61C89.4893 102.281 89.6067 100.279 89.6268 99.6384C89.7442 96.1669 89.9723 92.9067 89.9723 89.4318C89.9723 87.0437 89.9723 84.6522 89.9723 82.2641L98.324 80.2617H112.096L120.944 82.3782Z" fill="white" stroke="black" stroke-opacity="0.5" stroke-miterlimit="10" stroke-linecap="round" stroke-linejoin="round"/>
<path d="M91.5078 96.2031V101.124" stroke="black" stroke-opacity="0.5" stroke-miterlimit="10" stroke-linecap="round" stroke-linejoin="round"/>
<path d="M91.5078 94.4688V94.7337" stroke="black" stroke-opacity="0.5" stroke-miterlimit="10" stroke-linecap="round" stroke-linejoin="round"/>
<path d="M105.219 80.2617L106.631 139.368" stroke="black" stroke-opacity="0.5" stroke-miterlimit="10" stroke-linecap="round" stroke-linejoin="round"/>
<path d="M82.4357 84.0664L81.1946 84.3817C77.2871 85.3712 76.0058 89.272 74.738 92.6294C73.3963 96.1814 71.9306 99.6932 70.5286 103.222C70.4749 103.353 69.8511 104.594 69.9383 104.704C68.8784 103.376 67.8185 102.048 66.7552 100.72C65.6752 99.3678 64.7998 97.2447 62.9517 96.7248C60.966 96.168 58.9368 97.9289 57.4241 98.9654C55.8007 100.082 54.288 101.357 52.9128 102.769C51.8026 103.906 50.035 105.7 51.3029 107.351C54.3651 111.56 57.4643 115.746 60.7614 119.771C63.4816 123.095 66.4533 127.157 71.1759 127.291C71.7528 127.308 72.3297 127.267 72.9033 127.18C75.7811 126.737 78.3738 124.903 79.8463 122.404L83.7169 115.83L82.4357 84.0664Z" fill="white" stroke="black" stroke-opacity="0.5" stroke-miterlimit="10" stroke-linecap="round" stroke-linejoin="round"/>
<path d="M68.3728 102.745C58.9813 106.475 55.4997 112.667 55.3823 112.878C54.0038 111.05 52.6487 109.202 51.3004 107.347C50.0291 105.7 51.8001 103.906 52.9103 102.765C54.2855 101.357 55.7982 100.079 57.4182 98.9652C58.9309 97.9254 60.9602 96.1645 62.9458 96.7247C64.7939 97.2479 65.6693 99.3644 66.746 100.716C67.2927 101.394 67.8294 102.068 68.3728 102.745Z" fill="white" stroke="black" stroke-opacity="0.5" stroke-miterlimit="10" stroke-linecap="round" stroke-linejoin="round"/>
<path d="M69.9258 104.703L73.5382 108.946" stroke="black" stroke-opacity="0.5" stroke-miterlimit="10" stroke-linecap="round" stroke-linejoin="round"/>
<path d="M74.4883 109.941L74.7331 110.206" stroke="black" stroke-opacity="0.5" stroke-miterlimit="10" stroke-linecap="round" stroke-linejoin="round"/>
<path d="M61.1797 98.4784C61.2468 98.4415 61.3139 98.4046 61.3809 98.3711" stroke="black" stroke-opacity="0.5" stroke-miterlimit="10" stroke-linecap="round" stroke-linejoin="round"/>
<path d="M56.832 101.578C56.832 101.578 58.0596 100.417 59.8776 99.25" stroke="black" stroke-opacity="0.5" stroke-miterlimit="10" stroke-linecap="round" stroke-linejoin="round"/>
<path d="M115.932 131.021C116.472 129.193 117.025 128.066 117.77 126.839C118.541 125.574 119.739 124.615 121.157 124.172C122.925 123.622 124.461 123.448 125.568 123.407C125.736 123.401 126.333 122.28 126.447 122.113C126.779 121.623 127.111 121.133 127.443 120.644C128.429 119.191 129.432 117.769 130.351 116.277C131.518 114.381 132.783 112.366 134.752 111.208C138.84 108.8 144.693 111.728 144.224 116.743C143.989 119.242 141.986 120.942 140.43 122.72C139.015 124.333 137.599 125.946 136.187 127.563C135.771 128.036 135.355 128.512 134.939 128.985C134.855 129.079 134.48 129.388 134.47 129.519C134.265 132.329 132.518 134.513 129.707 134.996C129.442 135.043 129.17 135.08 128.902 135.076C128.664 136.653 127.637 138.568 126.074 139.162C124.947 139.591 123.606 139.299 122.744 138.457C122.734 138.444 122.724 138.437 122.71 138.44C121.895 138.816 120.949 138.776 120.151 138.367C119.333 137.944 118.719 137.132 118.531 136.233C118.484 136.026 118.461 135.808 118.461 135.589C118.461 135.589 118.464 135.445 118.461 135.445C116.354 135.274 115.395 132.839 115.932 131.021Z" fill="white" stroke="black" stroke-opacity="0.5" stroke-miterlimit="10" stroke-linecap="round" stroke-linejoin="round"/>
<path d="M134.466 129.518C134.466 129.518 134.631 127.774 133.551 126.355" stroke="black" stroke-opacity="0.5" stroke-miterlimit="10" stroke-linecap="round" stroke-linejoin="round"/>
<path d="M122.71 138.442C122.71 138.442 122.401 135.943 124.618 132.441" stroke="black" stroke-opacity="0.5" stroke-miterlimit="10" stroke-linecap="round" stroke-linejoin="round"/>
<path d="M118.465 135.444C118.465 135.444 118.385 133.747 120.397 130.594" stroke="black" stroke-opacity="0.5" stroke-miterlimit="10" stroke-linecap="round" stroke-linejoin="round"/>
<path d="M128.546 131.867C128.546 131.867 127.785 134.983 126.621 136.757" stroke="black" stroke-opacity="0.5" stroke-miterlimit="10" stroke-linecap="round" stroke-linejoin="round"/>
<path d="M128.905 135.08C128.905 135.08 128.261 134.801 127.688 134.566" stroke="black" stroke-opacity="0.5" stroke-miterlimit="10" stroke-linecap="round" stroke-linejoin="round"/>
<path d="M147.81 114.227C145.764 117.671 143.131 120.703 140.626 123.809C140.475 123.994 140.327 124.182 140.176 124.373C139.23 125.55 138.295 126.744 137.399 127.931C137.094 128.334 136 130.263 135.632 130.205C134.253 130.008 132.821 129.555 131.597 128.934C130.208 128.22 128.937 127.281 127.83 126.181C126.834 125.194 124.107 122.927 124.643 121.347C124.959 120.428 126.22 119.331 126.814 118.573C127.655 117.493 128.497 116.41 129.339 115.33C130.496 113.841 131.657 112.355 132.814 110.866C132.864 110.792 133.8 109.672 133.77 109.635L127.266 102.135L127.994 84.0664L129.936 84.5561C133.253 85.398 135.907 87.3769 138 90.0199C140.438 93.1091 142.937 96.1445 145.278 99.3075C146.905 101.501 148.387 103.929 149.038 106.613C149.705 109.387 149.239 111.822 147.81 114.227Z" fill="white" stroke="black" stroke-opacity="0.5" stroke-miterlimit="10" stroke-linecap="round" stroke-linejoin="round"/>
<path d="M140.172 124.367C139.227 125.544 138.291 126.738 137.395 127.926C137.09 128.328 135.997 130.257 135.628 130.2C134.249 130.002 132.817 129.549 131.593 128.928C130.204 128.214 128.933 127.275 127.826 126.175C126.83 125.189 124.103 122.921 124.64 121.341C124.955 120.422 126.216 119.326 126.81 118.568C127.652 117.488 128.493 116.404 129.335 115.324C130.375 116.75 134.477 121.972 140.172 124.367Z" fill="white" stroke="black" stroke-opacity="0.5" stroke-miterlimit="10" stroke-linecap="round" stroke-linejoin="round"/>
<path d="M126.809 123.375C127.352 124.016 128.107 124.807 129.002 125.475" stroke="black" stroke-opacity="0.5" stroke-miterlimit="10" stroke-linecap="round" stroke-linejoin="round"/>
<path d="M125.898 122.188C125.898 122.188 125.932 122.238 125.996 122.328" stroke="black" stroke-opacity="0.5" stroke-miterlimit="10" stroke-linecap="round" stroke-linejoin="round"/>
<path d="M133.766 109.634L136.59 106.008" stroke="black" stroke-opacity="0.5" stroke-miterlimit="10" stroke-linecap="round" stroke-linejoin="round"/>
<path d="M137.391 104.942L137.659 104.566" stroke="black" stroke-opacity="0.5" stroke-miterlimit="10" stroke-linecap="round" stroke-linejoin="round"/>
<path d="M112.104 80.2617H105.221H98.335L93.1562 81.5027C93.4481 81.4323 97.3455 91.4074 97.644 92.1084C100.21 98.1693 102.769 104.23 105.332 110.291C106.123 112.163 106.821 109.744 107.116 108.97C107.804 107.165 108.488 105.357 109.165 103.549C111.198 98.1123 113.177 92.6518 115.183 87.2047C115.3 86.8827 117.178 81.4726 117.289 81.4994C117.272 81.4994 112.104 80.2617 112.104 80.2617Z" fill="white" stroke="black" stroke-opacity="0.5" stroke-miterlimit="10" stroke-linecap="round" stroke-linejoin="round"/>
<path d="M140.98 60.4659C139.36 44.7821 135.513 33.2004 135.513 33.2004C137.723 30.2555 136.613 26.4989 135.087 23.6244C133.245 20.1596 130.418 17.3086 127.02 15.3431C116.28 9.14138 105.222 14.404 105.222 14.404C105.222 14.404 94.1598 9.14138 83.4233 15.3431C80.0256 17.3053 77.1947 20.1563 75.3566 23.6244C73.8305 26.4989 72.7203 30.2555 74.9307 33.2004C74.9307 33.2004 71.0869 44.7821 69.4635 60.4659C68.9872 65.0644 71.325 69.5287 75.4002 71.7122C80.5756 74.4827 89.6552 77.2767 105.225 77.2767C120.795 77.2767 129.871 74.4861 135.05 71.7122C139.122 69.5287 141.456 65.0644 140.98 60.4659Z" fill="white" stroke="black" stroke-opacity="0.5" stroke-miterlimit="10" stroke-linecap="round" stroke-linejoin="round"/>
<path d="M110.77 72.4297H105.222H99.6742L98.3359 80.2615C98.3359 80.2615 99.2248 81.2711 101.559 82.0124C103.934 82.7704 106.503 82.7704 108.881 82.0124C111.216 81.2678 112.105 80.2615 112.105 80.2615L110.77 72.4297Z" fill="white" stroke="black" stroke-opacity="0.5" stroke-miterlimit="10" stroke-linecap="round" stroke-linejoin="round"/>
<path d="M128.848 52.708C128.848 52.2854 129.69 51.4201 129.921 51.1048C130.79 49.9275 131.766 48.8173 132.879 47.8681C135.72 45.443 139.333 44.6045 142.482 47.0564C144.488 48.6194 145.528 51.0746 145.407 53.6002C145.269 56.4009 143.532 59.4129 141.057 60.8049C139.574 61.64 137.897 62.0828 136.22 62.3142C135.509 62.4115 128.848 62.7201 128.848 62.2572C128.848 62.2538 128.848 52.708 128.848 52.708Z" fill="white" stroke="black" stroke-opacity="0.5" stroke-miterlimit="10" stroke-linecap="round" stroke-linejoin="round"/>
<path d="M134.511 51.2373C134.511 51.2373 137.818 48.4466 140.575 50.6235C141.981 51.7337 142.481 53.6623 141.887 55.3528C141.229 57.2243 139.412 59.4783 134.508 59.7969" stroke="black" stroke-opacity="0.5" stroke-miterlimit="10" stroke-linecap="round" stroke-linejoin="round"/>
<path d="M81.5804 52.708C81.5804 52.2854 80.7385 51.4201 80.5071 51.1048C79.6384 49.9275 78.6623 48.8173 77.5488 47.8681C74.7078 45.443 71.0955 44.6045 67.9459 47.0564C65.9402 48.6194 64.9004 51.0746 65.0212 53.6002C65.1587 56.4009 66.8961 59.4129 69.3714 60.8049C70.854 61.64 72.531 62.0828 74.2081 62.3142C74.9191 62.4115 81.5804 62.7201 81.5804 62.2572C81.5804 62.2538 81.5804 52.708 81.5804 52.708Z" fill="white" stroke="black" stroke-opacity="0.5" stroke-miterlimit="10" stroke-linecap="round" stroke-linejoin="round"/>
<path d="M75.9182 51.2373C75.9182 51.2373 72.611 48.4466 69.854 50.6235C68.4486 51.7337 67.9488 53.6623 68.5425 55.3528C69.1999 57.2243 71.0179 59.4783 75.9216 59.7969" stroke="black" stroke-opacity="0.5" stroke-miterlimit="10" stroke-linecap="round" stroke-linejoin="round"/>
<path d="M127.323 67.6385C123.345 71.4656 116.606 74.927 105.209 74.927C93.815 74.927 87.0733 71.4656 83.0953 67.6385C79.0033 63.6975 77.1921 57.9485 78.0273 52.3304C82.1864 24.4343 105.206 25.3432 105.206 25.3432C105.206 25.3432 105.732 25.3231 106.648 25.3835C105.833 28.3888 104.417 37.4147 115.781 40.0745C115.781 40.0745 123.002 41.3155 123.147 48.3122C123.147 48.3122 125.481 40.5843 117.388 36.3548C117.388 36.3548 112.98 33.7922 113.427 28.8651C113.427 28.8651 118.055 36.7271 127.212 37.5723C129.573 41.2652 131.451 46.075 132.387 52.3304C133.226 57.9485 131.415 63.6975 127.323 67.6385Z" fill="white" stroke="black" stroke-opacity="0.5" stroke-miterlimit="10" stroke-linecap="round" stroke-linejoin="round"/>
<path d="M98.0513 50.4565C98.0513 53.2706 96.0723 55.5548 93.6272 55.5548C91.1854 55.5548 89.2031 53.2706 89.2031 50.4565C89.2031 47.6357 91.182 45.3516 93.6272 45.3516C94.8581 45.3516 95.9717 45.9285 96.7666 46.8676C97.3301 47.515 97.7326 48.33 97.9171 49.2524C98.011 49.6381 98.0513 50.0406 98.0513 50.4565Z" fill="black" fill-opacity="0.5"/>
<path d="M97.9199 49.2525L94.6094 49.068L96.7694 46.8711C97.3296 47.5184 97.7354 48.3335 97.9199 49.2525Z" fill="white"/>
<path d="M87.6562 41.8454C87.6562 41.8454 91.3592 37.1966 96.7258 40.2589" stroke="black" stroke-opacity="0.5" stroke-miterlimit="10" stroke-linecap="round" stroke-linejoin="round"/>
<path d="M112.398 50.4565C112.398 53.2706 114.377 55.5548 116.823 55.5548C119.268 55.5548 121.247 53.2706 121.247 50.4565C121.247 47.6357 119.268 45.3516 116.823 45.3516C115.592 45.3516 114.478 45.9285 113.683 46.8676C113.12 47.515 112.717 48.33 112.533 49.2524C112.439 49.6381 112.398 50.0406 112.398 50.4565Z" fill="black" fill-opacity="0.5"/>
<path d="M112.535 49.2525L115.846 49.068L113.686 46.8711C113.125 47.5184 112.723 48.3335 112.535 49.2525Z" fill="white"/>
<path d="M122.8 41.8454C122.8 41.8454 119.097 37.1966 113.73 40.2589" stroke="black" stroke-opacity="0.5" stroke-miterlimit="10" stroke-linecap="round" stroke-linejoin="round"/>
<path d="M105.225 50.3203V55.5594C105.225 55.5594 104.528 55.0731 103.552 55.0161C102.126 54.9322 101.083 56.4248 101.74 57.696C102.156 58.4976 103.119 59.2825 105.225 59.5508" stroke="black" stroke-opacity="0.5" stroke-miterlimit="10" stroke-linecap="round" stroke-linejoin="round"/>
<path d="M104.184 65.3658C104.184 65.3658 108.155 67.1032 111.952 64.2656" stroke="black" stroke-opacity="0.5" stroke-miterlimit="10" stroke-linecap="round" stroke-linejoin="round"/>
<path d="M79.3125 32.7227C79.3125 32.7227 88.439 22.0566 107.262 22.2914C107.262 22.2914 126.981 22.5329 132.592 32.082C132.592 32.082 131.033 24.2032 118.529 20.1112C111.378 17.7701 103.67 17.5856 96.4017 19.5209C89.8746 21.265 82.2742 24.9445 79.3125 32.7227Z" fill="white" stroke="black" stroke-opacity="0.5" stroke-miterlimit="10" stroke-linecap="round" stroke-linejoin="round"/>
<path d="M116.842 21.6906C116.852 22.3044 116.782 22.9216 116.628 23.532C115.937 26.2522 113.76 28.3619 111.191 29.3749C107.712 30.7467 103.386 30.1295 100.535 27.6609C98.1969 25.635 97.0498 22.2608 98.0593 19.2824C99.733 14.3485 106.344 12.3192 110.922 13.946C110.929 13.9493 110.936 13.9493 110.939 13.9527C111.825 14.2713 112.67 14.7107 113.428 15.2708C115.42 16.7467 116.802 19.165 116.842 21.6906Z" fill="white" stroke="black" stroke-opacity="0.5" stroke-miterlimit="10" stroke-linecap="round" stroke-linejoin="round"/>
<path d="M107.264 24.4389C109.418 24.4389 111.165 22.9057 111.165 21.0144C111.165 19.1231 109.418 17.5898 107.264 17.5898C105.11 17.5898 103.363 19.1231 103.363 21.0144C103.363 22.9057 105.11 24.4389 107.264 24.4389Z" fill="white" stroke="black" stroke-opacity="0.5" stroke-miterlimit="10" stroke-linecap="round" stroke-linejoin="round"/>
<path d="M112.727 16.5938C113.646 17.3954 114.773 18.6968 115.202 20.5113" stroke="black" stroke-opacity="0.5" stroke-miterlimit="10" stroke-linecap="round" stroke-linejoin="round"/>
<path d="M111.387 15.6289C111.387 15.6289 111.467 15.6692 111.601 15.753" stroke="black" stroke-opacity="0.5" stroke-miterlimit="10" stroke-linecap="round" stroke-linejoin="round"/>
<path d="M113.043 122.514L113.127 122.336" stroke="black" stroke-opacity="0.5" stroke-miterlimit="10" stroke-linecap="round" stroke-linejoin="round"/>
<path d="M110.219 128.356L112.399 123.852" stroke="black" stroke-opacity="0.5" stroke-miterlimit="10" stroke-linecap="round" stroke-linejoin="round"/>
<path d="M149.1 39.2084L163.21 32.3392L162.828 27.5227C162.738 26.3856 163.304 25.2989 164.287 24.722C170.459 21.1029 176.57 17.3463 182.808 13.848C183.281 13.583 183.828 13.3918 184.355 13.4992C184.922 13.6165 185.364 14.0593 185.696 14.5322C186.454 15.6189 186.327 16.8029 185.163 17.4369C181.873 19.2313 178.509 20.8882 175.131 22.515C173.464 23.3166 171.797 24.1149 170.13 24.9165C169.275 25.3291 168.419 25.7416 167.567 26.1575C167.128 26.3722 165.951 26.7177 165.709 27.147C165.635 27.2778 165.625 27.4288 165.619 27.5763C165.538 28.9616 165.451 30.3435 165.364 31.7287C165.293 32.8557 165.371 34.033 164.636 34.9755C163.69 36.183 162.07 36.7129 160.722 37.3234C158.971 38.1116 157.301 39.0541 155.59 39.9262C154.305 40.5802 153.138 41.5563 151.726 41.9319C150.589 42.2338 149.163 41.7508 149.009 40.3857C148.972 40.0435 148.992 39.6511 149.1 39.2084Z" fill="white" stroke="black" stroke-opacity="0.5" stroke-miterlimit="10" stroke-linecap="round" stroke-linejoin="round"/>
<path d="M161.959 24.5055L162.831 27.5209L163.213 32.3374L149.106 39.2066L144.484 32.6459C144.118 32.1294 144.232 31.4217 144.735 31.0326C145.54 30.4121 146.979 29.5602 149.3 28.9866C149.3 28.9866 151.055 26.3838 155.036 26.2195C155.036 26.2195 157.307 23.6435 161.1 23.8213C161.503 23.8381 161.845 24.1198 161.959 24.5055Z" fill="white" stroke="black" stroke-opacity="0.5" stroke-miterlimit="10" stroke-linecap="round" stroke-linejoin="round"/>
<path d="M149.309 28.9883L152.492 35.2101" stroke="black" stroke-opacity="0.5" stroke-miterlimit="10" stroke-linecap="round" stroke-linejoin="round"/>
<path d="M157.773 32.457L157.854 32.6449" stroke="black" stroke-opacity="0.5" stroke-miterlimit="10" stroke-linecap="round" stroke-linejoin="round"/>
<path d="M155.039 26.2188L157.357 31.5082" stroke="black" stroke-opacity="0.5" stroke-miterlimit="10" stroke-linecap="round" stroke-linejoin="round"/>
<path d="M161.955 24.5057C161.844 24.12 161.502 23.845 161.1 23.8248C157.31 23.6471 155.039 26.223 155.039 26.223C151.058 26.3907 149.303 28.9902 149.303 28.9902C146.982 29.5671 145.543 30.419 144.738 31.0362C144.725 31.0462 144.715 31.0563 144.705 31.063C143.819 30.1037 142.303 28.0141 143.175 25.5757C143.92 23.476 146.302 22.4161 148.304 21.8359C151.567 20.89 155.307 21.4099 157.846 18.7266C158.168 18.3845 158.45 18.0088 158.682 17.5996C158.752 17.4755 159.366 16.2211 159.255 16.1641C159.252 16.1674 164.085 18.6193 161.955 24.5057Z" fill="white" stroke="black" stroke-opacity="0.5" stroke-miterlimit="10" stroke-linecap="round" stroke-linejoin="round"/>
<path d="M145.268 24.7891C145.167 24.8796 145.117 24.9299 145.117 24.9299" stroke="black" stroke-opacity="0.5" stroke-miterlimit="10" stroke-linecap="round" stroke-linejoin="round"/>
<path d="M151.652 22.5234C148.928 22.8018 147.184 23.5498 146.191 24.1368" stroke="black" stroke-opacity="0.5" stroke-miterlimit="10" stroke-linecap="round" stroke-linejoin="round"/>
<path d="M185.17 17.4376C181.883 19.2287 178.516 20.889 175.138 22.5124C173.733 23.1932 172.328 23.8641 170.919 24.5382L169.5 21.6336C173.917 19.0006 178.335 16.3576 182.812 13.8453C183.285 13.5804 183.832 13.3858 184.362 13.4965C184.932 13.6106 185.375 14.0533 185.707 14.5262C186.462 15.6163 186.334 16.8037 185.17 17.4376Z" stroke="black" stroke-opacity="0.5" stroke-miterlimit="10" stroke-linecap="round" stroke-linejoin="round"/>
<path d="M170.695 20.9219L172.06 23.9909" stroke="black" stroke-opacity="0.5" stroke-miterlimit="10" stroke-linecap="round" stroke-linejoin="round"/>
<path d="M171.648 20.3555L173.275 23.4111" stroke="black" stroke-opacity="0.5" stroke-miterlimit="10" stroke-linecap="round" stroke-linejoin="round"/>
<path d="M183.27 14.8885L183.377 14.8281" stroke="black" stroke-opacity="0.5" stroke-miterlimit="10" stroke-linecap="round" stroke-linejoin="round"/>
<path d="M179.277 17.1297L182.397 15.3789" stroke="black" stroke-opacity="0.5" stroke-miterlimit="10" stroke-linecap="round" stroke-linejoin="round"/>
<path d="M176.678 45.4941L164.395 52.2056L162.477 48.3115L175.816 42.207L176.678 45.4941Z" fill="white" stroke="black" stroke-opacity="0.5" stroke-miterlimit="10" stroke-linecap="round" stroke-linejoin="round"/>
<path d="M166.7 45.4328C166.774 45.5032 166.827 45.5971 166.878 45.6877C167.646 47.0763 168.4 48.4716 169.195 49.8434C169.276 49.9843 169.36 50.1352 169.35 50.2962C169.309 50.8396 167.153 51.9398 166.69 52.2685C165.677 52.9862 164.664 53.7007 163.648 54.4184C163.329 54.6432 163.007 54.8712 162.732 55.1463C162.353 55.5253 162.068 55.9882 161.763 56.4275C160.733 57.9235 159.425 59.2584 157.835 60.1372C156.198 61.0428 154.132 61.4252 152.462 60.5866C151.244 59.9795 150.372 58.7687 150.074 57.4405C149.329 54.1065 151.959 51.1616 154.565 49.5114C156.148 48.5085 157.902 47.8108 159.676 47.2004C161.81 46.4659 163.98 45.852 166.18 45.359C166.311 45.3288 166.452 45.302 166.576 45.3523C166.626 45.3724 166.666 45.3992 166.7 45.4328Z" fill="white" stroke="black" stroke-opacity="0.5" stroke-miterlimit="10" stroke-linecap="round" stroke-linejoin="round"/>
<path d="M174.948 44.2139L171.977 57.8886L176.253 58.6299L178.346 44.1133L174.948 44.2139Z" fill="white" stroke="black" stroke-opacity="0.5" stroke-miterlimit="10" stroke-linecap="round" stroke-linejoin="round"/>
<path d="M177.841 53.7266C176.158 53.3174 174.474 52.8746 172.763 52.5862C172.089 52.4721 171.982 53.5991 171.837 54.0419C171.398 55.3701 170.935 56.6782 170.482 57.9964C170.207 58.7946 169.932 59.5896 169.661 60.3878C169.543 60.73 169.013 61.1526 168.795 61.4377C168.124 62.3198 167.517 63.259 167.024 64.2551C165.807 66.717 165.196 70.534 167.92 72.2714C170.191 73.7204 173.471 72.5968 175.185 70.7755C178.106 67.673 178.157 62.8866 178.15 58.8886C178.15 58.3989 178.173 53.8104 177.841 53.7266Z" fill="white" stroke="black" stroke-opacity="0.5" stroke-miterlimit="10" stroke-linecap="round" stroke-linejoin="round"/>
<path d="M177.77 42.2293L178.186 37.6879L182.459 35.9605L185.056 32.4924C185.334 32.1201 185.344 31.6136 185.079 31.2312C184.807 30.8388 184.311 30.6711 183.858 30.8187L175.708 33.4684C174.597 33.8306 173.782 34.7832 173.598 35.937L172.484 42.9874L177.77 42.2293Z" fill="white" stroke="black" stroke-opacity="0.5" stroke-miterlimit="10" stroke-linecap="round" stroke-linejoin="round"/>
<path d="M181.176 32.9867L181.276 32.9531" stroke="black" stroke-opacity="0.5" stroke-miterlimit="10" stroke-linecap="round" stroke-linejoin="round"/>
<path d="M177 34.3902L180.039 33.3672" stroke="black" stroke-opacity="0.5" stroke-miterlimit="10" stroke-linecap="round" stroke-linejoin="round"/>
<path d="M177.773 42.2286L182.013 40.5482L182.462 35.9597L185.059 32.4916C185.337 32.1193 185.823 31.9684 186.263 32.1126C186.715 32.2635 187.014 32.6928 187.001 33.1691L186.759 41.7355C186.726 42.9027 186.041 43.9559 184.985 44.4557L178.535 47.5146L177.773 42.2286Z" fill="white" stroke="black" stroke-opacity="0.5" stroke-miterlimit="10" stroke-linecap="round" stroke-linejoin="round"/>
<path d="M180.152 47.6957C178.508 49.8927 175.137 50.4092 172.907 48.7388C171.471 47.6655 170.676 45.8577 170.858 44.0699C171.438 38.3612 179.853 37.9755 181.064 43.483C181.383 44.9386 181.044 46.5017 180.152 47.6957Z" fill="white" stroke="black" stroke-opacity="0.5" stroke-miterlimit="10" stroke-linecap="round" stroke-linejoin="round"/>
<path d="M177.885 46.0018C177.603 46.4177 177.127 46.7397 176.416 46.8705C175.581 47.0248 174.672 46.6861 174.159 46.0052C173.36 44.9486 173.642 43.3387 174.762 42.6343C177.077 41.1786 179.012 44.3449 177.885 46.0018Z" fill="white" stroke="black" stroke-opacity="0.5" stroke-miterlimit="10" stroke-linecap="round" stroke-linejoin="round"/>
<path d="M164.797 45.793L167.96 51.3708" stroke="black" stroke-opacity="0.5" stroke-miterlimit="10" stroke-linecap="round" stroke-linejoin="round"/>
<path d="M163.227 46.1602L166.544 52.372" stroke="black" stroke-opacity="0.5" stroke-miterlimit="10" stroke-linecap="round" stroke-linejoin="round"/>
<path d="M171.805 54.1328L177.993 55.4074" stroke="black" stroke-opacity="0.5" stroke-miterlimit="10" stroke-linecap="round" stroke-linejoin="round"/>
<path d="M171.309 55.582L178.094 56.927" stroke="black" stroke-opacity="0.5" stroke-miterlimit="10" stroke-linecap="round" stroke-linejoin="round"/>
<path d="M155.77 50.4026C155.87 50.3456 155.971 50.2919 156.075 50.2383" stroke="black" stroke-opacity="0.5" stroke-miterlimit="10" stroke-linecap="round" stroke-linejoin="round"/>
<path d="M151.684 54.6016C151.684 54.6016 152.401 52.7401 154.692 51.0898" stroke="black" stroke-opacity="0.5" stroke-miterlimit="10" stroke-linecap="round" stroke-linejoin="round"/>
<path d="M39.2539 126.802L48.1121 138.796C48.4844 139.303 49.1485 139.524 49.7388 139.303C49.759 139.296 49.7757 139.29 49.7959 139.283C50.5103 138.994 50.8591 138.186 50.5975 137.465L45.4087 123.133C45.4053 123.133 41.4441 123.904 39.2539 126.802Z" fill="white" stroke="black" stroke-opacity="0.5" stroke-miterlimit="10" stroke-linecap="round" stroke-linejoin="round"/>
<path d="M46.4613 126.055C46.4613 126.055 45.824 129.218 43.4023 132.424C43.4023 132.424 44.1637 135.362 45.7636 135.621C45.7636 135.621 47.6218 133.863 48.3195 131.186C48.3195 131.183 48.5308 128.55 46.4613 126.055Z" fill="white" stroke="black" stroke-opacity="0.5" stroke-miterlimit="10" stroke-linecap="round" stroke-linejoin="round"/>
<path d="M39.4391 118.683C39.4391 118.683 34.3744 115.681 30.9432 118.646C29.1789 120.169 28.6859 122.698 29.5445 124.865C30.2187 126.569 31.6106 128.403 34.4851 128.765C36.2427 128.987 38.0405 128.638 39.6035 127.803C40.6902 127.223 41.9245 126.294 42.7664 124.845C42.7664 124.845 43.3936 124.828 44.2892 124.64C48.2235 123.811 50.6754 119.877 49.7899 115.956C49.5752 115.007 49.2398 113.994 48.7065 113.092C45.9427 108.396 38.8287 110.271 38.9025 115.718C38.9125 116.57 39.0735 117.553 39.4391 118.683Z" fill="white" stroke="black" stroke-opacity="0.5" stroke-miterlimit="10" stroke-linecap="round" stroke-linejoin="round"/>
<path d="M37.0977 121.127C37.0977 121.127 38.5064 118.125 43.561 117.105" stroke="black" stroke-opacity="0.5" stroke-miterlimit="10" stroke-linecap="round" stroke-linejoin="round"/>
<path d="M43.3125 111.768C44.2282 111.547 45.5665 111.554 46.9047 112.734L43.3125 111.768Z" fill="white"/>
<path d="M43.3125 111.768C44.2282 111.547 45.5665 111.554 46.9047 112.734" stroke="black" stroke-opacity="0.5" stroke-miterlimit="10" stroke-linecap="round" stroke-linejoin="round"/>
<path d="M42.1406 112.247C42.1406 112.247 42.1775 112.22 42.248 112.184L42.1406 112.247Z" fill="white"/>
<path d="M42.1406 112.247C42.1406 112.247 42.1775 112.22 42.248 112.184" stroke="black" stroke-opacity="0.5" stroke-miterlimit="10" stroke-linecap="round" stroke-linejoin="round"/>
<path d="M57.2571 52.8302C56.8881 52.8839 56.5057 52.9006 56.1502 52.8973C48.7578 52.8872 41.3687 52.8839 33.9762 52.8839C32.6782 52.8839 29.9278 53.3299 29.1731 52.0688C28.8679 51.559 28.8612 50.9318 28.8612 50.3381C28.8679 40.3764 28.8545 30.4147 28.8545 20.453C28.8545 19.0275 28.6968 16.8205 30.6959 16.8205C38.6988 16.8205 46.6983 16.8205 54.7012 16.8205C56.1837 16.8205 59.0951 16.3744 59.0951 18.6518V51.0525C59.0985 52.2566 58.2297 52.686 57.2571 52.8302Z" fill="white" stroke="black" stroke-opacity="0.5" stroke-miterlimit="10" stroke-linecap="round" stroke-linejoin="round"/>
<path d="M41.9097 31.4087H32.8402C32.5517 31.4087 32.3203 31.1739 32.3203 30.8888V20.6722C32.3203 20.3838 32.5551 20.1523 32.8402 20.1523H41.9097C42.1982 20.1523 42.4296 20.3871 42.4296 20.6722V30.8888C42.4296 31.1773 42.1982 31.4087 41.9097 31.4087Z" fill="white" stroke="black" stroke-opacity="0.5" stroke-miterlimit="10" stroke-linecap="round" stroke-linejoin="round"/>
<path d="M41.017 23.9839C40.9029 23.1152 40.155 22.4243 39.2796 22.4377C37.9111 22.4578 37.3778 24.0644 37.3778 24.0644C37.3778 24.0644 36.8478 22.4578 35.476 22.4377C34.6006 22.4243 33.8526 23.1152 33.7386 23.9839C33.648 24.6615 33.8358 25.5067 34.9729 26.1406C34.9729 26.1406 34.7113 27.4387 34.8991 28.8206C34.9226 28.9916 35.0735 29.1157 35.2479 29.1157C35.4156 29.1157 35.5599 28.9983 35.5934 28.834C35.7108 28.2336 36.12 26.8852 37.3778 26.8852C38.6356 26.8852 39.0448 28.2369 39.1622 28.834C39.1957 28.9983 39.3399 29.1157 39.5076 29.1157C39.6821 29.1157 39.833 28.9916 39.8565 28.8206C40.0477 27.4387 39.7827 26.1406 39.7827 26.1406C40.9197 25.5067 41.1042 24.6615 41.017 23.9839Z" stroke="black" stroke-opacity="0.5" stroke-miterlimit="10" stroke-linecap="round" stroke-linejoin="round"/>
<path d="M45.1836 25.1992H55.6518" stroke="black" stroke-opacity="0.5" stroke-miterlimit="10" stroke-linecap="round" stroke-linejoin="round"/>
<path d="M45.1836 30.0742H55.6518" stroke="black" stroke-opacity="0.5" stroke-miterlimit="10" stroke-linecap="round" stroke-linejoin="round"/>
<path d="M45.1836 20.3281H55.6518" stroke="black" stroke-opacity="0.5" stroke-miterlimit="10" stroke-linecap="round" stroke-linejoin="round"/>
<path d="M32.3203 34.9453H55.6481" stroke="black" stroke-opacity="0.5" stroke-miterlimit="10" stroke-linecap="round" stroke-linejoin="round"/>
<path d="M32.3203 39.8125H55.6481" stroke="black" stroke-opacity="0.5" stroke-miterlimit="10" stroke-linecap="round" stroke-linejoin="round"/>
<path d="M32.3203 39.8125H55.6481" stroke="black" stroke-opacity="0.5" stroke-miterlimit="10" stroke-linecap="round" stroke-linejoin="round"/>
<path d="M32.3203 44.6836H55.6481" stroke="black" stroke-opacity="0.5" stroke-miterlimit="10" stroke-linecap="round" stroke-linejoin="round"/>
<path d="M32.3203 49.5586H55.6481" stroke="black" stroke-opacity="0.5" stroke-miterlimit="10" stroke-linecap="round" stroke-linejoin="round"/>
<path d="M51.331 15.1133C50.0196 15.1133 48.7081 15.1133 47.3966 15.1133C47.1954 14.305 46.7392 13.6509 46.6386 13.5302C46.2663 13.0908 45.7867 12.7453 45.25 12.5374C44.2538 12.155 43.1168 12.2691 42.2045 12.8124C41.7584 13.0774 41.3693 13.4396 41.0775 13.869C40.8696 14.1809 40.7086 15.1301 40.3228 15.12C39.595 15.1066 38.8672 15.0999 38.1393 15.1066C37.7402 15.11 36.5998 14.9222 36.3147 15.224C36.0229 15.5292 36.204 16.4382 36.204 16.8172H51.7637V15.5393C51.7637 15.3045 51.5692 15.1133 51.331 15.1133Z" fill="white" stroke="black" stroke-opacity="0.5" stroke-miterlimit="10" stroke-linecap="round" stroke-linejoin="round"/>
<path d="M43.7383 13.4621C43.7819 13.4554 43.8255 13.452 43.8691 13.4453" stroke="black" stroke-opacity="0.5" stroke-miterlimit="10" stroke-linecap="round" stroke-linejoin="round"/>
<path d="M41.8633 14.9215C41.8633 14.9215 42.0075 14.3144 42.6414 13.875" stroke="black" stroke-opacity="0.5" stroke-miterlimit="10" stroke-linecap="round" stroke-linejoin="round"/>
<path d="M186.448 89.9723C186.133 94.8156 184.419 99.5416 181.83 103.627C181.595 103.999 181.283 104.734 180.921 104.989C180.142 105.535 178.489 104.452 177.728 104.167C177.12 103.942 176.513 103.717 175.906 103.496C172.981 102.419 170.04 101.373 167.105 100.303C162.711 98.7031 158.317 97.1032 153.923 95.5032C153.665 95.4093 153.407 95.3154 153.149 95.2215C152.052 94.8224 151.197 93.9469 150.824 92.8434L149.234 88.141L151.358 81.9661L155.647 78.944C156.543 78.3134 157.66 78.0954 158.72 78.3403C162.242 79.152 165.76 79.967 169.279 80.7754C173.327 81.7112 177.375 82.6369 181.43 83.5324C182.732 83.8209 184.03 84.106 185.331 84.3844C186.334 84.599 186.327 85.2229 186.408 86.1185C186.519 87.4031 186.529 88.691 186.448 89.9723Z" fill="white" stroke="black" stroke-opacity="0.5" stroke-miterlimit="10" stroke-linecap="round" stroke-linejoin="round"/>
<path d="M186.452 89.9723C186.137 94.8156 184.423 99.5416 181.833 103.627C181.599 103.999 181.287 104.734 180.925 104.989C180.146 105.535 178.493 104.452 177.731 104.167C177.124 103.942 176.517 103.717 175.91 103.496C176.118 103.204 182.135 94.6714 181.143 83.5156L181.438 83.5357C182.739 83.8242 184.037 84.1093 185.339 84.3877C186.341 84.6024 186.335 85.2262 186.415 86.1218C186.523 87.403 186.533 88.691 186.452 89.9723Z" fill="white" stroke="black" stroke-opacity="0.5" stroke-miterlimit="10" stroke-linecap="round" stroke-linejoin="round"/>
<path d="M181.242 86.4648L186.454 87.3503" stroke="black" stroke-opacity="0.5" stroke-miterlimit="10" stroke-linecap="round" stroke-linejoin="round"/>
<path d="M177.258 101.266L182.188 103.05" stroke="black" stroke-opacity="0.5" stroke-miterlimit="10" stroke-linecap="round" stroke-linejoin="round"/>
<path d="M178.566 98.5586L183.577 100.507" stroke="black" stroke-opacity="0.5" stroke-miterlimit="10" stroke-linecap="round" stroke-linejoin="round"/>
<path d="M179.754 95.375L184.946 97.26" stroke="black" stroke-opacity="0.5" stroke-miterlimit="10" stroke-linecap="round" stroke-linejoin="round"/>
<path d="M180.559 92.3789L185.892 93.9084" stroke="black" stroke-opacity="0.5" stroke-miterlimit="10" stroke-linecap="round" stroke-linejoin="round"/>
<path d="M181.039 89.4648L186.399 90.5784" stroke="black" stroke-opacity="0.5" stroke-miterlimit="10" stroke-linecap="round" stroke-linejoin="round"/>
<path d="M153.906 93.266C153.906 93.266 158.582 88.8218 158.263 80.3359" stroke="black" stroke-opacity="0.5" stroke-miterlimit="10" stroke-linecap="round" stroke-linejoin="round"/>
<path d="M146.399 80.0117L144.336 87.0218L149.796 89.051C150.776 89.3395 152.084 87.8301 152.714 85.6802C153.348 83.5302 153.067 81.5546 152.087 81.2662L146.399 80.0117Z" fill="white" stroke="black" stroke-opacity="0.5" stroke-miterlimit="10" stroke-linecap="round" stroke-linejoin="round"/>
<path d="M145.781 82.1406L153.06 83.5963" stroke="black" stroke-opacity="0.5" stroke-miterlimit="10" stroke-linecap="round" stroke-linejoin="round"/>
<path d="M144.969 84.8984L151.875 87.6186" stroke="black" stroke-opacity="0.5" stroke-miterlimit="10" stroke-linecap="round" stroke-linejoin="round"/>
<path d="M146.961 83.9861C147.531 82.0509 147.278 80.2719 146.396 80.0125C145.515 79.7531 144.339 81.1116 143.769 83.0468C143.2 84.982 143.453 86.7611 144.334 87.0204C145.216 87.2798 146.392 85.9213 146.961 83.9861Z" fill="white" stroke="black" stroke-opacity="0.5" stroke-miterlimit="10" stroke-linecap="round" stroke-linejoin="round"/>
<path d="M162.004 80.6758L165.375 81.4137" stroke="black" stroke-opacity="0.5" stroke-miterlimit="10" stroke-linecap="round" stroke-linejoin="round"/>
<path d="M160.641 80.3789L160.828 80.4192" stroke="black" stroke-opacity="0.5" stroke-miterlimit="10" stroke-linecap="round" stroke-linejoin="round"/>
<path d="M175.357 92.5856C176.268 89.4918 173.972 86.091 170.229 84.9896C166.487 83.8883 162.715 85.5036 161.805 88.5974C160.894 91.6912 163.19 95.092 166.933 96.1933C170.675 97.2946 174.447 95.6794 175.357 92.5856Z" fill="white" stroke="black" stroke-opacity="0.5" stroke-miterlimit="10" stroke-linecap="round" stroke-linejoin="round"/>
<path d="M161.746 91.105L171.198 85.3359" stroke="black" stroke-opacity="0.5" stroke-miterlimit="10" stroke-linecap="round" stroke-linejoin="round"/>
<path d="M162.164 92.3277L172.304 85.918" stroke="black" stroke-opacity="0.5" stroke-miterlimit="10" stroke-linecap="round" stroke-linejoin="round"/>
<path d="M165.035 95.3745L175.071 88.9883" stroke="black" stroke-opacity="0.5" stroke-miterlimit="10" stroke-linecap="round" stroke-linejoin="round"/>
<path d="M166.941 96.1974L175.521 90.5391" stroke="black" stroke-opacity="0.5" stroke-miterlimit="10" stroke-linecap="round" stroke-linejoin="round"/>
<path d="M149.459 130.318C149.926 130.988 149.698 132.209 150.419 132.662C150.701 132.84 151.076 132.696 151.187 132.39C151.445 131.669 151.509 130.643 152.123 130.11C152.649 129.653 153.655 129.499 154.31 129.268C154.642 129.15 154.752 128.765 154.568 128.469C154.356 128.134 153.622 128.02 153.26 127.893C152.921 127.772 152.586 127.651 152.247 127.53C151.864 127.393 151.804 126.886 151.71 126.551C151.576 126.061 151.425 125.561 151.177 125.112C151.093 124.961 150.955 124.83 150.784 124.797C150.607 124.763 150.419 124.844 150.295 124.978C150.01 125.286 149.902 125.944 149.761 126.34C149.657 126.628 149.584 126.977 149.436 127.242C148.987 128.05 146.91 127.601 146.723 128.677C146.612 129.301 147.725 129.593 148.141 129.721C148.436 129.811 148.782 129.851 149.064 129.982C149.235 130.059 149.362 130.177 149.459 130.318Z" fill="white" stroke="black" stroke-opacity="0.5" stroke-miterlimit="10" stroke-linecap="round" stroke-linejoin="round"/>
<path d="M31.3975 107.78C31.8269 108.397 31.6155 109.514 32.2763 109.93C32.5346 110.091 32.88 109.964 32.9807 109.682C33.2154 109.021 33.2758 108.082 33.8393 107.592C34.3223 107.173 35.2447 107.036 35.8451 106.821C36.1469 106.714 36.2509 106.358 36.0799 106.09C35.8853 105.784 35.2111 105.677 34.8791 105.56C34.5705 105.449 34.2586 105.338 33.95 105.228C33.5978 105.104 33.5442 104.637 33.4569 104.329C33.3328 103.879 33.1953 103.42 32.9672 103.011C32.8901 102.87 32.7626 102.752 32.6084 102.719C32.444 102.685 32.2729 102.762 32.1589 102.883C31.8973 103.168 31.8 103.769 31.6692 104.131C31.5753 104.396 31.5049 104.715 31.3707 104.959C30.9581 105.701 29.0564 105.288 28.8819 106.274C28.7813 106.848 29.801 107.113 30.1833 107.233C30.455 107.317 30.7703 107.354 31.0286 107.475C31.1896 107.545 31.307 107.653 31.3975 107.78Z" fill="white" stroke="black" stroke-opacity="0.5" stroke-miterlimit="10" stroke-linecap="round" stroke-linejoin="round"/>
<path d="M141.67 137.836L142.17 139.238C142.395 139.868 142.854 139.224 142.958 138.933C143.089 138.567 143.22 138.201 143.35 137.836C143.387 137.735 143.468 137.655 143.568 137.618C143.568 137.618 144.964 137.121 144.97 137.118C145.531 136.917 145.205 136.474 144.652 136.323C144.283 136.222 143.931 136.065 143.572 135.937C143.471 135.9 143.391 135.82 143.354 135.719C143.223 135.354 142.998 134.119 142.545 134.079C142.049 134.036 141.804 135.35 141.673 135.719C141.636 135.82 141.556 135.9 141.455 135.937C141.093 136.068 139.684 136.296 139.822 136.88C139.916 137.289 141.117 137.494 141.455 137.614C141.553 137.655 141.633 137.735 141.67 137.836Z" fill="white" stroke="black" stroke-opacity="0.5" stroke-miterlimit="10" stroke-linecap="round" stroke-linejoin="round"/>
<path d="M69.365 16.9683C69.8245 16.6463 70.6463 16.5256 71.1695 16.3411C71.572 16.1969 71.5687 15.6133 71.1695 15.4724C71.1695 15.4724 69.3784 14.8318 69.3751 14.8318C68.6875 14.5869 68.9424 12.2692 67.9295 12.4604C67.4733 12.5476 67.2989 13.3358 67.1882 13.6981C67.0004 14.3152 66.9366 14.7479 66.2692 14.9559C65.8164 15.0967 64.7028 15.2242 64.572 15.8078C64.3305 16.9046 66.6918 16.5625 66.94 17.2635C67.1043 17.723 67.4196 19.447 68.077 19.3598C69.0732 19.229 68.6942 17.4782 69.3281 16.9952C69.3415 16.9851 69.355 16.975 69.365 16.9683Z" fill="white" stroke="black" stroke-opacity="0.5" stroke-miterlimit="10" stroke-linecap="round" stroke-linejoin="round"/>
<path d="M184.798 75.2769C185.177 75.0086 185.858 74.9113 186.291 74.757C186.623 74.6396 186.62 74.1533 186.291 74.0359C186.291 74.0359 184.808 73.5059 184.805 73.5059C184.238 73.3047 184.446 71.3828 183.608 71.5404C183.232 71.6109 183.084 72.2649 182.994 72.5668C182.839 73.08 182.786 73.4355 182.232 73.6099C181.857 73.7273 180.934 73.8313 180.827 74.3143C180.626 75.2232 182.581 74.9415 182.789 75.5218C182.923 75.9041 183.185 77.3296 183.732 77.2592C184.557 77.1518 184.241 75.6995 184.768 75.3004C184.778 75.2903 184.788 75.2836 184.798 75.2769Z" fill="white" stroke="black" stroke-opacity="0.5" stroke-miterlimit="10" stroke-linecap="round" stroke-linejoin="round"/>
<path d="M51.6802 62.3644C51.9619 62.1665 52.4718 62.0927 52.7938 61.9753C53.042 61.8881 53.0386 61.5259 52.7938 61.4387C52.7938 61.4387 51.6869 61.0429 51.6835 61.0429C51.2609 60.892 51.4152 59.4598 50.7914 59.5771C50.5096 59.6308 50.4023 60.1172 50.3352 60.3419C50.2178 60.7243 50.1809 60.9892 49.7684 61.12C49.49 61.2072 48.799 61.2877 48.7219 61.6466C48.5709 62.3242 50.03 62.1129 50.1843 62.5455C50.2849 62.8306 50.4794 63.8939 50.8853 63.8402C51.4991 63.7597 51.2676 62.6763 51.6567 62.3812C51.6634 62.3745 51.6701 62.3678 51.6802 62.3644Z" fill="white" stroke="black" stroke-opacity="0.5" stroke-miterlimit="10" stroke-linecap="round" stroke-linejoin="round"/>
<path d="M141.879 17.5246C142.161 17.3267 142.671 17.2529 142.993 17.1355C143.241 17.0483 143.238 16.686 142.993 16.5988C142.993 16.5988 141.886 16.203 141.883 16.203C141.46 16.0521 141.614 14.6199 140.991 14.7373C140.709 14.791 140.601 15.2773 140.534 15.502C140.417 15.8844 140.38 16.1494 139.968 16.2802C139.689 16.3674 138.998 16.4479 138.921 16.8068C138.77 17.4843 140.229 17.273 140.387 17.7057C140.487 17.9908 140.682 19.054 141.088 19.0004C141.702 18.9199 141.47 17.8365 141.859 17.5413C141.863 17.5346 141.873 17.5313 141.879 17.5246Z" fill="white" stroke="black" stroke-opacity="0.5" stroke-miterlimit="10" stroke-linecap="round" stroke-linejoin="round"/>
<path d="M61.4233 134.5C61.8023 134.231 62.4832 134.134 62.9158 133.98C63.2479 133.862 63.2445 133.376 62.9158 133.259C62.9158 133.259 61.4333 132.729 61.43 132.729C60.8631 132.527 61.0711 130.605 60.2326 130.763C59.8569 130.834 59.7093 131.488 59.6188 131.789C59.4645 132.303 59.4108 132.658 58.8574 132.833C58.4817 132.95 57.5593 133.054 57.452 133.537C57.2508 134.446 59.2062 134.164 59.4142 134.744C59.5517 135.127 59.8099 136.552 60.3567 136.482C61.1818 136.375 60.8665 134.922 61.3931 134.523C61.4031 134.513 61.4132 134.506 61.4233 134.5Z" fill="white" stroke="black" stroke-opacity="0.5" stroke-miterlimit="10" stroke-linecap="round" stroke-linejoin="round"/>
<path d="M72.8295 81.4136C73.2085 81.1486 73.8894 81.048 74.3221 80.8937C74.6542 80.7763 74.6508 80.29 74.3221 80.1726C74.3221 80.1726 72.8396 79.6427 72.8362 79.6427C72.2694 79.4414 72.4773 77.5195 71.6388 77.6772C71.2631 77.7476 71.1156 78.4016 71.025 78.7035C70.8707 79.2167 70.8171 79.5722 70.2636 79.7466C69.888 79.864 68.9656 79.968 68.8583 80.451C68.657 81.36 70.6125 81.0782 70.8204 81.6585C70.9546 82.0408 71.2162 83.4663 71.7629 83.3959C72.588 83.2886 72.2727 81.8362 72.7993 81.4371C72.8094 81.427 72.8195 81.4203 72.8295 81.4136Z" fill="white" stroke="black" stroke-opacity="0.5" stroke-miterlimit="10" stroke-linecap="round" stroke-linejoin="round"/>
<path d="M151.211 77.2438C151.211 77.2438 154.773 73.3597 160.851 75.0099" stroke="black" stroke-opacity="0.5" stroke-miterlimit="10" stroke-linecap="round" stroke-linejoin="round"/>
<path d="M155.527 74.8887L154.816 69.6328" stroke="black" stroke-opacity="0.5" stroke-miterlimit="10" stroke-linecap="round" stroke-linejoin="round"/>
<path d="M149.91 72.7969L152.842 75.9933" stroke="black" stroke-opacity="0.5" stroke-miterlimit="10" stroke-linecap="round" stroke-linejoin="round"/>
<path d="M158.977 74.6608L159.936 70.7734" stroke="black" stroke-opacity="0.5" stroke-miterlimit="10" stroke-linecap="round" stroke-linejoin="round"/>
<path d="M171.594 115.846C171.594 115.846 170.809 110.704 166.19 110.144C163.054 109.765 159.985 111.556 158.865 114.511C158.16 116.366 158.144 118.814 160.398 121.595C161.863 123.406 162.216 125.888 161.186 127.978C161.172 128.005 161.159 128.032 161.146 128.062C160.703 128.944 160.361 129.87 160.2 130.842C159.841 133.019 159.931 136.491 163.111 139.221C163.322 139.402 163.611 139.459 163.869 139.362C164.198 139.238 164.399 138.902 164.345 138.553C164.064 136.759 163.641 131.349 168.229 129.316C170.286 128.404 172.67 128.468 174.69 129.46C176.789 130.497 179.117 132.694 178.617 137.309C178.56 137.846 178.859 138.355 179.365 138.543C179.835 138.718 180.361 138.58 180.677 138.191C181.632 137.007 183.246 134.196 181.374 130.215C180.646 128.665 180.861 126.827 181.908 125.472C182.173 125.127 182.495 124.761 182.884 124.379C182.884 124.379 187.12 119.918 184.182 115.021C183.092 113.21 181.227 111.952 179.117 111.848C177.262 111.757 174.954 112.482 173.147 115.729C173.137 115.732 172.348 115.665 171.594 115.846Z" fill="white" stroke="black" stroke-opacity="0.5" stroke-miterlimit="10" stroke-linecap="round" stroke-linejoin="round"/>
<path d="M173.137 115.734C173.137 115.734 175.428 115.862 177.088 116.66" stroke="black" stroke-opacity="0.5" stroke-miterlimit="10" stroke-linecap="round" stroke-linejoin="round"/>
<path d="M171.589 115.848C171.589 115.848 169.745 116.203 168.738 117.25" stroke="black" stroke-opacity="0.5" stroke-miterlimit="10" stroke-linecap="round" stroke-linejoin="round"/>
<path d="M162.809 112.646C162.869 112.616 162.929 112.589 162.993 112.562" stroke="black" stroke-opacity="0.5" stroke-miterlimit="10" stroke-linecap="round" stroke-linejoin="round"/>
<path d="M160.168 117.289C160.168 117.289 160.238 114.73 161.929 113.234" stroke="black" stroke-opacity="0.5" stroke-miterlimit="10" stroke-linecap="round" stroke-linejoin="round"/>
<path d="M176.773 128.73C177.646 129.304 178.739 130.31 179.349 131.971" stroke="black" stroke-opacity="0.5" stroke-miterlimit="10" stroke-linecap="round" stroke-linejoin="round"/>
<path d="M175.465 128.074C175.465 128.074 175.542 128.098 175.676 128.151" stroke="black" stroke-opacity="0.5" stroke-miterlimit="10" stroke-linecap="round" stroke-linejoin="round"/>
<path d="M33.1758 72.4491C33.1758 72.4491 34.2491 67.3106 40.263 65.2109" stroke="black" stroke-opacity="0.5" stroke-miterlimit="10" stroke-linecap="round" stroke-linejoin="round"/>
<path d="M33.6634 71.0767L28.9375 70" stroke="black" stroke-opacity="0.5" stroke-miterlimit="10" stroke-linecap="round" stroke-linejoin="round"/>
<path d="M35.5399 68.2455L30.2773 64.1602" stroke="black" stroke-opacity="0.5" stroke-miterlimit="10" stroke-linecap="round" stroke-linejoin="round"/>
<path d="M38.1018 66.2052L36.0625 61.875" stroke="black" stroke-opacity="0.5" stroke-miterlimit="10" stroke-linecap="round" stroke-linejoin="round"/>
</svg>
