<svg width="177" height="107" viewBox="0 0 177 107" fill="none" xmlns="http://www.w3.org/2000/svg">
<g opacity="0.5">
<g clip-path="url(#clip0_665_22692)">
<path fill-rule="evenodd" clip-rule="evenodd" d="M111.711 13.252H162.44C170.448 13.252 177 19.7816 177 27.7626V82.0247C177 90.0057 170.448 96.5353 162.44 96.5353H111.711C103.703 96.5353 97.1514 90.0057 97.1514 82.0247V27.7626C97.1514 19.7816 103.703 13.252 111.711 13.252Z" fill="black"/>
<path d="M98.5557 27.7626V27.7626C98.5553 20.5545 104.475 14.6523 111.712 14.6523H162.441C169.677 14.6523 175.597 20.5545 175.597 27.7626V82.0247C175.597 89.2329 169.677 95.135 162.441 95.135H111.712C104.475 95.135 98.5557 89.2329 98.5557 82.0247V27.7626Z" stroke="white"/>
<path fill-rule="evenodd" clip-rule="evenodd" d="M111.712 16.1338H162.44C168.858 16.1338 174.109 21.367 174.109 27.7633V82.0254C174.109 88.4217 168.858 93.6549 162.44 93.6549H111.712C105.294 93.6549 100.043 88.4217 100.043 82.0254V27.7633C100.043 21.367 105.294 16.1338 111.712 16.1338Z" fill="black"/>
<path d="M101.085 27.763V27.7629C101.085 21.9415 105.866 17.1738 111.712 17.1738H162.44C168.286 17.1738 173.067 21.9418 173.067 27.7633V82.0254C173.067 87.847 168.286 92.6149 162.44 92.6149H111.712C105.866 92.6149 101.085 87.847 101.085 82.0254V27.763Z" stroke="white"/>
<path fill-rule="evenodd" clip-rule="evenodd" d="M64.0371 74.1546C65.4484 73.1538 64.2713 69.7659 66.5299 68.1636L67.2027 67.6865L67.7399 68.3114C75.055 76.8207 82.5245 78.2449 90.4552 69.4664L91.2007 68.6414L91.8568 69.5393C93.6779 72.0314 95.4993 74.5235 97.3204 77.0156L97.8583 77.7519L97.1128 78.2795C84.4495 87.244 75.1224 86.1106 63.9388 75.5413L63.1426 74.7884L64.0371 74.1546Z" fill="black"/>
<path d="M91.0827 70.855C92.1219 72.2773 93.1612 73.6995 94.2004 75.1216C94.7624 75.8906 95.3243 76.6595 95.8862 77.4285C90.0943 81.4504 85.114 83.252 80.2856 82.8628C75.4575 82.4736 70.6766 79.8855 65.3011 74.8953C66.0278 74.0897 66.1728 72.9691 66.2926 72.0422C66.2964 72.0134 66.3001 71.9848 66.3037 71.9565C66.4348 70.9483 66.558 70.15 67.0121 69.6093C70.6479 73.7295 74.5217 76.3514 78.6066 76.7587C82.7093 77.1677 86.8826 75.3312 91.0827 70.855Z" stroke="white"/>
<path fill-rule="evenodd" clip-rule="evenodd" d="M58.6279 47.9034C60.3067 47.9738 61.9006 48.4247 63.336 49.3017C66.2922 51.1084 67.9823 54.3344 68.8506 57.5829C69.9063 61.531 69.897 65.913 69.2959 69.9332C67.9053 79.2336 63.1043 88.5902 55.3953 94.2146C52.3564 96.4319 48.8265 98.2829 45.1105 99.0305C42.0394 99.6486 38.811 99.4913 35.9747 98.0756C31.8891 96.0362 29.7213 92.0096 28.8023 87.6994C28.1536 84.6563 28.2044 81.3897 28.5021 78.306C28.9119 74.0584 29.8441 70.0032 30.6148 65.8253C31.5541 60.7339 33.0625 54.4995 37.3746 51.1474C39.8078 49.2561 42.7927 48.4682 45.8057 48.0901C49.9545 47.5699 54.4546 47.7294 58.6279 47.9034Z" fill="black"/>
<path d="M58.57 49.3024L58.5909 48.8029L58.57 49.3024C61.9993 49.4456 64.5365 51.3836 66.1696 54.4829C67.8118 57.5995 68.523 61.8727 68.2412 66.5654C67.6773 75.9555 63.1525 86.8206 54.5675 93.0844C49.0366 97.1198 43.5458 98.6413 39.1693 97.7125C34.835 96.7927 31.4617 93.4402 30.1758 87.4079C29.4528 84.0159 29.6379 80.1139 30.1446 76.3272C30.5049 73.6345 31.0219 71.0345 31.4798 68.7323C31.6665 67.7935 31.8433 66.9043 31.9956 66.0784C33.4941 57.9568 35.5901 53.6689 39.4599 51.4299C41.4108 50.3012 43.8552 49.667 46.9932 49.3682C50.1323 49.0693 53.9301 49.1086 58.57 49.3024Z" stroke="white"/>
<path fill-rule="evenodd" clip-rule="evenodd" d="M30.811 76.3933C21.6493 74.9077 17.3848 81.4433 16.7986 89.7815L16.7208 90.8891L15.6492 90.5839C12.6746 89.7369 9.70028 88.89 6.72563 88.043L5.84668 87.7926L6.1082 86.9195C10.0544 73.7492 17.8673 67.4709 31.5806 68.8059L31.8428 68.8314L32.0501 68.9934C34.0173 70.5303 33.8016 75.3869 31.2779 76.3456L31.0508 76.4319L30.811 76.3933Z" fill="black"/>
<path d="M15.448 89.0705L11.5724 87.9669L7.60072 86.836C9.85847 79.5882 13.1953 75.2191 17.1943 72.7614C21.2466 70.271 26.0547 69.6961 31.2843 70.1845C31.4844 70.3843 31.6614 70.6998 31.7856 71.1172C31.9277 71.5949 31.9862 72.16 31.9503 72.7204C31.9144 73.2821 31.7853 73.813 31.5749 74.2305C31.3895 74.5981 31.1557 74.8515 30.8894 74.9879C26.3377 74.2861 22.6284 75.4171 19.9691 78.0261C17.4074 80.5393 15.8788 84.3662 15.448 89.0705Z" stroke="white"/>
<path fill-rule="evenodd" clip-rule="evenodd" d="M13.3019 89.5262C13.843 88.5717 14.6471 87.8757 15.1652 86.9559L16.0054 85.4639L16.7634 86.9987C17.12 87.7208 17.6824 88.461 18.1767 89.0972C18.6543 89.7122 19.1522 90.3109 19.6355 90.9213C19.9534 91.3223 20.4381 91.9161 20.6159 92.3917C21.0595 93.5775 20.6109 95.0136 19.3874 95.5147C17.9109 96.1191 15.7322 94.5822 14.7376 93.5598C13.8732 92.6711 12.5397 90.8056 13.3019 89.5262Z" fill="black"/>
<path d="M15.9244 88.3551C16.4241 89.1483 17.0965 90.0016 17.6995 90.7506C17.8019 90.8779 17.9024 91.0022 18.0002 91.1231C18.2903 91.482 18.5565 91.8111 18.7782 92.1C18.9259 92.2923 19.0482 92.4595 19.1409 92.5992C19.2381 92.7456 19.2854 92.8364 19.3022 92.8811L19.3022 92.8812C19.5429 93.5249 19.2263 94.0674 18.8557 94.2191L18.8557 94.2192C18.7409 94.2662 18.5499 94.2779 18.2622 94.2017C17.9816 94.1274 17.6624 93.9833 17.3336 93.7944C16.6746 93.4156 16.0545 92.9018 15.7459 92.5845L15.7459 92.5845C15.2547 92.0795 14.8773 91.5327 14.6665 91.064C14.561 90.8293 14.505 90.6313 14.4885 90.4793C14.4718 90.3241 14.5 90.2577 14.5109 90.2399L14.5157 90.2321L14.5202 90.224C14.7838 89.7557 15.0791 89.3984 15.4038 89.0073L15.4123 88.9971C15.5784 88.797 15.7521 88.5877 15.9244 88.3551Z" stroke="white"/>
<path fill-rule="evenodd" clip-rule="evenodd" d="M16.0496 90.8445C16.0071 93.7805 14.2098 98.4259 11.5027 99.8461C8.91765 101.202 6.75098 98.938 8.02735 96.3872C8.42194 95.5985 9.06172 94.8683 9.57021 94.1426C10.1479 93.3175 10.5985 92.4826 10.8175 91.4913L10.9168 91.0419L11.3405 90.8587C11.9757 90.5846 12.6066 90.4735 13.284 90.3685C13.7939 90.2893 14.3102 90.2115 14.7871 90.0053L16.0702 89.4512L16.0496 90.8445Z" fill="black"/>
<path d="M13.5215 91.7497C13.8619 91.6968 14.2267 91.6401 14.6023 91.5427C14.4688 92.8109 14.0452 94.21 13.4401 95.4533C12.7106 96.9519 11.7652 98.1268 10.8497 98.6072C10.0726 99.0147 9.55261 98.8492 9.30741 98.5922C9.04995 98.3224 8.90854 97.762 9.28308 97.0132C9.42517 96.7291 9.63032 96.4278 9.88509 96.0807C9.96642 95.9699 10.0539 95.8531 10.145 95.7315C10.3292 95.4854 10.5281 95.2197 10.7204 94.945C11.2665 94.165 11.8198 93.2315 12.1251 92.0553C12.5596 91.9009 13.0047 91.83 13.5001 91.753L13.5215 91.7497Z" stroke="white"/>
<path fill-rule="evenodd" clip-rule="evenodd" d="M12.1448 93.2097C11.5561 95.7467 9.77093 99.1809 7.08583 99.9402C6.98861 99.9678 6.89031 99.9911 6.79096 100.011C5.80662 100.205 4.603 100.023 3.95576 99.1852C3.47743 98.5659 3.4643 97.8007 3.7205 97.0877C4.16157 95.8613 5.58236 94.4867 6.40134 93.43C6.91054 92.7726 7.44139 91.985 7.63158 91.1656L7.90517 89.9873L8.9594 90.5864C9.88767 91.1137 10.7844 91.6975 11.7126 92.2248L12.2971 92.5569L12.1448 93.2097Z" fill="black"/>
<path d="M5.04204 97.5617L5.04207 97.5616C5.15846 97.2381 5.40062 96.8627 5.74682 96.4193C5.98203 96.1181 6.24489 95.8101 6.52543 95.4813C6.6575 95.3266 6.79349 95.1672 6.93236 95.0018C7.63549 94.1644 8.39453 93.1951 8.80393 92.1183C9.06577 92.2741 9.34623 92.4441 9.62959 92.6158L9.63432 92.6186C9.99421 92.8368 10.3587 93.0576 10.6884 93.2511C10.3961 94.3279 9.89591 95.4816 9.24342 96.4514C8.51135 97.5395 7.63269 98.3307 6.70369 98.5935C6.16756 98.7451 5.60906 98.6953 5.27728 98.506C5.12213 98.4175 5.03216 98.3093 4.98995 98.1873C4.94712 98.0636 4.93273 97.8654 5.04204 97.5617Z" stroke="white"/>
<path fill-rule="evenodd" clip-rule="evenodd" d="M9.77154 90.6507C9.75132 90.97 9.6917 91.2847 9.59519 91.5896C9.20486 92.8217 8.25246 93.8105 7.17799 94.4933C5.81575 95.3591 3.48692 96.1318 1.96641 95.2562C0.498073 94.4106 0.692172 92.7605 1.69141 91.6341C2.43694 90.7935 3.49969 90.3632 4.49396 89.8956C5.36617 89.4854 6.31714 89.014 6.63686 88.0334L7.25003 86.1523L8.27091 87.8484C8.72901 88.6095 9.18712 89.3705 9.64522 90.1315L9.78964 90.3716L9.77154 90.6507Z" fill="black"/>
<path d="M2.66878 94.0433L2.66874 94.0433C2.50028 93.9463 2.41297 93.8447 2.3664 93.757C2.31967 93.669 2.29866 93.5662 2.30771 93.443C2.32691 93.1815 2.48215 92.8564 2.74291 92.5623C3.02063 92.2492 3.40035 91.9945 3.86327 91.7501C4.14991 91.5987 4.43362 91.4678 4.73211 91.3301C4.93604 91.236 5.14687 91.1387 5.37022 91.0295C6.1554 90.6458 6.98689 90.1631 7.53904 89.3519C7.81185 89.8052 8.08473 90.2586 8.3576 90.7119C8.21247 91.8704 7.24002 92.9052 5.98431 93.5677C5.34291 93.9061 4.66411 94.1255 4.05896 94.2046C3.44154 94.2853 2.96266 94.2126 2.66878 94.0433Z" stroke="white"/>
<path fill-rule="evenodd" clip-rule="evenodd" d="M11.3549 94.7484C14.5733 94.7484 17.1981 92.1322 17.1981 88.925C17.1981 85.7174 14.5733 83.1016 11.3549 83.1016C8.13649 83.1016 5.51172 85.7174 5.51172 88.925C5.51172 92.1322 8.13685 94.7484 11.3549 94.7484Z" fill="black"/>
<path d="M6.91504 88.924V88.924C6.91472 86.483 8.90093 84.501 11.3548 84.501C13.8083 84.501 15.7946 86.483 15.7946 88.924C15.7946 91.3655 13.8083 93.3474 11.3548 93.3474C8.90101 93.3474 6.91504 91.3655 6.91504 88.924Z" stroke="white"/>
<path fill-rule="evenodd" clip-rule="evenodd" d="M15.7267 72.6562C17.8164 72.8302 18.2603 73.7448 18.1613 74.9291C18.1166 75.4652 17.9526 76.053 17.7862 76.6496C17.3469 78.2272 16.8881 79.8751 18.8029 80.5474L18.6829 80.8862C16.4506 80.1022 16.9555 78.2894 17.4392 76.5537C17.6003 75.9755 17.7593 75.4058 17.8015 74.8998C17.8835 73.9219 17.4981 73.1651 15.6973 73.0152L15.7267 72.6562Z" fill="black"/>
<path fill-rule="evenodd" clip-rule="evenodd" d="M92.8209 69.9193C93.9472 70.3514 95.1739 70.3313 96.2107 70.3146C97.2699 70.297 98.1127 70.2839 98.2983 70.7567C98.3955 71.0039 98.3841 71.2345 98.2933 71.4417C98.2014 71.65 98.0289 71.8431 97.8025 72.015C97.5651 72.195 97.2667 72.3516 96.9364 72.4811C95.8765 72.8955 94.5234 73.0044 93.7751 72.677L93.5164 72.5642C93.6097 73.5607 92.3468 74.9166 91.3721 75.2281C91.8504 75.2614 92.6034 74.8996 93.0334 74.4643C93.406 74.0869 93.6888 73.6449 93.8389 73.188C94.714 73.4476 96.0514 73.3195 97.106 72.9079C97.4708 72.7661 97.8068 72.5886 98.0825 72.3792C98.3692 72.1617 98.591 71.9092 98.7155 71.627C98.855 71.3101 98.8731 70.9611 98.7262 70.588C98.4242 69.8188 97.4402 69.8344 96.2033 69.8549C95.2079 69.8712 93.7708 70.1834 92.8209 69.9193Z" fill="#A34F26"/>
<path fill-rule="evenodd" clip-rule="evenodd" d="M97.5205 69.8896C106.349 60.1386 118.515 47.1229 127.344 37.3719C128.515 36.2378 128.884 36.666 127.953 37.8185C118.06 48.5735 108.167 59.3281 98.2738 70.083C98.0829 69.9992 97.8434 69.9062 97.5205 69.8896Z" fill="#101621"/>
<path fill-rule="evenodd" clip-rule="evenodd" d="M99.1709 77.4529C97.2005 80.5147 92.0219 81.878 89.4858 78.8431C88.3159 77.443 87.7109 75.7766 87.8315 73.9497C88.1151 69.6622 92.5133 65.411 96.7928 65.1748C98.3981 65.086 99.888 65.5437 101.038 66.6895C102.1 67.7476 102.685 69.2067 102.929 70.6637C103.159 72.0383 103.114 73.5855 102.731 74.9304C102.415 76.0383 101.748 77.356 100.507 77.6212C100.031 77.7227 99.5804 77.6428 99.1709 77.4529Z" fill="black"/>
<path d="M96.8712 66.5722L96.8713 66.5722C98.6311 66.475 99.7994 67.1996 100.55 68.2841C101.32 69.3956 101.666 70.9132 101.666 72.3682C101.665 73.8364 101.313 75.1264 100.809 75.7991C100.562 76.1282 100.326 76.2513 100.126 76.263C99.9243 76.2747 99.6136 76.1827 99.1991 75.7602L98.6502 75.2008L98.3742 75.9343C97.8185 77.411 96.3643 78.5272 94.7516 78.9535C93.1372 79.3802 91.5146 79.0825 90.5645 77.9456C88.6135 75.6103 88.9702 72.8839 90.4657 70.6333C91.9768 68.359 94.5783 66.6987 96.8712 66.5722Z" stroke="white"/>
<path fill-rule="evenodd" clip-rule="evenodd" d="M97.611 69.0348C107.326 58.3042 117.361 47.8605 127.076 37.1303L127.084 37.1214L127.092 37.1133C127.406 36.8102 128.216 36.0467 128.683 36.4732C129.133 36.8852 128.505 37.7103 128.235 38.0444L128.228 38.0533L128.22 38.0618C118.409 48.7269 108.599 59.3924 98.7884 70.0575L98.6135 70.2478L98.3764 70.1438C98.1046 70.0246 97.9002 69.7431 97.6618 69.5638L97.3467 69.3269L97.611 69.0348Z" fill="black"/>
<path fill-rule="evenodd" clip-rule="evenodd" d="M97.8789 69.2764C106.707 59.5254 118.515 47.1225 127.344 37.3719C128.515 36.2378 128.884 36.666 127.953 37.8185C118.06 48.5735 108.414 59.0593 98.5212 69.8143C98.3303 69.7305 98.1518 69.4815 97.8789 69.2764Z" fill="white"/>
<mask id="path-28-inside-1_665_22692" fill="white">
<path fill-rule="evenodd" clip-rule="evenodd" d="M89.9846 69.5786C94.6189 68.6018 96.832 69.2419 97.8171 69.9279C99.6825 71.2276 96.5858 73.7278 93.516 72.5636C93.6094 73.5602 91.3306 76.2907 88.583 76.5032C91.338 76.7734 93.3723 75.0045 93.9181 73.3463C99.0289 73.8813 100.728 70.1631 97.4544 69.0262C96.0042 68.5229 92.9103 68.2216 89.9846 69.5786Z"/>
</mask>
<path d="M89.9846 69.5786L89.5639 68.6714L90.1909 70.5571L89.9846 69.5786ZM97.8171 69.9279L98.3887 69.1074L98.3886 69.1074L97.8171 69.9279ZM93.516 72.5636L93.8706 71.6286L92.3708 71.0598L92.5204 72.6569L93.516 72.5636ZM88.583 76.5032L88.5059 75.5062L88.4854 77.4984L88.583 76.5032ZM93.9181 73.3463L94.0222 72.3517L93.2203 72.2677L92.9682 73.0336L93.9181 73.3463ZM97.4544 69.0262L97.7825 68.0815L97.7823 68.0814L97.4544 69.0262ZM90.1909 70.5571C94.7172 69.603 96.5941 70.2948 97.2456 70.7485L98.3886 69.1074C97.07 68.189 94.5205 67.6006 89.7784 68.6L90.1909 70.5571ZM97.2454 70.7485C97.3049 70.7898 97.3405 70.824 97.3607 70.8468C97.3707 70.8581 97.3769 70.8667 97.3806 70.8723C97.3842 70.8777 97.3856 70.8807 97.3857 70.8809C97.3858 70.8812 97.3851 70.8797 97.3843 70.8767C97.3834 70.8736 97.3827 70.8702 97.3824 70.8668C97.3815 70.8593 97.3827 70.8578 97.3813 70.8647C97.3727 70.9103 97.2908 71.1096 96.947 71.3483C96.2825 71.8096 95.0856 72.0894 93.8706 71.6286L93.1614 73.4987C95.0162 74.2021 96.9025 73.8139 98.0875 72.9912C98.6684 72.5879 99.2028 71.9912 99.3461 71.2388C99.5087 70.3845 99.1179 69.6154 98.3887 69.1074L97.2454 70.7485ZM92.5204 72.6569C92.5121 72.5682 92.5371 72.6883 92.3171 73.0493C92.1283 73.3591 91.8285 73.7301 91.4359 74.0933C90.6385 74.8307 89.5842 75.4228 88.5059 75.5062L88.6601 77.5002C90.3293 77.3711 91.7882 76.4917 92.7938 75.5616C93.3026 75.091 93.7268 74.5793 94.0249 74.0902C94.2918 73.6523 94.5666 73.0573 94.5117 72.4704L92.5204 72.6569ZM88.4854 77.4984C91.726 77.8162 94.1821 75.7427 94.868 73.6589L92.9682 73.0336C92.5625 74.2663 90.95 75.7305 88.6806 75.508L88.4854 77.4984ZM93.814 74.3408C96.5639 74.6287 98.7266 73.805 99.6684 72.359C100.154 71.6138 100.293 70.7029 99.9162 69.8516C99.5499 69.0234 98.7744 68.426 97.7825 68.0815L97.1264 69.9708C97.7714 70.1948 98.0111 70.4886 98.0872 70.6606C98.1531 70.8095 98.1616 71.0079 97.9926 71.2674C97.6255 71.831 96.3831 72.5989 94.0222 72.3517L93.814 74.3408ZM97.7823 68.0814C96.1241 67.506 92.7581 67.1899 89.5639 68.6714L90.4054 70.4857C93.0626 69.2533 95.8843 69.5398 97.1266 69.9709L97.7823 68.0814Z" fill="white" mask="url(#path-28-inside-1_665_22692)"/>
<path fill-rule="evenodd" clip-rule="evenodd" d="M42.8063 0.249224C59.3821 -1.40511 76.1119 5.22532 86.116 18.6878C90.6693 24.8153 93.474 31.9582 94.2436 39.5487C94.635 43.4066 94.1067 47.175 92.5415 50.7323C89.3748 57.9303 82.603 62.9064 75.6449 66.1454C67.4675 69.952 58.0024 71.9155 49.0263 72.4869C39.7678 73.0765 29.7513 72.2645 20.9079 69.3622C13.5885 66.9595 6.052 62.7268 2.34034 55.7013C1.22471 53.5897 0.514669 51.3254 0.212698 48.9584L0.209859 48.9347C-0.549505 41.3785 0.76235 33.848 3.97581 26.9669C11.084 11.7486 26.1993 1.90674 42.8063 0.249224Z" fill="black"/>
<path d="M92.8467 39.6898L92.8468 39.6905C93.7969 49.009 88.9387 56.356 80.9197 61.6335C72.8895 66.9182 61.7389 70.0848 50.2951 70.9926C38.8529 71.9003 27.1771 70.5451 18.1094 66.8438C9.03949 63.1415 2.67305 57.1392 1.60523 48.7888C-0.751851 25.2957 17.7198 4.16057 42.9454 1.64269C68.173 -0.875094 90.4858 16.1933 92.8467 39.6898Z" stroke="white"/>
<path fill-rule="evenodd" clip-rule="evenodd" d="M38.8721 1.40769C44.1908 2.07218 51.7064 7.22262 54.2843 12.0675L54.8567 11.7644C53.1321 7.32058 45.8454 2.3749 40.8755 1.15625C39.6808 1.28498 40.0356 1.19798 38.8721 1.40769Z" fill="white"/>
<path d="M87.9757 38.951L88.4732 38.9011L87.9758 38.9511C88.1907 41.0886 87.9691 43.2184 87.2959 45.2562C85.489 50.7238 80.7565 54.7849 75.7429 57.5577C69.8324 60.8257 62.8138 62.7644 56.0978 63.5844C49.5663 64.3815 42.5318 64.2189 36.171 62.5704C30.6612 61.1422 25.1932 58.4442 21.9144 53.7716C20.2496 51.3989 19.2995 48.7208 19.0095 45.8341C18.5095 40.8578 19.2723 35.8961 21.2117 31.2829L21.2117 31.2828C26.1525 19.5272 37.7009 11.9057 50.3024 10.6478C62.9039 9.39032 75.7394 14.578 82.9222 25.1238C85.7407 29.2623 87.4757 33.9747 87.9757 38.951Z" fill="black" stroke="white"/>
<path fill-rule="evenodd" clip-rule="evenodd" d="M70.6089 23.5711C72.3405 23.3981 73.5062 25.3966 74.103 26.7294C75.0657 28.8806 75.5848 31.4778 75.8194 33.8118C76.0539 36.1455 76.0617 38.7939 75.5462 41.0926C75.2268 42.5171 74.482 44.7061 72.75 44.879C71.0184 45.052 69.8527 43.0535 69.2562 41.7207C68.2935 39.5695 67.774 36.9723 67.5395 34.6383C67.3049 32.3046 67.2971 29.6562 67.8124 27.3575C68.1324 25.9327 68.8772 23.744 70.6089 23.5711Z" fill="black"/>
<path d="M74.4233 33.9512C74.6902 36.6073 74.5715 39.0272 74.177 40.7866C73.9792 41.669 73.7182 42.3568 73.4228 42.8221C73.1234 43.2936 72.8396 43.4625 72.6109 43.4853C72.3819 43.5081 72.0699 43.3985 71.6825 42.9954C71.3002 42.5976 70.9075 41.9749 70.538 41.1491C69.8012 39.5026 69.2033 37.1543 68.9364 34.4984C68.6695 31.8421 68.7883 29.4221 69.1827 27.6627C69.3806 26.7803 69.6416 26.0924 69.937 25.6272C70.2363 25.1557 70.5201 24.9868 70.7489 24.9639C70.9779 24.9411 71.2899 25.0507 71.6773 25.4538C72.0595 25.8516 72.4522 26.4743 72.8217 27.3001C73.5584 28.9467 74.1563 31.2951 74.4233 33.9512ZM74.4233 33.9512L74.9208 33.9012L74.4233 33.9512Z" stroke="white"/>
<path fill-rule="evenodd" clip-rule="evenodd" d="M45.8387 25.1449C47.6988 24.9592 48.9624 27.1497 49.6011 28.5773C50.6596 30.9432 51.2309 33.8017 51.4886 36.3684C51.7465 38.9348 51.7557 41.8491 51.1891 44.3773C50.847 45.9029 50.0443 48.2996 48.1843 48.4852C46.3242 48.6709 45.0606 46.4804 44.4219 45.0531C43.3634 42.6873 42.7924 39.8291 42.5344 37.2624C42.2765 34.696 42.2676 31.7813 42.8339 29.2531C43.1756 27.7272 43.9783 25.3305 45.8387 25.1449Z" fill="black"/>
<path d="M43.9303 37.1224L43.9303 37.1224C43.635 34.1857 43.7659 31.5081 44.2029 29.5588C44.422 28.5815 44.7119 27.8156 45.0425 27.2949C45.377 26.768 45.7024 26.5662 45.9778 26.5387C46.2533 26.5112 46.6125 26.6448 47.0455 27.0953C47.4733 27.5404 47.9098 28.2338 48.3191 29.1485C49.1354 30.9727 49.7967 33.5713 50.0918 36.5081C50.3869 39.4448 50.2559 42.1225 49.8189 44.0719C49.5997 45.0493 49.3099 45.8152 48.9793 46.3359C48.6447 46.8628 48.3194 47.0646 48.044 47.0921C47.7685 47.1196 47.4093 46.9861 46.9763 46.5356C46.5486 46.0905 46.1121 45.397 45.7028 44.4824C44.8866 42.6581 44.2254 40.0594 43.9303 37.1224Z" stroke="white"/>
<path fill-rule="evenodd" clip-rule="evenodd" d="M12.9727 41.3065L5.8095 40.9033C5.48944 40.8849 5.21337 41.1311 5.19527 41.45C5.17717 41.7687 5.42414 42.0442 5.74386 42.0622L12.9074 42.4657C13.2271 42.4837 13.5032 42.238 13.5217 41.919C13.5394 41.6 13.2924 41.3245 12.9727 41.3065Z" fill="white"/>
<path fill-rule="evenodd" clip-rule="evenodd" d="M12.8575 43.3338L5.69427 42.9306C5.37456 42.9126 5.09813 43.1584 5.08004 43.4774C5.06194 43.796 5.30891 44.0715 5.62862 44.0895L12.7922 44.493C13.1119 44.511 13.3883 44.2653 13.4064 43.9463C13.4242 43.6276 13.1772 43.3518 12.8575 43.3338Z" fill="white"/>
<path fill-rule="evenodd" clip-rule="evenodd" d="M12.7426 45.3624L5.57903 44.9589C5.25932 44.9409 4.9829 45.1867 4.9648 45.5057C4.9467 45.8243 5.19368 46.0998 5.51339 46.1178L12.677 46.521C12.9967 46.539 13.2731 46.2932 13.2912 45.9742C13.3093 45.6556 13.0623 45.3805 12.7426 45.3624Z" fill="white"/>
<path fill-rule="evenodd" clip-rule="evenodd" d="M79.1869 76.2793C79.3646 78.8428 77.7157 78.9663 75.89 79.1024C74.4341 79.211 72.8554 79.3295 72.173 80.872L71.8359 80.7242C72.6074 78.9797 74.301 78.8527 75.8627 78.736C77.4964 78.614 78.9722 78.5037 78.8192 76.3033L79.1869 76.2793Z" fill="black"/>
<path fill-rule="evenodd" clip-rule="evenodd" d="M31.2186 77.335C30.6089 80.9329 30.456 84.5804 31.0305 87.9308C31.5968 91.237 32.8725 94.2553 35.1158 96.6502L34.8518 96.8949C32.5567 94.4441 31.2526 91.3629 30.6746 87.9909C30.098 84.6263 30.2442 80.9711 30.8474 77.3657L31.2186 77.335Z" fill="black"/>
<path fill-rule="evenodd" clip-rule="evenodd" d="M53.5068 74.6964C55.3559 74.5701 57.4456 74.6695 59.2031 75.2162C60.3826 75.5837 61.9493 76.3493 61.9979 77.7766C62.0461 79.2032 60.5388 80.1796 59.3894 80.7062C57.6773 81.4905 55.6043 81.8746 53.7549 82.0009C51.9058 82.1275 49.8161 82.0281 48.0586 81.481C46.8791 81.1136 45.3125 80.3479 45.2638 78.9206C45.2152 77.4937 46.723 76.5176 47.8719 75.9914C49.5848 75.207 51.6578 74.823 53.5068 74.6964Z" fill="black"/>
<path d="M53.696 80.7825L53.696 80.7825C51.6297 80.9239 49.7721 80.7279 48.4441 80.3146C47.7782 80.1074 47.2729 79.8539 46.9411 79.5839C46.6108 79.3152 46.4929 79.0667 46.4857 78.8543C46.4783 78.6368 46.5833 78.3624 46.9026 78.0411C47.2207 77.721 47.712 77.3971 48.3627 77.0991C49.6609 76.5045 51.4991 76.056 53.5648 75.9147C55.631 75.7734 57.4887 75.9694 58.8168 76.3827C59.4827 76.5899 59.9879 76.8433 60.3197 77.1133C60.65 77.382 60.7679 77.6304 60.7751 77.8429C60.7825 78.0603 60.6774 78.3348 60.3581 78.6561C60.0401 78.9762 59.5487 79.3002 58.8981 79.5982C57.5999 80.1928 55.7617 80.6413 53.696 80.7825Z" stroke="white"/>
<path fill-rule="evenodd" clip-rule="evenodd" d="M54.0585 76.7609C55.0126 76.6958 56.998 76.8387 57.042 78.1266C57.086 79.4146 55.1191 79.828 54.1649 79.8931C53.2107 79.9581 51.225 79.8153 51.1814 78.5273C51.1374 77.2394 53.1043 76.8263 54.0585 76.7609Z" fill="black"/>
<path d="M54.1171 77.9791L54.1171 77.9791C54.6819 77.9405 55.1726 77.9959 55.504 78.0991C55.6191 78.1349 55.7021 78.1725 55.7585 78.2053C55.7007 78.2516 55.6118 78.3074 55.4853 78.3654C55.1579 78.5153 54.6709 78.6375 54.1063 78.6761L54.1063 78.6761C53.5414 78.7148 53.0508 78.6593 52.7194 78.5561C52.6044 78.5203 52.5214 78.4828 52.465 78.45C52.5228 78.4037 52.6117 78.3479 52.7383 78.2899C53.0656 78.1399 53.5525 78.0178 54.1171 77.9791ZM55.8311 78.1323C55.8311 78.1323 55.8308 78.133 55.8299 78.1344C55.8306 78.133 55.831 78.1323 55.8311 78.1323ZM52.3924 78.5231C52.3923 78.5231 52.3927 78.5224 52.3935 78.521C52.3929 78.5224 52.3924 78.5231 52.3924 78.5231Z" stroke="white"/>
<path fill-rule="evenodd" clip-rule="evenodd" d="M34.6658 71.5732C34.7247 73.2934 34.4096 74.6846 33.8447 75.6889C33.5158 76.2738 33.1013 76.7293 32.6258 77.0448C32.1468 77.3624 31.606 77.5367 31.0287 77.5562C30.3708 77.5788 29.6672 77.3995 28.9561 77.002L29.1324 76.6883C29.785 77.0529 30.4244 77.2177 31.0177 77.1972C31.5258 77.1799 32.0031 77.0257 32.4268 76.7449C32.854 76.4616 33.2294 76.0475 33.53 75.5132C34.0644 74.5629 34.3624 73.2357 34.3057 71.5846L34.6658 71.5732Z" fill="black"/>
<path d="M124.379 66.3334L113.556 66.3486L113.581 83.9816L124.404 83.9663L124.379 66.3334Z" fill="black"/>
<path d="M114.622 82.9399L114.599 67.387L123.339 67.3745L123.361 82.9275L114.622 82.9399Z" stroke="white"/>
<path d="M136.122 58.0247L125.298 58.04L125.335 83.9542L136.159 83.9388L136.122 58.0247Z" fill="black"/>
<path d="M126.376 82.9118L126.342 59.0784L135.081 59.0658L135.116 82.8993L126.376 82.9118Z" stroke="white"/>
<path d="M148.105 47.3714L137.281 47.3867L137.333 83.942L148.157 83.9267L148.105 47.3714Z" fill="black"/>
<path d="M138.374 82.8999L138.325 48.4251L147.065 48.4126L147.114 82.8875L138.374 82.8999Z" stroke="white"/>
<path d="M160.218 35.2103L149.395 35.2256L149.464 83.9461L160.287 83.9309L160.218 35.2103Z" fill="black"/>
<path d="M150.505 82.9037L150.438 36.2639L159.178 36.2515L159.244 82.8913L150.505 82.9037Z" stroke="white"/>
<path fill-rule="evenodd" clip-rule="evenodd" d="M141.767 30.4602C138.972 30.9956 136.176 31.531 133.381 32.0665C138.63 28.472 143.879 24.8776 149.127 21.2832C148.454 27.3853 147.78 33.487 147.107 39.5891C146.406 37.2774 145.705 34.9656 145.004 32.6538C139.35 43.156 126.331 53.2998 115.375 57.0484C113.691 57.6005 113.86 56.705 114.938 56.0642C124.767 50.667 136.61 40.7381 141.767 30.4602Z" fill="black"/>
<path d="M142.626 29.2368L138.085 30.1066L147.842 23.4247L146.628 34.4215L145.611 31.0663L145.239 29.8397L144.682 30.9941C142 36.5541 137.222 41.9247 131.78 46.3627C128.511 49.0284 125.014 51.347 121.609 53.1615C124.85 50.9398 128.137 48.3432 131.19 45.4998C136.221 40.8155 140.645 35.4376 143.175 29.9367L143.581 29.054L142.626 29.2368Z" stroke="white"/>
<path fill-rule="evenodd" clip-rule="evenodd" d="M16.6543 107C16.6543 106.465 17.1656 106.198 17.6014 106.042C18.1294 105.854 18.7347 105.739 19.2865 105.644C21.2094 105.312 23.2334 105.147 25.179 105.006C31.5676 104.54 38.0694 104.423 44.4736 104.423C50.8778 104.423 57.38 104.54 63.7686 105.006C65.7142 105.147 67.7382 105.312 69.6611 105.644C70.2129 105.739 70.8183 105.854 71.3463 106.042C71.7824 106.197 72.2933 106.465 72.2933 107" fill="black"/>
<mask id="path-59-inside-2_665_22692" fill="white">
<path fill-rule="evenodd" clip-rule="evenodd" d="M17.249 107C17.249 105.904 29.4382 105.016 44.4747 105.016C59.5108 105.016 71.7001 105.904 71.7001 107"/>
</mask>
<path d="M18.249 107C18.249 107.211 18.1728 107.372 18.1054 107.469C18.0435 107.558 17.9842 107.601 17.9727 107.61C17.9542 107.623 17.9911 107.595 18.1377 107.542C18.4185 107.442 18.886 107.329 19.5584 107.213C20.8879 106.984 22.8433 106.773 25.2959 106.594C30.1917 106.237 36.9728 106.016 44.4747 106.016V104.016C36.9402 104.016 30.1084 104.238 25.1505 104.6C22.6762 104.78 20.6445 104.997 19.2187 105.242C18.5133 105.364 17.9112 105.5 17.4666 105.658C17.2506 105.735 17.0108 105.838 16.8065 105.985C16.635 106.108 16.249 106.436 16.249 107H18.249ZM44.4747 106.016C51.9765 106.016 58.7574 106.237 63.6532 106.594C66.1058 106.773 68.0612 106.984 69.3907 107.213C70.063 107.329 70.5306 107.442 70.8114 107.542C70.958 107.595 70.9949 107.623 70.9764 107.61C70.9649 107.601 70.9056 107.558 70.8436 107.469C70.7763 107.372 70.7001 107.211 70.7001 107H72.7001C72.7001 106.436 72.314 106.108 72.1426 105.985C71.9382 105.838 71.6985 105.735 71.4825 105.658C71.0379 105.5 70.4357 105.364 69.7304 105.242C68.3045 104.997 66.2729 104.78 63.7986 104.6C58.8408 104.238 52.0091 104.016 44.4747 104.016V106.016Z" fill="white" mask="url(#path-59-inside-2_665_22692)"/>
<path fill-rule="evenodd" clip-rule="evenodd" d="M72.7041 85.4727C73.5075 86.2245 74.7398 86.8954 76.1141 87.2875C77.3398 87.6373 78.6758 87.765 79.9174 87.5312C77.6499 88.7127 73.9819 87.5606 72.7041 85.4727Z" fill="black"/>
<path fill-rule="evenodd" clip-rule="evenodd" d="M37.5166 101.425C38.4708 101.974 39.8241 102.347 41.252 102.416C42.5256 102.478 43.8552 102.298 45.0105 101.788C43.0734 103.454 39.2383 103.167 37.5166 101.425Z" fill="black"/>
<path fill-rule="evenodd" clip-rule="evenodd" d="M68.3726 45.5098L67.5416 45.6395C67.5586 47.2122 67.0739 48.5847 66.0342 49.3991C65.568 49.7641 65.0318 49.9883 64.4757 50.0725C63.9133 50.1577 63.3268 50.1022 62.7636 49.9052C61.5103 49.4674 60.5061 48.3679 60.0395 46.8115L59.2109 46.941C59.7542 48.9535 61.0008 50.3745 62.6075 50.9357C63.275 51.1687 63.9719 51.2374 64.6379 51.1334L64.6407 51.133C65.3071 51.0287 65.953 50.7656 66.5125 50.3274C67.851 49.2796 68.4468 47.5351 68.3726 45.5098Z" fill="black"/>
</g>
</g>
<defs>
<clipPath id="clip0_665_22692">
<rect width="177" height="107" fill="white"/>
</clipPath>
</defs>
</svg>
