<svg width="160" height="124" viewBox="0 0 160 124" fill="none" xmlns="http://www.w3.org/2000/svg">
<g opacity="0.5">
<path d="M159.662 0.426067C159.662 0.310006 159.614 0.198049 159.53 0.118474C159.446 0.0372198 159.326 -0.0116901 159.217 0.00241181L155.973 0.17238C155.973 0.17238 155.973 0.172494 155.973 0.172494C150.252 0.452555 67.3688 4.55722 63.3284 4.75733C63.1031 4.76811 62.9265 4.95464 62.9265 5.18098C62.9748 67.9214 62.8256 65.2294 63.0286 65.4915C62.7196 65.5094 62.5807 65.7797 62.6443 66.0145L63.2484 68.2125C63.3095 68.4337 63.5369 68.5713 63.7683 68.5093L64.9241 68.189L78.8108 68.6086C78.0257 69.5303 79.8394 67.4128 71.6602 76.9562L53.76 77.0381C53.5573 76.7794 53.2966 76.8259 53.1375 77.0075C52.206 75.3847 51.1064 73.9549 49.8109 72.7137C43.4247 66.5825 35.1216 63.7329 25.8044 64.4799C10.4591 65.7152 3.04559 79.8447 2.6503 92.4495C2.33506 102.557 1.73502 112.608 1.71289 122.669C1.71208 122.903 1.90104 123.093 2.13459 123.094H2.13541C2.3681 123.094 2.55706 122.905 2.55792 122.67C2.57277 115.937 2.85084 109.102 3.11986 102.492C3.2552 99.1512 3.39136 95.8124 3.49532 92.4761C3.87822 80.2369 11.0442 66.5203 25.8721 65.3256C35.0763 64.5901 42.9321 67.2839 49.2275 73.328C51.7832 75.7764 53.578 78.9692 54.7134 83.0874C56.039 88.0425 56.2499 94.6065 56.236 94.1879C56.2408 94.2175 56.261 94.2389 56.2711 94.2667L55.9372 102.235C55.9152 102.803 56.7578 102.832 56.7822 102.271L57.1196 94.2205C61.4643 89.1653 66.0432 84.804 70.3278 79.8133C77.1456 71.8538 80.2574 68.3681 81.368 66.7624C82.3035 65.4038 83.4672 63.6208 85.0301 64.1211C86.3884 64.5567 85.9812 66.8878 85.2918 68.2158C84.8339 69.187 84.1436 70.1045 83.5462 70.854C82.9568 71.2015 81.3482 73.5613 80.7945 74.5062C80.6269 74.7917 80.8363 75.1462 81.1585 75.1462C81.3328 75.1462 83.8676 71.8494 83.9748 71.6715C84.4544 70.8786 85.9175 70.4748 86.8738 71.126C87.6028 71.6217 88.0189 72.6953 87.565 73.75C87.3968 73.9405 85.8714 76.2048 85.2481 77.1096C85.1161 77.3036 85.1648 77.5673 85.3571 77.6999C85.55 77.8327 85.8126 77.7833 85.9446 77.5904L87.9321 74.6798C88.0083 74.6497 88.0865 74.618 88.1363 74.5443C88.1396 74.5385 88.1437 74.5335 88.147 74.5277C88.7641 73.6226 91.4257 73.8824 90.8677 77.5854C90.0918 82.4987 85.9179 86.1556 80.8663 86.1608C80.2169 86.2238 79.7787 86.0307 79.2663 85.4387C79.1144 85.2613 78.8471 85.2422 78.6705 85.3972C78.4947 85.5506 78.4757 85.8184 78.6292 85.9959C79.7625 87.3077 80.6724 87.0313 81.8839 86.9179L58.6208 120.81C58.4879 121.003 58.5366 121.267 58.728 121.4C58.9176 121.533 59.1826 121.487 59.3156 121.292L73.1172 101.185L133.518 100.916V122.19C133.518 122.425 133.707 122.615 133.94 122.615C134.174 122.615 134.363 122.425 134.363 122.19V100.913L139.418 100.897C139.71 100.895 139.913 100.605 139.813 100.328L131.38 76.9802C131.319 76.8127 131.16 76.7007 130.983 76.7007C130.982 76.7007 130.982 76.7007 130.981 76.7007L116.873 76.7584L120.587 69.9076L159.227 71.0968C159.232 71.0968 159.236 71.0968 159.24 71.0968C159.474 71.0968 159.662 70.9063 159.662 70.6723V0.426067H159.662ZM69.6873 79.2594C65.7367 83.8608 61.4167 88.0261 57.0365 93.0422C57.0247 93.0298 57.0036 93.0314 56.9903 93.0206C56.684 88.0536 56.1182 83.5731 54.2107 79.2017C54.2094 79.1917 54.2178 79.1839 54.2157 79.174C54.0927 78.602 53.9755 78.3604 53.9318 77.8863L70.93 77.8086L69.6873 79.2594ZM104.699 82.3851L103.537 82.3353C103.433 81.8963 99.644 65.941 99.8195 66.6802C100.024 66.6859 112.092 67.0182 111.351 66.9978C111.394 67.1696 115.449 83.3966 115.196 82.3851H104.699ZM91.5407 8.55466C91.5873 9.85189 90.5784 10.9414 89.2872 10.9882C87.9961 11.0349 86.9118 10.0212 86.8653 8.724C86.8187 7.42677 87.8277 6.33723 89.1187 6.29048C90.4098 6.24377 91.4942 7.25754 91.5407 8.55466ZM82.6426 8.87688C82.6891 10.1741 81.6802 11.2636 80.3891 11.3104C79.098 11.3571 78.0137 10.3434 77.9671 9.04621C77.9205 7.74899 78.9295 6.65945 80.2207 6.6127C81.5117 6.56596 82.5961 7.57965 82.6426 8.87688ZM73.7444 9.1991C73.7909 10.4963 72.782 11.5858 71.4909 11.6326C70.1998 11.6794 69.1155 10.6656 69.0689 9.36843C69.0224 8.07121 70.0313 6.98166 71.3225 6.93492C72.6135 6.88817 73.6979 7.90187 73.7444 9.1991ZM81.3552 65.3176C79.5991 65.2686 86.449 65.4599 63.7716 64.8264V14.4393L155.573 11.578V67.3668C111.113 66.1391 97.9752 65.7791 86.7638 65.4709C86.7201 64.8776 86.4896 64.1857 86.0493 63.7594C85.9118 63.6284 85.7457 63.5574 85.5853 63.4746C84.7831 63.0588 83.7641 63.1801 83.0366 63.6209C82.3982 64.0154 81.7919 64.7109 81.3552 65.3176ZM88.5892 73.2981C88.8158 71.4028 87.3721 69.6397 85.214 70.0167C85.4707 69.6371 85.7018 69.2372 85.9102 68.8296L99.5596 69.2527L101.358 76.8219L91.7701 76.8679C91.8103 75.7442 91.569 74.8224 91.0194 74.1389C90.4564 73.4514 89.4232 73.1186 88.5892 73.2981ZM130.687 77.5506L138.814 100.05C107.026 100.188 95.7314 100.237 73.7016 100.333L83.0022 86.7834C84.8408 86.4156 86.5973 85.5908 88.0108 84.3748C89.9807 82.6782 91.2914 80.3153 91.7021 77.7171L101.559 77.6699L102.679 82.3851H96.0144L95.2161 84.2042H120.964L120.166 82.3851H116.068L115.223 79.0022C115.301 79.0355 115.278 79.052 115.378 79.052C115.532 79.052 115.675 78.9683 115.75 78.8306L116.412 77.6092L130.687 77.5506Z" fill="white"/>
<path d="M41.1473 51.226C39.9004 50.964 38.8285 49.911 38.5397 48.6657C38.4869 48.4377 38.2625 48.2976 38.0322 48.3482C37.8044 48.4021 37.6633 48.6301 37.7161 48.8581C38.0834 50.4392 39.3921 51.7243 40.974 52.0568C41.1949 52.1061 41.4258 51.9621 41.4741 51.7284C41.522 51.4988 41.3759 51.2741 41.1473 51.226Z" fill="white"/>
<path d="M0.871603 28.5054C1.80489 29.9406 3.22258 30.5558 4.59241 31.1503C5.79801 31.6726 6.93597 32.1667 7.71824 33.184C8.62761 34.3721 7.65552 35.2758 6.18254 36.4216L5.85 36.6836C3.90501 38.2109 3.06745 40.2214 3.60796 42.0604C4.27472 44.3636 6.41197 46.472 9.32656 47.6991C10.5387 48.2089 12.2864 48.2048 13.2594 48.8656C13.4789 49.014 13.7447 49.2387 13.7653 49.4709C13.7925 49.7901 13.3849 50.2303 12.9318 50.6673C11.9317 51.6381 11.2707 52.2798 11.8987 53.9754C12.9991 56.9669 16.7433 59.2269 21.2773 58.4001C30.1427 64.6543 42.3194 60.5689 45.9453 50.6308C46.0369 50.3804 46.0922 50.1134 46.1467 49.8456C46.336 48.9142 46.4673 48.7854 46.9207 48.4254C47.2219 48.1874 47.5965 47.8906 47.736 47.3085C47.8895 46.666 47.7508 46.0334 47.6106 45.3999C47.0149 42.701 46.3643 39.8233 45.0623 37.3444C43.8724 35.0789 42.1407 33.1071 40.0696 31.6202C41.4091 30.8437 42.4547 29.5318 42.7576 27.9996C43.2544 25.4858 41.7162 22.7249 39.3314 21.8477C36.7737 20.8824 33.9866 22.0849 31.5127 21.6736C27.316 20.9597 26.5599 17.0182 23.3334 14.5384C21.2762 12.9565 17.4943 11.9582 15.1375 12.9962C13.7826 13.594 12.9871 14.7888 12.8377 16.4511C12.5993 19.1132 16.5332 21.5971 14.531 23.6087C12.7096 25.4419 9.32032 22.2606 6.01753 21.5426C4.43316 21.177 2.27611 21.3262 0.97724 22.8294C-0.453635 24.4461 -0.159038 26.9086 0.871603 28.5054ZM44.3147 37.7408C45.5905 40.17 46.244 43.1299 46.7688 45.5086C46.8071 45.6784 46.8409 45.8285 46.8027 45.6587C47.2412 47.6532 46.6694 47.3571 45.9364 48.1876C45.6096 48.1273 44.7379 48.1182 43.5522 47.5018C43.3476 47.394 43.091 47.4761 42.9829 47.6842C42.8756 47.8923 42.9573 48.1485 43.1644 48.2562C43.8856 48.6308 44.6876 48.8552 45.4972 48.9646C45.3507 49.4029 45.2824 49.982 45.1515 50.339C41.8301 59.447 30.8016 63.4706 22.3899 58.1368C27.6691 56.5855 29.2254 52.6332 28.3225 50.3671C28.0955 49.7594 27.6681 49.5637 27.2546 49.3747L27.0643 49.2843C27.7528 49.1811 28.3863 48.8902 28.8514 48.4229C29.0165 48.2571 29.0165 47.9885 28.8514 47.8226C28.6864 47.6568 28.419 47.6568 28.254 47.8226C27.6418 48.4377 26.5718 48.7124 25.3336 48.2521C25.1627 48.1302 24.5778 48.0102 23.6486 47.0781C22.0381 45.4328 21.3563 42.6108 23.2583 41.3797C24.7398 40.3978 26.5343 41.1833 27.598 42.6432C28.1146 43.3878 28.4801 44.2998 28.7483 45.5144C28.8692 46.0639 29.6942 45.8789 29.5735 45.3303C29.5182 45.0798 29.4545 44.8508 29.3905 44.6219C29.4003 44.6345 29.4058 44.6489 29.4159 44.6612C29.8491 45.2333 30.5464 45.6006 31.2866 45.6429C32.8435 45.7043 33.8976 44.2874 33.1185 42.867C32.4187 41.5138 30.6749 41.143 30.1156 39.9726C30.0447 39.8267 30.0785 39.7479 30.1247 39.6833C30.2774 39.4744 30.7015 39.3251 31.0011 39.3724C31.5101 39.4563 32.129 39.8239 32.7885 39.9486C33.947 40.1518 35.2071 39.4603 35.6634 38.3808C36.1462 37.3129 35.7922 35.9167 34.863 35.2062C34.1087 34.6112 32.9126 34.4182 32.6292 33.7188C32.3336 32.975 33.2649 32.1741 34.07 32.0722C35.6243 31.8554 36.9481 32.8476 39.153 32.0524C41.2995 33.4902 43.1085 35.4438 44.3147 37.7408Z" fill="white"/>
<path d="M4.87386 10.1624C3.88692 10.5081 2.99489 11.5951 3.27627 12.7459C3.73179 14.6222 6.69669 16.3367 8.20019 16.9818C10.1294 17.8101 11.1698 16.5712 10.6758 14.7457C9.96966 12.136 7.29019 9.30743 4.87386 10.1624Z" fill="white"/>
<path d="M13.4407 9.13707C13.505 8.6761 13.3326 8.23003 12.9274 7.81216C11.6675 6.51004 10.4892 7.15813 10.4114 8.29386C10.285 10.1646 13.0691 10.7769 13.4407 9.13707Z" fill="white"/>
<path d="M44.3841 117.469L44.4022 90.6013C44.4022 90.3675 44.2133 90.1768 43.9797 90.1768C43.7462 90.1768 43.5572 90.3666 43.5572 90.6013L43.5391 117.469C43.5391 117.703 43.728 117.894 43.9616 117.894C44.1951 117.894 44.3841 117.704 44.3841 117.469Z" fill="white"/>
<path d="M14.8284 115.008L14.8466 88.1403C14.8466 87.9065 14.6576 87.7158 14.4241 87.7158C14.1906 87.7158 14.0016 87.9057 14.0016 88.1403L13.9834 115.008C13.9834 115.242 14.1724 115.433 14.4059 115.433C14.6395 115.433 14.8284 115.243 14.8284 115.008Z" fill="white"/>
<path d="M25.8912 45.0922C25.9287 45.003 25.9483 44.9037 25.9175 44.8042C25.7623 44.3034 25.7276 43.7653 25.8168 43.2479C25.9127 42.6995 25.0812 42.5404 24.985 43.102C24.9021 43.5788 24.9319 44.064 25.0154 44.5396C24.6308 44.352 24.2316 44.1972 23.8132 44.1226C23.5904 44.0762 23.3643 44.2346 23.3239 44.4667C23.2834 44.6972 23.4361 44.9178 23.6663 44.9584C24.6855 45.1399 25.6352 45.7659 26.2071 46.6332C26.5138 47.0939 27.2216 46.6348 26.9118 46.1639C26.6394 45.7508 26.2819 45.4006 25.8912 45.0922Z" fill="white"/>
<path d="M38.188 40.5759C38.7439 40.7616 39.3029 40.9407 39.8658 41.105C39.3928 42.0074 39.7242 43.1949 40.218 43.2275C40.6234 43.2546 41.1357 42.3984 40.8948 41.364C41.4541 41.5013 42.2218 41.7459 42.8542 41.6448C43.4515 41.5503 43.9134 41.2379 43.7831 40.5772C43.6684 39.9768 43.1853 39.8513 42.6664 39.6361C41.3954 39.1071 40.0128 38.8442 38.6694 38.8525C38.1091 38.8557 37.4156 38.7077 37.2811 39.4207C37.1481 40.1148 37.6299 40.3893 38.188 40.5759Z" fill="white"/>
<path d="M86.9285 29.4245C86.9285 29.1899 86.7396 29 86.506 29H69.1374C68.9038 29 68.7148 29.1899 68.7148 29.4245C68.7148 29.6591 68.9038 29.849 69.1374 29.849H86.506C86.7395 29.849 86.9285 29.6592 86.9285 29.4245Z" fill="white"/>
<path d="M81.788 33.6579C81.788 33.4233 81.5991 33.2334 81.3655 33.2334H72.8404C72.6069 33.2334 72.418 33.4233 72.418 33.6579C72.418 33.8925 72.6069 34.0824 72.8404 34.0824H81.3655C81.5991 34.0824 81.788 33.8925 81.788 33.6579Z" fill="white"/>
<path d="M133.334 57.3962C133.334 57.6309 133.523 57.8207 133.756 57.8207H149.722C149.956 57.8207 150.145 57.6309 150.145 57.3962C150.145 57.1616 149.956 56.9717 149.722 56.9717H133.756C133.523 56.9717 133.334 57.1616 133.334 57.3962Z" fill="white"/>
<path d="M146.144 60.0518H138.354C138.121 60.0518 137.932 60.2416 137.932 60.4762C137.932 60.7109 138.121 60.9007 138.354 60.9007H146.144C146.378 60.9007 146.567 60.7109 146.567 60.4762C146.567 60.2416 146.378 60.0518 146.144 60.0518Z" fill="white"/>
<path d="M102.633 55.0957C102.782 55.2327 103.008 55.2445 103.171 55.1222L121.126 41.6054L125.502 46.5958C125.603 46.711 125.762 46.7649 125.908 46.7292L127.892 46.2956C127.989 46.2748 128.121 46.1884 128.179 46.0743L137.733 27.262C137.8 27.1301 137.794 26.9726 137.716 26.8466C137.612 26.6768 136.663 25.1559 136.785 25.326C136.699 25.2063 136.497 25.143 136.407 25.1511L113.719 27.0191C113.396 27.0458 113.222 27.4121 113.405 27.6823L117.915 34.281L103.757 44.4633L96.9442 36.5877C96.8048 36.4235 96.5613 36.3962 96.3839 36.518C96.2142 36.6369 76.1023 50.7441 76.2714 50.6048C76.0657 50.7743 76.032 51.132 76.3268 51.2934L77.5258 51.9476C77.6289 52.0031 77.7519 52.0147 77.8658 51.9758L93.3439 46.5891L102.633 55.0957ZM96.5555 37.4325L103.372 45.3114C103.514 45.4781 103.76 45.5063 103.936 45.3778L118.74 34.7313C118.91 34.6092 118.975 34.3317 118.844 34.1402L114.514 27.805L135.778 26.0548L127.676 45.0975L123.597 40.5038L122.259 38.9962C122.259 38.9957 122.258 38.9958 122.258 38.9953L122.257 38.9945C122.098 38.8165 121.836 38.8274 121.688 38.9373L103.383 52.731L94.3118 44.4417C94.1971 44.3373 94.0345 44.3041 93.8884 44.3555L79.3345 49.4822L96.5555 37.4325Z" fill="white"/>
</g>
</svg>
