<svg width="136" height="133" viewBox="0 0 136 133" fill="none" xmlns="http://www.w3.org/2000/svg">
<g opacity="0.5" clip-path="url(#clip0_665_22504)">
<path d="M98.2385 89.6006C101.204 91.671 104.082 93.8643 107.044 95.9363C108.404 96.8869 109.791 97.8025 111.155 98.7496C111.728 99.1478 112.425 99.5418 112.905 100.042L112.853 100.076L112.485 99.9188C110.953 99.1995 109.469 98.2835 107.99 97.4599C104.506 95.5202 101.066 93.512 97.5449 91.6396C97.7318 90.9538 98.0061 90.2735 98.2385 89.6006Z" fill="#161D36"/>
<path d="M101.59 79.6582C102.471 80.6973 103.53 81.6064 104.51 82.552C105.853 83.8476 107.166 85.182 108.497 86.4914L121.577 99.4871L121.542 99.5063L121.154 99.2156C119.577 97.8101 117.924 96.4808 116.33 95.0935C111.23 90.6006 106.029 86.226 100.729 81.9699C101.004 81.1953 101.313 80.4322 101.59 79.6582Z" fill="#161D36"/>
<path d="M89.8234 8.81738C89.3949 10.9842 88.814 13.0982 88.2193 15.2233C87.9759 16.0925 87.8023 16.9864 87.5018 17.8383C87.1137 18.9387 86.609 20.0083 86.1367 21.075C84.9243 23.814 83.6254 26.4971 82.0298 29.0374C81.154 30.4318 80.1364 31.727 79.2039 33.0826C79.7818 34.4184 80.3704 35.7495 80.9695 37.076C81.3332 37.8767 81.7694 38.6898 82.0604 39.5167L82.0174 39.5361L81.9044 39.467C81.4533 38.495 79.223 33.8763 79.1768 33.1184C79.163 32.8951 79.1939 32.7347 79.3434 32.5616C82.1281 29.3457 84.3154 24.8442 86.0369 20.9666C86.5113 19.8984 87.0386 18.8215 87.4191 17.7163C87.7078 16.878 87.8717 15.9914 88.0945 15.1337C88.3926 13.9859 88.7484 12.8751 89.0165 11.7177" fill="#161D36"/>
<path d="M79.6719 11.0264C78.8203 12.4286 77.5861 15.8273 77.0443 17.4937C76.0538 16.0477 75.0274 14.1764 73.5254 13.2208" fill="#161D36"/>
<path d="M83.2213 31.5986C83.6238 32.1417 84.1612 33.2598 84.5502 33.9089C85.5737 35.6135 86.6275 37.2987 87.7119 38.9651L95.1406 50.6974C97.2829 53.9688 99.4526 57.222 101.649 60.4573L118.655 85.3475L123.343 92.2735C124.234 93.572 125.275 94.7692 125.992 96.1782C125.711 95.8485 125.431 95.5173 125.153 95.185C122.565 92.0567 120.094 88.8455 117.589 85.6531C115.728 83.3302 113.888 80.9912 112.069 78.636C109.607 75.3922 107.234 72.0773 104.745 68.8555C103.275 66.9531 101.671 65.155 100.16 63.2844C97.9544 60.5545 95.8309 57.7665 93.5974 55.0575C93.8278 54.2241 94.2295 53.3855 94.5514 52.5792C92.4527 50.3941 90.5799 48.0842 88.713 45.7022C87.6071 44.2912 86.3868 42.8425 85.5716 41.2384C84.2706 38.6778 83.4417 35.8644 82.04 33.3482C82.4414 32.7702 82.8352 32.1872 83.2213 31.5986Z" fill="white"/>
<path d="M52.6526 9.06055C54.7479 11.7969 56.8078 14.5596 58.8324 17.3486C57.9746 18.511 57.4682 19.682 57.3084 21.1289C57.0759 23.2355 57.9564 24.7518 59.2206 26.3427C58.8495 26.9995 58.5246 27.6862 58.1853 28.3597C56.9499 27.5566 55.5351 25.9954 54.4233 24.9569C50.0027 20.7869 45.7542 16.4168 41.2324 12.3575" fill="white"/>
<path d="M1.05273 104.631C4.38451 104.957 7.70158 105.496 11.0154 105.967L25.4366 107.993L35.4317 109.413C37.8221 109.741 40.2498 110.006 42.6164 110.478C42.064 111.591 41.462 112.685 40.9008 113.795C40.7869 113.897 40.6636 113.901 40.515 113.915C39.2578 114.034 37.9604 114.03 36.6974 114.088C34.0412 114.225 31.3839 114.333 28.7252 114.411L15.5143 114.935L7.02416 115.212C5.83823 115.256 4.64877 115.228 3.46638 115.341C2.78513 112.592 1.9694 109.91 1.43676 107.122C1.28256 106.315 1.07333 105.452 1.05273 104.631Z" fill="white"/>
<path d="M93.8197 10.2188C95.7157 14.7302 97.5514 19.2661 99.3268 23.826C99.7944 25.0158 100.335 26.1754 100.818 27.3587C103.316 33.5292 105.93 39.6504 108.661 45.7216C110.902 50.7937 113.187 55.8465 115.516 60.8798L124.899 80.8798C126.282 83.9029 127.746 86.8884 129.1 89.9242C129.521 90.8666 130.114 91.8686 130.388 92.8536C130.148 92.7193 129.752 91.836 129.591 91.5571C128.942 90.4675 128.381 89.3124 127.767 88.2019L121.184 76.0263L99.7773 36.8077L93.2453 24.8066C92.1659 22.8125 91.1759 20.7635 90.0186 18.8138C90.5518 17.2309 90.8811 15.5639 91.2451 13.9365" fill="white"/>
<path d="M31.1446 19.6807C31.8753 20.0336 35.3937 23.7273 36.2488 24.5653L47.5566 35.6058C49.7172 37.706 51.8286 39.9022 54.1296 41.8487C53.6375 43.9823 53.0016 46.1159 52.4272 48.2308C51.1715 47.5614 49.8855 46.4342 48.7302 45.5764C46.0911 43.6547 43.4283 41.7667 40.7412 39.9122L23.1777 27.6963C25.7588 24.9262 28.3752 22.2651 31.1446 19.6807Z" fill="white"/>
<path d="M0.514958 81.3281C4.69807 82.7477 8.94505 83.9578 13.1596 85.2772L39.2418 93.574C42.6171 94.6413 46.0325 95.5572 49.3981 96.6612L48.4117 98.6235L48.1875 99.0026C47.9562 99.1157 47.7104 99.0646 47.458 99.0343C44.396 98.6661 41.3541 98.0664 38.299 97.6353L13.5599 94.132C9.0451 93.4938 4.52798 92.7991 0.00144882 92.2526C-0.0188561 88.5906 0.175365 84.9727 0.514958 81.3281Z" fill="white"/>
<path d="M112.405 1.03406C119.955 31.3035 127.797 61.4977 135.93 91.6163C135.368 91.0225 131.982 80.4442 131.394 78.7052C129.869 74.1925 128.303 69.6984 126.833 65.1667C126.301 63.5279 125.836 61.8688 125.296 60.2326C121.73 49.5489 117.975 38.9318 114.031 28.3811C110.372 18.8904 106.635 9.42992 102.82 0" fill="white"/>
<path d="M5.4069 58.4385C6.54722 58.9054 7.66134 59.4849 8.77341 60.017C11.5487 61.3464 14.2999 62.7246 17.0263 64.1506L33.418 72.4254L49.6826 80.526C50.8735 81.1239 52.0712 81.7081 53.2751 82.2785C54.1988 82.7157 55.1376 83.1162 56.0192 83.6358C55.632 84.2311 55.2888 84.8508 54.9893 85.4944L53.3837 84.991C49.8527 83.999 46.3685 82.8159 42.8678 81.7225C33.3109 78.7379 23.7885 75.6228 14.2016 72.7387C11.2627 71.8545 8.34465 70.9133 5.39719 70.0555C4.36399 69.7546 3.31755 69.3682 2.26758 69.1431C3.161 65.5179 4.27689 61.9935 5.4069 58.4385Z" fill="white"/>
<path d="M15.668 37.5566C16.854 38.1702 17.9666 39.1546 19.0607 39.9286L26.307 45.0216L43.7583 57.4012C46.9374 59.7384 50.1497 62.029 53.3955 64.2728C55.61 65.8291 57.7791 67.3544 60.0762 68.7887C59.8146 69.8034 59.4873 70.7804 59.1315 71.7645C58.0357 71.3605 56.9577 70.6817 55.9195 70.1416C54.4193 69.3829 52.9624 68.5266 51.4725 67.7444C47.563 65.6909 43.6368 63.6704 39.6938 61.6823L18.421 51.1269C15.6177 49.7587 12.7744 48.472 9.97266 47.0997C10.3585 46.0424 11.0114 45.0184 11.57 44.0442C12.8298 41.8477 14.1443 39.581 15.668 37.5566Z" fill="white"/>
<path d="M89.0165 11.7174C88.7484 12.8746 88.3926 13.9857 88.0945 15.1334C87.8717 15.9912 87.7078 16.8777 87.4191 17.7161C87.0389 18.8215 86.5113 19.8982 86.0369 20.9663C84.3154 24.844 82.1281 29.3454 79.3434 32.5613C79.1936 32.7341 79.163 32.8949 79.1768 33.1182C79.223 33.876 81.4536 38.4947 81.9044 39.4668L82.0174 39.5358L82.0604 39.5165C82.4112 40.1518 82.6498 40.8455 83.015 41.4729C84.5664 44.1384 86.536 46.8589 88.5174 49.229C89.5008 50.4056 90.6017 51.4694 91.5858 52.6362C91.7668 52.851 92.0999 53.2295 92.0451 53.5266C91.903 54.2974 90.5361 54.6406 89.9393 54.9861C89.6412 55.1589 89.4108 55.4293 89.1189 55.6091C88.9067 55.7402 88.7116 55.7669 88.4721 55.7064C88.2987 55.6626 88.121 55.6006 87.9406 55.6306C87.5978 55.687 87.2176 55.8504 86.8839 55.9553C85.5855 56.3631 84.0944 56.9914 82.7266 57.0216C84.8672 58.1909 86.8789 59.6795 88.8573 61.1012C90.9887 62.6333 93.1133 64.1534 95.2162 65.724C96.5355 66.7093 97.8535 67.6875 99.1422 68.7124C99.7057 69.1608 100.31 69.5993 100.814 70.1144C101.254 70.5643 101.671 71.1852 101.839 71.7943C102.017 72.4384 101.8 73.1246 101.583 73.7331C100.944 75.5315 100.078 77.1368 99.2869 78.8646C98.5495 80.4755 97.8977 82.1419 97.2397 83.7866C96.4675 85.7163 95.675 87.6543 94.9693 89.6089C94.6015 90.6277 94.4046 91.767 93.8841 92.7184C92.9436 93.0778 92.0593 93.4763 91.2759 94.118C92.9809 95.5262 94.0539 95.8062 96.2806 95.8094C96.8683 95.8103 97.4321 95.768 97.9963 95.9664C98.1925 96.1397 98.2596 96.4233 98.3462 96.6646C101.118 98.0315 103.985 99.2572 106.793 100.554L122.114 107.632C124.408 108.664 126.695 109.711 128.976 110.773C130.037 111.264 131.143 111.708 132.168 112.267C131.108 113.369 128.814 115.516 128.166 116.754C127.662 117.716 127.389 118.908 127.076 119.947C128.395 120.453 129.689 121.044 130.991 121.595C132.264 122.134 133.559 122.636 134.813 123.219C134.242 123.784 130.973 127.222 130.745 127.666C130.236 128.655 130.048 129.974 129.743 131.051C131.782 131.671 133.829 132.357 135.905 132.84C134.267 132.926 132.597 132.876 130.955 132.874L122.468 132.863L95.5179 132.838L4.46484 133C6.02891 132.372 7.76366 131.951 9.37276 131.435L18.0365 128.59L23.4276 126.784C24.7507 126.331 26.0837 125.804 27.4586 125.537C27.5689 124.352 27.7699 123.163 27.9309 121.983C29.2095 121.632 30.4681 120.976 31.7144 120.502L39.6798 117.436C41.2354 116.841 42.7841 116.222 44.3703 115.712C44.8323 112.56 47.2071 110.282 48.2785 107.364C48.4068 107.015 48.5808 106.634 48.6567 106.27C48.8121 105.529 48.0987 105.19 47.7868 104.65C47.725 104.543 47.6832 104.407 47.7285 104.284C47.7341 104.268 50.452 100.963 50.867 100.332C52.0965 98.4638 53.155 96.2687 53.7412 94.1098C54.0855 92.8427 54.3129 91.5072 54.7476 90.2701L54.7782 90.1863C55.4091 89.6786 56.1162 89.3116 56.7098 88.7468C56.8502 87.872 57.2357 87.5299 57.851 86.9323C57.6768 86.6622 57.434 86.3472 57.3769 86.0272C57.2404 85.2635 58.7406 83.9144 59.2061 83.2221L59.2726 83.1216C59.0887 80.7982 60.3785 78.5188 60.9992 76.3296C61.4285 74.8157 61.6939 73.2536 61.9838 71.7082C62.2525 70.2754 62.595 68.7885 62.6053 67.3266C62.3911 67.2632 62.1662 67.1947 61.9644 67.0995C61.0812 66.6834 60.4215 64.1607 60.0922 63.2122C59.9268 63.3567 59.7205 63.5589 59.5031 63.6186C59.3409 63.6632 59.2282 63.603 59.1023 63.5072C57.6741 62.4214 56.7404 56.0475 56.4085 54.1422C56.1869 52.8698 55.917 51.6069 55.7699 50.3225C55.5298 50.1279 55.2726 49.9493 55.0242 49.7647C55.0969 49.1762 55.2885 48.6026 55.3323 48.0099C55.3697 47.5077 55.1849 46.9782 55.2802 46.4848C55.3906 45.913 55.6192 45.3664 55.7552 44.8007C56.0241 43.6829 56.1551 42.487 56.309 41.3477C56.4791 40.09 56.6533 38.8318 56.8049 37.5718C56.9258 36.5668 56.9905 35.523 57.2519 34.5433C57.6115 33.1937 59.0355 32.2995 60.1917 31.6337C60.4553 30.4486 60.5045 28.8706 60.9097 27.7766C61.3296 26.6438 63.2889 27.4974 63.9237 27.1971C63.9348 27.0514 63.9045 26.8886 63.8218 26.7631C63.6382 26.4851 62.7098 26.104 62.3893 25.9159C61.3349 25.2962 60.2261 24.3344 59.7223 23.1969C59.2361 22.0991 59.4342 20.9226 59.8765 19.8512C60.7093 17.8333 62.5158 16.0934 64.5213 15.2457C65.3685 14.807 66.7196 14.2005 67.6857 14.4726C67.8407 14.516 68.0082 14.5942 68.1268 14.705C68.341 14.9051 68.4302 15.2089 68.6488 15.4141C69.2453 15.9744 69.9554 16.3967 70.5028 17.0167C70.5572 17.2803 70.6116 17.5401 70.6402 17.8078L70.7249 17.8612C70.9977 18.0311 71.2608 18.1739 71.5754 18.2553C72.1875 18.414 73.1642 18.2465 73.4005 18.964C73.3504 19.2344 73.1136 19.609 73.1751 19.8556L73.2645 19.9828C73.5244 20.1109 73.5706 20.21 73.6871 20.4612C73.8319 20.7739 74.0717 21.0727 74.2757 21.3501C74.2912 21.48 74.3101 21.594 74.2957 21.7251C74.3133 22.1426 74.3872 22.658 74.2621 23.0606C73.992 23.9277 72.0518 24.4649 71.7534 25.5601C71.6869 25.8043 71.7481 26.0408 71.8685 26.2568C71.9891 26.4737 72.1704 26.63 72.4147 26.689C73.2719 26.8974 74.5037 25.8733 75.2035 25.4176C75.8889 23.1558 76.7175 21.083 78.1427 19.17C78.5035 18.6861 79.2077 18.2529 79.4558 17.7214C79.954 16.6535 80.3171 15.4902 80.7909 14.4029C81.5801 12.5931 82.4715 10.8306 83.2778 9.0293" fill="#161D36"/>
<path d="M90.7768 96.9133C90.8851 96.5052 90.8459 96.427 90.7232 96.038C90.6702 95.8705 90.6343 95.7788 90.7253 95.6201C91.061 95.6442 91.6093 96.0289 91.842 96.2745C91.9418 96.3797 92.0418 96.4746 92.1484 96.5725L92.262 96.6668C91.9624 96.6982 91.6405 96.6982 91.3986 96.5058C91.3421 96.4605 91.2873 96.4129 91.2326 96.3656L91.0775 96.363C90.9321 96.5428 90.7694 97.5918 90.6211 97.9844C90.6729 97.628 90.7179 97.2686 90.7768 96.9133Z" fill="#FEFEFE"/>
<path d="M68.6162 29.4922C69.5264 29.5565 71.7267 29.7843 72.5548 30.0984L72.5492 30.2151C72.4747 30.2553 72.3729 30.3191 72.2876 30.3382C71.785 30.4504 69.1179 29.7502 68.6162 29.4922Z" fill="#FEFEFE"/>
<path d="M81.3326 20.1902C81.1784 20.1186 81.2422 20.1382 81.0774 20.1018C81.0389 20.0933 81.0003 20.0862 80.9618 20.0783C80.7855 19.8658 80.7876 19.2493 80.7882 18.9564C80.7896 18.4392 80.8273 18.0231 81.2034 17.6426L81.2878 17.6637C81.3782 17.793 81.4194 17.9655 81.4724 18.1145C81.3576 18.8062 81.4059 19.4976 81.3326 20.1902Z" fill="#161D36"/>
<path d="M72.4678 27.4346C72.559 27.4369 72.5646 27.4346 72.6691 27.451C73.9965 27.6611 75.5615 28.3828 76.3613 29.4798C75.7816 29.304 75.4779 28.7111 74.9388 28.5004C74.2405 28.2274 73.4406 28.3385 72.7853 28.0499C72.5958 27.8686 72.5466 27.6799 72.4678 27.4346Z" fill="#FEFEFE"/>
<path d="M90.2171 95.4359C90.2351 95.3289 90.2151 95.3862 90.306 95.2666C90.3822 95.1664 90.4481 95.0683 90.512 94.9593L90.4531 94.8882C90.2836 94.9549 90.1279 95.013 89.947 95.0442C89.9255 94.9663 89.9143 94.9369 89.9069 94.8488C89.8928 94.6748 89.9067 94.5429 90.0138 94.4083C90.2724 94.403 90.497 94.6108 90.7 94.755L90.7403 94.7912C90.7133 94.8838 90.6535 94.9804 90.6991 95.073C90.9072 95.4938 91.9622 95.9957 92.4024 96.1156C92.5127 96.1455 92.471 96.1344 92.5828 96.2308L92.5201 96.3495C92.2879 96.3771 92.3023 96.3915 92.1484 96.5719C92.0419 96.4741 91.9419 96.3791 91.8421 96.274C91.609 96.0283 91.0611 95.6436 90.7253 95.6195C90.6344 95.7782 90.6703 95.8702 90.7233 96.0374C90.846 96.4265 90.8851 96.5046 90.7768 96.9128C90.6971 96.7576 90.7141 96.8337 90.7138 96.6536C90.7135 96.5184 90.7091 96.3924 90.6944 96.2572C90.5902 96.1041 90.5976 96.0389 90.4107 95.9927L90.2501 96.1708C90.1847 95.9539 90.2633 95.7588 90.2348 95.537C90.2304 95.5032 90.223 95.4697 90.2171 95.4359Z" fill="#161D36"/>
<path d="M93.1688 96.6722C93.2727 96.5309 93.3001 96.4883 93.4922 96.4745C93.8277 96.4507 94.0714 96.6719 94.4572 96.6205C94.5366 96.6096 94.617 96.6058 94.6967 96.599C94.5808 96.9778 93.9863 96.9346 93.9593 97.5044L94.1055 97.6354C93.6985 97.9563 93.2415 98.0983 92.7518 98.2384L92.7324 98.1943C92.8828 97.9557 93.4643 97.9481 93.7141 97.7189C93.856 97.5887 93.8645 97.5294 93.8751 97.3525C93.7062 97.3945 93.6208 97.4518 93.4931 97.5637C93.3581 97.6819 93.228 97.7833 93.0797 97.884L92.9681 97.8359L93.0532 97.8191C92.9493 97.5423 92.7471 97.2652 92.7919 96.9728C92.9302 96.8814 93.0458 96.7818 93.1688 96.6722Z" fill="#161D36"/>
<path d="M93.1692 96.6719C93.3251 96.7362 93.4805 96.8026 93.635 96.8708C93.688 97.0357 93.7097 97.0671 93.6159 97.229C93.5043 97.4212 93.2271 97.6757 93.0538 97.8185C92.9499 97.5417 92.7478 97.2646 92.7925 96.9722C92.9305 96.8811 93.0462 96.7815 93.1692 96.6719Z" fill="#FEFEFE"/>
<path d="M77.5017 55.1582C77.5577 55.182 77.5918 55.1935 77.6433 55.2323C77.9193 55.4403 78.0223 56.1705 78.0506 56.5026C78.1021 57.102 78.1147 57.8187 77.7083 58.2953L77.4979 58.452L77.417 58.4185C77.4635 57.3377 77.3884 56.2313 77.5017 55.1582Z" fill="#FEFEFE"/>
<path d="M81.4723 18.1143C82.1324 19.7592 81.4255 22.837 80.8223 24.4693C80.9314 23.0383 81.2693 21.6228 81.3325 20.19C81.4058 19.4974 81.3576 18.806 81.4723 18.1143Z" fill="#FEFEFE"/>
<path d="M76.1596 57.0664C76.154 57.1049 76.1534 57.1443 76.1425 57.1816C75.6708 58.8139 73.3242 59.969 71.957 60.7724C71.9697 60.2597 74.3769 58.7631 74.8436 58.3699C75.3182 57.9703 75.7382 57.5201 76.1596 57.0664Z" fill="#FEFEFE"/>
<path d="M75.792 59.3447L75.8391 59.3768C75.8232 59.4147 75.8144 59.457 75.7912 59.4911C75.0137 60.6362 71.7993 61.851 70.4919 62.3593L70.4551 62.3305L70.4618 62.2394C71.46 61.5295 72.6504 61.0617 73.7474 60.5207C74.456 60.1713 75.1252 59.7664 75.792 59.3447Z" fill="#FEFEFE"/>
<path d="M90.7407 94.792C91.6339 95.8219 93.6223 96.3814 94.9365 96.4596C95.2329 96.4772 95.536 96.4575 95.8323 96.4449C95.2061 96.8022 94.5378 97.067 93.9598 97.5045C93.9869 96.9347 94.5813 96.9779 94.6973 96.5992C94.6172 96.6059 94.5372 96.61 94.4577 96.6206C94.0719 96.672 93.8283 96.4508 93.4928 96.4746C93.3003 96.4881 93.2733 96.531 93.1694 96.6723C92.9961 96.7432 92.838 96.8072 92.6515 96.8375C92.5111 96.6788 92.5379 96.5568 92.5202 96.35L92.5829 96.2313C92.4711 96.1346 92.5129 96.146 92.4025 96.1161C91.9623 95.9962 90.9073 95.4946 90.6992 95.0735C90.6536 94.9809 90.7134 94.8843 90.7407 94.792Z" fill="#FEFEFE"/>
<path d="M80.159 55.1836C80.4741 55.463 80.5642 55.7072 80.6219 56.123C80.8123 57.4965 80.4939 58.5717 79.6637 59.661C79.6255 59.7109 79.5581 59.7612 79.5107 59.8038C79.3877 59.4497 80.0804 57.0695 80.1575 56.4686C80.2128 56.0393 80.1861 55.6141 80.159 55.1836Z" fill="#FEFEFE"/>
<path d="M68.3593 79.668C68.364 80.1981 66.6725 82.7566 66.277 83.2332C65.0075 84.7618 62.6536 85.2558 60.7705 85.4207L60.8129 85.3607C60.8853 85.354 60.958 85.3475 61.0301 85.3372C61.6368 85.2496 62.2463 85.0686 62.8348 84.8982C66.0492 83.9676 66.5283 82.1257 68.3593 79.668Z" fill="#FEFEFE"/>
<path d="M85.5805 96.731C86.4127 96.7134 88.9705 96.0851 89.5947 95.5459L89.5714 95.4877C89.3831 95.4916 89.2398 95.5171 89.0688 95.4275C89.2506 95.1433 89.4481 94.8718 89.647 94.5994C89.5596 94.6509 89.4775 94.7037 89.3943 94.7616L89.3033 94.8254C89.3486 94.6694 89.4028 94.5959 89.5311 94.4933C89.7138 94.3464 89.9696 94.1857 90.2135 94.2515C90.4716 94.3212 90.5922 94.5371 90.7005 94.7558C90.4975 94.6112 90.273 94.4037 90.0143 94.409C89.9075 94.5436 89.8936 94.6755 89.9075 94.8495C89.9145 94.9376 89.926 94.967 89.9475 95.0449C90.1285 95.0138 90.2841 94.9556 90.4536 94.8889L90.5125 94.96C90.4486 95.069 90.3827 95.1671 90.3065 95.2673C90.2156 95.3869 90.2353 95.3294 90.2176 95.4366C88.7719 96.2021 87.1313 96.8964 85.473 96.7701C85.1455 97.4119 84.9319 98.103 84.5938 98.7386C84.7115 97.8465 84.848 96.9176 85.0817 96.049C85.2676 96.2576 85.4204 96.5012 85.5805 96.731Z" fill="#FEFEFE"/>
<path d="M61.8276 27.7734L61.9109 27.7758C62.505 27.7961 63.0921 27.8722 63.6656 28.0297C64.1506 28.1628 68.1748 29.7502 68.3861 29.9744L68.3396 30.0784C68.0291 30.1601 66.041 29.2747 65.634 29.1066C64.3778 28.5383 63.3511 28.0858 61.968 27.9733C61.8229 28.8589 61.7749 30.0293 61.3123 30.8104L61.2232 30.8121C61.1552 30.6035 61.1511 30.4254 61.1616 30.2065C61.1934 29.521 61.3138 28.2471 61.8276 27.7734Z" fill="#FEFEFE"/>
<path d="M64.5492 21.5004C64.6902 21.9303 64.8185 22.134 65.1769 22.4084L65.1334 22.4901C64.7658 22.3288 64.6314 22.0864 64.4851 21.7264C64.3889 21.4895 64.2279 21.0643 64.3539 20.8275C64.4633 20.6215 64.6746 20.491 64.8962 20.4293C65.3379 20.3059 65.7929 20.5054 66.1628 20.7355C66.9535 21.2274 67.4696 21.9867 67.8236 22.8292C67.4617 22.4096 67.1097 21.9615 66.7145 21.5736C66.636 21.9165 66.5674 22.2644 66.4547 22.5979C65.7252 22.4728 65.5177 22.2118 64.948 21.7834C64.8312 21.6115 64.7338 21.5795 64.5492 21.5004Z" fill="#FEFEFE"/>
<path d="M65.2812 21.3574C65.5323 21.2819 65.7968 21.2443 66.0546 21.1973L66.2223 21.4829C66.1641 21.678 66.1229 21.8085 65.9796 21.9622L65.8418 21.9627C65.6644 21.7462 65.4996 21.5358 65.2812 21.3574Z" fill="#161D36"/>
<path d="M64.5484 21.501C64.5434 21.2806 64.5234 21.0887 64.6855 20.9136C64.8147 20.774 64.9504 20.7161 65.139 20.7079C65.5275 20.6908 65.8023 20.9403 66.0542 21.1977C65.7964 21.2447 65.5319 21.282 65.2809 21.3579L64.9889 21.3966C64.9057 21.5606 64.9333 21.6067 64.9472 21.7845C64.8303 21.612 64.7329 21.58 64.5484 21.501Z" fill="#161D36"/>
<path d="M64.0305 44.1973C64.5843 45.0289 64.9074 45.9466 64.8636 46.9503C64.7259 46.1099 64.5637 45.4711 64.1744 44.7144C63.9555 45.9178 63.5935 47.1111 63.2442 48.2829C63.411 49.0055 63.5102 49.7396 63.6759 50.4615C63.8857 51.3769 64.3239 52.2152 64.2589 53.1664C64.0358 54.1579 63.6983 55.1073 63.3428 56.057C63.2742 55.1819 63.2454 54.3063 63.3289 53.4303C63.4046 52.6352 63.5779 51.805 63.5414 51.0063C63.5032 50.1554 62.9217 49.3285 63.0138 48.4731C63.1709 47.0176 63.8951 45.6853 64.0305 44.1973Z" fill="#FEFEFE"/>
<path d="M71.5561 28.3763C71.8822 28.4945 72.4034 28.6396 72.5664 28.9626L72.5005 29.0845C71.7189 29.0034 70.907 28.5015 70.1057 28.3537C68.9389 28.1383 67.7594 27.962 66.5882 27.7687C66.017 27.6743 65.3979 27.6388 64.8576 27.4263C64.8894 27.2441 64.8637 27.1216 64.8202 26.9465C64.7961 26.8486 64.8258 26.8316 64.8664 26.7425C65.2478 26.5947 65.9102 26.7901 66.3195 26.8527C66.6294 26.9115 66.9499 26.9935 67.2627 27.0264C68.7249 27.3896 70.1433 27.8556 71.5561 28.3763Z" fill="#FEFEFE"/>
<path d="M91.7347 75.3242L91.7644 75.4047C90.884 76.3019 89.9582 77.4408 89.5185 78.6318C89.2042 79.4828 89.2481 80.5204 89.1127 81.4198C88.7455 83.8547 88.131 87.8002 87.1296 89.9929C86.8447 90.6161 86.4531 91.1401 86.0452 91.6857L86.0164 91.6705L86.0049 91.5573C87.3115 88.5842 87.9992 85.6069 88.6307 82.4254C88.9164 80.9873 89.0218 79.2671 89.5989 77.9251C90.0338 76.9134 90.8378 75.9578 91.7347 75.3242Z" fill="#FEFEFE"/>
<path d="M63.3737 67.8457C63.5244 67.9086 63.5541 67.9171 63.6568 68.052C63.6197 70.4495 61.5486 80.4501 60.1632 82.1297C60.0637 82.1441 60.1176 82.1503 60.0078 82.0818C60.0861 80.7463 60.7806 79.277 61.2182 78.0055C61.5348 77.094 61.8123 76.171 62.0507 75.2363C62.6698 72.79 62.9385 70.3196 63.3737 67.8457Z" fill="#FEFEFE"/>
<path d="M76.9814 66.3271C77.0594 66.346 77.0762 66.348 77.1627 66.3786C79.1932 67.0991 92.2725 73.1615 92.724 74.1676C91.7632 73.9046 90.7803 73.2638 89.8907 72.818C87.5686 71.6549 85.2523 70.4596 82.9108 69.3376C81.7646 68.787 80.6093 68.2563 79.4445 67.7459C78.7733 67.4482 77.6792 67.0903 77.1248 66.6557C76.9888 66.549 77.0038 66.4891 76.9814 66.3271Z" fill="#FEFEFE"/>
<path d="M95.8321 96.4443L96.1805 96.474C96.1828 96.506 96.1846 96.5384 96.1873 96.5707C96.1993 96.7053 96.1884 96.6527 96.2352 96.7746C96.6558 96.6703 97.0751 96.551 97.508 96.5113C97.6572 96.7373 97.8128 96.9486 97.8885 97.2119L97.8299 97.2583L97.7131 97.2336C97.5109 97.1928 97.2817 97.1472 97.076 97.1757C96.6251 97.2389 96.1337 97.4393 95.6952 97.5765C94.4078 97.98 93.1006 98.4754 91.7861 98.7693C90.9165 98.9635 89.984 98.9368 89.1002 99.0649C87.9811 99.2268 86.0757 99.7563 84.9966 100.121C85.7826 100.124 86.6751 99.786 87.4182 99.8859L87.4691 99.9464C87.2104 100.321 85.8414 100.479 85.38 100.561C85.1287 100.606 84.7597 100.67 84.5378 100.512C84.4548 100.453 84.4663 100.39 84.4463 100.297C84.5631 99.9884 84.6438 99.8741 84.9598 99.7372C86.0616 99.2594 88.9019 98.9097 90.2064 98.7449C90.998 98.645 92.0289 98.5906 92.7528 98.2383C93.2425 98.0981 93.6995 97.9562 94.1064 97.6353L93.9602 97.5042C94.5373 97.0661 95.2059 96.8017 95.8321 96.4443Z" fill="#FEFEFE"/>
<path d="M95.8324 96.4443L96.1809 96.474C96.1832 96.506 96.185 96.5384 96.1876 96.5707C96.1997 96.7053 96.1888 96.6527 96.2356 96.7746C95.5073 96.9927 94.7945 97.3132 94.1062 97.6353L93.96 97.5042C94.5376 97.0661 95.2062 96.8017 95.8324 96.4443Z" fill="#161D36"/>
<path d="M48.9442 108.648C49.1958 108.675 49.473 108.69 49.7108 108.78C49.9674 108.877 50.2944 109.113 50.556 109.151C50.8588 109.195 51.1216 108.943 51.4329 109.075C51.4529 109.128 51.4856 109.178 51.4932 109.235C51.5282 109.497 51.3817 109.95 51.3549 110.233C51.3055 110.749 51.4341 111.603 51.2481 112.062C51.2313 112.103 51.2054 112.141 51.1842 112.18L51.1274 112.12L51.0312 112.119C50.8973 112.223 50.8243 112.222 50.8055 112.399C50.7702 112.736 50.897 113.158 50.9294 113.502C49.8571 113.816 48.7727 114.112 47.7133 114.467C47.1536 114.654 46.5771 114.934 46.0056 115.069C45.829 115.11 45.7884 115.087 45.626 115.02C46.9196 113.694 48.778 113.473 50.5301 113.35C50.5757 113.182 50.5939 113.17 50.5257 113.014L50.4427 113.008C50.2446 112.99 50.0454 113.01 49.9383 112.81C49.81 112.57 49.9409 112.272 50.001 112.024C50.1213 111.455 50.254 110.887 50.3818 110.319C50.3829 110.315 50.3835 110.31 50.3859 110.306C50.4221 110.238 50.4703 110.166 50.498 110.094C50.5495 109.96 50.5545 109.866 50.6325 109.737C50.7013 109.622 50.7717 109.509 50.8391 109.393C50.6569 109.309 50.4647 109.268 50.2708 109.221C49.8323 109.021 49.39 108.831 48.9442 108.648Z" fill="#FEFEFE"/>
<path d="M51.0315 112.118C50.8282 111.852 50.724 111.651 50.7661 111.308C50.787 111.137 50.8346 111.027 50.9456 110.892L51.065 110.876C51.2213 111.122 51.1165 111.528 51.0603 111.798L51.163 112.038L51.128 112.119L51.0315 112.118Z" fill="#161D36"/>
<path d="M83.8065 10.8564C82.979 12.4872 81.9805 14.0743 81.2137 15.7272C80.8617 16.4857 80.8343 17.4054 80.4606 18.12C80.0145 18.9734 79.1867 19.5849 78.69 20.4124C77.5953 22.2363 76.7872 24.3188 75.9017 26.252L75.8614 26.2165C75.7705 25.8906 75.9665 25.3346 76.0577 25.0155C76.6 23.1155 77.3751 21.3768 78.5569 19.7803C79.0254 19.1473 79.7661 18.619 80.1057 17.9117C80.4694 17.1533 80.6292 16.2852 80.9815 15.508C82.1965 12.8258 83.6915 9.92664 84.7173 7.19531" fill="#FEFEFE"/>
<path d="M66.6141 26.4451C66.4034 26.3455 66.3054 26.3317 66.2333 26.0913C66.0329 25.424 65.8599 23.886 66.2142 23.2706L66.3581 23.1904C66.4784 23.2883 66.494 23.3747 66.5467 23.5151C66.9087 24.4772 67.8751 25.1927 68.7894 25.5921C69.6707 25.9767 70.6936 26.3199 71.6512 26.4304C71.8454 26.8923 72.3071 27.6946 72.1532 28.1776C71.9634 28.2582 71.8763 28.2035 71.6797 28.1562C71.6447 28.277 71.6597 28.2946 71.5564 28.3763C70.1436 27.8556 68.7252 27.3895 67.2633 27.026C66.9504 26.9931 66.63 26.9111 66.3201 26.8524C66.5505 26.706 66.5387 26.7093 66.6141 26.4451Z" fill="#FEFEFE"/>
<path d="M66.6133 26.4453C67.0803 26.5496 67.5388 26.6619 67.997 26.8006C67.7672 26.8646 67.4688 26.9122 67.2625 27.0265C66.9497 26.9936 66.6292 26.9117 66.3193 26.8529C66.5498 26.7063 66.538 26.7095 66.6133 26.4453Z" fill="#161D36"/>
<path d="M67.9972 26.8008L71.6792 28.1569C71.6442 28.2777 71.6592 28.2953 71.5559 28.377C70.1431 27.8563 68.7247 27.3902 67.2627 27.0268C67.469 26.9124 67.7674 26.8648 67.9972 26.8008Z" fill="#161D36"/>
<path d="M66.3657 23.7949C66.4443 23.8352 66.5167 23.8701 66.5758 23.9386C66.7751 24.1708 66.9372 24.5101 67.1088 24.7673C67.5502 25.4284 67.9928 25.9806 68.5584 26.5395L68.5216 26.6015C67.8718 26.3611 67.1644 26.2268 66.4928 26.0532C66.2533 25.332 66.0791 24.5243 66.3657 23.7949Z" fill="#161D36"/>
<path d="M46.8483 112.046C46.8007 112.033 46.8348 112.045 46.7592 111.983C46.9981 111.385 47.5455 109.624 47.943 109.26C48.1946 109.03 48.4495 109.183 48.7052 108.974C48.6793 108.892 48.6555 108.808 48.6275 108.727C48.5436 108.486 48.5007 108.346 48.5298 108.087C48.5325 108.063 48.5369 108.04 48.5384 108.016C48.5398 107.999 48.5384 107.981 48.5384 107.964L48.6552 108.047C48.6284 108.238 48.6122 108.41 48.6246 108.604C48.699 108.735 48.7641 108.827 48.8912 108.912C49.2022 109.122 49.7684 109.356 50.1392 109.259C50.1836 109.247 50.2272 109.233 50.271 109.22C50.465 109.268 50.6571 109.309 50.8393 109.393C50.7719 109.509 50.7016 109.621 50.6327 109.737C50.5547 109.866 50.5497 109.96 50.4982 110.094C50.4706 110.166 50.4223 110.238 50.3861 110.306C50.3837 110.31 50.3835 110.314 50.382 110.319C50.2543 110.887 50.1216 111.455 50.0012 112.024C49.9412 112.271 49.8102 112.57 49.9385 112.809C50.0459 113.01 50.2449 112.99 50.4429 113.007L50.5259 113.014C50.5942 113.17 50.5762 113.182 50.5303 113.35C48.7782 113.472 46.9198 113.694 45.6262 115.02L45.5303 114.999L45.5429 114.851C45.9782 114.379 46.2159 113.71 46.6921 113.286C46.9422 113.063 47.3177 113.034 47.5561 112.814C47.5796 112.792 47.602 112.769 47.6249 112.747C47.0343 112.846 46.7742 113.06 46.3204 113.435L46.2186 113.442C45.9767 113.609 45.7457 114.054 45.5715 114.302C45.8843 113.459 46.4684 112.842 46.8483 112.046Z" fill="#161D36"/>
<path d="M47.9764 112.215C48.1097 112.318 48.1979 112.345 48.2421 112.514C48.0997 112.621 47.9717 112.635 47.8033 112.672C47.6909 112.697 47.7345 112.684 47.6241 112.747C47.0335 112.847 46.7734 113.06 46.3196 113.435L46.2178 113.443C46.3793 113.185 46.6009 112.949 46.794 112.714C47.1515 112.655 47.6091 112.342 47.9764 112.215Z" fill="#161D36"/>
<path d="M46.8481 112.045C47.3002 111.35 47.4582 109.948 48.0559 109.426L48.1438 109.45L48.0823 109.76C47.957 110.233 47.8419 110.712 47.6962 111.179C47.1621 111.532 47.0023 112.143 46.7946 112.714C46.6013 112.949 46.3797 113.184 46.2184 113.442C45.9765 113.609 45.7455 114.054 45.5713 114.302C45.8841 113.459 46.4682 112.841 46.8481 112.045Z" fill="#FEFEFE"/>
<path d="M73.1084 28.7959C73.5678 28.9931 73.9662 29.197 74.3673 29.5003C75.0168 29.4365 76.0767 29.6733 76.6011 30.0885C76.6732 30.1455 76.7371 30.204 76.7854 30.2828L76.7648 30.363C76.1903 30.2845 74.9211 29.4121 74.4312 29.6328C74.5839 30.2225 75.7557 31.1514 76.2227 31.5143L76.2701 31.3777L76.4643 31.5596L76.5744 31.4978C76.4113 31.3371 76.2542 31.172 76.0968 31.0059L76.1132 30.8749L75.9982 30.683C76.1709 30.6172 76.2674 30.656 76.4313 30.7271C77.238 31.0768 77.9074 32.2116 78.3321 32.9459C78.8906 33.9121 79.2761 34.9944 79.7146 36.0202C80.4714 37.7912 81.271 39.6454 82.1882 41.3415C84.2352 45.1266 87.4922 48.701 88.8924 52.7602C89.0649 53.2606 89.3329 54.0666 89.1069 54.5721C89.0054 54.7998 88.823 54.9764 88.5728 55.0284C88.5043 55.0425 88.4595 55.0293 88.3954 55.0175C88.353 54.972 88.295 54.9376 88.268 54.8818C88.0749 54.4833 88.072 53.7516 87.9807 53.3026C87.8566 52.6767 87.6812 52.0649 87.4552 51.4678C86.2613 48.2902 83.9963 45.6279 82.358 42.6856C81.9102 41.881 81.6153 40.9971 81.2636 40.1476C80.8717 39.2193 80.4347 38.3128 79.9523 37.428C79.1546 35.9867 78.0213 34.7892 76.9937 33.5142C76.208 32.5392 75.4817 31.5243 74.6757 30.5628C74.1987 29.9933 73.4721 29.4283 73.1084 28.7959Z" fill="#FEFEFE"/>
<path d="M76.2226 31.5144L76.27 31.3778L76.4642 31.5597L76.5743 31.498C76.4113 31.3372 76.2541 31.1721 76.0967 31.0061L76.1132 30.875C76.9209 31.5129 77.6878 32.4024 78.0957 33.3524C77.6169 32.924 76.5711 32.0072 76.2226 31.5144Z" fill="#161D36"/>
<path d="M79.7466 45.4346C80.3272 46.8171 80.4764 48.1727 80.8251 49.6061C81.0997 50.7356 81.5352 51.8678 81.5914 53.0373C81.6102 53.4308 81.5264 53.7361 81.3916 54.1014C80.6118 54.3041 79.839 54.3782 79.0353 54.4123L78.9847 54.372L79.2496 54.0708L79.1063 54.0452C79.0339 54.1114 78.9638 54.1769 78.8965 54.2486C78.8788 54.2674 78.8614 54.2865 78.8441 54.3056L78.6946 54.3C78.7882 54.208 78.8838 54.1181 78.9812 54.0305L78.907 53.9098C78.7266 54.0214 78.5521 54.2559 78.4038 54.4108C77.7706 54.4619 75.0576 54.7613 74.7236 54.6382L74.7519 54.5692C75.216 54.5225 75.6859 54.4687 76.1285 54.3132C77.0902 53.975 77.8041 53.0893 78.2373 52.1963L78.2691 52.1296C77.9568 52.3794 77.5284 52.8443 77.1205 52.8851L77.0484 52.8169C77.1638 52.6659 77.275 52.511 77.4059 52.3735L77.2723 52.2445C77.3109 52.164 77.3468 52.0832 77.3839 52.0024C77.6887 51.3368 77.8032 50.6087 77.9942 49.9052C78.2199 49.0751 78.4977 48.2535 78.7461 47.4289L78.8373 47.4689C78.8388 47.6188 78.8085 47.6952 78.759 47.8327C78.6646 48.0957 78.6504 48.3989 78.566 48.671C78.4124 49.1668 78.144 49.6425 78.0195 50.1441C77.9851 50.2822 77.9636 50.3468 78.0183 50.4811L78.0684 50.3671C78.2064 50.0568 78.3688 49.84 78.4494 49.5014C78.5218 49.1973 78.895 47.9393 79.0939 47.7874L79.1413 47.8071C79.4612 47.0795 79.633 46.2174 79.7466 45.4346Z" fill="#FEFEFE"/>
<path d="M78.9081 53.9096C79.7397 52.5905 80.27 51.0646 80.6261 49.5527C80.5357 50.8565 80.3388 53.081 79.3012 54.0304C79.2853 54.0451 79.2671 54.0571 79.2503 54.0707L79.107 54.0451C79.0346 54.1112 78.9646 54.1767 78.8972 54.2484C78.8795 54.2673 78.8622 54.2864 78.8448 54.3055L78.6953 54.2999C78.7889 54.2079 78.8845 54.118 78.9819 54.0304L78.9081 53.9096Z" fill="#161D36"/>
<path d="M78.7472 47.4297L78.8384 47.4697C78.8399 47.6195 78.8096 47.6959 78.7601 47.8334C78.6657 48.0964 78.6515 48.3997 78.5671 48.6718C78.4135 49.1675 78.1451 49.6433 78.0206 50.1449C77.9862 50.283 77.9647 50.3476 78.0194 50.4819L78.0695 50.3679C78.2075 50.0576 78.3699 49.8407 78.4505 49.5022C78.5229 49.1981 78.8961 47.9401 79.095 47.7882L79.1424 47.8079C79.1353 47.8376 79.1285 47.8675 79.1209 47.8972C78.9882 48.4229 78.0153 50.809 78.1242 51.0796C78.6262 50.8151 79.0997 50.0779 79.4546 49.6303C79.14 50.5298 78.7607 51.1977 78.0509 51.8492C77.8343 52.0208 77.6101 52.1868 77.407 52.374L77.2734 52.245C77.312 52.1645 77.3479 52.0837 77.385 52.0029C77.6898 51.3373 77.8043 50.6091 77.9953 49.9057C78.221 49.0755 78.4988 48.2539 78.7472 47.4297Z" fill="#161D36"/>
<path d="M64.0298 60.7266C64.6422 60.9831 65.3114 61.1612 65.8896 61.4847C66.5462 61.8517 67.0685 62.4382 67.2483 63.1799C67.3416 63.5651 67.3469 64.0738 67.1079 64.4094C67.0323 64.516 67.0026 64.4928 66.8849 64.5122C66.5064 64.2657 66.3296 63.5784 65.9408 63.2413C66.0718 63.6627 66.2083 64.0861 66.2551 64.5269C66.2937 64.8881 66.2754 65.2436 66.0362 65.533C65.9244 65.5657 65.9294 65.5906 65.8402 65.5489C65.4356 65.3603 65.2431 64.6647 65.1254 64.2751C65.1145 64.7432 65.1792 65.4855 65.0456 65.9198C64.9992 66.0705 64.885 66.0931 64.7555 66.1607C64.4009 66.1734 64.1293 66.0064 63.8103 65.8701C63.6414 65.9083 63.6252 65.9001 63.5181 66.0326L63.5675 66.3344L63.4869 66.4405C63.3912 66.4599 63.2797 66.4895 63.1802 66.4907C62.9887 66.4925 62.916 66.441 62.7903 66.3079L62.813 66.1284L62.642 66.1731C62.6747 66.3106 62.6767 66.3461 62.6567 66.4781L62.5358 66.5166C62.2703 66.4125 62.0841 66.26 61.8645 66.0808C61.5082 65.0508 61.14 64.0233 60.834 62.9769C61.7121 61.9014 62.7627 61.2426 64.0298 60.7266Z" fill="#FEFEFE"/>
<path d="M63.3164 61.71C63.081 62.099 62.893 62.4798 62.7217 62.9006C62.7014 63.0238 62.6793 63.1463 62.6552 63.2688C62.5734 63.1801 62.5937 63.1419 62.5837 63.0255C62.5278 63.0861 62.4816 63.1389 62.4365 63.208L62.4265 63.2095C62.3353 63.1448 62.2482 63.136 62.1393 63.1131C62.1128 63.1075 62.0861 63.1025 62.0596 63.0972C62.3662 62.546 62.8574 62.131 63.3164 61.71Z" fill="#161D36"/>
<path d="M62.4271 63.2092L62.4371 63.2078C62.4821 63.1384 62.5283 63.0858 62.5842 63.0253C62.5939 63.1419 62.5736 63.1801 62.6557 63.2686C62.6798 63.146 62.7019 63.0235 62.7222 62.9004L62.7302 63.0021C62.799 63.7861 63.0294 64.342 63.6527 64.8507C63.8884 65.0428 64.1406 65.2147 64.3913 65.3866L64.3643 65.4469C63.9644 65.4789 63.5262 65.4745 63.2019 65.2024C62.7681 64.8389 62.4509 63.8439 62.4262 63.2862C62.425 63.2606 62.4268 63.2348 62.4271 63.2092Z" fill="#161D36"/>
<path d="M61.2803 63.5684C61.3327 63.43 61.3844 63.2883 61.4501 63.1558C61.5334 62.988 61.6207 62.8514 61.8014 62.7832C61.7423 62.9307 61.6834 63.0765 61.634 63.2278C61.6672 63.2322 61.8432 63.2504 61.8688 63.2742C61.9233 63.3251 62.1163 64.8816 62.6439 65.4625C62.8287 65.6659 62.9691 65.784 62.983 66.0684L62.8129 66.1287L62.6419 66.1733C61.8429 65.5195 61.5616 64.5201 61.2803 63.5684Z" fill="#161D36"/>
<path d="M64.5225 15.2452C65.3697 14.8065 66.7207 14.1999 67.6868 14.472C67.8419 14.5155 68.0093 14.5937 68.1279 14.7045C68.3421 14.9046 68.4313 15.2084 68.65 15.4135C69.2465 15.9739 69.9565 16.3962 70.5039 17.0162C70.5583 17.2798 70.6128 17.5395 70.6413 17.8072L70.7261 17.8607C70.9989 18.0306 71.2619 18.1734 71.5765 18.2548C72.1886 18.4134 73.1653 18.246 73.4016 18.9635C73.3516 19.2339 73.1147 19.6085 73.1762 19.8551L73.2657 19.9823C73.5255 20.1104 73.5717 20.2095 73.6882 20.4607C73.833 20.7734 74.0729 21.0722 74.2768 21.3496C74.2924 21.4795 74.3112 21.5935 74.2968 21.7245L74.2833 21.7851C74.2282 22.0434 74.2126 22.2946 74.2012 22.5579C74.0428 22.5106 74.0696 22.5082 73.9813 22.3839L73.9375 22.4174C73.8707 22.5438 73.8168 22.6272 73.7059 22.7219C72.8707 23.4359 70.5777 23.5197 69.544 23.3639C68.5517 23.2144 68.1126 22.3234 67.582 21.5741C68.1203 21.7122 68.8727 21.85 69.4159 21.7069C69.0664 21.2682 67.4302 20.9652 66.8255 20.5603C66.5018 20.0035 67.2942 18.7517 67.4496 18.1381C67.4573 18.1078 67.4637 18.0776 67.4711 18.0473C67.2878 17.3956 66.8805 17.0047 66.4017 16.5587C66.9761 16.3177 67.4705 16.0156 67.9905 15.6759L67.9293 15.6577L67.9502 15.6304C68.1173 15.6325 68.3842 15.6078 68.5325 15.688C69.1529 16.0239 69.5952 16.6818 70.2546 16.9845C70.2408 16.9642 70.2282 16.9427 70.2131 16.9233C69.8871 16.5075 69.3056 16.1549 68.9107 15.7835C67.3148 14.2828 67.5026 14.2017 65.3529 15.0392C65.058 15.1544 64.8423 15.2957 64.5225 15.2452Z" fill="#FEFEFE"/>
<path d="M68.8653 17.9268C68.9544 18.111 68.9697 18.2585 68.9847 18.4577C68.9603 18.5582 68.9365 18.659 68.9071 18.7581C68.8491 18.9543 68.7779 19.148 68.5954 19.247L68.523 19.1368C68.4957 18.6435 68.6304 18.3543 68.8653 17.9268Z" fill="#161D36"/>
<path d="M70.5411 18.7189C70.5499 18.8999 70.5408 19.0486 70.5064 19.2264C70.4669 19.2484 70.4296 19.2752 70.3881 19.2928C70.2527 19.3495 70.0582 19.3718 69.9325 19.3057L70.0046 18.9793C69.7045 18.8508 69.4017 19.2431 69.0685 19.1917C69.0638 19.1732 69.0565 19.155 69.0544 19.1359C69.0394 18.9863 69.1274 18.7853 69.2254 18.6745C69.4946 18.3704 69.8725 18.3898 70.2439 18.373C70.3342 18.5009 70.4066 18.6352 70.5411 18.7189Z" fill="#161D36"/>
<path d="M73.266 19.9836C73.5258 20.1117 73.572 20.2107 73.6886 20.462C73.8334 20.7746 74.0732 21.0735 74.2771 21.3509C74.2927 21.4808 74.3116 21.5948 74.2971 21.7258L74.2836 21.7864C74.2286 22.0447 74.213 22.2959 74.2015 22.5592C74.0432 22.5119 74.07 22.5095 73.9817 22.3852L73.9378 22.4187C73.8554 22.0861 73.9484 21.7517 73.8095 21.4261C73.6533 21.2639 73.5182 21.2372 73.3078 21.1869L73.2257 21.1681C73.2083 21.0479 73.2051 21.0929 73.2233 20.9786C73.2274 20.9527 73.2327 20.9271 73.2375 20.9016L73.1618 20.8825C73.0579 20.9559 72.9549 21.0306 72.8525 21.1061L72.8652 20.908C73.0235 20.7414 73.1595 20.7411 73.3796 20.6859C73.3764 20.5052 73.2289 20.3976 73.1147 20.2613L73.0441 19.9824L73.266 19.9836Z" fill="#161D36"/>
<path d="M64.5225 15.2452C65.3697 14.8065 66.7207 14.1999 67.6868 14.472C67.8419 14.5155 68.0093 14.5937 68.1279 14.7045C68.3421 14.9046 68.4313 15.2084 68.65 15.4135C69.2465 15.9739 69.9565 16.3962 70.5039 17.0162C70.5583 17.2798 70.6128 17.5395 70.6413 17.8072L70.7261 17.8607C70.9989 18.0306 71.2619 18.1734 71.5765 18.2548C72.1886 18.4134 73.1653 18.246 73.4016 18.9635C73.3516 19.2339 73.1147 19.6085 73.1762 19.8551L73.2657 19.9823L73.0441 19.9817C72.7527 19.8657 72.0868 20.1351 71.7713 20.223C71.9096 20.3996 72.0462 20.6067 72.2186 20.749L72.1639 21.0314L72.0621 21.0519C71.864 20.8386 71.515 20.4187 71.4668 20.1313C71.8652 20.0643 72.2439 19.8319 72.5656 19.5927C72.6809 19.5069 72.6842 19.5336 72.7065 19.3852C72.6842 19.3646 72.663 19.3429 72.6394 19.3232C72.3149 19.0479 70.9541 18.6691 70.541 18.7185C70.4065 18.6347 70.3341 18.5004 70.2432 18.3729C70.1549 18.2792 70.2081 18.303 70.0713 18.2983C69.7773 18.2883 69.2279 18.2956 68.9845 18.4575C68.9698 18.2583 68.9542 18.1108 68.8651 17.9265C69.0917 17.5375 69.7547 17.3606 70.1596 17.1925C69.5622 16.6742 68.7768 15.8085 67.9902 15.6757L67.929 15.6574L67.9499 15.6301C68.117 15.6322 68.3839 15.6075 68.5322 15.6877C69.1526 16.0236 69.5949 16.6815 70.2543 16.9842C70.2405 16.9639 70.2279 16.9424 70.2128 16.923C69.8868 16.5072 69.3053 16.1546 68.9104 15.7832C67.3145 14.2825 67.5023 14.2014 65.3526 15.0389C65.058 15.1544 64.8423 15.2957 64.5225 15.2452Z" fill="#161D36"/>
<path d="M96.5002 98.9234L96.5725 98.9199L96.6426 99.0298C96.5558 99.1291 96.4663 99.2267 96.3801 99.3269C96.2921 99.4274 96.1985 99.522 96.0993 99.6116C96.0002 99.701 95.896 99.7844 95.7868 99.8614C95.6777 99.9387 95.5647 100.009 95.4472 100.073C95.3298 100.137 95.2092 100.193 95.0853 100.243C94.537 100.462 93.945 100.622 93.3864 100.822C90.8571 101.729 88.3102 102.537 85.7629 103.388L68.2362 109.29C55.0006 113.924 41.8007 118.656 28.636 123.487L28.5836 123.502L28.5156 123.455C28.8146 123.096 31.5284 122.214 32.1602 121.963C51.2436 114.553 70.473 107.542 89.8484 100.93C92.0339 100.182 94.2987 99.6463 96.5002 98.9234Z" fill="#FEFEFE"/>
<path d="M84.3289 119.19L84.3624 119.223C84.268 119.615 83.3416 120.659 83.055 121.032C79.4916 121.997 75.8776 122.757 72.2821 123.589C67.333 124.787 62.3766 125.954 57.4127 127.09C50.477 128.715 43.6201 130.597 36.6463 132.077L36.5898 132.052C37.8891 131.558 39.2392 131.219 40.5696 130.817C43.076 130.04 45.5932 129.301 48.1222 128.601C54.5709 126.778 61.0261 124.89 67.5325 123.28L77.7586 120.789C79.9477 120.269 82.1686 119.82 84.3289 119.19Z" fill="#FEFEFE"/>
<path d="M89.2122 9.03613C88.4841 11.7272 87.7225 14.7327 86.8138 17.3485C85.1682 22.0863 82.0174 28.4361 78.8369 32.3396C78.5468 31.9764 77.6943 31.0913 77.6689 30.6561C78.0024 30.7977 78.2042 31.093 78.4282 31.3657C79.8616 29.1551 84.3649 21.349 84.7289 19.0852C84.7248 19.072 84.7209 19.0587 84.7165 19.0458C84.5818 18.6482 85.0117 18.2501 84.9393 17.8566C84.9343 17.8302 84.9219 17.8055 84.9131 17.7802L84.9208 17.7629L84.8254 17.8216L84.7766 17.8028C84.5556 18.094 84.4979 18.6521 84.3572 19.0059L84.2648 18.9283C83.7504 19.9203 83.4335 21.0193 82.9894 22.0443C83.3635 19.8327 83.4612 17.5293 84.0685 15.3671C84.4384 14.0501 84.8407 12.7245 85.3083 11.4381" fill="#FEFEFE"/>
<path d="M87.2124 8.80859C87.1989 9.63167 85.1163 18.0981 84.7287 19.0848C84.7246 19.0716 84.7208 19.0584 84.7164 19.0454C84.5816 18.6478 85.0115 18.2497 84.9391 17.8562C84.9341 17.8298 84.9218 17.8051 84.9129 17.7798L84.9206 17.7625L84.8252 17.8212L84.7764 17.8024C84.5554 18.0936 84.4977 18.6517 84.3571 19.0055L84.2646 18.9279C84.6313 17.5765 85.1325 16.2471 85.5186 14.896C85.9217 13.4805 86.3146 12.0621 86.6974 10.641" fill="#161D36"/>
<path d="M87.7919 114.92C87.8893 115.193 87.6221 115.792 87.5365 116.072C85.3291 116.595 83.1427 117.229 80.9521 117.82L71.4497 120.331L42.1582 127.966L29.5402 131.29C27.9691 131.713 26.3889 132.099 24.7995 132.448C24.1877 132.581 23.5406 132.772 22.9141 132.796L22.9347 132.733C23.9196 132.206 26.8732 131.502 28.0759 131.155C31.9936 129.993 35.9222 128.87 39.8622 127.785C49.7672 125.022 59.6902 122.324 69.6311 119.693L82.3267 116.311C84.145 115.842 85.9598 115.328 87.7919 114.92Z" fill="#FEFEFE"/>
<path d="M90.6075 108.056L90.659 108.104C90.6222 108.527 90.1431 109.176 89.9307 109.56C86.1748 110.835 82.3622 111.905 78.5555 113.015L59.2661 118.599C43.6354 123.284 27.9747 127.866 12.2836 132.346L12.2324 132.331C12.5126 132.015 17.884 130.355 18.7574 130.064C22.61 128.778 26.4306 127.422 30.3032 126.192C43.5268 122.127 56.7759 118.148 70.0506 114.254L84.2067 110.081L88.0629 108.915C88.9128 108.656 89.8 108.427 90.6075 108.056Z" fill="#FEFEFE"/>
<path d="M63.8323 31.3706C65.6447 31.0567 66.8153 30.7138 68.7193 30.8405C71.4866 33.4143 72.6811 38.7068 73.0831 42.3752C73.2726 44.1045 73.2873 45.8568 73.4327 47.5913C73.6601 50.3021 73.9762 52.9894 74.0739 55.7113C74.0948 56.2831 74.1051 56.8549 74.1045 57.4271C73.0919 57.5769 72.0787 57.7236 71.0541 57.7538C71.1568 57.1423 71.1747 56.5864 71.1541 55.9678C70.919 56.6369 70.7836 57.0603 70.1068 57.3903C68.8599 57.9983 65.9649 58.5034 64.5644 58.5334L64.4997 58.4682L64.4694 58.5314L64.4111 58.4935L64.5264 58.4561L64.5562 58.5319L64.6286 58.4323C66.6405 58.1029 69.4532 58.1106 70.7448 56.3166C72.157 54.3555 72.3586 50.3341 72.0637 47.9687C71.7847 51.3097 69.6704 54.7504 67.1425 56.8952C66.8168 57.1717 66.4648 57.4121 66.1114 57.6507C68.9494 54.6252 72.0849 50.8954 71.9157 46.4835C71.8954 45.9528 71.8171 45.4504 71.6862 44.9367C71.5011 46.3128 71.0396 47.4612 70.3955 48.6851C70.5941 47.9102 70.8033 47.1382 71.0237 46.3692L70.9013 46.0871L70.8242 46.0589C70.7615 46.1629 70.7186 46.2508 70.6727 46.3616C70.6218 46.3807 70.5588 46.4127 70.5049 46.4183C70.1545 46.8229 69.8817 47.4864 69.6 47.9584C69.2872 48.4932 68.9485 49.0112 68.5842 49.5122C68.2199 50.0133 67.8314 50.4952 67.4189 50.9577C67.7744 50.2266 68.2396 49.5313 68.6278 48.8138C69.5512 47.1074 70.6694 44.5729 70.6062 42.6247C70.5794 41.804 70.3675 40.9938 70.1901 40.1955C69.8708 41.1046 69.5394 42.0091 69.0692 42.8533C68.6039 43.6884 68.0351 44.4542 67.589 45.3037C67.9998 42.7519 69.0112 40.5158 68.2626 37.8981C67.5566 38.7574 66.8206 39.5939 66.0958 40.4376C66.2341 39.7124 66.3436 38.9698 66.3371 38.2302C66.3312 37.6055 66.1923 36.3745 65.7394 35.9294C65.7218 35.9361 65.7035 35.9411 65.6868 35.9496C64.9502 36.331 64.4482 38.3709 64.1927 39.1114C64.1801 39.0732 64.1677 39.035 64.1542 38.9974C63.515 37.1762 62.3535 34.9297 60.7765 33.7425C60.4122 33.4684 59.9878 33.2791 59.5791 33.0811C59.8801 32.8319 60.2068 32.6197 60.5311 32.4026C61.3392 32.5903 62.1587 32.8104 62.9365 33.0996C67.0961 34.6473 69.3016 37.2149 71.0546 41.1819C71.426 42.022 71.6926 42.908 72.0764 43.7419L72.1208 43.7205L72.205 43.7546C72.2568 43.8968 72.3082 44.0343 72.3365 44.1839C72.3421 44.2124 72.3456 44.2412 72.35 44.27L72.5104 44.1001C72.589 43.7725 72.3862 43.3887 72.355 43.0508L72.4648 43.0117C71.6497 38.7283 70.5114 35.4427 66.7173 32.8666C65.8071 32.2486 64.8422 31.7972 63.8323 31.3706Z" fill="#FEFEFE"/>
<path d="M71.424 44.083C71.6777 44.8209 71.241 45.6551 71.0247 46.37L70.9022 46.0879L70.8252 46.0597C70.7625 46.1638 70.7195 46.2516 70.6736 46.3624C70.6227 46.3815 70.5597 46.4135 70.5059 46.4191C70.8216 45.6445 71.1277 44.8658 71.424 44.083Z" fill="#161D36"/>
<path d="M72.0771 43.7429L72.1216 43.7215L72.2057 43.7555C72.2575 43.8978 72.309 44.0353 72.3373 44.1849C72.3429 44.2134 72.3464 44.2422 72.3508 44.271L72.5112 44.1011C72.5898 43.7735 72.387 43.3897 72.3558 43.0518L72.4656 43.0127C72.8228 44.3241 72.9217 45.608 72.8732 46.9614C72.5757 45.8983 72.3679 44.8099 72.0771 43.7429Z" fill="#161D36"/>
<path d="M72.2218 31.154C72.4628 30.8248 72.6779 30.469 72.9013 30.127C73.9407 30.9624 77.4349 35.5303 78.208 36.7488C79.5572 38.876 79.7276 41.9288 79.3818 44.3601C79.2359 45.3874 78.9713 46.415 78.7477 47.4288C78.4993 48.253 78.2215 49.0746 77.9958 49.9051C77.8048 50.6085 77.6903 51.3367 77.3855 52.0023C77.3484 52.0831 77.3128 52.1639 77.2739 52.2444C76.585 53.0528 75.7305 53.5174 74.7605 53.9152C74.6343 52.8524 74.5922 51.7813 74.4736 50.7167C74.2414 48.6374 73.9489 46.5684 73.8877 44.4747C75.2982 43.051 76.0103 41.1639 76.5479 39.2707C75.6372 40.8251 74.8771 42.2168 73.81 43.6987C73.6749 41.8177 73.4163 40.0185 73.009 38.1772C73.4554 37.8202 73.8898 37.4165 74.247 36.9698C75.146 35.847 74.9833 34.8312 74.837 33.515C74.3944 35.4421 74.0855 36.1632 72.9384 37.7841C72.2409 35.103 71.3337 32.2944 69.2646 30.3312C70.2443 30.6438 71.2207 30.9183 72.2218 31.154Z" fill="#FEFEFE"/>
<path d="M81.0359 56.4639C81.625 56.9502 82.2012 57.4621 82.8307 57.8961C83.7061 58.4997 84.6443 59.0074 85.5162 59.6189C88.8047 61.9397 92.0591 64.307 95.2797 66.721C96.9291 67.9507 98.6988 69.1097 100.205 70.5149C100.488 70.7784 100.73 71.0973 100.924 71.4314C101.27 72.0297 101.201 72.5971 101.016 73.2412C100.517 74.9746 99.2341 77.2564 98.4599 78.9533C97.2248 81.6612 96.1436 84.4492 95.0896 87.2311C94.5092 88.7626 93.8295 90.3726 93.4181 91.9585L93.3972 92.0428C92.256 92.3426 91.8316 92.8683 90.892 93.2003C90.3258 93.4001 89.6758 93.4013 89.0861 93.5247C87.3937 93.8797 85.8752 94.5902 84.4592 95.5629C84.7682 94.7081 85.0415 93.6123 85.5842 92.8871C86.3946 92.4892 87.1839 92.0578 88.0743 91.8706C86.5788 92.6987 85.8281 93.1113 85.1431 94.7551C85.9965 94.3716 86.8531 93.9802 87.7359 93.6681C88.451 93.4154 89.1923 93.2373 89.9041 92.9785C90.7484 92.6711 91.4076 91.8662 91.8643 91.1087C92.1736 90.5956 92.1297 90.0132 92.3469 89.4714C92.8578 88.1967 93.456 86.9354 94.0587 85.7013C94.8191 84.1351 95.619 82.5891 96.4585 81.0638C97.2519 79.65 98.11 78.271 98.8669 76.8373C99.4601 75.7133 99.9633 74.5476 100.506 73.3993C99.5749 74.3223 98.8745 75.475 98.0123 76.4615C95.9688 78.7988 93.2083 81.2991 90.6307 83.0499C91.0709 82.5489 91.6289 82.1225 92.1321 81.685C94.5325 79.6036 98.1241 75.5623 99.8094 72.8554C99.0078 73.0611 98.2212 73.5206 97.4449 73.8254C95.9612 74.4022 94.4522 74.9023 92.9178 75.3266C94.0387 74.7084 97.8893 72.8786 98.233 71.8786C98.1956 71.8501 98.1638 71.8119 98.1209 71.7931C98.0385 71.7573 97.5838 71.8319 97.4705 71.8386C96.9703 71.8689 96.5818 71.826 96.0948 71.7223C94.3144 71.3435 92.5547 70.8616 90.7978 70.3882C89.574 70.0582 88.3189 69.7564 87.125 69.3312C88.2197 69.3838 89.34 69.6307 90.4229 69.8014C91.4997 69.9709 92.5832 70.0908 93.6597 70.2592C94.6328 70.4114 95.6013 70.6206 96.5904 70.5968C94.5752 69.5131 92.2616 68.8949 90.0728 68.264C87.3878 67.4903 84.7761 66.7627 82.0102 66.3284C84.0528 66.0807 86.1245 66.0686 88.1797 66.0472C89.1364 66.0372 90.9053 66.1621 91.7601 65.9358L91.7831 65.8406C91.2978 65.4748 90.3514 65.3563 89.7605 65.2129C88.0217 64.791 86.2872 64.3596 84.5024 64.1742C82.4705 63.9632 80.4208 63.9767 78.3877 63.7919C79.2252 63.5677 80.0904 63.4254 80.9346 63.2215C82.8795 62.7522 84.9912 62.1513 86.8204 61.3479C85.1001 61.3312 81.9976 61.6991 80.3849 62.3109C80.0865 62.424 79.812 62.6094 79.5433 62.7796C80.1866 62.1322 80.9323 61.5836 81.5968 60.9562C82.0853 60.4952 82.499 59.9627 82.9169 59.4385C81.856 59.8951 80.9361 60.6783 80.0821 61.4452C79.7443 61.7487 79.4135 62.1011 79.0254 62.3373L78.9395 62.2865C78.8568 61.5598 80.7701 59.8749 81.2372 59.3786C81.552 59.0442 81.8331 58.6742 82.1138 58.311C81.6 58.5546 81.1748 58.854 80.7325 59.2064C81.1071 58.2663 81.0621 57.4471 81.0359 56.4639Z" fill="#FEFEFE"/>
<path d="M79.2201 58.332L79.2872 58.4528C79.1633 58.9579 78.985 59.4428 78.8582 59.9435C78.7178 60.498 78.6275 61.0816 78.4335 61.6205C78.0566 62.6675 77.4259 63.6977 76.9386 64.7018C76.1926 66.2383 75.5075 67.8069 74.7789 69.3523C73.3028 72.4829 71.8865 75.6506 70.3377 78.746C69.5611 80.2981 68.7145 81.8138 67.8929 83.3421C67.3738 84.3077 66.8921 85.3021 66.3438 86.2512C65.9336 86.9615 65.2756 87.5113 64.8463 88.2177C64.3534 89.0281 63.9202 89.8791 63.4414 90.6989C62.4503 92.3956 61.3915 94.0873 60.3018 95.7214C58.8619 97.8809 57.2993 99.9855 55.7505 102.068C55.1749 102.842 54.4878 103.553 53.9663 104.363C53.9505 104.388 53.9352 104.413 53.9198 104.438C53.9093 105.523 53.8701 106.586 53.7324 107.664C52.4449 107.614 51.3299 107.356 50.3641 106.436L50.3724 106.346C50.6369 106.427 50.9365 106.692 51.1922 106.825C51.6013 107.038 52.0571 107.143 52.4676 107.342C52.5041 107.36 52.5391 107.381 52.5747 107.4L52.6651 107.261L52.7884 107.388C52.5403 107.154 50.9559 106.345 50.4745 106.019C49.7779 105.547 49.2229 104.954 48.5646 104.444L48.502 104.396C50.9518 102.032 53.0553 98.6529 54.1135 95.4226C54.6352 93.8308 54.9389 92.177 55.4504 90.5785C56.1331 90.1821 56.8117 89.8103 57.3296 89.1985C57.6483 88.8218 57.4956 88.3364 57.9623 88.0517C58.0788 88.0828 58.1765 88.1169 58.2872 88.1621L58.3078 88.2609C57.4891 89.8242 56.7007 89.8635 55.8756 90.9496C55.8621 90.9672 55.8494 90.9854 55.8365 91.0034C56.6746 90.9713 57.5103 90.9076 58.3313 90.7298C60.5304 90.2532 63.1721 88.9353 64.6238 87.1769C65.2933 86.3661 65.8406 85.3738 66.4121 84.4881C67.6616 82.44 68.4773 80.1677 69.5505 78.032C70.5393 76.0644 71.6726 74.1658 72.6869 72.2096C73.3732 70.8862 73.965 69.5153 74.5738 68.1551C71.9145 71.7445 68.4891 75.194 65.3489 78.3911C63.9208 79.845 59.4575 83.874 58.7348 85.3095C58.5094 85.7576 58.8869 86.5251 58.8148 87.042C58.7554 87.4672 58.5285 87.9177 58.3705 88.3155C58.4429 87.5424 58.532 86.8172 58.3763 86.0461C58.2845 85.9565 58.2095 85.8786 58.1424 85.7687C58.9387 84.0544 65.0776 78.1874 66.7511 76.4179C68.8478 74.2011 70.6658 71.78 72.4671 69.3226C73.3935 68.0587 74.3555 66.8002 75.2094 65.487C75.8006 64.5781 76.315 63.619 76.8806 62.6942C77.4427 61.7759 78.1454 60.8665 78.5618 59.875C77.7078 60.6884 71.5646 66.0879 70.6176 66.0864C73.2796 64.1455 77.3697 60.9444 79.2201 58.332Z" fill="#FEFEFE"/>
<path d="M63.9121 88.7305C63.9648 88.776 63.9318 88.7402 63.9633 88.8671C63.3904 90.2896 62.2915 91.5905 61.3955 92.8238C59.5978 95.2986 57.7741 97.7325 55.7887 100.062C54.7769 101.249 53.611 102.362 52.7314 103.651C52.622 104.699 52.6829 105.781 52.6988 106.833C51.8745 106.409 51.0573 105.983 50.2701 105.493C49.754 105.155 49.2731 104.805 48.8594 104.344C51.7471 101.633 53.7852 97.8639 54.8841 94.0865C55.0762 93.4259 55.4085 91.4762 55.7463 91.0404C55.864 91.0854 55.8178 91.0592 55.9246 91.1386C55.9505 91.1577 55.9758 91.1782 56.0014 91.1976C56.4158 91.2787 56.8466 91.1941 57.2627 91.15C59.7093 90.8908 61.816 89.9726 63.9121 88.7305Z" fill="#161D36"/>
<path d="M58.3932 33.5693C59.0447 33.6181 59.6474 33.902 60.1785 34.2716C61.2152 34.9936 61.8688 36.07 62.4974 37.139C62.9762 37.953 63.5565 38.8583 63.7916 39.7787C64.2183 41.4492 63.2037 45.2225 62.7867 46.9351C62.6166 47.6341 62.2979 48.4478 62.2643 49.1566C62.2314 49.8456 62.787 50.3593 62.8564 51.0149C62.99 52.277 62.6004 53.6513 62.6701 54.9657C62.7564 56.588 63.3961 58.0296 63.6707 59.6064C63.6448 59.61 63.6189 59.6132 63.593 59.617L63.4664 59.6373C62.536 59.7763 61.6778 60.3963 60.9007 60.8953C60.5499 61.0769 60.2277 61.3351 59.8483 61.4559C59.6629 61.515 59.4973 61.5843 59.3213 61.6678C59.3563 61.7457 59.6835 61.6757 59.8177 61.7415L59.7798 61.9422C59.5755 62.1406 59.4322 62.3284 59.2895 62.574C58.0703 60.1812 57.6901 57.3755 57.2349 54.7585C56.9621 53.1905 56.6716 51.6281 56.4212 50.056C56.2923 49.937 56.0319 49.7305 55.9857 49.5518C55.9677 49.4836 56.0601 46.6271 56.0925 46.3973C56.2202 45.4832 56.5872 44.6007 56.734 43.6825C57.0483 41.7113 57.568 34.9316 58.3932 33.5693Z" fill="#FEFEFE"/>
<path d="M58.7802 34.1387C58.8985 34.156 59.0083 34.176 59.121 34.2168C60.7951 34.8236 61.9125 36.8389 62.5122 38.3963C62.8041 39.1544 62.9948 39.9419 63.3538 40.6748L63.4077 40.7835C62.9059 40.1999 62.3389 39.6892 61.8103 39.1321C61.1674 38.4544 60.5573 37.7463 59.9134 37.0686C60.3245 37.857 60.8048 38.6795 61.3389 39.3892C61.813 40.0189 62.4121 40.5978 62.7841 41.2936C62.7756 41.9521 62.785 42.6045 62.8173 43.2624C62.3268 42.3188 61.9151 41.335 61.4213 40.3924C61.7538 42.5921 61.878 44.9417 61.9025 47.1677L61.1082 46.6581C60.6868 46.3884 59.5774 45.5183 59.0809 45.6267C59.0806 45.6496 59.0771 45.6725 59.0801 45.6952C59.1742 46.4389 61.1788 48.0236 61.8098 48.4606C61.592 48.6948 61.3451 48.8708 61.0435 48.9816C60.0638 49.3413 59.0165 49.0862 58.1095 48.6616C59.2563 50.427 60.2542 49.6898 61.9051 50.0821L61.9996 50.2901C61.6479 50.5931 61.1117 50.7223 60.6765 50.8616C61.0702 51.427 61.6149 51.8469 61.9528 52.4584C61.8833 52.6109 61.8401 52.7141 61.6747 52.7772C60.9481 53.0549 59.3932 52.298 58.7534 51.9548C59.553 52.8031 60.4711 53.5521 61.3427 54.3258C61.5567 55.0522 61.7026 55.8083 61.8901 56.5429C61.6558 56.3945 61.3775 56.1841 61.1108 56.1024C60.9346 56.0484 60.8472 56.0792 60.6927 56.1633C60.585 56.3422 60.5258 56.483 60.5414 56.6966C60.6029 57.5479 61.7338 58.5476 62.3547 59.0644C61.903 59.5137 61.3257 59.8649 60.8154 60.2466C60.2875 60.6412 59.7907 61.0711 59.2928 61.5028C58.0492 59.4294 57.3171 52.8201 57.2453 50.2184C56.9692 49.9175 56.7215 49.6075 56.4763 49.281C56.4657 49.1115 56.4584 48.9419 56.4545 48.7724C56.4398 47.9405 56.5767 47.1112 57.1808 46.4947C57.4421 46.2282 57.7164 45.9593 57.8638 45.6111L57.8038 45.5706C57.137 45.8271 56.7162 46.3637 56.3115 46.9211C56.4999 45.8483 56.9339 44.8327 57.1367 43.759C57.5322 41.6636 57.7626 39.5158 58.0598 37.4036C58.1914 36.4683 58.2658 35.4519 58.5215 34.5421C58.5736 34.3602 58.6445 34.2668 58.7802 34.1387Z" fill="#161D36"/>
<path d="M98.8058 98.623C103.159 100.499 107.41 102.648 111.735 104.595L123.926 110.12C125.85 111.006 127.799 111.849 129.689 112.808C128.764 113.715 127.323 114.946 126.752 116.079C126.373 116.83 126.051 118.676 125.602 119.201C125.526 119.289 125.444 119.252 125.337 119.25C124.259 118.833 123.203 118.347 122.131 117.912L109.94 112.91C106.315 111.471 102.699 110.008 99.0936 108.522C97.4863 107.872 95.8519 107.275 94.2637 106.58C95.1971 103.36 97.0125 101.319 98.8058 98.623Z" fill="#FEFEFE"/>
<path d="M87.6986 117.441C88.58 117.562 89.527 117.984 90.3671 118.282L95.9348 120.295L116.5 127.711C119.96 128.966 123.372 130.341 126.891 131.43C125.647 131.499 124.362 131.432 123.115 131.407C121.567 131.375 120.02 131.366 118.472 131.379L79.1611 131.352C79.554 130.156 80.1472 128.97 80.7258 127.854C82.6795 124.086 85.1081 120.784 87.6986 117.441Z" fill="#FEFEFE"/>
<path d="M92.6429 107.65C93.8471 107.97 95.0483 108.649 96.2178 109.108C99.4186 110.342 102.608 111.604 105.786 112.895L132.424 123.726C131.61 124.579 130.209 125.696 129.632 126.645C129.123 127.484 128.719 129.158 128.383 130.134L128.28 130.348C127.957 130.432 125.155 129.325 124.651 129.145L88.9551 116.113C89.6805 113.121 91.1374 110.313 92.6429 107.65Z" fill="#FEFEFE"/>
<path d="M76.5735 67.3242C77.1235 67.6069 77.7338 67.8282 78.3024 68.0759C79.4889 68.5857 80.6669 69.1152 81.836 69.6638C85.1475 71.2201 88.3992 72.9015 91.7004 74.4809C90.8043 75.3046 89.8206 76.0254 89.1926 77.0973C88.469 78.3327 88.0546 81.7146 87.7239 83.2714C87.1701 85.8767 86.5597 88.6233 85.4703 91.0537C85.1428 91.7839 83.6594 95.3357 83.7815 95.8064C83.9419 96.0259 84.2114 96.1191 84.4518 96.2316C84.3076 96.7885 84.1646 97.3541 84.1014 97.9266C84.0337 98.5419 84.0496 99.2069 83.9048 99.8072C83.838 100.084 83.8024 100.358 83.7662 100.641C83.888 100.915 84.0401 101.145 84.2144 101.389C82.9381 101.893 81.61 102.289 80.3102 102.728L74.895 104.602C71.1597 105.888 67.4631 107.291 63.7346 108.598C61.6994 109.349 59.6586 110.083 57.6122 110.802C56.0811 111.327 54.5294 111.812 53.0224 112.404C52.6222 112.561 52.2449 112.769 51.8468 112.933L51.7688 112.893C51.7329 111.796 52.4971 109.434 52.8291 108.319C53.1239 108.342 53.5871 108.428 53.8652 108.34C55.0756 107.957 54.2698 105.493 54.851 104.507C55.2607 103.812 55.8542 103.159 56.3418 102.513C57.2347 101.333 58.104 100.136 58.9488 98.9218C60.5962 96.5787 62.2073 94.2399 63.6908 91.7889C64.3829 90.6456 64.9597 89.4323 65.6539 88.2942C66.0105 87.7094 66.587 87.2751 66.941 86.6915C67.7818 85.3048 68.5133 83.8203 69.2634 82.3819C70.8749 79.3556 72.3889 76.2816 73.8059 73.1598C74.7143 71.2077 75.5568 69.2231 76.5735 67.3242Z" fill="#FEFEFE"/>
<path d="M62.3114 99.084C66.2305 100.15 70.1709 101.232 74.0509 102.431L73.0742 103.211C71.2729 103.049 69.4246 102.599 67.6442 102.268C65.5764 101.883 63.4679 101.568 61.4209 101.092C61.7049 100.417 62.0018 99.7475 62.3114 99.084Z" fill="#161D36"/>
<path d="M75.1685 77.0527C76.1802 77.4853 77.4359 78.39 78.43 78.9534C80.6582 80.216 82.9112 81.4182 85.1194 82.7184C85.0093 83.1207 84.9087 83.5292 84.786 83.9273C84.726 84.1219 84.6483 84.3905 84.4591 84.493L84.2219 84.4101C82.3632 83.3999 80.4316 82.5133 78.5297 81.588C76.993 80.8402 75.4796 80.0435 73.9258 79.3309C74.3581 78.579 74.7821 77.8294 75.1685 77.0527Z" fill="#161D36"/>
<path d="M69.1392 88.0615C70.2195 88.7485 72.4589 89.4444 73.7393 89.9516C76.421 91.0079 79.0786 92.1213 81.7124 93.292C81.5638 93.7196 81.5046 94.4865 81.1265 94.7484L80.8031 94.6658C76.5393 93.193 72.2464 91.8113 67.9238 90.521L69.1392 88.0615Z" fill="#161D36"/>
</g>
<defs>
<clipPath id="clip0_665_22504">
<rect width="135.931" height="133" fill="white"/>
</clipPath>
</defs>
</svg>
