<svg width="182" height="133" viewBox="0 0 182 133" fill="none" xmlns="http://www.w3.org/2000/svg">
<g opacity="0.5" clip-path="url(#clip0_665_22849)">
<path d="M110.854 94.3161C110.987 94.641 111.482 94.4434 111.348 94.1155L110.079 91.006C110.024 90.8699 109.867 90.8038 109.732 90.8598C109.595 90.915 109.53 91.0701 109.585 91.2066L110.854 94.3161Z" fill="white"/>
<path d="M111.125 97.3054C111.25 97.227 111.287 97.0627 111.208 96.9383L109.758 94.6451C109.68 94.5203 109.516 94.4828 109.391 94.5621C109.266 94.6404 109.229 94.8048 109.308 94.9291L110.757 97.2224C110.837 97.3492 111.004 97.3821 111.125 97.3054Z" fill="white"/>
<path d="M118.515 100.853C119.501 100.203 120.24 99.1735 120.542 98.0306C120.579 97.8882 120.495 97.7428 120.352 97.7053C120.211 97.6674 120.064 97.7525 120.026 97.8945C119.758 98.913 119.1 99.8292 118.221 100.409C118.099 100.49 118.064 100.655 118.146 100.778C118.228 100.902 118.394 100.934 118.515 100.853Z" fill="white"/>
<path d="M121.217 88.2935C121.301 88.1725 121.271 88.0065 121.15 87.9231C121.029 87.84 120.863 87.8695 120.779 87.9901L119.978 89.1426C119.894 89.2635 119.925 89.4296 120.046 89.513C120.419 89.7692 120.59 89.0739 121.217 88.2935Z" fill="white"/>
<path d="M121.513 113.737C121.795 113.948 122.115 113.521 121.832 113.31L121.526 113.083C121.409 112.996 121.241 113.019 121.153 113.137C121.065 113.255 121.09 113.422 121.208 113.509L121.513 113.737Z" fill="white"/>
<path d="M118.804 114.088C119.059 114.333 119.427 113.948 119.174 113.705C118.728 113.352 118.412 112.747 118.114 113.056C117.816 113.363 118.429 113.649 118.804 114.088Z" fill="white"/>
<path d="M113.612 115.596C113.8 115.893 114.252 115.61 114.063 115.312L113.853 114.98C113.775 114.856 113.61 114.82 113.486 114.897C113.361 114.975 113.324 115.14 113.402 115.264L113.612 115.596Z" fill="white"/>
<path d="M116.665 120.623L115.684 120.14C115.553 120.075 115.392 120.129 115.328 120.26C115.262 120.392 115.317 120.552 115.449 120.617L116.429 121.1C116.559 121.165 116.72 121.111 116.786 120.979C116.851 120.847 116.797 120.688 116.665 120.623Z" fill="white"/>
<path d="M120.994 119.068C120.943 119.205 121.014 119.358 121.152 119.409L122.041 119.735C122.183 119.785 122.334 119.712 122.383 119.576C122.434 119.438 122.363 119.286 122.225 119.235L121.336 118.909C121.197 118.86 121.045 118.929 120.994 119.068Z" fill="white"/>
<path d="M77.5822 52.2199C77.6328 52.2995 77.7189 52.3425 77.8071 52.3425C77.8565 52.3425 77.9059 52.329 77.9502 52.3008C78.0743 52.2212 78.1106 52.0572 78.0313 51.9329L77.2108 50.6498C77.1319 50.5255 76.9669 50.4909 76.8428 50.5689C76.7187 50.6485 76.6824 50.8124 76.7618 50.9367L77.5822 52.2199Z" fill="white"/>
<path d="M43.127 63.6669L44.4606 62.9139C44.5885 62.841 44.6341 62.6792 44.5615 62.551C44.4893 62.4225 44.3264 62.3787 44.1986 62.4503L42.8649 63.2034C42.737 63.2763 42.6915 63.4381 42.7641 63.5662C42.8371 63.6956 43.0012 63.7381 43.127 63.6669Z" fill="white"/>
<path d="M181.466 72.8332C181.246 67.5442 176.062 57.9379 176.062 57.8848C174.386 55.3804 171.478 54.0079 168.574 53.1858L168.355 49.8972C168.832 49.0948 169.072 48.1808 169.026 47.1513C169.65 44.7245 170.492 40.1746 167.902 40.6268C167.902 40.6268 163.371 36.492 159.774 40.4405C157.983 42.4148 158.985 44.368 159.513 45.1341C159.47 46.2516 159.651 47.4543 160.067 48.5934C160.781 50.5516 161.788 51.4618 162.561 51.882V51.8925L162.502 52.3341L158.105 51.9831L150.553 46.9541C146.319 35.6311 146.644 35.8919 146.311 35.8742C146.817 34.8637 147.033 33.7095 146.998 32.83C147.107 32.4516 146.276 30.8364 146.145 30.6109L150.052 26.71C150.143 26.619 150.147 26.4913 150.111 26.4171V25.2836C150.111 25.2625 150.105 25.241 150.089 25.2305L140.997 16.2846C140.97 16.2525 140.917 16.2525 140.89 16.2846L126.175 30.8659C126.159 30.8819 126.148 30.903 126.148 30.9244V32.026C126.127 32.0631 126.111 32.1056 126.111 32.1537C126.111 32.2228 126.143 32.2919 126.191 32.3399L135.113 41.2483C135.216 41.3516 135.382 41.3575 135.491 41.2483L138.87 37.8746C138.982 38.0343 139.099 38.1831 139.222 38.3323C139 38.4439 138.5 38.4574 138.572 38.8004C138.667 39.2741 140.938 50.4547 143.16 53.5309C144.781 55.7766 151.699 60.0605 152.967 60.8321C151.918 63.6327 146.706 77.887 147.605 80.7243C147.749 81.166 148.016 81.5705 148.416 81.9485C147.59 85.136 144.008 99.1745 143.624 104.374C143.23 109.68 144.983 125.618 144.983 125.618H145.767L145.804 125.804C145.27 125.715 145.106 126.357 145.122 126.932C145.228 129.593 140.01 128.087 139.771 130.977C139.803 131.169 139.68 131.823 140.362 132.467H131.872V126.906C131.888 126.879 131.894 126.842 131.899 126.81C131.904 126.672 131.803 126.549 131.664 126.528L102.511 123.154C103.459 122.303 104.36 121.313 105.213 120.222C105.543 120.1 106.966 119.307 110.041 118.439C110.303 120.063 111.038 121.398 112.189 122.314C116.922 126.081 127.411 121.111 126.857 116.098C126.734 115.007 126.094 113.975 125.007 113.112C120.2 109.286 109.194 109.808 109.967 117.907C108.554 118.306 107.158 118.774 105.879 119.339C107.957 116.47 109.743 113.011 111.256 109.456C117.748 111.042 123.376 107.806 125.327 99.9946C127.373 91.8257 124.901 81.1238 118.654 79.5646C111.896 77.8883 104.941 87.2919 103.15 94.4654C100.965 103.188 105.527 107.812 110.691 109.308C108.368 114.768 105.404 119.972 101.791 123.069L101.46 123.032C101.87 120.446 101.354 117.285 100.49 114.251C103.209 112.905 105.314 109.872 103.171 105.284C101.37 101.437 96.594 97.2968 93.167 98.9036C91.8291 99.5314 91.0032 100.936 90.6352 102.666L80.2847 68.2559C80.2476 68.1443 80.1463 68.0642 80.0289 68.0642H67.3197C66.9521 62.5405 66.1899 56.9577 65.9447 55.2338C68.4178 56.5161 79.6955 62.1199 83.5006 59.8372C88.1692 57.0538 86.9276 39.1464 86.8744 38.3858C86.8639 38.2526 86.7571 38.1464 86.6237 38.1409H86.5866C86.2688 35.6677 86.5089 35.6479 87.4606 34.6977C88.0684 34.0858 88.6972 33.4579 88.7023 32.8351C88.7183 30.7382 85.5256 27.0556 83.5217 26.8643C83.1913 26.8322 82.8022 26.9068 82.397 27.056C82.251 27.056 82.0535 27.0927 81.9015 27.12C83.266 26.4922 84.7634 26.2528 86.2612 26.4336C90.6445 26.9801 90.4803 26.9658 90.5356 26.9658C95.9427 28.6341 92.6061 16.4948 86.6663 11.4798C84.8575 9.96439 82.7245 9.31206 82.0294 11.4372C82.002 11.4642 82.2092 11.0381 79.466 16.9344C78.8743 18.2062 77.9576 19.3077 76.8117 20.1113C72.7045 23.0228 72.999 22.8028 72.9851 22.8306C72.6551 23.188 69.1847 24.6734 70.0646 28.0298C70.6605 30.246 73.4633 31.4482 75.7301 30.2755C75.7858 30.2473 77.5431 29.3535 77.4355 29.4082L78.4961 30.4727C78.0855 32.3593 78.402 35.7044 78.6345 37.6251L78.5759 37.6197C78.0981 37.583 78.399 37.8649 76.9557 47.4914C71.9832 43.6023 65.4353 39.6698 59.1013 39.5037C59.119 39.4502 58.9312 38.9037 58.5577 37.6572C59.8369 37.4654 62.1126 36.7524 62.102 34.0702C62.0809 31.6488 61.0199 28.7273 60.3805 27.1786C60.6844 27.088 60.9296 26.9818 61.0735 26.8541C62.7629 25.3746 59.677 20.6225 52.9615 22.8576C47.3121 24.7362 49.1935 28.1049 49.1935 28.1049C49.1935 28.1049 46.8272 28.0678 47.957 31.8511C48.7086 34.3791 50.8403 35.2784 51.757 35.5548C51.8262 35.6399 51.8954 35.7196 51.9596 35.8156C51.9701 35.8317 51.9811 35.8422 51.9917 35.8527C52.258 36.2518 52.45 36.7625 52.5728 37.3694L52.5673 39.4127C48.9078 40.0878 44.5102 40.4359 42.4675 42.1851C41.6787 42.8556 41.0178 43.7603 40.5168 44.6385C38.1078 48.4433 35.2882 54.9574 35.2777 61.2847C35.2777 63.3706 35.7094 65.6963 36.3863 68.0646C22.2679 68.0701 14.38 68.0541 0.24042 68.0912C0.0914406 68.0912 -0.0368591 68.2315 0.0112533 68.3996L19.4115 132.467H10.5475C10.398 132.467 10.2811 132.584 10.2811 132.733C10.2811 132.882 10.3985 132.999 10.5475 132.999H174.367C174.511 132.999 174.633 132.882 174.633 132.733C174.633 132.584 174.51 132.467 174.367 132.467H167.817C168.68 131.648 168.472 130.61 168.131 129.445C167.748 128.226 167.204 126.741 166.761 126.614C166.751 126.608 166.745 126.608 166.735 126.608L166.591 125.618H167.577L165.562 104.374C166.729 95.4658 167.997 89.2821 167.395 83.5186C167.48 83.4816 167.56 83.439 167.63 83.4015C169.618 82.316 170.545 73.1147 170.849 69.3044L172.357 74.6048L172.011 89.0103C172.011 89.138 172.102 89.2446 172.23 89.2712C171.857 89.6542 171.446 90.1334 171.35 90.4633C171.206 90.9673 171.573 93.4283 171.899 93.5446C173.03 95.0503 176.647 94.5543 178.487 94.199C178.998 94.0979 179.387 93.8265 179.649 93.3849C180.315 92.2619 179.926 90.3251 179.707 89.4735C179.76 89.4583 180.046 89.5287 180.08 89.2341C180.429 86.1688 181.602 76.1526 181.466 72.8332ZM124.678 113.528C125.653 114.299 126.224 115.21 126.325 116.157C126.826 120.643 116.907 125.384 112.521 121.894C111.466 121.053 110.794 119.813 110.56 118.296C116.134 116.8 121.88 116.454 121.96 116.454C122.104 116.444 122.216 116.316 122.21 116.173C122.2 116.023 122.072 115.907 121.928 115.922C121.853 115.928 116.113 116.268 110.49 117.763C109.888 110.393 120.153 109.925 124.678 113.528ZM103.668 94.5935C105.363 87.8085 112.068 78.4741 118.527 80.0813C124.385 81.5448 126.756 92.0975 124.811 99.8673C122.94 107.35 117.653 110.426 111.471 108.956C115.506 99.271 117.488 89.0533 117.627 88.3353C117.653 88.1916 117.557 88.0533 117.414 88.0268C117.264 88.0002 117.126 88.0959 117.099 88.2396C117.067 88.4153 115.026 98.9309 110.901 108.813C105.955 107.408 101.568 102.981 103.668 94.5935ZM100.929 122.974L96.6011 122.468L93.9841 113.778C94.4795 114.172 95.0126 114.47 95.5777 114.672C97.0274 115.205 98.5463 115.061 99.98 114.476C100.817 117.445 101.323 120.505 100.929 122.974ZM93.3979 99.3886C96.4998 97.92 101.014 101.927 102.688 105.509C104.644 109.697 102.789 112.469 100.337 113.725C98.7172 108.281 96.0896 103.364 95.9031 103.018C95.8339 102.89 95.6684 102.842 95.5406 102.906C95.4127 102.981 95.3646 103.14 95.4338 103.268C95.4764 103.353 98.1838 108.425 99.8255 113.959C98.4239 114.55 97.0219 114.63 95.7592 114.172C95.0024 113.901 94.304 113.433 93.6912 112.799L90.9998 103.864C91.1965 101.804 91.9642 100.064 93.3979 99.3886ZM67.5168 72.4447H76.9662L88.8246 112.112H70.8846C70.8099 107.77 67.9266 86.3235 66.9618 79.2406C67.4687 78.7349 67.5434 73.8711 67.5168 72.4447ZM82.4612 27.5992C82.9478 27.9355 83.0659 29.0707 82.2746 29.9249C81.907 30.324 81.4061 31.6918 81.3474 31.846C81.3103 31.9577 81.3474 32.0854 81.4432 32.1545C82.8401 33.1596 81.2968 33.9977 81.3259 34.3736C81.3795 34.3745 81.6728 34.3799 81.6192 34.3791L81.7897 34.5333C81.907 34.4002 82.0243 34.2619 82.1307 34.1182C82.3219 34.2573 82.9402 35.2038 84.2894 35.2038C86.9428 35.2038 87.8278 31.6122 85.5045 30.3931C84.6553 29.9594 84.2523 29.9835 83.2715 29.2755C83.4711 28.6565 83.4107 27.9612 83.0263 27.4235C84.914 27.0463 88.1857 30.9173 88.1692 32.8304C88.1637 33.235 87.5885 33.8098 87.0821 34.3205C86.0109 35.39 85.9012 35.5691 85.9413 36.8911H79.0874C78.9557 35.6294 78.5839 31.7681 79.0663 30.4837C79.4128 29.5734 81.1233 28.1369 82.4612 27.5992ZM90.3545 17.0199C94.7678 24.8786 92.8631 30.9354 86.2878 22.5811C87.905 22.0426 88.6478 20.2702 87.9612 18.7708C87.2707 17.2837 85.3382 16.5349 83.5855 17.8185C82.5017 15.2749 82.5038 14.1042 82.4396 13.9761C81.5833 7.89068 86.809 10.6976 90.3545 17.0199ZM76.6999 29.1904C74.9413 27.3918 73.8486 25.3641 73.4489 23.145C76.1702 20.9979 78.505 20.2525 79.9513 17.1581L81.8222 13.1295C82.0391 15.7245 82.9955 18.1472 84.2683 20.4202C84.2683 20.4257 84.2738 20.4257 84.2738 20.4307C84.2738 20.4358 84.2793 20.4362 84.2793 20.4413C85.5813 22.716 87.0643 24.6999 89.1454 26.2579L86.3262 25.9068C82.3869 25.4201 80.264 27.6139 76.6999 29.1904ZM52.4069 35.5127C52.3964 35.5021 52.3858 35.4861 52.3749 35.4756C52.1989 35.2307 52.0073 35.0339 51.8097 34.8582C51.3514 33.7617 50.7758 31.8886 51.9697 31.5587C53.0358 31.2658 54.0643 32.0534 54.6876 32.6973C54.8687 32.889 55.1835 32.7293 55.1405 32.4685L54.7408 30.0416C54.7408 30.0416 56.697 28.8335 55.4498 27.6788C55.4498 27.6788 58.1521 27.6628 59.8576 27.3063C59.8631 27.3223 59.8682 27.3328 59.8736 27.3489C60.4974 28.8549 61.547 31.7285 61.5686 34.0702C61.5791 36.5607 59.2077 37.0664 58.1897 37.1675C58.0099 37.1793 57.9103 37.3677 57.9605 37.508C57.9766 37.5628 58.602 39.6681 58.5628 39.5354C58.0547 41.1544 56.9405 44.7064 57.0118 44.4792L53.0999 39.5088V37.3163C52.956 36.5662 52.7268 35.9808 52.4069 35.5127ZM38.827 48.8963C38.827 48.8909 38.827 48.8909 38.827 48.8909C39.4774 47.4644 40.1754 46.1926 40.8469 45.1231C40.6709 45.7139 40.5536 46.3684 40.5751 47.0654C40.5751 47.2091 40.6975 47.3262 40.8414 47.3262C40.8414 47.3262 40.8414 47.3262 40.8469 47.3262C40.9908 47.3207 41.1081 47.1985 41.1081 47.0548C41.044 44.5964 42.7925 42.6217 42.8402 42.5686C44.0286 41.5627 46.6507 40.8071 50.3444 40.3815L53.9153 48.4012C54.0179 48.6064 54.2723 48.6566 54.4429 48.4863L56.9903 45.687C57.0169 45.7135 57.0489 45.7455 57.0861 45.7666L60.4919 47.5281C60.681 47.6153 60.8908 47.499 60.9022 47.2938L61.3605 40.1999C68.4275 41.2218 76.8966 48.1184 76.9818 48.1876C77.0084 48.2086 77.0405 48.2196 77.0726 48.2301L79.0287 51.6043C79.0768 51.6894 79.1671 51.732 79.2579 51.732C79.306 51.732 79.3486 51.7214 79.3912 51.6999C79.5191 51.6253 79.5618 51.4606 79.4871 51.3329L77.4456 47.81L78.7886 38.1671L78.911 38.1725C78.9641 38.2256 86.3034 38.6534 86.3566 38.6567C86.4152 39.5935 86.6123 43.2281 86.4684 47.2192C86.0261 45.4152 85.3386 43.9571 85.2905 43.861C85.2264 43.7279 85.0668 43.6693 84.9385 43.7333C84.8052 43.7974 84.7465 43.9567 84.8106 44.0899C84.8322 44.1269 86.6229 47.9162 86.2338 50.7577C86.2338 50.7577 86.2393 50.7577 86.2393 50.7632C85.8556 54.7011 85.0027 58.3197 83.2225 59.3842C79.4596 61.6353 67.02 55.2014 65.8316 54.5735L64.936 51.6093C64.8934 51.4711 64.744 51.391 64.6055 51.4336C64.4616 51.4762 64.3819 51.6253 64.4245 51.7636L65.3412 54.8078C66.0873 59.9274 67.7873 73.7796 66.5511 78.8082H63.412C64.9149 77.217 64.7018 74.3009 64.2008 72.0123C64.1742 71.8686 64.0303 71.778 63.8864 71.81C63.7425 71.842 63.6517 71.9803 63.6838 72.124C64.0995 74.0557 64.5097 77.4669 62.6017 78.8078H51.3029C49.7147 73.8108 48.1532 68.6011 47.0605 63.0824L48.4305 58.7774C48.4786 58.6391 48.3984 58.4845 48.26 58.4419C48.1161 58.3994 47.9667 58.4739 47.924 58.6176L46.5596 62.8961L43.5804 64.8013C43.458 64.8809 43.4205 65.0461 43.5007 65.1683C43.7619 65.5729 44.1084 64.9821 46.6077 63.4975C47.8228 69.5694 50.0136 76.7695 51.9803 82.549C51.1754 82.8844 52.3588 82.3948 45.0035 85.4491C44.4705 84.6084 42.8077 81.7559 41.1769 78.5095C40.3189 76.4926 40.9051 72.6983 40.9106 72.6558C40.9372 72.5121 40.8359 72.3789 40.692 72.3524C40.5426 72.3309 40.4096 72.427 40.3881 72.5757C40.3666 72.6929 40.0682 74.6246 40.2121 76.5137C35.3304 66.0853 34.0833 59.1886 38.827 48.8963ZM57.2785 94.9129L56.559 89.0377C56.5378 88.894 56.6442 88.7609 56.7881 88.7398C56.9375 88.7183 57.0705 88.8249 57.0865 88.9741L57.8061 94.8493C57.8221 94.993 57.7208 95.1261 57.5714 95.1421H57.5659L61.0836 112.113H55.1038L57.5233 95.1421C57.3954 95.1362 57.2941 95.0406 57.2785 94.9129ZM45.1107 85.983L51.7304 83.2317L52.0609 83.3808C52.5673 84.6901 53.1164 86.1587 53.2869 86.6964C51.4586 87.3829 46.4115 89.9534 45.2656 87.4469C45.0145 86.9037 44.9613 86.4196 45.1107 85.983ZM45.2652 112.112H26.2329L14.3745 72.4447H37.8892C39.4774 76.5158 41.7268 80.9755 43.9383 84.7057C44.0126 94.4338 45.1268 110.138 45.2652 112.112ZM8.04771 68.5973H36.5459C36.8818 69.7043 37.2655 70.8164 37.6812 71.9128H14.017C13.8465 71.9128 13.7026 72.0776 13.7613 72.2588L25.7797 112.453C25.8117 112.565 25.9181 112.645 26.0354 112.645H89.1817C89.3577 112.645 89.4906 112.469 89.4374 112.305L77.4191 72.1046C77.387 71.9929 77.2806 71.9128 77.1633 71.9128H67.5058C67.4792 70.8378 67.426 69.7203 67.3564 68.5973H79.8331C82.2067 76.4855 93.6604 114.557 96.0356 122.447H24.2553L8.04771 68.5973ZM45.9742 132.569C45.9742 132.713 45.8569 132.835 45.7079 132.835C45.564 132.835 45.4416 132.712 45.4416 132.569V126.795C45.4416 126.651 45.564 126.529 45.7079 126.529C45.8573 126.529 45.9742 126.652 45.9742 126.795V132.569ZM52.1457 126.534L27.5864 122.979H96.3665C96.3665 122.979 116.364 125.294 127.028 126.529C126.634 126.529 53.7393 126.534 52.1457 126.534ZM160.568 48.4122C160.142 47.2415 159.982 45.9803 160.073 44.8412C160.324 44.3941 160.707 43.8619 161.091 43.6651C161.091 43.6651 162.743 45.0009 166.106 43.9154C166.106 43.9154 165.552 45.1981 166.676 45.7354C166.676 45.7354 166.276 47.5555 166.74 47.582C167.15 47.6031 166.921 46.2516 167.651 46.2091C168.647 46.1492 168.809 48.1635 167.859 49.6894C167.827 49.7375 167.817 49.7906 167.817 49.8491C167.821 49.9035 168.073 53.6059 168.057 53.3721C161.257 59.3458 163.583 57.3025 163.084 57.7411C163.084 57.6859 163.095 52.5002 163.095 52.8187C164.992 52.5634 165.274 51.2646 165.285 51.2065C165.33 51.0055 165.099 50.8428 164.917 50.9566C162.726 52.367 161.462 50.8525 160.568 48.4122ZM146.061 35.1452L140.203 36.5447L143.604 33.1494C143.726 33.3623 143.886 33.8414 143.859 34.8629C143.847 35.2143 144.379 35.2379 144.392 34.8789C144.411 34.1625 144.306 32.6539 143.646 32.4895C143.24 32.3273 141.926 31.6543 141.712 31.2498C140.848 29.6438 143.756 27.8929 145.469 30.5368C146.74 32.9236 146.666 33.1309 146.061 35.1452ZM144.419 22.5065L145.869 23.9595L145.496 24.3321L144.046 22.8791L144.419 22.5065ZM143.508 21.6018L143.902 21.9954L143.529 22.3679L143.135 21.9743L143.508 21.6018ZM132.635 35.6724C132.396 35.9117 132.011 35.9117 131.777 35.6724C131.537 35.4381 131.537 35.055 131.777 34.8157C132.012 34.5814 132.396 34.5814 132.635 34.8157C132.87 35.055 132.87 35.4381 132.635 35.6724ZM137.842 38.1519L129.294 29.6215L139.201 19.7287L147.745 28.2595L145.848 30.1541C143.89 27.1243 140.022 29.2355 141.243 31.506C141.525 32.0222 142.607 32.5865 143.156 32.8469C132.526 43.4481 144.494 31.5098 137.842 38.1519ZM150.927 125.619L151.071 126.646C150.969 126.678 150.858 126.72 150.751 126.768C150.74 126.768 150.729 126.773 150.719 126.778C149.264 127.417 149.28 128.316 148.027 128.008C147.255 127.82 147.348 127.063 146.428 126.145C146.423 126.14 146.423 126.134 146.418 126.134L146.311 125.618H150.927V125.619ZM140.379 131.552C140.326 131.393 140.294 131.212 140.299 131.02C140.369 130.212 140.891 129.951 141.701 129.674C141.957 130.078 142.122 129.972 143.726 129.769C145.661 129.525 145.608 129.035 146.135 128.439C146.335 128.226 146.923 127.816 146.935 127.816C147.436 128.774 149.003 128.812 149.754 128.082C150.042 127.736 150.698 127.289 151.433 127.108C151.439 127.114 151.444 127.108 151.449 127.108C151.785 127.369 153.021 130.61 152.675 131.552H140.379V131.552ZM152.691 132.468C153.533 131.675 153.368 130.621 153 129.445C152.621 128.226 152.073 126.742 151.63 126.614H151.603L151.465 125.619H152.067L153.383 104.375L156.016 95.2214C156.016 95.2214 156.075 102.182 156.213 104.375C156.549 109.755 159.923 125.619 159.923 125.619H160.898L160.935 125.794C160.726 125.753 160.428 125.889 160.29 126.348C160.12 126.944 160.556 127.561 159.725 128.157C158.776 128.839 156.005 128.924 155.211 130.057C154.742 130.743 154.758 131.776 155.488 132.468H152.691ZM166.58 127.109C166.857 127.332 168.184 130.515 167.806 131.552H155.511C155.361 131.127 155.431 130.685 155.654 130.355C155.932 130.009 156.364 129.834 156.832 129.674C157.088 130.084 157.285 129.967 158.852 129.77C160.792 129.525 160.734 129.035 161.267 128.44C161.571 128.11 161.976 127.934 162.295 127.609C162.253 127.535 162.205 127.45 162.157 127.365C163.516 128.088 164.779 127.221 166.554 127.114C166.564 127.12 166.575 127.114 166.58 127.109ZM166.053 125.619L166.197 126.625C164.04 126.878 162.865 127.75 161.704 126.3C161.655 126.242 161.602 126.188 161.549 126.135L161.442 125.619H166.053V125.619ZM171.851 91.2408C171.824 90.9694 171.824 90.7406 171.862 90.6074C171.936 90.3466 172.49 89.7507 172.954 89.2982L173.183 89.3036C172.688 89.8148 172.166 90.5118 171.851 91.2408ZM179.19 93.1144C179.036 93.3803 178.812 93.5509 178.524 93.6361C178.662 93.205 178.7 92.843 178.705 92.8219C178.716 92.6727 178.609 92.5451 178.465 92.529C178.316 92.513 178.188 92.6247 178.172 92.7684C178.172 92.7739 178.119 93.2846 177.911 93.7637C177.602 93.8168 177.308 93.8649 177.021 93.902C177.234 93.3647 177.287 92.8485 177.292 92.8215C177.303 92.6778 177.197 92.5446 177.053 92.5286C176.903 92.5181 176.775 92.6243 176.759 92.768C176.759 92.7734 176.685 93.4384 176.397 93.9706C176.024 94.0077 175.667 94.0292 175.336 94.0347C175.619 93.4388 175.688 92.8 175.693 92.768C175.704 92.6188 175.597 92.4911 175.454 92.4751C175.304 92.4591 175.176 92.5707 175.16 92.7144C175.16 92.725 175.075 93.481 174.734 94.0288C174.324 94.0128 173.956 93.9702 173.636 93.9011C174.036 93.2517 174.121 92.4271 174.127 92.3845C174.137 92.2408 174.031 92.1131 173.887 92.0971C173.738 92.0866 173.61 92.1877 173.594 92.3364C173.573 92.5918 173.434 93.2943 173.098 93.7519C172.552 93.5358 172.152 93.2214 172.101 92.6399C171.987 91.5379 173.092 90.0676 173.93 89.3243L179.153 89.4575C179.339 90.1393 179.793 92.0979 179.19 93.1144ZM180.528 79.9751C180.177 78.7829 179.665 78.0328 179.622 77.9793C179.542 77.8571 179.377 77.8302 179.254 77.9102C179.132 77.9953 179.105 78.1605 179.185 78.2827C179.201 78.3038 180.369 80.0122 180.299 82.3379C179.995 85.3871 179.675 88.1224 179.579 88.9315H179.51C179.462 88.889 179.409 88.8675 179.35 88.8624C173.632 88.6193 174.09 88.5131 173.754 88.7878L173.674 88.7824C173.343 88.6252 172.986 88.527 172.752 88.7613L172.55 88.7558L172.885 74.7969L175.635 74.2862C175.779 74.2596 175.875 74.1214 175.849 73.9777C175.822 73.834 175.684 73.7383 175.54 73.7649L172.816 74.2706L170.945 67.7035C170.945 67.698 170.94 67.698 170.94 67.6929C170.94 67.6824 170.94 67.6769 170.934 67.6664C170.238 66.28 170.226 65.5417 169.799 65.7292C169.661 65.7878 169.602 65.942 169.661 66.0807L170.417 67.8206C170.172 71.7531 169.154 81.9603 167.374 82.9396C167.358 82.9451 167.347 82.9557 167.331 82.9611C164.186 84.6143 151.37 84.541 148.576 81.3488V81.3434C148.357 81.0985 148.203 80.8377 148.118 80.5612C147.73 79.3413 148.606 73.1176 152.323 69.4072C152.435 69.3115 152.44 69.1413 152.339 69.0347C152.238 68.9281 152.073 68.9175 151.966 69.0187C151.891 69.0878 150.82 70.0937 149.759 71.9082C150.927 68.0128 152.451 63.7023 153.543 60.8178L154.385 59.0138C154.45 58.8806 154.391 58.7209 154.258 58.6573C154.124 58.5932 153.964 58.6518 153.9 58.7849L153.181 60.3391C144.036 54.7551 143.385 53.2802 142.468 51.005V50.9996C141.146 47.5833 142.532 45.22 142.548 45.1935C142.623 45.0658 142.58 44.9061 142.457 44.8265C142.329 44.7519 142.169 44.7944 142.09 44.9171C142.047 44.9862 141.423 46.0561 141.365 47.7906C140.245 44.0974 139.355 39.9306 139.142 38.9247C141.943 37.977 146.08 36.4962 146.135 36.4768L150.02 47.0456L147.824 48.8441C147.707 48.9398 147.691 49.1049 147.787 49.2221C147.884 49.338 148.048 49.3468 148.16 49.2592L150.351 47.4606L157.866 52.4631C157.903 52.4896 157.945 52.5056 157.993 52.5056L162.561 52.8727L162.551 58.3328C162.551 58.5511 162.815 58.6897 162.993 58.5296L168.467 53.7239C170.79 54.3893 174.095 55.7302 175.592 58.1516C175.747 58.503 176.776 60.972 176.323 62.9728C176.284 63.1414 176.417 63.2973 176.584 63.2973C176.701 63.2973 176.813 63.2122 176.84 63.09C177.032 62.2653 176.989 61.3871 176.861 60.589C178.54 64.1279 180.805 69.8219 180.933 72.8555C180.992 74.2491 180.789 77.064 180.528 79.9751Z" fill="white"/>
<path d="M162.962 48.8361C163.085 48.7556 163.12 48.5909 163.039 48.4678C162.959 48.3448 162.793 48.3102 162.67 48.3915C162.442 48.5411 161.987 48.4354 162.213 48.1488C162.677 47.5631 162.811 46.1724 162.825 46.0161C162.838 45.8694 162.73 45.7405 162.583 45.7279C162.435 45.7211 162.307 45.8235 162.294 45.9693C162.261 46.3507 162.105 47.4269 161.795 47.8193C161.185 48.5896 162.21 49.3279 162.962 48.8361Z" fill="white"/>
<path d="M163.986 46.3363C163.992 46.3337 164.499 46.0581 165.005 46.3902C165.127 46.4707 165.293 46.4366 165.373 46.3139C165.454 46.1909 165.42 46.0261 165.297 45.9456C164.523 45.4383 163.759 45.8529 163.727 45.8719C163.598 45.9431 163.552 46.1053 163.624 46.2335C163.696 46.362 163.859 46.4075 163.986 46.3363Z" fill="white"/>
<path d="M164.394 46.582C164.206 46.582 164.061 46.7333 164.061 46.9145C164.061 47.1016 164.206 47.247 164.394 47.247C164.575 47.247 164.727 47.102 164.727 46.9145C164.727 46.7329 164.575 46.582 164.394 46.582Z" fill="white"/>
<path d="M161.961 46.0155C162.042 45.8924 162.008 45.7277 161.885 45.6472C161.112 45.1406 160.347 45.5553 160.315 45.5738C160.186 45.6451 160.14 45.8073 160.212 45.9354C160.283 46.0639 160.447 46.1099 160.574 46.0382C160.579 46.0361 161.086 45.7605 161.592 46.0917C161.716 46.1731 161.881 46.1381 161.961 46.0155Z" fill="white"/>
<path d="M160.979 46.2832C160.792 46.2832 160.646 46.4345 160.646 46.6157C160.646 46.8028 160.792 46.9482 160.979 46.9482C161.161 46.9482 161.312 46.8032 161.312 46.6157C161.312 46.4345 161.161 46.2832 160.979 46.2832Z" fill="white"/>
<path d="M163.623 49.7233C163.565 49.5889 163.407 49.5278 163.272 49.5851C162.643 49.8586 162.201 49.6112 162.181 49.6003C162.056 49.5265 161.893 49.567 161.818 49.6917C161.742 49.8173 161.782 49.9812 161.908 50.0571C162.276 50.2745 162.888 50.3314 163.485 50.0735C163.62 50.0149 163.681 49.8582 163.623 49.7233Z" fill="white"/>
<path d="M175.084 72.4481L173.707 72.7115C173.563 72.7389 173.468 72.8788 173.496 73.0229C173.523 73.1649 173.66 73.2618 173.808 73.2344L175.185 72.9711C175.329 72.9437 175.424 72.8038 175.396 72.6596C175.369 72.5147 175.229 72.4207 175.084 72.4481Z" fill="white"/>
<path d="M150.175 49.1627L149.13 49.9317C149.011 50.0189 148.986 50.1854 149.074 50.3038C149.161 50.4222 149.329 50.4471 149.446 50.3599L150.491 49.5908C150.61 49.5036 150.635 49.3371 150.547 49.2187C150.46 49.1007 150.293 49.0746 150.175 49.1627Z" fill="white"/>
<path d="M59.5859 115.404C58.4705 115.404 57.6817 116.305 57.8205 117.421C57.9585 118.532 58.9723 119.437 60.0873 119.437C61.1985 119.437 61.9911 118.532 61.8527 117.421C61.7143 116.305 60.6972 115.404 59.5859 115.404Z" fill="white"/>
<path d="M104.73 28.887C98.0407 27.9911 94.1233 35.9489 98.6627 40.6959C101.414 43.5762 104.715 42.7566 105.219 42.8084C109.108 42.8084 112.19 39.6386 112.19 35.8477C112.19 32.348 109.589 28.887 104.73 28.887ZM109.845 33.5494C112.601 40.6589 102.673 45.8762 98.3492 39.4688C97.6224 38.39 97.2426 37.1376 97.2426 35.8465C97.2426 28.6354 107.297 26.7948 109.845 33.5494Z" fill="white"/>
<path d="M102.425 33.1124C100.528 33.1271 99.6641 35.4128 100.991 36.7453C102.968 38.5918 103.051 39.0862 103.755 39.0862C104.461 39.0862 104.584 38.5518 106.518 36.7453C108.495 34.7609 105.714 32.0163 103.755 33.5671C103.385 33.2746 102.545 33.133 102.425 33.1124Z" fill="white"/>
<path d="M92.6647 13.5036H95.0096C95.151 15.3872 94.6576 16.9346 95.4827 16.4344H97.6676C97.7068 16.4344 97.7457 16.4201 97.7777 16.3952L101.477 13.5032C108.104 13.464 102.957 13.5769 109.578 13.4151C109.677 13.4151 109.755 13.3371 109.755 13.2377V1.25725C109.755 1.1578 109.677 1.07984 109.578 1.07984H107.382C107.334 1.02674 107.265 0.992188 107.187 0.992188H92.6647C92.5174 0.992188 92.3984 1.11102 92.3984 1.25809V13.2368C92.398 13.3843 92.5174 13.5036 92.6647 13.5036ZM92.931 1.52442H106.92V12.9714C98.7142 12.992 99.1118 12.9204 98.9746 13.0278L95.5426 15.7117V13.2373C95.5426 13.0902 95.4236 12.9714 95.2763 12.9714H92.9315V1.52442H92.931Z" fill="white"/>
<path d="M157.132 23.0088C157.561 23.0088 157.981 22.9587 158.387 22.863C161.254 22.7766 163.509 20.4513 163.509 17.5959C163.509 14.73 161.207 12.3954 158.353 12.3263C157.96 12.2353 157.553 12.1826 157.132 12.1826C154.143 12.1826 151.711 14.6107 151.711 17.5955C151.711 20.5862 154.13 23.0088 157.132 23.0088ZM157.132 12.7153C159.828 12.7153 162.021 14.9049 162.021 17.5959C162.021 20.2904 159.841 22.477 157.132 22.477C154.431 22.477 152.244 20.2984 152.244 17.5959C152.244 14.9049 154.437 12.7153 157.132 12.7153Z" fill="white"/>
<path d="M154.356 18.6175C154.857 20.81 157.998 20.8159 158.501 18.6175C158.522 18.5155 158.443 18.4346 158.354 18.4346H154.503C154.414 18.4346 154.336 18.5159 154.356 18.6175Z" fill="white"/>
<path d="M154.545 17.1679C155.021 17.1679 155.408 16.7814 155.408 16.3061C155.408 15.8308 155.021 15.4443 154.545 15.4443C154.068 15.4443 153.682 15.8308 153.682 16.3061C153.681 16.7814 154.068 17.1679 154.545 17.1679Z" fill="white"/>
<path d="M158.641 17.1679C159.117 17.1679 159.504 16.7814 159.504 16.3061C159.504 15.8308 159.117 15.4443 158.641 15.4443C158.165 15.4443 157.778 15.8308 157.778 16.3061C157.778 16.7814 158.165 17.1679 158.641 17.1679Z" fill="white"/>
<path d="M96.2885 8.17853C97.0246 8.17853 97.6171 7.58141 97.6171 6.85196C97.6171 6.12252 97.0242 5.52539 96.2885 5.52539C95.558 5.52539 94.96 6.12252 94.96 6.85196C94.96 7.58141 95.558 8.17853 96.2885 8.17853Z" fill="white"/>
<path d="M99.9253 8.17853C100.661 8.17853 101.254 7.58141 101.254 6.85196C101.254 6.12252 100.661 5.52539 99.9253 5.52539C99.1947 5.52539 98.5967 6.12252 98.5967 6.85196C98.5967 7.58141 99.1947 8.17853 99.9253 8.17853Z" fill="white"/>
<path d="M103.563 8.17853C104.299 8.17853 104.892 7.58141 104.892 6.85196C104.892 6.12252 104.299 5.52539 103.563 5.52539C102.832 5.52539 102.234 6.12252 102.234 6.85196C102.234 7.58141 102.832 8.17853 103.563 8.17853Z" fill="white"/>
<path d="M115.016 61.1304L115.053 61.1009H116.728C116.759 61.1009 116.79 61.0895 116.816 61.0697L119.727 58.7786C124.994 58.7445 120.979 58.8456 126.253 58.6989C126.333 58.6989 126.395 58.6366 126.395 58.5574V48.9187C126.395 48.8394 126.333 48.7771 126.253 48.7771C123.55 48.6709 118.479 48.7109 112.769 48.6953C112.622 48.6953 112.503 48.8141 112.503 48.9612V58.5123C112.503 58.6593 112.622 58.7782 112.769 58.7782H114.585V60.9201C114.585 61.1431 114.842 61.2674 115.016 61.1304ZM113.036 58.2468V49.228H124.082V58.2468C117.635 58.267 117.903 58.1962 117.767 58.3033L115.118 60.3749V58.5127C115.118 58.3656 114.999 58.2468 114.852 58.2468H113.036Z" fill="white"/>
<path d="M116.854 53.9277L116.635 55.1983C116.57 55.5826 116.974 55.8759 117.319 55.6943L118.462 55.0946L119.606 55.6943C119.951 55.8755 120.355 55.5826 120.289 55.1979L120.071 53.9273L120.995 53.0281C121.274 52.7558 121.12 52.2813 120.733 52.2253L119.457 52.0407L118.885 50.8844C118.712 50.5346 118.213 50.5346 118.04 50.8844L117.469 52.0407L116.192 52.2253C115.806 52.2813 115.651 52.7554 115.931 53.0281L116.854 53.9277Z" fill="white"/>
<path d="M130.041 45.6003C130.154 45.6943 130.322 45.6783 130.416 45.5649C130.51 45.452 130.494 45.2843 130.381 45.1907C129.613 44.5565 128.782 44.0112 127.909 43.5683C127.777 43.5013 127.617 43.5532 127.55 43.6846C127.484 43.8157 127.536 43.9758 127.667 44.042C128.506 44.468 129.304 44.9918 130.041 45.6003Z" fill="white"/>
<path d="M156.223 38.0303C155.66 38.0303 155.205 38.4845 155.205 39.0463C155.205 39.608 155.66 40.0635 156.223 40.0635C156.785 40.0635 157.241 39.608 157.241 39.0463C157.241 38.4845 156.785 38.0303 156.223 38.0303Z" fill="white"/>
<path d="M145.725 9.31167L147.457 8.06264C147.577 7.97667 147.604 7.81022 147.517 7.69138C147.431 7.57255 147.265 7.54516 147.145 7.63154L145.412 8.88058C145.293 8.96654 145.266 9.13299 145.352 9.25183C145.438 9.37024 145.605 9.39848 145.725 9.31167Z" fill="white"/>
<path d="M18.0048 48.0001C18.567 48.0001 19.0236 47.5445 19.0236 46.9828C19.0236 46.4211 18.5674 45.9668 18.0048 45.9668C17.4423 45.9668 16.9873 46.4211 16.9873 46.9828C16.9873 47.5445 17.4423 48.0001 18.0048 48.0001Z" fill="white"/>
<path d="M4.08968 57.4222C4.53957 57.7088 4.97638 58.0261 5.38787 58.3666C5.50182 58.4605 5.66937 58.4445 5.76306 58.3316C5.85676 58.2182 5.84114 58.0505 5.72761 57.957C5.29882 57.6026 4.84429 57.2713 4.37624 56.973C4.25216 56.8946 4.08757 56.9308 4.00823 57.0547C3.92973 57.1786 3.96602 57.3434 4.08968 57.4222Z" fill="white"/>
<path d="M30.4143 63.0578C30.4143 61.7136 28.3779 61.714 28.3779 63.0578C28.3779 63.6196 30.4143 64.4042 30.4143 63.0578Z" fill="white"/>
<path d="M98.7299 70.2653L96.997 71.5147C96.878 71.6011 96.851 71.7671 96.9371 71.8864C97.0228 72.0044 97.1882 72.0326 97.3093 71.9462L99.0418 70.6968C99.1612 70.6112 99.1882 70.4448 99.1017 70.3251C99.0161 70.2071 98.8494 70.1785 98.7299 70.2653Z" fill="white"/>
<path d="M140.104 67.3763C140.104 66.8146 139.648 66.3604 139.085 66.3604C138.522 66.3604 138.067 66.8146 138.067 67.3763C138.067 67.9381 138.522 68.3936 139.085 68.3936C139.647 68.3936 140.104 67.9381 140.104 67.3763Z" fill="white"/>
<path d="M100.784 58.9962C100.429 59.0818 100.137 59.3734 100.051 59.7286C99.8687 60.4855 100.533 61.1509 101.291 60.9684C101.648 60.8824 101.94 60.5904 102.026 60.2343C102.209 59.4775 101.542 58.8142 100.784 58.9962Z" fill="white"/>
<path d="M71.9787 36.889C71.9787 36.3273 71.5225 35.873 70.9599 35.873C70.3973 35.873 69.9424 36.3273 69.9424 36.889C69.9424 37.4508 70.3973 37.9063 70.9599 37.9063C71.5225 37.9063 71.9787 37.4504 71.9787 36.889Z" fill="white"/>
<path d="M33.4317 40.3533C33.7883 40.2673 34.0808 39.9753 34.1669 39.6192C34.3496 38.8619 33.6832 38.1987 32.9252 38.3811C32.5694 38.4667 32.2774 38.7583 32.1917 39.1135C32.009 39.8699 32.6733 40.5358 33.4317 40.3533Z" fill="white"/>
<path d="M70.1943 18.1433C70.5509 18.0574 70.8434 17.7653 70.9294 17.4092C71.1122 16.652 70.4458 15.9887 69.6878 16.1712C69.332 16.2567 69.04 16.5483 68.9543 16.9036C68.772 17.6604 69.4359 18.3262 70.1943 18.1433Z" fill="white"/>
<path d="M116.442 27.6949C117.28 28.1206 118.079 28.6444 118.815 29.2529C118.928 29.3468 119.097 29.3308 119.191 29.2175C119.284 29.1045 119.268 28.9368 119.155 28.8433C118.388 28.2091 117.556 27.6638 116.683 27.2209C116.551 27.1534 116.392 27.2057 116.325 27.3372C116.258 27.4682 116.311 27.6284 116.442 27.6949Z" fill="white"/>
<path d="M111.478 16.982L113.211 15.7333C113.33 15.6478 113.357 15.4813 113.271 15.3617C113.184 15.2428 113.018 15.2146 112.899 15.3018L111.166 16.5509C111.047 16.6364 111.02 16.8029 111.106 16.9225C111.193 17.0418 111.36 17.0679 111.478 16.982Z" fill="white"/>
<path d="M91.3923 82.4203C91.3256 82.5514 91.3779 82.7115 91.5092 82.7777C92.3473 83.2033 93.1462 83.7271 93.8827 84.3356C93.9954 84.4296 94.1642 84.4136 94.2579 84.3002C94.3516 84.1873 94.3356 84.0195 94.2224 83.926C93.4552 83.2918 92.6233 82.7465 91.7506 82.3036C91.6185 82.2366 91.4589 82.2889 91.3923 82.4203Z" fill="white"/>
<path d="M124.173 4.48845C124.292 4.57442 124.459 4.54787 124.545 4.42861C124.631 4.30978 124.604 4.14332 124.485 4.05736L123.127 3.07887C123.008 2.9929 122.841 3.01903 122.756 3.1387C122.669 3.25754 122.696 3.42399 122.816 3.50996L124.173 4.48845Z" fill="white"/>
<path d="M127.911 15.5438C131.071 15.5438 133.586 15.0786 135.602 12.4823C136.655 11.122 137.209 9.49416 137.209 7.77232C137.209 3.52965 133.752 0.0779592 129.503 0.0779592H128.952C128.61 0.0320265 128.265 0 127.911 0C123.619 0 120.127 3.48625 120.127 7.7719C120.127 9.51397 120.689 11.1587 121.753 12.5291C123.242 14.4452 125.486 15.5438 127.911 15.5438ZM127.911 0.532229C131.909 0.532229 135.161 3.77997 135.161 7.7719C135.161 9.39471 134.637 10.9269 133.647 12.2029C130.738 15.9462 125.087 15.9517 122.174 12.2033C121.183 10.9273 120.66 9.39513 120.66 7.77232C120.66 3.77954 123.913 0.532229 127.911 0.532229Z" fill="white"/>
<path d="M123.474 5.88145V10.5805C123.474 10.937 123.767 11.2244 124.119 11.2244H125.611C125.875 11.2244 126.1 11.0659 126.2 10.8392C127.47 11.3352 126.276 11.1713 130.648 11.1945C131.382 11.1945 131.843 10.4334 131.496 9.80132C132.097 9.61422 132.351 8.93956 132.04 8.42377C132.717 8.13679 132.827 7.2135 132.195 6.78578C132.674 6.1718 132.239 5.26874 131.429 5.26874H129.259C129.535 4.35219 129.456 4.81658 129.467 3.9329C129.467 3.10948 128.796 2.43945 127.971 2.43945C127.525 2.43945 127.162 2.80228 127.162 3.2477V4.44616L126.335 5.67876L126.222 5.71542C126.147 5.44236 125.908 5.23798 125.61 5.23798H124.118C123.767 5.23755 123.474 5.52495 123.474 5.88145ZM126.587 6.15663C126.644 6.13809 126.694 6.101 126.727 6.05128L127.65 4.67456C127.68 4.63074 127.695 4.57933 127.695 4.52665C127.767 3.62738 127.516 2.97126 127.972 2.97126C129.189 2.97126 128.905 4.40529 128.934 4.51106C128.787 5.05762 128.4 5.80055 128.899 5.80055H131.429C131.886 5.80055 132.113 6.47142 131.452 6.61596C131.391 6.61596 130.494 6.61596 130.549 6.61596C130.196 6.61596 130.197 7.14819 130.549 7.14819H130.589C130.735 7.14819 131.761 7.14861 131.645 7.14861C132.234 7.14861 132.205 7.9657 131.673 7.9657C130.498 7.96486 130.119 7.86836 130.119 8.23161C130.119 8.89405 131.665 8.06852 131.641 8.91849C131.624 9.54596 130.652 9.23201 129.808 9.31376C129.456 9.31376 129.456 9.84599 129.808 9.84599C130.365 9.8717 131.156 9.69935 131.077 10.3095C130.995 10.945 130.079 10.5468 127.195 10.6627L126.257 10.2889V6.26367L126.587 6.15663ZM124.865 9.35127C125.085 9.35127 125.258 9.51561 125.285 9.72758V9.83714C125.258 10.0491 125.085 10.2135 124.865 10.2135C124.63 10.2135 124.433 10.0217 124.433 9.78236C124.433 9.54301 124.63 9.35127 124.865 9.35127Z" fill="white"/>
</g>
<defs>
<clipPath id="clip0_665_22849">
<rect width="181.477" height="133" fill="white"/>
</clipPath>
</defs>
</svg>
