<svg width="160" height="134" viewBox="0 0 160 134" fill="none" xmlns="http://www.w3.org/2000/svg">
<path d="M33.674 133.951C33.639 133.951 33.6035 133.942 33.5704 133.925C33.4621 133.868 33.4207 133.733 33.4778 133.625C37.8176 125.414 43.0986 117.69 49.1745 110.667C49.2546 110.574 49.3946 110.564 49.4877 110.644C49.5802 110.724 49.5904 110.865 49.5102 110.957C43.456 117.955 38.1943 125.651 33.8701 133.832C33.8305 133.907 33.7536 133.951 33.674 133.951Z" fill="black"/>
<path d="M28.1485 129.586C28.1048 129.586 28.0605 129.573 28.0223 129.546C27.9215 129.476 27.8966 129.338 27.9661 129.237C32.6237 122.513 37.9379 116.192 43.7614 110.449C43.8489 110.363 43.9894 110.364 44.0755 110.451C44.1616 110.539 44.1607 110.679 44.0732 110.765C38.269 116.489 32.9727 122.789 28.3309 129.491C28.288 129.552 28.219 129.586 28.1485 129.586Z" fill="black"/>
<path d="M0.221868 114.615C0.11411 114.615 0.019707 114.537 0.00266835 114.427C-0.0162123 114.306 0.0671388 114.193 0.188251 114.174C14.6412 111.936 28.5083 107.302 41.4038 100.401C41.512 100.343 41.6465 100.384 41.7045 100.492C41.7625 100.6 41.7215 100.735 41.6138 100.793C28.6741 107.717 14.7595 112.367 0.256866 114.613C0.244433 114.614 0.23292 114.615 0.221868 114.615Z" fill="black"/>
<path d="M1.64488 129.586C1.57074 129.586 1.49798 129.549 1.45607 129.481C1.3916 129.377 1.42384 129.24 1.52791 129.176L40.9691 104.758C41.0736 104.693 41.2104 104.726 41.2749 104.83C41.3394 104.934 41.3071 105.071 41.203 105.135L1.76185 129.553C1.72547 129.576 1.68494 129.586 1.64488 129.586Z" fill="black"/>
<path d="M55.7822 55.903C55.7822 55.2113 56.3431 54.6504 57.0348 54.6504C57.7265 54.6504 58.2874 55.2113 58.2874 55.903C58.2874 56.5946 57.7265 57.1555 57.0348 57.1555C56.3431 57.1551 55.7822 56.5946 55.7822 55.903Z" fill="white"/>
<path d="M57.0351 57.3778C56.2218 57.3778 55.5605 56.7165 55.5605 55.9032C55.5605 55.09 56.2218 54.4287 57.0351 54.4287C57.8483 54.4287 58.5096 55.09 58.5096 55.9032C58.5096 56.7165 57.8483 57.3778 57.0351 57.3778ZM57.0351 54.8731C56.4668 54.8731 56.0045 55.3354 56.0045 55.9037C56.0045 56.472 56.4668 56.9339 57.0351 56.9339C57.6033 56.9339 58.0652 56.4715 58.0652 55.9037C58.0652 55.3359 57.6033 54.8731 57.0351 54.8731Z" fill="black"/>
<path d="M108.928 29.2448C108.928 28.5531 109.489 27.9922 110.18 27.9922C110.872 27.9922 111.433 28.5531 111.433 29.2448C111.433 29.9364 110.872 30.4973 110.18 30.4973C109.488 30.4973 108.928 29.9364 108.928 29.2448Z" fill="white"/>
<path d="M110.18 30.7186C109.366 30.7186 108.705 30.0573 108.705 29.2441C108.705 28.4308 109.366 27.7695 110.18 27.7695C110.993 27.7695 111.654 28.4308 111.654 29.2441C111.654 30.0573 110.993 30.7186 110.18 30.7186ZM110.18 28.2139C109.611 28.2139 109.149 28.6763 109.149 29.2445C109.149 29.8128 109.611 30.2747 110.18 30.2747C110.748 30.2747 111.21 29.8123 111.21 29.2445C111.21 28.6763 110.748 28.2139 110.18 28.2139Z" fill="black"/>
<path d="M111.936 99.3209C111.936 98.1549 112.881 97.21 114.047 97.21C115.212 97.21 116.157 98.1549 116.157 99.3209C116.157 100.487 115.212 101.432 114.047 101.432C112.881 101.432 111.936 100.487 111.936 99.3209Z" fill="white"/>
<path d="M114.047 101.654C112.76 101.654 111.714 100.607 111.714 99.3212C111.714 98.035 112.761 96.9883 114.047 96.9883C115.333 96.9883 116.38 98.035 116.38 99.3212C116.38 100.607 115.333 101.654 114.047 101.654ZM114.047 97.4317C113.005 97.4317 112.158 98.2791 112.158 99.3207C112.158 100.362 113.005 101.21 114.047 101.21C115.088 101.21 115.936 100.362 115.936 99.3207C115.936 98.2791 115.088 97.4317 114.047 97.4317Z" fill="black"/>
<path d="M152.268 74.6644C142.381 74.9136 132.494 75.1631 122.607 75.4123C119.866 75.4813 116.84 75.4551 114.775 73.6849C112.431 71.6753 112.405 67.6252 114.725 65.598C117.044 63.5709 121.154 64.0507 122.93 66.5563C122.873 62.5044 127.032 59.1335 131.169 59.2873C135.306 59.4411 138.957 62.5398 140.451 66.3219C140.16 63.7754 143.229 61.7109 145.758 62.3754C148.287 63.0399 149.901 65.6731 150.009 68.233C151.867 65.587 156.596 65.7214 158.306 68.4688C158.761 69.1996 159.014 70.0654 158.926 70.9155C158.74 72.7303 157.032 74.1077 155.224 74.5438C153.415 74.9799 151.514 74.6769 152.268 74.6644Z" fill="white"/>
<path d="M121.382 75.6522C118.881 75.6522 116.411 75.3801 114.631 73.854C113.462 72.8524 112.788 71.3171 112.779 69.6417C112.771 67.9729 113.427 66.4385 114.579 65.4314C115.734 64.4215 117.37 63.9578 119.068 64.1585C120.532 64.3321 121.835 64.9773 122.73 65.9559C122.867 64.3584 123.632 62.8129 124.924 61.5502C126.601 59.9113 128.939 58.9815 131.177 59.0658C134.861 59.2031 138.481 61.7506 140.271 65.3715C140.427 64.5868 140.876 63.8403 141.572 63.2371C142.75 62.2161 144.416 61.7938 145.815 62.1613C148.369 62.8327 149.888 65.3429 150.183 67.6657C151.135 66.637 152.602 66.0586 154.215 66.1069C156.051 66.1576 157.651 66.9971 158.494 68.3514C159.003 69.1688 159.234 70.0875 159.147 70.9381C158.937 72.973 156.993 74.3453 155.276 74.7593C154.107 75.0411 152.471 75.066 152.027 74.8924L122.612 75.6343C122.204 75.6449 121.792 75.6522 121.382 75.6522ZM118.293 64.5564C116.987 64.5564 115.769 64.9814 114.871 65.7657C113.817 66.6876 113.216 68.0995 113.223 69.6394C113.231 71.1858 113.849 72.5991 114.92 73.5169C116.874 75.1922 119.668 75.2645 122.601 75.1908L152.196 74.4448C152.219 74.4439 152.242 74.4434 152.264 74.443C152.33 74.4388 152.402 74.4752 152.443 74.5286C152.933 74.5733 154.049 74.5991 155.172 74.3287C156.743 73.9502 158.518 72.7138 158.706 70.8939C158.784 70.1405 158.575 69.3212 158.118 68.5872C157.353 67.3595 155.89 66.5983 154.204 66.5513C152.519 66.5071 151.02 67.1813 150.192 68.3615C150.137 68.4394 150.039 68.4739 149.948 68.4472C149.856 68.4205 149.792 68.3385 149.788 68.2437C149.691 65.9425 148.256 63.2624 145.703 62.5914C144.442 62.2599 142.935 62.6453 141.864 63.5732C140.994 64.3261 140.56 65.3195 140.672 66.298C140.685 66.4085 140.613 66.5117 140.505 66.5389C140.397 66.5656 140.286 66.5089 140.245 66.4049C138.697 62.4869 134.962 59.6516 131.161 59.5107C129.037 59.4296 126.826 60.3133 125.235 61.8689C123.868 63.2044 123.129 64.8686 123.153 66.5545C123.154 66.6517 123.092 66.7387 123 66.7687C122.907 66.7986 122.806 66.7654 122.75 66.6858C121.942 65.5456 120.58 64.7853 119.016 64.6002C118.773 64.5707 118.532 64.5564 118.293 64.5564Z" fill="black"/>
<g opacity="0.1294">
<path d="M157.647 71.9514C157.643 71.9551 157.642 71.9565 157.64 71.9588C157.177 72.3074 157.213 72.3838 156.561 72.7061C156.137 72.8982 155.191 73.122 154.334 73.1464C153.395 73.1989 152.462 73.0221 151.523 73.0193C149.003 73.0101 146.482 73.0847 143.962 73.0488C140.722 73.092 137.482 73.1317 134.242 73.203C133.106 73.2472 131.975 73.361 130.842 73.4379C129.53 73.5194 128.216 73.5641 126.903 73.6396C124.938 73.682 122.968 73.8339 121.003 73.6926C120.684 73.664 120.319 73.559 120.072 73.8261C119.685 74.2019 119.964 74.9124 120.517 74.9C121.883 75.0685 123.265 75.0349 124.638 74.9972C125.169 74.9884 125.699 74.9741 126.228 74.9576C126.296 75.0773 126.419 75.1652 126.575 75.1597C128.184 75.291 129.801 75.2219 131.413 75.2762C135.202 75.4029 138.993 75.3568 142.777 75.1325C144.18 75.0566 145.585 75.011 146.988 74.9534C147.482 74.9308 147.976 74.9078 148.469 74.8839C148.616 74.8797 148.778 74.8811 148.886 74.7641C148.959 74.6932 148.993 74.597 148.994 74.5003C149.898 74.5095 150.803 74.5136 151.707 74.4998C151.927 74.4984 152.162 74.4966 152.405 74.4915C152.403 74.6228 152.461 74.7563 152.586 74.8245C152.723 74.9097 152.888 74.8613 153.039 74.8544C153.309 74.8295 153.579 74.7964 153.847 74.7605C154.317 74.6974 154.778 74.585 155.237 74.468C155.433 74.3994 155.661 74.3824 155.833 74.2645C155.934 74.1936 155.979 74.0946 155.985 73.9937C156.731 73.7441 157.409 73.3707 157.92 72.8098C158.073 72.6334 158.322 72.4893 158.325 72.2332C158.333 71.8906 157.884 71.7013 157.647 71.9514Z" fill="black"/>
</g>
<path d="M99.7627 130.285C105.437 130.372 111.114 130.234 116.777 129.871C117.513 129.823 118.269 129.767 118.93 129.442C120.606 128.618 120.99 126.043 119.707 124.686C118.425 123.329 115.953 123.481 114.751 124.91C114.638 122.814 113.011 120.757 110.918 120.612C109.578 120.519 108.267 121.191 107.336 122.158C106.405 123.126 105.806 124.364 105.329 125.619C105.169 124.727 104.267 124.106 103.364 124.023C102.462 123.939 101.573 124.285 100.778 124.721C99.6955 125.313 98.6631 126.151 98.2583 127.316C97.854 128.481 98.2841 130.262 99.7627 130.285Z" fill="white"/>
<path d="M103.042 130.532C101.946 130.532 100.852 130.524 99.7598 130.507C99.1676 130.498 98.6758 130.237 98.3368 129.753C97.8805 129.101 97.7621 128.069 98.049 127.243C98.4133 126.194 99.2956 125.28 100.672 124.526C101.711 123.956 102.573 123.726 103.385 123.802C104.129 123.871 104.944 124.292 105.337 124.995C105.739 124.023 106.305 122.909 107.176 122.004C108.235 120.904 109.639 120.301 110.933 120.391C112.889 120.526 114.595 122.288 114.923 124.418C115.544 123.873 116.376 123.554 117.273 123.528C118.29 123.499 119.237 123.866 119.869 124.534C120.541 125.245 120.827 126.308 120.634 127.376C120.449 128.405 119.864 129.231 119.029 129.641C118.309 129.995 117.468 130.049 116.792 130.092C112.237 130.385 107.625 130.532 103.042 130.532ZM99.7667 130.063C105.411 130.15 111.13 130.011 116.763 129.649C117.433 129.606 118.192 129.557 118.832 129.242C119.539 128.895 120.037 128.186 120.197 127.297C120.365 126.367 120.121 125.447 119.546 124.838C119.001 124.262 118.176 123.947 117.287 123.971C116.352 123.999 115.468 124.403 114.921 125.052C114.863 125.122 114.768 125.149 114.681 125.12C114.594 125.091 114.535 125.012 114.53 124.922C114.415 122.798 112.788 120.964 110.903 120.833C109.739 120.752 108.465 121.305 107.496 122.311C106.513 123.334 105.932 124.658 105.537 125.697C105.501 125.791 105.407 125.849 105.308 125.84C105.209 125.831 105.128 125.756 105.11 125.658C104.963 124.832 104.09 124.313 103.344 124.244C102.625 124.176 101.843 124.39 100.885 124.915C99.6083 125.615 98.7955 126.447 98.4685 127.388C98.2254 128.088 98.3207 128.956 98.7006 129.498C98.958 129.866 99.3163 130.056 99.7667 130.063Z" fill="black"/>
<g opacity="0.1294">
<path d="M120.508 127.154C120.486 126.811 120.054 126.612 119.768 126.791C119.69 126.84 119.629 126.905 119.585 126.982C119.577 126.993 119.568 127.004 119.561 127.015C119.382 127.249 119.28 127.513 118.894 127.725C118.539 127.971 116.131 128.433 115.795 128.439C114.614 128.523 113.427 128.643 112.241 128.58C111.62 128.55 110.998 128.584 110.376 128.585C109.693 128.582 109.009 128.549 108.327 128.587C106.566 128.641 104.812 128.785 103.054 128.887C102.209 128.898 101.365 128.929 100.521 128.957C100.24 128.964 99.9592 128.978 99.6783 128.991C99.5259 128.99 99.379 129.053 99.2712 129.16C98.9129 129.497 99.18 130.159 99.6783 130.142C101.038 130.074 102.4 130.107 103.76 130.061C105.222 129.999 106.681 129.885 108.145 129.88C108.972 129.842 109.798 129.912 110.624 129.925C111.478 129.912 112.332 129.925 113.185 129.917C114.367 129.856 115.38 129.728 116.28 129.602C116.348 129.838 116.577 130.028 116.878 129.947C117.503 129.863 118.137 129.775 118.721 129.526C118.985 129.41 119.278 129.282 119.45 129.043C119.534 128.895 119.536 128.748 119.488 128.623C119.588 128.555 119.689 128.482 119.793 128.399C120.092 128.12 120.386 127.786 120.491 127.381C120.494 127.372 120.495 127.363 120.497 127.354C120.497 127.353 120.498 127.353 120.498 127.352C120.52 127.287 120.523 127.221 120.508 127.154Z" fill="black"/>
</g>
<path d="M49.7505 6.28699C49.4033 6.38094 49.2145 5.86609 49.5226 5.68051C49.53 5.67637 49.5369 5.67176 49.5442 5.66761C50.4625 5.14034 53.3991 4.71115 53.8117 4.67431C54.2846 4.6324 54.7571 4.59004 55.1651 4.54076C54.0139 4.06506 52.2179 2.88664 50.9552 2.85854C50.6434 2.8719 50.515 2.4533 50.7857 2.29857C50.8166 2.28107 50.8479 2.26542 50.8801 2.2516C51.1394 2.14154 51.4304 2.13647 51.7127 2.1397C53.1988 2.15628 54.6305 3.04919 56.0686 3.41621C56.3426 3.48621 57.2337 3.75607 57.5399 3.78185C57.5621 2.51961 57.6818 1.54012 58.1248 0.496162C58.285 0.118088 58.828 0.136509 58.9647 0.523332L58.9693 0.536687C58.9822 1.40381 58.7769 1.73584 59.1775 3.51937C59.2949 4.0425 59.9691 4.60569 60.1929 5.09337C60.5102 5.78366 60.5793 6.55639 60.781 7.28813C61.1033 8.45873 61.7784 9.53216 62.6976 10.3367C62.6271 10.6461 61.9958 11.2139 61.2608 11.3663C60.4803 10.1386 59.1499 9.28579 57.8291 8.6701C57.2457 8.39794 56.6231 8.15019 55.9784 8.18058C55.5543 8.20084 55.1467 8.34038 54.7346 8.44123C53.5764 8.72444 51.756 9.20935 51.756 9.20935C51.2826 9.11909 51.576 8.72628 51.7519 8.67977L53.3503 7.9204C53.8241 7.79514 54.4684 7.53588 54.7732 7.12787C53.8734 6.70421 51.9872 7.46312 50.2626 7.77534C49.6985 7.87757 49.7763 7.44976 49.9287 7.22227C50.416 6.68625 54.1967 6.08483 54.9501 5.82465C54.9501 5.82465 51.1721 5.90247 49.7505 6.28699Z" fill="white"/>
<path d="M61.2609 11.5893C61.1859 11.5893 61.115 11.5511 61.0735 11.4866C60.4297 10.4745 59.3379 9.6193 57.7353 8.87236C57.0906 8.57166 56.5449 8.3764 55.9891 8.40357C55.693 8.41785 55.4024 8.49567 55.0948 8.5781C54.9926 8.60573 54.8899 8.63291 54.7872 8.65823C53.6447 8.93776 51.8317 9.42037 51.8132 9.42497C51.7815 9.43372 51.7474 9.43464 51.7147 9.42865C51.3311 9.35543 51.2814 9.11275 51.2777 9.01144C51.2694 8.77428 51.4739 8.53896 51.671 8.47311L53.2551 7.72065C53.2675 7.71466 53.2804 7.71006 53.2938 7.70637C53.7197 7.59401 54.0881 7.42777 54.3428 7.2385C53.7441 7.1639 52.8429 7.39093 51.8975 7.62947C51.3739 7.76163 50.8319 7.8984 50.3019 7.99419C49.9243 8.0628 49.7488 7.9311 49.6687 7.8086C49.5227 7.58572 49.618 7.28731 49.7442 7.09897C49.7502 7.08976 49.7571 7.08147 49.7645 7.07318C50.0523 6.75635 51.0893 6.47268 52.4874 6.16C51.4826 6.22908 50.4165 6.33684 49.8078 6.50124C49.5536 6.57031 49.2994 6.44321 49.1925 6.19178C49.0802 5.92791 49.1704 5.63273 49.4076 5.48997L49.4338 5.47477C50.4368 4.89868 53.4941 4.47963 53.7911 4.45338C53.9749 4.4368 54.1609 4.42022 54.3437 4.40318C54.1968 4.32996 54.0458 4.25306 53.8915 4.17431C52.9037 3.67052 51.7842 3.0995 50.9493 3.08062C50.715 3.09075 50.5054 2.93786 50.4363 2.69886C50.3687 2.46446 50.4644 2.22592 50.6749 2.10573C50.7131 2.08363 50.7527 2.06428 50.7928 2.04725C51.088 1.92153 51.4098 1.91416 51.7142 1.91784C52.69 1.9289 53.635 2.29868 54.5491 2.65603C55.0672 2.85865 55.6027 3.06818 56.1226 3.20081C56.1931 3.21877 56.3032 3.24962 56.4339 3.286C56.6845 3.35646 57.0588 3.46099 57.3232 3.51902C57.3563 2.40828 57.483 1.438 57.92 0.408775C58.0287 0.151814 58.2787 -0.00798141 58.5596 0.000307652C58.8396 0.00905722 59.0809 0.184971 59.1739 0.448839C59.1822 0.471404 59.191 0.508704 59.1914 0.532651C59.1951 0.771652 59.1827 0.971049 59.1707 1.16446C59.138 1.6922 59.1072 2.19092 59.3945 3.4702C59.4507 3.72025 59.6856 4.01452 59.913 4.29865C60.106 4.53995 60.2884 4.7679 60.3952 5.00045C60.6125 5.47385 60.7185 5.98087 60.8207 6.4713C60.8732 6.72228 60.9271 6.982 60.9952 7.22883C61.3047 8.35246 61.9614 9.39688 62.8437 10.1691C62.9049 10.223 62.9321 10.3059 62.9141 10.3856C62.8188 10.8051 62.0958 11.4199 61.3061 11.5838C61.2909 11.5875 61.2757 11.5893 61.2609 11.5893ZM56.0858 7.95688C56.73 7.95688 57.348 8.20187 57.9228 8.46988C59.535 9.22143 60.6609 10.0876 61.3599 11.1141C61.8757 10.9631 62.2856 10.608 62.4288 10.3948C61.5432 9.57786 60.8847 8.50212 60.567 7.3481C60.4951 7.08746 60.4394 6.82082 60.386 6.56294C60.2842 6.07527 60.188 5.61477 59.9913 5.18696C59.9071 5.00368 59.7417 4.79645 59.5663 4.57725C59.3075 4.25352 59.0399 3.91873 58.9612 3.56875C58.66 2.22776 58.6941 1.67378 58.7277 1.13821C58.7392 0.956774 58.7494 0.785006 58.748 0.581463C58.6899 0.45897 58.5804 0.446535 58.5458 0.445154C58.5122 0.443772 58.3856 0.450221 58.3289 0.583306C57.8864 1.62543 57.7818 2.61735 57.7616 3.78611C57.7602 3.84735 57.7339 3.90584 57.6884 3.94682C57.6428 3.98827 57.5824 4.00853 57.5207 4.00346C57.29 3.98412 56.8185 3.85564 56.3142 3.71427C56.188 3.67881 56.0812 3.64888 56.013 3.63184C55.4669 3.49231 54.918 3.27771 54.3875 3.07002C53.5107 2.72695 52.6044 2.37236 51.7096 2.36223C51.4416 2.35901 51.1833 2.36407 50.9664 2.45617C50.942 2.46676 50.918 2.47828 50.895 2.49163C50.8632 2.51005 50.8522 2.53814 50.8632 2.5759C50.8701 2.59985 50.8876 2.6413 50.9447 2.63715C51.8957 2.65787 53.0631 3.25376 54.0932 3.7792C54.515 3.99425 54.9134 4.1978 55.2491 4.33641C55.3421 4.37509 55.3978 4.4718 55.3845 4.57173C55.3706 4.67166 55.2914 4.74994 55.191 4.76237C54.7798 4.81211 54.2981 4.85493 53.8321 4.89638C53.4094 4.93414 50.5229 5.36241 49.6544 5.86114L49.6365 5.87127C49.5609 5.91686 49.5969 6.00804 49.601 6.01817C49.6314 6.08954 49.6756 6.07757 49.6922 6.07297C51.1234 5.68568 54.7899 5.60602 54.9456 5.60279C54.947 5.60279 54.9488 5.60279 54.9502 5.60279C55.0575 5.60279 55.1501 5.6797 55.1689 5.78561C55.1883 5.89337 55.1261 5.99883 55.023 6.03474C54.766 6.12362 54.2189 6.24059 53.5263 6.38841C52.3612 6.63754 50.4212 7.05246 50.1039 7.36099C50.0491 7.44987 50.0339 7.53967 50.0417 7.56638C50.0435 7.56454 50.061 7.5696 50.1011 7.5696C50.1297 7.5696 50.1693 7.56684 50.2231 7.55717C50.7384 7.46415 51.2726 7.32922 51.7893 7.1989C53.0663 6.87655 54.1696 6.5984 54.8682 6.9272C54.9286 6.95575 54.9732 7.00963 54.9889 7.0741C55.005 7.13903 54.9912 7.20719 54.9511 7.2606C54.5671 7.77499 53.7727 8.03655 53.4269 8.12957L51.8464 8.88066C51.834 8.88664 51.8211 8.89125 51.8082 8.89493C51.7865 8.90414 51.7497 8.94282 51.7313 8.97368C51.7373 8.97598 51.7442 8.97828 51.7525 8.98104C52.0633 8.89861 53.6456 8.47956 54.6813 8.22628C54.7807 8.20187 54.8802 8.17516 54.9792 8.14845C55.2956 8.06372 55.623 7.97577 55.9675 7.95919C56.0071 7.95781 56.0467 7.95688 56.0858 7.95688Z" fill="black"/>
<path d="M85.9764 51.0113C86.4977 50.8492 87.0572 50.8901 87.6015 50.9325C89.0861 51.0486 90.5708 51.1646 92.0559 51.2811C92.9189 51.3483 93.8924 51.4741 94.4073 52.1699C94.7513 52.6341 94.8015 53.2723 94.6348 53.8254C94.4681 54.3785 94.1079 54.8555 93.6944 55.2589C93.2578 55.6849 92.7393 56.0496 92.1462 56.1905C90.9116 56.4839 89.6747 55.7669 88.668 54.9937C87.8681 54.3789 87.111 53.7084 86.4042 52.9887C86.1532 52.7331 85.8995 52.4559 85.8074 52.1096C85.6757 51.6164 85.8985 51.1043 85.9764 51.0113Z" fill="white"/>
<path d="M91.5657 56.4806C90.3914 56.4806 89.2963 55.7577 88.5328 55.1705C87.7274 54.5516 86.9579 53.8701 86.2459 53.1452C85.9733 52.8675 85.6984 52.5631 85.593 52.1676C85.4428 51.6053 85.6814 51.0191 85.8057 50.8694C85.8333 50.8363 85.8697 50.8123 85.9107 50.7994C86.4799 50.6226 87.085 50.67 87.6192 50.7115L92.0736 51.0601C92.9923 51.1319 94.0197 51.2728 94.5861 52.0382C94.9508 52.5309 95.0489 53.223 94.8477 53.8899C94.6888 54.4185 94.3623 54.9186 93.8498 55.4187C93.3133 55.9419 92.7575 56.2743 92.1975 56.4074C91.9857 56.4581 91.7743 56.4806 91.5657 56.4806ZM86.1202 51.2014C86.0502 51.3433 85.9305 51.7108 86.0221 52.0534C86.1 52.3449 86.3224 52.5889 86.5628 52.8339C87.2604 53.5445 88.0143 54.2122 88.8036 54.8182C89.6311 55.4542 90.8717 56.2661 92.0953 55.9755C92.576 55.8613 93.0619 55.567 93.5399 55.1005C93.9971 54.6548 94.2859 54.2168 94.4226 53.7618C94.5806 53.2364 94.5065 52.6773 94.2292 52.3025C93.7738 51.6873 92.8597 51.5671 92.0386 51.5031L87.5842 51.1545C87.0933 51.1162 86.5867 51.0766 86.1202 51.2014Z" fill="black"/>
<path d="M74.5434 51.6274C76.6245 44.7512 78.1763 37.7151 78.7994 30.2462C74.6558 27.1259 66.1798 26.1653 64.37 22.2505C61.9832 17.0874 59.7309 13.0902 58.9688 9.49734C58.9688 9.49734 62.4621 8.35576 62.3419 8.32812C63.2712 11.0575 66.4225 15.6607 69.0938 19.4792C70.3782 21.3148 76.7543 21.1946 80.6695 22.3454C88.0615 24.6949 91.8929 23.3014 95.611 29.5546C97.984 33.5453 97.7731 40.2475 104.817 49.8618C103.766 50.9288 102.636 51.9189 101.41 52.6916C100.206 51.049 99.0031 49.4064 97.7993 47.7633C96.8954 46.5296 95.9872 45.2895 95.2896 43.9283C94.5385 42.4634 94.0435 40.8834 93.5526 39.3122C93.1063 37.8846 92.6596 36.4571 92.0582 34.9038C90.143 41.6092 89.222 49.1439 85.2372 54.6704C81.5376 53.9166 77.6362 53.0628 74.5434 51.6274Z" fill="white"/>
<path d="M85.2372 54.8918C85.2225 54.8918 85.2078 54.8904 85.193 54.8872C81.4496 54.1246 77.5363 53.2602 74.45 51.828C74.3496 51.7815 74.2989 51.6682 74.3311 51.5623C76.6097 44.034 77.9958 37.0938 78.5678 30.3502C76.8998 29.1284 74.5135 28.2268 72.2045 27.3546C68.6407 26.0085 65.2749 24.7366 64.1683 22.3434C63.5756 21.0609 62.9959 19.8604 62.435 18.6994C60.7689 15.2489 59.3293 12.269 58.7509 9.54323C58.7274 9.43225 58.7915 9.32127 58.8992 9.28581C60.0463 8.91096 61.9022 8.29158 62.1946 8.1608C62.2475 8.11429 62.3208 8.09495 62.3907 8.11106C62.4773 8.13087 62.545 8.20179 62.5621 8.28698C63.4835 10.9584 66.509 15.3972 69.2753 19.351C70.0194 20.4148 72.8686 20.8099 75.6242 21.1917C77.4013 21.438 79.2392 21.6927 80.7312 22.1311C82.8141 22.7933 84.616 23.1576 86.2061 23.479C90.3475 24.3166 93.0838 24.8697 95.8012 29.4402C96.6389 30.8493 97.1638 32.6034 97.7717 34.6351C98.9515 38.5775 100.42 43.4842 104.996 49.7295C105.061 49.8175 105.052 49.9391 104.975 50.0169C103.767 51.2414 102.64 52.1771 101.528 52.8784C101.429 52.9406 101.3 52.9157 101.231 52.8218L97.6197 47.894C96.725 46.6727 95.7994 45.4095 95.0916 44.029C94.3303 42.5434 93.8266 40.9339 93.3398 39.3779C92.9613 38.1667 92.5726 36.9243 92.0891 35.6146C91.6811 37.1007 91.3108 38.6388 90.9512 40.1331C89.7083 45.2935 88.4235 50.6298 85.4168 54.8001C85.3749 54.8582 85.3077 54.8918 85.2372 54.8918ZM74.8119 51.5057C77.7886 52.8527 81.5366 53.6876 85.1401 54.4239C88.0366 50.3411 89.2989 45.0996 90.5197 40.0295C90.9332 38.3118 91.361 36.5356 91.8446 34.8428C91.8708 34.7512 91.9528 34.6863 92.0481 34.6821C92.1443 34.6789 92.2309 34.7351 92.265 34.8239C92.8687 36.3818 93.3228 37.8352 93.7626 39.2406C94.2456 40.7847 94.743 42.3757 95.4871 43.8273C96.1788 45.1765 97.0938 46.425 97.9785 47.6324L101.466 52.3922C102.452 51.7488 103.457 50.9112 104.526 49.84C99.9918 43.6025 98.4643 38.4983 97.3466 34.7636C96.7475 32.7604 96.2295 31.0303 95.4199 29.6686C92.8029 25.2676 90.1435 24.7297 86.1182 23.9155C84.517 23.5918 82.7026 23.2248 80.6014 22.5571C79.1452 22.1293 77.324 21.8769 75.563 21.6328C72.5822 21.2198 69.7662 20.8293 68.911 19.6066C66.1941 15.7232 63.227 11.3714 62.2125 8.63005C61.8165 8.79537 60.9812 9.0726 59.2276 9.64592C59.8216 12.268 61.2206 15.1646 62.8342 18.5065C63.3956 19.6692 63.9763 20.8716 64.5703 22.1573C65.6005 24.3862 68.8838 25.6263 72.3602 26.9397C74.7442 27.8404 77.2093 28.7716 78.9316 30.0688C78.9924 30.1148 79.0255 30.1885 79.0195 30.2645C78.4568 37.0224 77.0799 43.9723 74.8119 51.5057Z" fill="black"/>
<path d="M87.7777 19.4863C87.0583 21.0479 86.217 22.5533 85.1357 24.0978C85.4222 25.1155 85.873 26.1042 86.4675 27.0183C86.6315 27.2702 86.8295 27.5345 87.1233 27.634C87.4659 27.7501 87.8196 27.6059 88.129 27.4641C88.9169 27.1035 89.7514 26.701 90.1382 25.9652C90.3063 25.6456 90.3763 25.2841 90.4444 24.9276C90.7032 23.5765 90.9616 22.2254 91.2204 20.8743C90.4343 20.4861 89.6482 20.0979 88.8621 19.7097C88.5098 19.5365 88.1359 19.3574 87.7777 19.4863Z" fill="white"/>
<path d="M87.386 27.8987C87.276 27.8987 87.1641 27.8826 87.0522 27.8448C86.7004 27.7255 86.4738 27.4354 86.2818 27.1398C85.6734 26.2045 85.2162 25.2011 84.9224 24.1585C84.9044 24.0945 84.9159 24.0254 84.9541 23.9711C85.9645 22.5274 86.8224 21.0303 87.5767 19.3941C87.6016 19.3402 87.6472 19.2983 87.7029 19.2781C88.156 19.1146 88.6022 19.3347 88.9605 19.5115L91.3187 20.6762C91.4085 20.7204 91.4574 20.8189 91.4385 20.917L90.6625 24.9703C90.5921 25.3383 90.5193 25.7187 90.3347 26.0696C89.9312 26.8372 89.1387 27.2471 88.2214 27.6666C87.9672 27.7831 87.6822 27.8987 87.386 27.8987ZM85.3783 24.1387C85.6605 25.1021 86.0893 26.03 86.6538 26.8976C86.8026 27.1264 86.9711 27.3484 87.1945 27.4244C87.4537 27.5119 87.7526 27.3926 88.0367 27.2627C88.879 26.8773 89.6034 26.5061 89.9418 25.8628C90.0957 25.5699 90.1624 25.2227 90.2264 24.887L90.9706 20.9994L88.7639 19.9099C88.4954 19.7773 88.1938 19.6294 87.9359 19.6741C87.1968 21.2651 86.3587 22.7277 85.3783 24.1387Z" fill="black"/>
<path d="M70.8707 72.434L54.1255 67.3564L35.2236 86.85L63.0684 82.064L70.8707 72.434Z" fill="white"/>
<path d="M35.2239 87.0725C35.1424 87.0725 35.0664 87.0279 35.0278 86.9542C34.9826 86.869 34.9978 86.7649 35.0646 86.6958L53.9669 67.2023C54.0249 67.1424 54.111 67.1203 54.1907 67.1443L70.936 72.2218C71.0069 72.2429 71.0621 72.2987 71.0838 72.3691C71.1054 72.4396 71.0907 72.5165 71.0442 72.5741L63.2419 82.2041C63.2083 82.246 63.1599 82.2741 63.1069 82.2833L35.2617 87.0693C35.2488 87.0716 35.2364 87.0725 35.2239 87.0725ZM54.1911 67.6089L35.8571 86.5167L62.949 81.8601L70.4911 72.5515L54.1911 67.6089Z" fill="black"/>
<path d="M88.3892 93.4736L86.6398 110.884L61.3779 120.84L76.4999 96.9748L88.3892 93.4736Z" fill="white"/>
<path d="M61.3774 121.062C61.3124 121.062 61.2494 121.034 61.2061 120.982C61.1448 120.908 61.1384 120.803 61.1899 120.722L76.3124 96.8561C76.3414 96.8105 76.3856 96.7773 76.4372 96.7621L88.3265 93.2609C88.3974 93.2402 88.4739 93.2559 88.531 93.3028C88.5881 93.3498 88.6175 93.4226 88.6102 93.4958L86.8607 110.906C86.8524 110.989 86.7985 111.06 86.7212 111.09L61.4589 121.047C61.4326 121.057 61.405 121.062 61.3774 121.062ZM76.6426 97.1642L61.9295 120.384L86.4324 110.727L88.1354 93.7795L76.6426 97.1642Z" fill="black"/>
<path d="M67.0688 99.9928C62.5425 103.996 61.4723 106.485 59.7804 108.879C54.5049 104.07 50.6403 98.4851 48.3691 92.307C52.86 91.5361 55.7565 90.2974 59.1914 88.6709C61.6464 92.7427 64.6848 96.3747 67.0688 99.9928Z" fill="white"/>
<path d="M59.78 109.102C59.7247 109.102 59.6713 109.081 59.6303 109.044C54.2949 104.18 50.4359 98.5748 48.1601 92.3842C48.1375 92.3225 48.1431 92.2534 48.1762 92.1963C48.2094 92.1392 48.266 92.0996 48.331 92.0886C52.872 91.3089 55.7741 90.0435 59.0957 88.4704C59.1984 88.422 59.3218 88.4589 59.3807 88.5565C60.8097 90.9267 62.4435 93.1556 64.0231 95.3112C65.1729 96.8801 66.2593 98.3625 67.2535 99.8715C67.3143 99.9636 67.2977 100.087 67.2153 100.16C63.6883 103.28 62.2681 105.481 61.0151 107.423C60.6623 107.971 60.3285 108.488 59.961 109.008C59.9241 109.06 59.867 109.094 59.8035 109.1C59.7957 109.101 59.7878 109.102 59.78 109.102ZM48.6699 92.4805C50.9052 98.4325 54.6283 103.835 59.7431 108.545C60.0503 108.1 60.339 107.653 60.6425 107.182C61.8937 105.243 63.3093 103.048 66.7769 99.9553C65.8176 98.5103 64.7709 97.0823 63.6653 95.5737C62.1175 93.4623 60.5186 91.2808 59.1049 88.9576C55.8906 90.4754 53.0336 91.7027 48.6699 92.4805Z" fill="black"/>
<path d="M58.2472 91.3042C59.4823 93.9687 61.1553 96.4061 63.2018 98.5065C65.1028 100.458 67.3205 102.153 69.7769 103.487C70.4289 103.841 70.3884 103.549 71.0746 103.853C79.1974 101.759 112.181 80.4943 121.617 73.7627C141.291 59.727 146.834 33.762 146.834 33.762C146.834 33.762 120.479 30.5541 100.805 44.5898C90.9609 51.6125 60.5944 76.872 56.0322 84.1143C56.4545 86.6282 57.201 89.0477 58.2472 91.3042Z" fill="white"/>
<path d="M71.0738 104.075C71.043 104.075 71.0121 104.068 70.984 104.055C70.6934 103.927 70.5608 103.919 70.4213 103.911C70.2412 103.901 70.0552 103.89 69.6707 103.681C67.2235 102.352 64.9933 100.663 63.0422 98.6606C60.9796 96.5442 59.2983 94.1003 58.0452 91.3971C56.9889 89.1186 56.2378 86.6802 55.8127 84.1507C55.8035 84.0968 55.8146 84.0415 55.844 83.9955C60.4072 76.7517 90.5549 51.6285 100.675 44.4083C110.878 37.1296 122.892 34.5627 131.174 33.691C140.143 32.747 146.794 33.533 146.861 33.5409C146.922 33.5482 146.978 33.5814 147.015 33.6325C147.051 33.6832 147.064 33.7467 147.051 33.808C147.037 33.8733 145.616 40.4185 141.804 48.5924C138.285 56.1396 131.948 66.6644 121.746 73.9431C112.711 80.3888 79.4642 101.919 71.13 104.068C71.1111 104.072 71.0927 104.075 71.0738 104.075ZM56.2654 84.1612C56.6863 86.6217 57.4208 88.9928 58.4487 91.2106C59.6805 93.8682 61.3332 96.2706 63.3604 98.3512C65.2802 100.322 67.4745 101.984 69.8825 103.291C70.1795 103.453 70.2974 103.46 70.4461 103.468C70.5926 103.476 70.7726 103.486 71.0913 103.618C79.1474 101.464 111.899 80.4215 121.487 73.5812C131.608 66.3614 137.9 55.9107 141.397 48.4151C144.78 41.1631 146.27 35.2042 146.562 33.9553C145.286 33.825 139.166 33.295 131.209 34.134C122.983 35.0011 111.054 37.55 100.933 44.7702C90.8662 51.9522 60.9561 76.8632 56.2654 84.1612Z" fill="black"/>
<path d="M70.2866 99.5132C67.1078 97.2107 64.4852 94.1096 62.4166 90.7922C61.2571 88.9322 60.3108 86.9718 59.5496 84.9171C59.1572 83.8579 58.815 82.7762 58.5539 81.677C58.5088 81.4872 58.466 81.2966 58.4241 81.1055C57.3543 82.2949 56.536 83.314 56.0322 84.1135C56.4545 86.6274 57.201 89.0464 58.2472 91.3033C59.4823 93.9678 61.1553 96.4052 63.2018 98.5056C65.1028 100.457 67.3205 102.152 69.7769 103.486C70.4289 103.84 70.3884 103.548 71.0746 103.853C72.1125 103.585 73.5576 103.003 75.3066 102.18C73.5129 101.542 71.8289 100.63 70.2866 99.5132Z" fill="white"/>
<path d="M71.0738 104.074C71.043 104.074 71.0121 104.068 70.984 104.055C70.6934 103.926 70.5608 103.918 70.4213 103.91C70.2412 103.9 70.0552 103.89 69.6707 103.68C67.2235 102.351 64.9933 100.662 63.0422 98.6601C60.9796 96.5436 59.2987 94.0997 58.0452 91.3966C56.9889 89.118 56.2378 86.6796 55.8127 84.1501C55.8035 84.0962 55.8146 84.0414 55.844 83.9949C56.3372 83.2116 57.1496 82.1892 58.2589 80.9565C58.3146 80.8943 58.4003 80.869 58.4809 80.8902C58.5615 80.9118 58.6232 80.9763 58.6411 81.0578C58.6826 81.2475 58.7254 81.4372 58.7701 81.6256C59.0137 82.6525 59.337 83.7038 59.7574 84.8399C60.5255 86.9131 61.4834 88.8762 62.6047 90.6749C64.8685 94.306 67.4971 97.2192 70.4162 99.3338C71.9847 100.47 73.6549 101.357 75.38 101.971C75.4647 102.001 75.5232 102.079 75.5273 102.169C75.5319 102.258 75.4817 102.342 75.4002 102.38C73.5771 103.239 72.1403 103.806 71.1295 104.067C71.1111 104.072 71.0927 104.074 71.0738 104.074ZM56.2654 84.1607C56.6863 86.6211 57.4208 88.9923 58.4487 91.2101C59.6805 93.8676 61.3332 96.2701 63.3604 98.3506C65.2802 100.321 67.4745 101.983 69.8825 103.291C70.1795 103.452 70.2974 103.459 70.4461 103.467C70.5926 103.476 70.7722 103.486 71.0913 103.618C71.9805 103.38 73.2023 102.905 74.7302 102.203C73.1429 101.587 71.6066 100.744 70.1556 99.6934C67.1895 97.5447 64.5222 94.5897 62.2275 90.9098C61.0901 89.0858 60.1189 87.0955 59.3406 84.9942C58.9133 83.8411 58.585 82.7727 58.3372 81.7283C58.3252 81.6776 58.3133 81.6265 58.3018 81.5759C57.3886 82.6097 56.7043 83.4777 56.2654 84.1607Z" fill="black"/>
<path d="M114.08 44.8591C115.343 47.1842 116.672 49.4715 118.106 51.6893C119.535 53.9006 121.07 56.0438 122.747 58.076C124.401 60.0806 126.195 61.9755 128.157 63.7075C128.929 64.3886 129.729 65.0374 130.551 65.6609C143.032 51.5686 146.833 33.7619 146.833 33.7619C146.833 33.7619 128.508 31.5317 111.012 38.9287C112.004 40.9232 113.019 42.9047 114.08 44.8591Z" fill="white"/>
<path d="M130.551 65.8832C130.504 65.8832 130.457 65.8685 130.417 65.8381C129.565 65.1916 128.754 64.5307 128.01 63.8741C126.14 62.2236 124.312 60.3204 122.576 58.2177C120.978 56.2817 119.456 54.186 117.919 51.8098C116.587 49.749 115.267 47.5101 113.885 44.9649C112.921 43.1905 111.945 41.3039 110.813 39.0271C110.786 38.9723 110.782 38.9088 110.804 38.8512C110.825 38.7937 110.869 38.7476 110.926 38.7237C119.993 34.8904 129.279 33.6853 135.472 33.3491C142.182 32.9849 146.814 33.5352 146.861 33.5407C146.922 33.5481 146.978 33.5812 147.014 33.6323C147.051 33.683 147.064 33.7465 147.051 33.8078C147.041 33.8525 146.068 38.3497 143.579 44.5099C141.282 50.1948 137.185 58.5051 130.718 65.8082C130.674 65.8579 130.613 65.8832 130.551 65.8832ZM114.275 44.753C115.652 47.2881 116.967 49.5174 118.292 51.5685C119.819 53.9299 121.332 56.0123 122.919 57.9345C124.639 60.0196 126.451 61.9059 128.304 63.5407C128.993 64.1481 129.738 64.7587 130.522 65.3587C136.867 58.1431 140.896 49.9627 143.163 44.3529C145.314 39.0317 146.327 34.9623 146.562 33.9552C145.526 33.8492 141.289 33.4776 135.486 33.7931C129.38 34.1251 120.252 35.3063 111.317 39.041C112.402 41.2191 113.344 43.039 114.275 44.753Z" fill="black"/>
<path d="M130.556 59.1997C129.013 57.5497 127.548 55.8265 126.166 54.0393C124.775 52.241 123.464 50.3815 122.249 48.4598C121.044 46.5542 119.925 44.592 118.916 42.5759C117.995 40.7372 117.154 38.8574 116.394 36.9463C114.605 37.5146 112.805 38.1698 111.013 38.9274C112.004 40.9218 113.019 42.9034 114.081 44.8577C115.343 47.1828 116.672 49.4701 118.106 51.6879C119.536 53.8993 121.071 56.0424 122.748 58.0747C124.402 60.0792 126.195 61.9742 128.158 63.7061C128.929 64.3872 129.729 65.0361 130.552 65.6596C131.575 64.5042 132.537 63.323 133.447 62.1294C132.453 61.1826 131.492 60.1999 130.556 59.1997Z" fill="white"/>
<path d="M130.551 65.8822C130.504 65.8822 130.457 65.8675 130.417 65.8371C129.565 65.1905 128.754 64.5297 128.01 63.873C126.14 62.2226 124.312 60.3193 122.576 58.2167C120.978 56.2807 119.456 54.185 117.919 51.8088C116.587 49.748 115.267 47.509 113.885 44.9638C112.921 43.1895 111.945 41.3028 110.813 39.0261C110.786 38.9713 110.782 38.9078 110.804 38.8502C110.825 38.7926 110.869 38.7466 110.926 38.7226C112.648 37.9946 114.465 37.3255 116.326 36.7342C116.437 36.6987 116.556 36.7554 116.599 36.864C117.354 38.7632 118.2 40.6517 119.113 42.4762C120.086 44.4172 121.203 46.3905 122.436 48.3412C123.614 50.2048 124.928 52.0763 126.341 53.9036C127.717 55.683 129.189 57.414 130.718 59.0483C131.73 60.1305 132.672 61.0861 133.599 61.9688C133.68 62.0471 133.691 62.1742 133.622 62.264C132.672 63.5115 131.694 64.7033 130.717 65.8071C130.674 65.8569 130.613 65.8822 130.551 65.8822ZM111.317 39.0404C112.402 41.2176 113.345 43.038 114.275 44.752C115.652 47.2871 116.967 49.5164 118.292 51.5675C119.819 53.9289 121.332 56.0113 122.919 57.9335C124.639 60.0186 126.451 61.9048 128.304 63.5396C128.993 64.147 129.738 64.7576 130.522 65.3577C131.405 64.3529 132.287 63.2762 133.149 62.1521C132.263 61.3016 131.36 60.3833 130.394 59.3509C128.856 57.7064 127.374 55.9648 125.99 54.1744C124.568 52.336 123.246 50.453 122.061 48.5774C120.82 46.6147 119.695 44.6286 118.717 42.6742C117.829 40.8999 117.004 39.0657 116.264 37.2195C114.563 37.7671 112.9 38.3786 111.317 39.0404Z" fill="black"/>
<path d="M111.44 67.5789C112.271 62.7811 109.055 58.2183 104.257 57.3876C99.4592 56.5569 94.8964 59.7728 94.0657 64.5706C93.235 69.3684 96.4509 73.9312 101.249 74.762C106.047 75.5927 110.609 72.3767 111.44 67.5789Z" fill="white"/>
<path d="M102.779 75.1144C102.277 75.1144 101.773 75.0725 101.268 74.9882C98.8871 74.5899 96.8038 73.288 95.4016 71.3226C93.9993 69.3572 93.4467 66.9635 93.8446 64.5822C94.2429 62.201 95.5448 60.1176 97.5102 58.7154C99.4756 57.3132 101.869 56.7596 104.251 57.1584C106.632 57.5568 108.716 58.8586 110.117 60.8241C111.52 62.7895 112.073 65.1832 111.674 67.5644C111.276 69.9457 109.974 72.029 108.009 73.4313C106.46 74.5369 104.644 75.1144 102.779 75.1144ZM102.741 57.4771C100.967 57.4771 99.2412 58.026 97.7681 59.0774C95.8994 60.4105 94.6615 62.3921 94.2825 64.6564C93.904 66.9207 94.4294 69.1969 95.7626 71.0656C97.0958 72.9344 99.0773 74.1722 101.342 74.5512C103.606 74.9302 105.882 74.4043 107.751 73.0711C109.62 71.738 110.857 69.7564 111.236 67.4921C111.615 65.2278 111.09 62.9516 109.756 61.0829C108.423 59.2141 106.442 57.9763 104.177 57.5973C103.698 57.5167 103.218 57.4771 102.741 57.4771Z" fill="black"/>
<path d="M99.0942 60.9374C101.931 58.9135 105.872 59.5725 107.896 62.4096C109.92 65.2468 109.261 69.1878 106.424 71.2117C103.587 73.2356 99.6459 72.5766 97.622 69.7395C95.5981 66.9023 96.257 62.9618 99.0942 60.9374Z" fill="white"/>
<path d="M102.774 72.6087C102.411 72.6087 102.046 72.5783 101.682 72.5176C99.9613 72.2297 98.4555 71.2889 97.4419 69.8683C96.4283 68.4476 96.0286 66.7175 96.3169 64.9966C96.6047 63.2757 97.5455 61.7699 98.9662 60.7563C101.898 58.6642 105.986 59.3481 108.078 62.2806C109.092 63.7012 109.491 65.4313 109.203 67.1522C108.915 68.8731 107.975 70.379 106.554 71.3926C105.434 72.1915 104.122 72.6087 102.774 72.6087ZM99.2236 61.1178C97.8996 62.0623 97.0228 63.4659 96.7544 65.0698C96.4863 66.6738 96.8584 68.2865 97.8029 69.6104C98.7474 70.9343 100.151 71.8111 101.755 72.0796C103.358 72.3476 104.972 71.9755 106.296 71.0311C107.619 70.0866 108.496 68.6829 108.765 67.079C109.033 65.4751 108.661 63.8624 107.716 62.5385C105.766 59.8058 101.957 59.1689 99.2236 61.1178Z" fill="black"/>
<path d="M78.439 90.274C82.5306 89.7944 85.4587 86.0888 84.9792 81.9972C84.4997 77.9056 80.7941 74.9774 76.7025 75.4569C72.6108 75.9365 69.6827 79.6421 70.1622 83.7337C70.6417 87.8253 74.3474 90.7535 78.439 90.274Z" fill="white"/>
<path d="M77.5782 90.5471C75.1781 90.5471 72.812 89.4281 71.3149 87.3296C70.1231 85.6593 69.6534 83.6253 69.9919 81.6014C70.3304 79.5779 71.4369 77.8073 73.1067 76.6155C74.777 75.4237 76.811 74.9545 78.8349 75.2925C80.8584 75.631 82.629 76.7371 83.8208 78.4073C85.0126 80.0776 85.4823 82.1116 85.1438 84.1355C84.8054 86.159 83.6992 87.9301 82.029 89.1214C80.6793 90.0848 79.1218 90.5471 77.5782 90.5471ZM77.5524 75.63C76.0586 75.63 74.6052 76.0924 73.3646 76.9775C71.7911 78.1002 70.7485 79.7686 70.4298 81.6751C70.1107 83.5815 70.5537 85.4982 71.6764 87.0722C73.9941 90.3206 78.5222 91.0781 81.7711 88.7608C83.3446 87.6381 84.3872 85.9697 84.7059 84.0632C85.025 82.1568 84.582 80.2401 83.4593 78.6661C82.3366 77.0926 80.6682 76.05 78.7617 75.7313C78.3579 75.6632 77.9535 75.63 77.5524 75.63Z" fill="black"/>
<path d="M74.467 78.5235C76.8672 76.8109 80.2017 77.3685 81.9138 79.7691C83.6265 82.1693 83.0688 85.5038 80.6682 87.2159C78.268 88.9285 74.9335 88.3709 73.2214 85.9703C71.5092 83.5701 72.0669 80.2361 74.467 78.5235Z" fill="white"/>
<path d="M77.5794 88.4321C77.2708 88.4321 76.9604 88.4063 76.6501 88.3548C75.1852 88.1098 73.9032 87.309 73.0406 86.0997C71.2599 83.6033 71.8424 80.1237 74.3379 78.343C75.5472 77.4804 77.0194 77.1401 78.4847 77.3851C79.9496 77.6301 81.2316 78.4309 82.0941 79.6402C82.9567 80.8495 83.297 82.3222 83.052 83.787C82.807 85.2519 82.0062 86.5339 80.7964 87.3965C79.8441 88.0766 78.7269 88.4321 77.5794 88.4321ZM77.5568 77.7517C76.5009 77.7517 75.473 78.0786 74.5962 78.704C72.2992 80.3425 71.7637 83.5443 73.4021 85.8413C74.196 86.9539 75.3754 87.6912 76.7237 87.9164C78.0726 88.1415 79.4269 87.8289 80.5395 87.035C81.6521 86.241 82.3893 85.0617 82.6145 83.7133C82.8401 82.3655 82.527 81.0102 81.7331 79.8976C80.9392 78.785 79.7598 78.0482 78.4115 77.8226C78.126 77.7752 77.8405 77.7517 77.5568 77.7517Z" fill="black"/>
<path d="M86.146 29.2977C84.9763 30.7446 83.7016 32.1349 82.1516 33.1636C80.6015 34.1924 78.7429 34.8403 76.8894 34.6792C74.7715 34.495 72.784 33.2838 70.6639 33.4372C68.727 33.5772 67.0309 34.8376 65.1074 35.2377C66.4392 36.0676 67.7714 36.8979 69.1032 37.7277C69.764 38.1394 70.4345 38.5557 71.1787 38.785C72.0776 39.0622 73.0401 39.0526 73.9767 38.9632C79.1666 38.4677 84.0585 35.4606 86.8441 31.0536C87.0624 30.7087 87.2747 30.3311 87.2645 29.9231C87.254 29.5141 86.9293 29.0873 86.146 29.2977Z" fill="white"/>
<path d="M72.9142 39.242C72.3395 39.242 71.7183 39.184 71.1127 38.9975C70.3359 38.758 69.6493 38.3302 68.9857 37.9162L64.9894 35.4263C64.9125 35.3784 64.8725 35.2881 64.8881 35.1988C64.9042 35.1094 64.9728 35.0385 65.0613 35.0201C65.8842 34.8488 66.6859 34.5071 67.4609 34.1765C68.4745 33.7441 69.5231 33.2969 70.6467 33.2154C71.8924 33.1256 73.0975 33.4917 74.2626 33.8463C75.1251 34.1088 76.0166 34.38 76.9077 34.4574C78.5554 34.5997 80.3744 34.0752 82.028 32.9778C83.6651 31.8919 84.996 30.3658 85.9727 29.1574C86.0022 29.1211 86.0427 29.0948 86.0879 29.0824C86.6253 28.9382 86.9531 29.069 87.1337 29.2044C87.3501 29.3665 87.4781 29.6258 87.4855 29.9163C87.497 30.3916 87.2566 30.8129 87.0305 31.1708C84.2228 35.6132 79.2282 38.6834 73.9969 39.1831C73.6704 39.2153 73.3029 39.242 72.9142 39.242ZM65.6701 35.3273L69.2205 37.5395C69.8606 37.9383 70.5224 38.3505 71.2435 38.5729C72.1834 38.8625 73.1864 38.8156 73.955 38.7419C79.0527 38.2551 83.9198 35.2637 86.6557 30.9345C86.856 30.6177 87.0508 30.2792 87.042 29.9279C87.0383 29.7741 86.9748 29.6405 86.8684 29.5604C86.7339 29.46 86.5286 29.4379 86.2716 29.495C85.2792 30.7185 83.935 32.2465 82.2744 33.3485C80.5374 34.5011 78.6199 35.0523 76.8704 34.8999C75.9333 34.8184 75.0187 34.5403 74.1341 34.2709C72.9561 33.9121 71.8431 33.5741 70.6799 33.6579C69.6304 33.7339 68.6619 34.147 67.6364 34.5845C67.0009 34.8562 66.3484 35.1343 65.6701 35.3273Z" fill="black"/>
<path d="M92.5972 78.8145C91.8568 80.2162 91.0532 81.5844 90.3076 83.2777C91.1899 83.821 92.0718 84.3644 92.9541 84.9078C94.2606 85.7128 95.5813 86.5242 97.0973 86.9202C97.2276 85.9039 96.6331 84.9391 95.9709 84.1568C95.3091 83.3744 94.535 82.6412 94.1828 81.6788C93.993 81.1607 93.9373 80.6021 93.7609 80.079C93.5841 79.5563 93.2442 79.0396 92.5972 78.8145Z" fill="white"/>
<path d="M97.0971 87.1435C97.0782 87.1435 97.0593 87.1412 97.0409 87.1361C95.4876 86.73 94.1406 85.9001 92.8374 85.0979L90.1904 83.4678C90.096 83.4093 90.0592 83.2905 90.1038 83.1891C90.662 81.9228 91.251 80.8383 91.8201 79.7897C92.0163 79.4282 92.2106 79.0709 92.4004 78.7112C92.4515 78.614 92.5657 78.5689 92.6698 78.6053C93.2832 78.819 93.7331 79.3039 93.9707 80.0085C94.0582 80.2673 94.1167 80.533 94.1733 80.7899C94.2364 81.0745 94.2958 81.3439 94.3907 81.6027C94.6582 82.3335 95.2039 82.9497 95.7317 83.5451C95.8694 83.7008 96.007 83.8564 96.1401 84.0134C97.0473 85.0864 97.4323 86.0466 97.3172 86.9487C97.3089 87.0118 97.2743 87.0689 97.2214 87.1048C97.1841 87.1301 97.1408 87.1435 97.0971 87.1435ZM90.5888 83.1915L93.07 84.7194C94.2705 85.4585 95.5092 86.2216 96.8926 86.6333C96.8912 85.9314 96.532 85.1652 95.8007 84.3003C95.67 84.1456 95.5346 83.9927 95.3987 83.8394C94.8438 83.2126 94.27 82.5652 93.9735 81.7551C93.8685 81.4682 93.8031 81.1721 93.7395 80.8852C93.6829 80.6287 93.629 80.3861 93.5498 80.1498C93.3789 79.6437 93.093 79.2905 92.6983 79.0967C92.5381 79.3978 92.3751 79.6981 92.2107 80.0006C91.6723 80.993 91.1165 82.0167 90.5888 83.1915Z" fill="black"/>
<path d="M74.5506 51.5264C73.9957 54.6053 73.6581 56.9727 75.7055 59.3379C77.8464 61.8112 81.4084 61.628 88.5057 61.628C88.9579 61.628 91.0748 61.7601 91.4524 62.0088C92.035 62.3924 91.6763 73.5748 91.3544 80.219C92.7128 80.4801 94.0713 80.7412 95.3488 80.5662C100.885 56.2631 99.2165 58.1728 97.4146 56.2148C95.0692 53.6659 88.397 52.9102 86.7567 52.7159C85.3816 52.5528 84.0024 52.3898 82.6181 52.3963C79.7202 52.4096 76.3521 53.0078 74.5506 51.5264Z" fill="white"/>
<path d="M94.4731 80.8442C93.4323 80.8442 92.3584 80.6379 91.3117 80.4362C91.203 80.4155 91.1266 80.3179 91.1316 80.2074C91.5295 71.9975 91.7248 62.9325 91.3094 62.1814C90.9654 61.9991 89.122 61.8489 88.5049 61.8489C88.0315 61.8489 87.5738 61.8499 87.1312 61.8503C80.9867 61.8614 77.6016 61.8674 75.5367 59.482C73.3465 56.9515 73.8245 54.2962 74.3311 51.4853C74.3454 51.4079 74.3992 51.3435 74.4729 51.3163C74.5471 51.2891 74.63 51.3034 74.6907 51.3532C76.0313 52.4556 78.3821 52.3451 80.6552 52.2378C81.3045 52.2074 81.9764 52.1756 82.616 52.1728C84.009 52.1623 85.4214 52.3331 86.7817 52.4943L86.8545 52.503C92.398 53.1583 96.0056 54.3561 97.5768 56.0636C97.7551 56.2575 97.9337 56.4132 98.1069 56.5637C99.7384 57.9849 100.557 58.6982 95.564 80.6149C95.5433 80.7052 95.4691 80.7729 95.3775 80.7858C95.0809 80.8263 94.7784 80.8442 94.4731 80.8442ZM91.5848 80.0365C92.7899 80.2672 94.0259 80.4883 95.1666 80.3639C100.063 58.8534 99.2158 58.1179 97.8163 56.8985C97.6344 56.7401 97.4461 56.5762 97.2513 56.3643C96.222 55.2458 93.5737 53.7441 86.8038 52.9442L86.7311 52.9354C85.3841 52.7761 83.9892 52.6099 82.6197 52.6172C81.9893 52.62 81.3225 52.6513 80.6778 52.6817C78.4729 52.7858 76.1971 52.8926 74.7073 51.9145C74.1672 54.9902 74.0299 57.0602 75.8738 59.1909C77.8056 61.4225 80.9246 61.4161 87.1317 61.4059C87.5747 61.405 88.0324 61.4046 88.5058 61.4046C88.7117 61.4046 91.0925 61.5045 91.5746 61.8222C91.7588 61.9438 92.0674 62.1473 91.9647 68.7685C91.9154 71.8921 91.774 76.0905 91.5848 80.0365Z" fill="black"/>
<path d="M83.8389 7.00114C83.9222 8.74644 84.047 10.3149 84.3988 12.617C84.5665 13.7121 84.9257 14.9434 85.3889 15.9736C85.6067 16.458 85.7905 16.7016 86.2993 17.0065C86.3767 16.5469 86.8823 16.3669 87.0044 15.9146C87.155 15.3584 86.8427 14.8219 87.2351 14.3558C87.9829 13.468 88.5332 12.4664 88.8515 11.4128C89.113 10.5479 89.2152 9.62002 88.8837 8.7621C88.5521 7.90419 87.7186 7.13238 86.6512 6.94864C85.8384 6.80865 84.5351 6.5503 83.8389 7.00114Z" fill="white"/>
<path d="M86.2989 17.2284C86.2593 17.2284 86.2197 17.2178 86.1847 17.1966C85.615 16.8549 85.4087 16.5592 85.1859 16.0642C84.7189 15.0258 84.3514 13.7815 84.1787 12.65C83.8237 10.3263 83.7003 8.76982 83.6165 7.01116C83.6128 6.93242 83.651 6.85735 83.7173 6.81407C84.4514 6.33883 85.721 6.56033 86.5609 6.70677L86.6885 6.72887C87.7605 6.914 88.7032 7.68027 89.09 8.68141C89.399 9.48084 89.3902 10.3949 89.0633 11.4767C88.734 12.5653 88.1759 13.5821 87.4041 14.4985C87.2254 14.7108 87.2397 14.9479 87.2586 15.2482C87.2719 15.4669 87.2871 15.7151 87.2181 15.9721C87.1444 16.2438 86.968 16.4289 86.8128 16.5924C86.6701 16.7421 86.5466 16.8715 86.5176 17.0432C86.5052 17.1155 86.4582 17.1772 86.3914 17.2081C86.3624 17.2214 86.3307 17.2284 86.2989 17.2284ZM84.0668 7.12675C84.1497 8.81587 84.275 10.3392 84.6181 12.5833C84.7852 13.6765 85.1403 14.8793 85.5916 15.8823C85.7555 16.2466 85.8886 16.4524 86.1874 16.6684C86.2713 16.5183 86.3864 16.3976 86.4923 16.2862C86.6286 16.1434 86.746 16.0195 86.7902 15.8565C86.8409 15.67 86.8289 15.4784 86.8165 15.2758C86.7958 14.941 86.7723 14.5611 87.0656 14.213C87.7983 13.3431 88.3279 12.3797 88.6396 11.3491C88.9367 10.3659 88.9491 9.54623 88.6769 8.84258C88.3454 7.9842 87.5353 7.32661 86.6139 7.16773L86.4849 7.14517C85.7578 7.01761 84.6807 6.82972 84.0668 7.12675Z" fill="black"/>
<path d="M96.5305 11.027C96.3777 12.5508 96.6121 14.0898 96.5476 15.6196C96.4831 17.1494 96.07 18.746 94.8419 19.8572C93.7606 20.8357 92.0918 21.3275 90.5044 21.1364C88.9166 20.9449 87.4522 20.075 86.6974 18.8754C85.9878 17.7471 85.962 15.3585 85.9021 14.1607C85.1883 14.2363 84.4115 13.9788 84.0062 13.4704C83.601 12.962 83.6397 12.2179 84.1508 11.7965C84.662 11.3756 85.2897 11.336 85.9707 12.0327C85.9684 11.0486 86.183 10.0977 86.2793 9.66023C86.5404 8.47351 86.6477 6.69874 87.5051 6.22856C87.9905 5.96239 88.9976 5.75747 89.5617 5.63912C90.5366 5.43465 91.8463 6.10837 92.8543 6.1535C93.8624 6.19863 94.8704 6.72867 95.6588 7.26976C96.6024 7.91723 96.6452 9.8868 96.5305 11.027Z" fill="white"/>
<path d="M91.191 21.4001C90.9529 21.4001 90.7153 21.3863 90.4781 21.3578C88.8217 21.1579 87.3011 20.2525 86.51 18.9945C85.8418 17.9321 85.7557 15.9123 85.699 14.5755C85.6963 14.5142 85.694 14.4543 85.6912 14.3968C84.9503 14.4074 84.2277 14.1057 83.8331 13.6098C83.3371 12.9876 83.4149 12.1164 84.0099 11.6259C84.3461 11.3492 84.9853 11.0171 85.7631 11.5624C85.8114 10.7542 85.9721 10.0248 86.0564 9.64208L86.0628 9.61261C86.1158 9.37039 86.1628 9.10468 86.212 8.82285C86.4064 7.71442 86.626 6.45817 87.3992 6.03404C87.8956 5.76188 88.8705 5.55742 89.4531 5.43539L89.5171 5.42203C90.1447 5.29079 90.8663 5.48374 91.5649 5.6707C92.0337 5.79596 92.4763 5.91477 92.8654 5.93181C93.744 5.97141 94.7263 6.35962 95.7854 7.08675C97.0003 7.92072 96.8041 10.5341 96.7525 11.0494C96.6678 11.8935 96.7051 12.7652 96.741 13.6079C96.7695 14.2697 96.7986 14.9535 96.77 15.6296C96.6894 17.5499 96.0908 19.0276 94.992 20.0228C94.0231 20.8991 92.6149 21.4001 91.191 21.4001ZM85.9026 13.9395C85.9555 13.9395 86.0067 13.9584 86.0472 13.9929C86.0932 14.0325 86.1213 14.0896 86.1245 14.1504C86.131 14.2738 86.1365 14.4101 86.143 14.5561C86.1945 15.7677 86.2811 17.7953 86.8862 18.7578C87.6083 19.9053 89.005 20.7328 90.532 20.9166C92.0623 21.1013 93.6565 20.6325 94.6941 19.6935C95.7016 18.7817 96.251 17.408 96.3265 15.6111C96.3542 14.954 96.3256 14.2798 96.2975 13.6273C96.2607 12.7689 96.2229 11.8815 96.3109 11.0056C96.4417 9.70241 96.3164 7.99026 95.5345 7.45377C94.5448 6.77453 93.64 6.41212 92.8456 6.3762C92.4081 6.35639 91.9214 6.22607 91.4503 6.10035C90.8019 5.92674 90.1309 5.74715 89.6083 5.85721L89.5442 5.87056C88.9861 5.98753 88.0513 6.18324 87.6129 6.42363C87.0271 6.7446 86.8268 7.88941 86.65 8.89929C86.5998 9.18573 86.5524 9.4565 86.4971 9.70794L86.4906 9.73741C86.3935 10.1776 86.1918 11.0941 86.1941 12.0321C86.1941 12.1224 86.1397 12.2039 86.0559 12.2384C85.9726 12.2725 85.8763 12.2527 85.8132 12.1882C85.2768 11.6393 84.7794 11.5679 84.2931 11.9685C83.887 12.3029 83.8381 12.902 84.1812 13.3326C84.522 13.7604 85.2206 14.0109 85.88 13.9404C85.8874 13.94 85.8948 13.9395 85.9026 13.9395Z" fill="black"/>
<path d="M92.0072 8.29643C92.0864 8.98534 93.0336 10.0445 93.6834 10.1794C94.3332 10.3144 94.6113 10.0367 94.9411 9.43295C95.4706 10.0109 95.8533 10.5837 96.4253 10.872C97.2988 11.3123 98.4828 10.8587 98.8834 9.93029C99.2836 9.00192 98.8236 7.7779 97.9279 7.38877C98.5339 7.60199 99.2201 7.03649 99.3011 6.37106C99.3826 5.70609 98.9778 5.05448 98.4349 4.7022C97.8915 4.34991 97.2339 4.24768 96.5998 4.08835C96.9092 3.46713 96.6827 2.65756 96.1895 2.18831C95.6967 1.7186 94.9982 1.54637 94.3304 1.55926C93.8916 1.56755 93.4417 1.6532 93.0705 1.90003C92.6993 2.14686 92.4198 2.57698 92.388 3.06557C91.887 2.27811 91.007 1.69235 90.1076 1.81162C89.2082 1.93089 88.4355 2.93617 88.2928 3.66837C87.9202 3.09919 87.4063 2.60967 86.745 2.57697C85.4326 2.51204 85.0232 3.59238 85.463 5.08303C84.8035 4.66812 83.737 4.86015 83.3023 5.83688C82.9786 6.56401 83.1305 7.7908 83.5929 8.43366C84.0552 9.07698 85.8498 9.7705 87.2373 8.97981C88.0082 8.54049 88.4208 7.87461 88.6975 7.23773C89.0116 7.93493 89.2446 8.41616 90.1693 8.83015C90.8435 9.13178 91.7028 8.93929 92.0072 8.29643Z" fill="white"/>
<path d="M97.1593 11.2628C96.8655 11.2628 96.5795 11.1983 96.3253 11.0703C95.8561 10.8341 95.5107 10.4307 95.1455 10.0033C95.0907 9.93931 95.0355 9.87484 94.9784 9.80899C94.7053 10.2354 94.3493 10.5444 93.6388 10.397C93.0346 10.2718 92.2448 9.48847 91.9243 8.78252C91.4762 9.20757 90.738 9.32776 90.0781 9.03257C89.2792 8.67522 88.9458 8.24419 88.6943 7.7533C88.4341 8.23498 88.028 8.7839 87.3469 9.17211C85.8332 10.0356 83.912 9.25776 83.4123 8.56286C82.897 7.84586 82.7506 6.52928 83.0992 5.74596C83.3235 5.24171 83.7209 4.88068 84.2187 4.72917C84.5222 4.63661 84.8454 4.63108 85.1415 4.70707C84.991 3.93665 85.0835 3.29747 85.4132 2.87887C85.6177 2.6196 86.0151 2.31705 86.7556 2.35435C87.2902 2.3806 87.7793 2.65967 88.2136 3.1851C88.5331 2.44277 89.2681 1.69814 90.0781 1.59038C90.8545 1.48723 91.6793 1.85471 92.2784 2.54638C92.4078 2.21206 92.6408 1.91826 92.9475 1.71426C93.3086 1.47387 93.7728 1.34677 94.3263 1.33664C95.1418 1.32099 95.8593 1.56643 96.3428 2.02694C96.8719 2.53073 97.0842 3.29378 96.8982 3.93158C96.9336 3.93987 96.9686 3.94816 97.0041 3.95645C97.5332 4.07986 98.0808 4.20742 98.556 4.5155C99.2191 4.94515 99.6073 5.70129 99.5221 6.39757C99.4696 6.82446 99.2044 7.23385 98.8291 7.46686C98.7526 7.51429 98.6744 7.55298 98.5951 7.58245C99.2026 8.19077 99.4411 9.19882 99.0879 10.0176C98.8682 10.5274 98.4266 10.9345 97.8763 11.1343C97.6405 11.22 97.3974 11.2628 97.1593 11.2628ZM94.941 9.21079C95.0028 9.21079 95.0622 9.23658 95.1045 9.28263C95.239 9.42907 95.3629 9.57413 95.4826 9.71412C95.8326 10.1235 96.1347 10.4767 96.5247 10.6734C96.8761 10.8502 97.3131 10.8668 97.7234 10.7171C98.159 10.5587 98.5072 10.24 98.679 9.84214C99.0308 9.02613 98.6228 7.93289 97.8385 7.59212C97.7289 7.54469 97.6764 7.41851 97.7202 7.30753C97.7639 7.19609 97.8883 7.1399 98.0006 7.17905C98.1848 7.24398 98.3957 7.21266 98.5933 7.08971C98.853 6.92853 99.0437 6.63566 99.0796 6.34416C99.1547 5.73031 98.7485 5.17079 98.3129 4.88851C97.9025 4.6228 97.4163 4.50905 96.9014 4.38932C96.7821 4.36169 96.6629 4.3336 96.5441 4.30367C96.4787 4.28709 96.4248 4.24242 96.3962 4.18117C96.3681 4.11992 96.3695 4.04947 96.3995 3.98914C96.6486 3.48903 96.492 2.784 96.0352 2.34883C95.6364 1.96937 95.0304 1.76952 94.3336 1.78103C93.8658 1.78978 93.4822 1.89201 93.1925 2.0845C92.8577 2.30692 92.6344 2.68822 92.6086 3.07965C92.6022 3.17543 92.5349 3.25648 92.4419 3.28043C92.3484 3.30437 92.2513 3.26569 92.1997 3.18464C91.6908 2.38521 90.8799 1.93207 90.1357 2.03154C89.3215 2.13976 88.6289 3.09853 88.5097 3.711C88.4922 3.79941 88.4231 3.86895 88.3347 3.88645C88.2453 3.90349 88.1555 3.86573 88.1063 3.7902C87.6913 3.15701 87.2295 2.82361 86.733 2.7992C86.2928 2.77802 85.9645 2.89683 85.7618 3.15471C85.4676 3.52864 85.4358 4.2088 85.6753 5.02067C85.7015 5.10909 85.6697 5.20487 85.5965 5.26059C85.5228 5.31631 85.4224 5.32092 85.3442 5.27164C85.0628 5.09481 84.6907 5.05152 84.3476 5.1556C83.9751 5.26888 83.6758 5.54334 83.5044 5.92786C83.2162 6.57579 83.3437 7.70863 83.7725 8.30498C84.1455 8.82351 85.7996 9.5442 87.1268 8.78759C87.9069 8.34274 88.2803 7.64001 88.4935 7.15004C88.5285 7.06945 88.6077 7.01695 88.6957 7.01649H88.6971C88.7846 7.01649 88.8638 7.06761 88.8997 7.14727C89.1958 7.80533 89.3915 8.23959 90.2596 8.62825C90.7965 8.86818 91.5458 8.75443 91.8069 8.20275C91.8492 8.11341 91.9455 8.06229 92.0436 8.07841C92.1417 8.09453 92.2167 8.17374 92.2278 8.27228C92.2964 8.86679 93.1658 9.84629 93.7285 9.96325C94.2065 10.0627 94.4161 9.93194 94.7458 9.32776C94.7799 9.26467 94.8425 9.2223 94.9139 9.21355C94.9236 9.21125 94.9323 9.21079 94.941 9.21079Z" fill="black"/>
<path d="M94.8922 13.0856C94.9327 12.9005 94.8075 12.7158 94.6122 12.673C94.417 12.6302 94.2259 12.7453 94.1853 12.9309C94.1448 13.116 94.2701 13.3007 94.4653 13.3435C94.6606 13.3863 94.8517 13.2707 94.8922 13.0856Z" fill="black"/>
<path d="M89.8492 12.8376C89.8898 12.6524 89.7645 12.4678 89.5693 12.425C89.374 12.3821 89.1829 12.4973 89.1424 12.6828C89.1019 12.868 89.2271 13.0526 89.4224 13.0954C89.6172 13.1383 89.8083 13.0227 89.8492 12.8376Z" fill="black"/>
<path d="M90.9231 18.9903C90.2816 18.9903 89.647 18.6688 89.2804 18.1374C89.2109 18.0366 89.2362 17.8984 89.3371 17.8284C89.4379 17.7589 89.5761 17.7838 89.6461 17.8851C89.9684 18.352 90.5864 18.6168 91.1455 18.5288C91.2675 18.51 91.3803 18.5929 91.3992 18.714C91.4181 18.8351 91.3352 18.9488 91.2141 18.9677C91.1174 18.9829 91.0198 18.9903 90.9231 18.9903Z" fill="black"/>
<path d="M91.9761 17.1918C91.8108 17.1918 91.6528 17.1724 91.5041 17.1333C91.1067 17.0292 90.7797 16.7829 90.607 16.4568C90.5494 16.3486 90.5909 16.2141 90.6991 16.1566C90.8078 16.0995 90.9418 16.1405 90.9994 16.2487C91.1126 16.4619 91.3434 16.6323 91.6164 16.7037C91.8642 16.7686 92.1511 16.7617 92.4697 16.6834C92.5715 16.6585 92.6853 16.624 92.7562 16.5577C92.84 16.4789 92.88 16.3353 92.863 16.1732C92.8474 16.0235 92.7912 15.8724 92.7313 15.7127L92.7023 15.6344C92.3436 14.6526 92.2142 13.5851 92.3265 12.5467C92.3394 12.4247 92.4472 12.3362 92.5711 12.3501C92.6931 12.3634 92.781 12.473 92.7677 12.5946C92.6622 13.5658 92.7838 14.5637 93.1191 15.4819L93.1471 15.5575C93.2139 15.7361 93.2825 15.9208 93.3042 16.1266C93.3364 16.4306 93.2471 16.706 93.0592 16.8819C92.9137 17.0182 92.7331 17.0762 92.5752 17.1149C92.3666 17.166 92.1663 17.1918 91.9761 17.1918Z" fill="black"/>
<path d="M85.9717 13.0371C85.852 13.0371 85.7534 12.9418 85.7497 12.8212C85.7378 12.3966 85.7405 12.1705 85.7451 11.7597C85.7465 11.6381 85.8455 11.54 85.9671 11.54C85.968 11.54 85.9685 11.54 85.9694 11.54C86.0919 11.5414 86.1904 11.6418 86.1891 11.7648C86.1845 12.1834 86.1822 12.3934 86.1937 12.8087C86.1969 12.9312 86.1007 13.0335 85.9782 13.0367C85.9759 13.0371 85.974 13.0371 85.9717 13.0371Z" fill="black"/>
<path d="M85.0767 8.10607C85.0371 8.10607 84.9966 8.09547 84.9606 8.07291C84.3003 7.66675 83.9406 6.82264 84.105 6.06558C84.1308 5.94585 84.2496 5.86986 84.3693 5.89565C84.4891 5.9219 84.5651 6.03979 84.5393 6.15998C84.4136 6.73883 84.6885 7.38446 85.1932 7.69484C85.2977 7.75931 85.3304 7.89608 85.2659 8.00015C85.224 8.06831 85.1513 8.10607 85.0767 8.10607Z" fill="black"/>
<g opacity="0.1294">
<path d="M88.8245 7.22217C88.8973 7.33223 88.9737 7.43999 89.0534 7.54545C89.0598 7.56801 89.0718 7.60301 89.1003 7.68268C89.1459 7.79228 89.2017 7.89727 89.2601 8.00089C89.4945 8.34949 89.7345 8.58066 89.9762 8.75427C90.0333 8.67599 90.1425 8.63454 90.2369 8.6875C90.2521 8.6944 90.2673 8.70039 90.2829 8.70684C90.2903 8.70868 90.2986 8.71098 90.3096 8.71421C90.4938 8.74829 90.6734 8.80861 90.8608 8.81874C90.8406 8.81736 90.8208 8.81552 90.8005 8.81413C90.859 8.83071 91.1459 8.81276 91.3734 8.77223C91.3863 8.76947 91.4116 8.7644 91.436 8.75888C91.483 8.74322 91.5341 8.7446 91.5811 8.7598C91.5926 8.75657 91.6041 8.75335 91.617 8.75151C91.6193 8.74783 91.6221 8.74276 91.628 8.73447C91.6299 8.73079 91.6317 8.72664 91.6331 8.7225C91.6317 8.70131 91.6313 8.68059 91.6331 8.65941C91.6474 8.50376 91.8265 8.38126 91.9748 8.43376C92.1277 8.46692 92.1995 8.63454 92.1903 8.78236C92.2129 8.83486 92.2382 8.88597 92.2663 8.93571C92.3874 9.12175 92.5279 9.29582 92.6669 9.46897C92.6937 9.50259 92.7696 9.5864 92.7821 9.60206C92.7885 9.6085 92.7945 9.61541 92.8005 9.62186C92.9603 9.78442 93.29 10.0603 93.6096 10.1616C93.6114 10.162 93.6128 10.1625 93.6142 10.1629C93.6906 10.18 93.7685 10.1878 93.8463 10.1901C93.8675 10.1887 93.8942 10.1864 93.9177 10.1823C93.9287 10.1786 93.9402 10.1758 93.9513 10.1712C93.9785 10.1602 94.0047 10.1468 94.0305 10.1335C94.036 10.1298 94.0425 10.1256 94.0512 10.1201C94.0609 10.1137 94.0696 10.1058 94.0788 10.0994C94.1663 10.0999 94.2552 10.0805 94.3303 10.04C94.4155 10.0193 94.4887 9.97829 94.555 9.91612C94.5905 9.88251 94.619 9.84336 94.6462 9.80284C94.6499 9.79731 94.6536 9.79132 94.6572 9.78534C94.6591 9.78442 94.6688 9.77429 94.672 9.7706C94.6853 9.75587 94.6982 9.74113 94.7111 9.72639C94.7981 9.62646 94.8746 9.51963 94.9345 9.40266C94.9368 9.40266 94.9391 9.40266 94.9414 9.40312C95.0372 9.41739 95.1297 9.48325 95.1661 9.57443C95.1794 9.61587 95.1965 9.65594 95.2158 9.69508C95.2214 9.70613 95.2273 9.71718 95.2333 9.72777C95.2356 9.731 95.2393 9.73745 95.2467 9.75034L95.2453 9.74942C95.2471 9.75264 95.249 9.75587 95.2508 9.75863C95.3204 9.83922 95.3742 9.93454 95.4479 10.0124C95.4765 10.0432 95.5064 10.0722 95.5363 10.1017C95.5446 10.1095 95.5538 10.1187 95.5635 10.1284C95.5672 10.1321 95.5713 10.1358 95.5759 10.1404C95.7279 10.2882 95.8974 10.4176 96.0728 10.5364C96.1916 10.6317 96.3616 10.681 96.4421 10.815C96.6181 11.0922 96.257 11.4132 95.9973 11.2115C95.6257 10.978 95.2771 10.7036 95.0081 10.3536C94.9635 10.297 94.9216 10.2376 94.8824 10.1768C94.6941 10.4047 94.473 10.6078 94.2096 10.7386C93.8113 10.9071 93.3536 10.7846 93.0022 10.5594C92.66 10.343 92.5426 10.1966 92.3621 10.0059C92.1876 9.80514 92.0268 9.59285 91.8956 9.36167C91.7814 9.48785 91.646 9.59561 91.4931 9.66975C91.2813 9.76461 91.0363 9.80238 90.8079 9.75264C90.818 9.7554 90.8286 9.75817 90.8369 9.76047C90.8139 9.75771 90.7913 9.75449 90.7687 9.75034C90.4786 9.69554 90.212 9.56107 89.961 9.41003C89.5954 9.1876 89.2601 8.90578 89.0036 8.56178C88.8484 8.34166 88.7103 8.10358 88.6357 7.84293C88.6214 7.778 88.6311 7.83557 88.6431 7.86964C88.6071 7.7734 88.5795 7.67439 88.5533 7.57492C88.5376 7.5169 88.5173 7.45519 88.5413 7.39717C88.5749 7.25579 88.7071 7.20099 88.8245 7.22217Z" fill="black"/>
</g>
<g opacity="0.1294">
<path d="M83.9589 9.14259C84.0782 8.98234 84.262 9.07305 84.4102 9.13476C84.6299 9.22364 84.8602 9.28166 85.0817 9.36547C85.2447 9.42856 85.4049 9.49948 85.5744 9.54415C85.573 9.54369 85.5712 9.54323 85.5698 9.54277C85.6223 9.5575 85.6633 9.56902 85.5703 9.54369C85.6591 9.57224 85.7558 9.58145 85.8424 9.61553C85.87 9.57685 85.9046 9.54461 85.952 9.52527C86.1625 9.42672 86.4015 9.66296 86.3052 9.87479C86.2334 10.0364 86.1588 10.1981 86.1095 10.3685C86.0671 10.6226 85.9819 11.0237 85.6366 10.899C85.5684 10.8704 85.5224 10.8156 85.486 10.7544C85.492 10.7765 85.3506 10.6047 85.3124 10.5725C85.1599 10.4094 84.8629 10.1506 84.5705 9.89275C84.4176 9.76473 84.2601 9.64178 84.0962 9.52803C84.0833 9.51974 84.0699 9.51237 84.0566 9.50455C84.0455 9.4981 84.0285 9.48843 84.0115 9.47784C83.9042 9.4037 83.8793 9.24713 83.9589 9.14259Z" fill="black"/>
</g>
<path d="M88.1627 27.4613C87.8422 26.9285 87.1165 26.8101 86.6173 27.1808L86.1075 27.5593C85.8243 27.7693 85.5148 28.0268 85.4978 28.379C85.484 28.6664 85.6728 28.9192 85.8519 29.1444C86.1172 29.4773 86.4289 29.8365 86.8526 29.8807C87.1427 29.9107 87.4236 29.7831 87.6875 29.6588C87.8556 29.5796 88.0283 29.4971 88.1553 29.3613C88.3317 29.1734 88.398 28.9068 88.4178 28.6498C88.4491 28.2437 88.3759 27.8232 88.1687 27.4723C88.1669 27.4682 88.1646 27.4645 88.1627 27.4613Z" fill="white"/>
<path d="M86.9411 30.1072C86.9047 30.1072 86.8674 30.1054 86.8301 30.1017C86.2863 30.0451 85.9064 29.568 85.6789 29.2829C85.5108 29.0725 85.2575 28.7547 85.2764 28.3684C85.2999 27.883 85.7392 27.5565 85.9754 27.3815L86.4852 27.003C86.7822 26.7824 87.1603 26.6972 87.5232 26.7691C87.8759 26.8391 88.1707 27.044 88.353 27.347C88.3544 27.3493 88.3562 27.3525 88.3567 27.3534C88.5796 27.731 88.6763 28.1828 88.6394 28.6663C88.6114 29.0301 88.5031 29.3147 88.3176 29.5127C88.1596 29.6813 87.9588 29.7757 87.7824 29.859C87.5462 29.9714 87.2575 30.1072 86.9411 30.1072ZM87.2685 27.1886C87.0829 27.1886 86.9006 27.248 86.7495 27.3599L86.2398 27.7384C85.9948 27.9203 85.7323 28.1358 85.7199 28.3905C85.7102 28.5926 85.8589 28.7971 86.0261 29.0066C86.2748 29.3189 86.5451 29.6265 86.8757 29.6606C87.0954 29.6836 87.321 29.5869 87.5927 29.4584C87.7405 29.3889 87.8934 29.3166 87.9938 29.2097C88.1085 29.0872 88.1766 28.8934 88.1969 28.6332C88.2264 28.2468 88.1486 27.8747 87.9782 27.586L88.1628 27.4626L87.9726 27.5768C87.8557 27.3824 87.6655 27.2507 87.4371 27.2052C87.3809 27.1941 87.3247 27.1886 87.2685 27.1886Z" fill="black"/>
<path d="M84.2774 26.5271C84.2056 26.5271 84.1351 26.4921 84.0923 26.4276C83.6811 25.8073 83.4172 25.0885 83.3288 24.3498C83.314 24.2283 83.4011 24.1178 83.5231 24.103C83.6442 24.0892 83.7557 24.1753 83.7699 24.2973C83.8501 24.9678 84.0891 25.6195 84.4625 26.1822C84.5302 26.2844 84.5026 26.4221 84.4004 26.4898C84.3621 26.5151 84.3193 26.5271 84.2774 26.5271Z" fill="black"/>
<path d="M83.3332 27.2092C83.2715 27.2092 83.2102 27.1838 83.1665 27.1341L82.5982 26.488C82.5172 26.3959 82.5264 26.2555 82.6185 26.1744C82.7106 26.0934 82.8511 26.1026 82.9316 26.1947L83.4999 26.8408C83.581 26.9329 83.5722 27.0733 83.4801 27.1544C83.4377 27.1912 83.3852 27.2092 83.3332 27.2092Z" fill="black"/>
<path d="M79.558 51.4787C79.5479 51.4787 79.5378 51.4782 79.5277 51.4768C78.1383 51.2876 76.7803 50.9122 75.4904 50.361C75.3776 50.3127 75.3251 50.1824 75.3735 50.0695C75.4218 49.9567 75.5517 49.9042 75.665 49.9526C76.9175 50.4881 78.2373 50.8528 79.5871 51.0366C79.7086 51.0532 79.7938 51.1651 79.7773 51.2866C79.7625 51.3981 79.6672 51.4787 79.558 51.4787Z" fill="black"/>
<g opacity="0.1294">
<path d="M100.748 43.4182C100.494 43.4242 100.293 43.613 100.08 43.7299C99.7448 43.9537 99.4058 44.1734 99.0743 44.4032C98.3075 44.9673 97.5122 45.501 96.8265 46.1655C96.3679 46.6472 97.0573 47.3366 97.5408 46.8798C98.4227 46.1093 98.8348 45.8027 99.7305 45.1704C100.045 44.9742 100.353 44.7693 100.669 44.5759C100.824 44.4594 101.038 44.4087 101.153 44.2471C101.428 43.9344 101.158 43.4062 100.748 43.4182Z" fill="black"/>
</g>
<path d="M75.9353 85.7793C75.933 85.7793 75.9312 85.7793 75.9289 85.7788C75.8883 85.7752 75.8579 85.7392 75.8616 85.6987L76.3903 79.6601C76.394 79.6196 76.4294 79.5906 76.4704 79.5929C76.5109 79.5966 76.5413 79.6325 76.5377 79.673L76.009 85.7116C76.0053 85.7503 75.9731 85.7793 75.9353 85.7793Z" fill="black"/>
<path d="M78.3306 86.6137C78.3296 86.6137 78.3292 86.6137 78.3283 86.6137C78.2873 86.6123 78.2555 86.5782 78.2569 86.5373L78.5088 79.002C78.5102 78.962 78.5429 78.9307 78.5829 78.9307C78.5829 78.9307 78.5843 78.9307 78.5852 78.9307C78.6262 78.932 78.658 78.9661 78.6566 79.0071L78.4047 86.5419C78.4033 86.5824 78.3706 86.6137 78.3306 86.6137Z" fill="black"/>
<path d="M101.301 67.7171C101.3 67.7171 101.299 67.7171 101.298 67.7171C101.257 67.7153 101.225 67.6808 101.227 67.6402L101.365 64.3209C101.367 64.2799 101.399 64.25 101.442 64.25C101.483 64.2518 101.514 64.2864 101.513 64.3269L101.375 67.6462C101.373 67.6863 101.34 67.7171 101.301 67.7171Z" fill="black"/>
<path d="M103.434 70.4439C103.394 70.4439 103.36 70.4103 103.36 70.3693C103.376 67.371 103.464 64.333 103.623 61.3398C103.625 61.2988 103.661 61.2665 103.701 61.2698C103.742 61.2721 103.773 61.3066 103.771 61.3476C103.612 64.3381 103.524 67.3737 103.509 70.3702C103.509 70.4108 103.475 70.4439 103.434 70.4439Z" fill="black"/>
<path d="M91.4619 82.9751C91.455 82.9751 91.4481 82.9741 91.4412 82.9723C91.402 82.9608 91.3794 82.9198 91.3905 82.8806C91.5802 82.2304 91.8436 81.6009 92.1738 81.0096C92.1936 80.9737 92.2392 80.9613 92.2747 80.9811C92.3101 81.0009 92.323 81.046 92.3032 81.0819C91.9786 81.6635 91.7193 82.2825 91.5328 82.9221C91.5236 82.9539 91.4941 82.9751 91.4619 82.9751Z" fill="black"/>
<path d="M92.0265 83.5915C92.0214 83.5915 92.0163 83.591 92.0113 83.5901C91.9712 83.5818 91.9454 83.5427 91.9537 83.5026C92.0628 82.973 92.2392 82.4582 92.4787 81.9728C92.4966 81.9364 92.5408 81.9212 92.5777 81.9392C92.6145 81.9572 92.6293 82.0018 92.6113 82.0382C92.3778 82.5125 92.2051 83.0154 92.0988 83.5325C92.0919 83.5675 92.0605 83.5915 92.0265 83.5915Z" fill="black"/>
<path d="M92.705 84.1257H92.7036C92.6627 84.1247 92.63 84.0911 92.6309 84.0506C92.6401 83.492 92.7718 82.9307 93.0113 82.4259C93.0288 82.3891 93.073 82.3735 93.1098 82.391C93.1466 82.4085 93.1623 82.4527 93.1448 82.4895C92.9141 82.9749 92.7879 83.5155 92.7787 84.0529C92.7782 84.093 92.7451 84.1257 92.705 84.1257Z" fill="black"/>
<path d="M93.456 84.5346H93.4546C93.4136 84.5337 93.3809 84.5 93.3819 84.4591C93.3906 83.9557 93.4643 83.4538 93.5997 82.9679C93.6107 82.9288 93.6513 82.9058 93.6909 82.9168C93.73 82.9279 93.753 82.9684 93.742 83.008C93.6098 83.4819 93.5384 83.9709 93.5297 84.4618C93.5292 84.5023 93.4961 84.5346 93.456 84.5346Z" fill="black"/>
<path d="M94.2813 85.0873C94.2403 85.0873 94.2076 85.0546 94.2072 85.0136C94.2044 84.4919 94.239 83.9651 94.3103 83.4475C94.3159 83.4069 94.3541 83.3793 94.3937 83.3844C94.4342 83.3899 94.4623 83.4272 94.4568 83.4677C94.3868 83.978 94.3522 84.4979 94.355 85.0127C94.3555 85.0537 94.3228 85.0873 94.2813 85.0873Z" fill="black"/>
<path d="M95.0699 85.4362C95.0307 85.4362 94.998 85.4053 94.9962 85.3657C94.9759 84.9402 94.987 84.5096 95.0284 84.086C95.0321 84.045 95.0694 84.0174 95.1095 84.0197C95.1505 84.0238 95.1799 84.0602 95.1758 84.1007C95.1348 84.517 95.1242 84.9407 95.144 85.3593C95.1459 85.4003 95.1145 85.4348 95.0736 85.4366C95.0722 85.4362 95.0708 85.4362 95.0699 85.4362Z" fill="black"/>
<path d="M95.8383 86.0316C95.8019 86.0316 95.7701 86.0044 95.765 85.9676C95.7176 85.6158 95.7121 85.258 95.7475 84.9048C95.7517 84.8638 95.7899 84.8334 95.8286 84.8384C95.8696 84.8426 95.8991 84.879 95.8949 84.9195C95.8604 85.2616 95.8659 85.6075 95.9119 85.9483C95.9175 85.9888 95.8889 86.0261 95.8484 86.0311C95.8447 86.0316 95.8415 86.0316 95.8383 86.0316Z" fill="black"/>
<path d="M68.0481 36.2695C68.0269 36.2695 68.0057 36.2603 67.991 36.2423C67.7078 35.8983 67.4416 35.5346 67.1994 35.1611C67.1773 35.127 67.1869 35.081 67.221 35.0589C67.2551 35.0368 67.3011 35.046 67.3232 35.0805C67.5627 35.4489 67.8256 35.8081 68.1052 36.1479C68.131 36.1797 68.1268 36.2262 68.095 36.252C68.0812 36.264 68.0647 36.2695 68.0481 36.2695Z" fill="black"/>
<path d="M70.2059 37.7927C70.1843 37.7927 70.1626 37.783 70.1479 37.7646C69.3853 36.8068 68.6425 35.8135 67.9393 34.8119C67.9158 34.7782 67.9236 34.7322 67.9573 34.7087C67.9904 34.6852 68.0369 34.6935 68.0604 34.7267C68.7618 35.7255 69.5032 36.7165 70.2639 37.672C70.2892 37.7043 70.2842 37.7508 70.2519 37.7761C70.2386 37.7876 70.2225 37.7927 70.2059 37.7927Z" fill="black"/>
<path d="M71.8426 38.2668C71.8209 38.2668 71.7998 38.2575 71.785 38.2396C70.789 37.0188 69.8283 35.7441 68.9304 34.4515C68.9069 34.4179 68.9152 34.3718 68.9488 34.3483C68.9819 34.3248 69.0284 34.3331 69.0515 34.3667C69.9476 35.6566 70.9055 36.9281 71.8997 38.1456C71.9255 38.1774 71.9209 38.2239 71.8891 38.2497C71.8757 38.2612 71.8592 38.2668 71.8426 38.2668Z" fill="black"/>
<path d="M73.0276 38.5105C73.0064 38.5105 72.9857 38.5018 72.9709 38.4843C71.8731 37.1871 70.8586 35.7996 69.9556 34.3596C69.9339 34.325 69.9445 34.2794 69.9791 34.2573C70.0141 34.2357 70.0596 34.2463 70.0813 34.2808C70.9802 35.7148 71.9905 37.0968 73.0842 38.3885C73.1105 38.4198 73.1068 38.4663 73.0755 38.493C73.0617 38.5046 73.0446 38.5105 73.0276 38.5105Z" fill="black"/>
<path d="M74.1507 38.402C74.1296 38.402 74.1088 38.3933 74.0946 38.3758C72.9797 37.0657 71.9237 35.6805 70.9562 34.2589C70.9332 34.2253 70.9419 34.1792 70.9756 34.1562C71.0092 34.1336 71.0552 34.1419 71.0783 34.176C72.043 35.5934 73.0957 36.974 74.2069 38.28C74.2332 38.3113 74.2295 38.3578 74.1986 38.3845C74.1848 38.396 74.1678 38.402 74.1507 38.402Z" fill="black"/>
<path d="M75.2779 38.2841C75.2581 38.2841 75.2383 38.2763 75.2235 38.2602C74.0746 37.0164 73.0113 35.6745 72.0626 34.2718C72.0396 34.2377 72.0484 34.1917 72.0824 34.1691C72.1165 34.1461 72.1621 34.1548 72.1851 34.1889C73.1296 35.5856 74.1883 36.9215 75.3322 38.1598C75.3599 38.1897 75.358 38.2367 75.3281 38.2643C75.3138 38.2777 75.2958 38.2841 75.2779 38.2841Z" fill="black"/>
<path d="M76.2215 38.0613C76.2017 38.0613 76.1819 38.0535 76.1672 38.0378C75.143 36.9344 74.1658 35.7629 73.2618 34.5569C73.2374 34.5242 73.2439 34.4777 73.2766 34.4533C73.3093 34.4288 73.3553 34.4353 73.3802 34.468C74.2805 35.6704 75.2549 36.8373 76.2754 37.937C76.3035 37.9669 76.3016 38.0139 76.2717 38.0415C76.2574 38.0544 76.2395 38.0613 76.2215 38.0613Z" fill="black"/>
<path d="M77.203 37.7893C77.1836 37.7893 77.1643 37.7819 77.1495 37.7667C76.2143 36.795 75.2974 35.7796 74.4257 34.7495C74.3994 34.7182 74.4031 34.6716 74.4344 34.6454C74.4657 34.6191 74.5127 34.6228 74.539 34.6541C75.4088 35.682 76.3229 36.6946 77.2564 37.664C77.2845 37.6935 77.284 37.7404 77.2545 37.7685C77.2398 37.7823 77.2214 37.7893 77.203 37.7893Z" fill="black"/>
<path d="M78.1574 37.4236C78.139 37.4236 78.1211 37.4167 78.1063 37.4034C77.3852 36.7209 76.6801 36.003 76.0106 35.2694C75.9829 35.239 75.9852 35.1925 76.0152 35.1649C76.0456 35.1372 76.0921 35.1395 76.1197 35.1695C76.7865 35.9003 77.4892 36.6159 78.2076 37.2956C78.2371 37.3237 78.2385 37.3707 78.2104 37.4002C78.1966 37.4158 78.1772 37.4236 78.1574 37.4236Z" fill="black"/>
<path d="M79.0744 37.1008C79.0565 37.1008 79.039 37.0943 79.0247 37.0819C78.4417 36.5546 77.873 35.9974 77.3346 35.4245C77.3065 35.3946 77.3079 35.3481 77.3379 35.32C77.3678 35.2919 77.4143 35.2933 77.4424 35.3232C77.978 35.8929 78.5439 36.4478 79.1237 36.9718C79.1541 36.9994 79.1564 37.046 79.1292 37.0763C79.1149 37.0925 79.0947 37.1008 79.0744 37.1008Z" fill="black"/>
<path d="M79.8063 36.6257C79.7879 36.6257 79.7694 36.6188 79.7552 36.6054L78.3921 35.304C78.3626 35.276 78.3612 35.229 78.3898 35.1995C78.4179 35.17 78.4648 35.1691 78.4943 35.1972L79.8579 36.4986C79.8873 36.5267 79.8887 36.5737 79.8602 36.6031C79.8454 36.6179 79.8261 36.6257 79.8063 36.6257Z" fill="black"/>
<path d="M80.7431 36.2941C80.7246 36.2941 80.7067 36.2872 80.6919 36.2739L79.4292 35.0807C79.3998 35.0526 79.3984 35.0057 79.4265 34.9762C79.4546 34.9467 79.5015 34.9453 79.531 34.973L80.7937 36.1661C80.8232 36.1942 80.8246 36.2412 80.7965 36.2707C80.7822 36.2863 80.7629 36.2941 80.7431 36.2941Z" fill="black"/>
<path d="M81.3935 35.8427C81.3774 35.8427 81.3612 35.8376 81.3474 35.8266C80.9836 35.5383 80.6383 35.2205 80.321 34.8825C80.2929 34.8526 80.2943 34.8061 80.3242 34.778C80.3541 34.7499 80.4006 34.7513 80.4287 34.7812C80.7414 35.1142 81.0813 35.4268 81.4391 35.711C81.4713 35.7363 81.4764 35.7828 81.451 35.815C81.4368 35.833 81.4156 35.8427 81.3935 35.8427Z" fill="black"/>
<path d="M82.0223 35.3902C82.0039 35.3902 81.9855 35.3833 81.9712 35.3695L81.0921 34.5277C81.0626 34.4996 81.0617 34.4526 81.0898 34.4231C81.1183 34.3937 81.1648 34.3928 81.1943 34.4208L82.0734 35.2626C82.1029 35.2912 82.1038 35.3377 82.0757 35.3672C82.061 35.3824 82.0416 35.3902 82.0223 35.3902Z" fill="black"/>
<path d="M82.7249 34.9351C82.7069 34.9351 82.6894 34.9287 82.6751 34.9158C82.3892 34.6565 82.0852 34.4111 81.7712 34.1868C81.738 34.1629 81.7302 34.1168 81.7541 34.0837C81.7776 34.0505 81.8241 34.0427 81.8573 34.0666C82.176 34.2946 82.485 34.5433 82.7746 34.8067C82.805 34.8343 82.8073 34.8808 82.7797 34.9112C82.7649 34.9269 82.7451 34.9351 82.7249 34.9351Z" fill="black"/>
<path d="M83.3455 34.3934C83.3307 34.3934 83.3165 34.3892 83.3036 34.3805C83.0098 34.1779 82.7279 33.9517 82.4668 33.7091C82.4369 33.681 82.4355 33.6345 82.4631 33.6045C82.4912 33.5746 82.5377 33.5732 82.5677 33.6008C82.8237 33.8389 83.0996 34.0604 83.3878 34.2589C83.4215 34.2819 83.4297 34.3284 83.4067 34.3616C83.392 34.3823 83.369 34.3934 83.3455 34.3934Z" fill="black"/>
<path d="M83.9779 33.7393C83.9627 33.7393 83.9471 33.7347 83.9337 33.7246L83.1988 33.1793C83.1661 33.1549 83.1592 33.1089 83.1836 33.0757C83.208 33.043 83.2545 33.0361 83.2872 33.0605L84.0221 33.6057C84.0548 33.6302 84.0617 33.6767 84.0373 33.7094C84.0231 33.7287 84.0005 33.7393 83.9779 33.7393Z" fill="black"/>
<path d="M84.5397 33.057C84.5236 33.057 84.5079 33.0519 84.4941 33.0413L83.9944 32.6522C83.9622 32.6273 83.9562 32.5808 83.9815 32.5481C84.0069 32.5159 84.0534 32.5099 84.0852 32.5352L84.5853 32.9244C84.6175 32.9492 84.6235 32.9962 84.5982 33.0284C84.5834 33.0469 84.5613 33.057 84.5397 33.057Z" fill="black"/>
<path d="M85.1481 32.5897C85.1311 32.5897 85.114 32.5837 85.0997 32.5717L84.5784 32.1223C84.5476 32.0955 84.5439 32.049 84.5706 32.0177C84.5973 31.9869 84.6443 31.9836 84.6752 32.0099L85.1965 32.4593C85.2273 32.486 85.231 32.533 85.2043 32.5639C85.1895 32.5809 85.1688 32.5897 85.1481 32.5897Z" fill="black"/>
<path d="M85.6242 31.9733C85.6108 31.9733 85.5979 31.9701 85.5859 31.9627C85.4086 31.8549 85.2327 31.7394 85.0633 31.6187C85.0301 31.5952 85.0223 31.5487 85.0458 31.5155C85.0697 31.4819 85.1158 31.4746 85.1489 31.498C85.3161 31.6164 85.4892 31.7301 85.6633 31.8365C85.6983 31.8577 85.7094 31.9033 85.6882 31.9383C85.6734 31.9609 85.649 31.9733 85.6242 31.9733Z" fill="black"/>
<path d="M86.1183 31.3641C86.1049 31.3641 86.0911 31.3605 86.0786 31.3526L85.5334 31.0077C85.4989 30.9861 85.4887 30.94 85.5104 30.9055C85.5325 30.8709 85.5785 30.8608 85.6126 30.8825L86.1579 31.2274C86.1924 31.249 86.2025 31.2951 86.1809 31.3296C86.1666 31.3522 86.1427 31.3641 86.1183 31.3641Z" fill="black"/>
<path d="M86.5532 30.705C86.5417 30.705 86.5297 30.7022 86.5191 30.6967L86.0328 30.4434C85.9969 30.4245 85.9826 30.3798 86.0015 30.3435C86.0204 30.3071 86.0655 30.2933 86.1014 30.3121L86.5877 30.5654C86.6237 30.5843 86.6379 30.629 86.619 30.6654C86.6057 30.6902 86.5799 30.705 86.5532 30.705Z" fill="black"/>
<path d="M87.3329 29.3042C87.3205 29.3042 87.3076 29.301 87.2961 29.2945C86.9309 29.085 86.5796 28.8442 86.2521 28.5799C86.2204 28.5541 86.2153 28.5075 86.2411 28.4758C86.2669 28.444 86.3134 28.4389 86.3452 28.4647C86.6661 28.7244 87.0111 28.9607 87.3698 29.1665C87.4052 29.1868 87.4177 29.2319 87.397 29.2674C87.3831 29.2913 87.3583 29.3042 87.3329 29.3042Z" fill="black"/>
<path d="M87.8486 28.7896C87.838 28.7896 87.8269 28.7873 87.8168 28.7822C87.5552 28.6583 87.2983 28.5179 87.0533 28.365C87.0187 28.3434 87.0081 28.2978 87.0298 28.2632C87.0514 28.2287 87.0975 28.2181 87.1316 28.2398C87.3715 28.3899 87.6234 28.5276 87.8799 28.6487C87.9167 28.6662 87.9328 28.7104 87.9153 28.7472C87.9029 28.7739 87.8762 28.7896 87.8486 28.7896Z" fill="black"/>
<path d="M112.729 40.5992C112.724 40.5992 112.718 40.5987 112.713 40.5978C112.673 40.5895 112.648 40.5499 112.656 40.5098L113.009 38.8419C113.017 38.8018 113.058 38.7765 113.097 38.7848C113.137 38.7931 113.162 38.8327 113.154 38.8727L112.801 40.5407C112.794 40.5752 112.763 40.5992 112.729 40.5992Z" fill="black"/>
<path d="M113.664 42.6653C113.66 42.6653 113.658 42.6653 113.654 42.6648C113.614 42.6597 113.585 42.6229 113.59 42.5819C113.768 41.1695 114.027 39.7512 114.358 38.3665C114.367 38.3269 114.406 38.302 114.447 38.3117C114.487 38.3213 114.511 38.3609 114.502 38.401C114.172 39.7807 113.915 41.1939 113.738 42.6008C113.732 42.6381 113.7 42.6653 113.664 42.6653Z" fill="black"/>
<path d="M114.621 44.4815C114.618 44.4815 114.616 44.4815 114.613 44.481C114.572 44.4764 114.543 44.4396 114.547 44.399C114.794 42.2374 115.099 40.0547 115.454 37.9115C115.461 37.8709 115.498 37.8438 115.539 37.8507C115.58 37.8571 115.607 37.8954 115.6 37.9359C115.245 40.0763 114.94 42.2568 114.694 44.4161C114.691 44.4534 114.658 44.4815 114.621 44.4815Z" fill="black"/>
<path d="M115.662 46.4546C115.66 46.4546 115.658 46.4546 115.655 46.4542C115.615 46.4505 115.585 46.415 115.588 46.3741C115.811 43.7768 116.083 41.1464 116.396 38.5561C116.401 38.5156 116.439 38.4875 116.479 38.4916C116.519 38.4967 116.548 38.5335 116.543 38.574C116.23 41.1625 115.958 43.7911 115.736 46.3865C115.732 46.4256 115.7 46.4546 115.662 46.4546Z" fill="black"/>
<path d="M116.671 47.8408C116.668 47.8408 116.666 47.8408 116.663 47.8404C116.623 47.8362 116.593 47.8003 116.597 47.7593L117.251 41.0783C117.256 41.0374 117.293 41.0083 117.332 41.012C117.373 41.0162 117.403 41.0521 117.399 41.0931L116.744 47.7741C116.741 47.8123 116.709 47.8408 116.671 47.8408Z" fill="black"/>
<path d="M117.593 49.7814C117.59 49.7814 117.587 49.7814 117.584 49.781C117.544 49.7764 117.514 49.74 117.519 49.6994L118.253 43.0502C118.258 43.0097 118.294 42.9802 118.335 42.9848C118.375 42.9895 118.405 43.0258 118.4 43.0664L117.666 49.716C117.662 49.7533 117.63 49.7814 117.593 49.7814Z" fill="black"/>
<path d="M118.664 51.4581C118.661 51.4581 118.658 51.4581 118.655 51.4576C118.614 51.4526 118.585 51.4157 118.59 51.3752C118.857 49.2214 119.074 47.0331 119.236 44.8711C119.239 44.8301 119.276 44.8001 119.315 44.8029C119.356 44.8061 119.387 44.8416 119.383 44.8821C119.221 47.0465 119.004 49.2371 118.737 51.3932C118.733 51.4305 118.701 51.4581 118.664 51.4581Z" fill="black"/>
<path d="M119.824 53.1663C119.822 53.1663 119.82 53.1663 119.818 53.1663C119.777 53.163 119.747 53.1276 119.75 53.0871L120.215 46.7901C120.219 46.7491 120.253 46.7183 120.295 46.722C120.336 46.7252 120.366 46.7607 120.363 46.8012L119.898 53.0981C119.895 53.1368 119.862 53.1663 119.824 53.1663Z" fill="black"/>
<path d="M121.009 54.8023H121.008C120.967 54.8014 120.935 54.7678 120.936 54.7268C120.98 52.6439 121.08 50.5362 121.232 48.4621C121.235 48.4211 121.273 48.3898 121.311 48.3939C121.352 48.3971 121.383 48.4322 121.38 48.4731C121.228 50.5449 121.128 52.6499 121.084 54.73C121.082 54.7705 121.049 54.8023 121.009 54.8023Z" fill="black"/>
<path d="M122.103 56.246C122.102 56.246 122.1 56.246 122.099 56.246C122.058 56.2437 122.027 56.2092 122.029 56.1682L122.346 50.1862C122.348 50.1452 122.384 50.1153 122.424 50.1162C122.465 50.1185 122.496 50.1531 122.494 50.1941L122.177 56.176C122.175 56.2156 122.142 56.246 122.103 56.246Z" fill="black"/>
<path d="M123.041 57.358C123.039 57.358 123.037 57.358 123.035 57.3576C122.994 57.3543 122.964 57.3184 122.967 57.2779L123.412 51.7031C123.415 51.6621 123.451 51.6326 123.492 51.6349C123.533 51.6381 123.562 51.674 123.559 51.7146L123.114 57.2894C123.111 57.3286 123.078 57.358 123.041 57.358Z" fill="black"/>
<path d="M124.148 58.7348C124.146 58.7348 124.144 58.7348 124.142 58.7348C124.101 58.7316 124.07 58.6961 124.073 58.6551C124.212 56.8302 124.311 54.9766 124.369 53.1461C124.37 53.1051 124.404 53.0725 124.445 53.0743C124.486 53.0757 124.518 53.1098 124.517 53.1507C124.459 54.9835 124.36 56.8394 124.221 58.6662C124.219 58.7053 124.186 58.7348 124.148 58.7348Z" fill="black"/>
<path d="M125.243 59.953C125.241 59.953 125.239 59.953 125.238 59.953C125.197 59.9503 125.166 59.9148 125.169 59.8743L125.547 54.3883C125.549 54.3473 125.585 54.3156 125.625 54.3197C125.666 54.3225 125.697 54.3579 125.695 54.3984L125.317 59.8844C125.314 59.9231 125.281 59.953 125.243 59.953Z" fill="black"/>
<path d="M126.228 60.9747C126.224 60.9747 126.221 60.9743 126.217 60.9738C126.177 60.9683 126.148 60.9305 126.154 60.89C126.39 59.2331 126.561 57.5458 126.661 55.8747C126.664 55.8337 126.694 55.8005 126.74 55.8051C126.781 55.8074 126.812 55.8424 126.809 55.8834C126.708 57.5587 126.538 59.2501 126.301 60.9107C126.295 60.948 126.264 60.9747 126.228 60.9747Z" fill="black"/>
<path d="M127.573 62.5652C127.571 62.5652 127.571 62.5652 127.569 62.5652C127.528 62.5633 127.497 62.5283 127.499 62.4878L127.758 57.2077C127.76 57.1667 127.794 57.1321 127.835 57.1372C127.876 57.1391 127.908 57.1741 127.906 57.2146L127.647 62.4947C127.645 62.5348 127.612 62.5652 127.573 62.5652Z" fill="black"/>
<path d="M128.958 63.6836C128.917 63.6836 128.884 63.6505 128.884 63.61L128.867 58.4159C128.867 58.375 128.9 58.3418 128.941 58.3418H128.941C128.982 58.3418 129.015 58.375 129.015 58.4155L129.032 63.6095C129.032 63.65 128.999 63.6832 128.958 63.6836Z" fill="black"/>
<path d="M130.191 64.4662C130.151 64.4662 130.118 64.434 130.117 64.3939L130.01 59.6678C130.009 59.6268 130.042 59.5932 130.082 59.5918C130.125 59.5955 130.157 59.6231 130.158 59.6641L130.265 64.3902C130.266 64.4312 130.233 64.4648 130.193 64.4658L130.191 64.4662Z" fill="black"/>
<path d="M131.343 63.4979C131.306 63.4979 131.273 63.4699 131.27 63.4316C131.179 62.5848 131.163 61.7241 131.223 60.8735C131.226 60.8325 131.259 60.8017 131.302 60.8049C131.343 60.8077 131.373 60.8431 131.371 60.8841C131.312 61.7259 131.328 62.5779 131.417 63.416C131.421 63.4565 131.392 63.4929 131.351 63.4975C131.348 63.4979 131.346 63.4979 131.343 63.4979Z" fill="black"/>
<path d="M56.6042 85.1246C56.5973 85.1246 56.5904 85.1236 56.5835 85.1213C56.5443 85.1098 56.5218 85.0688 56.5333 85.0297L56.9648 83.5552C56.9763 83.516 57.0168 83.4934 57.0564 83.505C57.0956 83.5165 57.1181 83.5575 57.1066 83.5966L56.6751 85.0711C56.6654 85.1034 56.636 85.1246 56.6042 85.1246Z" fill="black"/>
<path d="M57.2356 86.8868C57.231 86.8868 57.2264 86.8863 57.2213 86.8854C57.1812 86.8776 57.155 86.8389 57.1624 86.7988C57.412 85.4938 57.7196 84.1845 58.0774 82.9076C58.0884 82.8684 58.129 82.8449 58.1686 82.8564C58.2077 82.8675 58.2307 82.9085 58.2197 82.9476C57.8633 84.2205 57.5561 85.5255 57.3079 86.8264C57.3014 86.8619 57.2706 86.8868 57.2356 86.8868Z" fill="black"/>
<path d="M58.0124 89.055C58.0092 89.055 58.0059 89.055 58.0027 89.0545C57.9622 89.049 57.9336 89.0121 57.9392 88.9716C58.1289 87.5284 58.3826 86.0755 58.693 84.6539C58.7018 84.6139 58.7409 84.589 58.781 84.5973C58.821 84.606 58.8464 84.6456 58.8376 84.6852C58.5277 86.1031 58.2749 87.5519 58.0861 88.991C58.0805 89.0278 58.0488 89.055 58.0124 89.055Z" fill="black"/>
<path d="M58.9022 90.9052C58.8994 90.9052 58.8967 90.9052 58.8944 90.9047C58.8538 90.9006 58.8244 90.8637 58.8285 90.8232C58.98 89.4021 59.167 87.9667 59.3848 86.5575C59.3913 86.517 59.4295 86.4903 59.4691 86.4958C59.5096 86.5023 59.5372 86.54 59.5308 86.5801C59.3134 87.9874 59.1265 89.4205 58.9754 90.8388C58.9717 90.8766 58.9395 90.9052 58.9022 90.9052Z" fill="black"/>
<path d="M59.7567 92.7922C59.7544 92.7922 59.7516 92.7922 59.7493 92.7918C59.7088 92.7876 59.6789 92.7513 59.683 92.7107L60.1269 88.1808C60.1311 88.1402 60.1679 88.1117 60.208 88.1144C60.2485 88.1186 60.2784 88.155 60.2743 88.1955L59.8304 92.7255C59.8267 92.7637 59.7944 92.7922 59.7567 92.7922Z" fill="black"/>
<path d="M60.7401 94.4644C60.7373 94.4644 60.735 94.4644 60.7323 94.4639C60.6917 94.4598 60.6623 94.4234 60.6664 94.3824L61.1214 90.0693C61.1255 90.0284 61.1605 89.9984 61.2029 90.0035C61.2434 90.0076 61.2729 90.044 61.2687 90.085L60.8138 94.3981C60.8096 94.4363 60.7774 94.4644 60.7401 94.4644Z" fill="black"/>
<path d="M61.9337 96.0708C61.9319 96.0708 61.9301 96.0708 61.9278 96.0708C61.8872 96.0676 61.8564 96.0321 61.8596 95.9911L62.1714 91.8945C62.1746 91.8535 62.2151 91.8236 62.251 91.8263C62.292 91.8296 62.3224 91.865 62.3192 91.906L62.0074 96.0027C62.0042 96.0413 61.972 96.0708 61.9337 96.0708Z" fill="black"/>
<path d="M63.1811 97.6311C63.1401 97.6307 63.107 97.5975 63.1074 97.5565C63.1208 96.2146 63.1687 94.8538 63.2497 93.5114C63.252 93.4705 63.2833 93.4368 63.328 93.4419C63.369 93.4442 63.3998 93.4797 63.3975 93.5202C63.3165 94.8598 63.2691 96.2183 63.2557 97.5579C63.2548 97.5984 63.2216 97.6311 63.1811 97.6311Z" fill="black"/>
<path d="M64.5604 98.9049C64.5212 98.9049 64.4881 98.8741 64.4867 98.834C64.4278 97.546 64.4024 96.2391 64.4107 94.9497C64.4112 94.9087 64.4439 94.876 64.4849 94.876C64.5258 94.8764 64.559 94.9096 64.559 94.9506C64.5507 96.2377 64.5765 97.5418 64.635 98.8276C64.6368 98.8685 64.6055 98.9031 64.5645 98.9049C64.5622 98.9049 64.5613 98.9049 64.5604 98.9049Z" fill="black"/>
<path d="M65.9051 100.25C65.8678 100.25 65.8356 100.222 65.8314 100.184C65.6993 98.9543 65.6353 97.7031 65.6399 96.4653C65.6399 96.4243 65.673 96.3916 65.714 96.3916C65.7481 96.3939 65.7882 96.4248 65.7882 96.4657C65.7831 97.6981 65.8476 98.9437 65.9788 100.168C65.983 100.209 65.9539 100.246 65.913 100.25C65.9107 100.25 65.9079 100.25 65.9051 100.25Z" fill="black"/>
<path d="M67.3 101.267C67.264 101.267 67.2323 101.24 67.2267 101.204C67.0669 100.103 66.9445 98.9821 66.8616 97.8705C66.8583 97.8295 66.8892 97.794 66.9297 97.7912C66.9698 97.788 67.0062 97.8189 67.0089 97.8599C67.0914 98.9678 67.2138 100.086 67.3732 101.182C67.3792 101.223 67.3511 101.26 67.3106 101.266C67.3069 101.267 67.3036 101.267 67.3 101.267Z" fill="black"/>
<path d="M68.7832 102.332C68.7491 102.332 68.7187 102.309 68.7109 102.274C68.459 101.133 68.2568 99.967 68.109 98.8092C68.1039 98.7687 68.1325 98.7314 68.173 98.7264C68.2126 98.7204 68.2508 98.7498 68.2559 98.7904C68.4028 99.9439 68.6045 101.105 68.855 102.242C68.8637 102.282 68.8384 102.321 68.7988 102.33C68.7933 102.332 68.7882 102.332 68.7832 102.332Z" fill="black"/>
<path d="M70.1556 103.067C70.122 103.067 70.0916 103.044 70.0838 103.011C69.8356 101.968 69.6127 100.904 69.4211 99.8478C69.4138 99.8078 69.4405 99.7691 69.481 99.7617C69.5192 99.7553 69.5598 99.7811 69.5671 99.8216C69.7582 100.874 69.9807 101.936 70.2284 102.976C70.2381 103.016 70.2132 103.056 70.1736 103.065C70.1672 103.067 70.1612 103.067 70.1556 103.067Z" fill="black"/>
<path d="M71.3554 103.1C71.3217 103.1 71.2914 103.077 71.2831 103.042L70.747 100.713C70.7378 100.673 70.7627 100.633 70.8023 100.624C70.8433 100.615 70.882 100.64 70.8912 100.679L71.4272 103.008C71.4364 103.049 71.4115 103.088 71.3715 103.097C71.3664 103.099 71.3609 103.1 71.3554 103.1Z" fill="black"/>
<path d="M72.5384 102.732C72.537 102.732 72.5356 102.732 72.5342 102.732C72.5149 102.73 72.4656 102.72 72.4435 102.65L72.1 101.542C72.088 101.503 72.1096 101.462 72.1488 101.45C72.1884 101.437 72.2294 101.459 72.2414 101.499L72.5725 102.567C72.5835 102.571 72.5936 102.577 72.6015 102.585C72.6259 102.61 72.6319 102.649 72.6162 102.683C72.6038 102.709 72.5683 102.732 72.5384 102.732Z" fill="black"/>
<g opacity="0.1294">
<path d="M90.9533 21.3472C90.6959 21.1151 90.3169 21.1192 89.9973 21.0281C89.6749 20.9502 89.365 20.8264 89.0579 20.7016C88.8893 20.6302 88.7258 20.5473 88.5683 20.4543C88.5499 20.4414 88.5324 20.4276 88.514 20.4151C88.4311 20.3576 88.3358 20.2954 88.2345 20.2779C88.1175 20.1637 87.9946 20.0578 87.8559 19.9754C87.4433 19.7801 87.0625 20.3502 87.3908 20.6652C88.0705 21.3214 88.7383 21.9914 89.4138 22.6527C89.7302 22.9387 89.9715 23.3449 90.3634 23.5295C90.5573 23.5862 90.7898 23.4775 90.8566 23.2845C90.9192 23.1275 90.8999 22.9456 90.9059 22.7789C90.9174 22.3944 90.9049 22.5086 91.0039 22.0637C91.0859 21.828 91.1522 21.5447 90.9533 21.3472Z" fill="black"/>
</g>
<g opacity="0.1294">
<path d="M86.676 31.4395C86.1432 32.0731 85.6283 32.721 85.05 33.3169C84.7787 33.596 84.4964 33.8672 84.21 34.1343C84.169 34.1794 84.1276 34.225 84.0838 34.2715C83.79 34.5962 83.4948 34.9204 83.1918 35.2372C83.1412 35.2073 83.0836 35.1884 83.0214 35.1843C82.8285 35.3454 82.6351 35.5057 82.4398 35.6618C82.3496 35.7341 82.2418 35.7138 82.1704 35.6563C82.1695 35.6572 82.1681 35.6577 82.1672 35.6586C80.8764 36.6611 79.389 37.4232 77.9103 38.0877C77.8877 38.0979 77.8661 38.1025 77.8449 38.1048C77.7979 38.1361 77.7505 38.1674 77.7045 38.2006C77.4899 38.4211 77.4691 38.7522 77.4231 39.0414C77.3637 39.3914 77.3494 39.8703 77.7427 40.0237C78.0614 40.1757 78.334 39.9123 78.596 39.7644C79.0809 39.4946 79.5423 39.1879 79.9927 38.8637C81.2775 38.0541 82.0617 37.6157 83.1439 36.5759C83.9747 35.7884 84.7387 34.9314 85.4828 34.0625C85.6753 33.8267 85.8508 33.5789 86.0184 33.3252C86.1694 32.9987 86.3159 32.6681 86.4305 32.3273C86.5286 32.0372 86.6028 31.7397 86.682 31.4441C86.6801 31.4418 86.6778 31.4408 86.676 31.4395Z" fill="black"/>
</g>
<g opacity="0.1294">
<path d="M91.7274 62.096C91.4529 61.8354 91.0421 61.8989 90.6954 61.8455C89.7071 61.7134 88.7088 61.6774 87.7122 61.7046C87.2812 61.718 86.8506 61.7184 86.4196 61.7203C86.229 61.7368 86.0199 61.6825 85.8417 61.764C85.7772 61.7884 85.7247 61.8234 85.6823 61.8644C85.0183 61.8326 84.3542 61.8045 83.6902 61.7682C82.3027 61.6701 80.8259 61.5651 79.7787 61.3624C79.2316 61.2192 78.9968 62.0371 79.5475 62.201C80.241 62.3645 80.9567 62.4161 81.6617 62.5123C82.5113 62.6302 83.7257 62.767 84.9124 62.8503C86.2041 62.9438 87.4903 63.1068 88.7834 63.1824C89.6542 63.233 90.5342 63.2035 91.3935 63.0461C91.8425 62.9926 92.0603 62.4156 91.7274 62.096Z" fill="black"/>
</g>
<g opacity="0.1294">
<path d="M97.6924 85.457C97.7002 85.4704 97.7039 85.4851 97.7099 85.4989C97.7306 85.5473 97.7407 85.5708 97.6924 85.457Z" fill="black"/>
</g>
<g opacity="0.1294">
<path d="M98.6118 68.1965C98.4474 67.8963 97.956 67.9552 97.8745 68.2928C97.4159 69.9078 97.3035 71.5964 96.9798 73.24C96.8131 74.0845 96.5925 74.918 96.4401 75.7658C96.2443 76.9613 96.0201 78.154 95.6526 79.3108C95.479 79.8694 95.3344 80.3018 95.1962 80.5629C95.1815 80.5901 95.1631 80.6149 95.146 80.6407C95.1414 80.6421 95.1373 80.6435 95.1327 80.6444C95.0106 80.6518 94.8886 80.6449 94.7666 80.6472C94.1781 80.6177 93.9013 81.1684 94.1145 81.6791C94.3894 82.5762 95.4767 83.8817 95.7382 84.2294C96.3332 84.9685 96.9844 86.1879 97.0033 86.4016C97.0696 86.6199 97.1202 86.8423 97.17 87.0652C97.1805 87.1789 97.2252 87.2881 97.3076 87.3691C97.5959 87.6754 98.1577 87.435 98.1292 87.0113C98.0587 86.5223 97.9233 86.0447 97.7401 85.5851C97.7336 85.5557 97.723 85.5266 97.7106 85.499C97.7032 85.482 97.6949 85.4622 97.6871 85.4438C97.6212 85.2835 97.3901 84.7447 97.4918 84.9833C97.2759 84.4882 96.9927 83.7883 96.7048 83.0141C96.5165 82.5209 96.3355 82.025 96.1352 81.5364C96.068 81.4079 96.0288 81.2527 95.9588 81.1224C96.493 80.0904 96.744 78.9258 97.0129 77.8013C97.2657 76.3963 97.519 74.9931 97.8372 73.6005C98.0274 72.5009 98.2604 70.5078 98.2991 70.301C98.3696 69.7972 98.4566 69.2953 98.5731 68.8002C98.6159 68.6022 98.7324 68.3895 98.6118 68.1965Z" fill="black"/>
</g>
<g opacity="0.1294">
<path d="M136.598 57.8198C136.441 57.6868 136.304 57.6766 136.18 57.7314C136.057 57.7061 135.923 57.7337 135.818 57.8433C135.209 58.489 134.628 59.1516 134.065 59.8226C133.721 59.7475 133.528 60.0551 133.338 60.3443C133.129 60.646 132.92 60.9471 132.694 61.2359C132.594 61.3648 132.493 61.4919 132.39 61.6181C130.765 63.0659 129.04 64.4037 127.392 65.8229C124.376 68.2673 121.349 70.7126 118.417 72.9888C118.298 73.0708 118.179 73.1528 118.061 73.2347C116.085 74.5757 114.065 75.8499 112.095 77.201C108.012 80.0221 103.999 82.9454 99.8062 85.6052C97.9311 86.8159 96.0269 87.9801 94.1416 89.1746C92.8936 89.9519 91.5968 90.6459 90.33 91.391C88.4143 92.5542 86.5318 93.7709 84.5889 94.8899C82.8883 95.9601 81.1245 96.9226 79.3488 97.862C77.7647 98.7701 76.1976 99.7086 74.6531 100.683C74.1963 100.963 73.7417 101.247 73.2812 101.52C73.0897 101.641 72.8484 101.727 72.7512 101.937C72.4289 102.088 72.1217 102.223 71.8353 102.333C71.5714 102.399 71.3992 102.7 71.4784 102.961C71.5493 103.224 71.8431 103.396 72.1065 103.318C72.24 103.267 72.3727 103.215 72.5048 103.161C72.0107 103.437 72.2755 104.276 72.9069 104.123C76.7074 103.251 80.4877 102.274 84.3255 101.571C85.3183 101.404 85.7208 101.352 86.5134 101.265C87.0927 101.236 87.4615 101.195 87.7116 100.775C87.7613 100.118 87.829 99.4622 87.905 98.812C88.0339 97.7128 88.1933 96.6168 88.3784 95.5254C88.3876 95.4471 88.3973 95.3688 88.4069 95.2906C88.3291 95.2077 88.2269 95.1529 88.1168 95.1331C88.5502 94.8581 88.9798 94.5768 89.4025 94.2843C89.6982 94.0463 90.0836 93.8911 90.2199 93.641C90.9798 93.2505 91.7405 92.8628 92.5054 92.4824C93.6102 91.9408 94.6403 91.2667 95.6921 90.6316C97.7004 89.461 99.6004 88.1247 101.513 86.8062C103.163 85.6679 104.85 84.5852 106.528 83.4888C108.07 82.4572 109.733 81.6242 111.278 80.5982C112.786 79.5842 114.273 78.5402 115.789 77.5377C117.055 76.6742 118.363 75.8711 119.611 74.9796C120.039 74.6729 120.449 74.3422 120.851 74.0019C121.509 73.5539 122.152 73.0823 122.797 72.6149C123.665 71.9826 124.535 71.3517 125.348 70.6486C127.356 68.9152 129.343 67.1423 131.095 65.1437C131.232 64.9641 131.426 64.8158 131.527 64.6132C131.578 64.5123 131.574 64.3972 131.534 64.295C131.955 63.7603 132.368 63.2317 132.791 62.6938C132.953 62.5041 133.112 62.3111 133.269 62.1163C133.857 61.5656 134.428 60.9955 134.965 60.3931C135.503 59.8042 136.005 59.1843 136.482 58.5461C136.516 58.5014 136.598 58.3918 136.617 58.3646C136.68 58.2919 136.716 58.2002 136.716 58.104C136.717 57.9967 136.67 57.8954 136.598 57.8198ZM74.0738 102.775C73.5935 102.89 73.1127 103.002 72.6306 103.109C73.097 102.913 73.5539 102.697 74.0075 102.473C74.0355 102.549 74.083 102.619 74.1442 102.672C74.1152 102.704 74.0922 102.738 74.0738 102.775ZM86.6681 96.066C86.3711 96.2696 84.8822 97.3227 84.1441 97.7469C83.1268 98.3128 82.0985 98.824 81.0605 99.32C81.8816 98.8599 82.6944 98.3865 83.4929 97.8873C84.6304 97.2099 85.7821 96.5555 86.9167 95.8735C86.838 95.9376 86.756 96.002 86.6681 96.066Z" fill="black"/>
</g>
<g opacity="0.1294">
<path d="M79.4762 87.739C79.466 87.7436 79.4559 87.7486 79.4453 87.7528C79.5973 87.6906 79.5568 87.7054 79.4762 87.739Z" fill="black"/>
</g>
<g opacity="0.1294">
<path d="M82.4506 81.5812C82.2747 81.6282 82.143 81.8004 82.1449 81.9827C82.1509 82.1011 82.1601 82.2199 82.149 82.3382C82.1472 82.3645 82.1439 82.3903 82.1407 82.4165C82.0583 83.0184 81.7461 84.0697 81.6507 84.212C80.3494 86.8664 78.0289 87.483 75.3598 86.771C75.1153 86.7038 74.8565 86.538 74.6119 86.6974C74.2864 86.8797 74.2822 87.3881 74.6119 87.5696C75.5486 87.9711 76.5926 88.0932 77.6043 88.1166C78.2131 88.1014 78.8246 88.0034 79.3915 87.7754C79.4205 87.7625 79.4505 87.7496 79.4762 87.7386C80.6464 87.2325 81.5752 86.2686 82.2245 85.1874C82.633 84.5344 82.802 83.7695 82.919 83.0175C82.9696 82.5519 83.2317 81.4702 82.4506 81.5812Z" fill="black"/>
</g>
<g opacity="0.1294">
<path d="M109.287 65.1736C109.261 64.5164 108.303 64.5639 108.335 65.2238C108.329 65.5254 108.222 66.0739 108.038 66.6702C108.033 66.6836 108.028 66.6969 108.023 66.7098C107.89 67.0045 107.741 67.2914 107.593 67.5783C107.045 68.6112 106.738 68.9419 105.776 69.7238C105.679 69.7961 105.566 69.9011 105.164 70.1442C104.698 70.4169 103.962 70.7857 103.897 70.7959C104.24 70.6609 103.497 70.9414 103.344 70.9681C102.895 71.0989 102.223 71.2278 102.191 71.2099C101.788 71.2361 101.385 71.2158 100.985 71.1624C100.78 71.1348 100.565 71.0574 100.377 71.1772C100.008 71.3766 100.084 71.9784 100.494 72.0765C101.181 72.193 101.882 72.2957 102.58 72.2547C102.596 72.2534 102.611 72.2511 102.628 72.2492C102.696 72.3823 102.826 72.4822 103.005 72.4781C103.767 72.4993 104.547 72.4012 105.261 72.1249C105.727 71.9282 106.145 71.634 106.565 71.3554C107.143 70.993 107.645 70.5343 108.014 69.9568C108.141 69.7339 108.407 69.5235 108.335 69.2426C108.309 69.1385 108.242 69.0621 108.158 69.0156C108.548 68.4233 108.846 67.769 109.055 67.0925C109.129 66.8507 109.162 66.5988 109.194 66.3488C109.172 66.5173 109.178 66.4713 109.198 66.3331C109.248 65.9495 109.311 65.5622 109.287 65.1736Z" fill="black"/>
</g>
<g opacity="0.1294">
<path d="M65.4812 100.531C65.3628 100.494 65.2509 100.518 65.1432 100.562C64.9627 100.574 64.8001 100.688 64.6366 100.769C64.288 100.956 63.9413 101.147 63.6092 101.363C62.3557 102.191 61.2335 103.193 60.1711 104.251C59.3316 105.11 58.878 105.502 58.2969 106.376C58.1684 106.598 58.1546 106.897 58.3047 107.097C58.3484 107.189 58.4083 107.274 58.4917 107.332C58.5446 107.37 58.6584 107.449 58.7012 107.478C58.7035 107.48 58.7058 107.482 58.7076 107.483C58.756 107.523 58.8251 107.6 58.8591 107.639C59.0723 107.931 59.1244 108.34 59.4463 108.542C59.7451 108.704 60.1518 108.577 60.335 108.298C60.3724 108.241 60.394 108.175 60.4189 108.111C60.4345 108.077 60.4612 108.018 60.4847 107.971C60.7154 107.448 61.0014 106.954 61.2851 106.458C62.3461 104.694 63.1529 103.541 64.7038 102.2C65.0999 101.837 65.6253 101.457 65.7404 101.318C65.9675 101.057 65.8118 100.614 65.4812 100.531Z" fill="black"/>
</g>
<path d="M17.9332 39.0097C25.8976 39.9044 33.9366 39.8409 41.948 39.6245C43.8807 39.5724 45.9728 39.4536 47.4579 38.2066C49.5965 36.4115 49.3428 32.5571 47.0743 30.9334C44.8059 29.3096 41.243 30.1933 39.8375 32.6133C40.0143 29.6306 37.605 26.7267 34.6578 26.3702C31.7105 26.0138 28.6837 28.2606 28.1513 31.2C28.0026 29.1848 25.1668 28.2795 23.4952 29.3994C21.8235 30.5194 21.305 32.8081 21.5606 34.8127C20.8339 32.8878 17.8213 32.6289 16.5093 34.2099C15.1974 35.7912 15.5906 38.7463 17.9332 39.0097Z" fill="white"/>
<path d="M26.8621 39.8712C23.8195 39.7612 20.8654 39.5572 17.909 39.2252C16.9129 39.1133 16.1581 38.5399 15.7837 37.6116C15.3255 36.475 15.5553 35.0194 16.3423 34.0712C17.0455 33.2239 18.2824 32.8076 19.4936 33.0102C20.2253 33.1327 20.8502 33.4675 21.2831 33.9492C21.2591 32.2246 21.7906 30.2803 23.3747 29.2189C24.3201 28.5852 25.7039 28.5244 26.8179 29.0674C27.4377 29.3695 27.8968 29.8189 28.1501 30.3545C29.0591 27.7241 31.9179 25.8185 34.6842 26.1547C37.4946 26.4945 39.8497 29.0987 40.05 31.9202C40.8061 30.9729 41.9219 30.2937 43.204 30.0183C44.6532 29.7065 46.1102 29.9759 47.2007 30.757C48.3547 31.5831 49.0795 33.018 49.1403 34.5962C49.1993 36.1241 48.6365 37.5006 47.5972 38.3732C46.1015 39.629 44.0743 39.7842 41.9537 39.8413C36.4949 39.9887 31.5735 40.0421 26.8621 39.8712ZM17.9573 38.7941C25.4668 39.6382 32.9766 39.6497 41.9422 39.4075C43.9831 39.3523 45.9297 39.2063 47.3186 38.0407C48.2548 37.2551 48.7609 36.0058 48.707 34.6128C48.6513 33.1677 47.9941 31.8585 46.9483 31.1102C45.9573 30.4005 44.6255 30.1569 43.2951 30.4429C41.8823 30.7464 40.6905 31.5771 40.0256 32.7224C39.9749 32.809 39.8718 32.8499 39.7755 32.8209C39.6793 32.7919 39.6157 32.7007 39.6217 32.6004C39.7916 29.7383 37.4601 26.9274 34.6326 26.5857C31.8065 26.2445 28.8768 28.4181 28.3656 31.2386C28.3463 31.3459 28.2542 31.4201 28.1409 31.4164C28.0318 31.4104 27.9438 31.3248 27.936 31.2156C27.8812 30.4765 27.4046 29.8355 26.6281 29.457C25.6487 28.9794 24.4384 29.0287 23.6169 29.579C21.9144 30.7197 21.5617 33.0963 21.7767 34.7845C21.7906 34.8937 21.7206 34.9959 21.6137 35.0226C21.5055 35.0493 21.3968 34.9917 21.3581 34.8886C21.0694 34.1242 20.3639 33.5955 19.4222 33.438C18.3612 33.2603 17.2831 33.6176 16.6767 34.348C15.9873 35.1787 15.7856 36.4538 16.1867 37.449C16.498 38.2236 17.127 38.7006 17.9573 38.7941Z" fill="black"/>
<g opacity="0.1294">
<path d="M48.003 37.2689C47.9933 37.0299 47.775 36.8407 47.5411 36.8301C47.3619 36.8172 47.2233 36.9355 47.0737 37.0138C46.8945 37.1133 46.7113 37.2068 46.5215 37.2837C45.8395 37.5213 45.152 37.7806 44.4281 37.8473C44.3599 37.8533 44.2922 37.8588 44.2241 37.8662C44.5202 37.8381 44.254 37.8598 44.0984 37.8584C40.8002 37.7686 37.5072 38.0076 34.209 38.009C32.7037 38.0099 31.1992 38.0688 29.6938 38.0665C27.1928 38.0334 24.6918 38.0126 22.1908 37.9832C21.5599 37.9519 20.9272 37.9265 20.2986 37.8602C19.2593 37.7294 18.2259 37.5319 17.1796 37.4669C16.3935 37.4531 16.3263 38.6274 17.1354 38.6813C18.738 38.83 18.8743 39.0073 20.8996 39.2477C22.4561 39.4195 24.0245 39.3628 25.587 39.4236C27.1606 39.4724 28.7332 39.5466 30.3063 39.5991C31.5925 39.6244 32.8791 39.5977 34.1658 39.6051C34.2086 39.6051 34.2514 39.6037 34.2942 39.6037C36.0741 39.7036 37.8604 39.7105 39.6416 39.6806C40.4051 39.6571 41.1686 39.6935 41.9321 39.6824C42.6137 39.6484 42.8513 39.6041 43.2943 39.5728C44.1674 39.5167 45.0599 39.4683 45.8731 39.1133C46.119 39.0055 46.3963 38.9083 46.5869 38.7158C46.6597 38.6394 46.6905 38.5367 46.6855 38.4345C46.9281 38.3161 47.1635 38.1835 47.3863 38.0306C47.4669 37.9698 47.7092 37.8013 47.5006 37.9473C47.6046 37.8754 47.7055 37.7981 47.8003 37.7147C47.9413 37.6171 48.0324 37.4402 48.003 37.2689Z" fill="black"/>
</g>
</svg>
