<svg width="35" height="35" viewBox="0 0 35 35" fill="none" xmlns="http://www.w3.org/2000/svg">
<g clip-path="url(#clip0_746_58851)">
<path d="M16.7152 34.9983C15.9687 34.8606 15.2095 34.7686 14.4767 34.5781C10.15 33.4534 6.73382 29.5924 6.12952 25.1755C6.09398 24.9166 6.0639 24.656 6.03473 24.3962C5.99189 24.0079 6.16325 23.7491 6.48044 23.7181C6.79124 23.688 7.00726 23.8785 7.04189 24.2604C7.19867 25.9785 7.70726 27.5772 8.62692 29.0401C10.9721 32.7698 15.3754 34.6492 19.6802 33.7569C23.9431 32.8728 27.2699 29.4165 27.897 25.0816C28.0993 23.6834 28.0446 22.247 28.1084 20.8014C26.5553 20.8014 25.0833 20.8014 23.5548 20.8014C23.5548 20.9263 23.5575 21.0575 23.5548 21.1888C23.5338 22.2351 23.6113 23.2961 23.4709 24.326C23.0936 27.0978 20.835 29.2032 18.097 29.452C15.3343 29.7027 12.7431 28.032 11.8617 25.3605C11.6411 24.6924 11.5764 23.9605 11.5272 23.2514C11.4716 22.4484 11.5144 21.6381 11.5144 20.8041C10.0187 20.8041 8.54671 20.8041 7.02093 20.8041C7.02093 21.0922 7.02367 21.3948 7.02002 21.6964C7.01546 22.0966 6.8277 22.3354 6.51689 22.3436C6.19515 22.3518 5.99736 22.1075 5.99736 21.6855C5.99645 19.5554 5.99463 17.4254 5.99827 15.2953C6.0001 14.4449 6.55791 13.8871 7.41195 13.8825C8.61689 13.8761 9.82275 13.8798 11.0277 13.8816C11.9866 13.8834 12.5343 14.4257 12.5362 15.3828C12.5389 18.0488 12.5271 20.7139 12.5416 23.3799C12.5535 25.5984 13.9234 27.5006 15.9724 28.1915C19.1151 29.2515 22.461 26.9355 22.5175 23.6142C22.564 20.9035 22.5294 18.1919 22.5312 15.4812C22.5321 14.402 23.0453 13.8825 24.1126 13.8825C25.2729 13.8816 26.4323 13.8807 27.5925 13.8834C28.5313 13.8853 29.0682 14.4285 29.0718 15.37C29.0728 15.6662 29.0764 15.9625 29.0709 16.2587C29.0636 16.616 28.8795 16.8229 28.5751 16.8293C28.2579 16.8356 28.0592 16.6205 28.0501 16.2478C28.0428 15.9406 28.0428 15.6325 28.0501 15.3254C28.0565 15.0373 27.9198 14.9079 27.6381 14.9088C26.4213 14.9106 25.2045 14.9116 23.9877 14.9079C23.7088 14.907 23.5566 15.0273 23.5566 15.3126C23.5575 16.7591 23.5603 18.2056 23.5639 19.652C23.5639 19.6721 23.5803 19.6922 23.5967 19.7341C25.0605 19.7341 26.5325 19.7341 28.0483 19.7341C28.0483 19.4269 28.0437 19.1234 28.0492 18.8208C28.0556 18.4498 28.2515 18.2156 28.5523 18.2083C28.8677 18.201 29.0709 18.4371 29.0709 18.8326C29.0709 20.5298 29.0937 22.2278 29.0609 23.9241C28.9625 29.0273 25.1043 33.6338 20.0302 34.7248C19.4769 34.8442 18.9127 34.9108 18.3531 35.0019C17.8071 34.9983 17.2612 34.9983 16.7152 34.9983ZM11.4898 19.7414C11.5007 19.663 11.5117 19.6192 11.5117 19.5755C11.5126 18.1645 11.5117 16.7545 11.5144 15.3436C11.5153 15.0237 11.3586 14.9015 11.0487 14.9024C9.87926 14.9088 8.70895 14.9043 7.53955 14.9052C7.09658 14.9061 7.02093 14.9799 7.02093 15.4156C7.02002 16.7582 7.02002 18.0998 7.02184 19.4424C7.02184 19.5399 7.03551 19.6366 7.04372 19.7405C8.53577 19.7414 9.99867 19.7414 11.4898 19.7414Z" fill="#060606"/>
<path d="M24.5614 0.000911458C24.7746 0.0720052 24.9952 0.127604 25.2012 0.216016C26.7352 0.86862 27.3276 2.70703 26.469 4.13529C26.4171 4.22096 26.3651 4.30664 26.3132 4.39232C26.6094 4.48164 26.9011 4.53451 27.1627 4.65573C28.1817 5.12786 28.7358 5.93724 28.7887 7.06198C28.817 7.67539 28.7969 8.29245 28.7951 8.90677C28.7942 9.41901 28.6347 9.58216 28.1261 9.58216C26.284 9.58399 24.442 9.58307 22.5999 9.58307C22.4759 9.58307 22.3529 9.58307 22.1779 9.58307C22.1779 9.85287 22.1806 10.098 22.177 10.3441C22.1715 10.7762 22.0075 10.9603 21.5882 10.9648C20.6785 10.973 19.7689 10.9721 18.8593 10.9648C18.4701 10.9621 18.2687 10.7743 18.2714 10.4526C18.2741 10.1354 18.4792 9.94948 18.8675 9.94583C19.6158 9.93854 20.3641 9.94401 21.1543 9.94401C21.1543 9.41536 21.1543 8.91771 21.1543 8.42005C21.1543 7.98711 21.1607 7.55417 21.1516 7.12122C21.1325 6.19336 20.4334 5.47057 19.5073 5.45964C18.1884 5.44323 16.8687 5.44414 15.5498 5.45964C14.7121 5.46966 13.9739 6.11133 13.9338 6.92617C13.8845 7.91237 13.9219 8.90312 13.9219 9.94401C14.1707 9.94401 14.4041 9.94401 14.6383 9.94401C15.2071 9.94492 15.7758 9.93672 16.3437 9.94948C16.6845 9.95768 16.9033 10.1837 16.8924 10.4754C16.8814 10.7561 16.6718 10.9603 16.3427 10.9639C15.3766 10.973 14.4095 10.9749 13.4434 10.9639C13.0651 10.9603 12.8974 10.7671 12.8892 10.3797C12.8847 10.1309 12.8883 9.88203 12.8883 9.5849C12.7297 9.5849 12.5985 9.5849 12.4663 9.5849C10.6352 9.5849 8.80498 9.58581 6.97386 9.58398C6.41787 9.58398 6.27113 9.43451 6.27021 8.87396C6.2693 8.34987 6.2693 7.82578 6.27021 7.30169C6.27295 5.73945 7.17529 4.68034 8.75029 4.42148C8.70837 4.33945 8.67464 4.2638 8.6318 4.19362C7.61735 2.54753 8.46501 0.51224 10.3508 0.0628906C10.4037 0.0501302 10.4529 0.021875 10.5039 0.000911458C10.7765 0.000911458 11.0499 0.000911458 11.3224 0.000911458C11.3963 0.0255208 11.4683 0.055599 11.543 0.0738281C12.9521 0.422917 13.8481 1.77279 13.5728 3.20104C13.4917 3.62305 13.2802 4.02044 13.1417 4.39596C13.4397 4.49987 13.7679 4.61745 14.0996 4.72682C14.168 4.74961 14.2537 4.7651 14.3184 4.74414C14.6647 4.6293 15.0075 4.50078 15.3611 4.37318C15.3128 4.29479 15.259 4.20911 15.2071 4.12253C14.4341 2.8319 14.8325 1.17852 16.1267 0.408333C16.4321 0.226953 16.7894 0.133984 17.1229 0C17.3955 0 17.6689 0 17.9414 0C18.0034 0.0227865 18.0645 0.0519531 18.1283 0.0674479C19.5647 0.412891 20.4653 1.75182 20.19 3.20286C20.1098 3.62487 19.8965 4.02227 19.7571 4.39687C20.046 4.49622 20.3641 4.60924 20.6849 4.71406C20.7642 4.73958 20.8608 4.7651 20.9338 4.74232C21.281 4.63021 21.6228 4.50169 21.9783 4.375C21.9282 4.29479 21.8744 4.21003 21.8224 4.12344C21.0659 2.85833 21.436 1.225 22.6865 0.44388C23.0055 0.244271 23.3883 0.145833 23.742 0.00182292C24.0154 0.000911458 24.2888 0.000911458 24.5614 0.000911458ZM7.30199 8.52852C9.18324 8.52852 11.0271 8.52852 12.881 8.52852C12.9284 7.5013 12.7078 6.45768 13.4151 5.53711C13.241 5.5043 13.1216 5.46328 13.0022 5.46237C11.6159 5.45781 10.2296 5.44049 8.84326 5.46602C8.05576 5.4806 7.36761 6.15417 7.30928 6.9444C7.271 7.46302 7.30199 7.98711 7.30199 8.52852ZM27.7706 8.53854C27.7706 8.05182 27.7779 7.58698 27.7688 7.12305C27.7515 6.19609 27.0515 5.47148 26.1282 5.45964C24.8102 5.44232 23.4922 5.45234 22.1743 5.45781C22.0157 5.45872 21.858 5.50065 21.6392 5.53255C22.3675 6.47773 22.1259 7.52591 22.1897 8.53854C24.0473 8.53854 25.8839 8.53854 27.7706 8.53854ZM10.9095 1.02721C9.98167 1.02904 9.21514 1.80013 9.21787 2.72799C9.22061 3.65404 9.99717 4.42604 10.9205 4.42148C11.8465 4.41693 12.6158 3.64128 12.6121 2.71706C12.6076 1.78737 11.8392 1.02539 10.9095 1.02721ZM17.5386 1.02721C16.6089 1.02448 15.8405 1.78646 15.836 2.71615C15.8314 3.64128 16.5998 4.41693 17.5258 4.42148C18.4482 4.42604 19.2257 3.65404 19.2293 2.72891C19.233 1.80104 18.4674 1.02995 17.5386 1.02721ZM25.8474 2.73346C25.8538 1.80651 25.0882 1.03177 24.1612 1.02721C23.2306 1.02266 22.4614 1.7819 22.4541 2.7125C22.4468 3.63763 23.2124 4.41328 24.1394 4.4224C25.0608 4.4306 25.841 3.65951 25.8474 2.73346Z" fill="#060606"/>
<path d="M18.0442 15.1455C18.0442 15.8956 18.0451 16.6466 18.0433 17.3968C18.0433 17.5216 18.0433 17.6492 18.0142 17.7695C17.9558 18.0083 17.7863 18.1341 17.5448 18.1378C17.2886 18.1423 17.11 18.0166 17.0471 17.7613C17.0234 17.6638 17.0216 17.5581 17.0207 17.4569C17.0188 15.922 17.0198 14.3871 17.0198 12.8522C17.0198 12.7729 17.0188 12.6918 17.0307 12.6143C17.0754 12.3281 17.2412 12.1623 17.5356 12.1641C17.83 12.1668 18.0032 12.3354 18.0297 12.6225C18.0524 12.8705 18.0424 13.122 18.0433 13.3718C18.0461 13.9624 18.0442 14.5539 18.0442 15.1455Z" fill="#060606"/>
<path d="M15.8333 16.1936C15.8333 16.6475 15.8379 17.1023 15.8324 17.5562C15.8278 17.9281 15.63 18.1468 15.3192 18.1432C15.0248 18.1395 14.817 17.9217 14.8143 17.5762C14.807 16.6447 14.8061 15.7132 14.8152 14.7826C14.8179 14.4445 15.0431 14.2221 15.3347 14.2266C15.6255 14.2303 15.8287 14.4545 15.8333 14.7972C15.8388 15.262 15.8333 15.7278 15.8333 16.1936Z" fill="#060606"/>
<path d="M20.2546 16.2022C20.2546 16.6451 20.2592 17.0881 20.2537 17.5311C20.2482 17.9221 20.0441 18.1518 19.7241 18.1427C19.4133 18.1345 19.2338 17.9203 19.2329 17.5356C19.2292 16.6388 19.2301 15.741 19.2329 14.8441C19.2338 14.4677 19.4197 14.2389 19.7196 14.227C20.0331 14.2143 20.2482 14.454 20.2537 14.8386C20.2592 15.2935 20.2546 15.7474 20.2546 16.2022Z" fill="#060606"/>
</g>
<defs>
<clipPath id="clip0_746_58851">
<rect width="35" height="35" fill="white"/>
</clipPath>
</defs>
</svg>
