<svg width="35" height="35" viewBox="0 0 35 35" fill="none" xmlns="http://www.w3.org/2000/svg">
<path d="M26.6899 12.4476C26.6965 12.8512 26.5108 13.162 26.2331 13.4387C24.8155 14.8512 23.4016 16.2679 21.9867 17.6832C17.7011 21.9697 13.4156 26.2558 9.12998 30.5423C8.32737 31.3449 7.69228 31.3412 6.8822 30.5306C6.58495 30.2329 6.28677 29.9361 5.98953 29.638C5.28771 28.9347 5.28444 28.2343 5.98159 27.5372C10.2186 23.2987 14.4562 19.0612 18.6937 14.8227C20.165 13.351 21.6363 11.8792 23.1081 10.4079C23.8061 9.71028 24.5038 9.71308 25.2088 10.4158C25.5714 10.777 25.9592 11.1177 26.2844 11.5096C26.4977 11.7667 26.619 12.0999 26.7814 12.399C26.7506 12.4154 26.7203 12.4317 26.6899 12.4476ZM19.6218 15.2894C19.5929 15.315 19.5406 15.357 19.494 15.4037C15.2079 19.6893 10.9223 23.9749 6.63768 28.2618C6.38103 28.5185 6.38617 28.652 6.65075 28.9184C6.96293 29.2334 7.27884 29.5446 7.59242 29.8582C7.99093 30.2562 8.03572 30.2562 8.4375 29.8545C12.6424 25.6487 16.8472 21.4424 21.0539 17.239C21.1482 17.1447 21.269 17.0771 21.3521 17.0159C20.7427 16.4074 20.1897 15.8554 19.6218 15.2894ZM22.0838 16.2082C23.2462 15.0444 24.4165 13.8722 25.5873 12.7C25.7674 12.5199 25.7576 12.3463 25.5789 12.169C25.2238 11.8176 24.8729 11.4616 24.5187 11.1093C24.2056 10.798 24.1025 10.798 23.7926 11.1069C22.7235 12.1741 21.6554 13.2418 20.5873 14.3104C20.5168 14.3808 20.4538 14.4583 20.403 14.5148C20.9685 15.0845 21.5192 15.6389 22.0838 16.2082Z" fill="black"/>
<path d="M30.5001 25.5954C30.4641 25.8791 30.3148 26.0373 30.0213 26.0783C29.5724 26.1413 29.116 26.1861 28.6811 26.3061C27.1258 26.7344 26.3652 27.8432 26.1333 29.3789C26.1011 29.5921 26.0871 29.8082 26.06 30.0219C26.0232 30.3112 25.8547 30.4871 25.5659 30.4834C25.2966 30.4797 25.1342 30.3163 25.0922 30.0387C25.026 29.6014 24.9882 29.1553 24.8729 28.7307C24.4576 27.1992 23.3181 26.3023 21.6186 26.1292C21.4492 26.1119 21.2798 26.0933 21.1104 26.0732C20.8169 26.0382 20.6536 25.8726 20.6625 25.5758C20.6713 25.2767 20.8566 25.1395 21.1431 25.1035C21.5145 25.0573 21.8911 25.0261 22.2537 24.9398C23.9112 24.5454 24.8626 23.4013 25.0395 21.6206C25.0554 21.4624 25.075 21.3047 25.0936 21.1465C25.1268 20.866 25.2971 20.7064 25.5663 20.7032C25.8542 20.6999 26.0236 20.8721 26.061 21.1637C26.0983 21.4563 26.1212 21.7522 26.179 22.041C26.5379 23.8212 27.613 24.8142 29.4128 25.0387C29.627 25.0653 29.843 25.0788 30.0563 25.1105C30.3293 25.1511 30.4702 25.3215 30.5001 25.5954ZM23.396 25.5986C24.4072 26.0625 25.0983 26.7774 25.5785 27.7694C26.054 26.7587 26.7553 26.0634 27.7618 25.593C26.7366 25.1292 26.0456 24.4078 25.5691 23.4185C25.1011 24.4353 24.3899 25.1259 23.396 25.5986Z" fill="black"/>
<path d="M7.02196 19.8999C6.74571 19.8635 6.57399 19.7254 6.53199 19.4286C6.46993 18.9904 6.42747 18.5443 6.31034 18.1202C5.8731 16.5331 4.74011 15.7721 3.17455 15.5513C2.97203 15.5229 2.76718 15.5093 2.56466 15.4813C2.28794 15.4431 2.12742 15.2709 2.12695 15.0007C2.12695 14.731 2.28608 14.563 2.56326 14.5187C3.01123 14.4468 3.46993 14.4104 3.90483 14.29C5.4144 13.8719 6.29121 12.759 6.47646 11.0814C6.49653 10.9004 6.51333 10.7193 6.53899 10.5392C6.57866 10.2606 6.75551 10.1057 7.02476 10.1094C7.29448 10.1132 7.46293 10.277 7.50073 10.5532C7.53899 10.8346 7.55812 11.1197 7.61225 11.3978C7.9711 13.2406 9.07982 14.255 10.944 14.4585C11.1134 14.4772 11.2828 14.4972 11.4522 14.5168C11.7485 14.5513 11.9128 14.7296 11.9058 15.0152C11.8992 15.284 11.7317 15.4426 11.4545 15.4846C11.0056 15.5523 10.5474 15.5915 10.113 15.7133C8.54273 16.1538 7.79098 17.2821 7.57026 18.8332C7.54133 19.0357 7.52593 19.2401 7.50119 19.4431C7.4662 19.7231 7.29261 19.8589 7.02196 19.8999ZM4.83904 15.0021C5.8521 15.4795 6.54646 16.179 7.01963 17.1832C7.48953 16.1701 8.19788 15.472 9.20115 14.9974C8.17548 14.5322 7.49326 13.8085 7.01169 12.8295C6.54039 13.8374 5.84371 14.5233 4.83904 15.0021Z" fill="black"/>
<path d="M32.8218 11.1251C32.7518 11.1989 32.6458 11.4126 32.4895 11.4588C31.5138 11.749 30.5292 12.0099 29.5432 12.2628C29.2548 12.337 29.0019 12.1611 28.9552 11.8881C28.9053 11.5969 29.0467 11.3977 29.3211 11.3221C30.2702 11.0603 31.2207 10.8046 32.1745 10.561C32.539 10.4681 32.8134 10.673 32.8218 11.1251Z" fill="black"/>
<path d="M20.7447 3.76562C20.8213 3.84589 21.0317 3.96674 21.0821 4.1352C21.37 5.09974 21.6248 6.07454 21.8787 7.04887C21.9477 7.31346 21.7825 7.57617 21.5352 7.62843C21.2534 7.68816 21.027 7.58924 20.9472 7.30412C20.6733 6.32325 20.4078 5.34005 20.1549 4.35359C20.0779 4.05447 20.3178 3.77682 20.7447 3.76562Z" fill="black"/>
<path d="M29.4908 14.707C29.6742 14.7542 29.9052 14.8106 30.1348 14.8722C30.8791 15.0719 31.6238 15.2693 32.3662 15.4765C32.7008 15.5698 32.852 15.7985 32.7839 16.0696C32.7101 16.3622 32.454 16.505 32.1147 16.4168C31.1936 16.176 30.2743 15.9273 29.3555 15.6781C29.0825 15.6039 28.9122 15.4252 28.9481 15.134C28.9822 14.8648 29.1614 14.7173 29.4908 14.707Z" fill="black"/>
<path d="M24.9192 7.64649C24.4773 7.63435 24.2528 7.37677 24.3321 7.06226C24.579 6.08466 24.8408 5.11032 25.1124 4.13925C25.1917 3.85507 25.4217 3.75708 25.7036 3.81821C25.9509 3.87187 26.1133 4.13272 26.0438 4.40103C25.7932 5.36604 25.5417 6.33151 25.2565 7.28624C25.2066 7.4533 24.9934 7.57089 24.9192 7.64649Z" fill="black"/>
<path d="M16.3413 6.19141C16.5201 6.30527 16.6582 6.36313 16.7571 6.46066C17.4281 7.12094 18.094 7.7859 18.7552 8.45646C19.0133 8.71824 19.0231 8.99169 18.808 9.20354C18.598 9.41026 18.3157 9.39299 18.059 9.13914C17.3899 8.47699 16.7146 7.82043 16.0707 7.13448C15.9498 7.00569 15.8952 6.73597 15.9344 6.55912C15.9657 6.41959 16.1873 6.32206 16.3413 6.19141Z" fill="black"/>
<path d="M27.681 9.38256C27.5704 9.29623 27.3698 9.2155 27.3198 9.07971C27.2643 8.92759 27.2769 8.66114 27.3772 8.55521C28.0786 7.8142 28.8047 7.09605 29.5354 6.38396C29.7323 6.19217 30.0399 6.2281 30.2036 6.43062C30.388 6.65787 30.3772 6.90006 30.1747 7.10538C29.4822 7.80813 28.7813 8.50249 28.0823 9.19964C28.0506 9.23137 28.0137 9.2617 27.9736 9.27943C27.9027 9.3107 27.8271 9.33216 27.681 9.38256Z" fill="black"/>
<path d="M30.3926 20.2569C30.2662 20.4053 30.1715 20.6172 30.0268 20.6592C29.8653 20.7063 29.6106 20.6568 29.4813 20.5481C29.1178 20.2425 28.7977 19.8845 28.4603 19.5472C28.1229 19.2098 27.7823 18.8761 27.45 18.5341C27.2023 18.2789 27.1911 17.9881 27.4062 17.7828C27.6087 17.5892 27.8919 17.6022 28.1318 17.8388C28.8028 18.5005 29.4701 19.1664 30.1309 19.8383C30.2289 19.9382 30.2844 20.0796 30.3926 20.2569Z" fill="black"/>
</svg>
