<svg width="35" height="35" viewBox="0 0 35 35" fill="none" xmlns="http://www.w3.org/2000/svg">
<g clip-path="url(#clip0_746_58894)">
<path d="M11.6506 20.3167C11.3835 21.2126 11.1365 22.0275 10.8968 22.845C10.6471 23.6991 10.082 24.1794 9.20877 24.3225C7.6283 24.5823 6.04966 24.853 4.4701 25.1182C4.33612 25.141 4.20031 25.1583 4.0645 25.1693C3.69627 25.1984 3.45291 25.0316 3.41008 24.7263C3.36359 24.4 3.55135 24.1585 3.92778 24.0928C4.66607 23.9634 5.40617 23.844 6.14536 23.721C7.13156 23.5569 8.11776 23.3937 9.10396 23.2315C9.47583 23.1704 9.71919 22.9681 9.82857 22.5999C10.1221 21.6073 10.4256 20.6184 10.7099 19.6239C10.7391 19.521 10.699 19.3551 10.6279 19.274C10.3043 18.9075 9.96255 18.5566 9.61802 18.2085C9.06203 17.6443 8.79497 16.9725 8.80044 16.1777C8.81047 14.765 8.80317 13.3522 8.80226 11.9394C8.80226 11.8629 8.79315 11.7872 8.78677 11.6797C8.14146 11.8957 7.5162 12.0953 6.90005 12.3204C6.8162 12.3514 6.75057 12.5055 6.72596 12.613C6.55187 13.3896 6.39784 14.1716 6.22284 14.9482C6.0451 15.742 5.3287 16.2361 4.58586 16.093C3.78195 15.938 3.277 15.2253 3.42375 14.4004C3.63521 13.2137 3.86945 12.0306 4.1037 10.8475C4.19302 10.3963 4.45916 10.0628 4.86567 9.85221C6.13625 9.19231 7.405 8.52968 8.68469 7.88984C8.9089 7.77773 9.18416 7.72395 9.43755 7.71848C10.8239 7.68476 12.212 7.67473 13.5984 7.6565C14.148 7.64921 14.652 7.7996 15.115 8.094C15.815 8.53971 16.5196 8.97903 17.2123 9.43567C17.4073 9.56419 17.5504 9.58515 17.7573 9.44752C18.306 9.08202 18.8711 8.74205 19.4335 8.39752C20.1764 7.9427 21.034 8.11679 21.4652 8.80403C21.9017 9.50129 21.693 10.3453 20.9566 10.8156C20.0843 11.3716 19.2029 11.913 18.3297 12.469C17.7665 12.8281 17.2077 12.8518 16.6317 12.5009C16.4184 12.3715 16.1915 12.2648 15.9691 12.15C15.5051 11.9103 15.3529 11.6314 15.5124 11.3069C15.6765 10.9724 15.9946 10.9332 16.4822 11.1866C16.7237 11.3124 16.9553 11.4691 17.2114 11.5539C17.3709 11.6068 17.6042 11.6141 17.74 11.5329C18.6187 11.0088 19.4791 10.4547 20.345 9.91054C20.5327 9.79205 20.684 9.64713 20.5455 9.41015C20.4015 9.16497 20.2019 9.20325 19.9913 9.33541C19.2986 9.77109 18.5986 10.1958 17.9105 10.6388C17.6142 10.8293 17.3572 10.8284 17.061 10.6333C16.2726 10.1147 15.4696 9.61978 14.6784 9.10481C14.2938 8.85416 13.8873 8.73658 13.4252 8.74661C12.1291 8.77669 10.833 8.78124 9.5369 8.80676C9.37375 8.81041 9.19693 8.85234 9.052 8.92616C7.8662 9.52682 6.6813 10.1302 5.51008 10.7573C5.34784 10.8448 5.18833 11.0562 5.14914 11.2358C4.91763 12.3141 4.72166 13.4005 4.51385 14.4842C4.46919 14.7148 4.47466 14.9518 4.75357 15.0001C5.03338 15.0484 5.13911 14.8488 5.19015 14.5927C5.36333 13.7223 5.55838 12.8564 5.72974 11.9859C5.79354 11.6614 5.95396 11.4609 6.27206 11.3579C7.20083 11.0572 8.12414 10.74 9.052 10.4346C9.58885 10.2578 9.89055 10.4793 9.89146 11.0508C9.89419 12.7479 9.89966 14.446 9.88781 16.1431C9.88416 16.6644 10.0519 17.0892 10.4146 17.4629C11.3972 18.4755 12.3396 19.5292 13.3514 20.5126C14.1343 21.2746 14.5445 22.1578 14.6757 23.2361C14.8471 24.6361 15.1068 26.0242 15.3274 27.4178C15.3465 27.5418 15.3675 27.6657 15.3721 27.7906C15.3848 28.1051 15.2007 28.3357 14.9172 28.3721C14.6201 28.4104 14.3749 28.2609 14.3148 27.9483C14.1908 27.3003 14.0942 26.6476 13.9903 25.995C13.8208 24.9277 13.6704 23.8559 13.478 22.7931C13.4234 22.4896 13.3085 22.1596 13.1189 21.9254C12.6833 21.3812 12.1801 20.8872 11.6506 20.3167Z" fill="black"/>
<path d="M27.709 16.5594C27.0692 16.1747 26.4685 15.8083 25.8624 15.451C25.6345 15.3171 25.4468 15.163 25.4595 14.8714C25.4714 14.597 25.6573 14.4594 25.8797 14.3409C28.244 13.0767 30.6065 11.8079 32.9699 10.5428C33.5259 10.2457 33.916 10.4754 33.9169 11.1016C33.9188 13.7904 33.9188 16.4783 33.9169 19.1671C33.916 19.7878 33.5004 20.0184 32.9626 19.7003C32.3565 19.3421 31.7541 18.9775 31.1142 18.5938C31.0431 18.705 30.9766 18.8043 30.9155 18.9073C30.1399 20.2061 29.366 21.5068 28.5904 22.8056C28.5266 22.9132 28.4692 23.0289 28.3853 23.1182C28.1793 23.3352 27.9296 23.3807 27.6789 23.2085C27.4465 23.049 27.3745 22.8184 27.4857 22.5495C27.5203 22.4656 27.5695 22.3882 27.616 22.3098C28.5238 20.7849 29.4317 19.26 30.3404 17.7361C30.643 17.2293 30.8608 17.1737 31.3667 17.4727C31.8343 17.7488 32.3009 18.0268 32.8022 18.324C32.8022 16.1665 32.8022 14.0465 32.8022 11.8781C30.9091 12.8917 29.0324 13.8961 27.1129 14.9233C27.6598 15.2523 28.1675 15.5504 28.6679 15.8594C29.0215 16.0781 29.1035 16.3497 28.893 16.6961C27.5304 18.9419 26.2406 21.2388 24.7714 23.4135C22.4007 26.9236 19.2999 29.6415 15.4335 31.4234C12.0356 32.9893 8.46538 33.6711 4.72566 33.4168C4.58986 33.4077 4.45405 33.3895 4.32007 33.3648C4.00106 33.3056 3.80236 33.0531 3.84064 32.766C3.88165 32.4598 4.14507 32.2738 4.47866 32.2829C5.44298 32.3085 6.41186 32.3869 7.37163 32.3313C11.9517 32.0651 16.0141 30.4464 19.5587 27.5315C21.6897 25.7797 23.4224 23.6806 24.8525 21.3281C25.8113 19.755 26.7474 18.1681 27.709 16.5594Z" fill="black"/>
<path d="M14.2615 13.5297C14.2615 14.5086 14.2524 15.4884 14.2697 16.4673C14.2734 16.6678 14.3435 16.8911 14.4493 17.0625C14.9405 17.8546 15.42 18.6585 15.9714 19.4086C16.6313 20.3064 16.9057 21.299 16.9932 22.3927C17.1326 24.1391 17.3386 25.8809 17.5163 27.6236C17.5236 27.6919 17.5318 27.7594 17.5327 27.8277C17.5373 28.1695 17.3249 28.4193 17.0187 28.4348C16.727 28.4503 16.4827 28.2406 16.4481 27.918C16.3068 26.5827 16.1719 25.2465 16.037 23.9103C15.9614 23.1629 15.9195 22.41 15.8001 21.6699C15.7381 21.2889 15.5959 20.8952 15.3945 20.5661C14.7473 19.5098 14.0464 18.4853 13.3883 17.4353C13.2635 17.2366 13.1805 16.975 13.1787 16.7417C13.1623 14.6918 13.1696 12.6419 13.1696 10.593C13.1696 10.5365 13.1678 10.479 13.1705 10.4225C13.1887 10.0734 13.4047 9.84375 13.7146 9.84375C14.0236 9.84284 14.2551 10.0725 14.2579 10.4216C14.2661 11.457 14.2606 12.4934 14.2615 13.5297Z" fill="black"/>
<path d="M14.8075 3.84998C14.793 5.34933 13.5406 6.57524 12.0403 6.55975C10.541 6.54425 9.32785 5.29282 9.3479 3.78162C9.36795 2.28592 10.6249 1.07004 12.1315 1.09009C13.6144 1.11014 14.8221 2.3561 14.8075 3.84998ZM13.7156 3.81717C13.7147 2.93853 12.9855 2.19022 12.1233 2.18475C11.1936 2.17837 10.4344 2.92212 10.4389 3.83814C10.4435 4.73136 11.1772 5.46418 12.0704 5.46691C12.9828 5.46873 13.7165 4.73319 13.7156 3.81717Z" fill="black"/>
<path d="M1.16023 24.5407C1.17391 23.3977 1.99422 22.3404 3.1545 22.0141C4.53081 21.6277 5.91167 21.2613 7.29435 20.8985C7.51948 20.8392 7.63706 20.7363 7.6963 20.5084C7.81935 20.0363 7.96883 19.5705 8.11284 19.1038C8.23315 18.7128 8.49565 18.5269 8.80008 18.6089C9.13367 18.6982 9.27221 18.999 9.15555 19.4001C8.97052 20.0326 8.77638 20.6624 8.595 21.2959C8.51115 21.5885 8.33159 21.7461 8.03719 21.8245C6.54604 22.2201 5.05854 22.6275 3.57013 23.0322C2.75346 23.2546 2.32417 23.7696 2.25216 24.6063C2.22026 24.9809 1.99969 25.1997 1.67339 25.1814C1.35164 25.1632 1.15568 24.9171 1.16023 24.5407Z" fill="black"/>
<path d="M32.8263 24.6446C32.8327 24.2983 33.0778 24.0485 33.3959 24.0631C33.6894 24.0768 33.9228 24.3302 33.9146 24.6255C33.9054 24.9454 33.6247 25.2243 33.3285 25.2088C33.0186 25.1924 32.8208 24.97 32.8263 24.6446Z" fill="black"/>
<path d="M32.8263 26.8339C32.8318 26.4875 33.076 26.2369 33.3941 26.2505C33.6876 26.2633 33.9219 26.5158 33.9146 26.8111C33.9064 27.1301 33.6265 27.4108 33.3303 27.3962C33.0204 27.3817 32.8208 27.1593 32.8263 26.8339Z" fill="black"/>
<path d="M32.8263 29.0162C32.8336 28.6708 33.0806 28.421 33.3997 28.4383C33.6922 28.4538 33.9256 28.7091 33.9155 29.0044C33.9055 29.3097 33.6448 29.5822 33.3596 29.585C33.0387 29.5886 32.8191 29.3544 32.8263 29.0162Z" fill="black"/>
<path d="M26.8179 25.1846C26.5107 25.1928 26.2683 24.9631 26.2637 24.6605C26.2592 24.3853 26.5408 24.0954 26.8297 24.079C27.1205 24.0617 27.3821 24.3014 27.3967 24.5985C27.4113 24.9166 27.156 25.1755 26.8179 25.1846Z" fill="black"/>
</g>
<defs>
<clipPath id="clip0_746_58894">
<rect width="35" height="35" fill="white"/>
</clipPath>
</defs>
</svg>
