<svg width="35" height="35" viewBox="0 0 35 35" fill="none" xmlns="http://www.w3.org/2000/svg">
<g clip-path="url(#clip0_746_58912)">
<path d="M17.1245 35.0009C16.2231 34.7922 15.4392 34.3319 14.6955 33.8096C13.8068 33.1844 12.8397 32.9492 11.7651 33.0331C11.2009 33.0768 10.6294 33.0632 10.0643 33.0303C9.04806 32.972 8.27788 32.4607 7.74285 31.6139C7.40288 31.0771 7.10028 30.5147 6.81043 29.9487C6.41759 29.1812 5.84611 28.6107 5.07593 28.227C4.61929 27.9991 4.1745 27.7448 3.72879 27.496C2.53114 26.8288 1.96785 25.797 1.98882 24.4353C1.99793 23.8547 2.02345 23.2741 2.03713 22.6935C2.05262 22.0172 1.89129 21.3883 1.53218 20.8095C1.18491 20.249 0.837646 19.6875 0.516813 19.1124C-0.0792805 18.0432 -0.0774577 16.9613 0.515902 15.8904C0.763818 15.4428 1.01629 14.9953 1.30887 14.577C1.89676 13.7348 2.10184 12.8105 2.0353 11.7961C1.99702 11.2073 2.00249 10.613 2.03439 10.0233C2.0909 8.99062 2.61317 8.21406 3.47176 7.67539C4.05692 7.30716 4.67124 6.98268 5.28101 6.65456C5.91265 6.31549 6.38843 5.83151 6.72293 5.19987C6.99455 4.68763 7.27163 4.17812 7.55327 3.67135C8.21864 2.47279 9.24767 1.90495 10.6067 1.92409C11.0387 1.93047 11.4707 1.93503 11.9009 1.96875C12.9035 2.04714 13.7931 1.77826 14.6417 1.23411C15.3061 0.808464 16.0353 0.483984 16.7399 0.123047C16.8583 0.0619792 16.996 0.0401042 17.1245 0C17.397 0 17.6705 0 17.943 0C18.8326 0.206901 19.5964 0.672656 20.3465 1.16576C20.4987 1.2651 20.6582 1.3526 20.8113 1.45104C21.4038 1.83294 22.0555 1.99154 22.7546 1.97331C23.3333 1.95781 23.913 1.93047 24.4918 1.925C25.8216 1.91224 26.8343 2.47187 27.4942 3.63945C27.7238 4.04505 27.9608 4.44792 28.1595 4.86901C28.5852 5.77135 29.2442 6.41484 30.1374 6.85599C30.7253 7.14674 31.2977 7.48216 31.8382 7.85495C32.5591 8.35169 32.9638 9.06992 33.0231 9.94948C33.0613 10.5155 33.0823 11.0888 33.0376 11.653C32.9501 12.7513 33.1689 13.7448 33.8115 14.6562C34.3356 15.4 34.7913 16.1875 34.9991 17.0908C34.9991 17.3642 34.9991 17.6376 34.9991 17.9111C34.7676 18.4634 34.5607 19.0285 34.2964 19.5645C34.0904 19.9801 33.816 20.3629 33.5654 20.7557C33.1798 21.36 33.0094 22.0199 33.0304 22.7336C33.0468 23.2914 33.0686 23.8483 33.0796 24.4061C33.1078 25.8116 32.5117 26.8598 31.2794 27.537C30.7818 27.8104 30.285 28.0839 29.7837 28.35C29.163 28.6799 28.6927 29.1539 28.36 29.7746C28.0319 30.3853 27.7093 31.0005 27.3429 31.5875C26.806 32.4479 26.0313 32.9702 25.0013 33.0294C24.4471 33.0613 23.8875 33.0768 23.3352 33.0331C22.2624 32.9483 21.2908 33.1661 20.4012 33.7914C19.6483 34.3201 18.8572 34.7895 17.9439 34.9991C17.6705 35.0009 17.3979 35.0009 17.1245 35.0009ZM32.0542 11.4807C32.0542 11.1626 32.0569 10.798 32.0533 10.4344C32.046 9.55299 31.6777 8.8776 30.9048 8.4401C30.5193 8.22227 30.1401 7.98893 29.74 7.80117C28.5906 7.2625 27.7612 6.42122 27.2125 5.27461C26.9637 4.75417 26.6574 4.25651 26.3375 3.77435C26.0267 3.30495 25.561 3.03333 24.9949 3.00325C24.4408 2.97409 23.8811 2.95495 23.3279 2.99323C22.0692 3.08073 20.9162 2.82005 19.8744 2.08724C19.5125 1.83294 19.1233 1.61602 18.7414 1.3918C17.9348 0.916927 17.1245 0.916927 16.3197 1.39635C15.7828 1.71628 15.2496 2.04167 14.7164 2.36888C13.9991 2.80911 13.218 3.01146 12.3794 2.99596C11.766 2.98503 11.1526 2.95859 10.5383 2.95221C9.63413 2.94219 8.93322 3.30768 8.48387 4.11159C8.25145 4.52812 8.00535 4.93919 7.79845 5.3694C7.28439 6.43581 6.50509 7.21875 5.44142 7.74193C4.89272 8.01172 4.36408 8.32891 3.85184 8.66432C3.37059 8.97878 3.09077 9.45365 3.06069 10.0333C3.03153 10.6003 3.01512 11.1717 3.0534 11.7378C3.13634 12.9755 2.87202 14.1066 2.162 15.1348C1.88491 15.5367 1.64429 15.9642 1.40457 16.3908C0.991683 17.1236 0.988949 17.8691 1.3991 18.6029C1.64884 19.0495 1.90223 19.4961 2.19025 19.9181C2.86838 20.9089 3.13179 21.9971 3.05158 23.1866C3.01968 23.6523 3.01147 24.1199 3.01239 24.5866C3.01512 25.4552 3.38517 26.1206 4.14533 26.5535C4.53999 26.7786 4.93009 27.0147 5.34025 27.2079C6.4896 27.7493 7.31265 28.597 7.8577 29.7436C8.0965 30.2449 8.38817 30.7243 8.69351 31.1883C9.01616 31.6796 9.49286 31.9694 10.0862 32.0013C10.6176 32.0296 11.1554 32.0505 11.6849 32.0113C12.9673 31.9156 14.1422 32.1736 15.2041 32.9246C15.5832 33.1926 15.9961 33.415 16.3999 33.6465C17.1537 34.0776 17.9147 34.0776 18.6676 33.6437C19.0905 33.4004 19.5189 33.1616 19.9199 32.8836C20.9271 32.1872 22.0363 31.922 23.2458 32.0095C23.6879 32.0414 24.1318 32.0487 24.5748 32.0487C25.4534 32.0487 26.1315 31.6814 26.569 30.9066C26.7923 30.5111 27.0284 30.1201 27.2216 29.709C27.7567 28.5688 28.5934 27.7493 29.7254 27.2043C30.2249 26.9637 30.7043 26.6738 31.1701 26.3712C31.6732 26.044 31.9722 25.5609 32.0031 24.953C32.0314 24.4198 32.0514 23.882 32.0123 23.3516C31.9175 22.0664 32.1763 20.8897 32.9283 19.827C33.1844 19.466 33.3977 19.0741 33.6201 18.6904C34.074 17.9047 34.0804 17.1117 33.6246 16.3242C33.4141 15.9596 33.2117 15.5887 32.9702 15.2451C32.1827 14.123 31.8637 12.8889 32.0542 11.4807Z" fill="black"/>
<path d="M17.5283 30.3132C10.4754 30.3059 4.76516 24.5874 4.7442 17.5117C4.72323 10.4534 10.4827 4.68022 17.5393 4.68751C24.604 4.6948 30.3626 10.4762 30.3234 17.5218C30.2823 24.6129 24.5739 30.3204 17.5283 30.3132ZM17.5511 5.71381C11.0661 5.69193 5.76959 10.9884 5.76685 17.499C5.76412 23.9913 11.0187 29.265 17.5146 29.2878C23.9978 29.3115 29.298 24.0104 29.2989 17.5008C29.2998 11.0048 24.0498 5.73568 17.5511 5.71381Z" fill="black"/>
<path d="M14.7794 14.3151C14.9489 14.0343 15.1139 13.7646 15.2743 13.492C15.8522 12.5122 16.4264 11.5306 17.0061 10.5517C17.3269 10.0103 17.7425 10.0148 18.0652 10.5608C18.736 11.6974 19.4032 12.8349 20.0731 13.9724C20.136 14.079 20.2044 14.182 20.2864 14.3123C20.4058 14.2631 20.5188 14.2203 20.6291 14.1702C21.7374 13.6725 22.8458 13.1748 23.9532 12.6744C24.1993 12.5632 24.4472 12.4666 24.6851 12.6744C24.9212 12.8804 24.8665 13.1375 24.7936 13.4009C24.2576 15.3286 23.7253 17.2582 23.1912 19.1868C23.0709 19.6198 22.9415 19.7273 22.4912 19.7273C19.1826 19.73 15.874 19.73 12.5654 19.7273C12.1197 19.7273 11.9976 19.6207 11.8746 19.1768C11.3395 17.2481 10.8063 15.3195 10.2695 13.3918C10.1956 13.1274 10.1464 12.8704 10.388 12.669C10.6149 12.4794 10.8528 12.5587 11.0907 12.6662C12.2191 13.1748 13.3484 13.6807 14.4777 14.1866C14.5688 14.2276 14.6627 14.2659 14.7794 14.3151ZM23.5658 13.9879C23.4036 14.0562 23.3024 14.0972 23.2022 14.1419C22.3108 14.5402 21.4203 14.9394 20.5279 15.3368C19.9546 15.592 19.8179 15.5492 19.5071 15.0224C18.9174 14.0234 18.3295 13.0235 17.7389 12.0246C17.6796 11.9234 17.6122 11.8268 17.5256 11.6919C16.8311 12.8704 16.1693 13.997 15.504 15.1217C15.2697 15.5173 15.0756 15.5802 14.6572 15.3933C13.9627 15.0843 13.27 14.7681 12.5764 14.4563C12.24 14.305 11.9028 14.1583 11.5592 14.0061C11.5464 14.0626 11.5328 14.0863 11.5382 14.1054C11.9429 15.5738 12.3449 17.0431 12.7669 18.5069C12.7924 18.5962 12.9765 18.6946 13.0868 18.6955C16.0536 18.7056 19.0213 18.7019 21.9881 18.7074C22.1941 18.7074 22.2843 18.6481 22.3381 18.4394C22.545 17.6355 22.7765 16.8389 22.998 16.0386C23.1812 15.3742 23.3653 14.7097 23.5658 13.9879Z" fill="black"/>
<path d="M17.534 21.2582C19.1701 21.2582 20.8062 21.2582 22.4422 21.2582C23.0028 21.2582 23.1596 21.4095 23.1632 21.9573C23.1669 22.4358 23.1705 22.9134 23.1623 23.3919C23.1459 24.2797 22.6282 24.8384 21.745 24.843C18.9386 24.8585 16.1331 24.8585 13.3267 24.843C12.4435 24.8384 11.924 24.2788 11.9085 23.3919C11.8994 22.8916 11.9012 22.3902 11.9085 21.8899C11.9149 21.4296 12.0917 21.2591 12.5584 21.2582C14.2163 21.2573 15.8752 21.2582 17.534 21.2582ZM22.1378 22.311C19.0461 22.311 15.9982 22.311 12.9293 22.311C12.9293 22.6336 12.9284 22.9289 12.9293 23.2242C12.9312 23.7611 12.9959 23.8258 13.5464 23.8267C16.0684 23.8276 18.5913 23.8267 21.1133 23.8267C21.3066 23.8267 21.4998 23.8249 21.693 23.8258C21.982 23.8267 22.1405 23.6964 22.1387 23.3938C22.1369 23.041 22.1378 22.6892 22.1378 22.311Z" fill="black"/>
</g>
<defs>
<clipPath id="clip0_746_58912">
<rect width="35" height="35" fill="white"/>
</clipPath>
</defs>
</svg>
