<svg width="354" height="409" viewBox="0 0 354 409" fill="none" xmlns="http://www.w3.org/2000/svg">
<g opacity="0.5" clip-path="url(#clip0_746_59107)">
<path d="M152.423 361.545C149.274 369.222 146.194 376.79 143.065 384.336C141.666 387.709 140.143 391.024 138.285 394.18C132.741 403.6 124.304 408.008 113.673 408.868C100.07 409.969 89.4417 404.139 80.333 394.675C77.6178 391.854 75.021 388.918 72.3695 386.035C72.0553 386.212 71.7421 386.389 71.4279 386.567C71.4279 387.763 71.4268 388.96 71.4279 390.156C71.4313 394.402 71.4581 398.648 71.4201 402.893C71.4134 403.663 71.8148 404.9 70.3923 404.84C69.0962 404.785 69.3579 403.626 69.3545 402.805C69.3355 397.315 69.2998 391.824 69.387 386.335C69.4172 384.459 68.8837 383.19 67.4624 381.803C55.9571 370.573 45.9795 358.145 38.8358 343.601C32.4345 330.569 27.5072 317.017 24.7674 302.704C24.5996 301.826 24.5258 300.895 23.2711 300.595C14.1143 298.402 8.51603 292.018 4.22953 284.107C-1.71207 273.141 -0.957212 262.109 3.76878 250.98C6.10047 245.489 9.21609 240.487 12.7533 235.728C14.1434 233.858 15.227 231.975 15.5636 229.516C17.3664 216.329 23.3113 204.804 30.2024 193.7C35.7459 184.768 42.3148 176.508 47.3439 167.233C53.2195 156.396 56.939 144.919 58.5706 132.649C59.8757 122.832 60.4013 112.884 62.8504 103.238C65.332 93.4626 68.631 84.025 75.125 76.1009C78.3402 72.1777 81.9087 68.6176 87.2498 67.7406C87.6189 67.6798 87.932 67.5933 88.1389 67.2233C91.7633 60.7464 97.9532 57.8937 104.622 56.3914C122.657 52.331 138.253 57.5226 151.472 70.1593C160.492 78.7816 165.785 89.8205 170.166 101.279C173.298 109.47 177.218 117.111 182.575 124.077C187.377 130.322 190.959 137.25 192.169 145.202C192.576 147.88 192.875 150.574 192.793 153.282C192.462 164.234 196.662 173.165 204.599 180.495C210.666 186.097 214.719 192.885 216.265 201.085C217.391 207.056 217.031 213.032 215.886 218.932C215.537 220.73 216.197 221.085 217.535 221.444C221.466 222.499 225.383 223.59 229.258 224.864C241.028 228.733 248.388 236.932 252.533 248.383C255.518 256.629 257.94 265.046 260.125 273.536C260.287 274.162 260.356 274.816 261.016 275.519C261.754 270.095 262.441 264.849 263.775 259.732C265.989 251.23 268.852 243.092 275.794 237.085C280.895 232.672 286.797 229.744 292.935 227.19C298.711 224.786 304.596 222.612 310.003 219.409C312.408 217.984 314.82 216.664 316.314 213.936C317.813 211.2 320.51 211.86 322.155 214.948C322.601 215.785 322.136 217.511 323.461 217.388C325.221 217.224 327.097 216.702 328.584 215.78C329.479 215.226 328.9 213.572 328.724 212.446C328.415 210.467 328.274 208.523 328.94 206.597C329.106 206.116 329.275 205.621 329.536 205.189C330.112 204.235 330.76 203.379 332.064 203.401C333.365 203.425 334.028 204.211 334.486 205.279C336.618 210.259 338.392 215.342 338.77 220.812C338.79 221.096 338.848 221.377 338.931 221.956C340.447 220.168 340.234 218.311 340.05 216.489C339.772 213.716 339.511 210.944 340.257 208.207C340.446 207.514 340.718 206.8 341.125 206.22C342.482 204.285 344.601 204.327 345.652 206.442C349.228 213.635 351.237 221.055 348.29 229.037C347.885 230.133 347.426 231.213 347.093 232.332C346.317 234.952 344.752 236.762 342.205 237.842C338.299 239.5 335.369 242.538 332.417 245.44C327.769 250.009 322.412 253.386 316.528 256.075C310.017 259.051 303.858 262.65 298.533 267.528C294.559 271.169 292.458 275.756 292.498 281.131C292.589 293.28 292.945 305.427 292.79 317.579C292.704 324.385 292.265 331.172 291.68 337.95C291.594 338.945 291.725 339.807 292.141 340.695C300.118 357.712 297.062 373.849 286.976 388.593C278.135 401.518 259.633 404.468 246.377 391.576C242.052 387.371 238.529 382.561 235.45 377.393C234.977 376.599 234.684 375.658 233.506 374.915C234.03 378.424 234.532 381.661 234.991 384.902C235.851 390.963 236.686 397.028 237.537 403.09C237.653 403.916 237.784 404.915 236.765 405.065C235.54 405.246 235.533 404.067 235.434 403.246C234.036 391.594 231.875 380.05 230.426 368.411C229.108 357.815 229.766 347.392 234.989 337.711C236.958 334.06 239.557 330.941 242.656 328.223C243.039 327.888 243.463 327.597 243.883 327.31C244.516 326.879 245.263 326.519 245.836 327.229C246.502 328.055 245.693 328.53 245.153 328.99C242.927 330.891 240.902 332.983 239.16 335.346C235.122 340.828 233.156 347.071 232.514 353.821C233.818 351.311 235.047 348.777 236.421 346.317C239.619 340.582 243.276 335.255 248.989 331.723C249.817 331.212 250.103 330.408 250.392 329.582C254.053 319.09 257.147 308.456 258.614 297.389C259.015 294.358 259.628 291.358 259.872 288.299C260.291 283.034 259.219 278.018 257.794 272.986C255.665 265.465 253.446 257.976 251.003 250.551C246.744 237.6 238.156 229.374 225.045 225.653C213.076 222.256 200.868 219.999 188.732 217.391C187.434 217.112 186.869 217.142 187.066 218.943C188.196 229.228 187.727 239.539 187.234 249.842C186.79 259.112 186.384 268.385 185.895 277.653C185.219 290.497 184.445 303.338 183.78 316.183C183.259 326.259 183.03 336.352 182.321 346.412C181.572 357.051 180.704 367.686 179.478 378.288C178.581 386.038 177.299 393.725 176.234 401.447C176.204 401.664 176.23 401.92 176.122 402.09C175.65 402.838 176.246 404.207 174.928 404.421C173.476 404.655 173.398 403.283 173.014 402.437C167.071 389.328 161.083 376.243 154.012 363.693C153.624 363.012 153.37 362.219 152.423 361.545ZM88.6611 326.831C89.1632 326.082 88.8031 325.619 88.641 325.162C82.1581 306.877 75.2906 288.782 63.3816 273.158C62.8784 272.498 61.75 271.648 63.0126 270.803C63.9743 270.161 64.5995 271.081 65.0971 271.814C68.3346 276.585 71.6795 281.282 74.5648 286.292C80.9794 297.432 85.3666 309.449 89.4439 321.565C91.2634 326.974 93.4072 331.872 98.5146 334.882C98.5761 334.918 98.6298 334.975 98.6723 335.033C99.3712 335.966 99.8141 336.114 100.717 335.005C102.645 332.633 104.727 330.358 107.339 328.684C108.31 328.062 108.834 327.179 109.207 326.091C114.12 311.709 118.454 297.143 123.01 282.646C123.542 280.953 123.267 279.59 122.316 278.136C117.879 271.354 113.614 264.458 109.097 257.732C102.991 248.638 96.7342 239.65 89.5233 231.377C88.5348 230.242 87.8011 229.972 86.4491 230.84C84.1241 232.332 81.7007 233.692 79.2281 234.925C69.7862 239.638 60.2716 244.206 50.8565 248.971C44.264 252.307 38.1021 256.265 33.3448 262.138C25.6609 271.623 24.405 282.659 25.6542 294.246C26.7233 304.156 29.4184 313.694 32.5989 323.115C38.2263 339.782 46.3598 355.035 57.8997 368.322C66.4738 378.195 75.8766 387.271 85.3722 396.235C91.4457 401.967 98.4531 405.929 106.971 406.675C119.243 407.75 130.662 404.16 137.101 391.596C142.942 380.202 147.205 368.131 152.017 356.292C155.38 348.016 157.009 339.591 156.917 330.67C156.872 326.244 157.337 321.785 157.96 317.356C158.619 312.658 159.661 308.04 160.424 303.367C160.599 302.297 160.496 301.671 159.349 301.147C148.28 296.093 136.843 291.988 125.47 287.711C124.221 287.241 123.69 287.446 123.309 288.772C122.402 291.929 121.313 295.032 120.351 298.173C116.866 309.551 113.379 320.926 109.265 332.1C107.025 338.182 105.629 344.415 106.764 350.991C107.278 353.961 108.133 356.816 109.149 359.634C109.444 360.453 109.657 361.341 108.711 361.716C107.625 362.148 107.371 361.056 107.105 360.368C104.867 354.56 103.805 348.586 104.609 342.339C105.054 338.883 105.893 335.518 106.766 332.098C104.009 334.006 101.976 336.539 100.033 339.143C98.4441 341.272 96.6761 343.21 94.3791 344.551C91.2511 346.378 89.2773 349.101 88.2015 352.48C85.3129 361.551 85.73 370.478 89.69 379.155C93.1366 386.71 98.6577 392.199 106.24 395.576C106.901 395.87 107.98 396.117 107.46 397.239C106.981 398.275 106.135 397.807 105.392 397.492C102.629 396.32 99.9975 394.874 97.7306 392.914C85.9727 382.746 82.2509 369.892 85.3386 354.822C86.4983 349.164 89.2762 344.667 94.4741 341.862C95.2849 341.424 95.985 340.718 96.6235 340.03C98.6074 337.893 98.604 337.737 96.4144 335.933C87.2453 328.378 77.8213 321.139 69.075 313.066C60.1698 304.848 51.4503 296.457 43.6602 287.141C43.082 286.449 41.6964 285.645 42.9042 284.643C44.1578 283.603 44.736 285.095 45.407 285.857C46.4202 287.006 47.3886 288.194 48.404 289.341C57.6626 299.802 67.8963 309.245 78.442 318.358C81.7868 321.248 85.2413 324.002 88.6611 326.831ZM15.0917 237.071C14.0606 237.569 13.5015 238.358 12.9759 239.115C9.63098 243.929 6.83967 249.049 4.7104 254.522C2.88643 259.21 1.87436 264.122 2.19084 269.106C2.75 277.894 6.52543 285.388 12.4301 291.796C15.1331 294.73 18.3259 296.982 22.2154 298.14C23.6546 298.569 24.0774 298.087 23.9264 296.709C23.6971 294.604 23.4343 292.5 23.3001 290.388C22.5833 279.116 24.8345 268.773 32.3898 259.943C37.2947 254.211 43.4298 250.255 50.0032 246.878C61.5241 240.96 73.5124 235.987 84.709 229.411C91.8259 225.23 97.7116 219.924 100.162 211.737C102.214 204.883 101.966 197.861 100.573 190.903C99.5166 185.622 96.9031 180.926 94.7481 176.059C93.8456 174.02 93.1165 172.096 90.3162 173.321C90.1373 173.398 89.8812 173.33 89.6687 173.289C78.8703 171.281 70.6596 165.386 67.5127 154.155C66.8093 151.644 67.1347 149.217 68.5919 147.025C68.9475 146.49 69.302 145.656 70.2928 146.255C71.287 146.855 71.0846 147.541 70.5209 148.251C68.99 150.178 69.0291 152.31 69.7426 154.489C72.8448 163.974 80.0042 169.147 89.6654 171.101C90.7613 171.322 91.9613 171.228 92.9465 170.357C94.8946 168.631 95.8586 168.65 97.7228 170.469C98.5537 171.28 99.3321 172.169 100.011 173.113C105.974 181.391 113.771 186.702 124.008 187.878C127.055 188.228 130.158 189.222 133.239 187.92C141.768 184.314 150.66 181.822 159.509 179.189C160.956 178.759 162.339 178.909 163.455 179.782C164.819 180.849 165.288 180.07 165.785 178.988C167.847 174.499 169.012 169.78 169.449 164.86C170.061 157.97 169.54 151.125 168.545 144.316C167.503 137.198 165.777 130.279 162.073 124.001C160.591 121.489 159.074 118.987 158.387 116.09C158.287 115.67 158.197 114.971 157.423 115.246C156.697 115.503 156.762 115.909 157.012 116.599C157.972 119.24 157.506 120.535 154.985 121.739C151.697 123.31 148.255 124.465 144.617 124.947C143.46 125.1 142.94 124.683 143.114 123.505C143.7 119.535 145.206 116.024 148.472 113.552C151.043 111.606 153.749 111.881 156.419 113.489C157.374 114.065 157.736 113.664 157.677 112.638C157.591 111.169 157.31 109.738 156.861 108.344C155.909 105.382 155.32 105.1 152.436 105.979C148.632 107.139 145.251 109.121 141.958 111.295C141.111 111.854 140.127 112.485 139.249 111.365C138.38 110.258 138.451 109.022 139.279 107.943C139.708 107.386 140.354 106.946 140.984 106.608C143.098 105.47 145.279 104.479 147.492 103.534C149.22 102.797 152.16 103.432 152.51 101.631C152.8 100.137 150.934 98.1954 149.964 96.4863C142.727 83.7416 126.828 74.6717 110.912 81.6985C109.071 82.5103 107.583 81.9998 106.144 80.6921C102.09 77.0106 97.9152 73.5383 92.7541 71.4041C88.2462 69.5386 84.3657 69.9344 80.72 73.364C76.8349 77.0174 73.8513 81.2836 71.3999 85.9771C64.7012 98.8038 62.8482 112.829 61.3664 126.948C60.6664 133.624 59.708 140.247 57.9846 146.756C54.1611 161.203 46.731 173.767 38.2252 185.822C31.4403 195.438 25.1722 205.373 21.0792 216.524C18.8806 222.511 17.1047 228.589 17.2791 235.06C17.4894 242.869 22.2858 251.192 31.484 252.045C32.3518 252.125 33.2274 252.108 34.0975 252.172C34.6734 252.215 35.038 252.569 35.0726 253.148C35.1051 253.689 34.6577 253.942 34.244 254.014C33.5338 254.138 32.7957 254.213 32.0789 254.168C26.1574 253.789 21.5645 251.137 18.3885 246.048C16.6786 243.306 15.8477 240.236 15.0917 237.071ZM214.843 208.974C214.923 205.81 214.465 202.714 213.71 199.651C211.916 192.37 207.848 186.499 202.491 181.458C194.572 174.007 190.518 164.924 190.665 153.957C190.697 151.484 190.465 148.988 190.148 146.529C189.038 137.911 184.846 130.682 179.748 123.92C175.859 118.762 172.535 113.319 170.194 107.259C168.274 102.287 166.308 97.3195 164.04 92.5023C158.131 79.9466 150.166 69.1439 137.496 62.6602C125.845 56.6972 113.791 55.0533 101.26 59.6501C97.2375 61.1265 93.6298 63.254 90.9604 66.7432C90.2458 67.6765 89.9841 68.3208 91.5139 68.7087C92.7698 69.0281 93.953 69.6465 95.1574 70.1604C99.993 72.2272 103.886 75.6613 107.771 79.0819C108.793 79.9814 109.669 80.1074 110.901 79.589C114.267 78.1756 117.761 77.0421 121.432 77.0725C130.631 77.1467 138.672 80.3682 145.276 86.8148C150.993 92.3955 154.45 99.565 158.217 106.478C158.965 107.851 159.299 109.515 159.55 111.089C160.214 115.263 161.661 119.114 163.801 122.735C166.075 126.584 167.811 130.644 168.883 135.024C170.522 141.718 171.396 148.514 171.658 155.371C171.923 162.321 171.705 169.276 169.266 175.922C167.201 181.549 164.88 187.081 158.615 189.246C156.348 190.03 155.854 191.169 156.785 193.219C156.996 193.682 157.151 194.17 157.331 194.648C160.748 203.718 167.573 208.893 176.495 211.768C188.059 215.495 200.041 217.38 211.849 220.032C213.233 220.342 213.723 219.71 213.916 218.551C214.443 215.381 214.997 212.21 214.843 208.974ZM291.542 345.32C290.933 346.015 290.918 346.697 290.89 347.313C290.708 351.331 290.319 355.327 289.845 359.319C289.255 364.277 288.131 369.091 286.105 373.667C285.72 374.536 285.239 375.591 284.037 375.05C282.732 374.463 283.661 373.523 284.014 372.851C285.522 369.969 286.345 366.873 286.966 363.712C288.843 354.154 289.025 344.416 289.895 334.755C291.112 321.252 290.755 307.702 290.712 294.165C290.709 293.263 290.839 292.292 290.236 291.523C281.182 301.01 271.636 300.98 261.606 293.044C261.238 295.088 260.856 296.945 260.574 298.816C258.664 311.512 255.263 323.825 250.224 335.586C247.39 342.201 247.146 348.909 247.643 355.779C248.124 362.425 247.201 368.867 245.589 375.258C245.419 375.933 245.174 376.749 244.126 376.442C243.052 376.127 243.392 375.393 243.589 374.68C245.589 367.405 245.86 359.992 245.454 352.502C245.156 346.999 245.234 341.511 247.811 336.414C247.979 336.08 248.076 335.733 247.806 335.391C247.665 335.421 247.493 335.407 247.39 335.486C247.045 335.749 246.703 336.024 246.396 336.333C239.41 343.349 235.12 351.879 232.714 361.402C232.134 363.699 231.834 366.069 232.983 368.47C236.834 376.516 241.551 383.955 248.045 390.093C260.127 401.512 276.165 400.1 285.832 386.522C292.498 377.157 294.996 366.401 294.249 354.957C294.034 351.665 293.308 348.365 291.542 345.32ZM154.997 230.332C149.331 232.294 147.108 236.172 148.727 241.67C151.195 250.048 150.871 258.203 147.67 266.296C146.063 270.358 145.505 274.606 145.549 278.967C145.591 283.134 145.807 287.286 146.133 291.44C146.249 292.903 146.999 293.604 148.245 294.15C152.442 295.988 156.773 297.509 160.854 299.628C162.151 300.301 162.983 301.045 162.682 302.652C162.512 303.559 162.9 304.312 163.518 305.033C164.416 306.082 165.292 307.187 165.954 308.391C166.859 310.037 167.461 309.921 168.372 308.391C172.208 301.949 176.907 296.202 182.415 291.134C183.07 290.53 183.315 289.86 183.329 289.013C183.472 280.093 184.111 271.196 184.609 262.291C184.886 257.326 184.891 252.344 185.228 247.384C185.856 238.101 185.745 228.836 185.074 219.563C184.907 217.245 184.238 215.792 181.657 215.536C180.093 215.381 178.581 214.697 177.048 214.244C166.108 211.009 158.072 204.627 154.52 193.328C154.321 192.694 154.468 191.384 153.339 191.644C152.141 191.919 150.546 192.167 150.367 193.787C150.059 196.586 150.754 199.27 151.525 201.958C151.971 203.518 153.344 203.713 154.314 204.506C154.652 204.783 155.008 205.051 155.288 205.381C158.918 209.678 162.423 214.071 165.127 219.036C166.1 220.823 167.087 222.664 167.028 224.796C166.982 226.432 166.842 228.079 164.731 228.456C163.609 228.656 164.014 229.574 164.024 230.224C164.076 233.47 163.092 236.431 161.487 239.172C160.183 241.401 158.196 241.695 156.129 240.173C155.148 239.451 154.619 238.447 154.159 237.346C153.158 234.955 154.372 232.816 154.997 230.332ZM314.587 219.012C312.684 220.208 311.046 221.4 309.231 222.333C302.616 225.729 295.644 228.306 288.867 231.327C277.89 236.222 270.649 244.19 267.052 255.763C263.919 265.848 263.257 276.245 262.242 286.634C261.981 289.313 263.073 290.98 264.803 292.516C269.322 296.529 274.577 297.452 280.283 295.904C283.638 294.993 286.103 292.727 288.308 290.107C290.233 287.82 290.546 285.217 290.445 282.343C290.181 274.798 293.194 268.697 299.05 264.049C302.592 261.237 306.273 258.475 310.431 256.765C320.45 252.645 328.911 246.406 336.459 238.738C337.628 237.552 338.13 236.349 338.117 234.681C338.081 230.203 337.131 225.823 336.847 221.377C336.579 217.164 335.522 213.154 333.695 209.374C333.139 208.224 333.188 205.878 331.765 206.23C330.371 206.575 330.68 208.839 330.601 210.353C330.589 210.568 330.635 210.79 330.667 211.007C331.633 217.774 331.067 224.59 331.31 231.38C331.352 232.558 331.013 233.628 330.061 234.271C327.735 235.842 326.871 238.11 326.624 240.773C326.563 241.419 326.686 242.487 325.567 242.296C324.581 242.128 324.883 241.178 324.875 240.48C324.842 237.922 325.405 235.401 325.196 232.82C324.748 227.308 322.29 222.444 320.419 217.393C320.054 216.407 319.962 214.575 318.515 214.91C316.976 215.265 316.992 217.015 317.038 218.436C317.05 218.801 317.108 219.166 317.177 219.524C317.763 222.529 318.338 225.538 318.951 228.538C320.516 236.205 317.593 241.203 310.255 243.854C303.666 246.233 296.764 247.275 290.02 248.992C285.779 250.072 281.57 251.232 278.271 254.408C277.691 254.965 276.983 256.024 276.127 255.001C275.356 254.081 276.376 253.399 276.961 252.821C279.515 250.3 282.601 248.698 286.051 247.851C291.054 246.623 296.089 245.528 301.092 244.298C304.402 243.484 307.76 242.793 310.907 241.431C313.498 240.31 315.82 238.85 316.667 235.862C316.957 234.841 317.059 234.103 315.575 234.433C311.705 235.293 307.608 235.255 304.085 237.467C303.55 237.803 302.871 238.196 302.384 237.388C301.987 236.726 302.223 236.189 302.814 235.679C306.067 232.869 309.269 229.999 312.53 227.198C316.236 224.016 316.255 224.037 314.587 219.012ZM143.811 292.33C144.294 291.149 144.094 290.125 143.987 289.134C143.036 280.325 143.154 271.667 146.444 263.222C148.546 257.828 148.807 252.233 147.723 246.436C146.982 242.486 144.232 238.591 147.133 234.227C148.276 232.509 149.052 230.678 151.031 229.781C152.554 229.089 154.074 228.391 155.602 227.714C156.106 227.492 156.593 226.993 157.197 227.497C157.779 227.982 157.848 228.626 157.645 229.292C157.243 230.614 156.838 231.939 156.362 233.234C155.766 234.852 155.824 236.376 156.799 237.825C157.962 239.554 158.962 239.531 160.02 237.758C162.802 233.099 162.386 227.747 158.978 222.971C157.879 221.431 156.653 220.918 154.879 221.684C151.673 223.067 148.439 224.386 145.221 225.741C144.474 226.056 143.613 226.546 143.078 225.638C142.469 224.603 143.523 224.214 144.171 223.898C147.904 222.078 151.737 220.491 155.741 219.38C157.501 218.892 159.057 219.336 160.117 220.982C161.103 222.514 162.108 224.035 163.097 225.564C163.359 225.968 163.466 226.619 164.135 226.431C164.69 226.276 164.869 225.701 164.92 225.206C165.083 223.604 164.438 222.199 163.698 220.848C161.301 216.475 158.332 212.497 155.241 208.61C152.349 204.973 151.421 204.709 147.001 206.162C142.79 207.546 138.533 208.822 134.71 211.18C134.123 211.542 133.302 212.064 132.775 211.234C132.19 210.312 132.95 209.782 133.688 209.365C134.062 209.154 134.406 208.976 134.528 208.456C135.363 204.873 137.37 201.753 138.533 198.298C139.258 196.144 140.684 194.798 142.718 193.826C147.782 191.406 153.079 189.566 158.21 187.319C159.823 186.613 161.368 185.826 162.477 184.375C163.003 183.686 163.269 183.003 162.813 182.165C162.417 181.437 161.795 181.124 161.019 181.149C160.441 181.167 159.841 181.215 159.294 181.39C151.123 183.991 142.877 186.366 134.872 189.474C133.96 189.828 133.196 190.306 132.814 191.285C129.915 198.721 126.101 205.707 122.351 212.725C121.626 214.082 121.541 215.472 121.806 216.962C123.331 225.57 125.893 233.957 127.186 242.616C128.167 249.185 129.104 255.713 128.346 262.431C127.558 269.407 126.373 276.286 124.803 283.113C124.58 284.082 124.434 285.013 125.652 285.472C131.695 287.75 137.736 290.035 143.811 292.33ZM123.71 276.289C123.991 275.906 124.192 275.751 124.234 275.56C126.089 266.956 127.347 258.304 126.092 249.479C124.807 240.446 122.921 231.537 120.692 222.692C119.547 218.15 118.746 213.696 121.625 209.195C124.962 203.978 127.614 198.333 129.982 192.578C130.541 191.22 130.546 190.617 128.725 190.488C123.204 190.095 117.79 189.099 112.639 186.903C106.505 184.289 102.26 179.527 98.292 174.418C97.4779 173.37 96.7119 172.258 95.38 171.583C95.3542 171.93 95.2927 172.086 95.3408 172.191C96.3327 174.303 97.2945 176.432 98.3446 178.516C103.34 188.426 104.87 198.831 102.878 209.768C101.521 217.225 97.2598 222.806 91.5967 227.466C90.5388 228.336 90.3632 228.84 91.3395 230.022C99.6195 240.045 107.208 250.586 114.258 261.518C117.404 266.398 120.517 271.298 123.71 276.289ZM174.392 399.359C176.244 389.05 177.291 378.823 178.557 368.627C178.722 367.295 178.939 365.934 178.208 364.564C172.194 353.296 166.245 341.991 160.254 330.709C159.988 330.209 159.951 329.337 158.87 329.528C158.87 329.959 158.861 330.391 158.871 330.822C159.098 339.831 158.171 348.624 153.928 356.764C153.378 357.82 153.813 358.556 154.28 359.394C161.12 371.636 167.143 384.286 172.928 397.058C173.269 397.814 173.369 398.759 174.392 399.359ZM179.007 360.739C179.173 360.016 179.327 359.606 179.354 359.186C179.839 351.612 180.317 344.037 180.769 336.461C180.816 335.678 180.947 334.853 180.459 334.118C176.349 327.925 172.242 321.731 168.142 315.532C167.341 314.321 166.875 314.806 166.382 315.794C165.049 318.468 163.877 321.252 162.266 323.749C160.658 326.243 161.18 328.304 162.53 330.584C167.732 339.371 172.239 348.534 176.932 357.596C177.457 358.615 177.862 359.722 179.007 360.739ZM180.425 330.15C180.627 330.118 180.827 330.084 181.028 330.051C181.658 318.229 182.289 306.405 182.941 294.166C182.169 294.688 181.839 294.848 181.59 295.091C176.704 299.864 172.853 305.446 169.147 311.148C168.501 312.143 169.089 312.829 169.54 313.533C171.032 315.87 172.579 318.17 174.1 320.489C176.211 323.708 178.316 326.93 180.425 330.15ZM340.037 236.275C341.766 235.589 343.483 235.211 344.417 233.342C348.549 225.073 348.532 216.833 344.433 208.577C344.184 208.073 343.997 207.343 343.314 207.39C342.541 207.441 342.383 208.194 342.216 208.83C341.671 210.917 341.732 213.056 342.033 215.136C342.532 218.585 342.275 221.807 340.245 224.757C339.841 225.344 339.519 226.021 339.559 226.795C339.72 229.908 339.874 233.019 340.037 236.275ZM137.401 207.011C141.297 205.792 144.858 204.645 148.441 203.574C149.757 203.181 149.351 202.245 149.187 201.464C148.665 198.981 148.034 196.522 147.919 194.116C140.725 195.186 139.494 201.219 137.401 207.011ZM159.544 322.887C159.72 322.938 159.897 322.989 160.072 323.039C161.961 319.552 163.849 316.063 165.743 312.579C165.947 312.206 165.878 311.887 165.637 311.578C164.446 310.062 163.585 308.282 161.952 306.779C160.704 312.251 159.881 317.534 159.544 322.887ZM148.775 116.16C147.574 116.712 147.242 117.546 146.888 118.309C146.204 119.783 144.43 121.706 145.447 122.751C146.683 124.025 148.957 122.866 150.745 122.362C151.995 122.01 152.216 121.384 151.052 120.696C149.38 119.707 148.649 118.277 148.775 116.16ZM309.001 233.209C311.085 233.342 312.693 232.6 314.379 232.42C317.326 232.105 317.539 231.782 316.993 228.918C316.88 228.325 316.644 227.755 316.42 227.031C313.779 229.011 311.398 230.864 309.001 233.209ZM329.149 229.131C329.478 227.075 329.252 225.2 329.207 223.33C329.196 222.88 329.084 222.288 328.506 222.579C327.405 223.134 326.286 223.819 325.776 224.991C325.339 225.993 326.081 226.797 326.723 227.495C327.354 228.18 328.103 228.721 329.149 229.131ZM327.969 218.544C326.044 218.578 323.84 219.562 323.978 220.388C324.089 221.056 324.191 221.906 325.06 222.102C325.637 222.231 328.829 219.442 328.76 218.934C328.692 218.431 328.357 218.419 327.969 218.544Z" fill="white"/>
<path d="M216.969 316.914C217.164 323.165 215.974 331.341 214.893 339.518C213.718 348.397 212.472 357.265 211.149 366.123C210.45 370.801 209.528 375.445 208.696 380.101C208.554 380.897 208.436 381.863 207.284 381.57C206.315 381.322 206.523 380.424 206.656 379.729C208.85 368.28 210.49 356.74 212.087 345.198C213.788 332.9 215.55 320.588 214.771 308.115C214.27 300.105 213.314 292.132 212.176 284.187C210.698 273.854 208.866 263.588 206.015 253.537C203.022 242.98 199.765 232.511 194.114 222.999C193.611 222.153 193.226 221.305 194.211 220.765C195.192 220.226 195.58 221.286 195.969 221.925C200.048 228.646 202.848 235.929 205.249 243.388C209.959 258.016 212.905 273.011 214.789 288.257C215.881 297.107 216.834 305.951 216.969 316.914Z" fill="white"/>
<path d="M242.867 253.027C242.806 251.785 242.709 250.545 242.699 249.304C242.693 248.604 242.601 247.69 243.664 247.68C244.604 247.671 244.773 248.381 244.812 249.202C245.011 253.308 244.716 257.401 244.288 261.467C243.35 270.371 241.934 279.214 240.432 288.037C237.75 303.791 234.339 319.37 229.319 334.571C223.684 351.636 219.423 369.055 216.368 386.778C215.677 390.788 214.675 394.745 213.756 398.711C213.592 399.412 213.507 400.527 212.349 400.247C211.244 399.979 211.578 399.076 211.745 398.269C216.538 375.046 220.998 351.751 228.578 329.205C232.77 316.734 235.407 303.869 237.648 290.903C239.136 282.294 240.567 273.678 241.801 265.032C242.368 261.065 242.921 257.067 242.867 253.027Z" fill="white"/>
<path d="M247.63 282.032C246.235 288.139 245.016 294.296 243.388 300.34C242.082 305.192 240.282 309.909 238.7 314.687C238.677 314.756 238.667 314.832 238.632 314.895C238.202 315.661 238.148 317.069 236.841 316.605C235.548 316.146 236.237 315.039 236.545 314.186C237.165 312.471 237.827 310.771 238.468 309.063C241.761 300.295 243.43 291.106 245.406 281.995C245.565 281.264 245.655 280.466 246.639 280.558C247.462 280.637 247.683 281.242 247.63 282.032Z" fill="white"/>
<path d="M260.315 132.755C253.981 132.755 247.648 132.77 241.314 132.737C240.502 132.732 239.432 133.148 238.945 132.186C238.353 131.014 239.88 131.158 240.132 130.591C240.88 128.91 240.837 127.033 241.013 125.233C241.882 116.397 238.255 109.334 232.253 103.248C226.878 97.7966 221.127 92.6825 216.967 86.1359C205.8 68.5685 205.248 50.5276 215.19 32.3687C223.425 17.3279 236.481 8.47955 253.125 5.53347C275.307 1.60685 298.893 11.3211 310.701 32.6791C320.487 50.3803 318.441 72.3883 305.462 88.5906C301.369 93.699 296.408 97.8652 291.4 102.001C288.309 104.553 285.321 107.208 283.117 110.657C280.748 114.363 279.937 118.419 279.901 122.737C279.885 124.779 279.801 126.803 280.193 128.829C280.359 129.684 280.178 130.618 281.345 130.887C281.841 131.002 282.016 131.397 281.969 131.894C281.901 132.605 281.354 132.627 280.848 132.641C279.829 132.672 278.81 132.667 277.79 132.668C271.966 132.671 266.142 132.669 260.318 132.669C260.315 132.7 260.315 132.728 260.315 132.755ZM267.174 110.726C267.165 110.726 267.155 110.726 267.146 110.726C267.146 114.313 267.166 117.899 267.134 121.486C267.124 122.529 267.362 123.137 268.57 123.119C271.116 123.081 273.665 123.103 276.211 123.161C277.467 123.189 277.755 122.595 277.803 121.43C278.127 113.671 281.478 107.462 287.356 102.483C292.858 97.8236 298.582 93.4022 303.183 87.745C312.151 76.7163 316.439 64.1336 314.267 50.0104C310.341 24.4761 287.869 6.26774 261.424 6.75688C245.902 7.04362 232.823 13.4328 222.68 25.3577C208.892 41.5679 206.038 63.9503 217.43 82.8323C221.103 88.9201 225.948 93.9386 231 98.7951C237.68 105.216 243.183 112.223 243.293 122.12C243.305 123.095 243.931 123.135 244.612 123.134C247.305 123.132 249.999 123.087 252.691 123.119C253.837 123.134 254.168 122.654 254.175 121.54C254.222 112.993 253.8 104.438 254.557 95.8996C255.101 89.7691 253.573 83.7329 253.716 77.6024C253.851 71.7653 255.821 66.9459 260.361 63.2284C262.955 61.1054 265.586 59.0162 268.037 56.7346C271.169 53.82 271.822 49.5145 269.953 45.6868C268.207 42.111 264.289 39.5754 261.109 39.9645C256.964 40.4716 253.56 43.7404 252.593 47.9684C252.177 49.7866 252.296 51.6049 252.232 53.4254C252.18 54.9321 251.525 55.6957 249.936 55.6675C246.881 55.6124 243.822 55.5832 240.768 55.6698C239.231 55.7136 238.637 54.9726 238.569 53.6075C238.477 51.7792 238.627 49.9654 238.856 48.1426C240.561 34.5479 252.791 24.0567 268.012 27.5853C276.03 29.444 281.502 34.8279 283.908 42.7284C286.399 50.9043 284.638 58.3842 278.546 64.5328C275.985 67.1179 273.132 69.4141 270.395 71.8204C269.04 73.0101 267.963 74.4303 267.701 76.2047C267.105 80.2314 267.424 84.2884 266.528 88.3893C265.749 91.9494 266.059 95.9097 266.997 99.7902C267.835 103.246 267.174 107.067 267.174 110.726ZM260.77 83.5721C261.425 83.5721 262.08 83.5699 262.734 83.5721C265.549 83.5823 265.549 83.5823 265.523 80.7284C265.519 80.2898 265.538 79.8491 265.503 79.4128C265.155 75.0161 266.936 71.6709 270.354 69.007C272.418 67.399 274.359 65.619 276.262 63.8176C288.67 52.0749 282.27 34.8999 269.384 30.1783C255.659 25.1486 242.59 35.2721 240.945 48.4395C240.339 53.2949 240.5 53.3152 245.351 53.413C245.497 53.4164 245.642 53.4265 245.787 53.4242C250.708 53.3332 249.917 53.9212 250.238 49.3166C250.674 43.0556 255.418 38.1147 261.392 37.8842C266.307 37.6953 269.616 40.3827 271.844 44.5028C273.983 48.4597 273.279 53.8021 270.413 57.2463C268.197 59.9079 265.388 61.8982 262.728 64.0302C258.023 67.8005 255.651 72.5502 255.791 78.629C255.906 83.5598 255.829 83.562 260.77 83.5721ZM256.176 111.786C256.182 111.786 256.188 111.786 256.194 111.786C256.194 114.997 256.233 118.209 256.173 121.419C256.151 122.602 256.467 123.172 257.741 123.128C259.698 123.06 261.661 123.059 263.618 123.115C264.779 123.149 265.115 122.637 265.111 121.547C265.089 115.053 265.093 108.557 265.133 102.062C265.14 100.933 264.753 100.48 263.617 100.532C261.805 100.617 259.985 100.694 258.176 100.616C256.691 100.55 256.095 101.018 256.145 102.591C256.247 105.653 256.176 108.721 256.176 111.786ZM260.431 130.499C265.592 130.499 270.754 130.504 275.915 130.496C276.985 130.494 278.384 130.708 278.085 128.969C277.839 127.535 278.694 125.264 275.935 125.287C273.392 125.309 270.849 125.422 268.306 125.435C260.528 125.473 252.749 125.556 244.973 125.463C242.312 125.43 243.148 127.32 242.923 128.618C242.654 130.174 243.472 130.552 244.947 130.527C250.106 130.441 255.268 130.494 260.431 130.499ZM264.208 92.0956C264.216 92.0956 264.225 92.0956 264.233 92.0956C264.233 91.8763 264.231 91.6581 264.233 91.4389C264.31 85.1554 264.312 85.1857 258.116 85.6232C256.993 85.703 256.58 86.0741 256.611 87.1873C256.665 89.082 256.622 90.979 256.628 92.8748C256.651 98.9919 256.649 98.9649 262.691 98.4892C263.797 98.4027 264.252 98.0215 264.219 96.9082C264.173 95.3048 264.208 93.7002 264.208 92.0956Z" fill="white"/>
<path d="M260.497 134.483C265.732 134.483 270.968 134.451 276.203 134.499C278.271 134.518 280.506 134.494 280.213 137.644C280.148 138.348 280.836 138.33 281.179 138.65C281.918 139.342 282.349 140.136 281.029 140.619C280.07 140.971 280.222 141.682 280.199 142.397C280.075 146.421 278.258 148.242 274.275 148.34C272.826 148.376 271.175 147.985 269.984 148.561C268.703 149.18 269.471 151.072 269.036 152.371C267.737 156.257 263.937 158.501 259.096 158.035C255.146 157.654 251.931 154.674 251.622 150.71C251.459 148.614 250.84 147.831 248.703 148.237C247.366 148.491 245.96 148.384 244.59 148.056C242.005 147.438 240.622 145.757 240.674 143.057C240.694 141.973 241.018 140.994 239.397 140.6C238.563 140.398 238.539 139.205 239.571 138.871C240.394 138.605 240.629 138.17 240.576 137.463C240.39 134.965 242.007 134.538 243.921 134.53C249.447 134.507 254.972 134.522 260.498 134.522C260.497 134.509 260.497 134.496 260.497 134.483ZM260.1 141.026C260.1 141.017 260.1 141.007 260.1 140.998C255.161 140.998 250.223 140.999 245.285 140.998C244.098 140.998 242.815 140.889 242.869 142.661C242.917 144.266 243.135 145.807 245.207 145.975C245.93 146.033 246.658 146.039 247.384 146.038C254.791 146.018 262.198 145.987 269.606 145.966C271.492 145.96 273.384 146.069 275.265 145.96C276.921 145.864 278.258 144.237 278.137 142.709C277.99 140.852 276.506 141.067 275.352 141.053C270.267 140.994 265.183 141.026 260.1 141.026ZM260.453 148.295C260.453 148.247 260.453 148.199 260.453 148.152C258.642 148.152 256.829 148.198 255.019 148.136C253.83 148.096 253.439 148.57 253.696 149.703C253.841 150.341 253.893 151.004 254.07 151.633C254.904 154.61 258.117 156.49 261.452 155.98C264.969 155.443 267.192 153.092 267.261 149.988C267.287 148.776 266.895 148.253 265.67 148.285C263.931 148.328 262.192 148.295 260.453 148.295ZM260.201 138.823C260.201 138.839 260.201 138.856 260.201 138.872C265.574 138.872 270.946 138.878 276.32 138.86C276.843 138.858 277.575 139.109 277.723 138.254C277.829 137.648 277.723 137.042 277.004 136.869C276.519 136.752 276.005 136.705 275.504 136.71C272.384 136.744 269.263 136.843 266.143 136.843C259.029 136.842 251.914 136.787 244.799 136.777C243.941 136.776 242.85 136.744 242.887 137.993C242.924 139.272 244.063 138.795 244.735 138.801C249.891 138.842 255.046 138.823 260.201 138.823Z" fill="white"/>
<path d="M340.588 56.3788C344.3 56.3788 348.011 56.3653 351.723 56.3889C352.603 56.3945 353.942 55.9751 354 57.3334C354.057 58.6659 352.757 58.739 351.724 58.7401C345.465 58.7525 339.206 58.7424 332.946 58.7446C331.49 58.7446 330.036 58.7615 328.579 58.7761C327.7 58.7851 326.854 58.5557 326.844 57.5516C326.834 56.5103 327.725 56.3551 328.578 56.354C332.581 56.3518 336.584 56.3529 340.587 56.3529C340.588 56.3619 340.588 56.3709 340.588 56.3788Z" fill="white"/>
<path d="M184.633 56.3621C188.412 56.3621 192.191 56.3677 195.97 56.3587C196.926 56.3564 198.155 56.2496 198.196 57.4764C198.237 58.7054 196.985 58.7212 196.049 58.7234C188.419 58.7414 180.788 58.7403 173.157 58.7313C172.291 58.7302 171.191 58.7797 171.178 57.5731C171.162 56.1417 172.407 56.4003 173.297 56.3936C177.076 56.3654 180.855 56.3812 184.635 56.3812C184.633 56.3756 184.633 56.3688 184.633 56.3621Z" fill="white"/>
<path d="M196.963 0.540626C197.574 0.610343 198.031 0.971295 198.463 1.36935C202.806 5.37131 207.148 9.37551 211.488 13.3808C211.756 13.6271 212.026 13.879 212.248 14.1657C212.653 14.6875 212.714 15.2351 212.19 15.7231C211.719 16.1616 211.211 15.993 210.806 15.6511C209.638 14.6639 208.496 13.6428 207.359 12.6196C203.726 9.35415 200.094 6.08871 196.483 2.80079C196.023 2.38249 195.442 1.92259 195.889 1.12085C196.134 0.683433 196.478 0.500146 196.963 0.540626Z" fill="white"/>
<path d="M326.979 0.996553C326.96 1.59589 326.561 1.83315 326.243 2.11539C321.73 6.1106 317.216 10.1036 312.694 14.0886C312.371 14.3731 312.01 14.6205 311.642 14.8443C311.151 15.1445 310.63 15.1366 310.297 14.6408C309.997 14.1943 309.986 13.6692 310.405 13.2386C310.76 12.8742 311.119 12.511 311.499 12.1748C315.741 8.42024 319.981 4.66454 324.24 0.929086C324.665 0.555765 325.165 0.15883 325.69 0.0385129C326.4 -0.123409 326.956 0.230796 326.979 0.996553Z" fill="white"/>
<path d="M328.403 103.785C328.229 104.506 327.846 104.97 327.031 104.583C326.58 104.37 326.155 104.067 325.78 103.734C321.969 100.363 318.164 96.9865 314.379 93.5861C313.722 92.9958 312.585 92.3627 313.594 91.3113C314.392 90.4803 315.177 91.2101 315.838 91.8061C319.669 95.2627 323.504 98.7159 327.326 102.183C327.798 102.612 328.383 102.993 328.403 103.785Z" fill="white"/>
<path d="M196.439 102.576C195.93 102.56 195.552 102.34 195.349 101.929C194.984 101.189 195.426 100.684 195.936 100.235C198.988 97.5437 202.037 94.8518 205.098 92.1722C205.918 91.4548 206.78 90.788 207.608 90.0807C208.162 89.6073 208.685 89.7186 209.16 90.1583C209.694 90.6519 209.642 91.2074 209.122 91.6639C205.081 95.2105 201.031 98.7458 196.977 102.278C196.82 102.416 196.605 102.487 196.439 102.576Z" fill="white"/>
<path d="M103.31 310.793C103.379 311.513 103.182 311.897 102.735 312.081C102.15 312.322 101.742 311.988 101.476 311.517C100.579 309.927 99.6508 308.353 98.8422 306.718C92.4309 293.762 85.7658 280.921 80.8273 267.287C80.4482 266.242 79.2203 264.717 80.9447 264.122C82.5182 263.579 82.5048 265.508 82.8504 266.481C87.0384 278.288 92.7217 289.41 98.2261 300.614C99.6743 303.564 101.187 306.48 102.665 309.415C102.924 309.932 103.156 310.463 103.31 310.793Z" fill="white"/>
<path d="M79.2034 143.428C80.3173 144.083 81.3752 144.695 82.4253 145.322C87.3906 148.289 89.6675 152.936 90.5096 158.465C90.6371 159.3 90.6124 160.174 89.5064 160.291C88.3915 160.409 88.4619 159.382 88.3747 158.757C87.9117 155.418 86.8068 152.38 84.5422 149.838C81.8862 146.857 78.6711 145.114 74.5803 145.262C73.8333 145.289 72.7597 145.582 72.5562 144.526C72.3269 143.334 73.5179 143.233 74.2839 142.947C77.0775 141.906 79.9068 140.96 82.6937 139.9C88.1868 137.811 91.809 133.816 94.1161 128.474C96.7822 122.3 97.6858 115.714 98.6654 109.145C99.6372 102.623 100.903 96.1954 103.899 90.2358C104.73 88.5839 105.91 87.1964 106.953 85.7031C107.35 85.1352 107.829 84.6483 108.573 85.1858C109.36 85.7537 109.189 86.5161 108.711 87.1041C102.492 94.7628 101.486 104.106 100.224 113.379C99.9146 115.661 99.4337 117.919 98.9417 120.694C102.689 117.786 106.533 116.11 110.592 114.924C113.81 113.984 117.083 113.363 120.458 113.372C122.178 113.376 123.305 114.116 123.379 115.869C123.46 117.768 122.099 118.08 120.564 118.045C113.885 117.892 107.642 119.637 101.624 122.418C99.1306 123.57 97.3011 125.181 96.5306 127.988C95.9323 130.168 94.8352 132.182 93.5592 134.069C90.7847 138.175 86.9421 140.775 82.2642 142.222C81.251 142.536 80.1204 142.579 79.2034 143.428Z" fill="white"/>
<path d="M59.6123 186.576C59.3271 187.017 59.023 187.507 58.6986 187.984C54.9892 193.427 51.6018 199.047 49.3193 205.269C46.3513 213.359 45.573 221.401 49.5329 229.471C50.8112 232.075 52.0257 234.773 52.3321 237.742C52.6542 240.862 51.2496 243.529 48.5265 245.047C47.8566 245.42 47.1621 245.822 46.6343 244.958C46.1321 244.135 46.9452 243.823 47.4115 243.417C50.5853 240.657 50.9957 239.069 49.4636 234.952C48.1172 231.331 46.1467 227.954 45.3627 224.111C44.1617 218.231 44.7141 212.468 46.4911 206.802C48.8116 199.399 52.6732 192.791 57.0458 186.457C57.473 185.838 57.927 185.242 58.8116 185.519C59.2612 185.66 59.5027 186.013 59.6123 186.576Z" fill="white"/>
<path d="M106.141 136.083C105.784 136.067 105.117 136.117 104.484 135.99C103.695 135.832 103.336 135.293 103.853 134.556C106.269 131.116 108.161 127.223 111.863 124.871C116.698 121.8 121.625 123.379 123.582 128.527C124.207 130.172 123.932 131.282 122.327 132.136C117.351 134.788 111.983 135.772 106.141 136.083ZM114.754 126.153C110.866 127.239 109.158 130.303 107.161 133.047C106.668 133.725 106.838 134.142 107.685 134.172C111.054 134.29 114.374 134.051 117.958 132.811C115.558 131.119 113.94 129.321 114.754 126.153Z" fill="white"/>
<path d="M89.4716 201.325C89.1574 214.588 83.804 225.717 71.9443 233.325C71.2297 233.784 70.4155 234.626 69.683 233.612C68.8242 232.422 70.0599 231.949 70.7879 231.478C78.1822 226.715 83.2191 220.157 85.7733 211.698C87.4475 206.152 87.6353 200.494 86.9621 194.778C86.9453 194.633 86.8883 194.489 86.8928 194.347C86.923 193.476 86.2542 192.193 87.5828 191.958C88.9259 191.721 88.7469 193.016 88.9661 193.931C89.5029 196.173 89.2547 198.444 89.4716 201.325Z" fill="white"/>
<path d="M153.583 154.904C157.172 154.976 159.687 156.842 161.85 158.968C163.112 160.208 161.729 161.03 160.44 161.183C156.348 161.667 152.587 163.201 148.815 164.73C145.821 165.943 143.215 167.803 140.543 169.562C139.92 169.972 139.258 170.796 138.435 170.079C137.406 169.183 138.494 168.495 138.877 167.829C139.934 165.997 141.08 164.218 142.203 162.426C144.035 159.502 146.221 157.094 149.869 156.454C151.263 156.208 152.292 154.796 153.583 154.904ZM142.203 166.114C147.485 162.086 153.409 161.228 159.092 158.915C157.08 157.491 155.434 155.893 153.012 156.638C148.32 158.082 144.421 160.57 142.203 166.114Z" fill="white"/>
<path d="M153.959 145.123C153.895 145.424 153.809 146 153.646 146.554C153.466 147.165 153.053 147.567 152.377 147.546C151.52 147.52 151.49 146.826 151.577 146.277C152.015 143.515 150.359 141.812 148.679 140.029C144.218 135.294 140.131 130.272 137.789 124.079C137.367 122.962 136.229 121.219 137.874 120.648C139.649 120.031 139.272 122.196 139.674 123.198C141.937 128.848 145.677 133.482 149.613 137.987C150.57 139.083 151.583 140.132 152.52 141.244C153.384 142.273 153.881 143.476 153.959 145.123Z" fill="white"/>
<path d="M81.1359 156.536C81.1269 156.668 81.1135 156.961 81.0844 157.251C80.7366 160.694 80.7333 160.701 84.2403 161.542C85.731 161.899 87.2061 162.314 88.51 163.138C89.2548 163.61 89.682 164.349 89.0435 165.17C88.4362 165.95 87.905 165.282 87.3917 164.907C85.7422 163.706 83.765 163.488 81.8594 163.057C78.7975 162.364 77.9744 161.129 78.6532 158.064C78.8277 157.274 79.0614 156.511 78.9764 155.698C78.7628 153.66 77.7809 152.301 75.6729 151.93C75.1171 151.832 74.0916 152.204 74.3522 151.089C74.5423 150.271 75.2379 149.866 76.222 150.002C78.9429 150.378 81.1415 153.178 81.1359 156.536Z" fill="white"/>
<path d="M150.538 171.998C149.989 171.846 149.04 172.015 148.946 171.053C148.86 170.164 149.684 170.157 150.334 170.044C153.088 169.568 155.687 168.733 157.817 166.785C158.218 166.418 158.711 165.891 159.31 166.517C159.942 167.176 159.517 167.754 159.051 168.225C156.74 170.562 153.792 171.493 150.538 171.998Z" fill="white"/>
<path d="M144.437 147.61C146.443 148.818 147.769 147.617 148.842 145.662C149.082 145.225 149.646 144.896 150.158 145.181C150.689 145.476 150.512 146.081 150.396 146.562C149.943 148.453 147.9 150.019 145.998 149.682C144.51 149.418 143.16 149.255 141.917 150.307C141.537 150.63 141.08 150.652 140.774 150.235C140.497 149.856 140.57 149.379 140.852 149.015C141.674 147.951 142.803 147.57 144.437 147.61Z" fill="white"/>
<path d="M135.678 147.949C135.722 147.756 135.791 147.17 136.001 146.642C136.244 146.036 136.782 145.781 137.425 145.927C138.188 146.097 138.12 146.598 138.024 147.264C137.625 150.024 138.21 150.888 140.722 151.5C141.142 151.603 141.872 151.242 141.742 152.161C141.646 152.839 141.15 153.09 140.533 153.215C138.037 153.724 135.692 151.373 135.678 147.949Z" fill="white"/>
<path d="M136.914 220.102C136.377 220.156 135.973 220.059 135.822 219.54C135.686 219.068 135.823 218.654 136.239 218.405C136.985 217.959 137.719 217.454 138.524 217.147C142.654 215.57 146.804 214.044 150.951 212.511C151.879 212.168 152.946 211.893 153.342 213.109C153.78 214.454 152.388 214.391 151.716 214.6C147.008 216.064 142.432 217.877 137.861 219.709C137.524 219.844 137.191 219.986 136.914 220.102Z" fill="white"/>
<ellipse cx="84.5" cy="14.5" rx="84.5" ry="14.5" transform="matrix(-1 0 0 1 238 392)" fill="white"/>
</g>
<defs>
<clipPath id="clip0_746_59107">
<rect width="354" height="409" fill="white"/>
</clipPath>
</defs>
</svg>
