<svg width="1320" height="270" viewBox="0 0 1320 270" fill="none" xmlns="http://www.w3.org/2000/svg">
<g clip-path="url(#clip0_746_27291)">
<path fill-rule="evenodd" clip-rule="evenodd" d="M1201.23 146.149C1200.83 146.247 1200.44 146.012 1200.34 145.622C1200.24 145.233 1200.48 144.837 1200.87 144.737C1205.43 143.578 1208.91 140.677 1211.11 137.003C1212.79 134.181 1213.72 130.903 1213.79 127.604C1213.87 124.312 1213.1 121 1211.38 118.104C1209.23 114.467 1205.59 111.477 1200.26 109.989C1199.87 109.882 1199.65 109.482 1199.75 109.096C1199.81 108.888 1199.95 108.727 1200.13 108.638C1204.5 106.486 1205.75 102.051 1207.02 97.5414C1207.57 95.5746 1208.13 93.5933 1208.94 91.7405C1212.47 83.7406 1215.27 81.4663 1220.64 77.1124C1223.7 74.6268 1227.62 71.448 1233.03 66.0662C1241.67 57.4626 1245.07 47.8585 1244.55 38.7607C1244.17 32.1794 1241.73 25.851 1237.74 20.3496C1233.74 14.8317 1228.17 10.1479 1221.54 6.874C1209.83 1.08943 1194.8 -0.296149 1179.2 5.87824C1163.99 11.9007 1155.21 23.8402 1152.43 34.4669C1151.49 38.058 1151.23 41.4916 1151.65 44.4839C1152.06 47.4206 1153.11 49.9225 1154.79 51.7117C1157.16 54.2252 1160.81 55.3532 1165.71 54.3219C1170.83 53.2453 1173.19 47.6444 1175.76 41.5513C1180.25 30.9339 1185.33 18.9011 1206.11 24.3473C1208.71 25.0283 1211.43 26.4164 1213.75 28.3843C1215.93 30.2355 1217.77 32.6027 1218.83 35.3811C1219.9 38.1713 1220.19 41.3693 1219.27 44.868C1218.47 47.8888 1216.77 51.1286 1213.89 54.513C1210.37 58.6465 1206.44 62.0895 1202.61 65.4398C1194.44 72.6008 1186.75 79.3343 1184.88 91.4862C1184.32 95.0846 1184.34 99.0825 1185.55 102.43C1186.5 105.051 1188.2 107.28 1190.95 108.594C1191.31 108.767 1191.46 109.2 1191.29 109.561C1191.2 109.757 1191.03 109.892 1190.83 109.946L1190.83 109.948C1185.91 111.331 1182.42 113.898 1180.2 117.041C1178.21 119.865 1177.25 123.159 1177.21 126.479C1177.17 129.81 1178.06 133.17 1179.77 136.112C1181.85 139.667 1185.13 142.607 1189.44 144.138C1189.82 144.272 1190.02 144.687 1189.89 145.066C1189.75 145.444 1189.34 145.643 1188.96 145.509C1184.3 143.855 1180.75 140.68 1178.51 136.84C1176.67 133.676 1175.71 130.056 1175.75 126.462C1175.8 122.856 1176.84 119.276 1179.01 116.205C1181.16 113.159 1184.39 110.618 1188.83 109.056C1186.55 107.537 1185.07 105.381 1184.18 102.924C1182.88 99.317 1182.85 95.0692 1183.44 91.2698C1185.38 78.596 1193.27 71.6907 1201.65 64.3473C1205.43 61.0366 1209.32 57.6344 1212.78 53.5739C1215.51 50.3642 1217.12 47.3184 1217.86 44.4979C1218.69 41.3214 1218.43 38.4232 1217.47 35.8987C1216.5 33.3626 1214.81 31.1947 1212.81 29.4937C1210.65 27.6675 1208.14 26.381 1205.74 25.7525C1186.18 20.6261 1181.36 32.0414 1177.1 42.1146C1174.38 48.5733 1171.87 54.5105 1166.01 55.7443C1160.55 56.8922 1156.44 55.5857 1153.73 52.7073C1151.84 50.6915 1150.66 47.9149 1150.21 44.6831C1149.76 41.507 1150.03 37.8802 1151.02 34.1028C1153.9 23.0988 1162.96 10.7442 1178.66 4.52987C1194.68 -1.81111 1210.13 -0.380593 1222.18 5.57099C1229.03 8.95185 1234.78 13.7919 1238.92 19.496C1243.07 25.2166 1245.6 31.8107 1246 38.6811C1246.55 48.1716 1243.02 58.1693 1234.05 67.0959C1228.6 72.5255 1224.65 75.7316 1221.56 78.2388C1216.37 82.4453 1213.67 84.6423 1210.28 92.3264C1209.5 94.0905 1208.96 96.0189 1208.42 97.9337C1207.2 102.246 1206.01 106.494 1202.23 109.089C1207.11 110.81 1210.53 113.798 1212.64 117.364C1214.49 120.5 1215.33 124.078 1215.25 127.632C1215.17 131.179 1214.17 134.704 1212.35 137.742C1209.97 141.736 1206.19 144.888 1201.23 146.149Z" fill="black" fill-opacity="0.5"/>
<path fill-rule="evenodd" clip-rule="evenodd" d="M1164.99 269.812C1164.77 270.148 1164.32 270.244 1163.99 270.026C1163.65 269.807 1163.55 269.358 1163.77 269.022C1183.41 238.765 1198.99 229.019 1211.27 229.081C1223.65 229.143 1232.56 239.093 1238.89 248.144C1244.23 255.779 1247.59 259.741 1249.37 261.103C1249.74 261.382 1249.9 261.472 1249.9 261.413C1249.88 260.506 1249.33 258.789 1248.34 256.547C1244.86 248.6 1236.19 234.604 1226.86 226.523C1222.62 222.853 1218.97 218.957 1217.64 214.001C1216.32 209.035 1217.36 203.088 1222.53 195.389C1223.97 193.238 1225.56 191.082 1227.19 188.866C1234.21 179.32 1242.07 168.641 1241.39 154.482C1241.36 153.862 1241.32 153.258 1241.29 152.727C1241.16 150.696 1241.08 149.605 1241.91 149.106C1242.77 148.588 1244.08 149.232 1246.93 150.626L1247.35 150.832C1259.85 156.952 1272.24 158.439 1283.1 156.421C1291.96 154.773 1299.8 150.785 1305.83 145.075C1311.85 139.373 1316.06 131.951 1317.68 123.427C1319.41 114.336 1318.2 103.983 1313.1 93.1097L1241.75 148.12C1241.61 148.23 1241.44 148.279 1241.27 148.271L1200.99 146.167C1200.59 146.146 1200.28 145.805 1200.3 145.404C1200.32 145.004 1200.66 144.696 1201.06 144.716L1241.08 146.806L1312.9 91.4276C1312.95 91.3897 1313 91.3569 1313.05 91.3302C1313.41 91.1558 1313.85 91.3074 1314.02 91.6686C1319.6 103.135 1320.94 114.087 1319.11 123.694C1317.43 132.529 1313.07 140.22 1306.83 146.128C1300.6 152.028 1292.51 156.148 1283.36 157.849C1272.22 159.92 1259.51 158.402 1246.71 152.135L1246.29 151.929C1243.93 150.774 1242.84 150.239 1242.66 150.347C1242.6 150.387 1242.65 151.174 1242.74 152.637C1242.78 153.139 1242.81 153.711 1242.85 154.414C1243.55 169.088 1235.53 179.984 1228.36 189.725C1226.73 191.941 1225.14 194.097 1223.73 196.197C1218.84 203.495 1217.83 209.051 1219.05 213.632C1220.28 218.224 1223.76 221.919 1227.81 225.426C1237.32 233.657 1246.14 247.89 1249.68 255.967C1250.73 258.375 1251.33 260.282 1251.36 261.38C1251.4 263.325 1250.51 263.802 1248.49 262.259C1246.6 260.818 1243.14 256.748 1237.7 248.975C1231.57 240.218 1223 230.591 1211.27 230.532C1199.44 230.472 1184.3 240.058 1164.99 269.812ZM1189.22 144.097L1151.13 142.107C1150.78 142.089 1150.48 142.316 1150.39 142.636C1147.84 151.673 1148.57 155.706 1149.07 158.408C1149.6 161.309 1149.82 162.487 1143.91 168.023C1139.11 172.517 1138.75 174.441 1139.93 175.705C1140.42 176.216 1141.11 176.528 1141.86 176.863C1143.47 177.582 1145.38 178.437 1143.7 182.193C1143.06 183.62 1142.74 184.577 1143.25 185.537L1143.28 185.586C1143.68 186.287 1144.54 186.846 1146.1 187.458C1144.21 189.799 1144.71 190.181 1145.74 190.976C1146.45 191.526 1147.66 192.456 1146.28 197.981C1144.8 203.899 1146.52 206.13 1149.93 206.981C1151.79 207.446 1154.16 207.439 1156.78 207.43C1165.22 207.404 1176.43 207.369 1179.54 224.304C1180.96 232.061 1172.02 249.992 1167.72 258.626L1167.28 259.496C1167.11 259.856 1167.25 260.292 1167.61 260.469C1167.98 260.647 1168.41 260.499 1168.59 260.139L1169.02 259.275C1173.4 250.502 1182.48 232.281 1180.97 224.042C1177.64 205.914 1165.74 205.951 1156.78 205.98C1154.26 205.987 1151.99 205.994 1150.28 205.57C1147.74 204.935 1146.48 203.155 1147.69 198.334C1149.31 191.887 1147.63 190.593 1146.63 189.827C1146.34 189.607 1146.22 189.513 1147.87 187.615C1147.93 187.547 1147.98 187.465 1148.01 187.373C1148.14 186.995 1147.94 186.581 1147.56 186.449C1145.73 185.811 1144.83 185.359 1144.55 184.877L1144.53 184.848C1144.32 184.454 1144.57 183.803 1145.03 182.785C1147.3 177.705 1144.67 176.528 1142.45 175.537C1141.85 175.265 1141.28 175.011 1140.99 174.709C1140.4 174.081 1140.96 172.774 1144.9 169.081C1151.39 163.006 1151.13 161.603 1150.5 158.147C1150.04 155.635 1149.36 151.912 1151.64 143.588L1189.14 145.547C1189.54 145.568 1189.88 145.26 1189.91 144.859C1189.93 144.459 1189.62 144.117 1189.22 144.097Z" fill="black" fill-opacity="0.5"/>
<path fill-rule="evenodd" clip-rule="evenodd" d="M1161.59 269C1163.47 269 1165 269.224 1165 269.5C1165 269.776 1163.47 270 1161.59 270H0V269H1161.59Z" fill="black" fill-opacity="0.5"/>
</g>
<defs>
<clipPath id="clip0_746_27291">
<rect width="1320" height="270" fill="white"/>
</clipPath>
</defs>
</svg>
