<svg width="20" height="21" viewBox="0 0 20 21" fill="none" xmlns="http://www.w3.org/2000/svg">
<path d="M10 18.625C13.125 14.25 15.625 10.5 15.625 8C15.625 6.50816 15.0324 5.07742 13.9775 4.02252C12.9226 2.96763 11.4918 2.375 10 2.375C8.50816 2.375 7.07742 2.96763 6.02252 4.02252C4.96763 5.07742 4.375 6.50816 4.375 8C4.375 10.5 6.875 14.25 10 18.625Z" stroke="white"/>
<path d="M12.5 8C12.5 8.66304 12.2366 9.29893 11.7678 9.76777C11.2989 10.2366 10.663 10.5 10 10.5C9.33696 10.5 8.70107 10.2366 8.23223 9.76777C7.76339 9.29893 7.5 8.66304 7.5 8C7.5 7.33696 7.76339 6.70107 8.23223 6.23223C8.70107 5.76339 9.33696 5.5 10 5.5C10.663 5.5 11.2989 5.76339 11.7678 6.23223C12.2366 6.70107 12.5 7.33696 12.5 8Z" stroke="white"/>
</svg>
