<svg width="20" height="21" viewBox="0 0 20 21" fill="none" xmlns="http://www.w3.org/2000/svg">
<path d="M4.16663 4.66699H15C15.663 4.66699 16.2989 4.93038 16.7677 5.39923C17.2366 5.86807 17.5 6.50395 17.5 7.16699V14.667C17.5 15.33 17.2366 15.9659 16.7677 16.4348C16.2989 16.9036 15.663 17.167 15 17.167H4.16663C3.50358 17.167 2.8677 16.9036 2.39886 16.4348C1.93002 15.9659 1.66663 15.33 1.66663 14.667V7.16699C1.66663 6.50395 1.93002 5.86807 2.39886 5.39923C2.8677 4.93038 3.50358 4.66699 4.16663 4.66699ZM4.16663 5.50033C3.74996 5.50033 3.38329 5.64199 3.09996 5.89199L9.58329 10.0837L16.0666 5.89199C15.7833 5.64199 15.4166 5.50033 15 5.50033H4.16663ZM9.58329 11.092L2.60829 6.56699C2.54163 6.75033 2.49996 6.95866 2.49996 7.16699V14.667C2.49996 15.109 2.67555 15.5329 2.98811 15.8455C3.30068 16.1581 3.7246 16.3337 4.16663 16.3337H15C15.442 16.3337 15.8659 16.1581 16.1785 15.8455C16.491 15.5329 16.6666 15.109 16.6666 14.667V7.16699C16.6666 6.95866 16.625 6.75033 16.5583 6.56699L9.58329 11.092Z" fill="white"/>
</svg>
