<svg width="216" height="152" viewBox="0 0 216 152" fill="none" xmlns="http://www.w3.org/2000/svg">
<path d="M215.01 2.23438H2.16016V150.211H215.01V2.23438Z" fill="white"/>
<path d="M151.395 7.68072C151.614 7.66452 151.833 7.65043 152.051 7.63892C154.662 7.50504 157.2 8.33741 159.134 10.117C161.487 12.2832 162.102 14.9447 162.216 18.0271C164.098 19.0354 165.824 20.7821 167.443 22.1798C173.302 27.193 178.883 32.4992 184.185 38.0984C186.693 38.0691 188.923 38.3265 191.038 39.7878C193.002 41.1451 194.596 43.4379 195.006 45.8042C195.535 48.8528 194.676 51.4351 192.919 53.8991C192.853 57.2601 192.939 60.625 192.946 63.9867L192.903 80.3229C194.673 80.3492 197.616 79.9983 199.214 80.4436C199.884 81.2156 199.614 88.2518 199.614 89.7514C200.554 89.747 201.642 89.6347 202.568 89.7855C202.822 89.8268 202.983 89.8407 203.107 90.0852C203.573 91.0051 203.415 95.5945 203.033 96.6065C202.449 97.0621 197.664 96.8219 196.748 96.8231L196.857 140.578L204.044 140.576C205.342 140.575 206.941 140.404 208.206 140.701C208.468 140.763 208.596 140.785 208.714 141.04C208.942 141.532 208.895 144.182 208.648 144.744C208.287 144.908 207.846 144.91 207.453 144.923C201.891 145.099 196.271 144.915 190.703 144.912L157.748 144.912L54.8658 144.926L24.0108 144.895L13.7539 144.897C11.9083 144.897 10.02 144.977 8.1791 144.863C7.72181 144.835 7.27885 144.841 6.97 144.488C6.74312 143.636 6.71587 141.7 7.06536 140.901C7.3061 140.683 7.45242 140.584 7.78616 140.558C8.95393 140.47 10.217 140.569 11.3949 140.566L19.4027 140.523L19.4001 96.8045C18.3033 96.7895 13.8695 97.0972 13.2776 96.4184C12.7285 95.7887 13.0874 91.0103 13.1134 89.8815C15.1934 89.7808 17.2985 89.8487 19.3816 89.8531C19.297 89.4912 19.2033 89.1213 19.1838 88.7488C19.139 87.8873 19.4861 86.9917 20.0892 86.3783C21.214 85.2347 22.6368 85.2112 24.1259 85.2159C24.7128 84.0592 25.1786 82.8268 25.7275 81.649C26.9654 78.9926 28.2417 76.3875 29.2554 73.6339C27.8908 69.2205 25.4245 64.8806 23.5639 60.6248C23.116 59.6005 22.91 58.4875 22.4903 57.4564C22.0443 56.3608 21.1661 55.5505 20.942 54.3451C20.7149 53.1229 21.0552 51.798 21.7695 50.7914C22.6103 49.6065 23.9681 48.7576 25.4111 48.5545C26.8487 48.352 28.2997 48.8354 29.4541 49.6769C31.1181 49.1304 32.9069 48.8053 34.6153 48.4011C37.5303 47.7186 40.4379 47.0055 43.3378 46.2622C43.8656 45.1275 44.5281 44.1411 45.6121 43.4654C46.9614 42.6241 48.4718 42.6015 49.9721 42.9327C51.1671 43.4454 52.1879 44.0798 52.8727 45.2295C52.9153 45.3011 52.9557 45.3739 52.9942 45.4479C53.0329 45.5216 53.0696 45.5963 53.1046 45.6722C53.1393 45.7481 53.1722 45.8246 53.203 45.9019C53.234 45.9792 53.2629 46.0574 53.2896 46.1363C53.3166 46.2152 53.3415 46.2946 53.3643 46.3747C53.3871 46.4548 53.408 46.5356 53.4266 46.6168C53.4454 46.6981 53.462 46.7798 53.4766 46.8618C53.4909 46.9438 53.5034 47.0262 53.5137 47.1089C53.524 47.1916 53.5323 47.2745 53.5384 47.3576C53.5442 47.4407 53.5482 47.5239 53.5501 47.6073C53.552 47.6906 53.5518 47.7738 53.5492 47.8572C53.5466 47.9405 53.5421 48.0237 53.5353 48.1066C53.5285 48.1897 53.5198 48.2726 53.5088 48.3553C53.4977 48.4378 53.4848 48.5202 53.4698 48.6022C53.4545 48.6841 53.4374 48.7656 53.4179 48.8467C53.3986 48.9277 53.3772 49.008 53.3538 49.0881C52.9129 50.6115 51.899 51.6601 50.5363 52.4037C50.5147 54.8297 50.5135 57.2556 50.5328 59.6816C51.2876 59.818 51.946 59.9491 52.4899 60.5459C52.8361 60.9257 53.0346 61.3787 53.1363 61.879C53.3448 62.9063 53.3347 65.7508 53.2293 66.8399C53.1999 67.1424 53.129 67.2831 52.9077 67.4794C51.3205 67.6504 45.337 67.819 43.9537 67.3622C43.8292 67.043 43.7618 66.7534 43.7183 66.4131C43.5149 64.8134 43.2789 61.9856 44.332 60.6986C44.9446 59.9503 45.6529 59.8143 46.5574 59.7001C46.5785 57.3637 46.5536 55.0253 46.5496 52.6886C45.3307 52.1949 44.6641 51.5035 43.8372 50.521C42.1402 51.1467 40.3043 51.5117 38.5496 51.9462C36.1159 52.5491 33.6735 53.1894 31.2116 53.6643C31.1158 54.1255 31.0157 54.5976 30.8584 55.0425C30.329 56.5383 29.3761 57.4679 27.9716 58.1371C29.0069 60.1429 29.8724 62.2546 30.8147 64.3071C31.9437 66.7664 33.1451 69.1958 34.2337 71.6727C35.4594 71.6422 36.7012 71.6504 37.8443 72.1601C38.7549 72.5664 39.4207 73.2104 39.9853 74.0198C41.1526 75.6932 41.9122 77.8744 42.765 79.7343C43.5959 81.5461 44.5241 83.3327 45.2628 85.1833C46.3749 85.1553 47.5863 85.144 48.6193 85.6086C49.4308 85.9736 50.0661 86.5939 50.3519 87.4457C50.5295 87.9747 50.6716 88.8862 50.4031 89.4041C50.2634 89.6739 50.3432 89.4724 50.2446 89.77C51.9023 90.0349 55.865 89.8191 57.7352 89.8177C62.9812 89.8141 68.2509 89.9302 73.4937 89.7763C73.5784 87.3142 73.5261 84.7887 73.5136 82.3221C73.5077 81.1259 73.3534 79.6984 73.5944 78.5257C73.6498 78.2558 73.7579 78.0435 73.9561 77.8488C74.4655 77.349 75.2399 77.4101 75.8989 77.4061C75.8813 75.9074 76.2181 73.5778 75.8106 72.2012C75.5626 72.0835 75.359 71.9907 75.1521 71.8064C74.9505 70.808 75.1436 69.609 75.2253 68.5946L77.5501 68.6042C77.5404 67.2199 77.2753 65.0483 78.0179 63.846L78.2053 63.8082C79.0107 64.7178 78.7042 67.42 78.6948 68.6C79.2662 68.6646 79.7644 68.7291 80.2064 69.1298C80.6247 69.5091 80.7417 70.0742 80.7337 70.6186C80.7257 71.1516 80.5432 71.4092 80.1646 71.7599C80.1465 73.632 80.1446 75.5039 80.1592 77.376C80.9382 77.3629 81.707 77.377 82.4851 77.4169C82.6554 78.84 82.5551 80.3502 82.5586 81.7857L82.5786 89.7533C91.9822 89.8541 101.386 89.8576 110.789 89.7634C110.823 86.2355 110.832 82.7077 110.816 79.1798C110.817 77.0714 110.758 74.9353 110.931 72.8337C114.656 72.6425 118.455 72.7949 122.189 72.7902C125.116 72.7865 128.25 72.5417 131.14 72.911L131.205 73.0354L131.312 73.0199L131.316 72.9506L131.426 73.0547C131.732 74.757 131.542 76.7762 131.548 78.5121L131.581 89.7261L172.216 89.6821C172.224 88.0153 171.719 81.5423 172.92 80.5608C173.652 79.9622 177.082 80.2508 178.077 80.2684C178.27 75.0024 178.131 69.6848 178.103 64.4142C178.086 61.1464 178.262 57.7575 178.035 54.5046C177.959 53.4165 177.561 52.6752 177.059 51.7353C175.974 49.7072 175.943 47.7921 176.308 45.5611C174.493 44.2073 172.909 42.5287 171.271 40.9711C166.199 36.149 161.483 31.0677 156.823 25.8545C154.826 26.7097 152.803 27.0145 150.651 26.6529C148.398 29.064 146.019 31.3577 143.656 33.6604C144.317 33.9701 144.882 34.3589 145.406 34.8648C147.82 37.1951 147.309 40.4713 147.365 43.502C147.979 43.5187 149.036 43.4379 149.51 43.879C149.764 44.1157 149.856 44.453 149.89 44.7856C149.95 45.3676 150.018 46.3209 149.585 46.7662C148.639 47.7376 145.354 47.2672 143.987 47.2411C143.907 49.0047 143.917 50.7763 143.937 52.5414C143.947 53.3989 144.068 54.3529 143.937 55.1961C143.882 55.5564 143.755 55.8997 143.497 56.1642C142.558 57.1262 137.17 56.7103 135.658 56.7037C135.43 56.5578 135.177 56.3883 134.994 56.1891C134.123 55.2447 134.487 48.8319 134.495 47.2291C133.21 47.2125 130.84 47.6284 129.821 46.7613C129.777 46.723 129.734 46.6824 129.693 46.6394C129.652 46.5966 129.614 46.552 129.578 46.5053C129.542 46.4585 129.508 46.4101 129.477 46.3599C129.445 46.3099 129.417 46.2582 129.391 46.2053C129.365 46.1523 129.341 46.098 129.321 46.0426C129.301 45.9872 129.283 45.9308 129.268 45.8737C129.253 45.8166 129.241 45.7589 129.232 45.7004C129.223 45.6419 129.218 45.5832 129.215 45.5242C129.21 45.4519 129.209 45.3796 129.212 45.307C129.215 45.2344 129.222 45.1623 129.232 45.0907C129.243 45.019 129.257 44.9479 129.276 44.8776C129.294 44.8074 129.316 44.7386 129.341 44.6707C129.367 44.6028 129.396 44.5364 129.428 44.4715C129.461 44.4067 129.497 44.3438 129.536 44.283C129.575 44.2221 129.618 44.1634 129.663 44.1068C129.709 44.0504 129.757 43.9967 129.809 43.9452C130.331 43.4132 130.955 43.4651 131.642 43.4499C131.677 41.5726 131.397 39.3935 131.975 37.5829C132.6 35.6295 134.142 34.5143 135.882 33.6413C135.732 33.2033 135.605 32.7559 135.538 32.297C135.416 31.4568 135.589 30.477 136.054 29.7597C136.66 28.8273 137.786 28.4789 138.538 27.6884C140.461 25.6662 142.254 23.3454 143.926 21.1119C143.58 20.2313 143.287 19.3518 143.141 18.4158C142.759 15.9636 143.25 13.5005 144.736 11.487C146.371 9.27007 148.71 8.07718 151.395 7.68072Z" fill="black" fill-opacity="0.5"/>
<path d="M44.8828 65.3803C45.1696 65.3747 45.3868 65.3836 45.6684 65.4548C45.8852 65.7876 45.8202 66.083 45.8246 66.475C45.5686 66.4835 45.3436 66.4595 45.0909 66.4186C44.8382 66.0959 44.9025 65.7836 44.8828 65.3803Z" fill="white"/>
<path d="M46.9904 65.386C47.2986 65.374 47.5313 65.3677 47.8329 65.4482C48.0429 65.7848 47.9797 66.1472 47.9832 66.5378C47.6772 66.5448 47.4442 66.5458 47.1452 66.4645C46.9221 66.1028 46.9902 65.8057 46.9904 65.386Z" fill="white"/>
<path d="M76.3786 69.6518C77.3174 69.6743 78.6374 69.3056 79.4352 69.8732C79.6381 70.1837 79.6168 70.4273 79.6118 70.7817C78.6136 70.8238 77.4757 71.1143 76.5447 70.7002C76.3087 70.3289 76.3747 70.0853 76.3786 69.6518Z" fill="white"/>
<path d="M77.0802 72.1172L79.0303 72.1184L79.0124 77.3364L77.0785 77.3618C77.0567 75.6137 77.0571 73.8653 77.0802 72.1172Z" fill="white"/>
<path d="M49.2526 52.8047L49.3609 52.9644C49.3679 54.1077 49.5967 58.8227 49.2486 59.5949C48.8108 59.8054 48.3509 59.7842 47.8744 59.8033C47.4396 58.2299 47.7215 54.639 47.7358 52.8587L49.2526 52.8047Z" fill="white"/>
<path d="M136.193 53.729C138.373 53.6818 140.553 53.6602 142.732 53.6646C142.77 54.1435 142.898 54.8453 142.667 55.2791C142.571 55.4583 142.417 55.4607 142.238 55.5276C141.008 55.5339 137.54 55.7651 136.553 55.5617C136.219 55.4928 135.882 55.3235 135.733 54.9999C135.591 54.691 135.632 54.3448 135.771 54.0454C135.895 53.7776 135.935 53.8272 136.193 53.729Z" fill="white"/>
<path d="M135.824 47.3086L142.604 47.3178L142.604 49.2345C140.348 49.2531 138.093 49.2592 135.838 49.2524L135.824 47.3086Z" fill="white"/>
<path d="M135.812 50.4823C138.066 50.4212 140.332 50.4593 142.586 50.4813L142.59 52.4237C140.336 52.5047 138.068 52.4756 135.813 52.4979L135.812 50.4823Z" fill="white"/>
<path d="M138.94 29.0439C139.118 29.0373 139.291 29.0317 139.469 29.0378C140.27 29.0655 141.126 29.3795 141.668 29.9883C142.561 30.9923 142.455 32.142 142.38 33.3854C141.587 33.4108 140.792 33.4026 139.998 33.4075C139.263 33.4115 138.365 33.5082 137.653 33.3553C137.252 33.2691 136.833 33.0204 136.651 32.6399C136.406 32.1263 136.592 31.4797 136.816 30.9935C137.26 30.0296 137.962 29.4194 138.94 29.0439Z" fill="white"/>
<path d="M46.3694 61.0122C47.5956 60.9878 50.5716 60.5345 51.4512 61.4223C52.1847 62.1629 51.9975 63.3132 51.9562 64.2518L49.9783 64.2543C49.7475 64.423 45.5236 64.2915 44.9057 64.2868C44.8629 63.5046 44.6177 62.203 45.1222 61.5501C45.4292 61.1531 45.9095 61.0897 46.3694 61.0122Z" fill="white"/>
<path d="M42.7477 47.7042L42.8893 47.6992C43.1686 48.0041 43.2036 49.1258 43.2872 49.5622C39.3083 50.6644 35.2007 51.4806 31.1713 52.3862C30.8723 51.8484 30.6306 51.2692 30.3711 50.7109C34.4465 49.5885 38.626 48.6396 42.7477 47.7042Z" fill="white"/>
<path d="M130.534 44.6519C136.568 44.4786 142.653 44.6364 148.693 44.6296L148.682 46.0404C146.465 46.0764 131.253 46.2185 130.618 45.908C130.446 45.5204 130.515 45.0676 130.534 44.6519Z" fill="white"/>
<path d="M144.481 22.3984C144.601 22.4712 144.563 22.4341 144.647 22.5377C146.083 24.3016 147.304 25.5184 149.491 26.2381C147.989 28.0235 146.069 29.5607 144.46 31.2755L143.711 32.0515C143.66 31.2506 143.515 30.5394 143.087 29.8475C142.398 28.7321 141.313 28.1778 140.074 27.8941C141.536 26.0556 143.033 24.2497 144.481 22.3984Z" fill="white"/>
<path d="M24.1719 58.1875C25.1503 58.5313 25.892 58.5468 26.9062 58.4682C28.3544 61.9886 29.9729 65.4071 31.6064 68.8427C31.8422 69.3385 32.9764 71.3467 32.9407 71.7974L32.6588 71.9042L30.6357 72.6018C29.521 70.6641 24.298 60.0909 24.1719 58.1875Z" fill="white"/>
<path d="M25.2327 49.8086C26.1233 49.7698 26.8634 49.7748 27.6915 50.1679C27.8087 50.2241 27.9227 50.2858 28.0335 50.3532C28.1444 50.4206 28.2515 50.4935 28.3551 50.5717C28.4586 50.6499 28.5582 50.733 28.6536 50.8211C28.7487 50.9092 28.8393 51.0019 28.9255 51.0992C29.0115 51.1962 29.0925 51.2974 29.1684 51.4029C29.2443 51.5081 29.315 51.6168 29.38 51.7291C29.4451 51.8414 29.5043 51.9567 29.5578 52.0748C29.6114 52.1932 29.6588 52.3139 29.7004 52.4368C29.7398 52.5551 29.7732 52.6754 29.8002 52.7973C29.8272 52.9192 29.8481 53.042 29.8627 53.166C29.8772 53.2898 29.8854 53.4143 29.8873 53.539C29.8892 53.6639 29.8847 53.7887 29.8739 53.9129C29.8629 54.0371 29.8458 54.1607 29.8223 54.2833C29.7988 54.4059 29.7692 54.5268 29.7333 54.6464C29.6973 54.7659 29.6555 54.8834 29.6078 54.9987C29.5599 55.114 29.5064 55.2267 29.447 55.3364C28.8351 56.4525 27.8794 56.9366 26.7218 57.3018C26.008 57.3591 25.3619 57.3128 24.6895 57.0477C24.5676 56.9995 24.4485 56.9455 24.332 56.8856C24.2157 56.8257 24.1025 56.76 23.9929 56.6886C23.8829 56.6174 23.777 56.5406 23.6748 56.4586C23.5727 56.3767 23.475 56.2898 23.3815 56.1979C23.2883 56.1061 23.1997 56.01 23.1159 55.9093C23.032 55.8085 22.9536 55.704 22.8805 55.5953C22.8072 55.4867 22.7396 55.3747 22.6776 55.2594C22.6156 55.1441 22.5595 55.0259 22.5094 54.905C22.1245 53.9902 22.1139 53.0101 22.5254 52.1025C23.0623 50.919 24.0396 50.2274 25.2327 49.8086Z" fill="white"/>
<path d="M25.9376 52.1562C26.0433 52.1767 26.1487 52.199 26.2537 52.2232C26.738 52.3364 27.1575 52.5327 27.4128 52.9828C27.6052 53.3219 27.6138 53.7179 27.4823 54.0805C27.2712 54.6625 26.8306 54.8993 26.304 55.1618C26.0144 55.1365 25.7236 55.1137 25.4571 54.9883C25.0738 54.8077 24.7198 54.4417 24.608 54.0251C24.5105 53.6622 24.5446 53.3095 24.7276 52.9809C25.0019 52.4884 25.4228 52.3148 25.9376 52.1562Z" fill="black" fill-opacity="0.5"/>
<path d="M47.6882 43.9459C48.6448 43.8869 49.4304 43.9339 50.2867 44.4144C51.1931 44.9234 51.8996 45.8027 52.1739 46.8084C52.2058 46.9294 52.2317 47.0518 52.2516 47.1753C52.2716 47.2991 52.2852 47.4233 52.293 47.548C52.3007 47.673 52.3021 47.7979 52.2974 47.9231C52.293 48.0483 52.2822 48.1728 52.2652 48.2968C52.2483 48.4208 52.2253 48.5436 52.1964 48.6655C52.1675 48.7874 52.1326 48.9074 52.0917 49.0258C52.0511 49.144 52.0045 49.26 51.9522 49.3739C51.9 49.4878 51.8425 49.5987 51.7793 49.7067C51.1477 50.797 50.1329 51.3665 48.9419 51.6664C48.1147 51.7205 47.4026 51.6899 46.6303 51.3534C45.6699 50.9348 44.8928 50.1546 44.5475 49.1573C44.2114 48.1869 44.318 47.1206 44.788 46.2142C45.412 45.0101 46.4412 44.3599 47.6882 43.9459Z" fill="white"/>
<path d="M47.7082 46.2921C47.9734 46.2608 48.2482 46.223 48.5152 46.2376C48.9732 46.2625 49.4105 46.4974 49.6975 46.8536C49.938 47.1522 50.0383 47.5204 49.9723 47.9002C49.8612 48.5374 49.4223 48.8954 48.9182 49.2434C48.6801 49.2869 48.4992 49.3139 48.2547 49.2881C47.7693 49.2366 47.2549 48.9125 46.9933 48.5036C46.7833 48.1753 46.7211 47.7384 46.8068 47.3605C46.9284 46.8248 47.2697 46.5789 47.7082 46.2921Z" fill="black" fill-opacity="0.5"/>
<path d="M47.866 47.1716C48.265 47.1579 48.5142 47.1706 48.8144 47.437C48.901 47.7871 48.8343 47.9692 48.7162 48.2928C48.3543 48.36 48.2373 48.3699 47.9362 48.1695C47.7906 47.8132 47.8289 47.5422 47.866 47.1716Z" fill="white"/>
<path d="M74.634 78.5782L81.4364 78.5742C81.4984 82.2919 81.4378 86.0188 81.4292 89.7375C80.1855 89.7462 75.5788 89.981 74.7249 89.6315L74.6481 89.3859C74.6361 89.1705 74.5971 88.9051 74.6288 88.6935C74.7491 87.8855 75.9164 88.3264 76.4255 87.987C76.5291 87.7073 76.5395 87.5577 76.4984 87.2627C76.1735 87.0461 75.6655 87.1732 75.2841 87.1443C74.9534 87.1194 74.8425 87.0877 74.6152 86.8479C74.5755 86.5468 74.6633 86.3744 74.7716 86.0996C75.1645 85.8002 75.8722 86.0728 76.3835 85.8563C76.5843 85.5935 76.5841 85.5533 76.6078 85.2205C76.1761 84.584 75.3757 85.0941 74.7761 84.7733C74.6784 84.4532 74.6016 84.2251 74.6652 83.8853C74.9308 83.6185 75.1523 83.6225 75.5208 83.6142C75.7928 83.6079 76.0448 83.6375 76.2952 83.5109C76.4349 83.4404 76.5294 83.2554 76.5557 83.106C76.6054 82.8211 76.5287 82.6755 76.3821 82.4556C75.9816 82.2943 75.5906 82.4796 75.1758 82.4634C74.9116 82.4533 74.9245 82.4657 74.7296 82.2642C74.7105 81.9305 74.6737 81.6766 74.8439 81.3724C75.2096 81.1347 75.6289 81.2876 76.0404 81.2714C76.1806 81.2658 76.2912 81.2977 76.3819 81.1712C76.5479 80.9398 76.5496 80.6117 76.4847 80.3454C76.3668 79.8608 75.1939 80.2073 74.7648 79.9522C74.5654 79.5193 74.6253 79.0449 74.634 78.5782Z" fill="white"/>
<path d="M22.2557 86.4525C26.7114 86.2017 31.8073 86.421 36.3255 86.417L43.1143 86.3959C44.368 86.3917 45.6643 86.3184 46.9116 86.433C47.3905 86.4769 47.8624 86.662 48.264 86.9248C48.7102 87.217 49.0741 87.6466 49.1647 88.1846C49.2246 88.5409 49.1826 89.0896 48.9226 89.3609C48.5867 89.711 47.9617 89.6533 47.5221 89.6653C41.5346 89.6157 35.5469 89.5988 29.5589 89.615L23.9273 89.6354C22.9681 89.6389 21.913 89.7219 20.9642 89.6089C20.6894 89.5762 20.5264 89.4377 20.3211 89.2704C20.1781 88.9313 20.1536 88.7208 20.2868 88.3695C20.6621 87.3795 21.3277 86.8687 22.2557 86.4525Z" fill="white"/>
<path d="M137.053 34.6928C138.002 34.6381 138.965 34.6433 139.916 34.632C141.691 34.6106 143.499 34.5545 144.844 35.9336C146.664 37.799 146.178 41.1085 146.146 43.5189L142.252 43.5182L132.865 43.5215C132.835 41.3619 132.426 38.5261 133.733 36.6772C134.551 35.5193 135.682 34.9294 137.053 34.6928Z" fill="white"/>
<path d="M34.1888 72.9708C35.2036 72.8721 36.1783 72.8035 37.1488 73.1993C37.9269 73.5164 38.4786 74.0869 38.9636 74.7567C40.3848 76.719 42.7332 82.6943 43.8538 85.2494L35.3382 85.2602L25.4648 85.2487C26.2545 83.1899 29.3643 76.2693 30.5624 74.6717C31.5146 73.402 32.7051 73.1859 34.1888 72.9708Z" fill="white"/>
<path d="M33.9963 74.7129C34.6777 74.6248 35.3337 74.627 35.9845 74.8764C36.8382 75.2038 37.5365 75.8431 37.8672 76.7037C37.9031 76.7981 37.9344 76.8939 37.9607 76.9914C37.9867 77.0888 38.0081 77.1875 38.0245 77.2871C38.0408 77.3867 38.052 77.4869 38.0584 77.5877C38.0647 77.6884 38.0659 77.7894 38.0619 77.8902C38.0579 77.991 38.049 78.0915 38.0349 78.1915C38.0208 78.2914 38.0018 78.3905 37.9778 78.4887C37.9536 78.5866 37.9247 78.6831 37.8911 78.7782C37.8573 78.8734 37.8188 78.9666 37.7756 79.058C37.3481 79.9596 36.6123 80.4707 35.701 80.8066C34.9877 80.9228 34.3127 80.9346 33.629 80.6645C33.532 80.6271 33.4371 80.5848 33.3443 80.5379C33.2516 80.4909 33.1616 80.4392 33.074 80.3831C32.9864 80.327 32.9021 80.2666 32.8208 80.202C32.7393 80.1374 32.6613 80.0688 32.5869 79.9963C32.5124 79.9237 32.4417 79.8474 32.375 79.7677C32.3083 79.6881 32.2459 79.6055 32.1874 79.5193C32.1289 79.4333 32.0751 79.3445 32.0256 79.2531C31.976 79.1618 31.9314 79.0681 31.8914 78.972C31.8515 78.8778 31.8163 78.7818 31.7858 78.6843C31.7552 78.5866 31.7296 78.4877 31.709 78.3874C31.6883 78.2871 31.6726 78.1861 31.6617 78.0844C31.6509 77.9828 31.6453 77.8806 31.6446 77.7784C31.6439 77.676 31.6484 77.5738 31.6578 77.4719C31.6672 77.3702 31.6815 77.269 31.701 77.1685C31.7205 77.0679 31.7447 76.9686 31.774 76.8706C31.8034 76.7727 31.8372 76.6762 31.8759 76.5815C32.2877 75.5962 33.0454 75.1063 33.9963 74.7129Z" fill="black" fill-opacity="0.5"/>
<path d="M34.2199 75.9953C34.6286 75.9631 35.0499 75.9288 35.4483 76.0496C35.9161 76.1914 36.3361 76.5209 36.5688 76.9529C36.5956 77.0024 36.6196 77.0532 36.6409 77.1051C36.6623 77.157 36.6811 77.2098 36.6971 77.2638C36.7128 77.3176 36.726 77.3723 36.7361 77.4275C36.7462 77.4827 36.7534 77.5384 36.7579 77.5945C36.7624 77.6504 36.7638 77.7066 36.7624 77.7627C36.7607 77.8188 36.7563 77.8749 36.749 77.9306C36.7417 77.9863 36.7316 78.0415 36.7184 78.0962C36.7053 78.1509 36.6893 78.2047 36.6708 78.2576C36.4394 78.9283 35.9915 79.2658 35.3802 79.5726C35.0307 79.6022 34.7082 79.6099 34.3655 79.5202C33.843 79.3833 33.3711 79.0373 33.1041 78.5643C33.0757 78.5143 33.0496 78.4631 33.0263 78.4104C33.0031 78.3576 32.9826 78.304 32.9648 78.2493C32.9472 78.1946 32.9321 78.1389 32.9202 78.0828C32.9082 78.0267 32.899 77.9698 32.8927 77.9125C32.8863 77.8555 32.8831 77.7979 32.8828 77.7404C32.8826 77.6828 32.8852 77.6255 32.8906 77.5682C32.8962 77.5109 32.9047 77.4541 32.9159 77.3977C32.9274 77.3413 32.9415 77.2857 32.9587 77.2307C33.1729 76.5642 33.6257 76.2971 34.2199 75.9953Z" fill="white"/>
<path d="M173.427 81.5269C176.468 81.4344 179.53 81.5086 182.573 81.5089L198.377 81.4854C198.407 84.2096 198.492 86.9597 198.38 89.6811C195.496 89.752 192.594 89.6785 189.709 89.6729L173.474 89.6585C173.324 86.9709 173.365 84.2185 173.427 81.5269Z" fill="white"/>
<path d="M185.055 39.2638C186.879 39.094 188.768 39.6699 190.259 40.7146C192.077 41.9878 193.44 43.9043 193.813 46.1114C194.179 48.2724 193.709 50.7136 192.427 52.508C190.975 54.5394 188.79 55.6409 186.376 56.0395C184.312 56.0834 182.477 55.7019 180.766 54.487C178.943 53.1921 177.655 51.0617 177.287 48.8617C177.266 48.7297 177.248 48.5972 177.234 48.4643C177.22 48.3313 177.209 48.1982 177.201 48.0648C177.193 47.9314 177.189 47.7977 177.188 47.6641C177.187 47.5304 177.189 47.397 177.195 47.2634C177.2 47.1297 177.209 46.9966 177.221 46.8634C177.234 46.7302 177.249 46.5973 177.268 46.4651C177.287 46.3328 177.309 46.2011 177.335 46.0698C177.36 45.9385 177.389 45.8081 177.421 45.6783C177.453 45.5484 177.488 45.4197 177.526 45.2917C177.565 45.1637 177.606 45.0366 177.651 44.9107C177.696 44.7846 177.744 44.6599 177.795 44.5363C177.846 44.4128 177.9 44.2907 177.957 44.1697C178.014 44.0488 178.074 43.9294 178.137 43.8118C178.201 43.6939 178.267 43.5776 178.335 43.463C178.404 43.3486 178.476 43.2359 178.55 43.1248C178.625 43.0137 178.702 42.9047 178.782 42.7976C180.326 40.6963 182.521 39.6354 185.055 39.2638Z" fill="white"/>
<path d="M184.851 43.8356C185.8 43.7729 186.648 43.8135 187.506 44.2685C187.619 44.3279 187.728 44.3929 187.834 44.4636C187.94 44.5343 188.042 44.6104 188.14 44.6915C188.238 44.7727 188.332 44.8587 188.421 44.9493C188.51 45.0402 188.595 45.1353 188.674 45.2347C188.754 45.334 188.828 45.4374 188.897 45.5443C188.966 45.6514 189.029 45.7617 189.087 45.8752C189.144 45.9886 189.196 46.1049 189.241 46.2235C189.287 46.3423 189.327 46.4633 189.36 46.5861C189.651 47.6327 189.521 48.7831 188.95 49.7132C188.319 50.7421 187.347 51.2492 186.213 51.5423C185.349 51.5996 184.61 51.5792 183.822 51.1783C183.76 51.1461 183.698 51.1125 183.638 51.0773C183.578 51.042 183.518 51.0052 183.459 50.9669C183.401 50.9286 183.343 50.8887 183.287 50.8473C183.23 50.806 183.175 50.7632 183.121 50.7189C183.066 50.6747 183.013 50.6291 182.961 50.5822C182.91 50.5352 182.859 50.4868 182.81 50.4372C182.76 50.3877 182.712 50.3367 182.666 50.2846C182.619 50.2327 182.573 50.1794 182.53 50.1249C182.486 50.0704 182.443 50.0147 182.402 49.9581C182.361 49.9015 182.321 49.8437 182.283 49.785C182.245 49.7263 182.209 49.6666 182.174 49.6061C182.139 49.5455 182.105 49.4839 182.074 49.4215C182.042 49.3592 182.012 49.296 181.983 49.2321C181.955 49.1683 181.928 49.1037 181.903 49.0384C181.878 48.9729 181.854 48.9069 181.832 48.8404C181.811 48.7739 181.791 48.707 181.773 48.6393C181.738 48.5167 181.709 48.3927 181.686 48.2675C181.664 48.1421 181.647 48.016 181.637 47.8889C181.627 47.7619 181.623 47.6348 181.626 47.5075C181.628 47.38 181.637 47.2532 181.652 47.1266C181.667 47 181.688 46.8745 181.716 46.7503C181.743 46.6261 181.777 46.5032 181.816 46.382C181.856 46.2611 181.901 46.1422 181.953 46.0257C182.004 45.909 182.061 45.7953 182.124 45.6845C182.751 44.5947 183.693 44.1484 184.851 43.8356Z" fill="black" fill-opacity="0.5"/>
<path d="M185.045 44.8878C185.566 44.85 186.053 44.8629 186.542 45.068C186.633 45.1058 186.721 45.1481 186.808 45.1948C186.895 45.2418 186.978 45.293 187.06 45.3487C187.141 45.4043 187.219 45.464 187.294 45.5276C187.369 45.5913 187.44 45.6587 187.508 45.7298C187.576 45.801 187.64 45.8757 187.701 45.9534C187.761 46.0312 187.817 46.112 187.869 46.1956C187.92 46.2794 187.968 46.3654 188.011 46.4539C188.053 46.5425 188.091 46.6331 188.125 46.7257C188.157 46.8107 188.184 46.8969 188.207 46.9845C188.23 47.0721 188.249 47.1607 188.263 47.2501C188.278 47.3396 188.288 47.4298 188.293 47.5202C188.299 47.6107 188.3 47.7011 188.296 47.7918C188.293 47.8822 188.285 47.9724 188.273 48.0623C188.261 48.152 188.244 48.2411 188.223 48.3291C188.202 48.4174 188.177 48.5043 188.147 48.5901C188.118 48.6758 188.084 48.7596 188.046 48.8421C187.633 49.7292 186.932 50.1498 186.047 50.4803C185.623 50.5068 185.187 50.5035 184.778 50.3736C184.682 50.3443 184.589 50.3098 184.497 50.2705C184.405 50.2313 184.315 50.1874 184.228 50.1388C184.141 50.0902 184.056 50.0373 183.975 49.9798C183.893 49.9222 183.815 49.8607 183.739 49.7952C183.664 49.7296 183.592 49.6601 183.524 49.5871C183.456 49.514 183.392 49.4375 183.332 49.3576C183.272 49.278 183.216 49.1953 183.165 49.1096C183.113 49.0239 183.067 48.9358 183.024 48.8454C182.701 48.1457 182.66 47.3091 182.966 46.5965C183.381 45.6296 184.123 45.2507 185.045 44.8878Z" fill="white"/>
<path d="M152.028 8.73701C153.806 8.64401 155.705 9.17692 157.202 10.1307C157.317 10.2035 157.431 10.2792 157.542 10.3576C157.653 10.436 157.762 10.5173 157.869 10.6014C157.976 10.6852 158.081 10.7719 158.183 10.8614C158.286 10.9506 158.386 11.0425 158.484 11.1369C158.582 11.2313 158.678 11.3281 158.771 11.4274C158.864 11.5268 158.954 11.6282 159.042 11.7323C159.13 11.8361 159.215 11.942 159.298 12.0503C159.381 12.1586 159.46 12.2687 159.537 12.381C159.614 12.493 159.688 12.6072 159.759 12.7232C159.831 12.8392 159.899 12.9569 159.964 13.0764C160.029 13.196 160.091 13.3169 160.15 13.4395C160.209 13.5621 160.265 13.6861 160.318 13.8116C160.371 13.937 160.42 14.0636 160.467 14.1916C160.513 14.3196 160.556 14.4485 160.596 14.5786C160.636 14.709 160.672 14.84 160.705 14.972C160.738 15.1038 160.768 15.2365 160.794 15.3701C161.261 17.639 160.887 19.9858 159.588 21.9211C158.157 24.0548 155.962 25.1254 153.509 25.6094C151.261 25.644 149.357 25.244 147.536 23.8566C145.725 22.4777 144.579 20.3223 144.298 18.0751C144.026 15.8958 144.576 13.6824 145.942 11.9481C147.454 10.0285 149.64 9.0111 152.028 8.73701Z" fill="white"/>
<path d="M152.326 13.3164C153.131 13.3145 153.863 13.4625 154.555 13.8897C154.665 13.9578 154.771 14.0314 154.874 14.11C154.977 14.1887 155.075 14.2723 155.17 14.3609C155.264 14.4494 155.354 14.5427 155.439 14.6401C155.524 14.7376 155.604 14.8393 155.679 14.945C155.754 15.0504 155.824 15.1597 155.888 15.2722C155.952 15.3847 156.01 15.5002 156.062 15.6186C156.115 15.737 156.161 15.8577 156.201 15.9808C156.242 16.1036 156.276 16.2283 156.304 16.3549C156.54 17.4259 156.344 18.6648 155.729 19.5806C155.029 20.6217 154.075 20.9491 152.902 21.1532C151.964 21.1554 151.143 21.0821 150.32 20.5748C150.213 20.5078 150.109 20.4357 150.01 20.3585C149.911 20.2809 149.815 20.1985 149.724 20.1111C149.633 20.0238 149.547 19.9319 149.465 19.8356C149.384 19.7396 149.308 19.6393 149.236 19.535C149.165 19.431 149.1 19.3234 149.04 19.2125C148.98 19.1014 148.925 18.9878 148.877 18.8713C148.829 18.7548 148.787 18.6362 148.751 18.5152C148.715 18.3943 148.685 18.2719 148.662 18.1479C148.636 18.0128 148.616 17.8771 148.603 17.7402C148.591 17.6032 148.585 17.4658 148.586 17.3284C148.587 17.1908 148.595 17.0536 148.61 16.9169C148.625 16.7803 148.647 16.6447 148.676 16.5102C148.704 16.3756 148.74 16.2429 148.782 16.1121C148.824 15.9812 148.873 15.8528 148.928 15.7266C148.983 15.6005 149.044 15.4777 149.112 15.3579C149.179 15.2381 149.253 15.1221 149.332 15.0096C150.066 13.9708 151.099 13.5027 152.326 13.3164Z" fill="black" fill-opacity="0.5"/>
<path d="M152.146 14.4805C152.631 14.4812 153.13 14.5023 153.579 14.7041C153.664 14.7412 153.746 14.7825 153.827 14.8278C153.907 14.8732 153.985 14.9225 154.061 14.9758C154.137 15.0291 154.209 15.086 154.279 15.1463C154.349 15.2069 154.416 15.2708 154.479 15.338C154.543 15.4051 154.603 15.4754 154.659 15.5486C154.716 15.6219 154.768 15.6978 154.817 15.7762C154.866 15.8547 154.91 15.9355 154.951 16.0186C154.992 16.1015 155.028 16.1863 155.061 16.273C155.094 16.3634 155.123 16.4555 155.147 16.5492C155.172 16.6427 155.191 16.7371 155.205 16.8327C155.22 16.9283 155.23 17.0243 155.234 17.1209C155.239 17.2174 155.238 17.3137 155.233 17.4102C155.228 17.5067 155.217 17.6028 155.202 17.6982C155.187 17.7935 155.167 17.8879 155.142 17.9814C155.117 18.0746 155.087 18.1665 155.053 18.2567C155.018 18.3471 154.979 18.4354 154.936 18.5216C154.515 19.3547 153.91 19.6957 153.057 20.0003C152.377 20.0165 151.837 19.9935 151.225 19.6666C150.572 19.318 150.063 18.7372 149.854 18.0225C149.655 17.3414 149.761 16.5898 150.103 15.9721C150.548 15.1682 151.287 14.7252 152.146 14.4805Z" fill="white"/>
<path d="M161.961 19.4375C163.79 20.4789 165.358 21.9405 166.938 23.3182C169.377 25.4543 171.774 27.6367 174.128 29.8654C176.167 31.7269 178.162 33.6343 180.114 35.5875C181.039 36.5091 182.019 37.4136 182.839 38.4308C180.385 39.3052 178.702 40.7827 177.225 42.9022C176.966 43.3994 176.776 43.9483 176.566 44.4685C170.237 38.1318 163.799 32.032 157.938 25.2392C160.05 23.7147 161.267 21.9306 161.961 19.4375Z" fill="white"/>
<path d="M121.725 73.9313C124.607 73.8698 127.504 73.8315 130.385 73.8989C130.513 79.1688 130.414 84.4672 130.421 89.7402L120.798 89.7242L112.044 89.7454C112.02 84.5008 111.897 79.2318 112.003 73.9888L121.725 73.9313Z" fill="url(#paint0_linear_793_48334)"/>
<path d="M113.658 77.3522C113.599 77.3433 113.54 77.3369 113.482 77.3259C113.079 77.2507 112.68 77.1082 112.474 76.7237C112.281 76.3641 112.223 75.9627 112.394 75.5804C112.53 75.2774 112.759 75.0813 113.059 74.9516C113.484 74.7677 113.995 74.9533 114.398 75.1066C114.57 75.543 114.776 76.0541 114.581 76.5215C114.388 76.9816 114.099 77.1598 113.658 77.3522Z" fill="black" fill-opacity="0.5"/>
<path d="M113.355 75.4336C113.598 75.5134 113.752 75.6142 113.954 75.7692C114.036 76.1506 113.953 76.239 113.805 76.5901C113.445 76.4926 113.291 76.4816 113.02 76.2162C113.034 75.8641 113.169 75.7274 113.355 75.4336Z" fill="white"/>
<path d="M114.403 75.1065C114.432 75.0191 114.491 74.8321 114.539 74.7579C114.7 74.5106 115.058 74.5573 115.314 74.5409C118.585 74.3314 121.963 74.5747 125.242 74.6217C125.908 74.6313 127.361 74.4883 127.935 74.6325C128.015 74.6525 128.058 74.7412 128.12 74.7955C128.575 74.9045 129.198 75.013 129.45 75.4674C129.692 75.9036 129.486 76.4445 129.351 76.8764C129.374 79.2159 129.323 81.5564 129.357 83.8954C129.382 85.5348 129.557 87.2214 129.42 88.8535C127.286 89.0726 115.281 89.2213 113.779 88.7476C113.538 88.4862 113.442 88.2694 113.397 87.9208C113.188 86.3404 113.385 84.3569 113.379 82.7422C113.375 81.4105 113.187 78.9954 113.367 77.7572C113.39 77.6024 113.416 77.5594 113.471 77.4319L113.662 77.352C114.104 77.1597 114.393 76.9814 114.585 76.5213C114.781 76.0539 114.574 75.5428 114.403 75.1065Z" fill="white"/>
<path d="M128.116 74.7969C128.572 74.9059 129.195 75.0144 129.447 75.4688C129.689 75.905 129.483 76.4459 129.348 76.8778C128.921 77.0772 128.509 77.283 128.025 77.1996C127.669 77.138 127.333 76.9548 127.146 76.6347C126.986 76.3606 126.983 76.0649 127.083 75.7713C127.264 75.2427 127.645 75.0421 128.116 74.7969Z" fill="black" fill-opacity="0.5"/>
<path d="M128.161 75.4414C128.444 75.556 128.658 75.6145 128.816 75.8954C128.838 76.2451 128.667 76.4422 128.482 76.7174C128.144 76.5683 127.92 76.468 127.715 76.1606C127.782 75.7916 127.911 75.7117 128.161 75.4414Z" fill="white"/>
<path d="M179.267 54.9258C180.761 56.0588 182.367 56.85 184.24 57.1171C187.152 57.5323 189.373 56.6553 191.675 54.9483L191.699 78.0429L191.682 80.2363C190.178 80.3826 188.614 80.3128 187.103 80.314L179.278 80.3157C179.176 71.8595 179.241 63.3838 179.267 54.9258Z" fill="white"/>
<path d="M19.0558 141.808L124.74 141.83L178.28 141.796L197.34 141.791C200.745 141.791 204.178 141.687 207.579 141.828L207.583 143.666C203.931 143.744 200.265 143.674 196.611 143.673L8.06681 143.716L8.05859 141.854C11.7075 141.709 15.4029 141.818 19.0558 141.808Z" fill="white"/>
<path d="M151.6 90.8398L202.074 90.903C202.096 92.4696 202.109 94.0362 202.113 95.603L65.0499 95.5992L14.2643 95.5994C14.2502 94.0721 14.2591 92.5447 14.2911 91.0174C20.0195 90.7515 25.8343 90.9232 31.5721 90.923L61.4219 90.9195L151.6 90.8398Z" fill="white"/>
<path d="M108.653 96.7971C118.929 96.5521 129.437 96.7938 139.739 96.7969L195.549 96.7767C195.484 111.357 195.495 125.936 195.582 140.516C192.534 140.745 189.34 140.562 186.277 140.564L167.616 140.576L108.712 140.562C108.599 134.626 108.68 128.674 108.686 122.737L108.653 96.7971Z" fill="white"/>
<path d="M20.6207 96.7773L107.416 96.7975L107.484 140.566L20.6203 140.544C20.4382 134.467 20.5886 128.34 20.6081 122.258L20.6207 96.7773Z" fill="white"/>
<defs>
<linearGradient id="paint0_linear_793_48334" x1="120.236" y1="90.3958" x2="122.202" y2="73.2209" gradientUnits="userSpaceOnUse">
<stop stop-color="#C1BFBF"/>
<stop offset="1" stop-color="#E5E4E5"/>
</linearGradient>
</defs>
</svg>
