<svg width="188" height="127" viewBox="0 0 188 127" fill="none" xmlns="http://www.w3.org/2000/svg">
<path d="M134.307 0.242832C134.508 0.227875 134.71 0.214872 134.912 0.204251C137.321 0.0807006 139.664 0.848877 141.448 2.49123C143.62 4.49035 144.187 6.94661 144.293 9.79129C146.03 10.7218 147.623 12.3338 149.116 13.6237C154.524 18.2503 159.674 23.1473 164.568 28.3147C166.882 28.2876 168.94 28.5252 170.892 29.8738C172.705 31.1264 174.175 33.2424 174.554 35.4262C175.042 38.2397 174.25 40.6229 172.628 42.8968C172.567 45.9986 172.646 49.104 172.653 52.2064L172.613 67.2828C174.247 67.3071 176.963 66.9832 178.438 67.3942C179.056 68.1067 178.807 74.6002 178.807 75.9842C179.674 75.9801 180.678 75.8765 181.533 76.0156C181.767 76.0538 181.916 76.0666 182.03 76.2922C182.46 77.1412 182.314 81.3766 181.961 82.3106C181.423 82.7311 177.007 82.5094 176.162 82.5104L176.262 122.891L182.895 122.889C184.093 122.888 185.569 122.731 186.736 123.005C186.978 123.062 187.096 123.082 187.205 123.317C187.415 123.771 187.371 126.217 187.144 126.736C186.811 126.887 186.404 126.889 186.041 126.9C180.908 127.063 175.722 126.894 170.583 126.891L140.17 126.89L45.2215 126.903L16.7461 126.875L7.28018 126.877C5.57693 126.877 3.83422 126.951 2.1353 126.846C1.71328 126.82 1.30448 126.825 1.01945 126.499C0.810064 125.713 0.784921 123.927 1.10745 123.189C1.32963 122.988 1.46466 122.896 1.77267 122.873C2.85037 122.791 4.01608 122.883 5.1031 122.88L12.4933 122.84L12.491 82.4933C11.4787 82.4794 7.38683 82.7634 6.8406 82.137C6.33383 81.5559 6.66503 77.146 6.68909 76.1043C8.60867 76.0113 10.5514 76.0739 12.4738 76.078C12.3958 75.744 12.3093 75.4026 12.2913 75.0589C12.2499 74.2638 12.5703 73.4373 13.1269 72.8711C14.165 71.8158 15.478 71.7941 16.8523 71.7984C17.3939 70.7309 17.8238 69.5936 18.3303 68.5066C19.4728 66.0551 20.6507 63.6509 21.5862 61.1096C20.3268 57.0366 18.0507 53.0314 16.3336 49.1038C15.9202 48.1586 15.7301 47.1314 15.3428 46.1798C14.9312 45.1686 14.1207 44.4208 13.9139 43.3085C13.7043 42.1805 14.0184 40.9578 14.6776 40.0287C15.4536 38.9352 16.7066 38.1519 18.0384 37.9644C19.3651 37.7775 20.7042 38.2236 21.7696 39.0002C23.3053 38.4959 24.9561 38.1959 26.5327 37.8228C29.2229 37.193 31.9063 36.5349 34.5826 35.8489C35.0696 34.8017 35.6811 33.8913 36.6814 33.2677C37.9267 32.4913 39.3206 32.4705 40.7052 32.7761C41.8081 33.2493 42.7501 33.8348 43.3821 34.8958C43.4214 34.9619 43.4587 35.0291 43.4942 35.0974C43.53 35.1654 43.5638 35.2344 43.5961 35.3044C43.6282 35.3744 43.6585 35.445 43.6869 35.5164C43.7155 35.5877 43.7422 35.6598 43.7669 35.7327C43.7918 35.8055 43.8148 35.8788 43.8358 35.9527C43.8568 36.0266 43.8761 36.1012 43.8932 36.1762C43.9106 36.2512 43.926 36.3266 43.9394 36.4022C43.9526 36.4779 43.9641 36.554 43.9737 36.6303C43.9832 36.7066 43.9908 36.7831 43.9964 36.8598C44.0018 36.9365 44.0055 37.0133 44.0073 37.0902C44.009 37.1672 44.0088 37.2439 44.0064 37.3208C44.004 37.3978 43.9999 37.4745 43.9936 37.551C43.9873 37.6278 43.9793 37.7043 43.9691 37.7806C43.9589 37.8567 43.947 37.9327 43.9331 38.0084C43.919 38.084 43.9032 38.1592 43.8852 38.234C43.8675 38.3088 43.8477 38.3829 43.8261 38.4568C43.4192 39.8627 42.4835 40.8305 41.2259 41.5168C41.2059 43.7556 41.2048 45.9945 41.2226 48.2333C41.9193 48.3593 42.5268 48.4802 43.0288 49.031C43.3483 49.3815 43.5315 49.7996 43.6253 50.2613C43.8178 51.2094 43.8085 53.8345 43.7112 54.8396C43.6841 55.1188 43.6186 55.2486 43.4144 55.4298C41.9496 55.5876 36.4276 55.7432 35.1509 55.3216C35.036 55.0271 34.9738 54.7598 34.9337 54.4457C34.746 52.9694 34.5282 50.3597 35.5001 49.1719C36.0654 48.4813 36.7191 48.3558 37.5538 48.2505C37.5733 46.0942 37.5504 43.9362 37.5467 41.7797C36.4217 41.3241 35.8066 40.6859 35.0434 39.7793C33.4773 40.3567 31.783 40.6935 30.1636 41.0945C27.9176 41.6509 25.6636 42.2418 23.3915 42.6801C23.3031 43.1058 23.2108 43.5415 23.0655 43.952C22.577 45.3325 21.6976 46.1904 20.4014 46.808C21.3569 48.659 22.1556 50.6079 23.0252 52.5021C24.0672 54.7717 25.1759 57.0138 26.1805 59.2997C27.3118 59.2716 28.4577 59.2791 29.5127 59.7495C30.353 60.1245 30.9675 60.7188 31.4886 61.4658C32.5659 63.0101 33.2669 65.0231 34.0539 66.7396C34.8208 68.4117 35.6774 70.0605 36.3591 71.7683C37.3854 71.7425 38.5034 71.7321 39.4567 72.1609C40.2056 72.4977 40.7919 73.0701 41.0557 73.8563C41.2196 74.3444 41.3507 75.1857 41.103 75.6636C40.974 75.9126 41.0477 75.7267 40.9567 76.0013C42.4865 76.2458 46.1436 76.0466 47.8696 76.0453C52.711 76.0421 57.5744 76.1491 62.4127 76.0072C62.491 73.7349 62.4427 71.4042 62.4312 69.1278C62.4258 68.0239 62.2833 66.7065 62.5057 65.6242C62.5569 65.3751 62.6566 65.1792 62.8395 64.9995C63.3097 64.5382 64.0243 64.5946 64.6325 64.5909C64.6163 63.2078 64.9271 61.0578 64.551 59.7874C64.3221 59.6788 64.1342 59.5932 63.9432 59.4231C63.7573 58.5016 63.9354 57.3951 64.0109 56.4589L66.1563 56.4678C66.1474 55.1903 65.9027 53.1862 66.5881 52.0766L66.7611 52.0417C67.5043 52.8812 67.2214 55.375 67.2128 56.4639C67.7401 56.5235 68.1999 56.5831 68.6078 56.9529C68.9938 57.303 69.1018 57.8245 69.0944 58.3269C69.087 58.8188 68.9186 59.0565 68.5692 59.3801C68.5525 61.1079 68.5508 62.8354 68.5642 64.5632C69.2832 64.551 69.9926 64.564 70.7108 64.6009C70.8679 65.9142 70.7753 67.3079 70.7786 68.6327L70.797 75.9859C79.4754 76.0789 88.1538 76.0822 96.8323 75.9952C96.8628 72.7394 96.8713 69.4837 96.8572 66.2279C96.8576 64.282 96.803 62.3107 96.963 60.3711C100.401 60.1947 103.907 60.3354 107.352 60.331C110.054 60.3276 112.946 60.1017 115.614 60.4425L115.674 60.5573L115.772 60.543L115.775 60.4791L115.877 60.5751C116.159 62.1462 115.984 64.0096 115.99 65.6116L116.021 75.9608L153.522 75.9202C153.529 74.3819 153.063 68.4082 154.171 67.5024C154.847 66.9499 158.013 67.2162 158.93 67.2325C159.109 62.3727 158.98 57.4651 158.955 52.6009C158.939 49.5852 159.102 46.4577 158.892 43.4556C158.822 42.4514 158.454 41.7673 157.991 40.8999C156.989 39.0282 156.961 37.2608 157.298 35.2018C155.623 33.9525 154.161 32.4033 152.649 30.9658C147.969 26.5156 143.617 21.8262 139.316 17.0151C137.473 17.8043 135.606 18.0856 133.62 17.7518C131.54 19.977 129.345 22.0938 127.164 24.2189C127.774 24.5048 128.296 24.8635 128.779 25.3304C131.007 27.4811 130.535 30.5046 130.587 33.3016C131.154 33.317 132.129 33.2424 132.566 33.6494C132.801 33.8679 132.886 34.1792 132.917 34.4861C132.973 35.0232 133.035 35.903 132.636 36.314C131.763 37.2105 128.731 36.7763 127.47 36.7523C127.395 38.3799 127.405 40.0149 127.423 41.6438C127.433 42.4352 127.544 43.3156 127.424 44.0938C127.373 44.4263 127.255 44.7432 127.017 44.9872C126.15 45.875 121.178 45.4912 119.783 45.4851C119.573 45.3505 119.339 45.194 119.17 45.0102C118.367 44.1386 118.702 38.2204 118.71 36.7412C117.524 36.7258 115.336 37.1097 114.397 36.3095C114.355 36.2741 114.316 36.2366 114.278 36.197C114.24 36.1575 114.205 36.1163 114.172 36.0732C114.138 36.0301 114.107 35.9854 114.078 35.939C114.049 35.8929 114.023 35.8452 113.999 35.7964C113.975 35.7474 113.953 35.6973 113.935 35.6462C113.916 35.595 113.899 35.543 113.886 35.4903C113.872 35.4377 113.861 35.3844 113.853 35.3304C113.845 35.2764 113.839 35.2222 113.836 35.1678C113.832 35.1011 113.831 35.0343 113.834 34.9673C113.837 34.9003 113.843 34.8338 113.853 34.7677C113.863 34.7016 113.876 34.6359 113.893 34.5711C113.909 34.5063 113.93 34.4428 113.953 34.3801C113.977 34.3175 114.004 34.2561 114.034 34.1963C114.064 34.1365 114.097 34.0784 114.133 34.0223C114.169 33.9661 114.209 33.9119 114.251 33.8597C114.293 33.8077 114.337 33.758 114.385 33.7106C114.867 33.2196 115.443 33.2675 116.077 33.2534C116.109 31.5209 115.85 29.5099 116.384 27.8389C116.961 26.0362 118.384 25.007 119.989 24.2013C119.852 23.7971 119.734 23.3842 119.672 22.9606C119.559 22.1853 119.719 21.281 120.149 20.619C120.707 19.7585 121.747 19.4371 122.441 18.7075C124.215 16.8412 125.87 14.6995 127.413 12.6381C127.094 11.8255 126.824 11.0138 126.689 10.15C126.336 7.88689 126.789 5.61379 128.16 3.75555C129.67 1.70961 131.829 0.608713 134.307 0.242832Z" fill="black"/>
<path d="M36.0078 53.4935C36.2725 53.4883 36.473 53.4965 36.7329 53.5622C36.9329 53.8693 36.8729 54.142 36.877 54.5038C36.6407 54.5116 36.4331 54.4895 36.1999 54.4517C35.9666 54.1539 36.026 53.8656 36.0078 53.4935Z" fill="white"/>
<path d="M37.9545 53.4987C38.2389 53.4877 38.4537 53.4818 38.732 53.5562C38.9258 53.8668 38.8675 54.2012 38.8707 54.5617C38.5883 54.5682 38.3733 54.5691 38.0974 54.4941C37.8914 54.1603 37.9543 53.8861 37.9545 53.4987Z" fill="white"/>
<path d="M65.077 57.4333C65.9433 57.4542 67.1615 57.1138 67.8978 57.6377C68.0851 57.9243 68.0654 58.1491 68.0608 58.4761C67.1396 58.5149 66.0894 58.7831 65.2302 58.4009C65.0124 58.0582 65.0733 57.8335 65.077 57.4333Z" fill="white"/>
<path d="M65.7233 59.7109L67.523 59.712L67.5066 64.5276L65.7218 64.5511C65.7016 62.9378 65.7021 61.3242 65.7233 59.7109Z" fill="white"/>
<path d="M40.0417 41.8867L40.1416 42.0341C40.1482 43.0893 40.3593 47.4406 40.038 48.1533C39.634 48.3475 39.2096 48.328 38.7698 48.3456C38.3686 46.8935 38.6287 43.5796 38.6419 41.9366L40.0417 41.8867Z" fill="white"/>
<path d="M120.276 42.7396C122.287 42.696 124.299 42.6761 126.311 42.6802C126.346 43.1222 126.464 43.7698 126.25 44.1702C126.162 44.3356 126.02 44.3377 125.854 44.3995C124.719 44.4054 121.519 44.6186 120.608 44.4309C120.3 44.3674 119.989 44.2112 119.851 43.9125C119.72 43.6274 119.758 43.3079 119.886 43.0316C120.001 42.7845 120.038 42.8302 120.276 42.7396Z" fill="white"/>
<path d="M119.938 36.8164L126.195 36.8249L126.194 38.5938C124.113 38.6109 122.031 38.6166 119.95 38.6103L119.938 36.8164Z" fill="white"/>
<path d="M119.926 39.7454C122.006 39.689 124.097 39.7241 126.177 39.7445L126.18 41.5371C124.101 41.6118 122.007 41.585 119.926 41.6055L119.926 39.7454Z" fill="white"/>
<path d="M122.813 19.9573C122.977 19.9512 123.137 19.946 123.301 19.9516C124.04 19.9772 124.831 20.267 125.33 20.8288C126.154 21.7555 126.057 22.8165 125.988 23.964C125.256 23.9874 124.522 23.9798 123.79 23.9844C123.111 23.988 122.283 24.0773 121.626 23.9362C121.255 23.8567 120.869 23.6271 120.701 23.276C120.474 22.802 120.646 22.2052 120.853 21.7565C121.263 20.867 121.91 20.3039 122.813 19.9573Z" fill="white"/>
<path d="M37.3818 49.4626C38.5135 49.44 41.26 49.0217 42.0717 49.841C42.7487 50.5245 42.5759 51.5861 42.5377 52.4523L40.7125 52.4547C40.4994 52.6103 36.6013 52.4889 36.031 52.4846C35.9916 51.7628 35.7653 50.5615 36.2308 49.959C36.5141 49.5926 36.9574 49.5341 37.3818 49.4626Z" fill="white"/>
<path d="M34.0393 37.1803L34.17 37.1758C34.4277 37.4571 34.46 38.4923 34.5372 38.8951C30.8651 39.9123 27.0743 40.6655 23.3557 41.5013C23.0797 41.005 22.8567 40.4704 22.6172 39.9552C26.3783 38.9194 30.2355 38.0437 34.0393 37.1803Z" fill="white"/>
<path d="M115.055 34.3643C120.624 34.2044 126.239 34.35 131.814 34.3438L131.803 35.6458C129.757 35.679 115.719 35.8101 115.132 35.5236C114.973 35.1659 115.037 34.748 115.055 34.3643Z" fill="white"/>
<path d="M127.926 13.8242C128.037 13.8914 128.002 13.8572 128.08 13.9528C129.404 15.5806 130.531 16.7036 132.55 17.3677C131.164 19.0155 129.392 20.4341 127.907 22.0167L127.216 22.7328C127.168 21.9937 127.034 21.3374 126.64 20.6988C126.004 19.6694 125.003 19.1579 123.859 18.8961C125.208 17.1993 126.59 15.5327 127.926 13.8242Z" fill="white"/>
<path d="M16.8945 46.8555C17.7975 47.1728 18.482 47.1871 19.418 47.1145C20.7545 50.3634 22.2481 53.5183 23.7557 56.689C23.9733 57.1465 25.02 58.9998 24.9871 59.4157L24.7269 59.5144L22.8598 60.1581C21.8311 58.3699 17.0109 48.612 16.8945 46.8555Z" fill="white"/>
<path d="M17.8753 39.1199C18.6972 39.0841 19.3802 39.0887 20.1445 39.4515C20.2526 39.5033 20.3578 39.5603 20.4601 39.6225C20.5624 39.6847 20.6612 39.7519 20.7568 39.8241C20.8524 39.8963 20.9443 39.973 21.0323 40.0543C21.1201 40.1356 21.2038 40.2212 21.2833 40.3109C21.3626 40.4005 21.4374 40.4939 21.5074 40.5912C21.5774 40.6883 21.6427 40.7887 21.7027 40.8923C21.7628 40.9959 21.8174 41.1023 21.8668 41.2113C21.9162 41.3206 21.96 41.432 21.9984 41.5454C22.0348 41.6546 22.0656 41.7656 22.0905 41.8781C22.1154 41.9906 22.1347 42.1039 22.1482 42.2184C22.1616 42.3326 22.1692 42.4475 22.1709 42.5626C22.1727 42.6779 22.1685 42.793 22.1586 42.9077C22.1484 43.0223 22.1326 43.1363 22.1109 43.2495C22.0892 43.3626 22.0619 43.4743 22.0287 43.5846C21.9956 43.6949 21.957 43.8033 21.913 43.9097C21.8688 44.0161 21.8193 44.1202 21.7645 44.2214C21.1999 45.2514 20.3179 45.6982 19.2495 46.0352C18.5908 46.0881 17.9945 46.0454 17.3739 45.8007C17.2614 45.7562 17.1515 45.7064 17.044 45.6511C16.9367 45.5958 16.8323 45.5352 16.731 45.4693C16.6296 45.4036 16.5318 45.3327 16.4375 45.2571C16.3433 45.1814 16.2531 45.1012 16.1668 45.0165C16.0808 44.9317 15.9991 44.8431 15.9217 44.7501C15.8443 44.6571 15.7719 44.5606 15.7045 44.4603C15.6369 44.3601 15.5744 44.2567 15.5172 44.1503C15.46 44.0439 15.4082 43.9349 15.362 43.8232C15.0068 42.979 14.997 42.0745 15.3768 41.2369C15.8723 40.1447 16.7742 39.5064 17.8753 39.1199Z" fill="white"/>
<path d="M18.5224 41.2891C18.6199 41.3079 18.7172 41.3285 18.8141 41.3508C19.261 41.4553 19.6482 41.6365 19.8838 42.0518C20.0613 42.3648 20.0693 42.7303 19.9479 43.0649C19.7531 43.602 19.3465 43.8205 18.8605 44.0629C18.5932 44.0395 18.3249 44.0184 18.0789 43.9027C17.7251 43.736 17.3985 43.3983 17.2953 43.0138C17.2053 42.6789 17.2368 42.3533 17.4056 42.0501C17.6588 41.5956 18.0472 41.4354 18.5224 41.2891Z" fill="black"/>
<path d="M38.5988 33.7099C39.4816 33.6555 40.2067 33.6989 40.997 34.1424C41.8334 34.6121 42.4854 35.4236 42.7386 36.3517C42.7681 36.4634 42.7919 36.5763 42.8103 36.6903C42.8288 36.8046 42.8413 36.9192 42.8485 37.0343C42.8556 37.1496 42.8569 37.2649 42.8526 37.3805C42.8485 37.496 42.8385 37.6109 42.8229 37.7253C42.8073 37.8398 42.7861 37.9531 42.7594 38.0656C42.7327 38.1781 42.7004 38.2889 42.6627 38.3981C42.6252 38.5072 42.5823 38.6142 42.534 38.7194C42.4859 38.8245 42.4327 38.9268 42.3744 39.0265C41.7916 40.0327 40.855 40.5583 39.7558 40.8351C38.9924 40.885 38.3352 40.8568 37.6225 40.5462C36.7362 40.1599 36.019 39.4398 35.7004 38.5195C35.3902 37.6239 35.4886 36.6398 35.9223 35.8034C36.4982 34.6921 37.4481 34.0921 38.5988 33.7099Z" fill="white"/>
<path d="M38.6163 35.8775C38.861 35.8486 39.1146 35.8137 39.3611 35.8272C39.7837 35.8502 40.1873 36.0669 40.4522 36.3957C40.6742 36.6712 40.7667 37.0111 40.7058 37.3616C40.6033 37.9496 40.1982 38.28 39.733 38.6012C39.5132 38.6413 39.3463 38.6662 39.1207 38.6424C38.6726 38.5949 38.1979 38.2958 37.9565 37.9184C37.7627 37.6154 37.7053 37.2122 37.7844 36.8635C37.8967 36.3691 38.2116 36.1421 38.6163 35.8775Z" fill="black"/>
<path d="M38.7618 36.6869C39.1301 36.6743 39.36 36.686 39.6371 36.9318C39.717 37.255 39.6555 37.423 39.5464 37.7217C39.2124 37.7837 39.1045 37.7928 38.8266 37.6079C38.6922 37.2791 38.7276 37.0289 38.7618 36.6869Z" fill="white"/>
<path d="M63.4638 65.6716L69.7417 65.668C69.7989 69.099 69.743 72.5384 69.7349 75.9703C68.5872 75.9783 64.3358 76.1951 63.5477 75.8725L63.4768 75.6458C63.4658 75.4471 63.4298 75.2021 63.459 75.0068C63.57 74.2612 64.6473 74.668 65.1172 74.3548C65.2128 74.0967 65.2223 73.9586 65.1844 73.6864C64.8846 73.4865 64.4158 73.6038 64.0638 73.5771C63.7586 73.5541 63.6563 73.5249 63.4465 73.3036C63.4098 73.0257 63.4909 72.8666 63.5908 72.613C63.9535 72.3366 64.6065 72.5883 65.0784 72.3884C65.2637 72.1459 65.2635 72.1088 65.2854 71.8017C64.887 71.2143 64.1483 71.6851 63.5949 71.389C63.5048 71.0935 63.4339 70.8831 63.4926 70.5694C63.7378 70.3232 63.9422 70.3269 64.2823 70.3193C64.5333 70.3134 64.7659 70.3408 64.9969 70.2239C65.1259 70.1589 65.213 69.9881 65.2373 69.8502C65.2832 69.5873 65.2124 69.4529 65.0771 69.2501C64.7075 69.1011 64.3466 69.2722 63.9639 69.2572C63.72 69.2479 63.7319 69.2594 63.552 69.0734C63.5345 68.7654 63.5004 68.5311 63.6576 68.2504C63.9951 68.031 64.382 68.1721 64.7617 68.1572C64.8911 68.152 64.9932 68.1815 65.0769 68.0646C65.2301 67.8511 65.2317 67.5483 65.1718 67.3025C65.063 66.8554 63.9805 67.1751 63.5845 66.9397C63.4005 66.5402 63.4558 66.1023 63.4638 65.6716Z" fill="white"/>
<path d="M15.1245 72.9393C19.2365 72.7078 23.9394 72.9103 28.1091 72.9066L34.3744 72.8871C35.5314 72.8832 36.7277 72.8155 37.8789 72.9213C38.3209 72.9618 38.7563 73.1326 39.127 73.3752C39.5388 73.6448 39.8745 74.0413 39.9582 74.5379C40.0135 74.8667 39.9747 75.373 39.7347 75.6234C39.4248 75.9465 38.848 75.8932 38.4422 75.9043C32.9165 75.8586 27.3906 75.8429 21.8644 75.8579L16.6671 75.8768C15.7819 75.88 14.8082 75.9565 13.9325 75.8523C13.6789 75.8221 13.5285 75.6942 13.3391 75.5399C13.207 75.2269 13.1845 75.0327 13.3074 74.7084C13.6538 73.7948 14.2681 73.3234 15.1245 72.9393Z" fill="white"/>
<path d="M121.071 25.172C121.947 25.1215 122.835 25.1262 123.713 25.1158C125.351 25.0961 127.02 25.0443 128.262 26.3171C129.941 28.0386 129.493 31.0928 129.463 33.3174L125.869 33.3167L117.206 33.3198C117.179 31.3267 116.801 28.7096 118.007 27.0033C118.762 25.9347 119.806 25.3903 121.071 25.172Z" fill="white"/>
<path d="M26.141 60.4961C27.0776 60.4051 27.9771 60.3418 28.8727 60.707C29.5908 60.9997 30.1 61.5262 30.5476 62.1443C31.8592 63.9553 34.0265 69.4698 35.0606 71.8278L27.2018 71.8378L18.0898 71.8272C18.8186 69.9271 21.6886 63.5402 22.7943 62.0659C23.673 60.8941 24.7717 60.6947 26.141 60.4961Z" fill="white"/>
<path d="M25.9634 62.1073C26.5922 62.026 27.1976 62.028 27.7982 62.2581C28.5861 62.5603 29.2305 63.1503 29.5357 63.9445C29.5689 64.0316 29.5977 64.1201 29.622 64.21C29.6461 64.3 29.6658 64.391 29.681 64.4829C29.6959 64.5748 29.7063 64.6674 29.7122 64.7604C29.718 64.8533 29.7191 64.9466 29.7154 65.0395C29.7117 65.1325 29.7035 65.2253 29.6905 65.3176C29.6775 65.4098 29.6599 65.5012 29.6378 65.5918C29.6155 65.6822 29.5888 65.7713 29.5578 65.8591C29.5266 65.9469 29.4911 66.0329 29.4512 66.1172C29.0567 66.9494 28.3776 67.421 27.5366 67.731C26.8783 67.8383 26.2554 67.8491 25.6244 67.5998C25.5349 67.5654 25.4473 67.5264 25.3617 67.483C25.2761 67.4397 25.1931 67.392 25.1122 67.3402C25.0314 67.2884 24.9535 67.2327 24.8785 67.1731C24.8033 67.1134 24.7314 67.0501 24.6627 66.9832C24.5939 66.9162 24.5287 66.8458 24.4671 66.7723C24.4056 66.6988 24.3479 66.6225 24.294 66.543C24.24 66.4636 24.1903 66.3817 24.1446 66.2974C24.0989 66.213 24.0577 66.1266 24.0208 66.0379C23.984 65.951 23.9515 65.8623 23.9233 65.7724C23.8951 65.6822 23.8715 65.591 23.8524 65.4984C23.8333 65.4059 23.8188 65.3127 23.8089 65.2188C23.7989 65.1249 23.7937 65.0306 23.793 64.9364C23.7924 64.8419 23.7965 64.7476 23.8052 64.6535C23.8138 64.5596 23.8271 64.4662 23.8451 64.3735C23.863 64.2807 23.8854 64.189 23.9125 64.0986C23.9396 64.0082 23.9708 63.9191 24.0065 63.8318C24.3865 62.9225 25.0858 62.4704 25.9634 62.1073Z" fill="black"/>
<path d="M26.1676 63.2898C26.5447 63.2601 26.9336 63.2285 27.3012 63.3399C27.733 63.4708 28.1205 63.7749 28.3354 64.1735C28.3601 64.2193 28.3822 64.2661 28.4019 64.314C28.4216 64.3619 28.439 64.4107 28.4537 64.4605C28.4682 64.5102 28.4804 64.5607 28.4897 64.6116C28.499 64.6625 28.5057 64.7139 28.5098 64.7657C28.514 64.8173 28.5153 64.8691 28.514 64.9209C28.5124 64.9727 28.5083 65.0245 28.5016 65.0759C28.4949 65.1273 28.4856 65.1782 28.4734 65.2287C28.4613 65.2792 28.4465 65.3288 28.4294 65.3776C28.2159 65.9967 27.8026 66.3081 27.2384 66.5912C26.9158 66.6185 26.6182 66.6257 26.302 66.5429C25.8197 66.4165 25.3842 66.0972 25.1378 65.6607C25.1116 65.6145 25.0875 65.5673 25.066 65.5187C25.0446 65.4699 25.0257 65.4205 25.0093 65.37C24.993 65.3195 24.9791 65.2681 24.9681 65.2163C24.957 65.1645 24.9486 65.1121 24.9427 65.0592C24.9369 65.0065 24.9338 64.9534 24.9336 64.9003C24.9334 64.8472 24.9358 64.7943 24.9408 64.7414C24.946 64.6885 24.9538 64.6361 24.9642 64.5841C24.9748 64.532 24.9878 64.4807 25.0036 64.43C25.2013 63.8148 25.6192 63.5684 26.1676 63.2898Z" fill="white"/>
<path d="M154.638 68.3944C157.444 68.309 160.27 68.3775 163.078 68.3778L177.663 68.3561C177.691 70.8702 177.769 73.4082 177.666 75.9197C175.005 75.9852 172.327 75.9173 169.664 75.9121L154.681 75.8989C154.543 73.4186 154.58 70.8784 154.638 68.3944Z" fill="white"/>
<path d="M165.37 29.3904C167.053 29.2337 168.797 29.7652 170.173 30.7293C171.851 31.9044 173.109 33.6731 173.453 35.7099C173.79 37.7043 173.357 39.9572 172.173 41.6132C170.833 43.4879 168.817 44.5045 166.589 44.8723C164.684 44.9129 162.991 44.5609 161.412 43.4396C159.729 42.2446 158.541 40.2784 158.201 38.2481C158.182 38.1263 158.166 38.004 158.152 37.8814C158.139 37.7587 158.129 37.6358 158.122 37.5127C158.115 37.3895 158.111 37.2662 158.11 37.1429C158.109 37.0195 158.111 36.8964 158.116 36.7731C158.121 36.6498 158.129 36.5269 158.141 36.404C158.152 36.2811 158.166 36.1584 158.184 36.0363C158.201 35.9143 158.221 35.7927 158.245 35.6715C158.269 35.5504 158.295 35.4301 158.325 35.3102C158.354 35.1903 158.387 35.0716 158.422 34.9534C158.458 34.8353 158.496 34.718 158.537 34.6019C158.579 34.4855 158.623 34.3704 158.67 34.2564C158.717 34.1423 158.767 34.0296 158.82 33.918C158.872 33.8064 158.928 33.6963 158.986 33.5877C159.044 33.4789 159.105 33.3716 159.169 33.2658C159.232 33.1602 159.298 33.0562 159.367 32.9537C159.436 32.8511 159.507 32.7506 159.581 32.6517C161.005 30.7124 163.032 29.7333 165.37 29.3904Z" fill="white"/>
<path d="M165.181 33.6112C166.056 33.5533 166.839 33.5908 167.631 34.0106C167.735 34.0655 167.836 34.1255 167.933 34.1908C168.031 34.256 168.125 34.3262 168.216 34.401C168.306 34.476 168.393 34.5553 168.475 34.639C168.557 34.7229 168.635 34.8107 168.709 34.9024C168.782 34.994 168.85 35.0894 168.914 35.188C168.978 35.2869 169.036 35.3888 169.089 35.4935C169.142 35.5981 169.19 35.7054 169.232 35.8149C169.274 35.9246 169.311 36.0362 169.342 36.1496C169.61 37.1154 169.49 38.1771 168.963 39.0354C168.381 39.985 167.484 40.453 166.437 40.7235C165.64 40.7764 164.958 40.7575 164.23 40.3875C164.173 40.3579 164.116 40.3269 164.061 40.2943C164.005 40.2618 163.95 40.2278 163.896 40.1925C163.842 40.1571 163.789 40.1203 163.737 40.0821C163.684 40.044 163.634 40.0045 163.583 39.9636C163.533 39.9228 163.484 39.8808 163.437 39.8374C163.389 39.7941 163.342 39.7494 163.296 39.7037C163.251 39.658 163.207 39.6109 163.163 39.5628C163.12 39.5149 163.078 39.4657 163.038 39.4154C162.997 39.3651 162.958 39.3138 162.92 39.2615C162.882 39.2093 162.846 39.156 162.811 39.1018C162.775 39.0476 162.742 38.9925 162.71 38.9366C162.677 38.8807 162.646 38.8239 162.617 38.7662C162.588 38.7088 162.56 38.6505 162.534 38.5915C162.507 38.5326 162.483 38.473 162.459 38.4127C162.436 38.3522 162.415 38.2913 162.395 38.23C162.374 38.1686 162.356 38.1069 162.339 38.0444C162.307 37.9313 162.281 37.8168 162.26 37.7013C162.239 37.5856 162.224 37.4692 162.214 37.3519C162.205 37.2346 162.201 37.1174 162.204 36.9999C162.206 36.8822 162.214 36.7652 162.228 36.6483C162.242 36.5315 162.262 36.4157 162.287 36.3011C162.312 36.1864 162.343 36.0731 162.38 35.9612C162.416 35.8496 162.458 35.7399 162.506 35.6324C162.553 35.5247 162.606 35.4198 162.664 35.3174C163.243 34.3117 164.112 33.8999 165.181 33.6112Z" fill="black"/>
<path d="M165.361 34.5819C165.841 34.547 166.291 34.5589 166.742 34.7481C166.826 34.783 166.908 34.822 166.988 34.8652C167.068 34.9085 167.145 34.9558 167.22 35.0071C167.295 35.0585 167.367 35.1136 167.436 35.1723C167.505 35.231 167.571 35.2933 167.634 35.3589C167.697 35.4246 167.756 35.4935 167.812 35.5653C167.867 35.637 167.919 35.7116 167.967 35.7888C168.014 35.8661 168.058 35.9455 168.098 36.0272C168.137 36.1089 168.172 36.1926 168.203 36.278C168.233 36.3564 168.258 36.436 168.279 36.5168C168.3 36.5977 168.318 36.6794 168.331 36.762C168.344 36.8446 168.353 36.9278 168.358 37.0113C168.363 37.0947 168.365 37.1782 168.362 37.2618C168.358 37.3453 168.351 37.4285 168.34 37.5115C168.329 37.5943 168.313 37.6765 168.294 37.7578C168.275 37.8393 168.251 37.9194 168.224 37.9986C168.197 38.0777 168.166 38.1551 168.131 38.2311C167.749 39.0498 167.102 39.438 166.285 39.743C165.894 39.7675 165.491 39.7645 165.114 39.6446C165.026 39.6175 164.94 39.5856 164.855 39.5494C164.77 39.5132 164.687 39.4727 164.607 39.4278C164.526 39.383 164.448 39.3342 164.373 39.2811C164.298 39.228 164.225 39.1712 164.156 39.1107C164.086 39.0503 164.02 38.9861 163.957 38.9187C163.894 38.8513 163.835 38.7806 163.78 38.7069C163.724 38.6334 163.673 38.5571 163.626 38.478C163.578 38.3989 163.535 38.3176 163.496 38.2342C163.198 37.5885 163.16 36.8164 163.442 36.1588C163.825 35.2664 164.51 34.9168 165.361 34.5819Z" fill="white"/>
<path d="M134.891 1.21668C136.532 1.13084 138.285 1.62266 139.667 2.5029C139.773 2.57009 139.877 2.63988 139.98 2.71228C140.082 2.78468 140.183 2.85968 140.282 2.93727C140.381 3.01465 140.477 3.09464 140.572 3.17722C140.667 3.25959 140.76 3.34434 140.85 3.43147C140.94 3.51861 141.029 3.60791 141.114 3.6996C141.2 3.79129 141.284 3.88492 141.365 3.98095C141.446 4.07675 141.525 4.17451 141.601 4.27443C141.677 4.37435 141.751 4.47601 141.822 4.57962C141.893 4.68301 141.961 4.78835 142.027 4.89543C142.092 5.00251 142.155 5.1111 142.215 5.22143C142.276 5.33176 142.333 5.44339 142.387 5.55653C142.442 5.66968 142.493 5.78412 142.542 5.89987C142.591 6.01562 142.637 6.13245 142.679 6.25058C142.722 6.36871 142.762 6.48771 142.799 6.60779C142.835 6.72809 142.869 6.84904 142.899 6.97085C142.93 7.09245 142.957 7.21492 142.982 7.33825C143.412 9.4321 143.067 11.5979 141.869 13.384C140.548 15.3532 138.522 16.3411 136.258 16.7879C134.184 16.8197 132.426 16.4506 130.745 15.1702C129.075 13.8977 128.017 11.9085 127.758 9.83461C127.506 7.82335 128.015 5.78066 129.275 4.18014C130.67 2.40861 132.688 1.46963 134.891 1.21668Z" fill="white"/>
<path d="M135.166 5.44533C135.909 5.44359 136.585 5.58015 137.223 5.97442C137.325 6.03728 137.423 6.10513 137.518 6.17774C137.613 6.25035 137.704 6.32752 137.791 6.40923C137.878 6.49095 137.961 6.577 138.04 6.66696C138.118 6.75691 138.192 6.85076 138.261 6.9483C138.33 7.04562 138.394 7.14642 138.453 7.25024C138.513 7.35407 138.566 7.46071 138.615 7.56996C138.663 7.6792 138.706 7.79061 138.743 7.90419C138.78 8.01755 138.812 8.13265 138.838 8.24948C139.056 9.23788 138.874 10.3813 138.307 11.2264C137.661 12.1873 136.781 12.4894 135.698 12.6778C134.833 12.6797 134.075 12.6121 133.315 12.1439C133.216 12.0821 133.121 12.0156 133.029 11.9443C132.937 11.8727 132.849 11.7967 132.765 11.716C132.681 11.6354 132.602 11.5506 132.527 11.4618C132.451 11.3731 132.381 11.2806 132.315 11.1843C132.249 11.0883 132.189 10.989 132.134 10.8867C132.078 10.7842 132.028 10.6793 131.984 10.5718C131.939 10.4643 131.9 10.3548 131.867 10.2432C131.834 10.1316 131.807 10.0186 131.785 9.90418C131.761 9.77955 131.743 9.65427 131.731 9.5279C131.719 9.40153 131.714 9.27472 131.715 9.14792C131.716 9.02091 131.723 8.89432 131.737 8.76817C131.751 8.64202 131.771 8.51696 131.798 8.39276C131.824 8.26856 131.857 8.14609 131.896 8.02536C131.935 7.90462 131.979 7.78606 132.03 7.66966C132.081 7.55326 132.138 7.4399 132.2 7.32936C132.262 7.21881 132.33 7.11174 132.403 7.00791C133.081 6.04921 134.034 5.61721 135.166 5.44533Z" fill="black"/>
<path d="M135.001 6.51953C135.448 6.52018 135.909 6.53969 136.323 6.72588C136.401 6.76013 136.477 6.79828 136.552 6.84011C136.626 6.88195 136.698 6.92746 136.768 6.97666C136.838 7.02587 136.905 7.07832 136.969 7.13403C137.034 7.18995 137.095 7.24891 137.154 7.3109C137.212 7.37289 137.268 7.4377 137.32 7.50533C137.372 7.57296 137.421 7.64297 137.465 7.71536C137.51 7.78776 137.552 7.86232 137.589 7.93905C137.627 8.01557 137.661 8.09382 137.69 8.1738C137.721 8.25725 137.748 8.34222 137.771 8.4287C137.793 8.51497 137.811 8.6021 137.824 8.69032C137.838 8.77854 137.846 8.8672 137.851 8.95628C137.855 9.04537 137.854 9.13424 137.849 9.22333C137.844 9.31241 137.835 9.40107 137.821 9.48907C137.807 9.57707 137.789 9.66421 137.765 9.75047C137.742 9.83652 137.715 9.92128 137.683 10.0045C137.651 10.088 137.615 10.1695 137.575 10.249C137.187 11.0178 136.629 11.3326 135.842 11.6137C135.214 11.6286 134.715 11.6074 134.151 11.3057C133.548 10.984 133.078 10.448 132.885 9.7884C132.702 9.15981 132.799 8.4662 133.115 7.89614C133.526 7.15419 134.208 6.74539 135.001 6.51953Z" fill="white"/>
<path d="M144.057 11.0938C145.745 12.0548 147.192 13.4037 148.65 14.6752C150.901 16.6466 153.113 18.6606 155.286 20.7174C157.168 22.4354 159.009 24.1957 160.81 25.9982C161.664 26.8488 162.568 27.6835 163.325 28.6222C161.06 29.4292 159.507 30.7928 158.144 32.7488C157.904 33.2077 157.73 33.7142 157.535 34.1943C151.695 28.3463 145.753 22.717 140.344 16.448C142.293 15.0411 143.416 13.3946 144.057 11.0938Z" fill="white"/>
<path d="M106.926 61.3831C109.585 61.3263 112.258 61.291 114.917 61.3532C115.036 66.2167 114.944 71.1064 114.951 75.9728L106.07 75.9581L97.9905 75.9776C97.969 71.1375 97.8554 66.2748 97.9532 61.4362L106.926 61.3831Z" fill="url(#paint0_linear_796_58875)"/>
<path d="M99.4781 64.5401C99.4239 64.5318 99.3695 64.526 99.3157 64.5158C98.9438 64.4464 98.5764 64.3149 98.3861 63.96C98.2081 63.6282 98.1543 63.2577 98.3123 62.9049C98.4376 62.6252 98.649 62.4443 98.9258 62.3246C99.3181 62.1549 99.79 62.3261 100.161 62.4677C100.32 62.8704 100.51 63.3421 100.33 63.7734C100.152 64.198 99.8853 64.3625 99.4781 64.5401Z" fill="black"/>
<path d="M99.2004 62.7695C99.4247 62.8432 99.5662 62.9362 99.7531 63.0793C99.8283 63.4313 99.7522 63.5128 99.6157 63.8368C99.2829 63.7469 99.1414 63.7367 98.8906 63.4918C98.9036 63.1668 99.0285 63.0407 99.2004 62.7695Z" fill="white"/>
<path d="M100.168 62.4704C100.196 62.3898 100.25 62.2173 100.294 62.1488C100.442 61.9205 100.773 61.9637 101.009 61.9485C104.028 61.7551 107.146 61.9797 110.171 62.0231C110.786 62.0319 112.127 61.8999 112.657 62.033C112.73 62.0514 112.771 62.1334 112.828 62.1834C113.248 62.284 113.823 62.3842 114.056 62.8036C114.279 63.2061 114.089 63.7053 113.964 64.1039C113.985 66.263 113.938 68.4229 113.97 70.5816C113.992 72.0945 114.154 73.6511 114.028 75.1573C112.058 75.3595 100.979 75.4967 99.5924 75.0595C99.37 74.8183 99.2822 74.6182 99.2399 74.2965C99.0474 72.838 99.2291 71.0075 99.2239 69.5173C99.2195 68.2883 99.0464 66.0595 99.2126 64.9167C99.2334 64.7739 99.2577 64.7342 99.3084 64.6165L99.4851 64.5428C99.8923 64.3653 100.159 64.2008 100.337 63.7762C100.517 63.3448 100.327 62.8732 100.168 62.4704Z" fill="white"/>
<path d="M112.824 62.1836C113.245 62.2842 113.82 62.3843 114.052 62.8037C114.276 63.2062 114.086 63.7054 113.961 64.104C113.567 64.2881 113.186 64.4779 112.74 64.401C112.412 64.3442 112.102 64.1751 111.929 63.8797C111.782 63.6267 111.778 63.3538 111.871 63.0829C112.037 62.595 112.389 62.4099 112.824 62.1836Z" fill="black"/>
<path d="M112.865 62.7773C113.126 62.8831 113.323 62.9371 113.469 63.1963C113.49 63.5191 113.332 63.7009 113.161 63.955C112.849 63.8173 112.643 63.7248 112.453 63.441C112.515 63.1005 112.634 63.0268 112.865 62.7773Z" fill="white"/>
<path d="M160.029 43.8438C161.408 44.8894 162.89 45.6196 164.619 45.8661C167.306 46.2493 169.356 45.4399 171.48 43.8646L171.502 65.178L171.486 67.2023C170.099 67.3373 168.656 67.2729 167.261 67.274L160.04 67.2755C159.945 59.4715 160.005 51.6495 160.029 43.8438Z" fill="white"/>
<path d="M12.1725 124.027L109.706 124.047L159.117 124.015L176.707 124.011C179.85 124.01 183.018 123.915 186.156 124.045L186.16 125.741C182.79 125.813 179.406 125.749 176.035 125.748L2.03102 125.788L2.02344 124.069C5.39093 123.935 8.80135 124.036 12.1725 124.027Z" fill="white"/>
<path d="M134.496 76.9883L181.078 77.0466C181.098 78.4923 181.11 79.9381 181.114 81.3841L54.6211 81.3806L7.75207 81.3808C7.73906 79.9713 7.7473 78.5617 7.77678 77.1521C13.0634 76.9068 18.4298 77.0652 23.7251 77.065L51.2729 77.0618L134.496 76.9883Z" fill="white"/>
<path d="M94.8603 82.4879C104.343 82.2618 114.041 82.4849 123.549 82.4877L175.054 82.469C174.994 95.9245 175.004 109.38 175.085 122.835C172.272 123.046 169.324 122.877 166.497 122.88L149.276 122.89L94.914 122.877C94.8104 117.399 94.885 111.907 94.8906 106.427L94.8603 82.4879Z" fill="white"/>
<path d="M13.6177 82.4688L93.7195 82.4874L93.7822 122.88L13.6173 122.86C13.4493 117.252 13.588 111.598 13.606 105.985L13.6177 82.4688Z" fill="white"/>
<defs>
<linearGradient id="paint0_linear_796_58875" x1="105.551" y1="76.5779" x2="107.365" y2="60.7275" gradientUnits="userSpaceOnUse">
<stop stop-color="#C1BFBF"/>
<stop offset="1" stop-color="#E5E4E5"/>
</linearGradient>
</defs>
</svg>
