<svg width="200" height="141" viewBox="0 0 200 141" fill="none" xmlns="http://www.w3.org/2000/svg">
<g clip-path="url(#clip0_796_58873)">
<path d="M199.017 2.21484H2.58203V138.779H199.017V2.21484Z" fill="white"/>
<path d="M140.307 7.24283C140.508 7.22788 140.71 7.21487 140.912 7.20425C143.321 7.0807 145.664 7.84888 147.448 9.49123C149.62 11.4904 150.187 13.9466 150.293 16.7913C152.03 17.7218 153.623 19.3338 155.116 20.6237C160.524 25.2503 165.674 30.1473 170.568 35.3147C172.882 35.2876 174.94 35.5252 176.892 36.8738C178.705 38.1264 180.175 40.2424 180.554 42.4262C181.042 45.2397 180.25 47.6229 178.628 49.8968C178.567 52.9986 178.646 56.104 178.653 59.2064L178.613 74.2828C180.247 74.3071 182.963 73.9832 184.438 74.3942C185.056 75.1067 184.807 81.6002 184.807 82.9842C185.674 82.9801 186.678 82.8765 187.533 83.0156C187.767 83.0538 187.916 83.0666 188.03 83.2922C188.46 84.1412 188.314 88.3766 187.961 89.3106C187.423 89.7311 183.007 89.5094 182.162 89.5104L182.262 129.891L188.895 129.889C190.093 129.888 191.569 129.731 192.736 130.005C192.978 130.062 193.096 130.082 193.205 130.317C193.415 130.771 193.371 133.217 193.144 133.736C192.811 133.887 192.404 133.889 192.041 133.9C186.908 134.063 181.722 133.894 176.583 133.891L146.17 133.89L51.2215 133.903L22.7461 133.875L13.2802 133.877C11.5769 133.877 9.83422 133.951 8.1353 133.846C7.71328 133.82 7.30448 133.825 7.01945 133.499C6.81006 132.713 6.78492 130.927 7.10745 130.189C7.32963 129.988 7.46466 129.896 7.77267 129.873C8.85037 129.791 10.0161 129.883 11.1031 129.88L18.4933 129.84L18.491 89.4933C17.4787 89.4794 13.3868 89.7634 12.8406 89.137C12.3338 88.5559 12.665 84.146 12.6891 83.1043C14.6087 83.0113 16.5514 83.0739 18.4738 83.078C18.3958 82.744 18.3093 82.4026 18.2913 82.0589C18.2499 81.2638 18.5703 80.4373 19.1269 79.8711C20.165 78.8158 21.478 78.7941 22.8523 78.7984C23.3939 77.7309 23.8238 76.5936 24.3303 75.5066C25.4728 73.0551 26.6507 70.6509 27.5862 68.1096C26.3268 64.0366 24.0507 60.0314 22.3336 56.1038C21.9202 55.1586 21.7301 54.1314 21.3428 53.1798C20.9312 52.1686 20.1207 51.4208 19.9139 50.3085C19.7043 49.1805 20.0184 47.9578 20.6776 47.0287C21.4536 45.9352 22.7066 45.1519 24.0384 44.9644C25.3651 44.7775 26.7042 45.2236 27.7696 46.0002C29.3053 45.4959 30.9561 45.1959 32.5327 44.8228C35.2229 44.193 37.9063 43.5349 40.5826 42.8489C41.0696 41.8017 41.6811 40.8913 42.6814 40.2677C43.9267 39.4913 45.3206 39.4705 46.7052 39.7761C47.8081 40.2493 48.7501 40.8348 49.3821 41.8958C49.4214 41.9619 49.4587 42.0291 49.4942 42.0974C49.53 42.1654 49.5638 42.2344 49.5961 42.3044C49.6282 42.3744 49.6585 42.445 49.6869 42.5164C49.7155 42.5877 49.7422 42.6598 49.7669 42.7327C49.7918 42.8055 49.8148 42.8788 49.8358 42.9527C49.8568 43.0266 49.8761 43.1012 49.8932 43.1762C49.9106 43.2512 49.926 43.3266 49.9394 43.4022C49.9526 43.4779 49.9641 43.554 49.9737 43.6303C49.9832 43.7066 49.9908 43.7831 49.9964 43.8598C50.0018 43.9365 50.0055 44.0133 50.0073 44.0902C50.009 44.1672 50.0088 44.2439 50.0064 44.3208C50.004 44.3978 49.9999 44.4745 49.9936 44.551C49.9873 44.6278 49.9793 44.7043 49.9691 44.7806C49.9589 44.8567 49.947 44.9327 49.9331 45.0084C49.919 45.084 49.9032 45.1592 49.8852 45.234C49.8675 45.3088 49.8477 45.3829 49.8261 45.4568C49.4192 46.8627 48.4835 47.8305 47.2259 48.5168C47.2059 50.7556 47.2048 52.9945 47.2226 55.2333C47.9193 55.3593 48.5268 55.4802 49.0288 56.031C49.3483 56.3815 49.5315 56.7996 49.6253 57.2613C49.8178 58.2094 49.8085 60.8345 49.7112 61.8396C49.6841 62.1188 49.6186 62.2486 49.4144 62.4298C47.9496 62.5876 42.4276 62.7432 41.1509 62.3216C41.036 62.0271 40.9738 61.7598 40.9337 61.4457C40.746 59.9694 40.5282 57.3597 41.5001 56.1719C42.0654 55.4813 42.7191 55.3558 43.5538 55.2505C43.5733 53.0942 43.5504 50.9362 43.5467 48.7797C42.4217 48.3241 41.8066 47.6859 41.0434 46.7793C39.4773 47.3567 37.783 47.6935 36.1636 48.0945C33.9176 48.6509 31.6636 49.2418 29.3915 49.6801C29.3031 50.1058 29.2108 50.5415 29.0655 50.952C28.577 52.3325 27.6976 53.1904 26.4014 53.808C27.3569 55.659 28.1556 57.6079 29.0252 59.5021C30.0672 61.7717 31.1759 64.0138 32.1805 66.2997C33.3118 66.2716 34.4577 66.2791 35.5127 66.7495C36.353 67.1245 36.9675 67.7188 37.4886 68.4658C38.5659 70.0101 39.2669 72.0231 40.0539 73.7396C40.8208 75.4117 41.6774 77.0605 42.3591 78.7683C43.3854 78.7425 44.5034 78.7321 45.4567 79.1609C46.2056 79.4977 46.7919 80.0701 47.0557 80.8563C47.2196 81.3444 47.3507 82.1857 47.103 82.6636C46.974 82.9126 47.0477 82.7267 46.9567 83.0013C48.4865 83.2458 52.1436 83.0466 53.8696 83.0453C58.711 83.0421 63.5744 83.1491 68.4127 83.0072C68.491 80.7349 68.4427 78.4042 68.4312 76.1278C68.4258 75.0239 68.2833 73.7065 68.5057 72.6242C68.5569 72.3751 68.6566 72.1792 68.8395 71.9995C69.3097 71.5382 70.0243 71.5946 70.6325 71.5909C70.6163 70.2078 70.9271 68.0578 70.551 66.7874C70.3221 66.6788 70.1342 66.5932 69.9432 66.4231C69.7573 65.5016 69.9354 64.3951 70.0109 63.4589L72.1563 63.4678C72.1474 62.1903 71.9027 60.1862 72.5881 59.0766L72.7611 59.0417C73.5043 59.8812 73.2214 62.375 73.2128 63.4639C73.7401 63.5235 74.1999 63.5831 74.6078 63.9529C74.9938 64.303 75.1018 64.8245 75.0944 65.3269C75.087 65.8188 74.9186 66.0565 74.5692 66.3801C74.5525 68.1079 74.5508 69.8354 74.5642 71.5632C75.2832 71.551 75.9926 71.564 76.7108 71.6009C76.8679 72.9142 76.7753 74.3079 76.7786 75.6327L76.797 82.9859C85.4754 83.0789 94.1538 83.0822 102.832 82.9952C102.863 79.7394 102.871 76.4837 102.857 73.2279C102.858 71.282 102.803 69.3107 102.963 67.3711C106.401 67.1947 109.907 67.3354 113.352 67.331C116.054 67.3276 118.946 67.1017 121.614 67.4425L121.674 67.5573L121.772 67.543L121.775 67.4791L121.877 67.5751C122.159 69.1462 121.984 71.0096 121.99 72.6116L122.021 82.9608L159.522 82.9202C159.529 81.3819 159.063 75.4082 160.171 74.5024C160.847 73.9499 164.013 74.2162 164.93 74.2325C165.109 69.3727 164.98 64.4651 164.955 59.6009C164.939 56.5852 165.102 53.4577 164.892 50.4556C164.822 49.4514 164.454 48.7673 163.991 47.8999C162.989 46.0282 162.961 44.2608 163.298 42.2018C161.623 40.9525 160.161 39.4033 158.649 37.9658C153.969 33.5156 149.617 28.8262 145.316 24.0151C143.473 24.8043 141.606 25.0856 139.62 24.7518C137.54 26.977 135.345 29.0938 133.164 31.2189C133.774 31.5048 134.296 31.8635 134.779 32.3304C137.007 34.4811 136.535 37.5046 136.587 40.3016C137.154 40.317 138.129 40.2424 138.566 40.6494C138.801 40.8679 138.886 41.1792 138.917 41.4861C138.973 42.0232 139.035 42.903 138.636 43.314C137.763 44.2105 134.731 43.7763 133.47 43.7523C133.395 45.3799 133.405 47.0149 133.423 48.6438C133.433 49.4352 133.544 50.3156 133.424 51.0938C133.373 51.4263 133.255 51.7432 133.017 51.9872C132.15 52.875 127.178 52.4912 125.783 52.4851C125.573 52.3505 125.339 52.194 125.17 52.0102C124.367 51.1386 124.702 45.2204 124.71 43.7412C123.524 43.7258 121.336 44.1097 120.397 43.3095C120.355 43.2741 120.316 43.2366 120.278 43.197C120.24 43.1575 120.205 43.1163 120.172 43.0732C120.138 43.0301 120.107 42.9854 120.078 42.939C120.049 42.8929 120.023 42.8452 119.999 42.7964C119.975 42.7474 119.953 42.6973 119.935 42.6462C119.916 42.595 119.899 42.543 119.886 42.4903C119.872 42.4377 119.861 42.3844 119.853 42.3304C119.845 42.2764 119.839 42.2222 119.836 42.1678C119.832 42.1011 119.831 42.0343 119.834 41.9673C119.837 41.9003 119.843 41.8338 119.853 41.7677C119.863 41.7016 119.876 41.6359 119.893 41.5711C119.909 41.5063 119.93 41.4428 119.953 41.3801C119.977 41.3175 120.004 41.2561 120.034 41.1963C120.064 41.1365 120.097 41.0784 120.133 41.0223C120.169 40.9661 120.209 40.9119 120.251 40.8597C120.293 40.8077 120.337 40.758 120.385 40.7106C120.867 40.2196 121.443 40.2675 122.077 40.2534C122.109 38.5209 121.85 36.5099 122.384 34.8389C122.961 33.0362 124.384 32.007 125.989 31.2013C125.852 30.7971 125.734 30.3842 125.672 29.9606C125.559 29.1853 125.719 28.281 126.149 27.619C126.707 26.7585 127.747 26.4371 128.441 25.7075C130.215 23.8412 131.87 21.6995 133.413 19.6381C133.094 18.8255 132.824 18.0138 132.689 17.15C132.336 14.8869 132.789 12.6138 134.16 10.7556C135.67 8.70961 137.829 7.60871 140.307 7.24283Z" fill="black"/>
<path d="M42.0078 60.4935C42.2725 60.4883 42.473 60.4965 42.7329 60.5622C42.9329 60.8693 42.8729 61.142 42.877 61.5038C42.6407 61.5116 42.4331 61.4895 42.1999 61.4517C41.9666 61.1539 42.026 60.8656 42.0078 60.4935Z" fill="white"/>
<path d="M43.9545 60.4987C44.2389 60.4877 44.4537 60.4818 44.732 60.5562C44.9258 60.8668 44.8675 61.2012 44.8707 61.5617C44.5883 61.5682 44.3733 61.5691 44.0974 61.4941C43.8914 61.1603 43.9543 60.8861 43.9545 60.4987Z" fill="white"/>
<path d="M71.077 64.4333C71.9433 64.4542 73.1615 64.1138 73.8978 64.6377C74.0851 64.9243 74.0654 65.1491 74.0608 65.4761C73.1396 65.5149 72.0894 65.7831 71.2302 65.4009C71.0124 65.0582 71.0733 64.8335 71.077 64.4333Z" fill="white"/>
<path d="M71.7233 66.7109L73.523 66.712L73.5066 71.5276L71.7218 71.5511C71.7016 69.9378 71.7021 68.3242 71.7233 66.7109Z" fill="white"/>
<path d="M46.0417 48.8867L46.1416 49.0341C46.1482 50.0893 46.3593 54.4406 46.038 55.1533C45.634 55.3475 45.2096 55.328 44.7698 55.3456C44.3686 53.8935 44.6287 50.5796 44.6419 48.9366L46.0417 48.8867Z" fill="white"/>
<path d="M126.276 49.7396C128.287 49.696 130.299 49.6761 132.311 49.6802C132.346 50.1222 132.464 50.7698 132.25 51.1702C132.162 51.3356 132.02 51.3377 131.854 51.3995C130.719 51.4054 127.519 51.6186 126.608 51.4309C126.3 51.3674 125.989 51.2112 125.851 50.9125C125.72 50.6274 125.758 50.3079 125.886 50.0316C126.001 49.7845 126.038 49.8302 126.276 49.7396Z" fill="white"/>
<path d="M125.938 43.8164L132.195 43.8249L132.194 45.5938C130.113 45.6109 128.031 45.6166 125.95 45.6103L125.938 43.8164Z" fill="white"/>
<path d="M125.926 46.7454C128.006 46.689 130.097 46.7241 132.177 46.7445L132.18 48.5371C130.101 48.6118 128.007 48.585 125.926 48.6055L125.926 46.7454Z" fill="white"/>
<path d="M128.813 26.9573C128.977 26.9512 129.137 26.946 129.301 26.9516C130.04 26.9772 130.831 27.267 131.33 27.8288C132.154 28.7555 132.057 29.8165 131.988 30.964C131.256 30.9874 130.522 30.9798 129.79 30.9844C129.111 30.988 128.283 31.0773 127.626 30.9362C127.255 30.8567 126.869 30.6271 126.701 30.276C126.474 29.802 126.646 29.2052 126.853 28.7565C127.263 27.867 127.91 27.3039 128.813 26.9573Z" fill="white"/>
<path d="M43.3818 56.4626C44.5135 56.44 47.26 56.0217 48.0717 56.841C48.7487 57.5245 48.5759 58.5861 48.5377 59.4523L46.7125 59.4547C46.4994 59.6103 42.6013 59.4889 42.031 59.4846C41.9916 58.7628 41.7653 57.5615 42.2308 56.959C42.5141 56.5926 42.9574 56.5341 43.3818 56.4626Z" fill="white"/>
<path d="M40.0393 44.1803L40.17 44.1758C40.4277 44.4571 40.46 45.4923 40.5372 45.8951C36.8651 46.9123 33.0743 47.6655 29.3557 48.5013C29.0797 48.005 28.8567 47.4704 28.6172 46.9552C32.3783 45.9194 36.2355 45.0437 40.0393 44.1803Z" fill="white"/>
<path d="M121.055 41.3643C126.624 41.2044 132.239 41.35 137.814 41.3438L137.803 42.6458C135.757 42.679 121.719 42.8101 121.132 42.5236C120.973 42.1659 121.037 41.748 121.055 41.3643Z" fill="white"/>
<path d="M133.926 20.8242C134.037 20.8914 134.002 20.8572 134.08 20.9528C135.404 22.5806 136.531 23.7036 138.55 24.3677C137.164 26.0155 135.392 27.4341 133.907 29.0167L133.216 29.7328C133.168 28.9937 133.034 28.3374 132.64 27.6988C132.004 26.6694 131.003 26.1579 129.859 25.8961C131.208 24.1993 132.59 22.5327 133.926 20.8242Z" fill="white"/>
<path d="M22.8945 53.8555C23.7975 54.1728 24.482 54.1871 25.418 54.1145C26.7545 57.3634 28.2481 60.5183 29.7557 63.689C29.9733 64.1465 31.02 65.9998 30.9871 66.4157L30.7269 66.5144L28.8598 67.1581C27.8311 65.3699 23.0109 55.612 22.8945 53.8555Z" fill="white"/>
<path d="M23.8753 46.1199C24.6972 46.0841 25.3802 46.0887 26.1445 46.4515C26.2526 46.5033 26.3578 46.5603 26.4601 46.6225C26.5624 46.6847 26.6612 46.7519 26.7568 46.8241C26.8524 46.8963 26.9443 46.973 27.0323 47.0543C27.1201 47.1356 27.2038 47.2212 27.2833 47.3109C27.3626 47.4005 27.4374 47.4939 27.5074 47.5912C27.5774 47.6883 27.6427 47.7887 27.7027 47.8923C27.7628 47.9959 27.8174 48.1023 27.8668 48.2113C27.9162 48.3206 27.96 48.432 27.9984 48.5454C28.0348 48.6546 28.0656 48.7656 28.0905 48.8781C28.1154 48.9906 28.1347 49.1039 28.1482 49.2184C28.1616 49.3326 28.1692 49.4475 28.1709 49.5626C28.1727 49.6779 28.1685 49.793 28.1586 49.9077C28.1484 50.0223 28.1326 50.1363 28.1109 50.2495C28.0892 50.3626 28.0619 50.4743 28.0287 50.5846C27.9956 50.6949 27.957 50.8033 27.913 50.9097C27.8688 51.0161 27.8193 51.1202 27.7645 51.2214C27.1999 52.2514 26.3179 52.6982 25.2495 53.0352C24.5908 53.0881 23.9945 53.0454 23.3739 52.8007C23.2614 52.7562 23.1515 52.7064 23.044 52.6511C22.9367 52.5958 22.8323 52.5352 22.731 52.4693C22.6296 52.4036 22.5318 52.3327 22.4375 52.2571C22.3433 52.1814 22.2531 52.1012 22.1668 52.0165C22.0808 51.9317 21.9991 51.8431 21.9217 51.7501C21.8443 51.6571 21.7719 51.5606 21.7045 51.4603C21.6369 51.3601 21.5744 51.2567 21.5172 51.1503C21.46 51.0439 21.4082 50.9349 21.362 50.8232C21.0068 49.979 20.997 49.0745 21.3768 48.2369C21.8723 47.1447 22.7742 46.5064 23.8753 46.1199Z" fill="white"/>
<path d="M24.5224 48.2891C24.6199 48.3079 24.7172 48.3285 24.8141 48.3508C25.261 48.4553 25.6482 48.6365 25.8838 49.0518C26.0613 49.3648 26.0693 49.7303 25.9479 50.0649C25.7531 50.602 25.3465 50.8205 24.8605 51.0629C24.5932 51.0395 24.3249 51.0184 24.0789 50.9027C23.7251 50.736 23.3985 50.3983 23.2953 50.0138C23.2053 49.6789 23.2368 49.3533 23.4056 49.0501C23.6588 48.5956 24.0472 48.4354 24.5224 48.2891Z" fill="black"/>
<path d="M44.5988 40.7099C45.4816 40.6555 46.2067 40.6989 46.997 41.1424C47.8334 41.6121 48.4854 42.4236 48.7386 43.3517C48.7681 43.4634 48.7919 43.5763 48.8103 43.6903C48.8288 43.8046 48.8413 43.9192 48.8485 44.0343C48.8556 44.1496 48.8569 44.2649 48.8526 44.3805C48.8485 44.496 48.8385 44.6109 48.8229 44.7253C48.8073 44.8398 48.7861 44.9531 48.7594 45.0656C48.7327 45.1781 48.7004 45.2889 48.6627 45.3981C48.6252 45.5072 48.5823 45.6142 48.534 45.7194C48.4859 45.8245 48.4327 45.9268 48.3744 46.0265C47.7916 47.0327 46.855 47.5583 45.7558 47.8351C44.9924 47.885 44.3352 47.8568 43.6225 47.5462C42.7362 47.1599 42.019 46.4398 41.7004 45.5195C41.3902 44.6239 41.4886 43.6398 41.9223 42.8034C42.4982 41.6921 43.4481 41.0921 44.5988 40.7099Z" fill="white"/>
<path d="M44.6163 42.8775C44.861 42.8486 45.1146 42.8137 45.3611 42.8272C45.7837 42.8502 46.1873 43.0669 46.4522 43.3957C46.6742 43.6712 46.7667 44.0111 46.7058 44.3616C46.6033 44.9496 46.1982 45.28 45.733 45.6012C45.5132 45.6413 45.3463 45.6662 45.1207 45.6424C44.6726 45.5949 44.1979 45.2958 43.9565 44.9184C43.7627 44.6154 43.7053 44.2122 43.7844 43.8635C43.8967 43.3691 44.2116 43.1421 44.6163 42.8775Z" fill="black"/>
<path d="M44.7618 43.6869C45.1301 43.6743 45.36 43.686 45.6371 43.9318C45.717 44.255 45.6555 44.423 45.5464 44.7217C45.2124 44.7837 45.1045 44.7928 44.8266 44.6079C44.6922 44.2791 44.7276 44.0289 44.7618 43.6869Z" fill="white"/>
<path d="M69.4638 72.6716L75.7417 72.668C75.7989 76.099 75.743 79.5384 75.7349 82.9703C74.5872 82.9783 70.3358 83.1951 69.5477 82.8725L69.4768 82.6458C69.4658 82.4471 69.4298 82.2021 69.459 82.0068C69.57 81.2612 70.6473 81.668 71.1172 81.3548C71.2128 81.0967 71.2223 80.9586 71.1844 80.6864C70.8846 80.4865 70.4158 80.6038 70.0638 80.5771C69.7586 80.5541 69.6563 80.5249 69.4465 80.3036C69.4098 80.0257 69.4909 79.8666 69.5908 79.613C69.9535 79.3366 70.6065 79.5883 71.0784 79.3884C71.2637 79.1459 71.2635 79.1088 71.2854 78.8017C70.887 78.2143 70.1483 78.6851 69.5949 78.389C69.5048 78.0935 69.4339 77.8831 69.4926 77.5694C69.7378 77.3232 69.9422 77.3269 70.2823 77.3193C70.5333 77.3134 70.7659 77.3408 70.9969 77.2239C71.1259 77.1589 71.213 76.9881 71.2373 76.8502C71.2832 76.5873 71.2124 76.4529 71.0771 76.2501C70.7075 76.1011 70.3466 76.2722 69.9639 76.2572C69.72 76.2479 69.7319 76.2594 69.552 76.0734C69.5345 75.7654 69.5004 75.5311 69.6576 75.2504C69.9951 75.031 70.382 75.1721 70.7617 75.1572C70.8911 75.152 70.9932 75.1815 71.0769 75.0646C71.2301 74.8511 71.2317 74.5483 71.1718 74.3025C71.063 73.8554 69.9805 74.1751 69.5845 73.9397C69.4005 73.5402 69.4558 73.1023 69.4638 72.6716Z" fill="white"/>
<path d="M21.1245 79.9393C25.2365 79.7078 29.9394 79.9103 34.1091 79.9066L40.3744 79.8871C41.5314 79.8832 42.7277 79.8155 43.8789 79.9213C44.3209 79.9618 44.7563 80.1326 45.127 80.3752C45.5388 80.6448 45.8745 81.0413 45.9582 81.5379C46.0135 81.8667 45.9747 82.373 45.7347 82.6234C45.4248 82.9465 44.848 82.8932 44.4422 82.9043C38.9165 82.8586 33.3906 82.8429 27.8644 82.8579L22.6671 82.8768C21.7819 82.88 20.8082 82.9565 19.9325 82.8523C19.6789 82.8221 19.5285 82.6942 19.3391 82.5399C19.207 82.2269 19.1845 82.0327 19.3074 81.7084C19.6538 80.7948 20.2681 80.3234 21.1245 79.9393Z" fill="white"/>
<path d="M127.071 32.172C127.947 32.1215 128.835 32.1262 129.713 32.1158C131.351 32.0961 133.02 32.0443 134.262 33.3171C135.941 35.0386 135.493 38.0928 135.463 40.3174L131.869 40.3167L123.206 40.3198C123.179 38.3267 122.801 35.7096 124.007 34.0033C124.762 32.9347 125.806 32.3903 127.071 32.172Z" fill="white"/>
<path d="M32.141 67.4961C33.0776 67.4051 33.9771 67.3418 34.8727 67.707C35.5908 67.9997 36.1 68.5262 36.5476 69.1443C37.8592 70.9553 40.0265 76.4698 41.0606 78.8278L33.2018 78.8378L24.0898 78.8272C24.8186 76.9271 27.6886 70.5402 28.7943 69.0659C29.673 67.8941 30.7717 67.6947 32.141 67.4961Z" fill="white"/>
<path d="M31.9634 69.1073C32.5922 69.026 33.1976 69.028 33.7982 69.2581C34.5861 69.5603 35.2305 70.1503 35.5357 70.9445C35.5689 71.0316 35.5977 71.1201 35.622 71.21C35.6461 71.3 35.6658 71.391 35.681 71.4829C35.6959 71.5748 35.7063 71.6674 35.7122 71.7604C35.718 71.8533 35.7191 71.9466 35.7154 72.0395C35.7117 72.1325 35.7035 72.2253 35.6905 72.3176C35.6775 72.4098 35.6599 72.5012 35.6378 72.5918C35.6155 72.6822 35.5888 72.7713 35.5578 72.8591C35.5266 72.9469 35.4911 73.0329 35.4512 73.1172C35.0567 73.9494 34.3776 74.421 33.5366 74.731C32.8783 74.8383 32.2554 74.8491 31.6244 74.5998C31.5349 74.5654 31.4473 74.5264 31.3617 74.483C31.2761 74.4397 31.1931 74.392 31.1122 74.3402C31.0314 74.2884 30.9535 74.2327 30.8785 74.1731C30.8033 74.1134 30.7314 74.0501 30.6627 73.9832C30.5939 73.9162 30.5287 73.8458 30.4671 73.7723C30.4056 73.6988 30.3479 73.6225 30.294 73.543C30.24 73.4636 30.1903 73.3817 30.1446 73.2974C30.0989 73.213 30.0577 73.1266 30.0208 73.0379C29.984 72.951 29.9515 72.8623 29.9233 72.7724C29.8951 72.6822 29.8715 72.591 29.8524 72.4984C29.8333 72.4059 29.8188 72.3127 29.8089 72.2188C29.7989 72.1249 29.7937 72.0306 29.793 71.9364C29.7924 71.8419 29.7965 71.7476 29.8052 71.6535C29.8138 71.5596 29.8271 71.4662 29.8451 71.3735C29.863 71.2807 29.8854 71.189 29.9125 71.0986C29.9396 71.0082 29.9708 70.9191 30.0065 70.8318C30.3865 69.9225 31.0858 69.4704 31.9634 69.1073Z" fill="black"/>
<path d="M32.1676 70.2898C32.5447 70.2601 32.9336 70.2285 33.3012 70.3399C33.733 70.4708 34.1205 70.7749 34.3354 71.1735C34.3601 71.2193 34.3822 71.2661 34.4019 71.314C34.4216 71.3619 34.439 71.4107 34.4537 71.4605C34.4682 71.5102 34.4804 71.5607 34.4897 71.6116C34.499 71.6625 34.5057 71.7139 34.5098 71.7657C34.514 71.8173 34.5153 71.8691 34.514 71.9209C34.5124 71.9727 34.5083 72.0245 34.5016 72.0759C34.4949 72.1273 34.4856 72.1782 34.4734 72.2287C34.4613 72.2792 34.4465 72.3288 34.4294 72.3776C34.2159 72.9967 33.8026 73.3081 33.2384 73.5912C32.9158 73.6185 32.6182 73.6257 32.302 73.5429C31.8197 73.4165 31.3842 73.0972 31.1378 72.6607C31.1116 72.6145 31.0875 72.5673 31.066 72.5187C31.0446 72.4699 31.0257 72.4205 31.0093 72.37C30.993 72.3195 30.9791 72.2681 30.9681 72.2163C30.957 72.1645 30.9486 72.1121 30.9427 72.0592C30.9369 72.0065 30.9338 71.9534 30.9336 71.9003C30.9334 71.8472 30.9358 71.7943 30.9408 71.7414C30.946 71.6885 30.9538 71.6361 30.9642 71.5841C30.9748 71.532 30.9878 71.4807 31.0036 71.43C31.2013 70.8148 31.6192 70.5684 32.1676 70.2898Z" fill="white"/>
<path d="M160.638 75.3944C163.444 75.309 166.27 75.3775 169.078 75.3778L183.663 75.3561C183.691 77.8702 183.769 80.4082 183.666 82.9197C181.005 82.9852 178.327 82.9173 175.664 82.9121L160.681 82.8989C160.543 80.4186 160.58 77.8784 160.638 75.3944Z" fill="white"/>
<path d="M171.37 36.3904C173.053 36.2337 174.797 36.7652 176.173 37.7293C177.851 38.9044 179.109 40.6731 179.453 42.7099C179.79 44.7043 179.357 46.9572 178.173 48.6132C176.833 50.4879 174.817 51.5045 172.589 51.8723C170.684 51.9129 168.991 51.5609 167.412 50.4396C165.729 49.2446 164.541 47.2784 164.201 45.2481C164.182 45.1263 164.166 45.004 164.152 44.8814C164.139 44.7587 164.129 44.6358 164.122 44.5127C164.115 44.3895 164.111 44.2662 164.11 44.1429C164.109 44.0195 164.111 43.8964 164.116 43.7731C164.121 43.6498 164.129 43.5269 164.141 43.404C164.152 43.2811 164.166 43.1584 164.184 43.0363C164.201 42.9143 164.221 42.7927 164.245 42.6715C164.269 42.5504 164.295 42.4301 164.325 42.3102C164.354 42.1903 164.387 42.0716 164.422 41.9534C164.458 41.8353 164.496 41.718 164.537 41.6019C164.579 41.4855 164.623 41.3704 164.67 41.2564C164.717 41.1423 164.767 41.0296 164.82 40.918C164.872 40.8064 164.928 40.6963 164.986 40.5877C165.044 40.4789 165.105 40.3716 165.169 40.2658C165.232 40.1602 165.298 40.0562 165.367 39.9537C165.436 39.8511 165.507 39.7506 165.581 39.6517C167.005 37.7124 169.032 36.7333 171.37 36.3904Z" fill="white"/>
<path d="M171.181 40.6112C172.056 40.5533 172.839 40.5908 173.631 41.0106C173.735 41.0655 173.836 41.1255 173.933 41.1908C174.031 41.256 174.125 41.3262 174.216 41.401C174.306 41.476 174.393 41.5553 174.475 41.639C174.557 41.7229 174.635 41.8107 174.709 41.9024C174.782 41.994 174.85 42.0894 174.914 42.188C174.978 42.2869 175.036 42.3888 175.089 42.4935C175.142 42.5981 175.19 42.7054 175.232 42.8149C175.274 42.9246 175.311 43.0362 175.342 43.1496C175.61 44.1154 175.49 45.1771 174.963 46.0354C174.381 46.985 173.484 47.453 172.437 47.7235C171.64 47.7764 170.958 47.7575 170.23 47.3875C170.173 47.3579 170.116 47.3269 170.061 47.2943C170.005 47.2618 169.95 47.2278 169.896 47.1925C169.842 47.1571 169.789 47.1203 169.737 47.0821C169.684 47.044 169.634 47.0045 169.583 46.9636C169.533 46.9228 169.484 46.8808 169.437 46.8374C169.389 46.7941 169.342 46.7494 169.296 46.7037C169.251 46.658 169.207 46.6109 169.163 46.5628C169.12 46.5149 169.078 46.4657 169.038 46.4154C168.997 46.3651 168.958 46.3138 168.92 46.2615C168.882 46.2093 168.846 46.156 168.811 46.1018C168.775 46.0476 168.742 45.9925 168.71 45.9366C168.677 45.8807 168.646 45.8239 168.617 45.7662C168.588 45.7088 168.56 45.6505 168.534 45.5915C168.507 45.5326 168.483 45.473 168.459 45.4127C168.436 45.3522 168.415 45.2913 168.395 45.23C168.374 45.1686 168.356 45.1069 168.339 45.0444C168.307 44.9313 168.281 44.8168 168.26 44.7013C168.239 44.5856 168.224 44.4692 168.214 44.3519C168.205 44.2346 168.201 44.1174 168.204 43.9999C168.206 43.8822 168.214 43.7652 168.228 43.6483C168.242 43.5315 168.262 43.4157 168.287 43.3011C168.312 43.1864 168.343 43.0731 168.38 42.9612C168.416 42.8496 168.458 42.7399 168.506 42.6324C168.553 42.5247 168.606 42.4198 168.664 42.3174C169.243 41.3117 170.112 40.8999 171.181 40.6112Z" fill="black"/>
<path d="M171.361 41.5819C171.841 41.547 172.291 41.5589 172.742 41.7481C172.826 41.783 172.908 41.822 172.988 41.8652C173.068 41.9085 173.145 41.9558 173.22 42.0071C173.295 42.0585 173.367 42.1136 173.436 42.1723C173.505 42.231 173.571 42.2933 173.634 42.3589C173.697 42.4246 173.756 42.4935 173.812 42.5653C173.867 42.637 173.919 42.7116 173.967 42.7888C174.014 42.8661 174.058 42.9455 174.098 43.0272C174.137 43.1089 174.172 43.1926 174.203 43.278C174.233 43.3564 174.258 43.436 174.279 43.5168C174.3 43.5977 174.318 43.6794 174.331 43.762C174.344 43.8446 174.353 43.9278 174.358 44.0113C174.363 44.0947 174.365 44.1782 174.362 44.2618C174.358 44.3453 174.351 44.4285 174.34 44.5115C174.329 44.5943 174.313 44.6765 174.294 44.7578C174.275 44.8393 174.251 44.9194 174.224 44.9986C174.197 45.0777 174.166 45.1551 174.131 45.2311C173.749 46.0498 173.102 46.438 172.285 46.743C171.894 46.7675 171.491 46.7645 171.114 46.6446C171.026 46.6175 170.94 46.5856 170.855 46.5494C170.77 46.5132 170.687 46.4727 170.607 46.4278C170.526 46.383 170.448 46.3342 170.373 46.2811C170.298 46.228 170.225 46.1712 170.156 46.1107C170.086 46.0503 170.02 45.9861 169.957 45.9187C169.894 45.8513 169.835 45.7806 169.78 45.7069C169.724 45.6334 169.673 45.5571 169.626 45.478C169.578 45.3989 169.535 45.3176 169.496 45.2342C169.198 44.5885 169.16 43.8164 169.442 43.1588C169.825 42.2664 170.51 41.9168 171.361 41.5819Z" fill="white"/>
<path d="M140.891 8.21668C142.532 8.13084 144.285 8.62266 145.667 9.5029C145.773 9.57009 145.877 9.63988 145.98 9.71228C146.082 9.78468 146.183 9.85968 146.282 9.93727C146.381 10.0147 146.477 10.0946 146.572 10.1772C146.667 10.2596 146.76 10.3443 146.85 10.4315C146.94 10.5186 147.029 10.6079 147.114 10.6996C147.2 10.7913 147.284 10.8849 147.365 10.9809C147.446 11.0768 147.525 11.1745 147.601 11.2744C147.677 11.3744 147.751 11.476 147.822 11.5796C147.893 11.683 147.961 11.7884 148.027 11.8954C148.092 12.0025 148.155 12.1111 148.215 12.2214C148.276 12.3318 148.333 12.4434 148.387 12.5565C148.442 12.6697 148.493 12.7841 148.542 12.8999C148.591 13.0156 148.637 13.1324 148.679 13.2506C148.722 13.3687 148.762 13.4877 148.799 13.6078C148.835 13.7281 148.869 13.849 148.899 13.9709C148.93 14.0925 148.957 14.2149 148.982 14.3383C149.412 16.4321 149.067 18.5979 147.869 20.384C146.548 22.3532 144.522 23.3411 142.258 23.7879C140.184 23.8197 138.426 23.4506 136.745 22.1702C135.075 20.8977 134.017 18.9085 133.758 16.8346C133.506 14.8233 134.015 12.7807 135.275 11.1801C136.67 9.40861 138.688 8.46963 140.891 8.21668Z" fill="white"/>
<path d="M141.166 12.4453C141.909 12.4436 142.585 12.5801 143.223 12.9744C143.325 13.0373 143.423 13.1051 143.518 13.1777C143.613 13.2504 143.704 13.3275 143.791 13.4092C143.878 13.4909 143.961 13.577 144.04 13.667C144.118 13.7569 144.192 13.8508 144.261 13.9483C144.33 14.0456 144.394 14.1464 144.453 14.2502C144.513 14.3541 144.566 14.4607 144.615 14.57C144.663 14.6792 144.706 14.7906 144.743 14.9042C144.78 15.0176 144.812 15.1326 144.838 15.2495C145.056 16.2379 144.874 17.3813 144.307 18.2264C143.661 19.1873 142.781 19.4894 141.698 19.6778C140.833 19.6797 140.075 19.6121 139.315 19.1439C139.216 19.0821 139.121 19.0156 139.029 18.9443C138.937 18.8727 138.849 18.7967 138.765 18.716C138.681 18.6354 138.602 18.5506 138.527 18.4618C138.451 18.3731 138.381 18.2806 138.315 18.1843C138.249 18.0883 138.189 17.989 138.134 17.8867C138.078 17.7842 138.028 17.6793 137.984 17.5718C137.939 17.4643 137.9 17.3548 137.867 17.2432C137.834 17.1316 137.807 17.0186 137.785 16.9042C137.761 16.7795 137.743 16.6543 137.731 16.5279C137.719 16.4015 137.714 16.2747 137.715 16.1479C137.716 16.0209 137.723 15.8943 137.737 15.7682C137.751 15.642 137.771 15.517 137.798 15.3928C137.824 15.2686 137.857 15.1461 137.896 15.0254C137.935 14.9046 137.979 14.7861 138.03 14.6697C138.081 14.5533 138.138 14.4399 138.2 14.3294C138.262 14.2188 138.33 14.1117 138.403 14.0079C139.081 13.0492 140.034 12.6172 141.166 12.4453Z" fill="black"/>
<path d="M141.001 13.5195C141.448 13.5202 141.909 13.5397 142.323 13.7259C142.401 13.7601 142.477 13.7983 142.552 13.8401C142.626 13.8819 142.698 13.9275 142.768 13.9767C142.838 14.0259 142.905 14.0783 142.969 14.134C143.034 14.19 143.095 14.2489 143.154 14.3109C143.212 14.3729 143.268 14.4377 143.32 14.5053C143.372 14.573 143.421 14.643 143.465 14.7154C143.51 14.7878 143.552 14.8623 143.589 14.9391C143.627 15.0156 143.661 15.0938 143.69 15.1738C143.721 15.2573 143.748 15.3422 143.771 15.4287C143.793 15.515 143.811 15.6021 143.824 15.6903C143.838 15.7785 143.846 15.8672 143.851 15.9563C143.855 16.0454 143.854 16.1342 143.849 16.2233C143.844 16.3124 143.835 16.4011 143.821 16.4891C143.807 16.5771 143.789 16.6642 143.765 16.7505C143.742 16.8365 143.715 16.9213 143.683 17.0045C143.651 17.088 143.615 17.1695 143.575 17.249C143.187 18.0178 142.629 18.3326 141.842 18.6137C141.214 18.6286 140.715 18.6074 140.151 18.3057C139.548 17.984 139.078 17.448 138.885 16.7884C138.702 16.1598 138.799 15.4662 139.115 14.8961C139.526 14.1542 140.208 13.7454 141.001 13.5195Z" fill="white"/>
<path d="M150.057 18.0938C151.745 19.0548 153.192 20.4037 154.65 21.6752C156.901 23.6466 159.113 25.6606 161.286 27.7174C163.168 29.4354 165.009 31.1957 166.81 32.9982C167.664 33.8488 168.568 34.6835 169.325 35.6222C167.06 36.4292 165.507 37.7928 164.144 39.7488C163.904 40.2077 163.73 40.7142 163.535 41.1943C157.695 35.3463 151.753 29.717 146.344 23.448C148.293 22.0411 149.416 20.3946 150.057 18.0938Z" fill="white"/>
<path d="M112.926 68.3831C115.585 68.3263 118.258 68.291 120.917 68.3532C121.036 73.2167 120.944 78.1064 120.951 82.9728L112.07 82.9581L103.99 82.9776C103.969 78.1375 103.855 73.2748 103.953 68.4362L112.926 68.3831Z" fill="url(#paint0_linear_796_58873)"/>
<path d="M105.478 71.5401C105.424 71.5318 105.369 71.526 105.316 71.5158C104.944 71.4464 104.576 71.3149 104.386 70.96C104.208 70.6282 104.154 70.2577 104.312 69.9049C104.438 69.6252 104.649 69.4443 104.926 69.3246C105.318 69.1549 105.79 69.3261 106.161 69.4677C106.32 69.8704 106.51 70.3421 106.33 70.7734C106.152 71.198 105.885 71.3625 105.478 71.5401Z" fill="black"/>
<path d="M105.2 69.7695C105.425 69.8432 105.566 69.9362 105.753 70.0793C105.828 70.4313 105.752 70.5128 105.616 70.8368C105.283 70.7469 105.141 70.7367 104.891 70.4918C104.904 70.1668 105.028 70.0407 105.2 69.7695Z" fill="white"/>
<path d="M106.168 69.4704C106.196 69.3898 106.25 69.2173 106.294 69.1488C106.442 68.9205 106.773 68.9637 107.009 68.9485C110.028 68.7551 113.146 68.9797 116.171 69.0231C116.786 69.0319 118.127 68.8999 118.657 69.033C118.73 69.0514 118.771 69.1334 118.828 69.1834C119.248 69.284 119.823 69.3842 120.056 69.8036C120.279 70.2061 120.089 70.7053 119.964 71.1039C119.985 73.263 119.938 75.4229 119.97 77.5816C119.992 79.0945 120.154 80.6511 120.028 82.1573C118.058 82.3595 106.979 82.4967 105.592 82.0595C105.37 81.8183 105.282 81.6182 105.24 81.2965C105.047 79.838 105.229 78.0075 105.224 76.5173C105.22 75.2883 105.046 73.0595 105.213 71.9167C105.233 71.7739 105.258 71.7342 105.308 71.6165L105.485 71.5428C105.892 71.3653 106.159 71.2008 106.337 70.7762C106.517 70.3448 106.327 69.8732 106.168 69.4704Z" fill="white"/>
<path d="M118.824 69.1836C119.245 69.2842 119.82 69.3843 120.052 69.8037C120.276 70.2062 120.086 70.7054 119.961 71.104C119.567 71.2881 119.186 71.4779 118.74 71.401C118.412 71.3442 118.102 71.1751 117.929 70.8797C117.782 70.6267 117.778 70.3538 117.871 70.0829C118.037 69.595 118.389 69.4099 118.824 69.1836Z" fill="black"/>
<path d="M118.865 69.7773C119.126 69.8831 119.323 69.9371 119.469 70.1963C119.49 70.5191 119.332 70.7009 119.161 70.955C118.849 70.8173 118.643 70.7248 118.453 70.441C118.515 70.1005 118.634 70.0268 118.865 69.7773Z" fill="white"/>
<path d="M166.029 50.8438C167.408 51.8894 168.89 52.6196 170.619 52.8661C173.306 53.2493 175.356 52.4399 177.48 50.8646L177.502 72.178L177.486 74.2023C176.099 74.3373 174.656 74.2729 173.261 74.274L166.04 74.2755C165.945 66.4715 166.005 58.6495 166.029 50.8438Z" fill="white"/>
<path d="M18.1725 131.027L115.706 131.047L165.117 131.015L182.707 131.011C185.85 131.01 189.018 130.915 192.156 131.045L192.16 132.741C188.79 132.813 185.406 132.749 182.035 132.748L8.03102 132.788L8.02344 131.069C11.3909 130.935 14.8013 131.036 18.1725 131.027Z" fill="white"/>
<path d="M140.496 83.9883L187.078 84.0466C187.098 85.4923 187.11 86.9381 187.114 88.3841L60.6211 88.3806L13.7521 88.3808C13.7391 86.9713 13.7473 85.5617 13.7768 84.1521C19.0634 83.9068 24.4298 84.0652 29.7251 84.065L57.2729 84.0618L140.496 83.9883Z" fill="white"/>
<path d="M100.86 89.4879C110.343 89.2618 120.041 89.4849 129.549 89.4877L181.054 89.469C180.994 102.924 181.004 116.38 181.085 129.835C178.272 130.046 175.324 129.877 172.497 129.88L155.276 129.89L100.914 129.877C100.81 124.399 100.885 118.907 100.891 113.427L100.86 89.4879Z" fill="white"/>
<path d="M19.6177 89.4688L99.7195 89.4874L99.7822 129.88L19.6173 129.86C19.4493 124.252 19.588 118.598 19.606 112.985L19.6177 89.4688Z" fill="white"/>
</g>
<defs>
<linearGradient id="paint0_linear_796_58873" x1="111.551" y1="83.5779" x2="113.365" y2="67.7275" gradientUnits="userSpaceOnUse">
<stop stop-color="#C1BFBF"/>
<stop offset="1" stop-color="#E5E4E5"/>
</linearGradient>
<clipPath id="clip0_796_58873">
<rect width="199.342" height="140.278" fill="white" transform="translate(0.585938 0.152344)"/>
</clipPath>
</defs>
</svg>
