<svg width="520" height="347" viewBox="0 0 520 347" fill="none" xmlns="http://www.w3.org/2000/svg">
<path d="M82.9551 24.0067C82.9551 27.9278 86.1525 31.1043 90.0815 31.1043C94.0117 31.1043 97.2079 27.9278 97.2079 24.0067C97.2079 20.0855 94.0105 16.8945 90.0815 16.8945C86.1525 16.8933 82.9551 20.0843 82.9551 24.0067Z" fill="black" fill-opacity="0.7"/>
<path d="M111.016 24.0067C111.016 27.9278 114.213 31.1043 118.142 31.1043C122.057 31.1043 125.254 27.9278 125.254 24.0067C125.254 20.0855 122.057 16.8945 118.142 16.8945C114.214 16.8933 111.016 20.0843 111.016 24.0067Z" fill="black" fill-opacity="0.7"/>
<path d="M139.061 24.0067C139.061 27.9278 142.258 31.1043 146.187 31.1043C150.117 31.1043 153.313 27.9278 153.313 24.0067C153.313 20.0855 150.116 16.8945 146.187 16.8945C142.258 16.8933 139.061 20.0843 139.061 24.0067Z" fill="black" fill-opacity="0.7"/>
<path d="M176.125 77.1342C176.533 77.086 176.826 76.7143 176.777 76.3051C176.727 75.8936 176.345 75.6015 175.946 75.6522C165.554 76.888 158.265 86.5286 159.918 96.9054C159.983 97.3157 160.374 97.5909 160.773 97.5245C161.181 97.4593 161.458 97.078 161.394 96.6712C159.866 87.1164 166.592 78.2675 176.125 77.1342Z" fill="black" fill-opacity="0.7"/>
<path d="M243.736 115.081C251.458 115.817 257.669 121.674 258.841 129.327C258.904 129.731 259.282 130.013 259.691 129.951C260.1 129.889 260.379 129.508 260.317 129.101C259.041 120.774 252.284 114.398 243.879 113.597C243.468 113.556 243.104 113.858 243.064 114.269C243.024 114.678 243.327 115.042 243.736 115.081Z" fill="black" fill-opacity="0.7"/>
<path d="M203.755 124.931H199.696V105.697C199.696 105.23 199.312 104.863 198.862 104.863H189.71C189.242 104.863 188.875 105.23 188.875 105.697V124.931H184.817C184.085 124.931 183.762 125.739 184.149 126.265L193.619 138.582C193.983 139.055 194.65 138.999 194.939 138.582L204.409 126.265C204.836 125.728 204.453 124.931 203.755 124.931Z" fill="black" fill-opacity="0.7"/>
<path d="M123.582 187.762C123.582 193.548 128.289 198.245 134.086 198.245H279.075C284.873 198.245 289.579 193.548 289.579 187.762C289.579 181.976 284.873 177.279 279.075 177.279H134.086C128.291 177.279 123.582 181.975 123.582 187.762ZM134.086 184.929H197.033V190.595H134.086C132.518 190.595 131.247 189.328 131.247 187.761C131.247 186.196 132.518 184.929 134.086 184.929Z" fill="black" fill-opacity="0.7"/>
<path d="M348.356 253.789C346.445 253.789 344.891 255.354 344.891 257.264C344.891 259.187 346.445 260.738 348.356 260.738C350.27 260.738 351.838 259.187 351.838 257.264C351.837 255.356 350.268 253.789 348.356 253.789Z" fill="black" fill-opacity="0.7"/>
<path d="M344.889 245.543C344.889 247.455 346.428 249.018 348.355 249.018C350.268 249.018 351.836 247.467 351.836 245.543C351.836 243.635 350.268 242.068 348.355 242.068C346.435 242.068 344.889 243.632 344.889 245.543Z" fill="black" fill-opacity="0.7"/>
<path d="M339.615 242.621H299.243C298.825 242.621 298.496 242.949 298.496 243.367C298.496 243.785 298.825 244.113 299.243 244.113H339.615C340.033 244.113 340.362 243.785 340.362 243.367C340.362 242.949 340.033 242.621 339.615 242.621Z" fill="black" fill-opacity="0.7"/>
<path d="M339.615 247.975H299.243C298.825 247.975 298.496 248.317 298.496 248.72C298.496 249.138 298.825 249.466 299.243 249.466H339.615C340.033 249.466 340.362 249.138 340.362 248.72C340.362 248.317 340.033 247.975 339.615 247.975Z" fill="black" fill-opacity="0.7"/>
<path d="M339.615 253.342H299.243C298.825 253.342 298.496 253.67 298.496 254.088C298.496 254.505 298.825 254.834 299.243 254.834H339.615C340.033 254.834 340.362 254.505 340.362 254.088C340.362 253.67 340.033 253.342 339.615 253.342Z" fill="black" fill-opacity="0.7"/>
<path d="M339.615 258.695H299.243C298.825 258.695 298.496 259.038 298.496 259.441C298.496 259.859 298.825 260.187 299.243 260.187H339.615C340.033 260.187 340.362 259.859 340.362 259.441C340.362 259.038 340.033 258.695 339.615 258.695Z" fill="black" fill-opacity="0.7"/>
<path d="M380.39 262.08C380.808 262.08 381.137 261.738 381.137 261.334V241.189C381.137 240.772 380.808 240.443 380.39 240.443C379.986 240.443 379.643 240.772 379.643 241.189V261.334C379.643 261.738 379.987 262.08 380.39 262.08Z" fill="black" fill-opacity="0.7"/>
<path d="M373.337 262.08C373.756 262.08 374.085 261.738 374.085 261.334V241.189C374.085 240.772 373.756 240.443 373.337 240.443C372.919 240.443 372.59 240.772 372.59 241.189V261.334C372.59 261.738 372.919 262.08 373.337 262.08Z" fill="black" fill-opacity="0.7"/>
<path d="M366.286 262.08C366.705 262.08 367.034 261.738 367.034 261.334V241.189C367.034 240.772 366.705 240.443 366.286 240.443C365.868 240.443 365.539 240.772 365.539 241.189V261.334C365.539 261.738 365.868 262.08 366.286 262.08Z" fill="black" fill-opacity="0.7"/>
<path d="M359.234 262.08C359.638 262.08 359.981 261.738 359.981 261.334V241.189C359.981 240.772 359.638 240.443 359.234 240.443C358.815 240.443 358.486 240.772 358.486 241.189V261.334C358.488 261.738 358.815 262.08 359.234 262.08Z" fill="black" fill-opacity="0.7"/>
<path d="M387.443 262.08C387.861 262.08 388.19 261.738 388.19 261.334V241.189C388.19 240.772 387.861 240.443 387.443 240.443C387.039 240.443 386.695 240.772 386.695 241.189V261.334C386.695 261.738 387.039 262.08 387.443 262.08Z" fill="black" fill-opacity="0.7"/>
<path d="M348.356 300.566C350.27 300.566 351.838 299.001 351.838 297.092C351.838 295.168 350.27 293.617 348.356 293.617C346.445 293.617 344.891 295.168 344.891 297.092C344.889 299 346.443 300.566 348.356 300.566Z" fill="black" fill-opacity="0.7"/>
<path d="M348.356 288.845C350.27 288.845 351.838 287.279 351.838 285.37C351.838 283.446 350.27 281.881 348.356 281.881C346.445 281.881 344.891 283.446 344.891 285.37C344.889 287.279 346.443 288.845 348.356 288.845Z" fill="black" fill-opacity="0.7"/>
<path d="M299.243 283.941H339.615C340.033 283.941 340.362 283.598 340.362 283.195C340.362 282.777 340.033 282.449 339.615 282.449H299.243C298.825 282.449 298.496 282.777 298.496 283.195C298.496 283.597 298.825 283.941 299.243 283.941Z" fill="black" fill-opacity="0.7"/>
<path d="M299.243 289.292H339.615C340.033 289.292 340.362 288.964 340.362 288.547C340.362 288.129 340.033 287.801 339.615 287.801H299.243C298.825 287.801 298.496 288.129 298.496 288.547C298.496 288.964 298.825 289.292 299.243 289.292Z" fill="black" fill-opacity="0.7"/>
<path d="M299.243 294.662H339.615C340.033 294.662 340.362 294.319 340.362 293.916C340.362 293.498 340.033 293.17 339.615 293.17H299.243C298.825 293.17 298.496 293.498 298.496 293.916C298.496 294.319 298.825 294.662 299.243 294.662Z" fill="black" fill-opacity="0.7"/>
<path d="M299.243 300.013H339.615C340.033 300.013 340.362 299.685 340.362 299.267C340.362 298.85 340.033 298.521 339.615 298.521H299.243C298.825 298.521 298.496 298.85 298.496 299.267C298.496 299.686 298.825 300.013 299.243 300.013Z" fill="black" fill-opacity="0.7"/>
<path d="M380.39 301.893C380.808 301.893 381.137 301.565 381.137 301.147V281.002C381.137 280.599 380.808 280.256 380.39 280.256C379.986 280.256 379.643 280.599 379.643 281.002V301.147C379.643 301.565 379.987 301.893 380.39 301.893Z" fill="black" fill-opacity="0.7"/>
<path d="M373.337 301.893C373.756 301.893 374.085 301.565 374.085 301.147V281.002C374.085 280.599 373.756 280.256 373.337 280.256C372.919 280.256 372.59 280.599 372.59 281.002V301.147C372.59 301.565 372.919 301.893 373.337 301.893Z" fill="black" fill-opacity="0.7"/>
<path d="M366.286 301.893C366.705 301.893 367.034 301.565 367.034 301.147V281.002C367.034 280.599 366.705 280.256 366.286 280.256C365.868 280.256 365.539 280.599 365.539 281.002V301.147C365.539 301.565 365.868 301.893 366.286 301.893Z" fill="black" fill-opacity="0.7"/>
<path d="M359.234 301.893C359.638 301.893 359.981 301.565 359.981 301.147V281.002C359.981 280.599 359.638 280.256 359.234 280.256C358.815 280.256 358.486 280.599 358.486 281.002V301.147C358.488 301.565 358.815 301.893 359.234 301.893Z" fill="black" fill-opacity="0.7"/>
<path d="M387.443 301.893C387.861 301.893 388.19 301.565 388.19 301.147V281.002C388.19 280.599 387.861 280.256 387.443 280.256C387.039 280.256 386.695 280.599 386.695 281.002V301.147C386.695 301.565 387.039 301.893 387.443 301.893Z" fill="black" fill-opacity="0.7"/>
<path d="M348.356 340.379C350.27 340.379 351.838 338.828 351.838 336.904C351.838 334.995 350.27 333.445 348.356 333.445C346.445 333.445 344.891 334.996 344.891 336.904C344.889 338.828 346.443 340.379 348.356 340.379Z" fill="black" fill-opacity="0.7"/>
<path d="M348.356 328.658C350.27 328.658 351.838 327.107 351.838 325.184C351.838 323.274 350.27 321.709 348.356 321.709C346.445 321.709 344.891 323.274 344.891 325.184C344.889 327.107 346.443 328.658 348.356 328.658Z" fill="black" fill-opacity="0.7"/>
<path d="M299.243 323.753H339.615C340.033 323.753 340.362 323.425 340.362 323.008C340.362 322.604 340.033 322.262 339.615 322.262H299.243C298.825 322.262 298.496 322.604 298.496 323.008C298.496 323.425 298.825 323.753 299.243 323.753Z" fill="black" fill-opacity="0.7"/>
<path d="M299.243 329.121H339.615C340.033 329.121 340.362 328.778 340.362 328.375C340.362 327.957 340.033 327.629 339.615 327.629H299.243C298.825 327.629 298.496 327.957 298.496 328.375C298.496 328.778 298.825 329.121 299.243 329.121Z" fill="black" fill-opacity="0.7"/>
<path d="M299.243 334.474H339.615C340.033 334.474 340.362 334.146 340.362 333.728C340.362 333.325 340.033 332.982 339.615 332.982H299.243C298.825 332.982 298.496 333.325 298.496 333.728C298.496 334.146 298.825 334.474 299.243 334.474Z" fill="black" fill-opacity="0.7"/>
<path d="M299.243 339.841H339.615C340.033 339.841 340.362 339.499 340.362 339.095C340.362 338.678 340.033 338.35 339.615 338.35H299.243C298.825 338.35 298.496 338.678 298.496 339.095C298.496 339.499 298.825 339.841 299.243 339.841Z" fill="black" fill-opacity="0.7"/>
<path d="M380.39 341.721C380.808 341.721 381.137 341.393 381.137 340.975V320.83C381.137 320.412 380.808 320.084 380.39 320.084C379.986 320.084 379.643 320.412 379.643 320.83V340.975C379.643 341.393 379.987 341.721 380.39 341.721Z" fill="black" fill-opacity="0.7"/>
<path d="M373.337 341.721C373.756 341.721 374.085 341.393 374.085 340.975V320.83C374.085 320.412 373.756 320.084 373.337 320.084C372.919 320.084 372.59 320.412 372.59 320.83V340.975C372.59 341.393 372.919 341.721 373.337 341.721Z" fill="black" fill-opacity="0.7"/>
<path d="M366.286 341.721C366.705 341.721 367.034 341.393 367.034 340.975V320.83C367.034 320.412 366.705 320.084 366.286 320.084C365.868 320.084 365.539 320.412 365.539 320.83V340.975C365.539 341.393 365.868 341.721 366.286 341.721Z" fill="black" fill-opacity="0.7"/>
<path d="M359.234 341.721C359.638 341.721 359.981 341.393 359.981 340.975V320.83C359.981 320.412 359.638 320.084 359.234 320.084C358.815 320.084 358.486 320.412 358.486 320.83V340.975C358.488 341.393 358.815 341.721 359.234 341.721Z" fill="black" fill-opacity="0.7"/>
<path d="M387.443 341.721C387.861 341.721 388.19 341.393 388.19 340.975V320.83C388.19 320.412 387.861 320.084 387.443 320.084C387.039 320.084 386.695 320.412 386.695 320.83V340.975C386.695 341.393 387.039 341.721 387.443 341.721Z" fill="black" fill-opacity="0.7"/>
<path d="M51.0712 197.59H40V200.319H51.0712V197.59Z" fill="black" fill-opacity="0.7"/>
<path d="M45.5297 211.292C48.5928 211.292 51.0731 208.802 51.0731 205.76V201.809H40.002V205.76C40.0007 208.802 42.481 211.292 45.5297 211.292Z" fill="black" fill-opacity="0.7"/>
<path d="M82.4169 197.59H71.3457V200.319H82.4169V197.59Z" fill="black" fill-opacity="0.7"/>
<path d="M76.8754 211.292C79.9385 211.292 82.4188 208.802 82.4188 205.76V201.809H71.3477V205.76C71.3464 208.802 73.8267 211.292 76.8754 211.292Z" fill="black" fill-opacity="0.7"/>
<path d="M519.253 345.509H505.735V326.585C505.735 326.068 505.221 325.685 504.665 325.893L504.312 326.052V323.009H506.075C506.425 323.009 506.75 322.716 506.717 322.338L503.669 247.887L496.034 251.39C495.67 251.546 495.218 251.399 495.047 251.017C494.868 250.644 495.033 250.197 495.405 250.034L503.608 246.261L501.471 194.22C509.832 179.576 510.676 124.413 502.666 107.66C501.547 105.15 498.34 103.178 495.823 101.86C495.548 101.586 488.953 98.5292 484.916 97.9233C482.779 97.6107 479.866 97.4913 476.459 97.6252C476.459 96.4027 476.855 95.1813 477.326 92.6746L477.328 92.6674C479.824 87.7167 487.025 71.8137 477.989 69.1875C465.833 65.655 455.704 72.5547 458.068 77.3858C458.332 77.9241 458.929 78.3018 459.713 78.5734C459.351 80.5394 458.978 82.4403 458.978 84.9819C458.978 88.1428 459.635 91.4532 461.876 93.5411C462.085 93.7499 462.728 94.316 465.447 94.2122L465.537 98.6257C462.205 99.2521 451.985 101.906 445.008 107.304C444.963 107.349 444.902 107.379 444.873 107.424C441.512 110.838 437.672 117.773 434.071 125.377L432.935 120.591C432.876 120.368 432.681 120.218 432.458 120.204L370.332 119.279C370.153 119.279 370.033 119.338 369.928 119.458C369.839 119.577 369.808 119.741 369.839 119.89L380.611 165.384C380.126 165.923 380.277 167.003 381.149 167.308L385.064 168.754L385.228 171.975C386.614 179.342 398.711 181.488 405.309 177.015C411.121 177.672 425.031 178.819 433.892 175.837L436.581 175.852C437.193 184.709 439.031 190.927 442.125 194.312L436.581 245.726L445.95 250.036C446.323 250.2 446.488 250.648 446.308 251.02C446.135 251.41 445.638 251.55 445.322 251.393L436.402 247.292L428.319 322.296C428.292 322.628 428.568 323.011 428.977 323.011H431.996V326.258L412.373 337.402C412.268 337.463 412.178 337.553 412.103 337.658C407.236 345.695 407.446 345.105 407.4 345.514H396.151V315.453C396.151 315.05 395.822 314.707 395.403 314.707H384.601C384.601 314.692 384.601 314.692 384.601 314.677V307.579H395.403C395.822 307.579 396.151 307.236 396.151 306.833V275.639C396.151 275.221 395.822 274.893 395.403 274.893H384.601V267.751H395.403C395.822 267.751 396.151 267.423 396.151 267.005V235.811C396.151 235.393 395.822 235.065 395.403 235.065H344.932V2.05835C344.932 1.64077 344.603 1.3125 344.185 1.3125H70.0926C69.6741 1.3125 69.3452 1.64077 69.3452 2.05835V68.4006C66.0958 68.7989 62.9577 69.8694 60.8341 71.7461C57.118 75.0312 59.6635 92.5696 61.1474 93.7451C61.434 93.972 61.7943 94.1566 62.1886 94.3172V96.877C61.174 97.0435 60.2887 97.3368 59.6212 97.8026C58.869 98.3264 57.6621 100.417 57.3659 101.755C54.6776 101.96 50.9614 101.988 47.2476 103.44C28.6425 110.775 26.496 172.606 34.4726 185.407C34.8765 186.063 35.4436 186.674 36.1607 187.241C33.6647 192.49 29.0936 207.147 38.462 232.273C38.462 232.273 33.8002 301.029 33.77 321.712H40.0003C40.0003 322.024 40.0003 336.006 40.0003 335.386C34.9502 326.379 26.5238 317.373 12.9724 317.045C12.2166 317.045 11.9517 317.974 12.5237 318.387C12.6277 318.476 23.4461 326.603 28.6752 341.455C24.7909 335.282 18.6041 329.437 9.11711 329.212C8.41814 329.181 8.07228 330.11 8.65395 330.554C8.71321 330.599 13.4198 334.133 17.3948 340.695C14.7355 338.428 11.6421 337.236 8.14604 337.145C7.49423 337.086 7.06735 338.018 7.68288 338.487C7.72763 338.517 10.9843 340.977 13.6447 345.51H9.7399C8.39032 340.907 5.27032 336.882 1.12725 334.443C0.772928 334.234 0.313393 334.351 0.104184 334.706C-0.106235 335.061 0.0122767 335.518 0.367812 335.727C4.19888 337.983 7.08307 341.71 8.32139 345.97C8.08437 346.53 8.53907 347.001 8.99739 347.001C63.907 347.001 397.928 347.001 519.253 347.001C519.671 347.001 520 346.658 520 346.255C520 345.837 519.671 345.509 519.253 345.509ZM450.185 325.893L449.838 326.048V322.978H453.244C453.557 322.978 453.842 322.754 453.886 322.441C458.366 298.909 467.964 248.489 469.186 242.068L472.906 220.567C472.981 220.163 473.355 219.91 473.773 220.001C474.177 220.09 474.446 220.493 474.385 220.895C469.746 247.647 470.017 246.39 469.902 246.542L482.05 322.455C482.08 322.768 482.363 323.007 482.692 323.007H486.487V326.248L466.857 337.397C466.752 337.458 466.661 337.548 466.587 337.653C461.72 345.69 461.929 345.1 461.884 345.509H451.254V326.585C451.254 326.071 450.739 325.686 450.185 325.893ZM407.344 175.7L427.051 175.803C420.148 176.669 412.199 176.178 407.344 175.7ZM394.42 177.638C387.548 176.43 386.741 171.941 386.725 171.822L386.591 169.361L391.97 171.508C392.282 171.622 392.499 171.494 392.539 171.494C393.541 171.043 399.25 168.677 400.337 168.556C400.666 168.526 401.085 168.72 401.144 168.869C401.174 168.928 401.129 169.077 400.92 169.301V169.315C398.73 170.296 396.938 171.107 396.975 171.089C396.653 171.235 396.426 171.694 396.616 172.073C396.743 172.39 397.123 172.637 397.602 172.446C400.692 171.042 401.938 170.403 402.532 170.403C402.861 170.372 403.249 170.552 403.324 170.715C403.353 170.76 403.324 170.879 403.19 171.043V171.058C403.039 171.125 399.043 172.92 399.335 172.787C398.881 173.014 398.776 173.647 399.066 173.935C399.279 174.19 399.612 174.261 399.783 174.203C399.866 174.203 404.087 172.276 404.012 172.309C404.027 172.309 404.027 172.295 404.043 172.295C404.266 172.236 404.431 172.191 404.536 172.175C404.879 172.161 405.283 172.354 405.343 172.504C405.373 172.563 405.283 172.787 404.924 173.1C404.91 173.1 404.91 173.114 404.895 173.114C395.379 177.43 407.31 172.021 400.845 174.949C400.472 175.113 400.293 175.561 400.472 175.932C400.641 176.332 401.108 176.455 401.458 176.305C404.769 174.819 404.781 174.796 405.298 174.56C405.501 174.687 405.53 174.744 405.387 174.933C404.998 175.844 400.257 178.655 394.42 177.638ZM406.866 174.209C406.777 173.986 406.657 173.777 406.478 173.597C407.406 172.252 406.473 170.893 404.835 170.704C404.772 169.577 403.652 168.921 402.653 168.9C402.653 167.723 401.353 166.982 400.248 167.066C399.016 167.131 393.661 169.401 392.464 169.899C392.308 169.841 382.448 166.197 383.066 166.425C383.22 166.427 443.521 167.321 443.369 167.319C485.941 178.287 465.571 173.038 471.325 174.522C471.504 174.523 469.983 174.518 406.866 174.209ZM473.369 176.028C474.683 176.028 475.111 174.198 473.847 173.642V169.064C473.847 168.841 473.713 168.647 473.504 168.587L442.172 159.641C441.4 156.379 444.968 171.457 434.627 127.745C437.032 122.541 439.557 117.56 441.978 113.729C441.769 115.101 441.814 116.666 442.322 118.381C442.436 118.738 442.797 119 443.248 118.888C443.652 118.769 443.876 118.367 443.756 117.964C442.808 114.804 443.581 111.683 445.519 109.285C446.321 108.29 446.54 108.348 446.669 107.957C453.527 102.962 462.776 100.74 465.569 100.158L465.719 107.957C465.719 108.181 465.823 108.389 466.004 108.523C466.063 108.568 466.123 108.613 466.197 108.643C466.227 108.657 466.256 108.657 466.287 108.657C466.346 108.688 466.406 108.688 466.466 108.688C466.659 108.688 466.854 108.613 467.004 108.464L476.133 99.1302C479.614 98.9806 482.572 99.0711 484.693 99.3981C487.143 99.7566 491.372 101.233 494.958 103.096C495.122 103.246 495.526 103.603 496.004 104.154C498.598 107.021 500.281 110.627 499.38 114.518C499.276 114.921 499.53 115.323 499.918 115.428C500.362 115.516 500.73 115.259 500.83 114.876C501.665 111.647 500.773 108.374 498.963 105.571C499.997 106.376 500.712 107.073 501.264 108.166C501.264 108.399 504.311 114.016 505.941 129.668C506.761 136.929 507.757 158.856 502.266 163.605C498.829 166.573 490.462 165.485 482.005 163.263C476.626 160.161 471.143 153.809 471.068 153.72C470.8 153.407 470.321 153.377 470.008 153.645C469.694 153.913 469.664 154.375 469.933 154.689C470.158 154.957 473.459 158.79 477.538 161.995C469.26 159.49 461.73 156.374 459.668 155.494L462.522 142.253L486.084 145.892L491.224 150.843C491.496 151.114 491.978 151.133 492.284 150.828C492.568 150.53 492.568 150.068 492.27 149.77L487.145 144.849V144.835C486.905 143.597 485.71 136.738 485.889 130.207C485.889 129.799 485.562 129.447 485.157 129.447C484.799 129.447 484.395 129.76 484.395 130.163C484.245 135.933 485.126 141.943 485.516 144.299L462.058 140.676C461.669 140.617 461.296 140.87 461.206 141.258L461.101 141.764C459.308 140.572 455.289 137.947 452.913 136.964C450.597 135.994 443.051 135.711 442.723 135.696C435.875 135.466 435.464 140.967 442.858 141.586L446.205 142.003C445.397 143.068 445.318 144.422 446.19 145.612C445.069 146.85 445.443 148.087 446.071 149.221C445.026 150.688 445.656 152.628 447.056 153.559C449.427 155.749 454.859 155.879 458.188 155.214C458.185 155.455 457.742 156.286 458.501 156.631C459.323 156.989 470.32 161.76 481.45 164.653C484.52 166.408 486.482 166.379 486.636 166.413C486.92 166.413 487.188 166.234 487.308 165.981C491.96 166.847 499.648 167.829 503.236 164.742C504.715 163.459 505.836 160.939 506.628 157.614C506.252 166.835 504.808 185.057 500.367 193.147C480.567 193.147 462.689 193.147 443.082 193.147C439.497 188.937 438.462 181.359 438.092 175.85L473.369 176.028ZM447.61 148.904C446.039 146.325 447.929 146.722 447.998 145.683C447.998 145.474 447.909 145.266 447.759 145.116C446.788 144.231 446.787 143.237 448.088 142.223C448.845 142.357 449.474 142.532 450.119 143.014C450.866 143.592 451.805 142.44 451.001 141.821C449.99 141.086 448.742 140.733 447.983 140.733C447.831 140.682 443.173 140.111 443.022 140.092C439.914 139.838 438.929 138.794 438.958 138.347C438.972 137.959 439.854 137.169 442.275 137.169C443.711 137.169 450.558 137.594 452.33 138.332C454.796 139.362 459.322 142.358 460.712 143.297L458.426 153.646C451.159 155.239 445.271 152.139 447.504 149.814C447.744 149.575 447.79 149.202 447.61 148.904ZM466.9 194.637V204.731C466.9 206.848 468.633 208.579 470.754 208.579H472.92H473.233C473.637 208.579 473.98 208.907 473.98 209.324C473.98 209.742 473.637 210.07 473.233 210.07H470.753C467.809 210.07 465.404 207.67 465.404 204.732V194.638C465.556 194.637 467.05 194.637 466.9 194.637ZM493.519 345.509L495.685 343.429L496.864 345.509H493.519ZM502.818 326.718L492.354 331.384L487.984 326.105C487.983 326.103 487.981 326.103 487.981 326.102V323.009H502.818V326.718ZM497.125 253.745L502.011 251.493C502.384 251.314 502.832 251.478 502.996 251.851C503.175 252.224 503.011 252.672 502.637 252.851L497.751 255.087C497.452 255.257 496.958 255.144 496.75 254.729C496.588 254.357 496.753 253.909 497.125 253.745ZM462.895 92.4501C459.518 89.3183 460.429 82.4897 461.176 78.9403C461.177 78.9343 461.179 78.9306 461.18 78.9258C465.375 79.592 472.124 78.4865 472.124 78.4865C470.843 80.9437 473.749 82.1723 473.749 82.1723L475.227 86.5473C474.906 81.6775 477.453 81.1598 477.59 84.0599C475.488 94.6756 474.836 96.3025 474.967 98.1756L467.183 106.139L467.048 99.2352L467.004 96.7454C470.391 95.1391 471.789 90.8546 471.851 90.6688C472.096 89.9036 471.02 89.4703 470.651 90.1739C470.127 91.2179 467.854 92.222 466.333 92.7011C466.15 92.6058 463.389 92.9425 462.895 92.4501ZM406.866 140.062C409.152 140.062 411.005 141.925 411.005 144.207C411.005 146.504 409.152 148.353 406.866 148.353C404.595 148.353 402.743 146.504 402.743 144.207C402.741 141.926 404.595 140.062 406.866 140.062ZM438.361 251.851C438.526 251.478 438.973 251.314 439.347 251.493L444.233 253.745C444.606 253.909 444.771 254.357 444.592 254.729C444.41 255.136 443.91 255.26 443.606 255.087L438.721 252.851C438.347 252.672 438.182 252.224 438.361 251.851ZM448.343 322.978V326.714L437.873 331.382L433.502 326.103C433.5 326.1 433.494 326.097 433.492 326.094V323.008L448.343 322.978ZM441.203 343.429L442.382 345.509H439.039L441.203 343.429ZM19.6659 345.509H15.3632C13.7052 342.452 11.7619 340.246 10.3736 338.888C14.0329 339.589 17.1408 341.811 19.6659 345.509ZM40.0003 338.59V343.51C40.0003 344.482 40.6037 344.984 40.9121 345.509H31.4541C27.9133 331.328 18.9935 322.083 15.1685 318.669C27.8988 319.981 35.5779 329.688 40.0003 338.59ZM35.7423 184.632C29.7418 175.001 29.6668 135.311 38.82 115.354V115.34C38.8236 115.333 38.826 115.327 38.8297 115.319C38.7112 117.394 39.1622 119.727 40.5916 122.256C40.7283 122.5 40.9822 122.635 41.2422 122.635C41.8082 122.635 42.1758 122.024 41.8928 121.524C37.5768 113.88 43.4299 106.548 47.7846 104.828C51.0424 103.561 55.5241 103.218 59.3793 103.218C63.0048 103.218 70.1796 103.824 70.8387 103.934C75.2611 104.351 83.1059 105.484 89.4849 108.303C89.4994 108.303 89.4994 108.303 89.5152 108.317C89.5212 108.319 89.5273 108.323 89.5321 108.324C90.2649 108.9 95.2388 113.014 95.159 118.415C95.1529 118.826 95.4831 119.166 95.8942 119.172C95.8991 119.172 95.9027 119.172 95.9063 119.172C96.3139 119.172 96.6476 118.845 96.6537 118.437C96.6996 115.339 95.3464 112.677 93.8795 110.704C93.8832 110.704 93.8928 110.704 93.8928 110.716C101.225 115.725 107.713 125.974 110.209 134.053C110.21 134.057 110.211 134.057 110.212 134.062L109.607 139.767C109.563 140.177 109.86 140.544 110.27 140.587C110.676 140.631 111.048 140.337 111.092 139.924L111.69 134.287L111.703 134.261L127.825 115.592C130.94 118.085 137.309 123.182 140.285 125.568C136.431 133.67 129.591 144.369 122.565 150.753C122.564 150.755 122.563 150.755 122.562 150.756C123.945 147.498 124 144.227 124.002 144.023C124.004 143.611 123.674 143.275 123.261 143.272C122.864 143.234 122.511 143.599 122.507 144.012C122.507 144.079 122.401 150.847 118.369 154.104C118.368 154.105 118.367 154.107 118.365 154.108C115.109 156.3 111.613 157.746 107.997 157.925C101.175 158.294 93.3934 145.121 90.5709 138.91C89.9735 137.562 87.5271 132.036 87.6843 132.391C87.5174 132.013 87.07 131.846 86.6999 132.012C86.3214 132.178 86.1509 132.619 86.319 132.995L89.1717 139.426V139.435C93.1007 156.374 94.8784 179.084 91.1296 184.602C86.926 190.891 72.0577 192.067 64.4294 191.997C57.4396 191.997 39.3763 190.478 35.7423 184.632ZM78.2953 91.8238C79.715 90.2427 79.2966 82.474 78.8624 77.5838C78.8624 77.5826 78.8624 77.5813 78.8624 77.5801C80.6486 77.4848 82.7806 76.6834 82.9535 73.4273C83.1397 69.8971 77.0376 67.8925 70.8399 68.2618V53.3387H343.441V235.062H292.984C292.565 235.062 292.237 235.391 292.237 235.808V246.082C244.469 246.082 135.522 246.082 95.6258 246.082C98.21 216.692 93.0862 189.062 92.3836 185.423C96.2836 179.653 94.6547 159.537 91.756 144.417C95.1033 150.322 101.303 159.433 107.743 159.433C107.848 159.433 107.967 159.433 108.072 159.419C118.045 158.941 126.839 149.723 132.95 141.034C136.85 152.441 147.488 160.06 159.589 160.06H242.094C257.618 160.06 270.243 147.445 270.243 131.951C270.243 118.04 260.038 106.215 246.397 104.142C249.703 79.8165 221.159 64.9127 203.041 80.6517C188.986 54.9077 149.829 64.9067 149.829 94.1192C149.829 94.2677 149.83 94.4173 149.844 94.5658C147.351 94.3027 145.081 95.5071 142.868 96.6127C139.029 98.5062 133.754 101.087 131.826 104.501C130.547 106.782 129.507 111.263 128.958 113.45C128.699 113.715 128.758 113.898 128.675 114.357L128.197 113.985C127.884 113.731 127.421 113.776 127.167 114.088L111.269 132.504C109.969 128.746 105.502 117.757 95.6258 110.137C91.6327 107.041 86.5246 105.513 82.1916 104.292C81.8736 103.33 78.8491 100.471 77.7245 99.8845C76.8634 99.4355 75.7049 98.9661 74.394 98.5292V98.5219L74.5283 93.8839C75.4256 93.733 76.9953 93.2853 78.2953 91.8238ZM331.099 27.6913C331.099 28.1089 330.77 28.4372 330.351 28.4372H196.703C196.299 28.4372 195.956 28.1089 195.956 27.6913C195.956 27.2882 196.299 26.9454 196.703 26.9454H330.351C330.771 26.9454 331.099 27.2882 331.099 27.6913ZM154.808 24.0079C154.808 28.7497 150.938 32.5973 146.187 32.5973C141.435 32.5973 137.566 28.7497 137.566 24.0079C137.566 19.2516 141.435 15.404 146.187 15.404C150.938 15.404 154.808 19.2516 154.808 24.0079ZM126.748 24.0079C126.748 28.7497 122.893 32.5973 118.142 32.5973C113.376 32.5973 109.521 28.7497 109.521 24.0079C109.521 19.2516 113.376 15.404 118.142 15.404C122.894 15.404 126.748 19.2516 126.748 24.0079ZM98.7047 24.0079C98.7047 28.7497 94.8349 32.5973 90.0835 32.5973C85.3322 32.5973 81.4624 28.7497 81.4624 24.0079C81.4624 19.2516 85.3322 15.404 90.0835 15.404C94.8349 15.404 98.7047 19.2516 98.7047 24.0079ZM394.658 266.255C368.833 266.247 319.512 266.222 293.731 266.255C293.731 265.664 293.731 236.377 293.731 236.552C328.553 236.552 358.428 236.552 394.658 236.552V266.255ZM198.119 278.919H213.292C213.644 280.791 215.295 282.221 217.279 282.221C219.264 282.221 220.914 280.791 221.266 278.919H229.366C229.729 281.321 231.802 283.184 234.319 283.184C236.837 283.184 238.91 281.322 239.273 278.919C295.175 278.875 291.882 279.013 292.238 278.818V292.609C291.883 292.413 292.333 292.551 282.606 292.508C282.238 290.099 280.168 288.242 277.654 288.242C275.139 288.242 273.069 290.1 272.701 292.508H263.008C262.655 290.683 261.046 289.298 259.116 289.298C257.186 289.298 255.578 290.683 255.223 292.508H184.678V247.571H197.372V278.172C197.372 278.586 197.705 278.919 198.119 278.919ZM224.398 305.56C224.031 303.152 221.96 301.296 219.446 301.296C216.932 301.296 214.862 303.152 214.494 305.56H205.006C204.646 303.503 202.855 301.931 200.691 301.931C198.529 301.931 196.737 303.502 196.376 305.56H170.324V247.572H183.182V293.253C183.182 293.665 183.515 293.999 183.929 293.999H255.221C255.57 295.819 257.181 297.207 259.114 297.207C261.046 297.207 262.657 295.819 263.007 293.999H272.698C273.061 296.401 275.133 298.264 277.651 298.264C280.169 298.264 282.242 296.402 282.604 293.999C292.339 293.956 291.882 294.093 292.237 293.898V305.66C291.877 305.463 294.915 305.605 224.398 305.56ZM204.381 88.7257C204.473 89.1421 204.874 89.4184 205.291 89.3267C205.709 89.2495 205.985 88.8343 205.894 88.4179C205.487 86.4242 204.734 84.0587 203.751 82.0287C220.961 66.6506 248.656 81.1356 244.815 104.664L244.681 105.424L245.457 105.528C258.74 107.168 268.751 118.531 268.751 131.95C268.751 146.623 256.798 158.567 242.095 158.567H159.591C147.951 158.567 137.747 151.126 134.19 140.031C134.131 139.853 134.071 139.673 134.026 139.494C136.985 135.174 140.363 129.081 141.9 125.656C142.034 125.344 141.959 125 141.705 124.776C141.795 124.866 141.869 124.971 141.914 125.089C145.166 123.647 149.472 120.709 150.939 117.276C152.363 113.929 151.08 111.284 149.176 108.15L148.847 107.629L148.264 107.838C149.639 107.178 151.101 106.682 152.601 106.275C153.63 108.369 154.648 110.136 156.299 112.109C156.454 112.294 156.669 112.387 156.901 112.387C157.543 112.387 157.911 111.64 157.488 111.123C156.163 109.518 155.047 107.817 154.098 105.862L154.241 105.825C153.993 105.147 152.907 103.235 152.075 99.6661L151.971 99.0868C152.141 98.8225 152.363 98.5714 152.554 98.0259C152.554 98.0259 152.554 98.0259 152.554 98.0114C152.952 96.9289 152.659 95.7534 151.508 95.0739C151.522 95.0884 151.538 95.0884 151.552 95.0884C151.522 94.7806 151.477 94.4897 151.477 93.9551C151.476 62.1864 198.039 57.5894 204.381 88.7257ZM144.155 103.977C147.193 102.4 148.894 101.808 150.569 100.481C150.901 101.931 151.37 103.503 151.956 104.88C149.765 105.507 147.534 106.476 147.233 106.677C147.397 106.871 147.546 107.064 147.696 107.273C146.381 105.468 145.142 104.498 144.155 103.977ZM150.703 96.352C150.745 96.9095 150.812 97.4647 150.89 98.0126C149.55 100.148 145.517 101.458 141.918 103.447C140.29 104.119 138.852 105.83 138.633 108.055C138.593 108.465 138.895 108.83 139.305 108.87C139.735 108.907 140.082 108.596 140.122 108.201C140.329 106.078 141.843 105.147 142.321 104.903C142.33 104.903 142.334 104.903 142.334 104.903C145.113 105.261 147.669 109.709 148.804 112.254C150.892 116.968 145.713 120.806 141.05 123.019L130.425 113.764C130.943 111.682 131.956 107.302 133.13 105.231C135.085 101.79 141.467 98.9975 145.083 97.1944C147.752 95.8318 149.8 95.8246 150.703 96.352ZM65.5045 341.14C65.5045 340.987 65.5045 331.026 65.5045 331.18C65.5045 329.056 65.5045 325.241 65.5045 325.394H81.402C82.0598 325.677 85.5402 327.257 88.4546 331.582C88.5888 331.79 88.8283 331.91 89.0665 331.91C89.1415 331.91 95.6113 331.969 101.139 333.446C104.83 334.43 107.623 337.442 108.475 341.14C92.9278 341.14 81.3028 341.14 65.5045 341.14ZM80.6111 323.902H65.5045V321.71H80.6099V323.902H80.6111ZM69.8531 196.844C69.8531 196.401 70.205 196.098 70.6005 196.098C70.8036 196.098 83.3199 196.098 83.1663 196.098C83.5847 196.098 83.9137 196.427 83.9137 196.844V205.761C83.9137 209.637 80.761 212.783 76.8767 212.783C72.9828 212.783 69.8543 209.6 69.8543 205.761V196.844H69.8531ZM52.207 344.525C52.3412 344.406 52.5202 344.317 52.7149 344.317H54.6123C54.807 344.317 54.9714 344.391 55.1057 344.525L56.136 345.509H51.2347L52.207 344.525ZM64.011 321.71C64.011 321.977 64.011 328.831 64.011 328.585C61.486 325.706 58.9912 324.455 58.1096 324.066V321.71C58.2632 321.71 64.1646 321.71 64.011 321.71ZM41.495 321.71H56.6161V323.902H41.495V321.71ZM41.495 325.394H57.3925C58.0201 325.662 61.2018 327.109 64.011 330.971V341.14C42.9836 341.14 57.3356 341.14 41.495 341.14C41.495 335.267 41.495 331.216 41.495 325.394ZM29.258 345.509H21.504C18.4711 338.128 13.8685 333.193 11.3434 330.882C20.4725 332.088 26.0449 339.157 29.258 345.509ZM173.918 344.957H171.035C169.929 342.93 168.659 341.379 167.643 340.335C170.078 340.961 172.185 342.497 173.918 344.957ZM175.786 344.957C173.589 339.678 170.376 336.041 168.375 334.132C174.889 335.235 178.953 340.305 181.359 344.957H175.786ZM195.613 344.957C198.019 340.305 202.083 335.235 208.582 334.132C206.595 336.04 203.367 339.678 201.186 344.957H195.613ZM203.038 344.957C204.786 342.512 206.878 340.961 209.313 340.335C208.298 341.393 207.028 342.93 205.921 344.957H203.038ZM193.491 344.957H183.466C180.791 334.43 174.471 327.586 171.349 324.723C177.983 325.588 183.525 329.524 187.844 336.487C188.135 336.974 188.832 336.955 189.113 336.487C193.432 329.539 198.975 325.587 205.624 324.723C202.486 327.586 196.166 334.43 193.491 344.957ZM394.658 345.509H293.731V316.194H394.658V345.509ZM303.787 314.673C303.787 314.688 303.787 314.688 303.787 314.703H292.984C292.565 314.703 292.237 315.046 292.237 315.449V345.51H217.461C217.976 338.118 221.763 331.049 227.669 326.551C227.996 326.301 228.06 325.833 227.81 325.506C227.557 325.177 227.09 325.115 226.763 325.366C220.492 330.143 216.476 337.658 215.961 345.51H207.327C209.358 341.871 211.988 339.904 212.019 339.874C212.582 339.468 212.345 338.566 211.556 338.532C209.179 338.591 207.013 339.337 205.1 340.724C208.015 336.221 211.227 333.805 211.271 333.774C211.828 333.374 211.608 332.475 210.808 332.432C204.07 332.596 199.483 336.414 196.434 340.722C200.587 330.225 208.223 324.469 208.312 324.409C208.877 323.978 208.579 323.067 207.849 323.067C199.99 323.261 193.491 327.168 188.47 334.712C183.479 327.167 176.966 323.26 169.121 323.067C168.411 323.033 168.048 323.97 168.658 324.409C168.747 324.468 176.337 330.195 180.491 340.648C177.428 336.368 172.857 332.595 166.147 332.431C165.392 332.431 165.138 333.356 165.684 333.773C165.729 333.803 168.941 336.218 171.87 340.722C169.957 339.336 167.776 338.59 165.4 338.531C164.667 338.531 164.373 339.443 164.937 339.873C164.967 339.903 167.582 341.856 169.628 345.509H109.597C110.001 344.972 110.255 344.301 110.255 343.571C110.255 338.143 106.669 333.371 101.53 331.999C96.5388 330.672 90.9966 330.463 89.4716 330.434C86.5137 326.199 83.1361 324.5 82.1058 324.066V321.71H85.2584C87.2308 309.364 89.4716 277.752 91.3098 271.042C93.4164 263.393 94.7309 255.43 95.4939 247.572H168.833V306.306C168.833 306.717 169.167 307.052 169.581 307.052H196.378C196.733 309.105 198.526 310.682 200.694 310.682C202.861 310.682 204.654 309.105 205.01 307.052H214.495C214.858 309.455 216.931 311.318 219.449 311.318C221.968 311.318 224.039 309.455 224.402 307.052C294.868 307.003 291.885 307.154 292.252 306.942C292.253 306.949 292.252 306.956 292.255 306.964C292.314 307.306 292.614 307.575 292.986 307.575H303.789V314.673H303.787ZM394.658 306.084C369.621 306.067 316.082 305.994 293.731 306.084V276.381H394.658V306.084ZM303.787 274.889H292.984C292.565 274.889 292.237 275.218 292.237 275.635V277.53C291.879 277.333 294.875 277.473 239.27 277.429C238.903 275.02 236.832 273.164 234.318 273.164C231.803 273.164 229.734 275.021 229.366 277.429H221.265C220.911 275.552 219.261 274.126 217.279 274.126C215.297 274.126 213.648 275.551 213.292 277.429H198.865V247.572H292.237V267.001C292.237 267.419 292.565 267.747 292.984 267.747H303.787V274.889ZM63.682 94.7372C67.2168 95.384 72.2125 94.3316 71.8424 92.1484C71.366 89.3364 69.7189 82.8783 72.0613 81.8585C73.7809 81.1091 75.0507 84.6488 75.0507 84.6488L74.9781 80.893C74.9781 80.893 78.8588 80.3161 76.4003 77.3339C76.4003 77.3339 76.774 77.4377 77.3375 77.5138C77.8756 83.7002 77.9651 89.9446 77.173 90.8245C75.7243 92.4501 73.8861 92.4646 73.8112 92.4501C73.452 92.4646 73.0638 92.7627 73.0493 93.1803L72.9151 97.863C69.7926 96.9421 67.0657 96.5789 63.682 96.7285V94.7372ZM61.8294 193.43C52.4331 215.686 63.7715 228.858 63.7715 229.425C63.7715 229.425 63.786 229.44 63.786 229.455C63.8006 229.485 63.8151 229.514 63.8151 229.545C63.9263 229.764 64.1234 226.891 60.0505 271.818C60.0203 272.205 59.6913 272.503 59.3032 272.503H59.2439C58.8255 272.459 58.5268 272.1 58.557 271.683C59.3963 262.461 56.4952 294.355 62.3518 229.961C53.5215 216.406 56.6149 202.197 60.2452 193.368C60.7833 193.4 61.307 193.43 61.8294 193.43ZM38.5068 196.844C38.5068 196.427 38.8357 196.098 39.2541 196.098H51.8188C52.2372 196.098 52.5661 196.427 52.5661 196.844V205.761C52.5661 209.637 49.4135 212.783 45.5292 212.783C41.6594 212.783 38.5068 209.637 38.5068 205.761V196.844Z" fill="black" fill-opacity="0.7"/>
<path d="M404.056 63.7161C422.065 63.7161 435.985 49.0549 435.985 31.8508C435.985 14.1555 421.573 0 404.056 0C385.698 0 372.127 14.9665 372.127 31.8508C372.127 49.2757 386.242 63.7161 404.056 63.7161ZM373.636 32.6027H384.543C384.831 33.8047 385.79 34.7473 387.007 34.9971C387.247 39.5447 387.994 43.8098 389.159 47.5813C386.574 48.9378 384.153 50.683 381.988 52.7552C376.76 47.2699 373.816 40.1602 373.636 32.6027ZM403.309 1.53636H403.31V18.312H403.309C398.946 18.207 394.747 17.2089 390.922 15.36C393.597 7.39577 398.125 1.99859 403.309 1.53636ZM419.714 31.111H404.805V19.8013C408.6 19.7265 412.304 18.9661 415.755 17.6096C415.756 17.6084 415.759 17.6084 415.76 17.6072C416.3 18.4363 417.215 18.9891 418.264 19.0506C418.264 19.053 418.265 19.0542 418.265 19.0567C419.147 22.7401 419.655 26.8109 419.714 31.1049V31.111ZM390.938 48.3573C394.763 46.5084 398.961 45.5091 403.309 45.4053H403.31V62.1809H403.309C398.125 61.7175 393.597 56.3203 390.938 48.3573ZM390.776 32.6027H403.31V43.9136H403.309C398.797 44.0029 394.448 45.0468 390.474 46.9103C389.414 43.3162 388.727 39.2755 388.488 34.9513C388.488 34.9477 388.488 34.9452 388.488 34.9416C389.62 34.6399 390.502 33.7444 390.776 32.6027ZM404.805 62.1797V45.4053C408.256 45.4801 411.601 46.1354 414.754 47.329C414.756 47.3303 414.758 47.3315 414.761 47.3315C414.786 48.5625 415.508 49.6137 416.548 50.129C416.548 50.1302 416.547 50.1314 416.547 50.1314V50.1459C413.829 57.1241 409.601 61.7464 404.805 62.1797ZM418.367 44.0994C416.891 43.9148 415.663 44.7053 415.093 45.8567C415.09 45.8554 415.085 45.853 415.081 45.8518C411.825 44.6437 408.359 43.9884 404.804 43.9136V32.6027H419.713C419.653 36.6856 419.189 40.5609 418.368 44.0934C418.369 44.0946 418.368 44.097 418.367 44.0994ZM415.27 16.1988C415.263 16.2024 415.254 16.206 415.247 16.2096C411.96 17.507 408.435 18.2372 404.805 18.312V1.53636C409.54 1.95515 413.738 6.50268 416.458 13.3457C416.46 13.3505 416.461 13.3566 416.464 13.3614C415.636 14.0167 415.147 15.0124 415.27 16.1988ZM403.309 19.8025H403.31V31.1122H390.776C390.501 29.9705 389.618 29.075 388.486 28.772C388.486 28.7648 388.486 28.7564 388.488 28.7491C388.713 24.4393 389.414 20.3842 390.474 16.8046C394.448 18.6692 398.797 19.7132 403.309 19.8025ZM383.048 53.8148C385.035 51.8911 387.247 50.2811 389.622 49.0139C391.58 54.7103 394.493 59.1685 397.944 61.6137C392.72 60.6361 386.886 57.6443 383.048 53.8148ZM414.365 60.4503C405.749 63.5025 413.698 61.5014 417.951 50.4742C417.951 50.473 417.952 50.4718 417.952 50.4706C417.957 50.4706 417.962 50.4718 417.967 50.4718C418.692 50.4718 419.354 50.2219 419.892 49.8176H419.893C421.746 50.9364 423.479 52.2785 425.077 53.8136C422.621 56.2817 418.567 58.9634 414.365 60.4503ZM426.125 52.7564C424.496 51.1911 422.733 49.8188 420.851 48.6711C420.849 48.6699 420.847 48.6687 420.845 48.6675C421.59 47.1504 421.032 45.4753 419.777 44.6196C420.642 40.9265 421.148 36.8763 421.209 32.6039H434.476C434.295 40.1602 431.353 47.2699 426.125 52.7564ZM434.476 31.1049C434.476 31.1074 434.476 31.1098 434.476 31.111H421.209V31.1049C421.15 26.736 420.626 22.5759 419.7 18.8177C420.852 18.3313 421.662 17.1908 421.662 15.8632C421.662 15.4469 421.577 15.0522 421.433 14.6877C423.092 13.6136 424.66 12.3621 426.125 10.9597C431.354 16.4474 434.297 23.5595 434.476 31.1049ZM425.077 9.90125C423.673 11.2433 422.164 12.4357 420.566 13.4652C420.564 13.4652 420.563 13.4664 420.563 13.4664C419.811 12.805 418.811 12.5081 417.771 12.7314C415.829 7.99076 413.214 4.26391 410.181 2.11687C415.189 3.0691 420.642 5.65062 425.077 9.90125ZM397.93 2.11687C394.493 4.56201 391.58 9.02023 389.622 14.7022C387.231 13.4193 385.035 11.8093 383.032 9.90125C387.309 5.8051 392.709 3.11134 397.93 2.11687ZM381.988 10.9597C384.153 13.0476 386.574 14.7771 389.159 16.1493C387.994 19.922 387.247 24.1714 387.007 28.7045C387.007 28.7093 387.007 28.7129 387.007 28.7177C385.79 28.9688 384.832 29.9101 384.543 31.1122H373.636C373.636 31.1098 373.636 31.1074 373.636 31.1061C373.815 23.5595 376.759 16.4474 381.988 10.9597Z" fill="black" fill-opacity="0.7"/>
<path d="M207.056 315.564C200.253 316.088 194.974 320.771 190.221 325.077C189.916 325.353 189.893 325.825 190.17 326.129C190.447 326.433 190.919 326.458 191.225 326.18C195.842 322.001 200.836 317.538 207.169 317.05C207.58 317.017 207.889 316.66 207.856 316.249C207.826 315.839 207.433 315.537 207.056 315.564Z" fill="black" fill-opacity="0.7"/>
<path d="M53.5765 184.509C53.5886 184.51 53.6019 184.51 53.6127 184.51C54.0094 184.51 54.3395 184.2 54.3589 183.801C54.3794 183.39 54.0626 183.04 53.6502 183.019C47.0619 182.693 41.8692 177.238 39.6453 171.978C37.0646 165.868 37.1493 158.955 37.5738 152.998C38.0587 146.18 39.0685 139.348 40.5752 132.688C40.6672 132.286 40.4144 131.886 40.0117 131.796C39.6078 131.705 39.2087 131.959 39.1192 132.358C37.5943 139.091 36.5737 145.999 36.0827 152.892C35.6461 159.024 35.5663 166.157 38.2679 172.556C41.2029 179.501 47.2119 184.192 53.5765 184.509Z" fill="black" fill-opacity="0.7"/>
<path d="M85.0797 137.973C85.2623 138.348 85.7121 138.497 86.0786 138.318C86.4486 138.138 86.6034 137.693 86.4244 137.322L84.8293 134.042C84.6479 133.673 84.2029 133.519 83.8305 133.697C83.4604 133.877 83.3056 134.322 83.4846 134.692L85.0797 137.973Z" fill="black" fill-opacity="0.7"/>
<path d="M113.665 140.588C114.059 140.627 114.437 140.33 114.473 139.909L114.728 136.981C114.764 136.571 114.46 136.21 114.049 136.174C113.651 136.144 113.276 136.441 113.241 136.852L112.986 139.78C112.948 140.19 113.253 140.553 113.665 140.588Z" fill="black" fill-opacity="0.7"/>
<path d="M485.889 149.44C485.605 149.142 485.127 149.142 484.843 149.426C484.544 149.724 484.53 150.186 484.828 150.484L487.383 153.109C487.663 153.388 488.114 153.421 488.444 153.124C488.728 152.826 488.743 152.363 488.459 152.065L485.889 149.44Z" fill="black" fill-opacity="0.7"/>
<path d="M464.801 88.1235C461.867 88.8476 466.441 86.3349 464.53 81.3396C464.384 80.9546 463.95 80.7615 463.567 80.9088C463.18 81.0548 462.988 81.4857 463.136 81.8719C464.581 85.6578 461.443 87.123 462.515 88.9056C463.072 89.8349 464.113 89.8264 465.158 89.5742C465.558 89.4764 465.802 89.0721 465.704 88.6726C465.609 88.2719 465.207 88.0257 464.801 88.1235Z" fill="black" fill-opacity="0.7"/>
<path d="M411.093 188.215L408.827 190.248C408.518 190.523 408.494 190.993 408.77 191.3C409.047 191.608 409.522 191.629 409.824 191.355L412.091 189.324C412.396 189.049 412.423 188.578 412.147 188.272C411.87 187.963 411.399 187.94 411.093 188.215Z" fill="black" fill-opacity="0.7"/>
<path d="M35.2942 83.8028L37.5616 81.7716C37.8676 81.4964 37.8942 81.0257 37.6184 80.7192C37.3415 80.4114 36.8699 80.3861 36.5639 80.6625L34.2965 82.6937C33.9905 82.9688 33.9639 83.4395 34.2397 83.7461C34.5142 84.0514 34.987 84.0779 35.2942 83.8028Z" fill="black" fill-opacity="0.7"/>
<path d="M114.259 275.64L111.992 277.671C111.686 277.946 111.659 278.417 111.935 278.724C112.211 279.03 112.682 279.055 112.989 278.78L115.257 276.749C115.563 276.474 115.589 276.003 115.314 275.697C115.038 275.388 114.564 275.362 114.259 275.64Z" fill="black" fill-opacity="0.7"/>
<path d="M52.7576 38.7672C54.5014 38.7672 55.9126 37.3551 55.9126 35.6136C55.9126 33.8733 54.5014 32.4648 52.7576 32.4648C51.0137 32.4648 49.5977 33.8733 49.5977 35.6136C49.5989 37.3551 51.0137 38.7672 52.7576 38.7672Z" fill="black" fill-opacity="0.7"/>
<path d="M49.2749 162.419C51.5592 160.529 54.0419 158.902 56.6492 157.58C57.0168 157.395 57.1643 156.946 56.9769 156.579C56.7882 156.211 56.342 156.068 55.972 156.252C53.2668 157.623 50.6934 159.311 48.3207 161.27C48.0039 161.533 47.9591 162.004 48.2228 162.32C48.4852 162.636 48.9556 162.681 49.2749 162.419Z" fill="black" fill-opacity="0.7"/>
<path d="M305.186 120.836C306.93 120.836 308.346 119.424 308.346 117.684C308.346 115.944 306.931 114.535 305.186 114.535C303.442 114.535 302.031 115.944 302.031 117.684C302.031 119.424 303.442 120.836 305.186 120.836Z" fill="black" fill-opacity="0.7"/>
<path d="M316.954 64.2474C319.562 65.5701 322.045 67.197 324.33 69.0857C324.645 69.3476 325.118 69.3054 325.381 68.9868C325.645 68.6694 325.6 68.1999 325.282 67.9368C322.911 65.978 320.337 64.2896 317.631 62.9186C317.266 62.7327 316.813 62.8787 316.627 63.2456C316.438 63.6125 316.586 64.0615 316.954 64.2474Z" fill="black" fill-opacity="0.7"/>
<path d="M446.859 18.4493L449.126 16.4181C449.432 16.1429 449.459 15.6722 449.183 15.3657C448.906 15.0579 448.434 15.0326 448.128 15.309L445.861 17.3401C445.555 17.6141 445.528 18.086 445.804 18.3925C446.08 18.6979 446.551 18.7244 446.859 18.4493Z" fill="black" fill-opacity="0.7"/>
<path d="M484.041 37.0445C485.785 37.0445 487.196 35.6325 487.196 33.8909C487.196 32.1506 485.785 30.7422 484.041 30.7422C482.297 30.7422 480.881 32.1506 480.881 33.8909C480.882 35.6313 482.297 37.0445 484.041 37.0445Z" fill="black" fill-opacity="0.7"/>
<path d="M439.35 62.4124C441.639 60.5224 444.121 58.8955 446.727 57.574C447.094 57.3881 447.242 56.9392 447.053 56.5711C446.868 56.2054 446.416 56.0593 446.049 56.244C443.345 57.615 440.771 59.3034 438.398 61.2622C438.08 61.5241 438.035 61.9948 438.298 62.3122C438.565 62.6332 439.037 62.6731 439.35 62.4124Z" fill="black" fill-opacity="0.7"/>
<path d="M376.404 212.043C378.691 210.155 381.171 208.527 383.78 207.204C384.148 207.018 384.295 206.568 384.106 206.201C383.921 205.836 383.47 205.691 383.103 205.874C380.396 207.247 377.822 208.935 375.453 210.893C375.135 211.156 375.09 211.625 375.354 211.943C375.617 212.261 376.09 212.303 376.404 212.043Z" fill="black" fill-opacity="0.7"/>
<path d="M414.65 273.447C416.394 273.447 417.805 272.035 417.805 270.293C417.805 268.553 416.394 267.145 414.65 267.145C412.906 267.145 411.49 268.553 411.49 270.293C411.49 272.035 412.905 273.447 414.65 273.447Z" fill="black" fill-opacity="0.7"/>
<path d="M378.342 82.9378C378.342 84.6781 379.757 86.0914 381.5 86.0914C383.244 86.0914 384.656 84.6793 384.656 82.9378C384.656 81.1975 383.244 79.7891 381.5 79.7891C379.757 79.7891 378.342 81.1975 378.342 82.9378Z" fill="black" fill-opacity="0.7"/>
<path d="M147.825 304.334C146.081 304.334 144.666 305.742 144.666 307.483C144.666 309.223 146.081 310.635 147.825 310.635C149.569 310.635 150.98 309.223 150.98 307.483C150.98 305.742 149.569 304.334 147.825 304.334Z" fill="black" fill-opacity="0.7"/>
<path d="M232.628 211.823L230.361 213.854C230.055 214.129 230.028 214.6 230.304 214.906C230.58 215.213 231.051 215.238 231.359 214.963L233.626 212.932C233.932 212.657 233.959 212.186 233.683 211.879C233.406 211.572 232.936 211.546 232.628 211.823Z" fill="black" fill-opacity="0.7"/>
<path d="M268.541 227.258C266.798 227.258 265.383 228.666 265.383 230.407C265.383 232.147 266.798 233.559 268.541 233.559C270.285 233.559 271.697 232.147 271.697 230.407C271.697 228.666 270.285 227.258 268.541 227.258Z" fill="black" fill-opacity="0.7"/>
<path d="M230.552 252.759C227.848 254.13 225.275 255.818 222.902 257.777C222.584 258.04 222.539 258.509 222.803 258.827C223.065 259.144 223.538 259.188 223.854 258.926C226.142 257.036 228.623 255.409 231.229 254.087C231.597 253.902 231.744 253.453 231.556 253.084C231.371 252.72 230.92 252.576 230.552 252.759Z" fill="black" fill-opacity="0.7"/>
</svg>
