<svg width="200" height="141" viewBox="0 0 200 141" fill="none" xmlns="http://www.w3.org/2000/svg">
<path d="M198.759 2.21484H2.32422V138.779H198.759V2.21484Z" fill="white"/>
<path d="M97.384 21.1634C96.3661 20.5294 95.4148 20.2176 94.4985 19.8319C93.9945 19.6197 93.495 19.3934 93.0099 19.1421C92.6636 18.9627 92.4996 18.6747 92.7067 18.2847C92.8833 17.9522 93.1707 17.8451 93.5092 17.9874C95.1284 18.6686 96.7413 19.3644 98.3576 20.0522C98.795 20.2382 98.6728 20.6235 98.6729 20.9476C98.6744 26.7768 98.6624 32.6061 98.6654 38.4354C98.6721 51.4721 98.692 64.5089 98.6933 77.5456C98.6938 83.0588 98.6636 88.5721 98.6375 94.0853C98.6356 94.4869 98.7688 95.0083 98.1071 95.0741C97.7185 95.1128 97.3848 95.0249 97.4003 94.5508C97.4217 93.8996 97.0416 93.8243 96.5128 93.832C95.2991 93.8496 94.084 93.8553 92.8712 93.8145C92.3164 93.7959 92.1756 94.0122 92.189 94.5177C92.2179 95.6083 92.1996 96.7 92.207 97.7912C92.2105 98.2998 92.2156 98.8513 91.5227 98.8524C90.8558 98.8534 90.8059 98.3406 90.8069 97.8093C90.8174 91.6065 90.824 85.4037 90.8227 79.2009C90.8185 58.9269 90.8107 38.6529 90.8047 18.3789C90.8046 18.0056 90.8139 17.6323 90.8136 17.259C90.8133 16.7676 91.0553 16.4992 91.551 16.508C92.0422 16.5167 92.1739 16.8647 92.1792 17.2716C92.1921 18.2764 92.2308 19.2835 92.177 20.2854C92.1411 20.9546 92.3395 21.1984 93.0326 21.1763C94.4042 21.1325 95.7781 21.1634 97.384 21.1634ZM94.847 81.9946C94.847 81.9913 94.847 81.988 94.847 81.9846C94.2137 81.9846 93.5793 82.006 92.9472 81.9779C92.4389 81.9553 92.2203 82.1214 92.2335 82.6587C92.2621 83.8306 92.2581 85.0042 92.2309 86.1762C92.2195 86.6675 92.412 86.8272 92.8864 86.8241C94.1241 86.8158 95.363 86.8165 96.5996 86.8619C97.1859 86.8835 97.3403 86.6524 97.327 86.1094C97.2983 84.9377 97.3009 83.764 97.335 82.5925C97.3484 82.1334 97.186 81.978 96.7469 81.9901C96.1141 82.0076 95.4804 81.9946 94.847 81.9946ZM94.7301 45.2581C94.7301 45.2675 94.7301 45.2768 94.7301 45.2861C95.3656 45.2861 96.0017 45.2677 96.6362 45.2921C97.1146 45.3106 97.3039 45.1378 97.2926 44.6476C97.2644 43.4142 97.2583 42.1795 97.2812 40.946C97.2899 40.4784 97.0993 40.3567 96.6694 40.3639C95.3987 40.3852 94.1275 40.3902 92.8566 40.3791C92.4308 40.3755 92.2245 40.4945 92.2314 40.961C92.2497 42.1946 92.2452 43.4292 92.2205 44.6627C92.2115 45.112 92.3773 45.2798 92.8241 45.2638C93.4586 45.2411 94.0946 45.2581 94.7301 45.2581ZM94.5241 56.9997C95.3488 56.9997 95.9559 56.9779 96.5605 57.0065C97.073 57.0308 97.2852 56.852 97.2741 56.3211C97.2501 55.1748 97.2554 54.0271 97.286 52.881C97.2983 52.4211 97.1257 52.2793 96.6847 52.2936C95.9352 52.3179 95.1843 52.3006 94.4339 52.3012C92.2323 52.3033 92.2144 52.3036 92.2406 54.5009C92.2501 55.2924 91.8724 56.3063 92.4012 56.8183C92.9236 57.324 93.9443 56.9404 94.5241 56.9997ZM94.7905 58.3284C94.7905 58.3293 94.7905 58.3302 94.7905 58.3311C94.1559 58.3311 93.5206 58.349 92.8869 58.3252C92.4212 58.3078 92.2097 58.4484 92.2212 58.9546C92.2471 60.1002 92.233 61.2472 92.213 62.3932C92.2058 62.808 92.3124 63.0369 92.7845 63.0339C94.0823 63.0257 95.3806 63.0331 96.6782 63.0581C97.1341 63.0668 97.2851 62.8766 97.2795 62.4448C97.2641 61.27 97.2587 60.0946 97.2811 58.9201C97.2896 58.4812 97.1524 58.3005 96.6941 58.3212C96.0607 58.3498 95.4251 58.3284 94.7905 58.3284ZM94.9886 88.1309C94.1801 88.1309 93.5165 88.1412 92.8534 88.1271C92.4438 88.1185 92.2026 88.2222 92.2125 88.6985C92.2369 89.8729 92.2435 91.0482 92.2278 92.2227C92.2214 92.6996 92.4623 92.7993 92.8703 92.796C93.5912 92.7899 94.3122 92.8145 95.0333 92.8174C97.2714 92.8265 97.2811 92.8248 97.2648 90.5705C97.2592 89.8006 97.6194 88.8081 97.1677 88.319C96.6672 87.777 95.6369 88.2246 94.9886 88.1309ZM94.6137 69.0068C95.394 69.0068 96.0008 68.982 96.6046 69.0141C97.1435 69.0428 97.3081 68.8089 97.2975 68.3052C97.2741 67.1885 97.2691 66.0707 97.2937 64.9542C97.3039 64.4967 97.1325 64.3546 96.6912 64.3682C95.9135 64.3922 95.1345 64.3719 94.356 64.3731C92.2321 64.3763 92.2172 64.3771 92.233 66.4614C92.239 67.2551 91.8731 68.2623 92.3763 68.7885C92.9224 69.3594 93.968 68.9113 94.6137 69.0068ZM94.7862 70.2723C94.7862 70.2735 94.7862 70.2749 94.7862 70.2761C94.1504 70.2761 93.5145 70.2837 92.8789 70.2736C92.4141 70.2662 92.2096 70.4401 92.2238 70.9373C92.255 72.0274 92.251 73.1193 92.2271 74.2098C92.2164 74.6997 92.415 74.8709 92.8894 74.8655C94.1318 74.8515 95.3749 74.8496 96.6171 74.8719C97.1041 74.8806 97.2863 74.692 97.2811 74.2161C97.269 73.0967 97.2705 71.9764 97.301 70.8574C97.3135 70.3974 97.1325 70.2507 96.6933 70.2664C96.0584 70.2893 95.422 70.2723 94.7862 70.2723ZM94.7903 50.9355C94.7903 50.9408 94.7903 50.9463 94.7903 50.9516C95.4252 50.9516 96.0608 50.9329 96.6946 50.9579C97.1535 50.9759 97.2953 50.779 97.2886 50.3477C97.2719 49.2587 97.2623 48.1684 97.2963 47.0801C97.3116 46.5912 97.1583 46.4246 96.6622 46.4369C95.4221 46.4675 94.1801 46.4778 92.9402 46.4447C92.3389 46.4286 92.209 46.6928 92.2225 47.2181C92.2475 48.1921 92.2672 49.1697 92.2092 50.1412C92.1688 50.818 92.4388 50.9919 93.0596 50.9448C93.6335 50.9013 94.2132 50.9355 94.7903 50.9355ZM95.0232 76.2057C94.1581 76.2057 93.4672 76.2146 92.7767 76.2024C92.3707 76.1952 92.2248 76.3661 92.2311 76.7693C92.2482 77.8555 92.2484 78.9426 92.2231 80.0286C92.2119 80.5043 92.385 80.7058 92.8691 80.6972C93.6459 80.6834 94.4232 80.7066 95.2003 80.7074C97.2808 80.7097 97.2844 80.7084 97.2771 78.6155C97.2744 77.8493 97.5453 76.8359 97.1592 76.3811C96.6992 75.8393 95.642 76.2863 95.0232 76.2057ZM94.7817 27.7082C94.1487 27.7082 93.5151 27.7244 92.8828 27.7029C92.403 27.6866 92.2142 27.878 92.224 28.3575C92.244 29.3293 92.2632 30.3037 92.2124 31.2734C92.1773 31.9448 92.46 32.1098 93.0734 32.0787C93.7906 32.0423 94.5118 32.0885 95.2313 32.0909C97.2905 32.0978 97.3075 32.096 97.274 30.0703C97.2614 29.3092 97.6356 28.3186 97.1191 27.8452C96.5803 27.3513 95.5779 27.739 94.7817 27.7082ZM94.786 22.273C94.786 22.2764 94.786 22.2797 94.786 22.283C94.1238 22.283 93.4613 22.2943 92.7995 22.2787C92.4147 22.2696 92.2102 22.3819 92.2169 22.8085C92.2344 23.9238 92.2307 25.0395 92.225 26.1549C92.2231 26.5205 92.3949 26.6635 92.7497 26.6632C94.0445 26.6622 95.3395 26.6644 96.6342 26.6787C97.0946 26.6837 97.3142 26.518 97.3034 26.0272C97.2801 24.9694 97.281 23.9105 97.2991 22.8525C97.3067 22.4037 97.1288 22.2475 96.686 22.2663C96.0537 22.293 95.4194 22.273 94.786 22.273ZM94.6766 37.5202C95.4135 37.5202 96.0488 37.51 96.6835 37.524C97.0724 37.5325 97.2655 37.4013 97.263 36.9832C97.2567 35.8938 97.261 34.8037 97.2931 33.7148C97.3074 33.2297 97.0692 33.1465 96.6558 33.1569C95.7904 33.1787 94.9241 33.1697 94.0583 33.17C92.2243 33.1705 92.2076 33.1699 92.2378 34.9676C92.2512 35.7643 91.8853 36.7791 92.3733 37.3017C92.9064 37.8724 93.9594 37.4143 94.6766 37.5202ZM97.1821 38.9989C97.1815 38.9645 97.1808 38.9299 97.1801 38.8955C95.5923 38.8955 94.0045 38.8955 92.4168 38.8955C92.4174 38.9299 92.4179 38.9645 92.4186 38.9989C94.0064 38.9989 95.5943 38.9989 97.1821 38.9989Z" fill="black"/>
<path d="M98.0057 134.001C73.1739 134.001 48.3422 134.001 23.5103 134.001C23.2212 134.001 22.9317 133.991 22.6432 134.003C22.0804 134.028 21.6192 133.841 21.6172 133.234C21.6153 132.641 22.102 132.533 22.6088 132.535C24.9792 132.543 27.3495 132.552 29.7199 132.552C52.0659 132.551 74.4119 132.547 96.7578 132.549C116.877 132.55 136.997 132.562 157.117 132.562C162.58 132.562 168.044 132.537 173.507 132.52C174.061 132.518 174.65 132.565 174.616 133.269C174.59 133.84 174.104 134.038 173.542 134.001C173.254 133.982 172.964 134.001 172.675 134.001C161.516 134.006 150.358 134.014 139.199 134.016C125.468 134.019 111.737 134.017 98.0055 134.017C98.0057 134.012 98.0057 134.006 98.0057 134.001Z" fill="black"/>
<path d="M73.5118 87.6065C73.5118 91.0822 73.5123 94.5579 73.5109 98.0337C73.5108 98.3208 73.5049 98.6084 73.4881 98.8949C73.4672 99.2489 73.3212 99.5019 72.9199 99.5211C72.509 99.5407 72.3509 99.2788 72.3104 98.937C72.2699 98.596 72.2635 98.2497 72.2632 97.9057C72.2585 90.8967 72.2578 83.8877 72.2528 76.8788C72.2524 76.415 72.4036 75.8597 71.5971 75.8737C71.3497 75.878 71.2459 75.5963 71.2361 75.3523C71.2224 75.0084 71.4411 74.7655 71.7417 74.7573C72.2716 74.743 72.2523 74.4238 72.2518 74.0652C72.246 70.4171 72.2328 66.769 72.2501 63.121C72.2526 62.5788 72.0586 62.4384 71.5478 62.4479C70.1893 62.4731 68.8296 62.4727 67.4712 62.4422C66.9616 62.4307 66.812 62.6237 66.8447 63.096C66.8723 63.4955 66.8576 63.9008 66.826 64.3008C66.795 64.6945 66.5679 64.9591 66.1527 64.9314C65.7495 64.9045 65.436 64.7353 65.4399 64.2431C65.4456 63.5252 65.4375 62.8067 65.4154 62.0891C65.3974 61.5082 65.401 60.9681 66.1982 60.935C66.6061 60.9181 66.5139 60.5889 66.5158 60.354C66.5346 58.0274 66.539 55.7007 66.56 53.3741C66.5635 52.9948 66.4724 52.7805 66.0346 52.796C65.5548 52.813 65.1387 52.6538 65.1527 52.0892C65.1657 51.5645 65.5803 51.4459 66.0159 51.4602C66.4452 51.4745 66.561 51.2725 66.5481 50.8875C66.5287 50.3136 66.566 49.7372 66.5315 49.1647C66.4879 48.4403 66.7487 48.1356 67.5258 48.1436C70.4747 48.1739 73.4242 48.1416 76.3734 48.1574C76.874 48.1601 77.594 47.9501 77.6151 48.8128C77.638 49.7493 76.8877 49.6148 76.304 49.6163C73.9042 49.6222 71.5045 49.6053 69.1047 49.6C68.1716 49.5979 67.6772 50.3843 68.0606 51.2247C68.1754 51.4766 68.3774 51.4441 68.5675 51.4446C71.8637 51.4522 75.1599 51.4482 78.456 51.464C78.9315 51.4663 79.0157 51.2496 79.0382 50.8355C79.0688 50.2723 78.8879 49.4353 79.7513 49.426C80.6956 49.4158 80.4946 50.2815 80.5042 50.8739C80.5323 52.6257 80.4881 54.3793 80.5424 56.13C80.5681 56.9577 80.2708 57.2609 79.4461 57.2518C76.5551 57.22 73.6636 57.2303 70.7722 57.2238C70.5698 57.2234 70.3672 57.2231 70.1652 57.2118C69.7442 57.1885 69.2783 57.1295 69.275 56.6064C69.2716 56.0621 69.7135 55.9268 70.191 55.9262C72.7644 55.9235 75.3384 55.8885 77.9107 55.9375C78.7617 55.9537 79.0547 55.7487 79.0377 54.85C78.9992 52.8084 79.0526 52.8102 77.0328 52.8132C74.2859 52.8171 71.539 52.8302 68.7924 52.8066C68.2003 52.8015 67.9891 52.9658 67.9989 53.5803C68.0342 55.7627 68.048 57.9468 67.9996 60.1287C67.9827 60.8877 68.2794 61.0367 68.9573 61.0298C72.5999 60.9923 76.2429 60.9964 79.8856 60.9716C81.0416 60.9637 81.22 61.1031 81.2235 62.2125C81.231 64.5631 81.2331 66.9138 81.2348 69.2644C81.235 69.4938 81.2427 69.7279 81.2013 69.9514C81.1394 70.2859 80.961 70.5597 80.5739 70.5343C80.2379 70.5122 80.0733 70.2689 80.0492 69.949C80.0168 69.5195 79.9794 69.0882 79.9874 68.6585C79.9959 68.208 79.8079 68.0534 79.3625 68.0767C78.6701 68.1127 77.9748 68.1243 77.2819 68.1052C76.8004 68.0919 76.705 68.3216 76.7158 68.7379C76.742 69.7428 76.7424 70.7484 76.7417 71.7538C76.7414 72.2343 76.835 72.8303 76.0958 72.8256C75.4186 72.8211 75.3818 72.2938 75.3825 71.7722C75.3867 68.9571 75.357 66.1416 75.402 63.3273C75.4139 62.5838 75.1721 62.4231 74.4712 62.4325C73.7638 62.4421 73.461 62.5545 73.4756 63.3716C73.5381 66.875 73.5398 70.3799 73.518 73.884C73.5137 74.5778 73.7298 74.7471 74.4029 74.7255C76.0494 74.6728 77.6986 74.6905 79.3465 74.7082C79.8563 74.7137 80.0939 74.5644 80.0573 74.0215C80.0245 73.536 80.0697 73.0455 80.0691 72.5573C80.0685 72.1538 80.2339 71.8501 80.6567 71.8659C81.0645 71.8812 81.2549 72.1915 81.2377 72.5864C81.1822 73.8602 81.2802 75.1318 81.2667 76.4069C81.2146 81.2896 81.2553 86.1733 81.2609 91.0566C81.2611 91.2576 81.2677 91.4596 81.2498 91.6593C81.2158 92.0396 80.9666 92.2284 80.6113 92.2175C80.277 92.2072 80.0973 91.9711 80.0783 91.646C80.0565 91.2737 80.0545 90.8997 80.0544 90.5265C80.0532 85.9592 80.0318 81.3916 80.0753 76.8247C80.0828 76.0329 79.8334 75.8642 79.1013 75.8868C77.5415 75.9352 75.9782 75.9261 74.418 75.8837C73.7477 75.8654 73.5374 76.0546 73.5444 76.7489C73.5815 80.3679 73.5617 83.9874 73.5617 87.6068C73.5451 87.6065 73.5284 87.6065 73.5118 87.6065ZM80.0042 64.5887C79.9276 63.9826 80.3545 63.024 79.8487 62.5693C79.361 62.1309 78.4139 62.491 77.6694 62.4635C77.6118 62.4613 77.5531 62.4725 77.4965 62.4653C76.9178 62.3921 76.6698 62.5822 76.7182 63.2183C76.7832 64.0737 76.8061 64.9428 76.7283 65.7953C76.6517 66.634 76.9398 66.8545 77.7675 66.8602C79.9937 66.8755 79.9935 66.9162 80.0042 64.5887Z" fill="black"/>
<path d="M97.6141 129.476C120.05 129.476 142.486 129.476 164.922 129.477C165.182 129.477 165.443 129.499 165.702 129.485C166.128 129.463 166.384 129.672 166.4 130.069C166.417 130.473 166.12 130.679 165.745 130.743C165.548 130.776 165.341 130.761 165.139 130.761C123.303 130.761 81.4668 130.761 39.6305 130.761C36.5369 130.761 33.4433 130.771 30.3497 130.776C30.0606 130.776 29.7714 130.777 29.4823 130.771C29.0252 130.762 28.6489 130.586 28.6645 130.087C28.6802 129.588 29.0739 129.444 29.5253 129.445C29.6988 129.446 29.8723 129.447 30.0457 129.447C52.5684 129.447 75.0911 129.447 97.6139 129.447C97.614 129.457 97.6141 129.466 97.6141 129.476Z" fill="black"/>
<path d="M61.4585 87.1641C61.4596 80.1269 61.4479 73.0897 61.4773 66.0526C61.4802 65.3343 61.2652 65.0899 60.5679 65.1085C59.3254 65.1417 58.0816 65.1368 56.8385 65.1254C56.3227 65.1206 56.1441 65.3174 56.1486 65.841C56.1752 68.8854 56.1676 71.9301 56.1803 74.9746C56.1816 75.2887 56.2085 75.6098 56.2782 75.9154C56.5165 76.9627 56.2989 77.2469 55.2 77.2509C53.4364 77.2571 51.6727 77.2534 49.9091 77.2621C48.7278 77.268 48.7197 77.2744 48.718 78.5035C48.7069 86.0862 48.6952 93.6689 48.6933 101.252C48.692 106.077 48.7075 110.903 48.7143 115.728C48.7146 115.986 48.7096 116.245 48.6961 116.503C48.6759 116.886 48.4407 117.09 48.0795 117.083C47.7283 117.076 47.4797 116.881 47.4528 116.5C47.4366 116.271 47.4365 116.041 47.4356 115.811C47.3864 102.828 47.3378 89.8457 47.2892 76.8631C47.2853 75.836 47.3695 75.7623 48.4423 75.7636C50.2638 75.7661 52.0857 75.7376 53.9065 75.7696C54.5494 75.7808 54.7393 75.5806 54.7322 74.9341C54.6943 71.5451 54.7057 68.1556 54.6998 64.7663C54.6979 63.6895 54.7228 63.669 55.8207 63.6724C57.353 63.6771 58.887 63.634 60.4171 63.6926C61.2222 63.7235 61.6277 63.5389 61.4652 62.6647C61.424 62.4432 61.4644 62.2067 61.4669 61.9772C61.4722 61.4976 61.8005 61.3367 62.1988 61.2941C62.6106 61.2501 62.8424 61.4973 62.9413 61.8708C62.9775 62.0072 62.9939 62.156 62.9829 62.2964C62.9147 63.1637 62.9539 63.9119 64.1834 63.7284C64.5552 63.673 64.6552 63.9806 64.6514 64.3029C64.6468 64.6917 64.6188 65.1606 64.1117 65.1086C62.8848 64.9825 62.9949 65.7392 62.9949 66.5479C62.9959 80.1914 62.982 93.8348 62.9677 107.478C62.9671 107.966 62.9367 108.453 62.9069 108.94C62.8783 109.405 62.5889 109.59 62.1502 109.577C61.7016 109.564 61.4559 109.339 61.4565 108.878C61.4576 107.988 61.4575 107.098 61.4575 106.208C61.4574 99.8598 61.4574 93.512 61.4585 87.1641Z" fill="black"/>
<path d="M76.0456 137.632C64.9777 137.632 53.9098 137.632 42.8419 137.631C42.3798 137.631 41.9154 137.64 41.456 137.601C41.0706 137.568 40.7832 137.319 40.7813 136.937C40.7792 136.526 41.0234 136.235 41.4852 136.225C42.1785 136.211 42.872 136.195 43.5654 136.195C64.9498 136.194 86.3342 136.196 107.719 136.196C108.585 136.196 109.453 136.193 110.319 136.173C110.874 136.16 111.37 136.305 111.354 136.925C111.339 137.534 110.844 137.653 110.29 137.651C106.273 137.635 102.256 137.633 98.2392 137.632C90.8413 137.63 83.4435 137.631 76.0456 137.632Z" fill="black"/>
<path d="M78.1387 116.254C78.1387 114.704 78.1511 113.154 78.1318 111.604C78.1253 111.083 78.2341 110.639 78.8218 110.621C79.4113 110.603 79.607 111.014 79.5125 111.552C79.3605 112.418 79.7605 112.686 80.5683 112.565C80.7944 112.532 81.0298 112.56 81.2609 112.56C82.4648 112.556 82.4827 112.557 82.5816 111.333C82.6174 110.89 82.758 110.614 83.2307 110.614C83.7081 110.613 83.7731 110.951 83.7822 111.323C83.7885 111.581 83.81 111.84 83.8022 112.097C83.7921 112.431 83.944 112.556 84.2722 112.546C84.6181 112.535 84.9651 112.559 85.3118 112.565C86.5811 112.59 86.5964 112.59 86.6994 111.332C86.7352 110.896 86.8793 110.593 87.3415 110.586C87.8497 110.578 88.0339 110.893 88.0325 111.372C88.0236 114.558 88.0222 117.744 88.0193 120.93C88.0187 121.585 87.7539 121.928 87.032 121.923C84.3742 121.903 81.716 121.906 79.0581 121.925C78.3819 121.929 78.1242 121.63 78.129 120.989C78.1408 119.411 78.1329 117.832 78.1329 116.254C78.1349 116.254 78.1368 116.254 78.1387 116.254ZM82.5331 115.376C82.5372 113.688 82.5372 113.688 81.22 113.721C79.5068 113.764 79.499 113.764 79.5069 115.472C79.5149 117.194 79.3319 116.903 80.9773 116.917C82.7098 116.932 82.4904 117.207 82.5331 115.376ZM86.6676 115.278C86.6676 115.136 86.6684 114.993 86.6675 114.85C86.6602 113.702 86.6601 113.702 85.5282 113.714C83.7938 113.732 83.7938 113.732 83.8133 115.512C83.8289 116.926 83.8289 116.937 85.0457 116.934C86.902 116.93 86.6282 117.191 86.6676 115.278ZM81.1629 118.249C79.151 118.341 79.5538 117.969 79.5004 120.01C79.4881 120.479 79.7122 120.589 80.1309 120.575C80.7626 120.554 81.3956 120.575 82.0279 120.57C82.2215 120.568 82.4799 120.597 82.4888 120.317C82.5086 119.691 82.6544 119.002 82.4423 118.456C82.2569 117.979 81.5609 118.339 81.1629 118.249ZM85.128 120.586C85.4436 120.586 85.7059 120.564 85.9631 120.591C86.4937 120.647 86.6606 120.429 86.6566 119.905C86.6408 117.856 86.8329 118.306 85.0374 118.254C84.7493 118.245 84.4601 118.268 84.1718 118.284C83.9969 118.294 83.7857 118.315 83.7875 118.537C83.7926 119.166 83.6807 119.854 83.9017 120.405C84.0655 120.814 84.7451 120.489 85.128 120.586Z" fill="black"/>
<path d="M99.1471 108.612C99.105 108.947 98.9656 109.193 98.721 109.37C98.3747 109.62 98.1203 109.345 97.8622 109.189C94.9705 107.448 92.1912 105.537 89.3885 103.661C87.5202 102.41 85.6161 101.212 83.7435 99.9669C83.2932 99.6675 82.9637 99.6717 82.5089 99.9965C78.0022 103.214 73.2673 106.092 68.6413 109.133C68.2037 109.421 67.7148 109.59 67.3577 109.035C66.9955 108.474 67.3863 108.114 67.8152 107.833C70.8281 105.855 73.8539 103.896 76.862 101.911C78.7391 100.672 80.6017 99.4116 82.4504 98.1319C82.9419 97.7917 83.3103 97.7472 83.8409 98.1012C88.6626 101.317 93.5065 104.501 98.3373 107.703C98.685 107.934 99.1022 108.14 99.1471 108.612Z" fill="black"/>
<path d="M84.5885 62.6745C84.5885 70.976 84.5886 79.2775 84.5879 87.579C84.5879 87.8949 84.5795 88.2108 84.5766 88.5267C84.5735 88.861 84.4269 89.1019 84.0752 89.0987C83.7612 89.0957 83.5197 88.9228 83.4877 88.5814C83.453 88.2103 83.4295 87.8366 83.4294 87.464C83.426 70.7463 83.4256 54.0287 83.4262 37.311C83.4262 37.0818 83.4197 36.8484 83.4589 36.6243C83.5132 36.3144 83.6965 36.0836 84.0397 36.0983C84.3706 36.1125 84.5614 36.3232 84.5964 36.6505C84.6145 36.8211 84.6057 36.9947 84.6057 37.1669C84.606 45.6694 84.606 54.172 84.606 62.6744C84.6002 62.6745 84.5943 62.6745 84.5885 62.6745Z" fill="black"/>
<path d="M71.7298 127.852C65.1141 127.852 58.4983 127.852 51.8826 127.852C51.6804 127.852 51.478 127.855 51.2759 127.847C50.8943 127.832 50.5582 127.711 50.5706 127.269C50.583 126.828 50.8663 126.606 51.3158 126.609C51.4891 126.611 51.6624 126.606 51.8358 126.606C65.0385 126.609 78.2413 126.609 91.444 126.625C91.9672 126.626 92.8056 126.384 92.8088 127.231C92.8123 128.18 91.9553 127.837 91.404 127.838C84.8459 127.846 78.2879 127.843 71.7298 127.843C71.7299 127.846 71.7299 127.849 71.7298 127.852Z" fill="black"/>
<path d="M66.873 87.0324C66.873 93.4927 66.8733 99.953 66.8722 106.413C66.8721 106.729 66.8766 107.046 66.8498 107.36C66.8177 107.737 66.5321 107.922 66.2076 107.946C65.8096 107.976 65.6684 107.682 65.6599 107.323C65.6531 107.036 65.6444 106.749 65.6445 106.462C65.6477 93.5411 65.6517 80.6204 65.6561 67.6999C65.6562 67.4128 65.6646 67.1257 65.665 66.8386C65.6655 66.4429 65.8449 66.1309 66.242 66.1105C66.7315 66.0855 66.8396 66.4697 66.8504 66.8764C66.8557 67.0773 66.8535 67.2784 66.8535 67.4794C66.8535 73.9971 66.8535 80.5148 66.8535 87.0325C66.8601 87.0323 66.8665 87.0323 66.873 87.0324Z" fill="black"/>
<path d="M145.02 137.639C139.935 137.639 134.851 137.64 129.766 137.639C129.564 137.639 129.361 137.634 129.159 137.631C128.723 137.624 128.399 137.407 128.38 136.984C128.36 136.531 128.637 136.239 129.135 136.229C129.597 136.22 130.059 136.201 130.522 136.2C140.431 136.191 150.34 136.183 160.249 136.176C160.853 136.175 161.66 136.079 161.668 136.891C161.676 137.688 160.893 137.633 160.274 137.632C155.189 137.627 150.105 137.629 145.02 137.629C145.02 137.633 145.02 137.636 145.02 137.639Z" fill="black"/>
<path d="M74.9895 86.9441C74.9895 83.9883 75.0089 81.0323 74.9768 78.0769C74.9681 77.2768 75.2097 76.9042 76.0608 76.9729C76.692 77.0238 77.3313 76.9964 77.966 76.9758C78.491 76.9587 78.6617 77.1834 78.6604 77.6974C78.6475 83.0061 78.6536 88.3148 78.6525 93.6237C78.6524 94.0384 78.6352 94.5175 78.0778 94.4958C77.5088 94.4737 77.5735 93.964 77.5734 93.5712C77.5725 88.7502 77.5709 83.9292 77.5896 79.1081C77.5917 78.5733 77.5506 78.2676 76.8699 78.2782C76.2137 78.2885 76.2053 78.6187 76.2051 79.0918C76.2035 82.7937 76.1874 86.4955 76.1806 90.1974C76.177 92.1487 76.184 94.1002 76.184 96.0515C76.184 96.4878 76.2139 97.0044 75.6032 97.0109C74.9999 97.0173 74.9985 96.5154 74.9986 96.0694C74.9991 93.0276 74.9989 89.9858 74.9989 86.9441C74.9956 86.9441 74.9926 86.9441 74.9895 86.9441Z" fill="black"/>
<path d="M140.905 95.7394C140.905 100.879 140.91 106.019 140.898 111.158C140.897 111.643 141.033 112.347 140.268 112.338C139.523 112.328 139.639 111.642 139.64 111.144C139.652 100.894 139.672 90.6439 139.69 80.3937C139.69 80.2501 139.692 80.1066 139.692 79.963C139.692 79.5136 139.71 79.018 140.308 79.0235C140.908 79.0289 140.908 79.5302 140.908 79.9761C140.908 85.2305 140.908 90.485 140.908 95.7395C140.907 95.7394 140.906 95.7394 140.905 95.7394Z" fill="black"/>
<path d="M147.716 56.4098C147.749 56.6995 147.615 57.0352 147.143 57.078C146.619 57.1256 146.474 56.7531 146.395 56.3188C145.354 50.5685 142.796 45.5259 139.131 41.004C137.623 39.1442 135.9 37.4946 134.095 35.9249C133.964 35.8115 133.823 35.709 133.704 35.5851C133.422 35.2914 133.27 34.9522 133.538 34.5828C133.849 34.1555 134.248 34.2641 134.609 34.5032C135.551 35.1265 136.365 35.9103 137.165 36.6917C141.755 41.1755 145.133 46.4081 146.93 52.5865C147.24 53.6542 147.436 54.7549 147.678 55.8417C147.709 55.9799 147.699 56.1273 147.716 56.4098Z" fill="black"/>
<path d="M141.025 65.067C137.155 65.067 133.286 65.0675 129.417 65.066C129.157 65.0659 128.894 65.075 128.639 65.0365C128.271 64.981 127.95 64.8048 127.974 64.3852C127.996 63.9991 128.265 63.7723 128.657 63.7288C128.828 63.7098 129.003 63.7238 129.176 63.7237C137.175 63.7188 145.173 63.7164 153.171 63.7031C153.681 63.7023 154.207 63.7924 154.212 64.3398C154.217 64.9099 153.715 65.0676 153.152 65.0655C149.11 65.0507 145.067 65.0576 141.025 65.0576C141.025 65.0608 141.025 65.0639 141.025 65.067Z" fill="black"/>
<path d="M51.4629 94.263C51.4629 98.7698 51.465 103.276 51.4586 107.783C51.4581 108.116 51.5432 108.49 51.2136 108.741C50.8516 109.015 50.3012 108.802 50.2146 108.347C50.1776 108.152 50.196 107.946 50.196 107.745C50.1991 98.9315 50.2027 90.1177 50.2075 81.3037C50.2076 80.9881 50.1973 80.6698 50.2335 80.3576C50.2719 80.0258 50.4122 79.7156 50.813 79.7353C51.2044 79.7545 51.4511 79.9789 51.4535 80.4002C51.4592 81.4047 51.4673 82.4092 51.4679 83.4138C51.4696 87.0301 51.4686 90.6466 51.4686 94.263C51.4667 94.263 51.4648 94.263 51.4629 94.263Z" fill="black"/>
<path d="M44.6685 110.216C44.6684 106.454 44.6683 102.693 44.6686 98.9308C44.6686 98.5891 44.59 98.1957 44.9124 97.9718C45.3096 97.6959 45.7068 97.7722 45.8874 98.2493C45.9847 98.5064 45.9671 98.8137 45.9675 99.0984C45.9791 106.449 45.9862 113.8 45.9941 121.151C45.9942 121.266 45.9923 121.381 45.9952 121.496C46.0065 121.955 45.9563 122.426 45.3789 122.448C44.7614 122.471 44.6636 122.016 44.6646 121.5C44.6721 117.739 44.6687 113.977 44.6685 110.216Z" fill="black"/>
<path d="M122.212 127.854C118.228 127.854 114.244 127.854 110.26 127.853C110.029 127.853 109.798 127.853 109.567 127.845C109.209 127.833 108.929 127.693 108.938 127.296C108.945 126.946 109.156 126.7 109.507 126.634C109.731 126.591 109.967 126.607 110.198 126.607C118.195 126.605 126.192 126.603 134.189 126.602C134.391 126.602 134.595 126.596 134.794 126.623C135.162 126.673 135.48 126.805 135.467 127.253C135.454 127.694 135.168 127.834 134.77 127.835C134.337 127.835 133.904 127.841 133.471 127.842C129.718 127.842 125.965 127.842 122.212 127.842C122.212 127.846 122.212 127.85 122.212 127.854Z" fill="black"/>
<path d="M147.6 127.837C144.483 127.837 141.366 127.837 138.249 127.837C138.134 127.837 138.018 127.834 137.903 127.837C137.493 127.844 137.101 127.756 137.102 127.272C137.102 126.777 137.461 126.609 137.931 126.609C144.367 126.618 150.803 126.618 157.239 126.635C157.647 126.636 158.203 126.588 158.208 127.218C158.214 127.874 157.685 127.868 157.21 127.868C154.007 127.869 150.803 127.868 147.6 127.868C147.6 127.858 147.6 127.847 147.6 127.837Z" fill="black"/>
<path d="M119.85 137.633C118.028 137.633 116.207 137.631 114.386 137.633C113.903 137.634 113.376 137.618 113.345 137.001C113.314 136.375 113.774 136.211 114.34 136.211C118.069 136.208 121.798 136.196 125.527 136.18C126.028 136.177 126.435 136.352 126.432 136.875C126.43 137.421 126.036 137.634 125.487 137.629C123.608 137.615 121.729 137.624 119.85 137.624C119.85 137.627 119.85 137.63 119.85 137.633Z" fill="black"/>
<path d="M146.76 96.7192C146.76 98.2662 146.763 99.8132 146.757 101.36C146.756 101.617 146.747 101.879 146.691 102.127C146.63 102.393 146.443 102.598 146.153 102.611C145.817 102.626 145.616 102.399 145.546 102.102C145.488 101.855 145.493 101.591 145.492 101.334C145.492 98.1825 145.491 95.0312 145.504 91.88C145.505 91.4443 145.398 90.8781 146.107 90.8674C146.843 90.8561 146.793 91.4177 146.795 91.9066C146.8 93.5108 146.796 95.1151 146.796 96.7193C146.784 96.7192 146.772 96.7192 146.76 96.7192Z" fill="black"/>
<path d="M157.782 91.9435C157.782 93.3194 157.774 94.6953 157.787 96.0711C157.791 96.553 157.651 97.022 157.156 97.04C156.583 97.0608 156.461 96.5658 156.465 96.0544C156.486 93.3028 156.49 90.551 156.513 87.7993C156.517 87.3806 156.475 86.8325 157.089 86.832C157.682 86.8316 157.794 87.3111 157.792 87.8159C157.787 89.1917 157.791 90.5676 157.791 91.9435C157.788 91.9435 157.785 91.9435 157.782 91.9435Z" fill="black"/>
<path d="M133.581 86.2814C132.37 86.2814 131.158 86.2826 129.947 86.2807C129.52 86.2801 129.07 86.2268 129.07 85.6891C129.07 85.1692 129.49 85.074 129.934 85.0783C132.27 85.1007 134.607 85.1119 136.943 85.1454C137.395 85.1519 137.955 85.1352 137.932 85.8106C137.911 86.4564 137.372 86.3475 136.956 86.3515C135.831 86.3622 134.706 86.3552 133.581 86.3552C133.581 86.3306 133.581 86.3059 133.581 86.2814Z" fill="black"/>
<path d="M44.3788 127.855C43.2806 127.855 42.1823 127.855 41.0842 127.855C40.6641 127.855 40.1888 127.841 40.2076 127.286C40.2227 126.838 40.5557 126.606 41.0456 126.609C43.2708 126.625 45.4962 126.618 47.7214 126.634C48.123 126.637 48.6028 126.64 48.5956 127.22C48.5884 127.807 48.1372 127.874 47.6732 127.875C46.575 127.876 45.4769 127.875 44.3788 127.875C44.3788 127.868 44.3788 127.862 44.3788 127.855Z" fill="black"/>
<path d="M98.7822 126.613C99.8792 126.613 100.976 126.608 102.073 126.615C102.492 126.618 102.936 126.649 102.929 127.219C102.922 127.806 102.489 127.881 102.018 127.878C99.8818 127.866 97.7456 127.858 95.6095 127.846C95.1743 127.843 94.6624 127.886 94.668 127.254C94.6737 126.605 95.1776 126.599 95.6643 126.602C96.7035 126.608 97.7429 126.604 98.7822 126.604C98.7822 126.607 98.7822 126.61 98.7822 126.613Z" fill="black"/>
<path d="M133.133 97.7944C134.26 97.7944 135.388 97.7916 136.515 97.7961C136.846 97.7975 137.203 97.8488 137.26 98.2358C137.325 98.6806 136.946 98.8023 136.606 98.8975C136.441 98.9435 136.263 98.96 136.092 98.96C134.039 98.9604 131.987 98.9618 129.934 98.9458C129.507 98.9425 128.943 98.9461 128.953 98.3644C128.963 97.8364 129.449 97.7618 129.924 97.7701C130.994 97.7887 132.063 97.776 133.133 97.776C133.133 97.7822 133.133 97.7883 133.133 97.7944Z" fill="black"/>
<path d="M55.3398 83.7569C54.4178 83.7569 53.4953 83.7722 52.5739 83.7494C52.2061 83.7403 51.8092 83.7185 51.7898 83.1701C51.7685 82.5673 52.1887 82.5349 52.5947 82.5319C54.4098 82.5182 56.225 82.5248 58.0402 82.5268C58.5116 82.5274 58.8559 82.7379 58.8281 83.2309C58.8026 83.6834 58.4474 83.8157 58.0195 83.8103C57.1263 83.799 56.2331 83.8069 55.3398 83.8069C55.3398 83.7902 55.3398 83.7736 55.3398 83.7569Z" fill="black"/>
<path d="M132.893 100.782C133.814 100.782 134.735 100.779 135.656 100.783C136.077 100.785 136.557 100.838 136.55 101.355C136.545 101.805 136.156 102 135.686 102C133.787 101.997 131.888 102.012 129.988 102.012C129.537 102.012 129.04 101.942 129.043 101.378C129.046 100.831 129.565 100.839 129.958 100.831C130.936 100.81 131.914 100.824 132.893 100.824C132.893 100.81 132.893 100.796 132.893 100.782Z" fill="black"/>
<path d="M132.898 88.3178C133.938 88.3178 134.978 88.319 136.018 88.3171C136.419 88.3164 136.857 88.3867 136.854 88.8514C136.852 89.32 136.45 89.4907 135.99 89.4871C133.939 89.4718 131.888 89.4637 129.838 89.4511C129.439 89.4485 129.002 89.3702 128.992 88.9091C128.981 88.3972 129.429 88.3017 129.865 88.3013C130.876 88.3003 131.887 88.301 132.898 88.301C132.898 88.3065 132.898 88.3121 132.898 88.3178Z" fill="black"/>
<path d="M55.3675 91.4691C56.2326 91.4691 57.0976 91.4682 57.9627 91.4694C58.3827 91.4701 58.8747 91.5112 58.9085 92.0008C58.9439 92.5135 58.5101 92.7042 58.0193 92.7063C56.2605 92.7137 54.5014 92.7396 52.7428 92.7202C52.3783 92.7162 51.8401 92.7693 51.8173 92.1936C51.7925 91.5666 52.27 91.4861 52.7724 91.4887C53.6374 91.4932 54.5025 91.4899 55.3675 91.4899C55.3675 91.4829 55.3675 91.476 55.3675 91.4691Z" fill="black"/>
<path d="M132.746 94.4871C133.753 94.4874 134.76 94.4886 135.767 94.4869C136.138 94.4862 136.493 94.5414 136.503 95.0026C136.513 95.443 136.247 95.7017 135.804 95.7044C133.705 95.7169 131.605 95.7186 129.505 95.7146C129.156 95.714 128.849 95.5472 128.84 95.1813C128.83 94.7531 129.111 94.4945 129.553 94.4901C130.617 94.4796 131.682 94.4867 132.746 94.4871Z" fill="black"/>
<path d="M132.897 91.402C133.877 91.402 134.856 91.3911 135.836 91.4074C136.219 91.4138 136.762 91.3246 136.76 91.8975C136.759 92.4301 136.272 92.55 135.812 92.5545C134.025 92.5715 132.239 92.5796 130.453 92.5879C130.165 92.5893 129.869 92.6161 129.592 92.5565C129.277 92.4884 128.973 92.3119 129.016 91.9243C129.057 91.5506 129.331 91.4196 129.698 91.4225C130.764 91.431 131.831 91.4255 132.897 91.4255C132.897 91.4177 132.897 91.4098 132.897 91.402Z" fill="black"/>
<path d="M132.847 78.8021C133.827 78.8011 134.808 78.8016 135.788 78.8008C136.201 78.8004 136.586 78.9169 136.585 79.3836C136.585 79.8206 136.246 80.0174 135.815 80.0178C133.825 80.0194 131.835 80.0267 129.845 80.0132C129.428 80.0103 128.978 79.906 129.005 79.3683C129.032 78.8324 129.48 78.802 129.905 78.8027C130.886 78.8044 131.866 78.8032 132.847 78.8021Z" fill="black"/>
<path d="M132.718 83.1037C131.797 83.1037 130.875 83.1176 129.954 83.0975C129.518 83.0881 129.018 83.0416 129.044 82.4416C129.068 81.8941 129.522 81.9024 129.941 81.9022C131.841 81.9008 133.742 81.8862 135.642 81.8889C135.998 81.8895 136.502 81.7963 136.525 82.3185C136.547 82.8206 136.138 83.0701 135.655 83.0797C134.676 83.0993 133.697 83.0856 132.718 83.0856C132.718 83.0917 132.718 83.0977 132.718 83.1037Z" fill="black"/>
<path d="M98.6402 100.216C98.6402 101.132 98.6392 102.049 98.6406 102.966C98.6412 103.395 98.4789 103.733 98.0108 103.719C97.5781 103.706 97.3663 103.423 97.3673 102.969C97.3717 101.078 97.3616 99.1873 97.3555 97.2965C97.354 96.8633 97.5267 96.5495 97.9951 96.5508C98.4568 96.552 98.6468 96.8611 98.648 97.2931C98.6508 98.2672 98.6489 99.2415 98.6489 100.216C98.6459 100.216 98.6431 100.216 98.6402 100.216Z" fill="black"/>
<path d="M55.5249 97.2629C56.4188 97.2629 57.3128 97.2594 58.2067 97.2644C58.6117 97.2666 59.0205 97.378 58.9969 97.8478C58.9775 98.2328 58.6987 98.5084 58.234 98.5065C56.3598 98.4984 54.4856 98.5095 52.6115 98.4943C52.2358 98.4913 51.8059 98.4316 51.8166 97.9174C51.8276 97.3887 52.2277 97.2898 52.6703 97.2901C53.6218 97.2909 54.5734 97.2904 55.525 97.2904C55.5249 97.2812 55.5249 97.272 55.5249 97.2629Z" fill="black"/>
<path d="M55.3626 94.5224C56.2568 94.5224 57.1512 94.5287 58.0454 94.5196C58.4725 94.5153 58.8347 94.6529 58.8444 95.105C58.8536 95.5384 58.5309 95.7553 58.0909 95.7541C56.2449 95.7492 54.3987 95.7548 52.5531 95.7254C52.1941 95.7198 51.7595 95.6534 51.7906 95.1186C51.8196 94.6215 52.1978 94.5377 52.5933 94.5331C53.5163 94.5223 54.4395 94.5297 55.3626 94.5297C55.3626 94.5272 55.3626 94.5248 55.3626 94.5224Z" fill="black"/>
<path d="M55.3718 85.6609C56.2647 85.6609 57.1577 85.6624 58.0506 85.6602C58.4699 85.6591 58.8445 85.8064 58.8648 86.2453C58.8854 86.6871 58.5124 86.8954 58.1051 86.8946C56.2334 86.891 54.3613 86.8738 52.4901 86.8321C52.2193 86.8261 51.7889 86.8629 51.8592 86.3485C51.9115 85.9658 52.0898 85.7024 52.5207 85.7017C53.471 85.7004 54.4213 85.7013 55.3717 85.7013C55.3717 85.6879 55.3718 85.6744 55.3718 85.6609Z" fill="black"/>
<path d="M93.7028 16.1129C93.7659 16.13 93.9392 16.1559 94.0949 16.2224C95.4675 16.8099 96.8409 17.3959 98.2043 18.0043C98.4872 18.1305 98.7528 18.3215 98.9831 18.5299C99.1967 18.7231 99.1769 19.0023 99.0419 19.243C98.8936 19.5075 98.6557 19.5698 98.3768 19.4458C96.6731 18.6879 94.9702 17.9285 93.2668 17.1703C92.9668 17.0368 92.8013 16.8278 92.9149 16.4925C93.0231 16.1728 93.2708 16.0635 93.7028 16.1129Z" fill="black"/>
<path d="M55.7295 101.398C55.0089 101.398 54.2879 101.414 53.5681 101.392C53.1595 101.38 52.7046 101.325 52.6771 100.788C52.6482 100.224 53.0927 100.175 53.5137 100.168C54.9828 100.144 56.452 100.126 57.9211 100.113C58.3517 100.11 58.6828 100.295 58.6595 100.76C58.6377 101.194 58.3226 101.405 57.8913 101.41C57.1707 101.417 56.4502 101.411 55.7296 101.411C55.7296 101.407 55.7296 101.403 55.7295 101.398Z" fill="black"/>
<path d="M163.42 127.851C162.61 127.851 161.801 127.857 160.991 127.848C160.612 127.844 160.177 127.852 160.172 127.317C160.166 126.757 160.54 126.607 161.044 126.609C162.692 126.618 164.341 126.607 165.989 126.611C166.42 126.612 166.835 126.687 166.814 127.25C166.796 127.742 166.433 127.843 166.022 127.844C165.155 127.847 164.287 127.845 163.42 127.845C163.42 127.847 163.42 127.849 163.42 127.851Z" fill="black"/>
<path d="M131.517 76.2648C130.884 76.2648 130.251 76.2669 129.618 76.2641C129.183 76.2622 128.863 76.0428 128.848 75.62C128.832 75.1492 129.155 74.9042 129.633 74.9023C130.927 74.8971 132.222 74.8967 133.517 74.8945C133.943 74.8938 134.311 75.0704 134.286 75.5109C134.264 75.9153 134.01 76.2601 133.502 76.2573C132.84 76.2535 132.179 76.2564 131.517 76.2564C131.517 76.2592 131.517 76.2619 131.517 76.2648Z" fill="black"/>
<path d="M55.8041 89.725C55.0562 89.725 54.308 89.7376 53.5606 89.7193C53.2323 89.7112 52.9131 89.6216 52.9026 89.1983C52.8928 88.8028 53.1443 88.6153 53.4982 88.6073C55.0504 88.5723 56.6031 88.5445 58.1555 88.547C58.4861 88.5476 58.8133 88.7941 58.7764 89.1285C58.739 89.4682 58.4509 89.7386 58.0486 89.7444C57.3007 89.755 56.5524 89.7474 55.8043 89.7474C55.8042 89.74 55.8041 89.7325 55.8041 89.725Z" fill="black"/>
<path d="M170.941 130.77C170.51 130.77 170.078 130.784 169.648 130.766C169.266 130.751 168.939 130.571 168.923 130.175C168.905 129.746 169.2 129.493 169.635 129.482C170.496 129.459 171.359 129.45 172.221 129.454C172.644 129.456 172.976 129.667 172.98 130.104C172.984 130.54 172.666 130.754 172.234 130.763C171.804 130.773 171.372 130.765 170.941 130.765C170.941 130.767 170.941 130.769 170.941 130.77Z" fill="black"/>
<path d="M89.9048 105.742C89.9227 106.282 89.4781 106.547 89.048 106.317C88.9216 106.249 88.8038 106.165 88.6841 106.086C88.3081 105.837 87.8137 105.652 88.0865 105.038C88.2013 104.78 88.3692 104.589 88.6857 104.708C89.2353 104.915 89.7151 105.207 89.9048 105.742Z" fill="black"/>
<path d="M106.713 127.253C106.656 127.731 106.37 127.946 105.952 127.931C105.538 127.916 105.233 127.692 105.247 127.239C105.258 126.858 105.449 126.584 105.883 126.594C106.338 126.604 106.639 126.81 106.713 127.253Z" fill="black"/>
<path d="M41.7049 113.047C42.138 113.133 42.4325 113.334 42.3728 113.793C42.3263 114.15 42.1306 114.498 41.7392 114.471C41.3694 114.445 41.0239 114.219 41.0354 113.76C41.0464 113.329 41.2952 113.094 41.7049 113.047Z" fill="black"/>
<path d="M85.3856 102.617C85.7714 102.785 86.1887 102.97 86.1558 103.494C86.1344 103.834 85.9309 104.111 85.5225 104.016C85.1261 103.924 84.693 103.781 84.6993 103.286C84.7039 102.922 84.944 102.655 85.3856 102.617Z" fill="black"/>
<path d="M134.511 105.304C134.127 105.215 133.8 105.068 133.869 104.625C133.926 104.254 134.149 103.993 134.576 104.017C134.996 104.041 135.22 104.293 135.196 104.69C135.172 105.095 134.882 105.275 134.511 105.304Z" fill="black"/>
<path d="M156.946 107.664C157.341 107.7 157.631 107.863 157.652 108.27C157.673 108.686 157.475 109.004 157.022 109.003C156.701 109.002 156.398 108.854 156.377 108.465C156.355 108.055 156.518 107.755 156.946 107.664Z" fill="black"/>
<path d="M70.4966 99.0358C70.4265 99.3628 70.2713 99.6986 69.8564 99.6671C69.4973 99.6399 69.1829 99.393 69.1957 98.9992C69.2076 98.6314 69.4371 98.3414 69.8561 98.3478C70.262 98.354 70.4871 98.5836 70.4966 99.0358Z" fill="black"/>
<path d="M177.426 132.516C177.831 132.572 178.124 132.736 178.135 133.154C178.146 133.543 177.943 133.839 177.542 133.862C177.147 133.885 176.902 133.638 176.867 133.237C176.83 132.82 177.078 132.615 177.426 132.516Z" fill="black"/>
<path d="M62.8411 111.517C62.7935 111.876 62.6065 112.116 62.2363 112.13C61.8535 112.146 61.5156 111.99 61.5196 111.566C61.5232 111.18 61.8122 110.944 62.2008 110.934C62.5719 110.925 62.7577 111.181 62.8411 111.517Z" fill="black"/>
<path d="M50.8236 109.957C51.1747 110.024 51.4242 110.206 51.4433 110.572C51.4645 110.981 51.2219 111.236 50.8257 111.241C50.4852 111.245 50.2026 111.057 50.2071 110.668C50.2117 110.277 50.4396 110.039 50.8236 109.957Z" fill="black"/>
<path d="M72.8437 102.175C72.4878 102.108 72.239 101.946 72.2634 101.559C72.2851 101.215 72.4568 100.954 72.8267 100.925C73.1934 100.896 73.4529 101.097 73.4499 101.461C73.4469 101.831 73.2015 102.074 72.8437 102.175Z" fill="black"/>
<path d="M83.8627 33.5273C84.2593 33.565 84.4592 33.8012 84.4676 34.1427C84.4764 34.5019 84.2543 34.7296 83.8787 34.7232C83.5472 34.7174 83.3481 34.5258 83.3516 34.1859C83.3551 33.8382 83.5184 33.5982 83.8627 33.5273Z" fill="black"/>
<path d="M83.9268 32.3305C83.5714 32.319 83.3279 32.166 83.3243 31.7787C83.3213 31.4642 83.4704 31.2017 83.7975 31.1748C84.1405 31.1465 84.4163 31.3246 84.4525 31.6976C84.4871 32.0541 84.324 32.2948 83.9268 32.3305Z" fill="black"/>
<path d="M122.101 105.74C122.302 105.244 122.22 104.814 122.22 104.396C122.222 78.8007 122.218 53.206 122.228 27.6112C122.228 27.2302 121.979 26.7054 122.58 26.5014C123.154 26.3067 123.482 26.6179 123.484 27.3575C123.491 29.7703 123.493 32.183 123.493 34.5957C123.49 50.8249 123.487 67.054 123.482 83.2831C123.48 90.4358 123.47 97.5884 123.469 104.741C123.468 105.257 123.483 105.776 123.539 106.289C123.616 107.002 123.296 107.306 122.605 107.297C122.085 107.29 121.564 107.287 121.044 107.287C116.042 107.286 111.039 107.288 106.037 107.284C105.723 107.284 105.389 107.345 105.105 107.166C104.746 106.939 104.508 106.563 104.834 106.235C105.336 105.73 105.266 105.146 105.266 104.556C105.277 88.3838 105.291 72.2112 105.291 56.0386C105.291 44.1176 105.275 32.1967 105.251 20.2757C105.25 19.8539 105.406 19.5618 105.669 19.2862C108.532 16.2861 111.403 13.2922 114.258 10.2841C114.814 9.69741 115.259 9.76009 115.752 10.3547C118.215 13.3246 120.673 16.2983 123.172 19.2379C123.786 19.9606 123.6 20.7521 123.592 21.5297C123.572 23.2669 123.974 23.1685 121.924 23.1669C117.703 23.1636 113.481 23.1824 109.26 23.1367C108.435 23.1278 108.257 23.3935 108.259 24.1614C108.291 36.6854 108.303 49.2094 108.302 61.7334C108.3 75.9521 108.278 90.1709 108.282 104.39C108.282 104.843 107.98 105.545 108.49 105.717C109.133 105.935 109.917 105.993 110.583 105.619C110.796 105.5 110.925 105.34 111.174 105.528C111.787 105.993 112.505 105.739 113.178 105.794C113.544 105.823 113.6 105.569 113.599 105.286C113.595 103.965 113.577 102.644 113.59 101.322C113.594 100.882 113.37 100.797 112.998 100.794C112.333 100.787 111.668 100.762 111.004 100.73C110.577 100.711 110.175 100.646 110.206 100.066C110.234 99.5521 110.591 99.4799 110.994 99.4802C113.48 99.4814 115.967 99.4851 118.453 99.4923C118.866 99.4935 119.265 99.6276 119.223 100.099C119.19 100.476 118.902 100.773 118.455 100.775C117.53 100.78 116.603 100.799 115.679 100.763C115.105 100.74 114.843 100.887 114.865 101.522C114.907 102.727 114.891 103.935 114.861 105.141C114.849 105.63 115.032 105.797 115.51 105.794C117.013 105.784 118.517 105.79 120.02 105.814C120.512 105.822 120.661 105.632 120.658 105.153C120.635 100.384 120.625 95.616 120.633 90.8475C120.633 90.3945 120.506 90.261 120.053 90.2441C118.532 90.1875 118.538 90.1694 118.542 91.6701C118.548 93.6808 118.545 95.6917 118.547 97.7025C118.547 98.1191 118.573 98.4924 117.938 98.4894C117.322 98.4865 117.314 98.1403 117.315 97.7099C117.321 95.498 117.304 93.2859 117.338 91.0745C117.347 90.4708 117.244 90.2068 116.545 90.2299C114.945 90.2824 114.943 90.2431 114.947 91.8189C114.952 93.7722 114.959 95.7255 114.964 97.6789C114.965 98.109 115.031 98.5885 114.367 98.5807C113.72 98.573 113.749 98.081 113.742 97.6587C113.725 96.7686 113.722 95.8773 113.752 94.9877C113.768 94.5231 113.648 94.2671 113.132 94.3413C113.047 94.3535 112.958 94.3425 112.872 94.3414C111.642 94.327 111.644 94.327 111.64 95.5199C111.638 96.3241 111.626 97.1283 111.624 97.9325C111.623 98.2904 111.549 98.553 111.092 98.5127C110.71 98.479 110.329 98.5145 110.327 97.9501C110.318 95.2214 110.293 92.4928 110.277 89.7641C110.274 89.1641 110.618 89.0028 111.176 89.004C114.443 89.011 117.71 89.0059 120.977 88.9805C121.74 88.9746 121.872 89.3637 121.871 90.0124C121.864 94.9245 121.878 99.8366 121.894 104.749C121.894 105.047 121.79 105.373 122.101 105.74ZM106.665 105.854C107.007 105.501 106.944 105.208 106.947 104.943C106.954 104.11 106.945 103.277 106.945 102.445C106.943 75.9089 106.947 49.3733 106.917 22.8378C106.916 21.9579 107.181 21.6391 108.015 21.6967C108.245 21.7126 108.478 21.6967 108.709 21.6966C112.929 21.6946 117.15 21.6957 121.37 21.6841C121.662 21.6832 122.068 21.8253 122.203 21.4382C122.326 21.0897 122.316 20.6985 122.071 20.3682C121.969 20.2296 121.855 20.0992 121.743 19.9673C119.662 17.5049 117.561 15.059 115.514 12.5689C115.031 11.98 114.765 12.0131 114.274 12.5345C111.983 14.9655 109.679 17.3856 107.328 19.7585C106.773 20.3178 106.529 20.8589 106.53 21.6366C106.546 33.2096 106.535 44.7826 106.533 56.3557C106.529 72.1218 106.527 87.8881 106.531 103.654C106.531 104.335 106.447 105.025 106.665 105.854ZM113.737 91.8273C113.731 91.8273 113.725 91.8273 113.719 91.8273C113.719 91.4544 113.723 91.0815 113.718 90.7086C113.715 90.4732 113.709 90.228 113.366 90.248C112.905 90.2748 112.443 90.2904 111.985 90.3412C111.568 90.3874 111.603 90.7292 111.642 91.0033C111.748 91.7345 111.234 92.6989 111.935 93.1602C112.878 93.7807 113.735 93.182 113.737 92.0855C113.737 91.9995 113.737 91.9133 113.737 91.8273Z" fill="black"/>
<path d="M115.279 75.3574C117.156 75.3574 119.034 75.3752 120.911 75.348C121.592 75.3382 121.888 75.527 121.877 76.272C121.838 78.8536 121.859 81.4363 121.869 84.0184C121.871 84.4681 121.8 84.8417 121.252 84.8466C120.679 84.8519 120.643 84.4348 120.64 84.0086C120.633 83.1192 120.592 82.2285 120.629 81.3411C120.651 80.8278 120.463 80.7127 119.987 80.7236C118.191 80.7645 118.579 80.5588 118.539 82.0986C118.52 82.8154 118.524 83.5332 118.531 84.2504C118.534 84.6257 118.518 84.9254 117.997 84.92C117.489 84.9147 117.265 84.7495 117.286 84.2162C117.322 83.2992 117.289 82.3796 117.324 81.4625C117.344 80.9411 117.236 80.7041 116.621 80.7135C114.938 80.7392 114.939 80.7072 114.95 82.3919C114.954 83.0518 114.946 83.7117 114.95 84.3716C114.953 84.7226 114.902 84.9928 114.44 84.9758C114.007 84.9599 113.713 84.862 113.721 84.3474C113.737 83.3723 113.697 82.3953 113.739 81.4218C113.765 80.8394 113.547 80.651 112.993 80.7317C112.767 80.7647 112.53 80.7616 112.301 80.7385C111.751 80.6829 111.609 80.9478 111.625 81.45C111.653 82.3386 111.646 83.2291 111.621 84.1179C111.613 84.4142 111.786 84.8752 111.189 84.8517C110.692 84.8321 110.28 84.7521 110.305 84.0909C110.335 83.2602 110.304 82.4272 110.301 81.5953C110.295 80.1894 110.273 78.7832 110.296 77.3777C110.304 76.8471 110.19 76.5577 109.582 76.6324C108.999 76.704 108.721 76.3896 108.727 75.8277C108.733 75.204 109.243 75.3833 109.561 75.3795C111.467 75.3566 113.373 75.3682 115.279 75.3682C115.279 75.3644 115.279 75.3609 115.279 75.3574ZM117.335 78.1855C117.341 76.6499 117.341 76.6799 115.772 76.6965C115.117 76.7034 114.822 76.8688 114.902 77.5696C114.965 78.1084 114.92 78.6593 114.924 79.2047C114.926 79.4467 114.964 79.6269 115.27 79.7021C116.762 80.0679 117.329 79.661 117.335 78.1855ZM120.627 78.1661C120.632 76.5965 120.634 76.6171 119.097 76.724C118.631 76.7564 118.516 76.9416 118.533 77.3559C118.557 77.9255 118.557 78.497 118.54 79.0671C118.529 79.4797 118.638 79.6687 119.116 79.6809C120.621 79.7192 120.62 79.7418 120.627 78.2518C120.627 78.2232 120.627 78.1947 120.627 78.1661ZM113.733 78.2299C113.721 78.2299 113.709 78.2299 113.697 78.2299C113.697 77.886 113.7 77.5421 113.695 77.1983C113.693 77.0294 113.705 76.7995 113.487 76.7884C112.942 76.7608 112.237 76.5683 111.882 76.8278C111.244 77.2952 111.734 78.142 111.643 78.8204C111.607 79.0896 111.484 79.4574 111.919 79.6243C113.032 80.0522 113.744 79.5798 113.733 78.4019C113.732 78.3445 113.733 78.2873 113.733 78.2299Z" fill="black"/>
<path d="M116.093 65.0453C117.711 65.0453 119.329 65.065 120.947 65.0357C121.603 65.0238 121.864 65.2213 121.855 65.9183C121.823 68.3289 121.843 70.7405 121.863 73.1515C121.867 73.6582 121.742 73.9995 121.164 74.0032C120.59 74.0069 120.644 73.5788 120.629 73.2121C120.615 72.8682 120.617 72.5233 120.622 72.1791C120.641 70.8891 120.18 70.5546 118.886 70.8596C118.505 70.9494 118.552 71.1875 118.55 71.4357C118.544 72.1246 118.531 72.814 118.551 73.5023C118.563 73.932 118.361 74.0334 117.971 74.0314C117.577 74.0295 117.29 73.9956 117.304 73.4962C117.324 72.7792 117.295 72.0607 117.317 71.3438C117.328 70.9746 117.202 70.8015 116.824 70.8346C116.766 70.8396 116.708 70.8318 116.65 70.8289C114.957 70.7436 114.958 70.7436 114.95 72.4043C114.948 72.7487 114.918 73.0942 114.938 73.4371C114.963 73.8751 114.803 74.0502 114.343 74.0387C113.901 74.0277 113.714 73.8712 113.735 73.4277C113.76 72.912 113.775 72.3934 113.747 71.8786C113.73 71.5559 113.956 71.0502 113.581 70.9452C113.013 70.7856 112.374 70.7903 111.786 70.965C111.584 71.025 111.648 71.3186 111.647 71.5144C111.641 72.1171 111.651 72.72 111.643 73.3227C111.639 73.6548 111.724 74.0478 111.154 74.0136C110.679 73.9851 110.299 73.9215 110.311 73.3061C110.329 72.3306 110.308 71.3545 110.304 70.3786C110.3 68.8859 110.31 67.3931 110.285 65.9007C110.276 65.2806 110.504 65.0433 111.152 65.058C112.798 65.0956 114.446 65.0705 116.092 65.0705C116.093 65.0621 116.093 65.0536 116.093 65.0453ZM114.931 68.0533C114.93 69.9108 114.929 69.8967 116.772 69.7337C117.186 69.6971 117.327 69.5374 117.319 69.1542C117.304 68.4113 117.297 67.668 117.303 66.925C117.306 66.576 117.184 66.4382 116.809 66.4006C114.997 66.2191 114.933 66.2637 114.931 68.0533ZM120.629 68.0307C120.625 66.3566 120.626 66.3848 119.177 66.4275C118.622 66.4439 118.487 66.6645 118.516 67.1532C118.548 67.6957 118.581 68.245 118.53 68.7837C118.46 69.5308 118.713 69.788 119.491 69.7388C120.628 69.6667 120.631 69.7191 120.631 68.546C120.631 68.3743 120.631 68.2024 120.629 68.0307ZM113.774 68.1547C113.766 68.1547 113.757 68.1547 113.749 68.1547C113.749 67.8407 113.723 67.524 113.755 67.2132C113.818 66.5944 113.607 66.2959 112.941 66.413C112.746 66.4475 112.539 66.4374 112.339 66.4222C111.833 66.3836 111.604 66.5746 111.632 67.1088C111.667 67.7924 111.64 68.4791 111.646 69.1645C111.648 69.4254 111.661 69.6533 112.01 69.7405C113.278 70.0569 113.775 69.6937 113.774 68.4117C113.774 68.3261 113.774 68.2404 113.774 68.1547Z" fill="black"/>
<path d="M116.135 51.8023C117.695 51.8023 119.255 51.8216 120.814 51.7935C121.524 51.7808 121.873 51.9822 121.862 52.7668C121.832 54.9472 121.851 57.1284 121.877 59.309C121.883 59.8357 121.738 60.2993 121.198 60.3199C120.594 60.3429 120.637 59.7835 120.632 59.3558C120.621 58.3516 120.59 57.3459 120.632 56.3434C120.653 55.8497 120.512 55.6501 120.019 55.6975C119.847 55.7139 119.67 55.715 119.5 55.693C118.772 55.5991 118.476 55.8391 118.528 56.6308C118.602 57.7737 118.534 58.9253 118.543 60.0731C118.547 60.5159 118.428 60.762 117.913 60.7724C117.373 60.7834 117.294 60.5019 117.298 60.0748C117.312 58.8122 117.294 57.549 117.33 56.2872C117.344 55.7892 117.168 55.66 116.683 55.6531C114.965 55.6291 114.966 55.611 114.966 57.3066C114.966 58.2822 114.962 59.2579 114.961 60.2336C114.961 60.6292 114.95 60.9739 114.381 60.9629C113.846 60.9526 113.754 60.627 113.752 60.2294C113.744 58.9668 113.726 57.7031 113.773 56.4421C113.795 55.836 113.598 55.5954 112.994 55.6813C112.824 55.7054 112.646 55.7021 112.475 55.6821C111.854 55.609 111.597 55.8204 111.627 56.4914C111.68 57.6655 111.637 58.8438 111.639 60.0204C111.64 60.4188 111.633 60.756 111.063 60.7497C110.547 60.744 110.33 60.5497 110.33 60.0422C110.328 57.9189 110.329 55.7952 110.298 53.6722C110.269 51.6607 110.137 51.8148 112.149 51.8069C113.478 51.8018 114.806 51.8059 116.135 51.8059C116.135 51.8049 116.135 51.8036 116.135 51.8023ZM115.925 54.5835C116.111 54.5835 116.227 54.579 116.342 54.5842C116.904 54.61 117.314 54.5723 117.324 53.7933C117.334 52.9303 116.785 53.1861 116.348 53.1581C116.147 53.1453 115.94 53.1857 115.744 53.1552C115.005 53.0408 114.892 53.4266 114.913 54.0473C114.943 54.957 115.632 54.4197 115.925 54.5835ZM119.477 54.5527C119.67 54.5527 119.786 54.5424 119.9 54.5545C120.434 54.6107 120.656 54.4368 120.662 53.8455C120.669 53.207 120.361 53.136 119.866 53.1713C119.637 53.1877 119.404 53.1899 119.176 53.168C118.701 53.1227 118.558 53.2996 118.518 53.7912C118.445 54.69 119.001 54.5845 119.477 54.5527ZM112.738 54.5664C113.194 54.5267 113.823 54.7905 113.775 53.8422C113.742 53.1821 113.448 53.0486 112.931 53.1714C112.452 53.2855 111.645 52.7509 111.61 53.8387C111.581 54.7469 112.186 54.5572 112.738 54.5664Z" fill="black"/>
<path d="M110.327 29.4085C110.327 28.2022 110.342 26.9956 110.321 25.7896C110.31 25.1447 110.545 24.8596 111.233 24.8636C114.413 24.8819 117.593 24.8738 120.773 24.8555C121.552 24.851 121.86 25.1993 121.857 25.9536C121.849 28.28 121.864 30.6066 121.879 32.933C121.882 33.4009 121.828 33.8553 121.247 33.8568C120.648 33.8582 120.629 33.3778 120.631 32.9242C120.634 31.8902 120.596 30.8549 120.64 29.8229C120.664 29.2613 120.506 29.0105 119.924 29.0859C119.753 29.1079 119.576 29.1061 119.404 29.0875C118.756 29.0174 118.473 29.2229 118.518 29.9425C118.588 31.0298 118.533 32.1244 118.545 33.2157C118.55 33.6039 118.516 33.8851 117.995 33.8545C117.558 33.8289 117.28 33.7544 117.293 33.2308C117.32 32.1112 117.288 30.9899 117.326 29.8708C117.345 29.3039 117.207 29.0616 116.567 29.0614C114.956 29.0609 114.954 29.0276 114.952 30.6292C114.951 31.4622 114.958 32.2951 114.96 33.128C114.961 33.5077 114.997 33.8753 114.41 33.8777C113.865 33.8801 113.708 33.6471 113.719 33.1482C113.744 32.0572 113.698 30.9635 113.756 29.8749C113.791 29.206 113.541 28.9906 112.913 29.0814C112.743 29.1059 112.564 29.102 112.393 29.0823C111.846 29.0192 111.614 29.2075 111.634 29.7965C111.673 30.8864 111.647 31.9791 111.63 33.0703C111.625 33.4139 111.755 33.857 111.12 33.8397C110.555 33.8242 110.283 33.6427 110.302 33.027C110.338 31.8219 110.312 30.6148 110.312 29.4085C110.317 29.4084 110.322 29.4084 110.327 29.4085ZM115.999 26.3717C115.791 26.5311 114.874 25.7993 114.885 27.0214C114.892 27.7794 115.09 28.0777 115.85 27.9654C116.076 27.9322 116.314 27.9359 116.541 27.966C117.137 28.0449 117.307 27.8087 117.354 27.2111C117.428 26.2706 116.979 26.1438 115.999 26.3717ZM119.462 26.294C118.952 26.2409 118.461 26.2433 118.496 27.1361C118.522 27.8232 118.746 28.0509 119.4 27.9708C119.977 27.9001 120.653 28.1662 120.672 27.1031C120.69 26.1291 120.124 26.3083 119.462 26.294ZM112.706 27.9121C113.141 27.8608 113.842 28.2089 113.743 27.2819C113.698 26.8639 113.991 26.1505 113.125 26.3301C112.6 26.4389 111.735 25.809 111.608 26.9876C111.509 27.9204 112.033 27.9555 112.706 27.9121Z" fill="black"/>
<path d="M116.094 38.4664C117.654 38.4664 119.216 38.4861 120.776 38.4577C121.507 38.4444 121.885 38.6171 121.867 39.4634C121.82 41.7596 121.855 44.0575 121.855 46.3548C121.855 46.7501 121.939 47.236 121.33 47.2389C120.772 47.2416 120.627 46.8589 120.636 46.3598C120.649 45.6423 120.596 44.9226 120.632 44.207C120.658 43.7047 120.549 43.4878 119.983 43.5039C118.242 43.5533 118.583 43.3442 118.553 44.9083C118.542 45.5398 118.55 46.1718 118.553 46.8035C118.555 47.185 118.491 47.4785 117.994 47.4788C117.525 47.479 117.307 47.3111 117.317 46.8248C117.335 45.935 117.305 45.0441 117.329 44.1547C117.342 43.7054 117.257 43.4657 116.722 43.4949C114.522 43.6145 115.014 43.1303 114.949 45.2496C114.932 45.8234 114.934 46.3983 114.948 46.9722C114.958 47.3715 114.788 47.5458 114.386 47.5423C113.986 47.5387 113.721 47.4452 113.731 46.9651C113.749 46.0467 113.7 45.1259 113.747 44.2097C113.778 43.6237 113.558 43.4358 113.008 43.5122C112.838 43.5359 112.659 43.5387 112.489 43.5153C111.816 43.423 111.566 43.6683 111.618 44.369C111.682 45.2256 111.624 46.0908 111.629 46.9523C111.632 47.3389 111.595 47.6443 111.067 47.5646C110.702 47.5096 110.31 47.5992 110.311 47.0094C110.32 44.3964 110.302 41.7833 110.293 39.1702C110.291 38.5814 110.651 38.4838 111.151 38.4887C112.799 38.5045 114.446 38.4946 116.094 38.4946C116.094 38.4851 116.094 38.4757 116.094 38.4664ZM117.334 41.0161C117.292 39.5878 117.608 39.7536 116.05 39.7653C115.819 39.767 115.588 39.7848 115.357 39.7887C114.789 39.7984 114.881 40.2333 114.938 40.5349C115.059 41.177 114.467 42.1351 115.323 42.4199C116.805 42.9129 117.332 42.4556 117.334 41.0161ZM120.62 41.1035C120.6 39.7187 120.522 39.6525 119.108 39.8161C119.051 39.8227 118.994 39.8325 118.937 39.8342C118.65 39.8428 118.538 39.9979 118.54 40.2725C118.546 40.8699 118.539 41.4676 118.543 42.0651C118.545 42.242 118.595 42.3734 118.8 42.4489C119.893 42.8505 120.634 42.3448 120.621 41.1889C120.621 41.1604 120.621 41.1319 120.62 41.1035ZM113.75 41.1814C113.657 39.5623 114.05 39.8761 112.286 39.8506C112.257 39.8502 112.228 39.855 112.2 39.8536C111.816 39.8354 111.607 39.9755 111.626 40.3978C111.648 40.8835 111.631 41.3709 111.632 41.8575C111.633 42.0893 111.637 42.2927 111.927 42.4028C113.057 42.832 113.76 42.3696 113.75 41.1814Z" fill="black"/>
<path d="M115.092 49.0413C116.941 49.0413 118.789 49.0336 120.638 49.0468C121.087 49.0501 121.636 48.9866 121.655 49.6762C121.674 50.4001 121.143 50.3888 120.632 50.389C116.992 50.39 113.352 50.3929 109.711 50.3931C109.539 50.3931 109.364 50.3877 109.194 50.3605C108.722 50.285 108.618 49.9534 108.625 49.539C108.634 49.0834 108.954 49.0565 109.285 49.0559C111.22 49.0529 113.156 49.0544 115.091 49.0544C115.092 49.05 115.092 49.0457 115.092 49.0413Z" fill="black"/>
<path d="M115.062 62.2582C116.912 62.2582 118.761 62.2568 120.611 62.2592C121.083 62.2598 121.62 62.2438 121.633 62.8933C121.646 63.5229 121.202 63.6805 120.632 63.6788C116.961 63.6683 113.29 63.6757 109.62 63.6673C109.166 63.6662 108.666 63.7179 108.638 63.0096C108.615 62.4167 108.905 62.2778 109.425 62.2813C111.304 62.294 113.183 62.2864 115.062 62.2864C115.062 62.2769 115.062 62.2676 115.062 62.2582Z" fill="black"/>
<path d="M115.068 35.5909C116.828 35.5909 118.588 35.5867 120.348 35.5951C120.632 35.5965 120.931 35.6093 121.195 35.6982C121.484 35.7951 121.657 36.049 121.633 36.3715C121.609 36.7006 121.391 36.8828 121.081 36.9462C120.913 36.9804 120.737 36.9877 120.565 36.9881C116.872 36.9964 113.18 37.004 109.487 37.005C109.093 37.0051 108.679 37.0648 108.636 36.4396C108.597 35.8669 108.707 35.5955 109.356 35.6056C111.26 35.6351 113.164 35.6161 115.068 35.6161C115.068 35.6078 115.068 35.5994 115.068 35.5909Z" fill="black"/>
<path d="M115.268 87.6041C113.475 87.6041 111.682 87.6095 109.89 87.6003C109.423 87.5978 108.907 87.6003 108.887 86.9371C108.867 86.245 109.416 86.2625 109.866 86.2598C113.451 86.2383 117.036 86.2363 120.621 86.2266C121.112 86.2252 121.509 86.3606 121.484 86.9369C121.459 87.5081 121.032 87.6044 120.559 87.6043C118.795 87.6039 117.032 87.6041 115.268 87.6041Z" fill="black"/>
<path d="M111.406 102.059C111.365 102.357 111.3 102.634 110.908 102.6C110.549 102.569 110.192 102.475 110.225 102.029C110.252 101.663 110.478 101.392 110.89 101.403C111.31 101.413 111.339 101.757 111.406 102.059Z" fill="black"/>
<path d="M111.392 104.12C111.384 104.538 111.096 104.608 110.799 104.615C110.489 104.622 110.217 104.525 110.24 104.133C110.264 103.708 110.537 103.525 110.927 103.531C111.314 103.538 111.322 103.875 111.392 104.12Z" fill="black"/>
<path d="M180.429 124.412C180.384 124.031 180.125 123.804 179.72 123.786C179.461 123.774 179.201 123.765 178.941 123.765C175.471 123.769 172.001 123.738 168.532 123.803C167.61 123.82 167.452 123.522 167.456 122.686C167.49 115.247 167.469 107.807 167.5 100.367C167.503 99.5328 167.257 99.2569 166.411 99.2961C165.026 99.3602 163.636 99.3152 162.248 99.308C161.057 99.3018 161.06 99.2967 161.061 98.1574C161.065 93.8486 161.054 89.5397 161.081 85.231C161.085 84.4966 160.858 84.1945 160.09 84.2077C158.182 84.2405 156.273 84.2391 154.365 84.1997C153.546 84.1828 153.228 84.4538 153.26 85.2997C153.322 86.9925 153.274 88.689 153.313 90.383C153.326 90.9678 153.137 91.2151 152.534 91.2003C151.494 91.1747 150.453 91.1972 149.412 91.1909C148.326 91.1843 148.289 91.2134 148.292 92.2919C148.317 101.254 148.343 110.216 148.37 119.178C148.371 119.494 148.378 119.811 148.412 120.124C148.452 120.49 148.688 120.717 149.051 120.685C149.392 120.655 149.633 120.444 149.637 120.058C149.639 119.857 149.644 119.656 149.644 119.455C149.644 115.031 149.642 110.607 149.643 106.184C149.644 101.99 149.661 97.796 149.637 93.6022C149.633 92.8906 149.853 92.6209 150.578 92.6865C151.18 92.7409 151.796 92.7351 152.398 92.6759C153.104 92.6065 153.348 92.8207 153.339 93.563C153.301 96.6648 153.331 99.7675 153.329 102.87C153.327 105.34 153.317 107.81 153.308 110.281C153.306 110.768 153.483 111.186 154.001 111.205C154.593 111.227 154.63 110.74 154.63 110.284C154.629 108.676 154.632 107.067 154.633 105.459C154.639 99.139 154.652 92.8194 154.637 86.5C154.636 85.8959 154.814 85.6934 155.418 85.7149C156.544 85.755 157.675 85.7771 158.8 85.7216C159.544 85.6849 159.705 85.9578 159.701 86.6541C159.672 91.8452 159.683 97.0365 159.684 102.228C159.684 104.066 159.692 105.905 159.695 107.743C159.696 108.192 159.822 108.584 160.351 108.564C160.827 108.547 161.054 108.222 161.042 107.745C161.037 107.515 161.043 107.285 161.042 107.055C161.036 105.274 161.045 103.493 161.014 101.713C161.004 101.177 161.133 100.927 161.73 100.951C162.943 100.999 164.158 101.003 165.372 100.997C165.818 100.994 165.99 101.15 165.966 101.599C165.935 102.2 165.952 102.805 165.953 103.408C165.953 109.9 165.95 116.392 165.965 122.884C165.967 123.481 165.927 123.86 165.151 123.802C164.421 123.748 164.598 123.263 164.597 122.877C164.586 117.075 164.587 111.272 164.584 105.47C164.584 105.125 164.576 104.781 164.567 104.436C164.555 103.997 164.273 103.828 163.885 103.829C163.508 103.831 163.2 103.988 163.145 104.406C163.111 104.66 163.119 104.921 163.119 105.179C163.122 111.097 163.115 117.014 163.148 122.931C163.152 123.594 162.939 123.779 162.317 123.76C161.306 123.729 160.293 123.767 159.281 123.756C157.72 123.74 157.747 123.732 157.717 122.205C157.705 121.587 157.829 121.266 158.499 121.037C160.371 120.397 161.428 118.429 161.068 116.487C160.723 114.626 159.067 113.167 157.289 113.156C155.065 113.143 153.45 114.36 153.065 116.338C152.667 118.379 153.602 120.342 155.452 120.957C156.268 121.228 156.477 121.61 156.388 122.345C156.367 122.515 156.362 122.693 156.387 122.861C156.491 123.58 156.183 123.79 155.468 123.788C146.302 123.769 137.137 123.769 127.971 123.791C127.266 123.793 127.04 123.622 127.041 122.887C127.066 105.624 127.07 88.3598 127.049 71.096C127.048 70.3121 127.28 70.1479 128.023 70.1543C132.447 70.1922 136.871 70.1832 141.295 70.1823C142.463 70.1821 142.46 70.1697 142.462 71.3214C142.479 85.8563 142.497 100.391 142.515 114.926C142.516 115.156 142.511 115.387 142.534 115.615C142.574 116 142.777 116.295 143.184 116.278C143.54 116.263 143.74 115.993 143.759 115.632C143.778 115.289 143.781 114.944 143.782 114.599C143.808 100.122 143.841 85.6445 143.841 71.1672C143.841 70.3512 144.091 70.1597 144.867 70.1681C145.627 70.1765 145.983 70.2682 145.975 71.1775C145.926 76.633 145.946 82.0891 145.944 87.5451C145.944 87.8609 145.944 88.1775 145.966 88.4922C146.002 88.9982 146.358 89.1848 146.796 89.1813C147.215 89.1779 147.5 88.9462 147.525 88.491C147.534 88.319 147.534 88.1465 147.534 87.9741C147.53 82.1429 147.528 76.3116 147.521 70.4804C147.518 68.6627 147.511 68.6784 145.645 68.6793C139.747 68.682 133.848 68.6604 127.95 68.6817C127.221 68.6843 127.022 68.4647 127.041 67.7527C127.095 65.8007 127.065 63.8466 127.076 61.8933C127.082 60.7998 127.089 60.7919 128.235 60.7911C138.21 60.7848 148.185 60.7817 158.161 60.7765C158.478 60.7763 158.799 60.7847 159.114 60.751C159.536 60.706 159.839 60.4509 159.829 60.0314C159.818 59.5977 159.496 59.3905 159.058 59.3886C158.885 59.3879 158.711 59.3837 158.538 59.3836C153.796 59.382 149.054 59.3812 144.312 59.3793C138.905 59.3771 133.498 59.3742 128.091 59.3711C127.571 59.3708 127.02 59.6668 127.024 58.6368C127.068 47.1756 126.969 20.9282 127.042 20.4416C127.251 19.0543 126.719 17.9824 125.802 16.954C124.001 14.9352 122.291 12.8367 120.551 10.765C118.699 8.56056 116.844 6.35824 115.018 4.13326C114.619 3.64785 114.253 3.51674 113.698 3.84541C113.029 4.2418 112.36 4.65473 111.647 4.95588C107.972 6.5067 104.952 9.52445 100.697 9.78676C100.403 9.80492 100.19 10.0484 100.169 10.3852C100.152 10.6725 100.25 10.949 100.528 11.0055C101.545 11.2116 102.613 11.3886 103.579 10.9727C104.713 10.4845 105.755 9.7882 106.855 9.21601C107.416 8.92439 107.938 8.53313 108.796 8.32775C106.475 10.5197 104.318 12.553 102.167 14.592C101.902 14.8433 101.667 14.7508 101.382 14.6282C99.5799 13.8526 97.7701 13.0948 95.9643 12.328C95.2979 12.045 94.6352 11.7533 93.8552 11.4155C94.2526 11.1708 94.5395 11.2447 94.8121 11.2461C95.6793 11.2507 96.5464 11.2629 97.4137 11.2669C97.9145 11.2691 98.171 10.9752 98.1782 10.5167C98.1852 10.063 97.8886 9.86076 97.4396 9.87065C97.2664 9.87443 97.0928 9.86598 96.9194 9.86229C94.0012 9.80006 91.0906 9.63533 88.1975 9.22986C87.2768 9.10082 87.0785 9.28282 87.0775 10.2295C87.0743 13.4181 87.0611 16.6066 87.0748 19.7949C87.0773 20.3549 86.9214 20.7376 86.4536 21.1021C84.1119 22.9269 81.8077 24.7992 79.483 26.646C79.1434 26.9159 78.9779 27.2069 78.9798 27.6645C79.0063 34.0988 79.0123 40.5333 79.025 46.9677C79.0255 47.2547 79.0391 47.5418 79.0536 47.8286C79.0723 48.1936 79.2627 48.4268 79.63 48.4702C80.0302 48.5174 80.3244 48.3215 80.4104 47.9439C80.4922 47.5845 80.509 47.2046 80.5093 46.8338C80.5128 40.8015 80.5085 34.7692 80.5086 28.737C80.5086 28.2857 80.4622 27.8556 80.9183 27.5032C82.7664 26.0756 84.5808 24.6049 86.4155 23.16C86.6048 23.0109 86.7592 22.7526 87.0463 22.8176C87.0463 26.4727 87.0479 30.1153 87.046 33.7579C87.0364 51.7399 87.0255 69.7219 87.017 87.7039C87.0167 88.2494 87.0302 88.7953 87.0516 89.3404C87.0684 89.77 87.3164 90.0998 87.7267 90.1046C88.1823 90.11 88.4329 89.7634 88.4597 89.3031C88.4764 89.0166 88.4764 88.7288 88.4766 88.4417C88.4882 69.7128 88.4956 50.9839 88.5119 32.2551C88.5179 25.4473 88.5446 18.6395 88.5644 11.8317C88.5656 11.3883 88.4269 10.8151 89.2529 11.1727C93.0664 12.8234 96.8838 14.4652 100.708 16.091C101.142 16.2756 101.211 16.5536 101.209 16.9645C101.202 18.6878 101.23 20.4114 101.23 22.1348C101.231 47.5567 101.232 72.9785 101.229 98.4005C101.228 106.558 101.207 114.716 101.221 122.874C101.223 123.584 101.02 123.844 100.295 123.802C99.1699 123.737 98.0394 123.71 96.9137 123.745C96.2392 123.766 96.0926 123.5 96.0999 122.891C96.1308 120.306 96.1229 117.721 96.1272 115.136C96.1294 113.763 96.1275 112.391 96.1275 110.893C96.6628 111.208 97.0939 111.437 97.498 111.707C97.9176 111.986 98.2306 111.945 98.5156 111.517C98.8055 111.082 98.6772 110.728 98.2962 110.481C96.4336 109.274 94.5621 108.08 92.6809 106.902C92.3163 106.674 91.9253 106.618 91.6458 107.099C91.388 107.544 91.5294 107.879 91.8998 108.141C92.5593 108.606 93.2038 109.11 93.9173 109.477C94.471 109.762 94.6198 110.113 94.6178 110.693C94.6034 114.772 94.6006 118.852 94.6418 122.93C94.649 123.649 94.3791 123.796 93.7395 123.793C86.8004 123.766 79.8611 123.753 72.922 123.756C72.3505 123.756 72.1965 123.577 72.1998 123.017C72.2251 118.737 72.2245 114.456 72.2099 110.176C72.2083 109.717 72.3567 109.453 72.7476 109.209C73.9225 108.477 75.0719 107.705 76.2241 106.938C76.6543 106.651 77.2005 106.35 76.8001 105.724C76.4119 105.118 75.9308 105.402 75.4607 105.707C73.8399 106.759 72.2038 107.788 70.5794 108.835C69.7795 109.351 68.9788 109.867 68.2056 110.42C67.838 110.683 67.5961 111.035 67.9222 111.524C68.2548 112.023 68.6207 111.915 69.0248 111.643C69.3837 111.402 69.7561 111.181 70.1082 110.93C70.5258 110.633 70.7043 110.691 70.7038 111.235C70.7008 115.199 70.7056 119.163 70.722 123.127C70.7239 123.597 70.5742 123.793 70.0756 123.788C67.011 123.759 63.946 123.755 60.8813 123.735C60.6447 123.733 60.3156 123.816 60.2946 123.414C60.2768 123.076 60.5281 123.025 60.7929 122.938C63.5093 122.039 64.4957 119.398 63.0182 117.011C62.1202 115.561 60.2476 114.781 58.6828 115.206C56.8456 115.704 55.5666 117.245 55.5516 118.977C55.5358 120.797 56.6667 122.374 58.3692 122.875C58.6576 122.959 58.9377 122.98 58.8997 123.389C58.8518 123.904 58.4538 123.757 58.1768 123.757C52.1051 123.764 46.0333 123.749 39.9618 123.77C39.2317 123.773 39.054 123.533 39.0575 122.831C39.0859 117.172 39.0717 111.513 39.0777 105.854C39.0782 105.31 39.0905 104.724 38.3603 104.726C37.6103 104.729 37.6693 105.356 37.6689 105.871C37.6682 107.078 37.6846 108.284 37.6848 109.491C37.6855 113.914 37.6751 118.338 37.6894 122.762C37.6914 123.385 37.6464 123.772 36.8306 123.767C36.0072 123.762 36.1526 123.283 36.1539 122.81C36.157 121.661 36.1615 120.512 36.163 119.363C36.1702 113.819 36.1893 108.275 36.1668 102.731C36.164 102.042 36.3622 101.815 37.0424 101.86C37.8198 101.911 38.603 101.875 39.3836 101.88C40.8677 101.889 40.8675 101.89 40.8664 103.323C40.8658 104.099 40.8639 104.875 40.8675 105.65C40.8733 106.943 40.8901 108.235 40.8881 109.528C40.8873 110.057 41.1721 110.37 41.6565 110.389C42.1974 110.41 42.3841 110.02 42.375 109.52C42.3671 109.09 42.3749 108.659 42.3752 108.228C42.379 102.483 42.3814 96.7378 42.3873 90.9927C42.3885 89.8518 42.3961 89.8905 43.5004 89.84C44.1658 89.8096 44.4724 89.9858 44.3743 90.6835C44.3429 90.9068 44.3981 91.1412 44.4052 91.3708C44.4186 91.7991 44.6509 91.9952 45.0674 91.9867C45.4828 91.9784 45.7072 91.7679 45.7178 91.3467C45.7358 90.6289 45.7633 89.9112 45.7715 89.1934C45.7785 88.5749 45.4521 88.3351 44.8374 88.3563C43.8842 88.3893 42.9296 88.3802 41.9755 88.3808C40.8967 88.3815 40.841 88.4277 40.8425 89.4957C40.847 92.8565 40.84 96.2175 40.8756 99.578C40.8824 100.219 40.6918 100.434 40.0437 100.415C38.628 100.375 37.2105 100.4 35.7937 100.401C34.7524 100.402 34.6888 100.476 34.6903 101.545C34.701 108.64 34.6979 115.736 34.7326 122.831C34.7362 123.577 34.5508 123.808 33.7692 123.801C29.5482 123.765 25.3265 123.789 21.1052 123.794C20.845 123.794 20.5849 123.81 20.3248 123.808C19.8587 123.803 19.6031 124.076 19.5977 124.487C19.5924 124.895 19.8388 125.193 20.293 125.222C20.6387 125.244 20.986 125.248 21.3326 125.248C51.721 125.255 82.1093 125.264 112.498 125.266C134.733 125.268 156.968 125.26 179.202 125.255C179.404 125.255 179.617 125.279 179.804 125.224C180.197 125.109 180.48 124.847 180.429 124.412ZM60.321 120.255C60.321 119.864 60.3412 119.519 60.3161 119.177C60.2815 118.705 60.097 118.336 59.536 118.343C58.9858 118.35 58.7795 118.687 58.7724 119.182C58.7638 119.784 58.7567 120.386 58.7699 120.987C58.7807 121.475 58.5811 121.436 58.2555 121.234C57.1059 120.521 56.7411 118.985 57.4581 117.838C58.2523 116.567 59.7366 116.257 60.9767 117.104C62.2028 117.941 62.5247 119.42 61.7269 120.553C61.7104 120.576 61.6914 120.598 61.6728 120.62C61.3397 121.012 60.9505 121.645 60.5075 121.509C60.0238 121.361 60.4191 120.657 60.321 120.255ZM115.595 123.794C114.469 123.75 113.341 123.747 112.214 123.747C111.785 123.748 111.604 123.613 111.607 123.15C111.623 119.934 111.623 116.718 111.605 113.502C111.603 113.023 111.819 112.919 112.23 112.923C113.386 112.935 114.542 112.952 115.698 112.925C116.2 112.913 116.332 113.096 116.325 113.573C116.3 115.18 116.315 116.789 116.315 118.397C116.317 118.397 116.319 118.397 116.321 118.397C116.321 119.947 116.301 121.498 116.331 123.048C116.342 123.604 116.167 123.816 115.595 123.794ZM118.226 123.763C117.689 123.78 117.729 123.407 117.729 123.056C117.73 121.448 117.73 119.839 117.73 118.231C117.738 118.231 117.747 118.231 117.756 118.231C117.756 116.708 117.75 115.186 117.761 113.664C117.763 113.353 117.606 112.938 118.183 112.909C118.766 112.881 118.652 113.29 118.654 113.611C118.665 116.77 118.67 119.93 118.675 123.09C118.675 123.41 118.702 123.748 118.226 123.763ZM124.385 123.774C123.5 123.744 122.319 124.156 121.817 123.563C121.382 123.049 121.672 121.918 121.667 121.059C121.653 118.848 121.659 116.636 121.645 114.424C121.641 113.907 121.821 113.197 120.968 113.214C120.2 113.229 120.328 113.887 120.327 114.389C120.323 117.147 120.331 119.904 120.326 122.661C120.326 122.984 120.402 123.329 120.162 123.704C119.91 123.446 119.969 123.236 119.969 123.044C119.978 119.626 119.986 116.209 120.007 112.791C120.015 111.506 119.936 111.415 118.662 111.417C114.701 111.423 110.741 111.425 106.78 111.429C106.52 111.429 106.26 111.436 106 111.436C105.522 111.437 105.206 111.67 105.18 112.14C105.15 112.678 105.532 112.914 106.01 112.926C107.108 112.953 108.209 112.976 109.305 112.923C109.996 112.889 110.243 113.046 110.231 113.802C110.185 116.846 110.199 119.891 110.237 122.935C110.245 123.58 110.05 123.791 109.411 123.782C107.446 123.755 105.479 123.743 103.514 123.788C102.79 123.805 102.599 123.589 102.602 122.87C102.637 114.11 102.646 105.35 102.645 96.5902C102.645 70.3098 102.641 44.0294 102.615 17.749C102.615 16.8524 102.837 16.2109 103.515 15.5781C106.78 12.5319 109.991 9.42796 113.22 6.34394C114.027 5.57375 114.039 5.56143 114.735 6.38387C118.193 10.4713 121.64 14.5678 125.103 18.6512C125.366 18.9612 125.466 19.2732 125.466 19.6661C125.461 47.8994 125.461 76.1329 125.464 104.366C125.465 110.455 125.479 116.544 125.489 122.633C125.491 123.781 125.495 123.812 124.385 123.774ZM157.015 116.393C156.536 116.403 156.252 116.692 156.229 117.147C156.196 117.805 156.229 118.467 156.228 119.127C156.227 119.291 156.299 119.494 156.133 119.602C155.947 119.724 155.817 119.539 155.683 119.447C154.666 118.745 154.23 117.6 154.566 116.519C154.92 115.379 155.811 114.704 157.002 114.672C158.075 114.644 159.166 115.455 159.538 116.558C159.876 117.559 159.45 118.719 158.467 119.422C158.29 119.548 158.104 119.803 157.868 119.672C157.637 119.543 157.781 119.254 157.766 119.037C157.748 118.78 157.761 118.52 157.761 118.262C157.774 118.262 157.786 118.262 157.798 118.262C157.798 117.889 157.824 117.514 157.792 117.144C157.753 116.69 157.51 116.383 157.015 116.393Z" fill="black"/>
</svg>
