<svg width="128" height="141" viewBox="0 0 128 141" fill="none" xmlns="http://www.w3.org/2000/svg">
<path d="M14.9961 136.998H122.137V54.5702C122.136 24.9842 98.1522 1 68.5662 1C38.9802 1 14.9961 24.9842 14.9961 54.5702V136.998Z" fill="white" stroke="#262525" stroke-opacity="0.5" stroke-width="0.7" stroke-miterlimit="10" stroke-linecap="round" stroke-linejoin="round"/>
<path d="M18.1328 134.211H118.999V54.2607C118.999 26.5585 96.5423 4.10156 68.8401 4.10156H68.2923C40.5901 4.10156 18.1331 26.5585 18.1331 54.2607V134.211H18.1328Z" fill="white" stroke="#262525" stroke-opacity="0.5" stroke-width="0.7" stroke-miterlimit="10" stroke-linecap="round" stroke-linejoin="round"/>
<path d="M67 4.12188C67.4303 4.11094 67.8619 4.10547 68.2945 4.10547H68.8423C69.2752 4.10547 69.7068 4.11094 70.1371 4.12188V33.1562H67V4.12188Z" fill="white" stroke="#262525" stroke-opacity="0.5" stroke-width="0.7" stroke-miterlimit="10" stroke-linecap="round" stroke-linejoin="round"/>
<path d="M115.051 34.723H22.082C22.5329 33.6577 23.0212 32.612 23.5423 31.5859H113.591C114.112 32.6123 114.6 33.6577 115.051 34.723Z" fill="white" stroke="#262525" stroke-opacity="0.5" stroke-width="0.7" stroke-miterlimit="10" stroke-linecap="round" stroke-linejoin="round"/>
<path d="M84.0195 21.875L93.2696 28.1199" stroke="#262525" stroke-opacity="0.5" stroke-width="0.7" stroke-miterlimit="10" stroke-linecap="round" stroke-linejoin="round"/>
<path d="M76.4453 16.7617L80.8878 19.7611" stroke="#262525" stroke-opacity="0.5" stroke-width="0.7" stroke-miterlimit="10" stroke-linecap="round" stroke-linejoin="round"/>
<path d="M98.6875 23.6328L103.465 26.8581" stroke="#262525" stroke-opacity="0.5" stroke-width="0.7" stroke-miterlimit="10" stroke-linecap="round" stroke-linejoin="round"/>
<path d="M78.7773 10.1953L95.328 21.3691" stroke="#262525" stroke-opacity="0.5" stroke-width="0.7" stroke-miterlimit="10" stroke-linecap="round" stroke-linejoin="round"/>
<path d="M118.999 56.3203H64.25V134.213" stroke="#262525" stroke-opacity="0.5" stroke-width="0.7" stroke-miterlimit="10" stroke-linecap="round" stroke-linejoin="round"/>
<path d="M115.486 58.625H66.3711V130.235" stroke="#262525" stroke-opacity="0.5" stroke-width="0.7" stroke-miterlimit="10" stroke-linecap="round" stroke-linejoin="round"/>
<path d="M116.249 74.75H69.707" stroke="#262525" stroke-opacity="0.5" stroke-width="0.7" stroke-miterlimit="10" stroke-linecap="round" stroke-linejoin="round"/>
<path d="M113.302 77.1758H66.3672" stroke="#262525" stroke-opacity="0.5" stroke-width="0.7" stroke-miterlimit="10" stroke-linecap="round" stroke-linejoin="round"/>
<path d="M96.8772 94.0547H69.707" stroke="#262525" stroke-opacity="0.5" stroke-width="0.7" stroke-miterlimit="10" stroke-linecap="round" stroke-linejoin="round"/>
<path d="M83.2909 96.4805H66.3672" stroke="#262525" stroke-opacity="0.5" stroke-width="0.7" stroke-miterlimit="10" stroke-linecap="round" stroke-linejoin="round"/>
<path d="M94.8437 113.355H69.707" stroke="#262525" stroke-opacity="0.5" stroke-width="0.7" stroke-miterlimit="10" stroke-linecap="round" stroke-linejoin="round"/>
<path d="M96.8759 115.781H66.3672" stroke="#262525" stroke-opacity="0.5" stroke-width="0.7" stroke-miterlimit="10" stroke-linecap="round" stroke-linejoin="round"/>
<path d="M27.3898 78.9871H26.2279C19.1294 78.9871 13.375 73.2327 13.375 66.1342V63.9141H40.2423V66.1342C40.2426 73.2327 34.4882 78.9871 27.3898 78.9871Z" fill="#262525" fill-opacity="0.5" stroke="#262525" stroke-opacity="0.5" stroke-width="0.7" stroke-miterlimit="10" stroke-linecap="round" stroke-linejoin="round"/>
<path d="M40.8397 60.8398H12.7812V63.9161H40.8397V60.8398Z" fill="white" stroke="#262525" stroke-opacity="0.5" stroke-width="0.7" stroke-miterlimit="10" stroke-linecap="round" stroke-linejoin="round"/>
<path d="M26.0181 60.8398C20.552 60.8398 16.1211 65.2708 16.1211 70.7368V86.9196" stroke="#262525" stroke-opacity="0.5" stroke-width="0.7" stroke-miterlimit="10" stroke-linecap="round" stroke-linejoin="round"/>
<path d="M19.1904 89.98C19.1904 91.7286 16.1206 97.026 16.1206 97.026C16.1206 97.026 13.0508 91.6755 13.0508 89.98C13.0508 88.2845 14.4251 86.9102 16.1206 86.9102C17.8161 86.9102 19.1904 88.2845 19.1904 89.98Z" fill="white" stroke="#262525" stroke-opacity="0.5" stroke-width="0.7" stroke-miterlimit="10" stroke-linecap="round" stroke-linejoin="round"/>
<path d="M13.8523 84.4924C12.3524 85.3913 6.23047 85.4814 6.23047 85.4814C6.23047 85.4814 9.24172 80.0978 10.6962 79.2262C12.1506 78.3546 14.0357 78.8271 14.9073 80.2812C15.7789 81.7354 15.3064 83.6208 13.8523 84.4924Z" fill="white" stroke="#262525" stroke-opacity="0.5" stroke-width="0.7" stroke-miterlimit="10" stroke-linecap="round" stroke-linejoin="round"/>
<path d="M13.8523 72.8908C12.3524 73.7897 6.23047 73.8798 6.23047 73.8798C6.23047 73.8798 9.24172 68.4962 10.6962 67.6246C12.1506 66.7531 14.0357 67.2255 14.9073 68.6797C15.7789 70.1338 15.3064 72.0192 13.8523 72.8908Z" fill="white" stroke="#262525" stroke-opacity="0.5" stroke-width="0.7" stroke-miterlimit="10" stroke-linecap="round" stroke-linejoin="round"/>
<path d="M22.4981 74.1653C23.6764 75.4572 24.9783 81.4398 24.9783 81.4398C24.9783 81.4398 19.1044 79.5553 17.9619 78.3027C16.8193 77.05 16.9088 75.1083 18.1614 73.966C19.4141 72.8231 21.3558 72.9126 22.4981 74.1653Z" fill="white" stroke="#262525" stroke-opacity="0.5" stroke-width="0.7" stroke-miterlimit="10" stroke-linecap="round" stroke-linejoin="round"/>
<path d="M25.2402 63.259C26.4185 64.5509 27.7204 70.5335 27.7204 70.5335C27.7204 70.5335 21.8466 68.6491 20.704 67.3964C19.5615 66.1438 19.6509 64.202 20.9036 63.0598C22.1562 61.9169 24.0977 62.0064 25.2402 63.259Z" fill="white" stroke="#262525" stroke-opacity="0.5" stroke-width="0.7" stroke-miterlimit="10" stroke-linecap="round" stroke-linejoin="round"/>
<path d="M27.0781 60.8398C32.5442 60.8398 36.9751 65.2708 36.9751 70.7368V86.9196" stroke="#262525" stroke-opacity="0.5" stroke-width="0.7" stroke-miterlimit="10" stroke-linecap="round" stroke-linejoin="round"/>
<path d="M33.9062 89.98C33.9062 91.7286 36.9761 97.026 36.9761 97.026C36.9761 97.026 40.0459 91.6755 40.0459 89.98C40.0459 88.2845 38.6716 86.9102 36.9761 86.9102C35.2806 86.9102 33.9062 88.2845 33.9062 89.98Z" fill="white" stroke="#262525" stroke-opacity="0.5" stroke-width="0.7" stroke-miterlimit="10" stroke-linecap="round" stroke-linejoin="round"/>
<path d="M39.242 84.4924C40.7419 85.3913 46.8638 85.4814 46.8638 85.4814C46.8638 85.4814 43.8526 80.0978 42.3981 79.2262C40.944 78.3546 39.0586 78.8271 38.187 80.2812C37.3157 81.7354 37.7879 83.6208 39.242 84.4924Z" fill="white" stroke="#262525" stroke-opacity="0.5" stroke-width="0.7" stroke-miterlimit="10" stroke-linecap="round" stroke-linejoin="round"/>
<path d="M39.242 72.8908C40.7419 73.7897 46.8638 73.8798 46.8638 73.8798C46.8638 73.8798 43.8526 68.4962 42.3981 67.6246C40.944 66.7531 39.0586 67.2255 38.187 68.6797C37.3157 70.1338 37.7879 72.0192 39.242 72.8908Z" fill="white" stroke="#262525" stroke-opacity="0.5" stroke-width="0.7" stroke-miterlimit="10" stroke-linecap="round" stroke-linejoin="round"/>
<path d="M30.5935 74.165C29.4152 75.4569 28.1133 81.4395 28.1133 81.4395C28.1133 81.4395 33.9871 79.5551 35.1297 78.3024C36.2723 77.0498 36.1828 75.108 34.9301 73.9658C33.6775 72.8235 31.7361 72.9124 30.5935 74.165Z" fill="white" stroke="#262525" stroke-opacity="0.5" stroke-width="0.7" stroke-miterlimit="10" stroke-linecap="round" stroke-linejoin="round"/>
<path d="M27.8513 63.2588C26.673 64.5507 25.3711 70.5333 25.3711 70.5333C25.3711 70.5333 31.2449 68.6488 32.3875 67.3962C33.5301 66.1435 33.4406 64.2018 32.1879 63.0595C30.9353 61.9173 28.9939 62.0061 27.8513 63.2588Z" fill="white" stroke="#262525" stroke-opacity="0.5" stroke-width="0.7" stroke-miterlimit="10" stroke-linecap="round" stroke-linejoin="round"/>
<path d="M27.3555 60.8391C27.3555 60.8391 30.8138 54.375 42.406 54.375" stroke="#262525" stroke-opacity="0.5" stroke-width="0.7" stroke-miterlimit="10" stroke-linecap="round" stroke-linejoin="round"/>
<path d="M45.6845 57.4343C47.4293 57.3178 52.5104 53.9016 52.5104 53.9016C52.5104 53.9016 46.9671 51.1952 45.2755 51.3081C43.5838 51.4211 42.3041 52.8839 42.4171 54.5756C42.5301 56.2676 43.9929 57.5476 45.6845 57.4343Z" fill="white" stroke="#262525" stroke-opacity="0.5" stroke-width="0.7" stroke-miterlimit="10" stroke-linecap="round" stroke-linejoin="round"/>
<path d="M40.2379 52.0294C40.8462 50.3899 39.8108 44.3555 39.8108 44.3555C39.8108 44.3555 35.0715 48.304 34.4816 49.8936C33.8919 51.4832 34.7023 53.2499 36.2917 53.8395C37.881 54.4291 39.6483 53.619 40.2379 52.0294Z" fill="white" stroke="#262525" stroke-opacity="0.5" stroke-width="0.7" stroke-miterlimit="10" stroke-linecap="round" stroke-linejoin="round"/>
<path d="M33.5473 61.8724C34.9589 62.9046 41.0468 63.5531 41.0468 63.5531C41.0468 63.5531 38.5395 57.9168 37.171 56.9162C35.8025 55.9156 33.8817 56.2136 32.8811 57.5824C31.8804 58.951 32.1784 60.8715 33.5473 61.8724Z" fill="white" stroke="#262525" stroke-opacity="0.5" stroke-width="0.7" stroke-miterlimit="10" stroke-linecap="round" stroke-linejoin="round"/>
<path d="M26.1481 60.8391C26.1481 60.8391 22.6898 54.375 11.0977 54.375" stroke="#262525" stroke-opacity="0.5" stroke-width="0.7" stroke-miterlimit="10" stroke-linecap="round" stroke-linejoin="round"/>
<path d="M7.82586 57.4343C6.08109 57.3178 1 53.9016 1 53.9016C1 53.9016 6.54327 51.1952 8.23493 51.3081C9.92659 51.4211 11.2063 52.8839 11.0933 54.5756C10.9803 56.2676 9.51719 57.5476 7.82586 57.4343Z" fill="white" stroke="#262525" stroke-opacity="0.5" stroke-width="0.7" stroke-miterlimit="10" stroke-linecap="round" stroke-linejoin="round"/>
<path d="M14.1134 52.0294C13.5051 50.3899 14.5405 44.3555 14.5405 44.3555C14.5405 44.3555 19.2798 48.304 19.8697 49.8936C20.4593 51.4832 19.6489 53.2499 18.0596 53.8395C16.4697 54.4295 14.703 53.619 14.1134 52.0294Z" fill="white" stroke="#262525" stroke-opacity="0.5" stroke-width="0.7" stroke-miterlimit="10" stroke-linecap="round" stroke-linejoin="round"/>
<path d="M19.9604 61.8724C18.5488 62.9046 12.4609 63.5531 12.4609 63.5531C12.4609 63.5531 14.9682 57.9168 16.3367 56.9162C17.7052 55.9156 19.626 56.2136 20.6267 57.5824C21.6273 58.951 21.3289 60.8715 19.9604 61.8724Z" fill="white" stroke="#262525" stroke-opacity="0.5" stroke-width="0.7" stroke-miterlimit="10" stroke-linecap="round" stroke-linejoin="round"/>
<path d="M26.8125 60.8409V37.625" stroke="#262525" stroke-opacity="0.5" stroke-width="0.7" stroke-miterlimit="10" stroke-linecap="round" stroke-linejoin="round"/>
<path d="M29.8819 39.7491C29.8819 38.0005 26.812 32.7031 26.812 32.7031C26.812 32.7031 23.7422 38.0536 23.7422 39.7491C23.7422 41.4446 25.1165 42.819 26.812 42.819C28.5075 42.8186 29.8819 41.4443 29.8819 39.7491Z" fill="white" stroke="#262525" stroke-opacity="0.5" stroke-width="0.7" stroke-miterlimit="10" stroke-linecap="round" stroke-linejoin="round"/>
<path d="M25.3941 45.8238C24.2177 44.53 18.3828 42.6758 18.3828 42.6758C18.3828 42.6758 19.7111 48.6999 20.8514 49.9542C21.9921 51.2084 23.9335 51.3008 25.1877 50.1605C26.4423 49.0198 26.5347 47.0784 25.3941 45.8238Z" fill="white" stroke="#262525" stroke-opacity="0.5" stroke-width="0.7" stroke-miterlimit="10" stroke-linecap="round" stroke-linejoin="round"/>
<path d="M33.1997 54.249C33.9445 52.6668 33.4224 46.5664 33.4224 46.5664C33.4224 46.5664 28.3664 50.1003 27.6445 51.6346C26.9226 53.1689 27.5808 54.9973 29.1147 55.7193C30.649 56.4415 32.4778 55.7833 33.1997 54.249Z" fill="white" stroke="#262525" stroke-opacity="0.5" stroke-width="0.7" stroke-miterlimit="10" stroke-linecap="round" stroke-linejoin="round"/>
<path d="M11.3834 139.785H125.746V134.216H11.3834V139.785Z" fill="white" stroke="#262525" stroke-opacity="0.5" stroke-width="0.7" stroke-miterlimit="10" stroke-linecap="round" stroke-linejoin="round"/>
<path d="M109.074 134.221H96.875V133.508C96.875 132.967 97.3143 132.527 97.856 132.527H108.093C108.635 132.527 109.075 132.967 109.075 133.508V134.221H109.074Z" fill="#262525" fill-opacity="0.5" stroke="#262525" stroke-opacity="0.5" stroke-width="0.7" stroke-miterlimit="10" stroke-linecap="round" stroke-linejoin="round"/>
<path d="M109.832 120.046L105.998 117.366C105.997 117.366 108.644 112.781 108.644 112.781H97.3072L99.9545 117.366L96.1199 120.046C92.426 122.628 92.3793 128.081 96.0285 130.726L98.5129 132.526H107.439L109.924 130.726C113.573 128.081 113.526 122.628 109.832 120.046Z" fill="#262525" fill-opacity="0.5" stroke="#262525" stroke-opacity="0.5" stroke-width="0.7" stroke-miterlimit="10" stroke-linecap="round" stroke-linejoin="round"/>
<path d="M96.8789 108.145L99.9809 112.779" stroke="#262525" stroke-opacity="0.5" stroke-width="0.7" stroke-miterlimit="10" stroke-linecap="round" stroke-linejoin="round"/>
<path d="M95.8036 108.246C98.1114 108.246 99.9822 106.931 99.9822 105.309C99.9822 103.686 98.1114 102.371 95.8036 102.371C93.4958 102.371 91.625 103.686 91.625 105.309C91.625 106.931 93.4958 108.246 95.8036 108.246Z" fill="white" stroke="#262525" stroke-opacity="0.5" stroke-width="0.7" stroke-miterlimit="10" stroke-linecap="round" stroke-linejoin="round"/>
<path d="M97.3853 107.171H95.068C94.04 107.171 93.207 106.338 93.207 105.31C93.207 104.282 94.0403 103.449 95.068 103.449H96.4127C97.1752 103.449 97.7934 104.068 97.7934 104.83C97.7934 105.592 97.1752 106.211 96.4127 106.211H95.2601C94.7629 106.211 94.3596 105.807 94.3596 105.31C94.3596 104.813 94.7629 104.41 95.2601 104.41H96.3097C96.5855 104.41 96.8092 104.633 96.8092 104.909C96.8092 105.185 96.5855 105.409 96.3097 105.409H95.3203" stroke="#262525" stroke-opacity="0.5" stroke-width="0.7" stroke-miterlimit="10" stroke-linecap="round" stroke-linejoin="round"/>
<path d="M102.336 101.805V112.785" stroke="#262525" stroke-opacity="0.5" stroke-width="0.7" stroke-miterlimit="10" stroke-linecap="round" stroke-linejoin="round"/>
<path d="M102.339 101.805C104.647 101.805 106.517 100.49 106.517 98.8672C106.517 97.2449 104.647 95.9297 102.339 95.9297C100.031 95.9297 98.1602 97.2449 98.1602 98.8672C98.1602 100.49 100.031 101.805 102.339 101.805Z" fill="white" stroke="#262525" stroke-opacity="0.5" stroke-width="0.7" stroke-miterlimit="10" stroke-linecap="round" stroke-linejoin="round"/>
<path d="M103.831 100.613H101.513C100.485 100.613 99.6523 99.7793 99.6523 98.7516C99.6523 97.7236 100.486 96.8906 101.513 96.8906H102.858C103.62 96.8906 104.239 97.5089 104.239 98.2714C104.239 99.0338 103.62 99.6521 102.858 99.6521H101.705C101.208 99.6521 100.805 99.2488 100.805 98.7516C100.805 98.2543 101.208 97.851 101.705 97.851H102.755C103.031 97.851 103.255 98.0747 103.255 98.3506C103.255 98.6264 103.031 98.8501 102.755 98.8501H101.766" stroke="#262525" stroke-opacity="0.5" stroke-width="0.7" stroke-miterlimit="10" stroke-linecap="round" stroke-linejoin="round"/>
<path d="M106.762 111.145L105.941 112.783" stroke="#262525" stroke-opacity="0.5" stroke-width="0.7" stroke-miterlimit="10" stroke-linecap="round" stroke-linejoin="round"/>
<path d="M107.765 111.234C110.072 111.234 111.943 109.919 111.943 108.297C111.943 106.675 110.072 105.359 107.765 105.359C105.457 105.359 103.586 106.675 103.586 108.297C103.586 109.919 105.457 111.234 107.765 111.234Z" fill="white" stroke="#262525" stroke-opacity="0.5" stroke-width="0.7" stroke-miterlimit="10" stroke-linecap="round" stroke-linejoin="round"/>
<path d="M109.444 110.011H107.127C106.099 110.011 105.266 109.178 105.266 108.15C105.266 107.122 106.099 106.289 107.127 106.289H108.471C109.234 106.289 109.852 106.907 109.852 107.67C109.852 108.432 109.234 109.051 108.471 109.051H107.319C106.821 109.051 106.418 108.647 106.418 108.15C106.418 107.653 106.821 107.249 107.319 107.249H108.368C108.644 107.249 108.868 107.473 108.868 107.749C108.868 108.025 108.644 108.248 108.368 108.248H107.379" stroke="#262525" stroke-opacity="0.5" stroke-width="0.7" stroke-miterlimit="10" stroke-linecap="round" stroke-linejoin="round"/>
<path d="M112.602 86.6249C112.959 90.1341 110.403 93.2677 106.894 93.624L78.1454 96.9493C74.6363 97.3056 71.5027 94.7498 71.1464 91.2403C70.7901 87.7311 73.346 84.5976 76.8551 84.2413L105.603 80.9159C109.113 80.5599 112.246 83.1158 112.602 86.6249Z" fill="white" stroke="#262525" stroke-opacity="0.5" stroke-width="0.7" stroke-miterlimit="10" stroke-linecap="round" stroke-linejoin="round"/>
<path d="M84.6985 81.9727L76.3203 83.0113C72.1855 83.5385 69.2608 87.3177 69.788 91.4525C70.3152 95.5874 74.0944 98.512 78.2289 97.9848L87.0889 96.8555L84.6985 81.9727Z" fill="white" stroke="#262525" stroke-opacity="0.5" stroke-width="0.7" stroke-miterlimit="10" stroke-linecap="round" stroke-linejoin="round"/>
<path d="M46.5184 85.1392H72.6963C74.2171 85.1392 75.2621 83.5992 74.6902 82.1901C74.0317 80.5683 73.1991 79.6175 74.2782 79.2394C76.6352 78.4132 77.7069 73.9204 76.4575 70.9581C75.2081 67.9958 75.4279 68.4261 76.1752 59.9807C76.9226 51.5349 71.07 48.5809 71.07 48.5809C71.07 48.5809 66.0913 46.459 62.4074 46.5455C52.3659 47.0882 49.1489 60.4061 49.9899 63.7248C50.8309 67.0437 45.8416 67.9175 45.7318 72.1731C45.6221 76.4286 49.5294 76.8718 45.3936 81.0327C45.1953 81.2323 45.0147 81.4334 44.8509 81.6362C43.7132 83.0424 44.7093 85.1392 46.5184 85.1392Z" fill="white" stroke="#262525" stroke-opacity="0.5" stroke-width="0.7" stroke-miterlimit="10" stroke-linecap="round" stroke-linejoin="round"/>
<path d="M61.2111 85.1388H65.0357C66.7637 85.1388 68.1647 83.7378 68.1647 82.0098V68.172C68.1647 66.444 66.7637 65.043 65.0357 65.043H61.2111C59.4831 65.043 58.082 66.444 58.082 68.172V82.0094C58.082 83.7378 59.4831 85.1388 61.2111 85.1388Z" fill="white" stroke="#262525" stroke-opacity="0.5" stroke-width="0.7" stroke-miterlimit="10" stroke-linecap="round" stroke-linejoin="round"/>
<path d="M60.168 70.08V65.221C60.4937 65.1061 60.8439 65.043 61.2092 65.043H65.0337C66.7618 65.043 68.1628 66.444 68.1628 68.172V79.3905C63.5503 79.3905 60.168 75.144 60.168 70.08Z" fill="#262525" fill-opacity="0.5"/>
<path d="M70.6787 75.6983C74.4344 74.9934 76.9075 71.3774 76.2027 67.6217L73.7463 54.5339C72.8252 49.6269 68.101 46.3958 63.194 47.317C58.2871 48.2381 55.056 52.9623 55.9771 57.8692L57.6511 66.7881C58.7879 72.846 64.6208 76.8354 70.6787 75.6983Z" fill="white" stroke="#262525" stroke-opacity="0.5" stroke-width="0.7" stroke-miterlimit="10" stroke-linecap="round" stroke-linejoin="round"/>
<path d="M67.4372 52.2737C67.4372 52.2737 67.106 57.6106 61.7809 59.3963C59.6879 60.0564 59.3535 61.1803 59.3535 61.1803L58.0861 69.4509V72.7503C58.0861 72.7503 54.8936 70.5707 53.5032 59.3934C52.7308 53.1829 56.1054 47.75 62.6889 46.5141C69.0091 45.3277 73.8343 49.1491 74.5176 56.4967C74.5463 56.8031 74.5192 56.9875 74.2183 57.0361C74.2183 57.0361 72.3094 51.0291 67.4372 52.2737Z" fill="white"/>
<path d="M74.2221 57.0338C74.2221 57.0338 72.3132 51.0267 67.441 52.2713C67.441 52.2713 67.1098 57.6083 61.7847 59.3939C59.6917 60.054 59.3573 61.178 59.3573 61.178L58.0898 69.4486V72.7479" stroke="#262525" stroke-opacity="0.5" stroke-width="0.7" stroke-miterlimit="10" stroke-linecap="round" stroke-linejoin="round"/>
<path d="M62.6953 46.5118C65.0561 46.0686 67.1575 46.2685 68.8993 47.0754C69.6274 47.4127 70.2927 47.8562 70.8878 48.4034C70.8878 48.4034 71.4735 48.7616 71.9537 49.1497" stroke="#262525" stroke-opacity="0.5" stroke-width="0.7" stroke-miterlimit="10" stroke-linecap="round" stroke-linejoin="round"/>
<path d="M68.88 47.0771C61.2524 45.8953 58.4043 50.0526 57.4082 54.1772C56.4259 58.2428 57.5753 64.8344 57.5753 64.8344L56.1971 65.0931C56.1971 65.0931 52.432 53.3449 57.3368 48.0263C57.3368 48.0263 59.3419 45.6236 64.0075 45.6017C67.9386 45.5834 68.88 47.0771 68.88 47.0771Z" fill="#262525" fill-opacity="0.5" stroke="#262525" stroke-opacity="0.5" stroke-width="0.7" stroke-miterlimit="10" stroke-linecap="round" stroke-linejoin="round"/>
<path d="M64.188 62.4213C64.2907 62.9684 64.6219 62.961 65.0181 62.8864C65.4143 62.812 65.7258 62.6991 65.6232 62.1519C65.4857 61.419 65.1642 61.4796 64.768 61.5539C64.3718 61.6282 64.0522 61.6975 64.188 62.4213Z" fill="#262525" fill-opacity="0.5"/>
<path d="M67.0682 62.3135C67.0682 62.3135 65.8516 60.9028 63.5851 61.8893C63.5851 61.8893 62.335 62.4603 61.5664 62.1513" stroke="#262525" stroke-opacity="0.5" stroke-width="0.7" stroke-miterlimit="10" stroke-linecap="round" stroke-linejoin="round"/>
<path d="M69.0742 60.5508C69.0742 60.5508 70.7318 63.8823 71.4717 65.9672C71.5654 66.2312 71.4202 66.5208 71.1524 66.6029C70.6619 66.7532 69.1009 66.9762 69.1009 66.9762" stroke="#262525" stroke-opacity="0.5" stroke-width="0.7" stroke-miterlimit="10" stroke-linecap="round" stroke-linejoin="round"/>
<path d="M70.4834 69.3138C69.6003 69.3218 67.7525 69.1763 65.9785 68.0145C65.7503 67.8651 65.4426 67.9842 65.3782 68.2494C65.1101 69.3514 64.824 71.7843 67.3206 72.3327C69.5546 72.8236 70.5211 70.8381 70.861 69.8345C70.9479 69.5771 70.7548 69.3112 70.4834 69.3138Z" fill="#262525" fill-opacity="0.5" stroke="#262525" stroke-opacity="0.5" stroke-width="0.7" stroke-miterlimit="10" stroke-linecap="round" stroke-linejoin="round"/>
<path d="M67.9263 68.2784C68.1838 68.3512 68.3608 68.5697 68.3933 68.8191C68.5514 68.6235 68.8166 68.5295 69.0741 68.6022C69.4188 68.6994 69.6193 69.0576 69.5218 69.4023C69.4246 69.747 69.0663 69.9476 68.7216 69.85C68.4642 69.7773 68.2871 69.5588 68.2546 69.3093C68.0966 69.505 67.8314 69.599 67.5739 69.5262C67.2292 69.429 67.0287 69.0708 67.1262 68.7261C67.2234 68.3817 67.5816 68.1812 67.9263 68.2784Z" fill="white" stroke="#262525" stroke-opacity="0.5" stroke-width="0.7" stroke-miterlimit="10" stroke-linecap="round" stroke-linejoin="round"/>
<path d="M65.3819 68.2493C65.4462 67.9845 65.7543 67.8651 65.9821 68.0144C67.7559 69.1766 69.6036 69.3218 70.4871 69.3137C70.7587 69.3111 70.9515 69.577 70.8646 69.8342C70.7826 70.0762 70.6641 70.3755 70.5003 70.6832C69.537 70.5458 66.7996 70.0791 65.2422 69.0389C65.2747 68.7402 65.3284 68.4685 65.3819 68.2493Z" fill="white" stroke="#262525" stroke-opacity="0.5" stroke-width="0.7" stroke-miterlimit="10" stroke-linecap="round" stroke-linejoin="round"/>
<path d="M67.3183 72.3314C66.1316 72.0707 65.5739 71.3842 65.3438 70.6172C66.2189 70.8747 68.5674 71.5509 69.5784 71.8415C69.0325 72.286 68.2971 72.5464 67.3183 72.3314Z" fill="white" stroke="#262525" stroke-opacity="0.5" stroke-width="0.7" stroke-miterlimit="10" stroke-linecap="round" stroke-linejoin="round"/>
<path d="M63.5309 60.3966L65.4978 60.0274C65.7662 59.9769 65.9429 59.7187 65.8927 59.4503C65.8421 59.1819 65.584 59.0052 65.3156 59.0554L63.3488 59.4246C63.0803 59.4751 62.9036 59.7332 62.9538 60.0016C63.004 60.2701 63.2625 60.4468 63.5309 60.3966Z" fill="#262525" fill-opacity="0.5" stroke="#262525" stroke-opacity="0.5" stroke-width="0.7" stroke-miterlimit="10" stroke-linecap="round" stroke-linejoin="round"/>
<path d="M71.1559 58.9669L73.1228 58.5977C73.3912 58.5472 73.5679 58.289 73.5177 58.0206C73.4671 57.7522 73.209 57.5755 72.9406 57.6257L70.9738 57.9949C70.7053 58.0454 70.5286 58.3035 70.5788 58.572C70.629 58.8404 70.8875 59.0171 71.1559 58.9669Z" fill="#262525" fill-opacity="0.5" stroke="#262525" stroke-opacity="0.5" stroke-width="0.7" stroke-miterlimit="10" stroke-linecap="round" stroke-linejoin="round"/>
<path d="M73.4518 60.6855C73.5545 61.2326 73.2433 61.3456 72.8468 61.4199C72.4505 61.4943 72.1194 61.502 72.0167 60.9548C71.8793 60.222 72.2005 60.1618 72.5967 60.0875C72.9929 60.0131 73.316 59.9616 73.4518 60.6855Z" fill="#262525" fill-opacity="0.5"/>
<path d="M70.7305 61.6323C70.7305 61.6323 71.3526 59.8766 73.8228 59.9742C73.8228 59.9742 74.7884 60.1293 75.3928 59.5625" stroke="#262525" stroke-opacity="0.5" stroke-width="0.7" stroke-miterlimit="10" stroke-linecap="round" stroke-linejoin="round"/>
<path d="M55.6359 67.7686L57.7051 68.3141C59.3894 68.7583 60.9616 67.2955 60.6401 65.5838C60.4711 64.6839 59.7994 63.9617 58.914 63.7284L56.8448 63.1828C55.1606 62.7387 53.1821 64.2778 53.5033 65.9894C53.6723 66.8893 54.7505 67.5352 55.6359 67.7686Z" fill="white"/>
<path d="M59.0106 63.7561C58.9787 63.7461 58.9465 63.7371 58.914 63.7284L56.8448 63.1828C55.1606 62.7387 53.1821 64.2778 53.5033 65.9894C53.6723 66.8893 54.7505 67.5352 55.6359 67.7686L57.7051 68.3141C58.0099 68.3946 58.3109 68.4123 58.5976 68.3779" stroke="#262525" stroke-opacity="0.5" stroke-width="0.7" stroke-miterlimit="10" stroke-linecap="round" stroke-linejoin="round"/>
<path d="M58.6526 66.8105C58.827 66.4864 58.8956 66.1027 58.8225 65.713C58.6526 64.8069 57.7804 64.2105 56.8743 64.3805C56.2773 64.4925 55.8148 64.9096 55.6172 65.4403" stroke="#262525" stroke-opacity="0.5" stroke-width="0.7" stroke-miterlimit="10" stroke-linecap="round" stroke-linejoin="round"/>
<path d="M58.7511 65.4468C58.5203 65.3866 58.2947 65.3712 58.0446 65.4182C57.4785 65.5244 57.0331 65.9051 56.8203 66.3966" stroke="#262525" stroke-opacity="0.5" stroke-width="0.7" stroke-miterlimit="10" stroke-linecap="round" stroke-linejoin="round"/>
<path d="M120.87 51.3131C124.113 52.7 125.618 56.4531 124.231 59.6964L112.198 89.7526C110.811 92.996 107.058 94.5006 103.815 93.1141C100.572 91.7272 99.0666 87.9741 100.453 84.7308L113.976 54.3772C115.363 51.1338 117.627 49.9266 120.87 51.3131Z" fill="white"/>
<path d="M102.821 82.2563L101.965 81.3374L113.975 54.377C115.362 51.1337 117.626 49.9265 120.869 51.3133C124.113 52.7002 125.617 56.4533 124.231 59.6966L112.198 89.7528C111.285 91.8858 109.35 93.2668 107.209 93.5681L105.119 93.8298" stroke="#262525" stroke-opacity="0.5" stroke-width="0.7" stroke-miterlimit="10" stroke-linecap="round" stroke-linejoin="round"/>
<path d="M74.0407 122.275H50.5535L50.0234 113.359H74.836L74.0407 122.275Z" fill="white" stroke="#262525" stroke-opacity="0.5" stroke-width="0.7" stroke-miterlimit="10" stroke-linecap="round" stroke-linejoin="round"/>
<path d="M58.0927 81.6016L52.9414 82.8285L55.2745 94.9012L76.323 94.7441L73.0073 83.095L68.2053 81.617L58.0927 81.6016Z" fill="white"/>
<path d="M58.0927 81.6016L52.9414 82.8285L55.2745 94.9012L76.323 94.7441L73.0073 83.095L68.167 81.6051" stroke="#262525" stroke-opacity="0.5" stroke-width="0.7" stroke-miterlimit="10" stroke-linecap="round" stroke-linejoin="round"/>
<path d="M79.1493 95.4552L77.8359 92.8302L76.2639 83.0133L72.8636 82.65C72.6692 82.6291 72.5153 82.8109 72.5674 82.9992L72.6447 83.2773C73.4844 86.0439 73.9099 88.9197 73.9076 91.8112C73.9067 93.0539 72.8819 94.0542 71.6389 94.0542H61.572C59.7461 94.0542 58.1777 92.7607 57.8272 90.9686C57.4198 88.8852 56.4783 86.9435 55.095 85.3333L53.0384 82.8366C52.8491 82.6068 52.5427 82.5058 52.256 82.5856C49.6815 83.302 46.8878 84.4942 44.6953 85.3825L49.227 102.396V116.512H75.7776L76.9543 107.523L77.076 107.327C80.0254 103.427 81.1715 99.6638 79.1493 95.4552Z" fill="white"/>
<path d="M76.2639 83.0133L72.8636 82.65C72.6692 82.6291 72.5153 82.8109 72.5674 82.9992L72.6447 83.2773C73.4844 86.0439 73.9099 88.9197 73.9076 91.8112C73.9067 93.0539 72.8819 94.0542 71.6389 94.0542H61.572C59.7461 94.0542 58.1777 92.7607 57.8272 90.9686C57.4198 88.8852 56.4783 86.9435 55.095 85.3333L53.0384 82.8366C52.8491 82.6068 52.5427 82.5058 52.256 82.5856C49.6815 83.302 46.8878 84.4942 44.6953 85.3825L49.227 102.396V116.512H75.7776L76.9543 107.523L77.076 107.327C80.0254 103.427 81.1715 99.6634 79.1493 95.4549L77.8359 92.8298L77.2578 89.2196" stroke="#262525" stroke-opacity="0.5" stroke-width="0.7" stroke-miterlimit="10" stroke-linecap="round" stroke-linejoin="round"/>
<path d="M49.2616 122.284C43.9054 126.929 42.3125 134.215 42.3125 134.215H78.8412C77.0655 126.209 74.5995 121.889 74.5995 121.889V120.312H49.5021L49.2616 122.284Z" fill="#262525" fill-opacity="0.5" stroke="#262525" stroke-opacity="0.5" stroke-width="0.7" stroke-miterlimit="10" stroke-linecap="round" stroke-linejoin="round"/>
<path d="M38.044 126.037C34.6082 125.239 32.4705 121.806 33.2687 118.371L39.7807 91.4305C40.5792 87.9948 44.0115 85.857 47.4473 86.6555C50.883 87.454 53.0208 90.8863 52.2226 94.3221L45.7105 121.262C44.912 124.698 41.4798 126.836 38.044 126.037Z" fill="white" stroke="#262525" stroke-opacity="0.5" stroke-width="0.7" stroke-miterlimit="10" stroke-linecap="round" stroke-linejoin="round"/>
<path d="M52.4209 99.7653L53.5622 94.2127C54.4016 90.13 51.772 86.1397 47.689 85.3006C43.606 84.4612 39.6157 87.0908 38.7766 91.1738L37.5391 97.195L52.4209 99.7653Z" fill="white"/>
<path d="M45.9314 84.8828C45.9314 84.8828 45.2465 85.1992 45.1908 85.2063C42.0881 85.6118 39.4419 87.9353 38.7766 91.1721L37.5391 97.1934L52.4209 99.764L53.5622 94.2114" stroke="#262525" stroke-opacity="0.5" stroke-width="0.7" stroke-miterlimit="10" stroke-linecap="round" stroke-linejoin="round"/>
<path d="M39.4093 133.379C35.8825 133.379 33.0234 134.723 33.0234 131.196V120.417C33.0234 116.89 35.8825 114.031 39.4093 114.031C42.9362 114.031 45.7952 116.89 45.7952 120.417L45.3034 130.45C45.3034 133.977 39.4093 133.379 39.4093 133.379Z" fill="white"/>
<path d="M45.9426 120.316L45.7772 121L45.3034 130.45C45.3034 133.976 39.4093 133.379 39.4093 133.379C35.8825 133.379 33.0234 134.723 33.0234 131.196V120.417C33.0234 120.016 33.0605 119.624 33.1309 119.244C33.1309 119.244 33.1535 118.862 33.4441 117.66" stroke="#262525" stroke-opacity="0.5" stroke-width="0.7" stroke-miterlimit="10" stroke-linecap="round" stroke-linejoin="round"/>
<path d="M36.6562 119.033C36.6562 119.033 40.0289 117.598 42.7457 119.336" stroke="#262525" stroke-opacity="0.5" stroke-width="0.7" stroke-miterlimit="10" stroke-linecap="round" stroke-linejoin="round"/>
<path d="M33.6177 135.55H33.4056C32.3792 135.55 31.5469 134.718 31.5469 133.691C31.5469 132.606 32.4265 131.727 33.5115 131.727C34.5964 131.727 35.4761 132.606 35.4761 133.691C35.4761 134.718 34.6441 135.55 33.6177 135.55Z" fill="white" stroke="#262525" stroke-opacity="0.5" stroke-width="0.7" stroke-miterlimit="10" stroke-linecap="round" stroke-linejoin="round"/>
<path d="M37.4412 135.964C36.3562 135.964 35.4766 135.084 35.4766 133.999V132.32C35.4766 131.235 36.3562 130.355 37.4412 130.355C38.5261 130.355 39.4057 131.235 39.4057 132.32V133.999C39.4057 135.084 38.5261 135.964 37.4412 135.964Z" fill="white" stroke="#262525" stroke-opacity="0.5" stroke-width="0.7" stroke-miterlimit="10" stroke-linecap="round" stroke-linejoin="round"/>
<path d="M41.3669 136.71C40.282 136.71 39.4023 135.83 39.4023 134.745V131.258C39.4023 130.173 40.282 129.293 41.3669 129.293C42.4519 129.293 43.3315 130.173 43.3315 131.258V134.745C43.3318 135.83 42.4522 136.71 41.3669 136.71Z" fill="white" stroke="#262525" stroke-opacity="0.5" stroke-width="0.7" stroke-miterlimit="10" stroke-linecap="round" stroke-linejoin="round"/>
<path d="M45.3005 135.964C44.2156 135.964 43.3359 135.084 43.3359 133.999V132.32C43.3359 131.235 44.2156 130.355 45.3005 130.355C46.3855 130.355 47.2651 131.235 47.2651 132.32V133.999C47.2651 135.084 46.3855 135.964 45.3005 135.964Z" fill="white" stroke="#262525" stroke-opacity="0.5" stroke-width="0.7" stroke-miterlimit="10" stroke-linecap="round" stroke-linejoin="round"/>
<path d="M120.604 61.1336L121.237 60.9981C125.268 60.1362 127.837 56.1693 126.975 52.1384L125.134 45.4062L113.883 47.7995L114.827 50.9241L114.44 50.5733L113.472 47.8877L110.285 48.5691L111.745 55.3953C112.607 59.4265 116.573 61.9955 120.604 61.1336Z" fill="white"/>
<path d="M125.136 45.4062L126.976 52.1384C127.515 54.6579 126.714 57.1519 125.053 58.879L124.248 59.6022L124.094 60.0312" stroke="#262525" stroke-opacity="0.5" stroke-width="0.7" stroke-miterlimit="10" stroke-linecap="round" stroke-linejoin="round"/>
<path d="M111.402 53.793L111.745 55.3964C112.276 57.8802 113.986 59.809 116.164 60.7221" stroke="#262525" stroke-opacity="0.5" stroke-width="0.7" stroke-miterlimit="10" stroke-linecap="round" stroke-linejoin="round"/>
<path d="M113.884 47.8008L114.828 50.9253L114.441 50.5745L113.473 47.8886" stroke="#262525" stroke-opacity="0.5" stroke-width="0.7" stroke-miterlimit="10" stroke-linecap="round" stroke-linejoin="round"/>
<path d="M111.514 54.2987L115.29 52.9369L112.641 45.6624C112.265 44.6199 111.115 44.0795 110.073 44.4555C109.03 44.8314 108.49 45.9817 108.866 47.0242L111.514 54.2987Z" fill="white"/>
<path d="M114.436 50.5687L112.641 45.6624C112.265 44.6199 111.115 44.0795 110.073 44.4555C109.03 44.8314 108.49 45.9817 108.866 47.0242L111.514 54.2987" stroke="#262525" stroke-opacity="0.5" stroke-width="0.7" stroke-miterlimit="10" stroke-linecap="round" stroke-linejoin="round"/>
<path d="M121.653 46.4636L125.115 45.3976L123.339 38.1617C123.018 37.1005 121.899 36.5003 120.837 36.8205C119.776 37.1411 119.176 38.2608 119.496 39.322L121.653 46.4636Z" fill="white"/>
<path d="M125.115 45.3976L123.339 38.1617C123.018 37.1005 121.899 36.5003 120.837 36.8205C119.776 37.1411 119.176 38.2608 119.496 39.322L121.416 45.6811" stroke="#262525" stroke-opacity="0.5" stroke-width="0.7" stroke-miterlimit="10" stroke-linecap="round" stroke-linejoin="round"/>
<path d="M119.155 47.2177L122.998 46.0574L119.847 35.6226C119.526 34.5615 118.406 33.9612 117.345 34.2815C116.284 34.602 115.684 35.7218 116.004 36.7829L119.155 47.2177Z" fill="white"/>
<path d="M122.998 46.0574L119.847 35.6226C119.526 34.5615 118.406 33.9612 117.345 34.2815C116.284 34.602 115.684 35.7218 116.004 36.7829L118.89 46.339" stroke="#262525" stroke-opacity="0.5" stroke-width="0.7" stroke-miterlimit="10" stroke-linecap="round" stroke-linejoin="round"/>
<path d="M116.814 47.9252L120.656 46.765L117.062 34.8609C116.741 33.7998 115.621 33.1995 114.56 33.5197C113.499 33.84 112.899 34.96 113.219 36.0212L116.814 47.9252Z" fill="white"/>
<path d="M120.656 46.765L117.062 34.8609C116.741 33.7998 115.621 33.1995 114.56 33.5197C113.499 33.84 112.899 34.96 113.219 36.0212L116.599 47.2139" stroke="#262525" stroke-opacity="0.5" stroke-width="0.7" stroke-miterlimit="10" stroke-linecap="round" stroke-linejoin="round"/>
<path d="M114.163 48.7294L118.005 47.5691L114.855 37.1343C114.534 36.0732 113.414 35.4729 112.353 35.7932C111.292 36.1137 110.692 37.2335 111.012 38.2946L114.163 48.7294Z" fill="white"/>
<path d="M118.005 47.5691L114.855 37.1343C114.534 36.0732 113.414 35.4729 112.353 35.7932C111.292 36.1137 110.692 37.2335 111.012 38.2946L114.825 50.9232L114.439 50.5723" stroke="#262525" stroke-opacity="0.5" stroke-width="0.7" stroke-miterlimit="10" stroke-linecap="round" stroke-linejoin="round"/>
<path d="M114.824 50.9219L116.373 51.8157C118.361 52.9624 119.992 54.6386 121.084 56.657" stroke="#262525" stroke-opacity="0.5" stroke-width="0.7" stroke-miterlimit="10" stroke-linecap="round" stroke-linejoin="round"/>
</svg>
