<svg width="216" height="152" viewBox="0 0 216 152" fill="none" xmlns="http://www.w3.org/2000/svg">
<path d="M215.01 2.23438H2.16016V150.211H215.01V2.23438Z" fill="white"/>
<path d="M58.9961 142.998H166.137V60.5702C166.136 30.9842 142.152 7 112.566 7C82.9802 7 58.9961 30.9842 58.9961 60.5702V142.998Z" fill="white" stroke="#262525" stroke-opacity="0.5" stroke-width="0.7" stroke-miterlimit="10" stroke-linecap="round" stroke-linejoin="round"/>
<path d="M62.1328 140.211H162.999V60.2607C162.999 32.5585 140.542 10.1016 112.84 10.1016H112.292C84.5901 10.1016 62.1331 32.5585 62.1331 60.2607V140.211H62.1328Z" fill="white" stroke="#262525" stroke-opacity="0.5" stroke-width="0.7" stroke-miterlimit="10" stroke-linecap="round" stroke-linejoin="round"/>
<path d="M111 10.1219C111.43 10.1109 111.862 10.1055 112.294 10.1055H112.842C113.275 10.1055 113.707 10.1109 114.137 10.1219V39.1562H111V10.1219Z" fill="white" stroke="#262525" stroke-opacity="0.5" stroke-width="0.7" stroke-miterlimit="10" stroke-linecap="round" stroke-linejoin="round"/>
<path d="M159.051 40.723H66.082C66.5329 39.6577 67.0212 38.612 67.5423 37.5859H157.591C158.112 38.6123 158.6 39.6577 159.051 40.723Z" fill="white" stroke="#262525" stroke-opacity="0.5" stroke-width="0.7" stroke-miterlimit="10" stroke-linecap="round" stroke-linejoin="round"/>
<path d="M128.02 27.875L137.27 34.1199" stroke="#262525" stroke-opacity="0.5" stroke-width="0.7" stroke-miterlimit="10" stroke-linecap="round" stroke-linejoin="round"/>
<path d="M120.445 22.7617L124.888 25.7611" stroke="#262525" stroke-opacity="0.5" stroke-width="0.7" stroke-miterlimit="10" stroke-linecap="round" stroke-linejoin="round"/>
<path d="M142.688 29.6328L147.465 32.8581" stroke="#262525" stroke-opacity="0.5" stroke-width="0.7" stroke-miterlimit="10" stroke-linecap="round" stroke-linejoin="round"/>
<path d="M122.777 16.1953L139.328 27.3691" stroke="#262525" stroke-opacity="0.5" stroke-width="0.7" stroke-miterlimit="10" stroke-linecap="round" stroke-linejoin="round"/>
<path d="M162.999 62.3203H108.25V140.213" stroke="#262525" stroke-opacity="0.5" stroke-width="0.7" stroke-miterlimit="10" stroke-linecap="round" stroke-linejoin="round"/>
<path d="M159.486 64.625H110.371V136.235" stroke="#262525" stroke-opacity="0.5" stroke-width="0.7" stroke-miterlimit="10" stroke-linecap="round" stroke-linejoin="round"/>
<path d="M160.249 80.75H113.707" stroke="#262525" stroke-opacity="0.5" stroke-width="0.7" stroke-miterlimit="10" stroke-linecap="round" stroke-linejoin="round"/>
<path d="M157.302 83.1758H110.367" stroke="#262525" stroke-opacity="0.5" stroke-width="0.7" stroke-miterlimit="10" stroke-linecap="round" stroke-linejoin="round"/>
<path d="M140.877 100.055H113.707" stroke="#262525" stroke-opacity="0.5" stroke-width="0.7" stroke-miterlimit="10" stroke-linecap="round" stroke-linejoin="round"/>
<path d="M127.291 102.48H110.367" stroke="#262525" stroke-opacity="0.5" stroke-width="0.7" stroke-miterlimit="10" stroke-linecap="round" stroke-linejoin="round"/>
<path d="M138.844 119.355H113.707" stroke="#262525" stroke-opacity="0.5" stroke-width="0.7" stroke-miterlimit="10" stroke-linecap="round" stroke-linejoin="round"/>
<path d="M140.876 121.781H110.367" stroke="#262525" stroke-opacity="0.5" stroke-width="0.7" stroke-miterlimit="10" stroke-linecap="round" stroke-linejoin="round"/>
<path d="M71.3898 84.9871H70.2279C63.1294 84.9871 57.375 79.2327 57.375 72.1342V69.9141H84.2423V72.1342C84.2426 79.2327 78.4882 84.9871 71.3898 84.9871Z" fill="#262525" fill-opacity="0.5" stroke="#262525" stroke-opacity="0.5" stroke-width="0.7" stroke-miterlimit="10" stroke-linecap="round" stroke-linejoin="round"/>
<path d="M84.8397 66.8398H56.7812V69.9161H84.8397V66.8398Z" fill="white" stroke="#262525" stroke-opacity="0.5" stroke-width="0.7" stroke-miterlimit="10" stroke-linecap="round" stroke-linejoin="round"/>
<path d="M70.0181 66.8398C64.552 66.8398 60.1211 71.2708 60.1211 76.7368V92.9196" stroke="#262525" stroke-opacity="0.5" stroke-width="0.7" stroke-miterlimit="10" stroke-linecap="round" stroke-linejoin="round"/>
<path d="M63.1904 95.98C63.1904 97.7286 60.1206 103.026 60.1206 103.026C60.1206 103.026 57.0508 97.6755 57.0508 95.98C57.0508 94.2845 58.4251 92.9102 60.1206 92.9102C61.8161 92.9102 63.1904 94.2845 63.1904 95.98Z" fill="white" stroke="#262525" stroke-opacity="0.5" stroke-width="0.7" stroke-miterlimit="10" stroke-linecap="round" stroke-linejoin="round"/>
<path d="M57.8523 90.4924C56.3524 91.3913 50.2305 91.4814 50.2305 91.4814C50.2305 91.4814 53.2417 86.0978 54.6962 85.2262C56.1506 84.3546 58.0357 84.8271 58.9073 86.2812C59.7789 87.7354 59.3064 89.6208 57.8523 90.4924Z" fill="white" stroke="#262525" stroke-opacity="0.5" stroke-width="0.7" stroke-miterlimit="10" stroke-linecap="round" stroke-linejoin="round"/>
<path d="M57.8523 78.8908C56.3524 79.7897 50.2305 79.8798 50.2305 79.8798C50.2305 79.8798 53.2417 74.4962 54.6962 73.6246C56.1506 72.7531 58.0357 73.2255 58.9073 74.6797C59.7789 76.1338 59.3064 78.0192 57.8523 78.8908Z" fill="white" stroke="#262525" stroke-opacity="0.5" stroke-width="0.7" stroke-miterlimit="10" stroke-linecap="round" stroke-linejoin="round"/>
<path d="M66.4981 80.1653C67.6764 81.4572 68.9783 87.4398 68.9783 87.4398C68.9783 87.4398 63.1044 85.5553 61.9619 84.3027C60.8193 83.05 60.9088 81.1083 62.1614 79.966C63.4141 78.8231 65.3558 78.9126 66.4981 80.1653Z" fill="white" stroke="#262525" stroke-opacity="0.5" stroke-width="0.7" stroke-miterlimit="10" stroke-linecap="round" stroke-linejoin="round"/>
<path d="M69.2402 69.259C70.4185 70.5509 71.7204 76.5335 71.7204 76.5335C71.7204 76.5335 65.8466 74.6491 64.704 73.3964C63.5615 72.1438 63.6509 70.202 64.9036 69.0598C66.1562 67.9169 68.0977 68.0064 69.2402 69.259Z" fill="white" stroke="#262525" stroke-opacity="0.5" stroke-width="0.7" stroke-miterlimit="10" stroke-linecap="round" stroke-linejoin="round"/>
<path d="M71.0781 66.8398C76.5442 66.8398 80.9751 71.2708 80.9751 76.7368V92.9196" stroke="#262525" stroke-opacity="0.5" stroke-width="0.7" stroke-miterlimit="10" stroke-linecap="round" stroke-linejoin="round"/>
<path d="M77.9062 95.98C77.9062 97.7286 80.9761 103.026 80.9761 103.026C80.9761 103.026 84.0459 97.6755 84.0459 95.98C84.0459 94.2845 82.6716 92.9102 80.9761 92.9102C79.2806 92.9102 77.9062 94.2845 77.9062 95.98Z" fill="white" stroke="#262525" stroke-opacity="0.5" stroke-width="0.7" stroke-miterlimit="10" stroke-linecap="round" stroke-linejoin="round"/>
<path d="M83.242 90.4924C84.7419 91.3913 90.8638 91.4814 90.8638 91.4814C90.8638 91.4814 87.8526 86.0978 86.3981 85.2262C84.944 84.3546 83.0586 84.8271 82.187 86.2812C81.3157 87.7354 81.7879 89.6208 83.242 90.4924Z" fill="white" stroke="#262525" stroke-opacity="0.5" stroke-width="0.7" stroke-miterlimit="10" stroke-linecap="round" stroke-linejoin="round"/>
<path d="M83.242 78.8908C84.7419 79.7897 90.8638 79.8798 90.8638 79.8798C90.8638 79.8798 87.8526 74.4962 86.3981 73.6246C84.944 72.7531 83.0586 73.2255 82.187 74.6797C81.3157 76.1338 81.7879 78.0192 83.242 78.8908Z" fill="white" stroke="#262525" stroke-opacity="0.5" stroke-width="0.7" stroke-miterlimit="10" stroke-linecap="round" stroke-linejoin="round"/>
<path d="M74.5935 80.165C73.4152 81.4569 72.1133 87.4395 72.1133 87.4395C72.1133 87.4395 77.9871 85.5551 79.1297 84.3024C80.2723 83.0498 80.1828 81.108 78.9301 79.9658C77.6775 78.8235 75.7361 78.9124 74.5935 80.165Z" fill="white" stroke="#262525" stroke-opacity="0.5" stroke-width="0.7" stroke-miterlimit="10" stroke-linecap="round" stroke-linejoin="round"/>
<path d="M71.8513 69.2588C70.673 70.5507 69.3711 76.5333 69.3711 76.5333C69.3711 76.5333 75.2449 74.6488 76.3875 73.3962C77.5301 72.1435 77.4406 70.2018 76.1879 69.0595C74.9353 67.9173 72.9939 68.0061 71.8513 69.2588Z" fill="white" stroke="#262525" stroke-opacity="0.5" stroke-width="0.7" stroke-miterlimit="10" stroke-linecap="round" stroke-linejoin="round"/>
<path d="M71.3555 66.8391C71.3555 66.8391 74.8138 60.375 86.406 60.375" stroke="#262525" stroke-opacity="0.5" stroke-width="0.7" stroke-miterlimit="10" stroke-linecap="round" stroke-linejoin="round"/>
<path d="M89.6845 63.4343C91.4293 63.3178 96.5104 59.9016 96.5104 59.9016C96.5104 59.9016 90.9671 57.1952 89.2755 57.3081C87.5838 57.4211 86.3041 58.8839 86.4171 60.5756C86.5301 62.2676 87.9929 63.5476 89.6845 63.4343Z" fill="white" stroke="#262525" stroke-opacity="0.5" stroke-width="0.7" stroke-miterlimit="10" stroke-linecap="round" stroke-linejoin="round"/>
<path d="M84.2379 58.0294C84.8462 56.3899 83.8108 50.3555 83.8108 50.3555C83.8108 50.3555 79.0715 54.304 78.4816 55.8936C77.8919 57.4832 78.7023 59.2499 80.2917 59.8395C81.881 60.4291 83.6483 59.619 84.2379 58.0294Z" fill="white" stroke="#262525" stroke-opacity="0.5" stroke-width="0.7" stroke-miterlimit="10" stroke-linecap="round" stroke-linejoin="round"/>
<path d="M77.5473 67.8724C78.9589 68.9046 85.0468 69.5531 85.0468 69.5531C85.0468 69.5531 82.5395 63.9168 81.171 62.9162C79.8025 61.9156 77.8817 62.2136 76.8811 63.5824C75.8804 64.951 76.1784 66.8715 77.5473 67.8724Z" fill="white" stroke="#262525" stroke-opacity="0.5" stroke-width="0.7" stroke-miterlimit="10" stroke-linecap="round" stroke-linejoin="round"/>
<path d="M70.1481 66.8391C70.1481 66.8391 66.6898 60.375 55.0977 60.375" stroke="#262525" stroke-opacity="0.5" stroke-width="0.7" stroke-miterlimit="10" stroke-linecap="round" stroke-linejoin="round"/>
<path d="M51.8259 63.4343C50.0811 63.3178 45 59.9016 45 59.9016C45 59.9016 50.5433 57.1952 52.2349 57.3081C53.9266 57.4211 55.2063 58.8839 55.0933 60.5756C54.9803 62.2676 53.5172 63.5476 51.8259 63.4343Z" fill="white" stroke="#262525" stroke-opacity="0.5" stroke-width="0.7" stroke-miterlimit="10" stroke-linecap="round" stroke-linejoin="round"/>
<path d="M58.1134 58.0294C57.5051 56.3899 58.5405 50.3555 58.5405 50.3555C58.5405 50.3555 63.2798 54.304 63.8697 55.8936C64.4593 57.4832 63.6489 59.2499 62.0596 59.8395C60.4697 60.4295 58.703 59.619 58.1134 58.0294Z" fill="white" stroke="#262525" stroke-opacity="0.5" stroke-width="0.7" stroke-miterlimit="10" stroke-linecap="round" stroke-linejoin="round"/>
<path d="M63.9604 67.8724C62.5488 68.9046 56.4609 69.5531 56.4609 69.5531C56.4609 69.5531 58.9682 63.9168 60.3367 62.9162C61.7052 61.9156 63.626 62.2136 64.6267 63.5824C65.6273 64.951 65.3289 66.8715 63.9604 67.8724Z" fill="white" stroke="#262525" stroke-opacity="0.5" stroke-width="0.7" stroke-miterlimit="10" stroke-linecap="round" stroke-linejoin="round"/>
<path d="M70.8125 66.8409V43.625" stroke="#262525" stroke-opacity="0.5" stroke-width="0.7" stroke-miterlimit="10" stroke-linecap="round" stroke-linejoin="round"/>
<path d="M73.8819 45.7491C73.8819 44.0005 70.812 38.7031 70.812 38.7031C70.812 38.7031 67.7422 44.0536 67.7422 45.7491C67.7422 47.4446 69.1165 48.819 70.812 48.819C72.5075 48.8186 73.8819 47.4443 73.8819 45.7491Z" fill="white" stroke="#262525" stroke-opacity="0.5" stroke-width="0.7" stroke-miterlimit="10" stroke-linecap="round" stroke-linejoin="round"/>
<path d="M69.3941 51.8238C68.2177 50.53 62.3828 48.6758 62.3828 48.6758C62.3828 48.6758 63.7111 54.6999 64.8514 55.9542C65.9921 57.2084 67.9335 57.3008 69.1877 56.1605C70.4423 55.0198 70.5347 53.0784 69.3941 51.8238Z" fill="white" stroke="#262525" stroke-opacity="0.5" stroke-width="0.7" stroke-miterlimit="10" stroke-linecap="round" stroke-linejoin="round"/>
<path d="M77.1997 60.249C77.9445 58.6668 77.4224 52.5664 77.4224 52.5664C77.4224 52.5664 72.3664 56.1003 71.6445 57.6346C70.9226 59.1689 71.5808 60.9973 73.1147 61.7193C74.649 62.4415 76.4778 61.7833 77.1997 60.249Z" fill="white" stroke="#262525" stroke-opacity="0.5" stroke-width="0.7" stroke-miterlimit="10" stroke-linecap="round" stroke-linejoin="round"/>
<path d="M55.3834 145.785H169.746V140.216H55.3834V145.785Z" fill="white" stroke="#262525" stroke-opacity="0.5" stroke-width="0.7" stroke-miterlimit="10" stroke-linecap="round" stroke-linejoin="round"/>
<path d="M153.074 140.221H140.875V139.508C140.875 138.967 141.314 138.527 141.856 138.527H152.093C152.635 138.527 153.075 138.967 153.075 139.508V140.221H153.074Z" fill="#262525" fill-opacity="0.5" stroke="#262525" stroke-opacity="0.5" stroke-width="0.7" stroke-miterlimit="10" stroke-linecap="round" stroke-linejoin="round"/>
<path d="M153.832 126.046L149.998 123.366C149.997 123.366 152.644 118.781 152.644 118.781H141.307L143.954 123.366L140.12 126.046C136.426 128.628 136.379 134.081 140.029 136.726L142.513 138.526H151.439L153.924 136.726C157.573 134.081 157.526 128.628 153.832 126.046Z" fill="#262525" fill-opacity="0.5" stroke="#262525" stroke-opacity="0.5" stroke-width="0.7" stroke-miterlimit="10" stroke-linecap="round" stroke-linejoin="round"/>
<path d="M140.879 114.145L143.981 118.779" stroke="#262525" stroke-opacity="0.5" stroke-width="0.7" stroke-miterlimit="10" stroke-linecap="round" stroke-linejoin="round"/>
<path d="M139.804 114.246C142.111 114.246 143.982 112.931 143.982 111.309C143.982 109.686 142.111 108.371 139.804 108.371C137.496 108.371 135.625 109.686 135.625 111.309C135.625 112.931 137.496 114.246 139.804 114.246Z" fill="white" stroke="#262525" stroke-opacity="0.5" stroke-width="0.7" stroke-miterlimit="10" stroke-linecap="round" stroke-linejoin="round"/>
<path d="M141.385 113.171H139.068C138.04 113.171 137.207 112.338 137.207 111.31C137.207 110.282 138.04 109.449 139.068 109.449H140.413C141.175 109.449 141.793 110.068 141.793 110.83C141.793 111.592 141.175 112.211 140.413 112.211H139.26C138.763 112.211 138.36 111.807 138.36 111.31C138.36 110.813 138.763 110.41 139.26 110.41H140.31C140.586 110.41 140.809 110.633 140.809 110.909C140.809 111.185 140.586 111.409 140.31 111.409H139.32" stroke="#262525" stroke-opacity="0.5" stroke-width="0.7" stroke-miterlimit="10" stroke-linecap="round" stroke-linejoin="round"/>
<path d="M146.336 107.805V118.785" stroke="#262525" stroke-opacity="0.5" stroke-width="0.7" stroke-miterlimit="10" stroke-linecap="round" stroke-linejoin="round"/>
<path d="M146.339 107.805C148.647 107.805 150.517 106.49 150.517 104.867C150.517 103.245 148.647 101.93 146.339 101.93C144.031 101.93 142.16 103.245 142.16 104.867C142.16 106.49 144.031 107.805 146.339 107.805Z" fill="white" stroke="#262525" stroke-opacity="0.5" stroke-width="0.7" stroke-miterlimit="10" stroke-linecap="round" stroke-linejoin="round"/>
<path d="M147.831 106.613H145.513C144.485 106.613 143.652 105.779 143.652 104.752C143.652 103.724 144.486 102.891 145.513 102.891H146.858C147.62 102.891 148.239 103.509 148.239 104.271C148.239 105.034 147.62 105.652 146.858 105.652H145.705C145.208 105.652 144.805 105.249 144.805 104.752C144.805 104.254 145.208 103.851 145.705 103.851H146.755C147.031 103.851 147.255 104.075 147.255 104.351C147.255 104.626 147.031 104.85 146.755 104.85H145.766" stroke="#262525" stroke-opacity="0.5" stroke-width="0.7" stroke-miterlimit="10" stroke-linecap="round" stroke-linejoin="round"/>
<path d="M150.762 117.145L149.941 118.783" stroke="#262525" stroke-opacity="0.5" stroke-width="0.7" stroke-miterlimit="10" stroke-linecap="round" stroke-linejoin="round"/>
<path d="M151.765 117.234C154.072 117.234 155.943 115.919 155.943 114.297C155.943 112.675 154.072 111.359 151.765 111.359C149.457 111.359 147.586 112.675 147.586 114.297C147.586 115.919 149.457 117.234 151.765 117.234Z" fill="white" stroke="#262525" stroke-opacity="0.5" stroke-width="0.7" stroke-miterlimit="10" stroke-linecap="round" stroke-linejoin="round"/>
<path d="M153.444 116.011H151.127C150.099 116.011 149.266 115.178 149.266 114.15C149.266 113.122 150.099 112.289 151.127 112.289H152.471C153.234 112.289 153.852 112.907 153.852 113.67C153.852 114.432 153.234 115.051 152.471 115.051H151.319C150.821 115.051 150.418 114.647 150.418 114.15C150.418 113.653 150.821 113.249 151.319 113.249H152.368C152.644 113.249 152.868 113.473 152.868 113.749C152.868 114.025 152.644 114.248 152.368 114.248H151.379" stroke="#262525" stroke-opacity="0.5" stroke-width="0.7" stroke-miterlimit="10" stroke-linecap="round" stroke-linejoin="round"/>
<path d="M156.602 92.6249C156.959 96.1341 154.403 99.2677 150.894 99.624L122.145 102.949C118.636 103.306 115.503 100.75 115.146 97.2403C114.79 93.7311 117.346 90.5976 120.855 90.2413L149.603 86.9159C153.113 86.5599 156.246 89.1158 156.602 92.6249Z" fill="white" stroke="#262525" stroke-opacity="0.5" stroke-width="0.7" stroke-miterlimit="10" stroke-linecap="round" stroke-linejoin="round"/>
<path d="M128.698 87.9727L120.32 89.0113C116.185 89.5385 113.261 93.3177 113.788 97.4525C114.315 101.587 118.094 104.512 122.229 103.985L131.089 102.855L128.698 87.9727Z" fill="white" stroke="#262525" stroke-opacity="0.5" stroke-width="0.7" stroke-miterlimit="10" stroke-linecap="round" stroke-linejoin="round"/>
<path d="M90.5184 91.1392H116.696C118.217 91.1392 119.262 89.5992 118.69 88.1901C118.032 86.5683 117.199 85.6175 118.278 85.2394C120.635 84.4132 121.707 79.9204 120.458 76.9581C119.208 73.9958 119.428 74.4261 120.175 65.9807C120.923 57.5349 115.07 54.5809 115.07 54.5809C115.07 54.5809 110.091 52.459 106.407 52.5455C96.3659 53.0882 93.1489 66.4061 93.9899 69.7248C94.8309 73.0437 89.8416 73.9175 89.7318 78.1731C89.6221 82.4286 93.5294 82.8718 89.3936 87.0327C89.1953 87.2323 89.0147 87.4334 88.8509 87.6362C87.7132 89.0424 88.7093 91.1392 90.5184 91.1392Z" fill="white" stroke="#262525" stroke-opacity="0.5" stroke-width="0.7" stroke-miterlimit="10" stroke-linecap="round" stroke-linejoin="round"/>
<path d="M105.211 91.1388H109.036C110.764 91.1388 112.165 89.7378 112.165 88.0098V74.172C112.165 72.444 110.764 71.043 109.036 71.043H105.211C103.483 71.043 102.082 72.444 102.082 74.172V88.0094C102.082 89.7378 103.483 91.1388 105.211 91.1388Z" fill="white" stroke="#262525" stroke-opacity="0.5" stroke-width="0.7" stroke-miterlimit="10" stroke-linecap="round" stroke-linejoin="round"/>
<path d="M104.168 76.08V71.221C104.494 71.1061 104.844 71.043 105.209 71.043H109.034C110.762 71.043 112.163 72.444 112.163 74.172V85.3905C107.55 85.3905 104.168 81.144 104.168 76.08Z" fill="#262525" fill-opacity="0.5"/>
<path d="M114.679 81.6983C118.434 80.9934 120.908 77.3774 120.203 73.6217L117.746 60.5339C116.825 55.6269 112.101 52.3958 107.194 53.317C102.287 54.2381 99.056 58.9623 99.9771 63.8692L101.651 72.7881C102.788 78.846 108.621 82.8354 114.679 81.6983Z" fill="white" stroke="#262525" stroke-opacity="0.5" stroke-width="0.7" stroke-miterlimit="10" stroke-linecap="round" stroke-linejoin="round"/>
<path d="M111.437 58.2737C111.437 58.2737 111.106 63.6106 105.781 65.3963C103.688 66.0564 103.354 67.1803 103.354 67.1803L102.086 75.4509V78.7503C102.086 78.7503 98.8936 76.5707 97.5032 65.3934C96.7308 59.1829 100.105 53.75 106.689 52.5141C113.009 51.3277 117.834 55.1491 118.518 62.4967C118.546 62.8031 118.519 62.9875 118.218 63.0361C118.218 63.0361 116.309 57.0291 111.437 58.2737Z" fill="white"/>
<path d="M118.222 63.0338C118.222 63.0338 116.313 57.0267 111.441 58.2713C111.441 58.2713 111.11 63.6083 105.785 65.3939C103.692 66.054 103.357 67.178 103.357 67.178L102.09 75.4486V78.7479" stroke="#262525" stroke-opacity="0.5" stroke-width="0.7" stroke-miterlimit="10" stroke-linecap="round" stroke-linejoin="round"/>
<path d="M106.695 52.5118C109.056 52.0686 111.157 52.2685 112.899 53.0754C113.627 53.4127 114.293 53.8562 114.888 54.4034C114.888 54.4034 115.474 54.7616 115.954 55.1497" stroke="#262525" stroke-opacity="0.5" stroke-width="0.7" stroke-miterlimit="10" stroke-linecap="round" stroke-linejoin="round"/>
<path d="M112.88 53.0771C105.252 51.8953 102.404 56.0526 101.408 60.1772C100.426 64.2428 101.575 70.8344 101.575 70.8344L100.197 71.0931C100.197 71.0931 96.432 59.3449 101.337 54.0263C101.337 54.0263 103.342 51.6236 108.007 51.6017C111.939 51.5834 112.88 53.0771 112.88 53.0771Z" fill="#262525" fill-opacity="0.5" stroke="#262525" stroke-opacity="0.5" stroke-width="0.7" stroke-miterlimit="10" stroke-linecap="round" stroke-linejoin="round"/>
<path d="M108.188 68.4213C108.291 68.9684 108.622 68.961 109.018 68.8864C109.414 68.812 109.726 68.6991 109.623 68.1519C109.486 67.419 109.164 67.4796 108.768 67.5539C108.372 67.6282 108.052 67.6975 108.188 68.4213Z" fill="#262525" fill-opacity="0.5"/>
<path d="M111.068 68.3135C111.068 68.3135 109.852 66.9028 107.585 67.8893C107.585 67.8893 106.335 68.4603 105.566 68.1513" stroke="#262525" stroke-opacity="0.5" stroke-width="0.7" stroke-miterlimit="10" stroke-linecap="round" stroke-linejoin="round"/>
<path d="M113.074 66.5508C113.074 66.5508 114.732 69.8823 115.472 71.9672C115.565 72.2312 115.42 72.5208 115.152 72.6029C114.662 72.7532 113.101 72.9762 113.101 72.9762" stroke="#262525" stroke-opacity="0.5" stroke-width="0.7" stroke-miterlimit="10" stroke-linecap="round" stroke-linejoin="round"/>
<path d="M114.483 75.3138C113.6 75.3218 111.753 75.1763 109.978 74.0145C109.75 73.8651 109.443 73.9842 109.378 74.2494C109.11 75.3514 108.824 77.7843 111.321 78.3327C113.555 78.8236 114.521 76.8381 114.861 75.8345C114.948 75.5771 114.755 75.3112 114.483 75.3138Z" fill="#262525" fill-opacity="0.5" stroke="#262525" stroke-opacity="0.5" stroke-width="0.7" stroke-miterlimit="10" stroke-linecap="round" stroke-linejoin="round"/>
<path d="M111.926 74.2784C112.184 74.3512 112.361 74.5697 112.393 74.8191C112.551 74.6235 112.817 74.5295 113.074 74.6022C113.419 74.6994 113.619 75.0576 113.522 75.4023C113.425 75.747 113.066 75.9476 112.722 75.85C112.464 75.7773 112.287 75.5588 112.255 75.3093C112.097 75.505 111.831 75.599 111.574 75.5262C111.229 75.429 111.029 75.0708 111.126 74.7261C111.223 74.3817 111.582 74.1812 111.926 74.2784Z" fill="white" stroke="#262525" stroke-opacity="0.5" stroke-width="0.7" stroke-miterlimit="10" stroke-linecap="round" stroke-linejoin="round"/>
<path d="M109.382 74.2493C109.446 73.9845 109.754 73.8651 109.982 74.0144C111.756 75.1766 113.604 75.3218 114.487 75.3137C114.759 75.3111 114.952 75.577 114.865 75.8342C114.783 76.0762 114.664 76.3755 114.5 76.6832C113.537 76.5458 110.8 76.0791 109.242 75.0389C109.275 74.7402 109.328 74.4685 109.382 74.2493Z" fill="white" stroke="#262525" stroke-opacity="0.5" stroke-width="0.7" stroke-miterlimit="10" stroke-linecap="round" stroke-linejoin="round"/>
<path d="M111.318 78.3314C110.132 78.0707 109.574 77.3842 109.344 76.6172C110.219 76.8747 112.567 77.5509 113.578 77.8415C113.033 78.286 112.297 78.5464 111.318 78.3314Z" fill="white" stroke="#262525" stroke-opacity="0.5" stroke-width="0.7" stroke-miterlimit="10" stroke-linecap="round" stroke-linejoin="round"/>
<path d="M107.531 66.3966L109.498 66.0274C109.766 65.9769 109.943 65.7187 109.893 65.4503C109.842 65.1819 109.584 65.0052 109.316 65.0554L107.349 65.4246C107.08 65.4751 106.904 65.7332 106.954 66.0016C107.004 66.2701 107.263 66.4468 107.531 66.3966Z" fill="#262525" fill-opacity="0.5" stroke="#262525" stroke-opacity="0.5" stroke-width="0.7" stroke-miterlimit="10" stroke-linecap="round" stroke-linejoin="round"/>
<path d="M115.156 64.9669L117.123 64.5977C117.391 64.5472 117.568 64.289 117.518 64.0206C117.467 63.7522 117.209 63.5755 116.941 63.6257L114.974 63.9949C114.705 64.0454 114.529 64.3035 114.579 64.572C114.629 64.8404 114.887 65.0171 115.156 64.9669Z" fill="#262525" fill-opacity="0.5" stroke="#262525" stroke-opacity="0.5" stroke-width="0.7" stroke-miterlimit="10" stroke-linecap="round" stroke-linejoin="round"/>
<path d="M117.452 66.6855C117.554 67.2326 117.243 67.3456 116.847 67.4199C116.451 67.4943 116.119 67.502 116.017 66.9548C115.879 66.222 116.2 66.1618 116.597 66.0875C116.993 66.0131 117.316 65.9616 117.452 66.6855Z" fill="#262525" fill-opacity="0.5"/>
<path d="M114.73 67.6323C114.73 67.6323 115.353 65.8766 117.823 65.9742C117.823 65.9742 118.788 66.1293 119.393 65.5625" stroke="#262525" stroke-opacity="0.5" stroke-width="0.7" stroke-miterlimit="10" stroke-linecap="round" stroke-linejoin="round"/>
<path d="M99.6359 73.7686L101.705 74.3141C103.389 74.7583 104.962 73.2955 104.64 71.5838C104.471 70.6839 103.799 69.9617 102.914 69.7284L100.845 69.1828C99.1606 68.7387 97.1821 70.2778 97.5033 71.9894C97.6723 72.8893 98.7505 73.5352 99.6359 73.7686Z" fill="white"/>
<path d="M103.011 69.7561C102.979 69.7461 102.947 69.7371 102.914 69.7284L100.845 69.1828C99.1606 68.7387 97.1821 70.2778 97.5033 71.9894C97.6723 72.8893 98.7505 73.5352 99.6359 73.7686L101.705 74.3141C102.01 74.3946 102.311 74.4123 102.598 74.3779" stroke="#262525" stroke-opacity="0.5" stroke-width="0.7" stroke-miterlimit="10" stroke-linecap="round" stroke-linejoin="round"/>
<path d="M102.653 72.8105C102.827 72.4864 102.896 72.1027 102.823 71.713C102.653 70.8069 101.78 70.2105 100.874 70.3805C100.277 70.4925 99.8148 70.9096 99.6172 71.4403" stroke="#262525" stroke-opacity="0.5" stroke-width="0.7" stroke-miterlimit="10" stroke-linecap="round" stroke-linejoin="round"/>
<path d="M102.751 71.4468C102.52 71.3866 102.295 71.3712 102.045 71.4182C101.479 71.5244 101.033 71.9051 100.82 72.3966" stroke="#262525" stroke-opacity="0.5" stroke-width="0.7" stroke-miterlimit="10" stroke-linecap="round" stroke-linejoin="round"/>
<path d="M164.87 57.3131C168.113 58.7 169.618 62.4531 168.231 65.6964L156.198 95.7526C154.811 98.996 151.058 100.501 147.815 99.1141C144.572 97.7272 143.067 93.9741 144.453 90.7308L157.976 60.3772C159.363 57.1338 161.627 55.9266 164.87 57.3131Z" fill="white"/>
<path d="M146.821 88.2563L145.965 87.3374L157.975 60.377C159.362 57.1337 161.626 55.9265 164.869 57.3133C168.113 58.7002 169.617 62.4533 168.231 65.6966L156.198 95.7528C155.285 97.8858 153.35 99.2668 151.209 99.5681L149.119 99.8298" stroke="#262525" stroke-opacity="0.5" stroke-width="0.7" stroke-miterlimit="10" stroke-linecap="round" stroke-linejoin="round"/>
<path d="M118.041 128.275H94.5535L94.0234 119.359H118.836L118.041 128.275Z" fill="white" stroke="#262525" stroke-opacity="0.5" stroke-width="0.7" stroke-miterlimit="10" stroke-linecap="round" stroke-linejoin="round"/>
<path d="M102.093 87.6016L96.9414 88.8285L99.2745 100.901L120.323 100.744L117.007 89.095L112.205 87.617L102.093 87.6016Z" fill="white"/>
<path d="M102.093 87.6016L96.9414 88.8285L99.2745 100.901L120.323 100.744L117.007 89.095L112.167 87.6051" stroke="#262525" stroke-opacity="0.5" stroke-width="0.7" stroke-miterlimit="10" stroke-linecap="round" stroke-linejoin="round"/>
<path d="M123.149 101.455L121.836 98.8302L120.264 89.0133L116.864 88.65C116.669 88.6291 116.515 88.8109 116.567 88.9992L116.645 89.2773C117.484 92.0439 117.91 94.9197 117.908 97.8112C117.907 99.0539 116.882 100.054 115.639 100.054H105.572C103.746 100.054 102.178 98.7607 101.827 96.9686C101.42 94.8852 100.478 92.9435 99.095 91.3333L97.0384 88.8366C96.8491 88.6068 96.5427 88.5058 96.256 88.5856C93.6815 89.302 90.8878 90.4942 88.6953 91.3825L93.227 108.396V122.512H119.778L120.954 113.523L121.076 113.327C124.025 109.427 125.172 105.664 123.149 101.455Z" fill="white"/>
<path d="M120.264 89.0133L116.864 88.65C116.669 88.6291 116.515 88.8109 116.567 88.9992L116.645 89.2773C117.484 92.0439 117.91 94.9197 117.908 97.8112C117.907 99.0539 116.882 100.054 115.639 100.054H105.572C103.746 100.054 102.178 98.7607 101.827 96.9686C101.42 94.8852 100.478 92.9435 99.095 91.3333L97.0384 88.8366C96.8491 88.6068 96.5427 88.5058 96.256 88.5856C93.6815 89.302 90.8878 90.4942 88.6953 91.3825L93.227 108.396V122.512H119.778L120.954 113.523L121.076 113.327C124.025 109.427 125.172 105.663 123.149 101.455L121.836 98.8298L121.258 95.2196" stroke="#262525" stroke-opacity="0.5" stroke-width="0.7" stroke-miterlimit="10" stroke-linecap="round" stroke-linejoin="round"/>
<path d="M93.2616 128.284C87.9054 132.929 86.3125 140.215 86.3125 140.215H122.841C121.066 132.209 118.599 127.889 118.599 127.889V126.312H93.5021L93.2616 128.284Z" fill="#262525" fill-opacity="0.5" stroke="#262525" stroke-opacity="0.5" stroke-width="0.7" stroke-miterlimit="10" stroke-linecap="round" stroke-linejoin="round"/>
<path d="M82.044 132.037C78.6082 131.239 76.4705 127.806 77.2687 124.371L83.7807 97.4305C84.5792 93.9948 88.0115 91.857 91.4473 92.6555C94.883 93.454 97.0208 96.8863 96.2226 100.322L89.7105 127.262C88.912 130.698 85.4798 132.836 82.044 132.037Z" fill="white" stroke="#262525" stroke-opacity="0.5" stroke-width="0.7" stroke-miterlimit="10" stroke-linecap="round" stroke-linejoin="round"/>
<path d="M96.4209 105.765L97.5622 100.213C98.4016 96.13 95.772 92.1397 91.689 91.3006C87.606 90.4612 83.6157 93.0908 82.7766 97.1738L81.5391 103.195L96.4209 105.765Z" fill="white"/>
<path d="M89.9314 90.8828C89.9314 90.8828 89.2465 91.1992 89.1908 91.2063C86.0881 91.6118 83.4419 93.9353 82.7766 97.1721L81.5391 103.193L96.4209 105.764L97.5622 100.211" stroke="#262525" stroke-opacity="0.5" stroke-width="0.7" stroke-miterlimit="10" stroke-linecap="round" stroke-linejoin="round"/>
<path d="M83.4093 139.379C79.8825 139.379 77.0234 140.723 77.0234 137.196V126.417C77.0234 122.89 79.8825 120.031 83.4093 120.031C86.9362 120.031 89.7952 122.89 89.7952 126.417L89.3034 136.45C89.3034 139.977 83.4093 139.379 83.4093 139.379Z" fill="white"/>
<path d="M89.9426 126.316L89.7772 127L89.3034 136.45C89.3034 139.976 83.4093 139.379 83.4093 139.379C79.8825 139.379 77.0234 140.723 77.0234 137.196V126.417C77.0234 126.016 77.0605 125.624 77.1309 125.244C77.1309 125.244 77.1535 124.862 77.4441 123.66" stroke="#262525" stroke-opacity="0.5" stroke-width="0.7" stroke-miterlimit="10" stroke-linecap="round" stroke-linejoin="round"/>
<path d="M80.6562 125.033C80.6562 125.033 84.0289 123.598 86.7457 125.336" stroke="#262525" stroke-opacity="0.5" stroke-width="0.7" stroke-miterlimit="10" stroke-linecap="round" stroke-linejoin="round"/>
<path d="M77.6177 141.55H77.4056C76.3792 141.55 75.5469 140.718 75.5469 139.691C75.5469 138.606 76.4265 137.727 77.5115 137.727C78.5964 137.727 79.4761 138.606 79.4761 139.691C79.4761 140.718 78.6441 141.55 77.6177 141.55Z" fill="white" stroke="#262525" stroke-opacity="0.5" stroke-width="0.7" stroke-miterlimit="10" stroke-linecap="round" stroke-linejoin="round"/>
<path d="M81.4412 141.964C80.3562 141.964 79.4766 141.084 79.4766 139.999V138.32C79.4766 137.235 80.3562 136.355 81.4412 136.355C82.5261 136.355 83.4057 137.235 83.4057 138.32V139.999C83.4057 141.084 82.5261 141.964 81.4412 141.964Z" fill="white" stroke="#262525" stroke-opacity="0.5" stroke-width="0.7" stroke-miterlimit="10" stroke-linecap="round" stroke-linejoin="round"/>
<path d="M85.3669 142.71C84.282 142.71 83.4023 141.83 83.4023 140.745V137.258C83.4023 136.173 84.282 135.293 85.3669 135.293C86.4519 135.293 87.3315 136.173 87.3315 137.258V140.745C87.3318 141.83 86.4522 142.71 85.3669 142.71Z" fill="white" stroke="#262525" stroke-opacity="0.5" stroke-width="0.7" stroke-miterlimit="10" stroke-linecap="round" stroke-linejoin="round"/>
<path d="M89.3005 141.964C88.2156 141.964 87.3359 141.084 87.3359 139.999V138.32C87.3359 137.235 88.2156 136.355 89.3005 136.355C90.3855 136.355 91.2651 137.235 91.2651 138.32V139.999C91.2651 141.084 90.3855 141.964 89.3005 141.964Z" fill="white" stroke="#262525" stroke-opacity="0.5" stroke-width="0.7" stroke-miterlimit="10" stroke-linecap="round" stroke-linejoin="round"/>
<path d="M164.604 67.1336L165.237 66.9981C169.268 66.1362 171.837 62.1693 170.975 58.1384L169.134 51.4062L157.883 53.7995L158.827 56.9241L158.44 56.5733L157.472 53.8877L154.285 54.5691L155.745 61.3953C156.607 65.4265 160.573 67.9955 164.604 67.1336Z" fill="white"/>
<path d="M169.136 51.4062L170.976 58.1384C171.515 60.6579 170.714 63.1519 169.053 64.879L168.248 65.6022L168.094 66.0312" stroke="#262525" stroke-opacity="0.5" stroke-width="0.7" stroke-miterlimit="10" stroke-linecap="round" stroke-linejoin="round"/>
<path d="M155.402 59.793L155.745 61.3964C156.276 63.8802 157.986 65.809 160.164 66.7221" stroke="#262525" stroke-opacity="0.5" stroke-width="0.7" stroke-miterlimit="10" stroke-linecap="round" stroke-linejoin="round"/>
<path d="M157.884 53.8008L158.828 56.9253L158.441 56.5745L157.473 53.8886" stroke="#262525" stroke-opacity="0.5" stroke-width="0.7" stroke-miterlimit="10" stroke-linecap="round" stroke-linejoin="round"/>
<path d="M155.514 60.2987L159.29 58.9369L156.641 51.6624C156.265 50.6199 155.115 50.0795 154.073 50.4555C153.03 50.8314 152.49 51.9817 152.866 53.0242L155.514 60.2987Z" fill="white"/>
<path d="M158.436 56.5687L156.641 51.6624C156.265 50.6199 155.115 50.0795 154.073 50.4555C153.03 50.8314 152.49 51.9817 152.866 53.0242L155.514 60.2987" stroke="#262525" stroke-opacity="0.5" stroke-width="0.7" stroke-miterlimit="10" stroke-linecap="round" stroke-linejoin="round"/>
<path d="M165.653 52.4636L169.115 51.3976L167.339 44.1617C167.018 43.1005 165.899 42.5003 164.837 42.8205C163.776 43.1411 163.176 44.2608 163.496 45.322L165.653 52.4636Z" fill="white"/>
<path d="M169.115 51.3976L167.339 44.1617C167.018 43.1005 165.899 42.5003 164.837 42.8205C163.776 43.1411 163.176 44.2608 163.496 45.322L165.416 51.6811" stroke="#262525" stroke-opacity="0.5" stroke-width="0.7" stroke-miterlimit="10" stroke-linecap="round" stroke-linejoin="round"/>
<path d="M163.155 53.2177L166.998 52.0574L163.847 41.6226C163.526 40.5615 162.406 39.9612 161.345 40.2815C160.284 40.602 159.684 41.7218 160.004 42.7829L163.155 53.2177Z" fill="white"/>
<path d="M166.998 52.0574L163.847 41.6226C163.526 40.5615 162.406 39.9612 161.345 40.2815C160.284 40.602 159.684 41.7218 160.004 42.7829L162.89 52.339" stroke="#262525" stroke-opacity="0.5" stroke-width="0.7" stroke-miterlimit="10" stroke-linecap="round" stroke-linejoin="round"/>
<path d="M160.814 53.9252L164.656 52.765L161.062 40.8609C160.741 39.7998 159.621 39.1995 158.56 39.5197C157.499 39.84 156.899 40.96 157.219 42.0212L160.814 53.9252Z" fill="white"/>
<path d="M164.656 52.765L161.062 40.8609C160.741 39.7998 159.621 39.1995 158.56 39.5197C157.499 39.84 156.899 40.96 157.219 42.0212L160.599 53.2139" stroke="#262525" stroke-opacity="0.5" stroke-width="0.7" stroke-miterlimit="10" stroke-linecap="round" stroke-linejoin="round"/>
<path d="M158.163 54.7294L162.005 53.5691L158.855 43.1343C158.534 42.0732 157.414 41.4729 156.353 41.7932C155.292 42.1137 154.692 43.2335 155.012 44.2946L158.163 54.7294Z" fill="white"/>
<path d="M162.005 53.5691L158.855 43.1343C158.534 42.0732 157.414 41.4729 156.353 41.7932C155.292 42.1137 154.692 43.2335 155.012 44.2946L158.825 56.9232L158.439 56.5723" stroke="#262525" stroke-opacity="0.5" stroke-width="0.7" stroke-miterlimit="10" stroke-linecap="round" stroke-linejoin="round"/>
<path d="M158.824 56.9219L160.373 57.8157C162.361 58.9624 163.992 60.6386 165.084 62.657" stroke="#262525" stroke-opacity="0.5" stroke-width="0.7" stroke-miterlimit="10" stroke-linecap="round" stroke-linejoin="round"/>
</svg>
