<svg width="50" height="50" viewBox="0 0 50 50" fill="none" xmlns="http://www.w3.org/2000/svg">
<g clip-path="url(#clip0_392_1609)">
<path d="M22.6095 49.9998C22.3881 49.9556 22.1641 49.9217 21.9467 49.8657C20.8295 49.5793 20.0509 48.647 19.9519 47.4399C19.9272 47.1379 19.8516 47.0077 19.5287 46.9295C18.2904 46.6261 17.5274 45.6183 17.4975 44.2837C17.4766 43.3566 17.4897 42.4282 17.4923 41.5011C17.4988 38.8827 16.4454 36.8215 14.2878 35.328C10.2813 32.5545 7.62508 28.8267 6.39591 24.0936C6.37248 24.0024 6.35946 23.9087 6.34253 23.8149C6.40373 23.7837 6.44279 23.7524 6.48706 23.7407C6.88029 23.6483 7.27352 23.5584 7.70451 23.4595C7.7605 23.6222 7.81909 23.7668 7.85946 23.9165C8.98966 28.1001 11.3334 31.4373 14.8608 33.9334C15.8933 34.6639 16.8282 35.4725 17.543 36.5272C17.6303 36.6561 17.8555 36.7616 18.017 36.7629C22.711 36.7759 27.405 36.7759 32.099 36.7616C32.2566 36.7616 32.4701 36.6405 32.5626 36.509C33.2292 35.5467 34.0522 34.755 35.0144 34.0936C38.1173 31.9595 40.3412 29.1274 41.7006 25.6118C41.724 25.5519 41.7449 25.4894 41.7735 25.4321C41.7865 25.4048 41.8152 25.384 41.8686 25.3254C42.2865 25.4725 42.7214 25.6261 43.185 25.7902C42.5652 27.5558 41.7123 29.1509 40.6433 30.6313C39.336 32.4412 37.7722 33.9933 35.9259 35.2446C33.6746 36.7694 32.5691 38.8813 32.6016 41.6014C32.6121 42.4959 32.6199 43.3918 32.5964 44.2863C32.5626 45.6704 31.8074 46.5988 30.4766 46.9764C30.3516 47.0116 30.1902 47.1756 30.172 47.2993C29.9154 48.9777 29.2618 49.6652 27.6186 49.9491C27.5717 49.9569 27.5287 49.9855 27.4845 50.0037C25.8595 49.9998 24.2345 49.9998 22.6095 49.9998ZM24.7826 45.561C25.5873 45.561 26.3477 45.5623 27.1082 45.561C28.0339 45.5597 28.9597 45.5832 29.8829 45.5467C30.7436 45.5129 31.2019 44.9412 31.0678 44.1431C27.0417 44.1431 23.0157 44.1431 18.9897 44.1431C18.9662 45.0155 19.3634 45.4855 20.1694 45.5454C20.5886 45.5767 21.0131 45.5597 21.435 45.561C22.0444 45.5623 22.6537 45.561 23.2761 45.561C23.2761 46.0806 23.2761 46.5272 23.2761 47.0259C22.9441 47.0259 22.6381 47.0259 22.3334 47.0259C22.0313 47.0259 21.7305 47.0259 21.435 47.0259C21.3868 47.9959 21.8386 48.4725 22.7865 48.4868C24.004 48.5037 25.2214 48.4946 26.4389 48.4894C26.8608 48.4881 27.2865 48.5024 27.7019 48.4438C28.3894 48.3462 28.7683 47.7511 28.6108 47.0129C27.349 47.0129 26.0743 47.0129 24.7839 47.0129C24.7826 46.5207 24.7826 46.0858 24.7826 45.561ZM31.6485 38.2616C27.2371 38.2616 22.8595 38.2616 18.4415 38.2616C18.5782 38.7563 18.7058 39.2173 18.8308 39.6704C22.9936 39.6704 27.1264 39.6704 31.2644 39.6704C31.3959 39.1925 31.517 38.7433 31.6485 38.2616ZM31.1121 41.2095C27.0431 41.2095 23.0157 41.2095 18.9988 41.2095C18.9988 41.6991 18.9988 42.1431 18.9988 42.5936C23.0574 42.5936 27.0717 42.5936 31.1121 42.5936C31.1121 42.1235 31.1121 41.6886 31.1121 41.2095Z" fill="#060606"/>
<path d="M50 20.4023C48.9831 20.3867 47.9662 20.3698 46.9506 20.3542C46.7435 20.3516 46.5378 20.3542 46.3138 20.3542C46.3138 19.8464 46.3138 19.3958 46.3138 18.8398C47.5534 18.8398 48.7774 18.8398 50 18.8398C50 19.3607 50 19.8815 50 20.4023Z" fill="#060606"/>
<path d="M36.0897 19.7876C36.8098 20.8046 37.0923 21.9361 36.6861 23.1157C36.4712 23.7381 35.996 24.2681 35.6561 24.8514C35.565 25.0077 35.4569 25.2212 35.4934 25.3762C35.9855 27.5168 34.8853 29.4387 32.8046 30.0663C32.6249 30.121 32.4335 30.259 32.3254 30.4126C30.6691 32.7564 27.7342 33.3449 25.3163 31.7915C25.0975 31.6509 24.9712 31.6717 24.7655 31.8032C22.3762 33.3371 19.4178 32.746 17.7876 30.4387C17.6626 30.2616 17.4361 30.1131 17.2264 30.048C15.216 29.4269 14.1027 27.4621 14.5975 25.4061C14.634 25.2538 14.5975 25.0116 14.496 24.9074C13.0324 23.3931 12.8384 21.7316 13.9348 19.8983C13.9582 19.8579 13.9699 19.8111 13.992 19.7551C12.8397 18.578 12.3827 17.1769 12.746 15.5572C13.0702 14.1118 13.9543 13.0962 15.298 12.4934C15.5585 12.3762 15.6874 12.2655 15.7186 11.9478C15.8592 10.5038 16.8462 9.43606 18.2616 9.0897C18.4634 9.04023 18.6887 8.87877 18.7993 8.70299C20.0689 6.68606 22.5975 5.99205 24.6848 7.12356C24.9361 7.26028 25.1118 7.28892 25.3827 7.14179C27.4947 5.98554 30.0142 6.67434 31.3032 8.71731C31.4139 8.89179 31.6457 9.04543 31.8488 9.09491C33.2629 9.44517 34.2121 10.509 34.4009 11.9621C34.423 12.1288 34.548 12.3592 34.6874 12.423C37.6561 13.7746 38.3944 17.2147 36.2199 19.6236C36.1756 19.6717 36.1392 19.7238 36.0897 19.7876ZM19.0129 14.996C18.5988 14.3723 18.1353 13.9087 17.4595 13.7095C16.3137 13.3723 14.9595 14.0572 14.3736 15.2746C13.815 16.4361 14.1262 18.0572 15.0454 18.7108C15.1301 18.7707 15.2915 18.7915 15.3879 18.7538C17.3332 18.0168 19.1574 19.2316 19.9543 21.0611C19.5441 21.2733 19.1314 21.4868 18.7681 21.6743C18.3944 21.2329 18.1027 20.7915 17.7199 20.453C16.8488 19.6835 15.5988 19.923 15.0142 20.9282C14.3944 21.9947 14.7147 23.3371 15.7603 24.0168C16.0428 24.2004 16.3488 24.3514 16.66 24.5259C16.5012 24.8006 16.3462 25.0467 16.2121 25.3032C15.4829 26.6978 16.2759 28.3605 17.8163 28.6756C18.8775 28.8931 19.7394 28.2251 19.7889 27.147C19.798 26.9595 19.7902 26.7707 19.7902 26.5793C20.3098 26.5324 20.7551 26.4921 21.2277 26.4491C21.3723 28.0832 20.8723 29.3098 19.3436 29.9803C20.4309 31.3579 22.7993 31.6014 24.0936 30.4725C24.2251 30.3579 24.3059 30.1131 24.3059 29.9282C24.3163 22.9608 24.3124 15.9934 24.3228 9.0259C24.3228 8.67434 24.19 8.49986 23.8957 8.35403C22.3397 7.5832 20.4452 8.29674 19.8384 9.95299C19.6561 10.4491 19.4452 10.5754 18.9413 10.5376C17.9634 10.4647 17.1939 11.2173 17.2173 12.16C18.5663 12.3566 19.5754 13.0532 20.2577 14.2785C19.8319 14.5246 19.4426 14.7486 19.0129 14.996ZM30.3019 26.5793C30.3019 26.7993 30.2954 26.9764 30.3032 27.1522C30.3527 28.1991 31.1431 28.8449 32.1848 28.6926C33.6991 28.4712 34.5897 26.8241 33.94 25.4322C33.798 25.1275 33.6144 24.841 33.4361 24.5207C33.7069 24.3736 33.966 24.2421 34.2147 24.0962C34.8046 23.7499 35.1848 23.2407 35.3384 22.5715C35.5936 21.4647 34.9569 20.3085 33.9556 20.0637C33.2564 19.8918 32.6639 20.1105 32.1887 20.6184C31.8827 20.9439 31.6314 21.3202 31.3436 21.6887C30.9348 21.4738 30.535 21.2629 30.1066 21.0376C30.2434 20.8072 30.3592 20.5949 30.4894 20.3918C31.4452 18.9035 33.0298 18.1314 34.7121 18.7486C34.8358 18.7941 35.078 18.6835 35.1887 18.5702C36.522 17.2199 36.1717 14.9152 34.5025 13.9725C33.3944 13.3462 32.2121 13.5676 31.4022 14.5545C31.2915 14.6887 31.1861 14.828 31.0637 14.9829C30.6496 14.746 30.259 14.522 29.7329 14.2212C30.2303 13.7212 30.6275 13.1926 31.1431 12.8397C31.6613 12.4855 32.2993 12.3072 32.8983 12.0467C32.7707 11.0637 32.0832 10.4608 31.048 10.5441C30.6092 10.5793 30.4387 10.4439 30.2928 10.0376C29.6782 8.32148 27.7798 7.56627 26.1913 8.35793C25.8944 8.50637 25.7668 8.68736 25.7707 9.03502C25.7889 10.6301 25.7785 12.2251 25.7785 13.8202C25.7785 19.1431 25.7759 24.466 25.7863 29.7889C25.7863 30.0129 25.8254 30.3111 25.9686 30.4465C27.2017 31.6131 29.6887 31.3671 30.7277 30.0025C29.1717 29.0129 28.5259 27.7434 28.9374 26.4439C29.3644 26.4855 29.7993 26.5298 30.3019 26.5793Z" fill="#060606"/>
<path d="M26.806 0.0939786C26.7591 0.606999 26.7187 1.05361 26.6732 1.55361C20.97 1.19294 16.056 2.94945 12.1276 7.11872C8.1914 11.2958 6.74869 16.3192 7.4414 22.0562C6.99218 22.1304 6.53906 22.2047 6.00129 22.2932C5.2539 16.2997 6.6914 10.9976 10.6927 6.52236C14.9648 1.74372 20.3893 -0.29274 26.806 0.0939786Z" fill="#060606"/>
<path d="M28.0728 1.74072C28.1535 1.26676 28.2265 0.839681 28.3189 0.303223C33.1405 1.21989 37.1171 3.50765 40.121 7.35661C44.0533 12.3957 45.1119 18.0819 43.6718 24.3319C43.1783 24.2017 42.7473 24.0884 42.2564 23.9595C43.453 18.9022 42.8345 14.117 40.0377 9.7264C37.2447 5.34098 33.2069 2.74593 28.0728 1.74072Z" fill="#060606"/>
<path d="M3.78394 18.9282C3.78394 19.4009 3.78394 19.8384 3.78394 20.3149C2.56649 20.3149 1.35946 20.3149 0.123779 20.3149C0.123779 19.8631 0.123779 19.4165 0.123779 18.9282C1.3256 18.9282 2.53133 18.9282 3.78394 18.9282Z" fill="#060606"/>
<path d="M4.82817 26.228C5.00004 26.7007 5.15369 27.1252 5.32556 27.6017C4.16541 28.0262 3.03259 28.4403 1.85291 28.8713C1.67843 28.3921 1.52087 27.9572 1.35291 27.4963C2.51567 27.0718 3.64067 26.6616 4.82817 26.228Z" fill="#060606"/>
<path d="M44.6382 35.1408C44.3153 35.5275 44.0275 35.8739 43.702 36.2632C42.7593 35.4715 41.8348 34.6942 40.8635 33.8778C41.1825 33.4989 41.478 33.146 41.8036 32.7593C42.7502 33.5549 43.6669 34.3244 44.6382 35.1408Z" fill="#060606"/>
<path d="M5.46753 4.11198C5.78394 3.73177 6.08081 3.375 6.40373 2.98828C7.35685 3.79036 8.28393 4.57161 9.23836 5.375C8.92065 5.75521 8.63159 6.10026 8.30216 6.49479C7.35815 5.70052 6.43237 4.92188 5.46753 4.11198Z" fill="#060606"/>
<path d="M43.6954 2.97803C44.0222 3.37386 44.3087 3.72152 44.6251 4.10563C43.6811 4.9012 42.767 5.67204 41.7983 6.48844C41.4897 6.12126 41.1928 5.76969 40.8582 5.37126C41.8048 4.57178 42.7292 3.79313 43.6954 2.97803Z" fill="#060606"/>
<path d="M1.35419 11.7552C1.52346 11.2904 1.67841 10.8672 1.85419 10.3828C3.01825 10.806 4.15106 11.2174 5.32815 11.6458C5.15627 12.1198 4.99872 12.5547 4.83075 13.0208C3.66538 12.5951 2.54169 12.1862 1.35419 11.7552Z" fill="#060606"/>
<path d="M48.2552 10.3892C48.4284 10.8618 48.5834 11.2824 48.7591 11.7616C47.6042 12.1834 46.4727 12.5975 45.2852 13.0324C45.1133 12.5649 44.9531 12.1326 44.78 11.6613C45.9414 11.2355 47.0625 10.8254 48.2552 10.3892Z" fill="#060606"/>
<path d="M44.7748 27.577C44.9467 27.1056 45.0991 26.6838 45.2735 26.2046C46.4389 26.6278 47.5743 27.0405 48.7527 27.4676C48.5821 27.9325 48.4246 28.3647 48.2501 28.8413C47.0899 28.4194 45.9702 28.0119 44.7748 27.577Z" fill="#060606"/>
<path d="M6.41286 36.2498C6.09776 35.8735 5.8087 35.5285 5.47406 35.13C6.41807 34.3358 7.34125 33.5584 8.30349 32.7485C8.6238 33.1274 8.92067 33.479 9.2475 33.8644C8.29177 34.6691 7.36469 35.4491 6.41286 36.2498Z" fill="#060606"/>
<path d="M41.3491 17.4077C41.3491 17.8765 41.3491 18.3257 41.3491 18.8075C40.8881 18.8075 40.4428 18.8075 39.9532 18.8075C39.9532 18.3582 39.9532 17.8999 39.9532 17.4077C40.396 17.4077 40.8426 17.4077 41.3491 17.4077Z" fill="#060606"/>
<path d="M39.9376 21.8462C39.9376 21.3462 39.9376 20.8957 39.9376 20.4243C40.4129 20.4243 40.8634 20.4243 41.3426 20.4243C41.3426 20.897 41.3426 21.3605 41.3426 21.8462C40.8712 21.8462 40.422 21.8462 39.9376 21.8462Z" fill="#060606"/>
</g>
<defs>
<clipPath id="clip0_392_1609">
<rect width="50" height="50" fill="white"/>
</clipPath>
</defs>
</svg>
