<svg width="216" height="152" viewBox="0 0 216 152" fill="none" xmlns="http://www.w3.org/2000/svg">
<path d="M215.01 2.23438H2.16016V150.211H215.01V2.23438Z" fill="white"/>
<path d="M4 106.713C4 106.713 23.9272 106.5 25.6022 106.768C27.2771 107.036 21.5823 110.854 20.3093 112.663C19.0364 114.472 25.6022 111.859 28.1481 110.519C30.694 109.179 21.9843 119.898 21.5153 120.769C21.0463 121.64 30.627 117.755 32.034 117.085C33.4409 116.415 28.7511 120.836 27.2101 122.377C25.6692 123.918 35.9199 123.851 38.0638 124.387C40.2077 124.923 19.1481 125.235 17.4508 123.673C15.7535 122.111 23.4583 91.0243 29.89 83.99C36.3219 76.9557 46.0961 77.3875 46.8703 77.5661C47.6445 77.7448 48.8951 82.8362 49.9373 85.0098C50.9795 87.1834 54.5825 89.8929 57.4708 89.6547C60.3592 89.4164 64.5875 81.5559 64.5577 81.1689C64.528 80.7818 63.0093 80.6329 60.7463 78.2807C58.4833 75.9285 56.7562 71.9387 56.4882 71.7005C56.2202 71.4623 56.8157 75.9881 59.585 79.1144C62.3542 82.2407 67.7736 82.211 69.6495 81.675C71.5255 81.1391 70.9597 78.8464 71.0491 76.9111C71.1384 74.9757 73.4907 73.0999 74.2352 71.6707C74.9796 70.2415 73.848 68.6337 73.4907 67.5916C73.1334 66.5495 74.0863 65.954 74.4734 64.763C74.8605 63.572 74.6223 59.4482 73.1483 56.6345C71.6744 53.8208 66.4336 53.2699 64.3492 53.0019C62.2649 52.734 68.6371 51.0368 68.6371 51.0368C68.6371 51.0368 66.3145 50.2924 63.3964 50.7093C60.4783 51.1262 57.4113 54.1036 55.2971 55.4435C53.183 56.7834 58.2153 50.7689 59.2574 49.0419C60.2996 47.315 54.9398 51.0368 53.1532 53.4188C51.3666 55.8008 50.9795 61.3687 51.3964 64.2568C51.8133 67.145 56.3393 69.3781 56.7264 69.646C57.1135 69.914 55.8033 71.105 54.4336 70.8966C53.2982 70.7238 52.4492 68.7302 52.1411 67.0864C51.909 65.8484 52.4185 64.5591 53.4838 63.887C55.8497 62.3943 56.8383 66.1088 57.5006 67.2938C58.0664 68.3062 57.8282 65.2096 58.0068 64.0186C58.1855 62.8276 58.8406 63.3636 60.5081 62.8574C62.1756 62.3512 59.7041 58.019 61.044 55.5626C62.384 53.1062 70.0664 55.9646 71.853 56.0539C73.6396 56.1432 74.3989 49.7565 66.9398 47.5681C59.4807 45.3797 52.6916 48.908 50.5477 54.4014C48.4038 59.8948 50.6221 64.0186 50.9497 65.5669C51.2772 67.1152 51.6941 70.8073 50.4733 73.5763C49.2524 76.3454 47.3765 76.5538 46.6619 76.9409C45.9472 77.3279 46.245 77.6555 47.1085 81.4071C47.972 85.1587 51.6643 90.8457 55.9076 90.9796C60.1508 91.1136 61.0441 88.6572 61.4014 87.8533C61.7587 87.0494 62.652 87.3174 64.2599 88.2106C65.8679 89.1039 66.6719 92.4089 66.0465 99.6441C65.4212 106.879 62.6073 116.928 61.9373 117.643C61.2673 118.358 42.3516 123.985 39.8727 123.66C37.3938 123.334 30.962 106.835 30.962 105.428C30.962 104.021 30.694 99.5994 34.9149 97.8576C39.1358 96.1158 45.2995 98.4605 45.9695 99.1305C46.6395 99.8004 41.6816 98.3936 37.4608 99.1975C33.24 100.001 30.761 104.222 29.8231 104.557C28.8851 104.892 27.7238 91.8282 30.3144 86.4688C32.905 81.1093 39.8281 80.3501 43.848 83.2084C47.8678 86.0668 48.6272 102.324 48.8058 105.539C48.9845 108.755 43.2226 110.318 43.2226 110.318C43.2226 110.318 43.714 108.755 45.0986 107.773C46.4832 106.79 54.9696 106.254 61.4014 105.673C67.8332 105.093 76.4089 101.699 80.4734 100.939C84.538 100.18 93.605 99.8079 94.8259 99.8079C96.0467 99.8079 97.5802 100.403 98.1906 100.746C98.8011 101.088 102.806 102.115 103.089 102.264C103.372 102.413 103.193 102.934 102.687 103.187C102.181 103.44 97.0591 101.103 96.2552 101.103C95.4512 101.103 102.419 103.589 102.419 103.589C102.419 103.589 102.27 104.229 101.972 104.468C101.675 104.706 97.2229 102.83 95.8681 102.622C94.5133 102.413 101.764 104.84 101.809 104.929C101.853 105.018 101.675 106.061 101.198 106.358C100.722 106.656 95.0641 104.274 93.9773 104.304C92.8904 104.334 100.617 106.448 100.811 106.641C101.005 106.835 100.588 107.922 100.141 108.145C99.6944 108.368 98.816 108.07 95.0939 107.445C91.3718 106.82 89.9872 106.626 84.6571 107.549C79.3271 108.472 77.5703 110.006 69.7538 115.053C61.9374 120.099 53.3021 122.258 52.7066 122.675C52.1111 123.092 92.9053 122.139 93.8582 121.782C94.811 121.424 80.5182 121.692 79.5653 122.139C78.6124 122.586 93.7093 123.717 94.5728 123.657C95.4364 123.598 107.005 99.2645 107.541 98.1926C108.077 97.1207 144.657 98.1703 145.015 98.3936C145.372 98.6169 134.206 119.563 132.464 120.948C130.722 122.332 95.213 123.315 94.476 123.248C93.739 123.181 106.067 97.3217 106.536 96.5848C107.005 95.8478 146.489 96.7411 147.337 97.0984C148.038 97.3932 138.52 114.051 135.27 119.574C134.951 120.116 135.37 120.792 135.998 120.752L143.625 121.096C144.125 121.118 144.558 120.751 144.617 120.254C144.863 118.178 145.08 116.059 146.918 114.177C149.017 112.028 151.04 111.093 151.141 111.472C151.242 111.851 149.447 116.807 153.543 120.903C157.64 124.999 169.912 124.831 173.992 122.471C178.071 120.111 179.235 118.754 179.133 114.658C179.032 110.562 176.436 107.89 176.352 108.21C176.268 108.53 176.984 112.205 174.936 114.86C172.888 117.515 165.251 119.386 160.27 117.844C155.288 116.301 153.72 114.632 153.821 110.991C153.923 107.35 153.897 91.6569 154.336 92.2638C154.774 92.8706 156.763 96.6802 164.619 96.6465C172.475 96.6128 175.391 93.823 175.568 92.7104C175.745 91.5979 174.278 89.6004 173.874 89.7521C173.469 89.9038 166.819 92.6851 161.281 91.4715C155.743 90.2578 154.403 87.2742 154.622 85.6728C154.841 84.0714 155.853 82.5711 156.359 82.824C156.864 83.0768 167.653 89.5667 167.889 89.1621C168.125 88.7575 168.361 84.3748 168.361 84.3748C168.361 84.3748 154.976 78.4412 154.234 76.7893C153.493 75.1373 155.145 69.1364 157.707 68.2261C160.269 67.3158 165.959 68.1081 168.993 70.0298C172.028 71.9514 175.981 74.9688 175.239 75.9127C174.498 76.8567 172.441 78.8458 171.396 81.5091C170.351 84.1725 171.168 87.0213 172.483 88.2855C173.798 89.5498 176.655 92.6093 179.563 92.1036C182.471 91.5979 184.646 89.6846 186.045 86.7684C187.444 83.8522 186.871 83.1948 187.31 82.6386C187.748 82.0823 204.336 59.5618 204.943 59.2584C205.55 58.955 209.528 57.5054 211.248 52.9541C212.967 48.4028 211.399 45.731 209.933 44.846C208.466 43.9611 205.516 42.3344 203.594 42.5704C201.672 42.8063 199.11 44.1549 197.323 48.8747C195.536 53.5946 195.907 54.2689 195.233 54.2689C194.558 54.2689 178.83 45.6046 179.26 44.2392C179.69 42.8738 186.947 39.435 187.149 38.6512C187.352 37.8674 186.087 33.0885 183.862 33.2655C181.637 33.4425 165.226 43.0086 165.597 43.312C165.968 43.6155 169.474 47.2565 169.204 48.8073C168.935 50.3581 162.529 53.6957 162.427 53.4597C162.326 53.2237 162.158 48.7399 161.787 48.3691C161.416 47.9982 153.796 43.9526 153.695 43.9863C153.594 44.0201 142.603 50.1559 142.232 50.729C141.861 51.3021 141.203 56.73 142.164 57.8931C143.125 59.0562 150.408 61.3824 150.206 61.9387C150.003 62.4949 149.295 64.4672 148.638 64.2649C147.98 64.0626 140.748 59.1573 140.243 59.5113C139.737 59.8653 133.212 75.2815 131.552 78.6988C129.892 82.1161 129.352 85.3525 129.454 86.2628C129.555 87.173 131.207 90.1061 130.667 90.6792C130.128 91.2523 129.555 90.9826 129.42 90.8815C129.285 90.7803 126.723 87.7124 127.127 85.7571C127.532 83.8017 130.447 73.9912 131.552 73.3169C132.657 72.6426 133.027 72.9798 132.825 73.418C132.623 73.8563 130.768 77.5648 130.971 77.8008C131.173 78.0368 139.535 83.1949 140.984 82.8914C142.434 82.588 143.614 80.9024 143.412 79.9247C143.21 78.947 141.692 77.5985 142.67 76.4522C143.648 75.3059 145.232 75.8791 145.401 76.7219C145.57 77.5648 146.278 82.0149 145.131 83.1949C143.985 84.3749 138.093 91.9519 135.868 92.3565C133.643 92.761 131.417 92.5335 131.316 92.1036C131.215 91.6737 131.316 90.5359 132.353 90.3589C133.39 90.1819 135.236 90.0808 136.07 89.651C136.905 89.2212 143.53 82.3183 144.288 81.1805C145.047 80.0427 158.28 60.3373 158.786 56.9997C159.292 53.6621 155.549 52.6507 154.1 54.7072C152.65 56.7637 149.953 66.0011 148.739 66.2371C147.525 66.4731 139.4 62.1392 140.074 63.3116C140.748 64.484 148.199 68.597 149.75 67.9227C151.301 67.2485 154.774 61.9892 156.561 60.371C158.348 58.7527 161.787 57.2019 161.854 56.9322C161.922 56.6625 161.821 50.6615 161.349 50.1558C160.876 49.6501 156.763 47.0879 156.763 47.0879C156.763 47.0879 162.899 41.7612 164.518 43.3457C166.136 44.9302 168.564 49.7512 169.946 48.9758C171.328 48.2004 185.927 39.2664 185.86 38.3899C185.792 37.5133 185.32 34.0746 183.837 34.3106C182.353 34.5466 180.668 36.7379 179.757 36.7042C178.847 36.6705 176.588 35.8951 176.588 35.3556C176.588 34.8162 176.217 27.669 177.195 26.4216C178.173 25.1742 188.995 18.8024 189.906 19.0047C190.816 19.207 206.19 27.0959 206.393 28.9164C206.595 30.7369 206.999 37.0582 206.544 37.3616C206.089 37.665 194.171 44.8122 192.468 44.61C190.765 44.4077 184.646 40.3705 185.607 40.6739C186.568 40.9773 192.181 43.1518 192.889 43.0001C193.597 42.8484 204.445 37.0076 204.622 37.3868C204.799 37.7661 205.229 40.9773 205.154 41.1037C205.078 41.2302 199.447 41.9971 197.154 45.8405C194.862 49.6838 195.705 54.6059 195.266 55.3476C194.828 56.0893 180.735 74.935 180.904 75.1373C181.072 75.3396 186.669 80.0257 187.006 79.8235C187.343 79.6212 204.521 56.477 205.078 56.2747C205.634 56.0725 210.034 53.5945 209.579 50.2569C209.124 46.9193 205.786 47.071 204.724 49.4984C203.662 51.9257 204.167 53.7462 203.156 55.0105C202.144 56.2748 186.231 77.9355 185.59 77.5984C184.949 77.2612 180.6 74.8339 179.521 75.0025C178.442 75.1711 174.396 77.3287 173.284 81.3406C172.171 85.3525 175.113 92.2049 179.521 91.0163C183.896 89.8365 186.063 85.9505 185.436 82.8269C184.71 79.2096 179.669 78.7592 178.209 82.1479C177.09 84.746 176.893 88.0041 176.419 87.9484C175.846 87.881 157.235 75.9802 156.831 76.8567C156.426 77.7333 156.19 81.408 156.392 81.644C156.595 81.88 172.61 89.2969 172.078 89.5498C171.547 89.8026 166.414 92.407 162.267 90.46C158.12 88.5131 156.502 84.2399 155.946 84.7962C155.389 85.3524 154.884 90.8898 155.01 91.4714C155.136 92.053 158.247 95.3147 163.557 95.6687C168.867 96.0227 176.124 91.4461 176.175 92.8621C176.226 94.278 175.813 110.57 175.34 111.885C174.868 113.2 172.441 116.268 166.574 116.672C160.708 117.077 157.286 116.883 155.946 114.101C154.605 111.32 154.833 107.907 154.277 108.084C153.72 108.261 151.758 108.749 151.394 112.534C151.03 116.319 155.794 121.004 163.456 121.434C171.118 121.864 177.743 116.984 178.198 115.34C178.653 113.697 177.945 110.663 179.437 111.244C180.929 111.826 184.41 114.616 185.32 117.919C186.231 121.223 186.028 123.617 182.96 126.955C179.892 130.292 171.025 134.068 161.113 132.72C151.2 131.371 147.575 128.033 146.117 125.876C144.659 123.718 144.457 121.56 144.862 122.032C145.266 122.504 146.581 128.573 157.438 130.596C168.294 132.618 177.262 129.517 180.6 127.359C183.938 125.202 185.152 120.785 185.388 120.684C185.624 120.583 207.455 120.684 207.455 120.684" stroke="black" stroke-opacity="0.5" stroke-width="0.8" stroke-miterlimit="10"/>
</svg>
