<svg width="216" height="152" viewBox="0 0 216 152" fill="none" xmlns="http://www.w3.org/2000/svg">
<path d="M215.01 2.23438H2.16016V150.211H215.01V2.23438Z" fill="white"/>
<path d="M105.164 22.7633C104.061 22.0764 103.031 21.7385 102.038 21.3206C101.492 21.0907 100.95 20.8455 100.425 20.5731C100.049 20.3787 99.8717 20.0667 100.096 19.6442C100.287 19.2838 100.599 19.1678 100.966 19.322C102.72 20.0601 104.468 20.8141 106.219 21.5593C106.693 21.7609 106.561 22.1783 106.561 22.5295C106.563 28.8459 106.55 35.1623 106.553 41.4788C106.56 55.6049 106.582 69.7311 106.583 83.8571C106.584 89.8311 106.551 95.8051 106.523 101.779C106.52 102.214 106.665 102.779 105.948 102.85C105.527 102.892 105.165 102.797 105.182 102.283C105.205 101.578 104.793 101.496 104.22 101.505C102.905 101.524 101.589 101.53 100.274 101.486C99.6732 101.465 99.5207 101.7 99.5352 102.248C99.5665 103.429 99.5466 104.612 99.5547 105.795C99.5584 106.346 99.564 106.943 98.8132 106.945C98.0906 106.946 98.0365 106.39 98.0375 105.814C98.049 99.0931 98.056 92.372 98.0547 85.6508C98.0502 63.6826 98.0416 41.7144 98.0352 19.7462C98.0351 19.3417 98.0452 18.9372 98.0449 18.5327C98.0445 18.0003 98.3067 17.7094 98.8438 17.719C99.3761 17.7284 99.5188 18.1054 99.5245 18.5463C99.5385 19.6351 99.5805 20.7264 99.5221 21.8121C99.4832 22.5371 99.6982 22.8014 100.449 22.7774C101.935 22.7299 103.424 22.7633 105.164 22.7633ZM102.415 88.678C102.415 88.6744 102.415 88.6708 102.415 88.6672C101.729 88.6672 101.042 88.6904 100.357 88.6599C99.806 88.6354 99.5691 88.8154 99.5833 89.3976C99.6143 90.6674 99.61 91.939 99.5806 93.209C99.5682 93.7414 99.7767 93.9144 100.291 93.911C101.632 93.902 102.974 93.9028 104.314 93.952C104.95 93.9754 105.117 93.725 105.103 93.1367C105.071 91.8671 105.074 90.5953 105.111 89.3259C105.126 88.8283 104.95 88.66 104.474 88.6731C103.788 88.692 103.102 88.678 102.415 88.678ZM102.289 48.8716C102.289 48.8817 102.289 48.8919 102.289 48.9019C102.977 48.9019 103.666 48.8819 104.354 48.9084C104.872 48.9285 105.077 48.7412 105.065 48.2101C105.035 46.8735 105.028 45.5357 105.053 44.1992C105.062 43.6925 104.856 43.5605 104.39 43.5683C103.013 43.5914 101.636 43.5969 100.259 43.5849C99.7971 43.5809 99.5736 43.7099 99.5811 44.2153C99.6009 45.5521 99.5961 46.8898 99.5693 48.2265C99.5595 48.7133 99.7392 48.8951 100.223 48.8777C100.911 48.8532 101.6 48.8716 102.289 48.8716ZM102.065 61.5944C102.959 61.5944 103.617 61.5707 104.272 61.6017C104.827 61.628 105.057 61.4343 105.045 60.859C105.019 59.617 105.025 58.3734 105.058 57.1315C105.071 56.6331 104.884 56.4795 104.407 56.495C103.594 56.5214 102.781 56.5026 101.968 56.5032C99.5821 56.5055 99.5626 56.5058 99.5911 58.8868C99.6014 59.7444 99.1921 60.843 99.7651 61.3978C100.331 61.9457 101.437 61.5301 102.065 61.5944ZM102.354 63.0341C102.354 63.0351 102.354 63.0361 102.354 63.0371C101.666 63.0371 100.978 63.0564 100.291 63.0306C99.7867 63.0117 99.5576 63.1641 99.57 63.7126C99.5981 64.954 99.5828 66.1968 99.5612 67.4385C99.5533 67.888 99.6689 68.1361 100.18 68.1328C101.587 68.1239 102.993 68.132 104.4 68.159C104.894 68.1684 105.057 67.9624 105.051 67.4945C105.034 66.2215 105.028 64.9479 105.053 63.6753C105.062 63.1997 104.913 63.0038 104.417 63.0263C103.73 63.0573 103.042 63.0341 102.354 63.0341ZM102.569 95.3271C101.693 95.3271 100.974 95.3382 100.255 95.323C99.8113 95.3136 99.5499 95.426 99.5606 95.9421C99.5871 97.2146 99.5942 98.4882 99.5771 99.7608C99.5703 100.278 99.8313 100.386 100.273 100.382C101.055 100.375 101.836 100.402 102.617 100.405C105.042 100.415 105.053 100.413 105.035 97.9705C105.029 97.1363 105.419 96.0609 104.93 95.5309C104.388 94.9436 103.271 95.4286 102.569 95.3271ZM102.163 74.6048C103.008 74.6048 103.665 74.578 104.32 74.6128C104.904 74.6439 105.082 74.3904 105.071 73.8446C105.045 72.6346 105.04 71.4234 105.066 70.2136C105.077 69.7178 104.892 69.5639 104.414 69.5786C103.571 69.6046 102.727 69.5827 101.883 69.5839C99.5819 69.5874 99.5657 69.5882 99.5828 71.8467C99.5893 72.7067 99.1929 73.7981 99.7381 74.3683C100.33 74.9869 101.463 74.5013 102.163 74.6048ZM102.349 75.9761C102.349 75.9774 102.349 75.9789 102.349 75.9802C101.66 75.9802 100.971 75.9884 100.283 75.9775C99.7791 75.9695 99.5574 76.1579 99.5728 76.6966C99.6067 77.8779 99.6024 79.061 99.5765 80.2426C99.5648 80.7735 99.7801 80.9589 100.294 80.9531C101.64 80.938 102.987 80.9359 104.333 80.96C104.861 80.9695 105.058 80.7651 105.053 80.2495C105.04 79.0365 105.041 77.8226 105.074 76.6101C105.088 76.1116 104.892 75.9527 104.416 75.9697C103.728 75.9945 103.038 75.9761 102.349 75.9761ZM102.354 55.0235C102.354 55.0292 102.354 55.035 102.354 55.0408C103.042 55.0408 103.731 55.0205 104.417 55.0476C104.915 55.0672 105.068 54.8538 105.061 54.3865C105.043 53.2064 105.032 52.0251 105.069 50.8458C105.086 50.3161 104.92 50.1356 104.382 50.1488C103.038 50.182 101.693 50.1932 100.349 50.1573C99.6976 50.1399 99.5568 50.4261 99.5715 50.9954C99.5985 52.0507 99.6199 53.1101 99.557 54.1627C99.5133 54.8961 99.8058 55.0845 100.479 55.0335C101.1 54.9863 101.729 55.0235 102.354 55.0235ZM102.606 82.4053C101.669 82.4053 100.92 82.415 100.172 82.4017C99.732 82.3939 99.5739 82.5791 99.5808 83.016C99.5993 84.193 99.5995 85.3709 99.572 86.5477C99.56 87.0631 99.7475 87.2815 100.272 87.2722C101.114 87.2572 101.956 87.2823 102.798 87.2832C105.052 87.2857 105.056 87.2842 105.048 85.0165C105.045 84.1863 105.339 83.0882 104.921 82.5954C104.422 82.0083 103.277 82.4926 102.606 82.4053ZM102.344 29.8551C101.659 29.8551 100.972 29.8726 100.287 29.8493C99.767 29.8317 99.5624 30.0391 99.5731 30.5587C99.5947 31.6117 99.6155 32.6675 99.5605 33.7182C99.5224 34.4457 99.8288 34.6245 100.493 34.5908C101.271 34.5514 102.052 34.6014 102.832 34.604C105.063 34.6115 105.081 34.6096 105.045 32.4146C105.031 31.5899 105.437 30.5165 104.877 30.0036C104.293 29.4684 103.207 29.8885 102.344 29.8551ZM102.349 23.9657C102.349 23.9693 102.349 23.9729 102.349 23.9766C101.632 23.9766 100.914 23.9888 100.197 23.9719C99.7797 23.962 99.5581 24.0837 99.5654 24.546C99.5843 25.7544 99.5803 26.9634 99.5741 28.172C99.572 28.5681 99.7583 28.7231 100.143 28.7228C101.546 28.7217 102.949 28.7241 104.352 28.7395C104.851 28.745 105.089 28.5654 105.077 28.0337C105.052 26.8874 105.053 25.7401 105.072 24.5936C105.08 24.1073 104.888 23.9381 104.408 23.9584C103.723 23.9874 103.036 23.9657 102.349 23.9657ZM102.231 40.487C103.029 40.487 103.717 40.4759 104.405 40.4911C104.827 40.5004 105.036 40.3582 105.033 39.9052C105.026 38.7247 105.031 37.5435 105.066 36.3637C105.081 35.838 104.823 35.7479 104.375 35.7592C103.437 35.7827 102.499 35.773 101.561 35.7733C99.5734 35.7739 99.5553 35.7732 99.588 37.7212C99.6026 38.5844 99.2061 39.6841 99.7349 40.2503C100.312 40.8687 101.454 40.3723 102.231 40.487ZM104.946 42.0893C104.945 42.052 104.944 42.0146 104.943 41.9773C103.223 41.9773 101.502 41.9773 99.7819 41.9773C99.7826 42.0146 99.7832 42.052 99.7839 42.0893C101.504 42.0893 103.225 42.0893 104.946 42.0893Z" fill="black"/>
<path d="M105.838 145.031C78.9315 145.031 52.0247 145.031 25.1177 145.031C24.8045 145.031 24.4908 145.02 24.1781 145.034C23.5684 145.06 23.0686 144.857 23.0664 144.2C23.0644 143.558 23.5917 143.44 24.1409 143.442C26.7094 143.451 29.2778 143.461 31.8463 143.46C56.0596 143.46 80.2729 143.455 104.486 143.457C126.287 143.459 148.088 143.472 169.889 143.472C175.809 143.472 181.729 143.444 187.649 143.426C188.25 143.424 188.887 143.475 188.851 144.238C188.822 144.857 188.296 145.071 187.687 145.031C187.375 145.011 187.061 145.031 186.747 145.031C174.656 145.037 162.565 145.045 150.474 145.048C135.596 145.051 120.717 145.048 105.838 145.048C105.838 145.043 105.838 145.037 105.838 145.031Z" fill="black"/>
<path d="M79.3002 94.7564C79.3002 98.5225 79.3008 102.289 79.2992 106.055C79.2991 106.366 79.2927 106.678 79.2745 106.988C79.2519 107.372 79.0937 107.646 78.6588 107.667C78.2136 107.688 78.0423 107.404 77.9984 107.034C77.9545 106.664 77.9476 106.289 77.9473 105.916C77.9422 98.3215 77.9414 90.7268 77.936 83.1322C77.9356 82.6297 78.0994 82.0279 77.2255 82.0431C76.9575 82.0478 76.845 81.7425 76.8344 81.4782C76.8195 81.1055 77.0564 80.8423 77.3822 80.8334C77.9564 80.8179 77.9355 80.472 77.9349 80.0835C77.9286 76.1306 77.9143 72.1776 77.933 68.2247C77.9358 67.6372 77.7256 67.4851 77.1721 67.4954C75.7001 67.5227 74.2267 67.5223 72.7549 67.4892C72.2027 67.4767 72.0405 67.6859 72.076 68.1976C72.1059 68.6306 72.09 69.0697 72.0558 69.5031C72.0221 69.9297 71.776 70.2165 71.3261 70.1865C70.8892 70.1573 70.5496 69.9739 70.5538 69.4406C70.5599 68.6627 70.5512 67.8842 70.5272 67.1066C70.5078 66.4772 70.5116 65.892 71.3755 65.8561C71.8174 65.8378 71.7176 65.4811 71.7196 65.2265C71.7399 62.7054 71.7447 60.1843 71.7675 57.6633C71.7712 57.2523 71.6726 57.0201 71.1982 57.0369C70.6782 57.0553 70.2274 56.8828 70.2426 56.271C70.2567 55.7025 70.7059 55.574 71.1779 55.5895C71.643 55.6049 71.7686 55.3861 71.7546 54.969C71.7336 54.3471 71.774 53.7225 71.7366 53.1021C71.6893 52.3172 71.972 51.9871 72.814 51.9957C76.0093 52.0286 79.2053 51.9936 82.4009 52.0106C82.9434 52.0136 83.7235 51.786 83.7464 52.7209C83.7712 53.7356 82.9582 53.5899 82.3257 53.5915C79.7254 53.5979 77.1252 53.5796 74.5248 53.5738C73.5137 53.5716 72.978 54.4237 73.3935 55.3344C73.5179 55.6073 73.7367 55.5721 73.9427 55.5726C77.5143 55.5808 81.086 55.5765 84.6575 55.5936C85.1729 55.5961 85.2641 55.3612 85.2884 54.9125C85.3215 54.3023 85.1256 53.3953 86.0611 53.3853C87.0843 53.3743 86.8665 54.3123 86.8769 54.9541C86.9074 56.8524 86.8595 58.7525 86.9183 60.6495C86.9461 61.5464 86.624 61.8749 85.7304 61.865C82.5978 61.8306 79.4647 61.8418 76.3317 61.8347C76.1124 61.8343 75.8928 61.834 75.674 61.8218C75.2177 61.7964 74.7129 61.7325 74.7094 61.1657C74.7057 60.5759 75.1845 60.4293 75.7019 60.4287C78.4903 60.4258 81.2794 60.3879 84.0667 60.441C84.9889 60.4585 85.3063 60.2364 85.2879 59.2626C85.2461 57.0503 85.304 57.0523 83.1154 57.0555C80.139 57.0598 77.1625 57.074 74.1864 57.0484C73.5449 57.0428 73.316 57.2209 73.3267 57.8867C73.3648 60.2516 73.3798 62.6181 73.3273 64.9824C73.3091 65.8048 73.6305 65.9663 74.3651 65.9588C78.3121 65.9182 82.2595 65.9226 86.2066 65.8957C87.4593 65.8872 87.6525 66.0382 87.6563 67.2403C87.6645 69.7873 87.6667 72.3345 87.6686 74.8815C87.6688 75.1301 87.6771 75.3837 87.6323 75.6259C87.5652 75.9884 87.3719 76.2851 86.9525 76.2575C86.5883 76.2336 86.41 75.9699 86.3839 75.6233C86.3488 75.1579 86.3082 74.6906 86.3169 74.225C86.3262 73.7368 86.1225 73.5693 85.6398 73.5945C84.8896 73.6336 84.1362 73.6461 83.3854 73.6254C82.8636 73.611 82.7602 73.86 82.772 74.311C82.8003 75.3999 82.8008 76.4895 82.8 77.5789C82.7996 78.0996 82.9011 78.7454 82.1001 78.7402C81.3663 78.7355 81.3265 78.1641 81.3273 77.5989C81.3318 74.5486 81.2996 71.4978 81.3484 68.4483C81.3612 67.6426 81.0992 67.4685 80.3398 67.4787C79.5732 67.4891 79.2451 67.6109 79.2609 68.4963C79.3287 72.2925 79.3306 76.0902 79.3069 79.8871C79.3022 80.6389 79.5364 80.8224 80.2658 80.799C82.0498 80.7418 83.8369 80.761 85.6225 80.7802C86.1748 80.7862 86.4324 80.6244 86.3927 80.0362C86.3572 79.51 86.4061 78.9786 86.4054 78.4496C86.4048 78.0124 86.584 77.6832 87.0421 77.7004C87.4841 77.717 87.6904 78.0532 87.6717 78.4812C87.6116 79.8614 87.7178 81.2392 87.7031 82.6209C87.6467 87.9116 87.6908 93.2034 87.6968 98.4948C87.6971 98.7125 87.7042 98.9315 87.6849 99.1479C87.648 99.5599 87.378 99.7645 86.993 99.7527C86.6307 99.7416 86.436 99.4857 86.4154 99.1335C86.3918 98.73 86.3896 98.3248 86.3895 97.9204C86.3883 92.9714 86.365 88.0221 86.4122 83.0736C86.4203 82.2156 86.1501 82.0328 85.3568 82.0573C83.6667 82.1098 81.9727 82.0999 80.2821 82.0539C79.5559 82.0341 79.3279 82.2392 79.3356 82.9915C79.3757 86.9129 79.3543 90.8348 79.3543 94.7567C79.3363 94.7563 79.3182 94.7564 79.3002 94.7564ZM86.3351 69.8151C86.2521 69.1583 86.7148 68.1196 86.1667 67.6269C85.6381 67.1519 84.6119 67.5421 83.8052 67.5123C83.7429 67.5099 83.6792 67.522 83.6179 67.5142C82.9908 67.4349 82.7221 67.6409 82.7745 68.3302C82.8449 69.257 82.8698 70.1987 82.7855 71.1225C82.7025 72.0312 83.0146 72.2703 83.9116 72.2764C86.3238 72.293 86.3235 72.3371 86.3351 69.8151Z" fill="black"/>
<path d="M105.415 140.127C129.726 140.127 154.037 140.127 178.348 140.128C178.63 140.128 178.912 140.152 179.193 140.137C179.655 140.113 179.932 140.34 179.949 140.769C179.967 141.207 179.646 141.431 179.239 141.5C179.025 141.536 178.802 141.52 178.583 141.52C133.25 141.52 87.9183 141.519 42.586 141.52C39.2339 141.52 35.8817 141.53 32.5296 141.535C32.2163 141.536 31.9029 141.537 31.5898 141.531C31.0945 141.52 30.6867 141.33 30.7036 140.789C30.7206 140.249 31.1472 140.092 31.6364 140.094C31.8243 140.094 32.0123 140.095 32.2002 140.095C56.6051 140.095 81.0099 140.095 105.415 140.095C105.415 140.106 105.415 140.117 105.415 140.127Z" fill="black"/>
<path d="M66.2363 94.2795C66.2375 86.6542 66.2249 79.0289 66.2567 71.4038C66.2599 70.6255 66.0269 70.3606 65.2713 70.3808C63.925 70.4167 62.5772 70.4115 61.2303 70.3991C60.6713 70.3939 60.4778 70.6071 60.4827 71.1745C60.5116 74.4733 60.5033 77.7724 60.5171 81.0713C60.5184 81.4118 60.5477 81.7596 60.6231 82.0908C60.8813 83.2256 60.6455 83.5336 59.4549 83.5379C57.5439 83.5446 55.6328 83.5406 53.7218 83.55C52.4418 83.5564 52.433 83.5634 52.4311 84.8952C52.4192 93.1115 52.4065 101.328 52.4043 109.544C52.403 114.773 52.4197 120.002 52.4271 125.23C52.4275 125.51 52.4221 125.791 52.4074 126.07C52.3855 126.485 52.1307 126.706 51.7393 126.698C51.3587 126.69 51.0894 126.48 51.0603 126.066C51.0427 125.819 51.0426 125.569 51.0416 125.32C50.9883 111.253 50.9356 97.1851 50.8829 83.1177C50.8787 82.0048 50.9699 81.9249 52.1325 81.9263C54.1061 81.929 56.0803 81.8982 58.0532 81.9328C58.7499 81.9449 58.9556 81.728 58.9479 81.0275C58.9069 77.3553 58.9193 73.6826 58.9129 70.01C58.9108 68.8432 58.9378 68.821 60.1274 68.8247C61.7878 68.8298 63.4499 68.7831 65.1079 68.8466C65.9803 68.8801 66.4197 68.68 66.2436 67.7328C66.199 67.4927 66.2427 67.2366 66.2455 66.9878C66.2512 66.4682 66.6069 66.2938 67.0385 66.2477C67.4847 66.2 67.7359 66.4678 67.8431 66.8725C67.8822 67.0203 67.9001 67.1816 67.8881 67.3337C67.8142 68.2735 67.8567 69.0842 69.1889 68.8854C69.5918 68.8253 69.7001 69.1586 69.696 69.5078C69.6911 69.9292 69.6607 70.4373 69.1112 70.3809C67.7818 70.2443 67.9011 71.0642 67.9011 71.9405C67.9022 86.7241 67.8871 101.508 67.8716 116.291C67.871 116.819 67.8381 117.348 67.8057 117.875C67.7747 118.379 67.4612 118.58 66.9859 118.566C66.4997 118.551 66.2335 118.308 66.2342 117.808C66.2354 116.844 66.2353 115.879 66.2353 114.914C66.2352 108.036 66.2352 101.158 66.2363 94.2795Z" fill="black"/>
<path d="M82.0433 148.964C70.0505 148.965 58.0576 148.965 46.0649 148.964C45.5641 148.963 45.061 148.974 44.5631 148.931C44.1456 148.895 43.8341 148.626 43.832 148.212C43.8298 147.767 44.0944 147.451 44.5948 147.441C45.3461 147.425 46.0975 147.408 46.8489 147.408C70.0203 147.407 93.1916 147.409 116.363 147.409C117.302 147.409 118.242 147.405 119.181 147.384C119.782 147.37 120.319 147.527 120.303 148.199C120.286 148.859 119.749 148.988 119.149 148.986C114.796 148.968 110.444 148.966 106.091 148.965C98.0754 148.963 90.0594 148.964 82.0433 148.964Z" fill="black"/>
<path d="M84.3114 125.798C84.3114 124.118 84.3249 122.439 84.3039 120.759C84.2968 120.195 84.4148 119.713 85.0515 119.694C85.6903 119.674 85.9024 120.12 85.8 120.703C85.6353 121.642 86.0687 121.931 86.944 121.801C87.189 121.765 87.4441 121.795 87.6945 121.795C88.999 121.791 89.0184 121.793 89.1256 120.465C89.1643 119.986 89.3167 119.687 89.8289 119.686C90.3463 119.686 90.4167 120.052 90.4265 120.455C90.4333 120.735 90.4566 121.015 90.4482 121.294C90.4373 121.655 90.6019 121.791 90.9574 121.78C91.3322 121.768 91.7083 121.794 92.0839 121.801C93.4593 121.827 93.4759 121.828 93.5875 120.465C93.6262 119.992 93.7824 119.664 94.2833 119.656C94.8339 119.648 95.0335 119.989 95.032 120.508C95.0224 123.96 95.0208 127.413 95.0177 130.865C95.017 131.575 94.7301 131.946 93.9478 131.94C91.0679 131.919 88.1876 131.923 85.3076 131.943C84.5749 131.948 84.2957 131.624 84.3009 130.929C84.3137 129.219 84.3051 127.508 84.3051 125.797C84.3072 125.798 84.3094 125.798 84.3114 125.798ZM89.073 124.847C89.0774 123.017 89.0774 123.017 87.6502 123.053C85.7938 123.1 85.7854 123.1 85.7939 124.951C85.8025 126.816 85.6043 126.501 87.3872 126.517C89.2644 126.533 89.0267 126.831 89.073 124.847ZM93.5531 124.741C93.5531 124.586 93.5539 124.431 93.553 124.277C93.545 123.033 93.5449 123.033 92.3184 123.046C90.439 123.065 90.439 123.065 90.4602 124.994C90.4771 126.526 90.4771 126.538 91.7956 126.535C93.807 126.531 93.5103 126.813 93.5531 124.741ZM87.5883 127.96C85.4083 128.059 85.8447 127.656 85.7868 129.867C85.7735 130.376 86.0164 130.495 86.4701 130.48C87.1546 130.457 87.8404 130.48 88.5256 130.474C88.7354 130.473 89.0153 130.504 89.025 130.2C89.0465 129.522 89.2044 128.775 88.9746 128.184C88.7738 127.667 88.0196 128.057 87.5883 127.96ZM91.8847 130.492C92.2267 130.492 92.511 130.468 92.7896 130.497C93.3645 130.558 93.5454 130.322 93.5411 129.754C93.5239 127.534 93.7321 128.022 91.7865 127.965C91.4745 127.956 91.161 127.981 90.8486 127.998C90.6591 128.009 90.4303 128.032 90.4323 128.272C90.4378 128.954 90.3165 129.699 90.5559 130.296C90.7335 130.739 91.4698 130.387 91.8847 130.492Z" fill="black"/>
<path d="M107.077 117.519C107.032 117.881 106.881 118.148 106.616 118.34C106.24 118.611 105.965 118.313 105.685 118.144C102.552 116.258 99.54 114.187 96.5032 112.154C94.4788 110.798 92.4156 109.5 90.3865 108.151C89.8986 107.827 89.5414 107.831 89.0487 108.183C84.1653 111.67 79.0348 114.789 74.0222 118.083C73.5481 118.395 73.0182 118.578 72.6313 117.978C72.2389 117.369 72.6623 116.979 73.1271 116.674C76.3918 114.531 79.6704 112.408 82.9299 110.258C84.9638 108.916 86.9821 107.549 88.9853 106.163C89.5178 105.794 89.917 105.746 90.492 106.13C95.7166 109.615 100.965 113.064 106.2 116.534C106.577 116.784 107.029 117.007 107.077 117.519Z" fill="black"/>
<path d="M91.3028 67.7431C91.3028 76.7383 91.3029 85.7335 91.3022 94.7287C91.3022 95.071 91.2931 95.4133 91.29 95.7556C91.2866 96.1179 91.1278 96.3789 90.7466 96.3754C90.4064 96.3722 90.1447 96.1848 90.1101 95.8149C90.0724 95.4128 90.047 95.0078 90.0469 94.6041C90.0432 76.4894 90.0428 58.3748 90.0434 40.2601C90.0434 40.0117 90.0364 39.7588 90.0789 39.516C90.1377 39.1802 90.3363 38.9301 90.7082 38.946C91.0668 38.9614 91.2735 39.1897 91.3114 39.5444C91.3311 39.7292 91.3215 39.9173 91.3215 40.1039C91.3219 49.317 91.3218 58.53 91.3218 67.743C91.3155 67.7431 91.3091 67.7431 91.3028 67.7431Z" fill="black"/>
<path d="M77.3691 138.367C70.2005 138.367 63.0319 138.367 55.8633 138.367C55.6442 138.367 55.4249 138.371 55.206 138.362C54.7925 138.346 54.4283 138.215 54.4418 137.735C54.4551 137.258 54.7621 137.017 55.2492 137.021C55.437 137.022 55.6248 137.017 55.8126 137.017C70.1186 137.02 84.4248 137.021 98.7308 137.038C99.2977 137.039 100.206 136.777 100.21 137.694C100.213 138.723 99.2847 138.351 98.6873 138.352C91.5813 138.36 84.4753 138.357 77.3691 138.357C77.3692 138.361 77.3692 138.364 77.3691 138.367Z" fill="black"/>
<path d="M72.1046 94.1363C72.1046 101.136 72.1049 108.137 72.1037 115.137C72.1036 115.479 72.1085 115.822 72.0795 116.163C72.0446 116.571 71.7352 116.772 71.3836 116.798C70.9523 116.83 70.7993 116.512 70.7901 116.122C70.7828 115.811 70.7733 115.5 70.7734 115.189C70.7769 101.189 70.7812 87.1885 70.786 73.1882C70.7861 72.8772 70.7952 72.5661 70.7956 72.2551C70.7962 71.8262 70.9906 71.4881 71.4209 71.4661C71.9513 71.4389 72.0684 71.8553 72.0801 72.296C72.0858 72.5137 72.0834 72.7315 72.0834 72.9493C72.0835 80.0117 72.0835 87.074 72.0835 94.1364C72.0905 94.1362 72.0975 94.1362 72.1046 94.1363Z" fill="black"/>
<path d="M156.782 148.973C151.272 148.973 145.762 148.973 140.253 148.973C140.034 148.973 139.815 148.967 139.596 148.964C139.123 148.956 138.772 148.721 138.751 148.263C138.729 147.772 139.029 147.455 139.57 147.445C140.07 147.435 140.571 147.414 141.072 147.413C151.809 147.403 162.546 147.395 173.284 147.387C173.938 147.386 174.812 147.282 174.821 148.162C174.829 149.026 173.981 148.966 173.31 148.965C167.801 148.96 162.291 148.962 156.782 148.962C156.782 148.966 156.782 148.969 156.782 148.973Z" fill="black"/>
<path d="M80.9008 94.0397C80.9008 90.8369 80.9218 87.6339 80.887 84.4315C80.8775 83.5646 81.1393 83.1608 82.0616 83.2353C82.7455 83.2904 83.4382 83.2608 84.126 83.2384C84.6949 83.2199 84.8798 83.4634 84.8784 84.0203C84.8645 89.7727 84.871 95.525 84.8699 101.277C84.8698 101.727 84.8511 102.246 84.2471 102.223C83.6305 102.199 83.7007 101.646 83.7006 101.221C83.6996 95.9967 83.6978 90.7729 83.7181 85.5489C83.7204 84.9695 83.6758 84.6382 82.9383 84.6497C82.2272 84.6608 82.2181 85.0186 82.2179 85.5313C82.2162 89.5425 82.1988 93.5537 82.1914 97.5649C82.1875 99.6793 82.195 101.794 82.195 103.908C82.195 104.381 82.2275 104.941 81.5658 104.948C80.912 104.955 80.9105 104.411 80.9106 103.928C80.9111 100.632 80.9109 97.3356 80.9109 94.0397C80.9074 94.0397 80.9041 94.0397 80.9008 94.0397Z" fill="black"/>
<path d="M152.324 103.57C152.324 109.139 152.329 114.708 152.316 120.277C152.315 120.803 152.462 121.566 151.634 121.555C150.827 121.545 150.952 120.801 150.953 120.262C150.966 109.155 150.987 98.0485 151.007 86.9418C151.008 86.7862 151.009 86.6307 151.009 86.4751C151.01 85.9881 151.029 85.4511 151.677 85.4571C152.327 85.4629 152.327 86.0061 152.327 86.4893C152.327 92.1828 152.327 97.8763 152.327 103.57C152.326 103.57 152.325 103.57 152.324 103.57Z" fill="black"/>
<path d="M159.702 60.9533C159.737 61.2673 159.592 61.631 159.081 61.6774C158.512 61.7289 158.356 61.3253 158.27 60.8547C157.142 54.6239 154.371 49.1599 150.399 44.2601C148.766 42.2449 146.898 40.4575 144.942 38.7566C144.801 38.6338 144.647 38.5227 144.518 38.3884C144.213 38.0702 144.049 37.7026 144.339 37.3024C144.675 36.8393 145.108 36.9569 145.499 37.216C146.52 37.8915 147.402 38.7407 148.268 39.5875C153.243 44.4459 156.903 50.1158 158.85 56.8105C159.186 57.9674 159.398 59.1601 159.661 60.3377C159.694 60.4875 159.683 60.6472 159.702 60.9533Z" fill="black"/>
<path d="M152.451 70.3334C148.259 70.3334 144.066 70.3338 139.874 70.3322C139.592 70.3321 139.307 70.342 139.031 70.3003C138.632 70.2401 138.284 70.0492 138.31 69.5945C138.334 69.1761 138.625 68.9304 139.05 68.8833C139.236 68.8627 139.425 68.8779 139.613 68.8778C148.279 68.8724 156.946 68.8699 165.613 68.8555C166.166 68.8546 166.735 68.9522 166.74 69.5454C166.746 70.1631 166.202 70.3339 165.592 70.3317C161.212 70.3157 156.832 70.3231 152.451 70.3231C152.451 70.3266 152.451 70.3299 152.451 70.3334Z" fill="black"/>
<path d="M55.4051 101.969C55.4051 106.853 55.4073 111.736 55.4004 116.619C55.3999 116.979 55.4921 117.386 55.135 117.657C54.7428 117.955 54.1463 117.723 54.0525 117.23C54.0124 117.019 54.0323 116.796 54.0324 116.578C54.0357 107.028 54.0395 97.4775 54.0447 87.927C54.0449 87.585 54.0337 87.2402 54.073 86.9019C54.1146 86.5424 54.2666 86.2062 54.7009 86.2275C55.125 86.2484 55.3923 86.4915 55.3949 86.948C55.4011 88.0365 55.4099 89.1249 55.4105 90.2134C55.4123 94.132 55.4113 98.0507 55.4113 101.969C55.4092 101.969 55.4071 101.969 55.4051 101.969Z" fill="black"/>
<path d="M48.0442 119.256C48.0441 115.18 48.044 111.104 48.0443 107.028C48.0443 106.658 47.9591 106.232 48.3084 105.989C48.7389 105.69 49.1693 105.773 49.365 106.29C49.4704 106.568 49.4513 106.901 49.4518 107.21C49.4643 115.175 49.472 123.14 49.4806 131.105C49.4807 131.23 49.4786 131.354 49.4818 131.479C49.494 131.976 49.4396 132.487 48.8139 132.511C48.1449 132.536 48.0389 132.043 48.04 131.484C48.0481 127.408 48.0444 123.332 48.0442 119.256Z" fill="black"/>
<path d="M132.067 138.368C127.75 138.368 123.433 138.368 119.117 138.368C118.866 138.368 118.616 138.368 118.366 138.359C117.978 138.346 117.675 138.195 117.684 137.764C117.692 137.385 117.92 137.118 118.301 137.046C118.544 137.001 118.8 137.018 119.05 137.018C127.715 137.015 136.38 137.013 145.045 137.012C145.264 137.012 145.485 137.006 145.701 137.035C146.1 137.089 146.444 137.232 146.43 137.718C146.416 138.196 146.106 138.348 145.675 138.348C145.205 138.348 144.736 138.355 144.267 138.355C140.2 138.356 136.134 138.356 132.067 138.356C132.067 138.36 132.067 138.364 132.067 138.368Z" fill="black"/>
<path d="M159.579 138.35C156.201 138.35 152.824 138.35 149.446 138.35C149.321 138.35 149.196 138.347 149.071 138.349C148.627 138.358 148.203 138.262 148.203 137.737C148.203 137.201 148.592 137.019 149.102 137.02C156.076 137.029 163.049 137.029 170.023 137.047C170.465 137.048 171.068 136.996 171.074 137.679C171.08 138.39 170.507 138.383 169.992 138.383C166.521 138.384 163.05 138.384 159.579 138.384C159.579 138.373 159.579 138.361 159.579 138.35Z" fill="black"/>
<path d="M129.507 148.965C127.533 148.965 125.56 148.963 123.587 148.966C123.063 148.967 122.492 148.949 122.459 148.281C122.425 147.602 122.923 147.425 123.536 147.424C127.577 147.421 131.617 147.408 135.658 147.391C136.201 147.388 136.642 147.577 136.639 148.144C136.636 148.736 136.21 148.966 135.615 148.962C133.579 148.946 131.543 148.955 129.507 148.955C129.507 148.959 129.507 148.962 129.507 148.965Z" fill="black"/>
<path d="M158.667 104.634C158.667 106.31 158.67 107.987 158.664 109.663C158.663 109.941 158.653 110.225 158.592 110.494C158.526 110.782 158.323 111.004 158.01 111.018C157.644 111.034 157.427 110.789 157.352 110.467C157.289 110.199 157.293 109.912 157.293 109.634C157.293 106.22 157.292 102.805 157.305 99.3904C157.307 98.9183 157.191 98.3047 157.959 98.2931C158.756 98.281 158.702 98.8895 158.704 99.4192C158.71 101.158 158.706 102.896 158.706 104.634C158.693 104.634 158.68 104.634 158.667 104.634Z" fill="black"/>
<path d="M170.611 99.4565C170.611 100.947 170.602 102.438 170.616 103.929C170.621 104.451 170.468 104.959 169.933 104.979C169.311 105.002 169.179 104.465 169.184 103.911C169.206 100.929 169.211 97.9477 169.236 94.9661C169.24 94.5123 169.195 93.9185 169.86 93.918C170.503 93.9175 170.624 94.437 170.622 94.984C170.616 96.4748 170.62 97.9657 170.62 99.4565C170.617 99.4565 170.614 99.4565 170.611 99.4565Z" fill="black"/>
<path d="M144.388 93.3233C143.075 93.3233 141.763 93.3247 140.45 93.3226C139.988 93.322 139.5 93.2641 139.5 92.6816C139.5 92.1183 139.954 92.0151 140.436 92.0197C142.967 92.044 145.499 92.0561 148.03 92.0924C148.52 92.0994 149.127 92.0814 149.103 92.8132C149.079 93.513 148.495 93.395 148.045 93.3993C146.826 93.4109 145.607 93.4033 144.388 93.4033C144.388 93.3767 144.388 93.3499 144.388 93.3233Z" fill="black"/>
<path d="M47.7313 138.369C46.5413 138.369 45.3513 138.369 44.1614 138.369C43.7062 138.369 43.1912 138.354 43.2115 137.753C43.2279 137.267 43.5887 137.016 44.1195 137.02C46.5307 137.036 48.9421 137.029 51.3533 137.046C51.7884 137.05 52.3083 137.053 52.3005 137.681C52.2927 138.317 51.8038 138.39 51.301 138.391C50.1111 138.392 48.9212 138.391 47.7313 138.391C47.7313 138.384 47.7313 138.376 47.7313 138.369Z" fill="black"/>
<path d="M106.681 137.024C107.869 137.024 109.058 137.018 110.247 137.027C110.7 137.03 111.182 137.063 111.174 137.68C111.167 138.317 110.697 138.398 110.187 138.395C107.872 138.382 105.557 138.374 103.243 138.36C102.771 138.357 102.217 138.404 102.223 137.719C102.229 137.016 102.775 137.009 103.302 137.012C104.428 137.019 105.555 137.014 106.681 137.014C106.681 137.017 106.681 137.021 106.681 137.024Z" fill="black"/>
<path d="M143.9 105.796C145.122 105.796 146.343 105.793 147.565 105.798C147.924 105.8 148.31 105.855 148.372 106.275C148.442 106.757 148.032 106.889 147.663 106.992C147.485 107.042 147.292 107.059 147.106 107.059C144.882 107.06 142.658 107.061 140.434 107.044C139.971 107.04 139.36 107.044 139.371 106.414C139.381 105.842 139.908 105.761 140.424 105.77C141.582 105.79 142.741 105.777 143.9 105.777C143.9 105.783 143.9 105.79 143.9 105.796Z" fill="black"/>
<path d="M59.6091 90.5866C58.6101 90.5866 57.6106 90.6032 56.6121 90.5784C56.2136 90.5685 55.7836 90.5449 55.7626 89.9507C55.7394 89.2976 56.1948 89.2625 56.6347 89.2591C58.6015 89.2443 60.5683 89.2514 62.5352 89.2537C63.046 89.2543 63.4191 89.4824 63.389 90.0166C63.3613 90.5069 62.9765 90.6502 62.5128 90.6444C61.545 90.6322 60.5771 90.6407 59.6092 90.6407C59.6091 90.6227 59.6091 90.6046 59.6091 90.5866Z" fill="black"/>
<path d="M143.64 109.036C144.638 109.036 145.636 109.033 146.634 109.038C147.09 109.04 147.611 109.097 147.603 109.657C147.597 110.144 147.176 110.356 146.667 110.355C144.609 110.353 142.551 110.369 140.493 110.369C140.004 110.369 139.466 110.293 139.469 109.682C139.472 109.09 140.034 109.098 140.46 109.089C141.52 109.066 142.58 109.081 143.64 109.081C143.64 109.066 143.64 109.051 143.64 109.036Z" fill="black"/>
<path d="M143.646 95.5301C144.773 95.5301 145.9 95.5315 147.026 95.5294C147.462 95.5287 147.936 95.6048 147.933 96.1084C147.93 96.6161 147.495 96.801 146.996 96.7972C144.774 96.7805 142.552 96.7719 140.33 96.7581C139.898 96.7554 139.425 96.6705 139.414 96.1709C139.402 95.6162 139.888 95.5127 140.36 95.5123C141.456 95.5112 142.551 95.512 143.646 95.512C143.646 95.5179 143.646 95.524 143.646 95.5301Z" fill="black"/>
<path d="M59.6369 98.9417C60.5743 98.9417 61.5116 98.9408 62.449 98.9421C62.904 98.9428 63.4372 98.9874 63.4738 99.518C63.5121 100.074 63.0421 100.28 62.5103 100.282C60.6045 100.29 58.6984 100.318 56.7929 100.297C56.398 100.293 55.8148 100.351 55.7901 99.7268C55.7632 99.0474 56.2806 98.9602 56.825 98.963C57.7622 98.9679 58.6996 98.9644 59.6369 98.9644C59.6369 98.9568 59.6369 98.9492 59.6369 98.9417Z" fill="black"/>
<path d="M143.483 102.214C144.574 102.214 145.665 102.215 146.756 102.214C147.158 102.213 147.543 102.273 147.553 102.772C147.564 103.25 147.276 103.53 146.797 103.533C144.521 103.546 142.246 103.548 139.971 103.544C139.593 103.543 139.26 103.363 139.25 102.966C139.239 102.502 139.544 102.222 140.023 102.217C141.176 102.206 142.33 102.213 143.483 102.214Z" fill="black"/>
<path d="M143.647 98.8711C144.709 98.8711 145.771 98.8592 146.832 98.8769C147.247 98.8838 147.835 98.7872 147.834 99.408C147.832 99.9851 147.304 100.115 146.806 100.12C144.87 100.138 142.935 100.147 140.999 100.156C140.687 100.158 140.366 100.187 140.067 100.122C139.725 100.048 139.395 99.8569 139.442 99.437C139.487 99.032 139.783 98.8902 140.182 98.8933C141.337 98.9024 142.492 98.8965 143.647 98.8965C143.647 98.8881 143.647 98.8795 143.647 98.8711Z" fill="black"/>
<path d="M143.593 85.2163C144.656 85.2151 145.718 85.2157 146.781 85.2148C147.229 85.2145 147.645 85.3406 147.645 85.8463C147.644 86.3199 147.277 86.5331 146.81 86.5335C144.653 86.5353 142.497 86.5433 140.341 86.5285C139.889 86.5254 139.401 86.4124 139.431 85.8298C139.46 85.2491 139.946 85.2161 140.406 85.2169C141.469 85.2187 142.531 85.2175 143.593 85.2163Z" fill="black"/>
<path d="M143.451 89.8776C142.453 89.8776 141.454 89.8927 140.456 89.8709C139.983 89.8607 139.441 89.8103 139.47 89.1602C139.496 88.5669 139.987 88.576 140.442 88.5757C142.501 88.5742 144.56 88.5583 146.619 88.5613C147.005 88.5619 147.551 88.4609 147.576 89.0268C147.599 89.5708 147.156 89.8412 146.633 89.8516C145.573 89.8729 144.512 89.858 143.451 89.858C143.451 89.8646 143.451 89.8711 143.451 89.8776Z" fill="black"/>
<path d="M106.525 108.42C106.525 109.414 106.524 110.407 106.525 111.401C106.526 111.865 106.35 112.231 105.843 112.216C105.374 112.203 105.145 111.895 105.146 111.404C105.15 109.355 105.139 107.306 105.133 105.257C105.131 104.788 105.318 104.448 105.826 104.449C106.326 104.451 106.532 104.785 106.533 105.254C106.536 106.309 106.534 107.365 106.534 108.42C106.531 108.42 106.528 108.42 106.525 108.42Z" fill="black"/>
<path d="M59.8075 105.22C60.7761 105.22 61.7447 105.216 62.7134 105.222C63.1522 105.224 63.5952 105.345 63.5696 105.854C63.5486 106.271 63.2464 106.57 62.743 106.568C60.7122 106.559 58.6813 106.571 56.6506 106.554C56.2435 106.551 55.7777 106.486 55.7893 105.929C55.8011 105.356 56.2348 105.249 56.7143 105.25C57.7454 105.25 58.7765 105.25 59.8076 105.25C59.8075 105.24 59.8075 105.23 59.8075 105.22Z" fill="black"/>
<path d="M59.6338 102.253C60.6029 102.253 61.572 102.26 62.5409 102.25C63.0036 102.245 63.3961 102.394 63.4066 102.884C63.4166 103.354 63.0669 103.589 62.5901 103.588C60.5899 103.582 58.5895 103.588 56.5896 103.557C56.2006 103.551 55.7297 103.479 55.7634 102.899C55.7948 102.36 56.2046 102.27 56.6332 102.265C57.6333 102.253 58.6336 102.261 59.6339 102.261C59.6338 102.258 59.6338 102.256 59.6338 102.253Z" fill="black"/>
<path d="M59.6425 92.6492C60.61 92.6492 61.5777 92.6509 62.5452 92.6484C62.9995 92.6473 63.4054 92.8069 63.4275 93.2825C63.4497 93.7612 63.0455 93.9869 62.6043 93.986C60.5761 93.9821 58.5476 93.9635 56.52 93.9184C56.2266 93.9118 55.7602 93.9517 55.8364 93.3943C55.8931 92.9796 56.0862 92.6942 56.5532 92.6935C57.5829 92.692 58.6126 92.693 59.6424 92.693C59.6425 92.6785 59.6425 92.6639 59.6425 92.6492Z" fill="black"/>
<path d="M101.178 17.2896C101.246 17.3081 101.434 17.3362 101.603 17.4083C103.09 18.0449 104.578 18.6799 106.056 19.339C106.362 19.4758 106.65 19.6828 106.899 19.9086C107.131 20.118 107.109 20.4205 106.963 20.6813C106.803 20.9679 106.545 21.0354 106.242 20.9011C104.396 20.0799 102.551 19.257 100.705 18.4354C100.38 18.2907 100.201 18.0643 100.324 17.7009C100.441 17.3545 100.71 17.2361 101.178 17.2896Z" fill="black"/>
<path d="M60.0315 109.701C59.2507 109.701 58.4695 109.718 57.6895 109.694C57.2468 109.681 56.7539 109.622 56.7241 109.04C56.6928 108.428 57.1744 108.376 57.6306 108.368C59.2225 108.342 60.8144 108.322 62.4063 108.309C62.8729 108.305 63.2317 108.506 63.2064 109.009C63.1828 109.48 62.8414 109.709 62.3741 109.713C61.5932 109.721 60.8124 109.715 60.0316 109.715C60.0316 109.71 60.0316 109.706 60.0315 109.701Z" fill="black"/>
<path d="M176.719 138.365C175.841 138.365 174.964 138.372 174.087 138.362C173.676 138.357 173.205 138.366 173.199 137.786C173.193 137.18 173.598 137.017 174.144 137.02C175.93 137.028 177.716 137.017 179.502 137.022C179.97 137.023 180.419 137.104 180.396 137.714C180.377 138.247 179.983 138.356 179.538 138.357C178.598 138.36 177.659 138.358 176.719 138.358C176.719 138.361 176.719 138.363 176.719 138.365Z" fill="black"/>
<path d="M142.15 82.4692C141.464 82.4692 140.778 82.4714 140.093 82.4684C139.621 82.4663 139.274 82.2285 139.258 81.7705C139.241 81.2603 139.591 80.9948 140.108 80.9928C141.511 80.9871 142.914 80.9867 144.317 80.9844C144.779 80.9836 145.177 81.1749 145.151 81.6522C145.126 82.0904 144.851 82.4641 144.301 82.461C143.584 82.4569 142.867 82.46 142.15 82.46C142.15 82.463 142.15 82.4661 142.15 82.4692Z" fill="black"/>
<path d="M60.1091 97.054C59.2986 97.054 58.4879 97.0676 57.6781 97.0477C57.3224 97.039 56.9765 96.9418 56.9651 96.4832C56.9545 96.0546 57.227 95.8515 57.6105 95.8428C59.2924 95.8049 60.9748 95.7748 62.657 95.7775C63.0152 95.7781 63.3697 96.0452 63.3298 96.4076C63.2893 96.7757 62.9771 97.0687 62.5411 97.0749C61.7307 97.0864 60.9199 97.0782 60.1093 97.0782C60.1092 97.0702 60.1091 97.0621 60.1091 97.054Z" fill="black"/>
<path d="M184.872 141.529C184.404 141.529 183.936 141.543 183.47 141.525C183.057 141.508 182.702 141.313 182.684 140.883C182.665 140.419 182.985 140.145 183.456 140.133C184.39 140.108 185.324 140.098 186.259 140.103C186.717 140.105 187.076 140.333 187.081 140.807C187.085 141.279 186.74 141.511 186.273 141.521C185.806 141.532 185.339 141.524 184.871 141.524C184.872 141.525 184.872 141.527 184.872 141.529Z" fill="black"/>
<path d="M97.0594 114.409C97.0788 114.995 96.5971 115.282 96.131 115.032C95.9941 114.959 95.8665 114.868 95.7367 114.782C95.3293 114.512 94.7936 114.312 95.0892 113.647C95.2136 113.368 95.3955 113.16 95.7385 113.289C96.3339 113.514 96.8538 113.83 97.0594 114.409Z" fill="black"/>
<path d="M115.273 137.718C115.211 138.237 114.901 138.469 114.448 138.453C114 138.437 113.67 138.194 113.684 137.703C113.696 137.291 113.903 136.994 114.374 137.004C114.867 137.015 115.193 137.238 115.273 137.718Z" fill="black"/>
<path d="M44.8351 122.324C45.3044 122.417 45.6235 122.635 45.5588 123.132C45.5084 123.52 45.2963 123.896 44.8722 123.867C44.4716 123.839 44.0971 123.595 44.1097 123.097C44.1215 122.63 44.3912 122.375 44.8351 122.324Z" fill="black"/>
<path d="M92.1656 111.023C92.5836 111.205 93.0358 111.405 93.0001 111.973C92.977 112.342 92.7565 112.642 92.314 112.539C91.8844 112.439 91.4151 112.285 91.4219 111.748C91.427 111.354 91.6871 111.064 92.1656 111.023Z" fill="black"/>
<path d="M145.394 113.935C144.978 113.839 144.623 113.679 144.698 113.199C144.76 112.797 145.002 112.514 145.464 112.541C145.919 112.567 146.161 112.839 146.136 113.27C146.11 113.709 145.796 113.903 145.394 113.935Z" fill="black"/>
<path d="M169.704 116.492C170.132 116.531 170.447 116.708 170.47 117.149C170.492 117.599 170.278 117.944 169.787 117.943C169.439 117.942 169.111 117.782 169.088 117.36C169.064 116.916 169.241 116.59 169.704 116.492Z" fill="black"/>
<path d="M76.0311 107.144C75.9552 107.498 75.787 107.862 75.3375 107.828C74.9483 107.799 74.6077 107.531 74.6215 107.104C74.6344 106.706 74.8831 106.392 75.3371 106.399C75.7769 106.405 76.0208 106.654 76.0311 107.144Z" fill="black"/>
<path d="M191.895 143.418C192.334 143.479 192.651 143.657 192.664 144.11C192.675 144.532 192.455 144.852 192.02 144.877C191.593 144.901 191.327 144.634 191.289 144.199C191.249 143.747 191.518 143.526 191.895 143.418Z" fill="black"/>
<path d="M67.7367 120.667C67.6851 121.056 67.4825 121.316 67.0813 121.332C66.6665 121.348 66.3004 121.18 66.3047 120.721C66.3086 120.302 66.6218 120.046 67.0429 120.035C67.445 120.025 67.6463 120.303 67.7367 120.667Z" fill="black"/>
<path d="M54.715 118.977C55.0954 119.049 55.3658 119.246 55.3864 119.643C55.4095 120.086 55.1465 120.362 54.7172 120.368C54.3483 120.372 54.042 120.169 54.0469 119.747C54.0519 119.324 54.2989 119.065 54.715 118.977Z" fill="black"/>
<path d="M78.5759 110.546C78.1902 110.473 77.9207 110.297 77.9471 109.878C77.9706 109.505 78.1567 109.222 78.5575 109.19C78.9549 109.159 79.2361 109.377 79.2328 109.772C79.2296 110.173 78.9636 110.436 78.5759 110.546Z" fill="black"/>
<path d="M90.5148 36.1602C90.9445 36.2009 91.1611 36.4568 91.1702 36.8269C91.1797 37.2162 90.9391 37.4629 90.5321 37.4559C90.1729 37.4497 89.9572 37.2421 89.961 36.8737C89.9648 36.497 90.1417 36.237 90.5148 36.1602Z" fill="black"/>
<path d="M90.5826 34.8609C90.1975 34.8485 89.9337 34.6827 89.9297 34.263C89.9265 33.9223 90.088 33.6378 90.4425 33.6086C90.8142 33.578 91.1131 33.771 91.1523 34.1752C91.1898 34.5615 91.013 34.8223 90.5826 34.8609Z" fill="black"/>
<path d="M131.947 114.408C132.165 113.87 132.077 113.404 132.077 112.95C132.079 85.2168 132.074 57.4832 132.085 29.7496C132.085 29.3367 131.816 28.7681 132.467 28.5471C133.088 28.336 133.444 28.6733 133.446 29.4747C133.453 32.0891 133.456 34.7034 133.455 37.3178C133.452 54.9031 133.45 72.4884 133.444 90.0737C133.441 97.8241 133.431 105.574 133.429 113.325C133.429 113.884 133.445 114.446 133.505 115.002C133.59 115.775 133.243 116.104 132.494 116.094C131.93 116.087 131.366 116.084 130.802 116.083C125.382 116.083 119.961 116.084 114.541 116.08C114.201 116.08 113.839 116.146 113.531 115.952C113.142 115.707 112.885 115.299 113.237 114.944C113.782 114.396 113.706 113.764 113.706 113.125C113.718 95.6007 113.733 78.0766 113.733 60.5526C113.733 47.6354 113.716 34.7182 113.689 21.8011C113.688 21.3441 113.857 21.0275 114.142 20.7289C117.245 17.4781 120.355 14.234 123.449 10.9745C124.052 10.3388 124.534 10.4067 125.068 11.051C127.737 14.2691 130.4 17.4914 133.108 20.6765C133.774 21.4596 133.572 22.3173 133.563 23.1598C133.542 25.0422 133.977 24.9356 131.756 24.9339C127.182 24.9303 122.607 24.9506 118.033 24.9011C117.139 24.8915 116.947 25.1794 116.949 26.0115C116.983 39.582 116.997 53.1526 116.995 66.7232C116.994 82.1301 116.969 97.5371 116.973 112.944C116.973 113.436 116.646 114.196 117.199 114.383C117.896 114.618 118.746 114.682 119.467 114.276C119.698 114.147 119.838 113.973 120.107 114.178C120.772 114.682 121.55 114.406 122.279 114.465C122.675 114.498 122.736 114.222 122.735 113.916C122.731 112.484 122.712 111.052 122.725 109.621C122.729 109.144 122.486 109.052 122.083 109.048C121.363 109.041 120.642 109.013 119.923 108.979C119.461 108.958 119.025 108.888 119.059 108.259C119.089 107.702 119.475 107.624 119.912 107.624C122.606 107.626 125.3 107.63 127.995 107.638C128.442 107.639 128.874 107.784 128.829 108.295C128.794 108.704 128.481 109.025 127.996 109.027C126.994 109.032 125.99 109.053 124.989 109.014C124.367 108.99 124.083 109.149 124.107 109.837C124.153 111.142 124.135 112.451 124.103 113.758C124.09 114.288 124.288 114.469 124.806 114.465C126.435 114.455 128.064 114.461 129.693 114.487C130.226 114.496 130.387 114.29 130.384 113.771C130.359 108.604 130.348 103.437 130.357 98.2703C130.357 97.7794 130.22 97.6347 129.729 97.6165C128.08 97.5551 128.086 97.5355 128.091 99.1616C128.098 101.34 128.095 103.519 128.097 105.698C128.097 106.15 128.125 106.554 127.437 106.551C126.769 106.548 126.76 106.172 126.762 105.706C126.768 103.309 126.749 100.912 126.786 98.5162C126.796 97.8621 126.685 97.576 125.927 97.601C124.194 97.6579 124.192 97.6153 124.196 99.3228C124.201 101.439 124.208 103.556 124.214 105.673C124.215 106.139 124.287 106.658 123.567 106.65C122.866 106.641 122.898 106.108 122.889 105.651C122.872 104.686 122.868 103.72 122.901 102.756C122.918 102.253 122.788 101.976 122.229 102.056C122.137 102.069 122.041 102.057 121.947 102.056C120.614 102.04 120.616 102.04 120.612 103.333C120.61 104.204 120.597 105.076 120.595 105.947C120.594 106.335 120.513 106.62 120.019 106.576C119.605 106.539 119.191 106.578 119.189 105.966C119.179 103.01 119.153 100.053 119.135 97.0963C119.132 96.4461 119.505 96.2714 120.109 96.2727C123.649 96.2803 127.19 96.2747 130.73 96.2473C131.556 96.2408 131.699 96.6625 131.698 97.3654C131.69 102.688 131.706 108.011 131.723 113.333C131.724 113.656 131.61 114.01 131.947 114.408ZM115.222 114.531C115.592 114.148 115.524 113.83 115.527 113.544C115.534 112.641 115.525 111.739 115.525 110.836C115.523 82.0833 115.527 53.3303 115.495 24.5773C115.494 23.6238 115.78 23.2784 116.685 23.3409C116.934 23.3581 117.186 23.3409 117.436 23.3408C122.009 23.3385 126.582 23.3397 131.155 23.3271C131.471 23.3263 131.911 23.4802 132.058 23.0607C132.191 22.6832 132.18 22.2592 131.915 21.9013C131.804 21.7512 131.681 21.6099 131.56 21.4669C129.305 18.7988 127.028 16.1485 124.81 13.4502C124.286 12.8122 123.999 12.8481 123.467 13.413C120.984 16.0471 118.488 18.6695 115.94 21.2407C115.339 21.8468 115.075 22.433 115.076 23.2757C115.092 35.8158 115.08 48.356 115.078 60.8961C115.075 77.9798 115.072 95.0635 115.076 112.147C115.076 112.885 114.986 113.633 115.222 114.531ZM122.885 99.332C122.878 99.332 122.872 99.332 122.865 99.332C122.865 98.9279 122.869 98.5238 122.864 98.1197C122.861 97.8647 122.854 97.5989 122.482 97.6207C121.983 97.6497 121.482 97.6666 120.986 97.7216C120.534 97.7717 120.572 98.1421 120.615 98.439C120.729 99.2314 120.172 100.276 120.932 100.776C121.954 101.449 122.882 100.8 122.885 99.6117C122.885 99.5185 122.885 99.4251 122.885 99.332Z" fill="black"/>
<path d="M124.557 81.4832C126.591 81.4832 128.626 81.5025 130.659 81.473C131.398 81.4624 131.718 81.6669 131.706 82.4742C131.664 85.2716 131.687 88.0701 131.698 90.868C131.7 91.3552 131.623 91.7601 131.029 91.7654C130.408 91.7711 130.37 91.3192 130.366 90.8573C130.359 89.8936 130.314 88.9285 130.354 87.967C130.378 87.4107 130.175 87.286 129.658 87.2978C127.712 87.3421 128.133 87.1193 128.089 88.7877C128.069 89.5645 128.073 90.3422 128.08 91.1194C128.084 91.526 128.067 91.8508 127.502 91.8449C126.952 91.8392 126.709 91.6602 126.732 91.0823C126.771 90.0887 126.735 89.0922 126.773 88.0985C126.794 87.5335 126.678 87.2767 126.011 87.2869C124.187 87.3148 124.189 87.2801 124.2 89.1056C124.205 89.8206 124.196 90.5357 124.201 91.2507C124.204 91.6311 124.149 91.9238 123.648 91.9054C123.179 91.8881 122.86 91.7821 122.869 91.2244C122.886 90.1678 122.843 89.1093 122.889 88.0544C122.916 87.4233 122.68 87.2192 122.08 87.3067C121.835 87.3424 121.578 87.339 121.331 87.314C120.734 87.2538 120.58 87.5408 120.598 88.085C120.628 89.0478 120.62 90.0127 120.593 90.9758C120.584 91.2968 120.772 91.7964 120.125 91.7709C119.587 91.7496 119.141 91.663 119.167 90.9466C119.2 90.0464 119.166 89.1439 119.163 88.2424C119.157 86.719 119.132 85.1953 119.157 83.6723C119.167 83.0974 119.043 82.7838 118.384 82.8647C117.752 82.9423 117.451 82.6017 117.457 81.9928C117.463 81.3169 118.016 81.5112 118.361 81.5071C120.426 81.4823 122.492 81.4949 124.557 81.4949C124.557 81.4908 124.557 81.487 124.557 81.4832ZM126.785 84.5476C126.791 82.8837 126.792 82.9162 125.091 82.9342C124.381 82.9417 124.061 83.1209 124.149 83.8802C124.216 84.4641 124.168 85.061 124.173 85.6521C124.175 85.9143 124.216 86.1095 124.548 86.191C126.164 86.5874 126.778 86.1465 126.785 84.5476ZM130.352 84.5267C130.358 82.8259 130.359 82.8482 128.694 82.964C128.189 82.9991 128.064 83.1998 128.083 83.6487C128.109 84.2659 128.108 84.8852 128.091 85.5029C128.078 85.95 128.197 86.1547 128.715 86.168C130.345 86.2095 130.345 86.234 130.352 84.6195C130.352 84.5885 130.352 84.5576 130.352 84.5267ZM122.882 84.5957C122.869 84.5957 122.856 84.5957 122.843 84.5957C122.843 84.2231 122.846 83.8504 122.841 83.4779C122.838 83.2949 122.851 83.0458 122.615 83.0338C122.024 83.0039 121.26 82.7953 120.876 83.0765C120.185 83.583 120.715 84.5005 120.617 85.2356C120.578 85.5273 120.445 85.9259 120.916 86.1067C122.122 86.5703 122.893 86.0585 122.882 84.7821C122.881 84.72 122.882 84.6579 122.882 84.5957Z" fill="black"/>
<path d="M125.437 70.3117C127.191 70.3117 128.944 70.3331 130.697 70.3013C131.408 70.2885 131.691 70.5025 131.681 71.2577C131.646 73.8698 131.669 76.4829 131.689 79.0954C131.694 79.6445 131.559 80.0142 130.933 80.0182C130.31 80.0222 130.369 79.5584 130.353 79.161C130.338 78.7884 130.34 78.4147 130.345 78.0417C130.365 76.644 129.866 76.2815 128.464 76.612C128.051 76.7092 128.102 76.9673 128.1 77.2362C128.093 77.9827 128.079 78.7296 128.101 79.4755C128.115 79.9411 127.895 80.051 127.472 80.0488C127.046 80.0467 126.735 80.0101 126.75 79.4689C126.772 78.6919 126.74 77.9134 126.764 77.1366C126.776 76.7365 126.639 76.549 126.229 76.5848C126.167 76.5903 126.104 76.5818 126.042 76.5787C124.207 76.4863 124.208 76.4862 124.199 78.2857C124.197 78.6589 124.164 79.0333 124.186 79.4049C124.213 79.8794 124.039 80.0692 123.541 80.0567C123.062 80.0447 122.86 79.8752 122.883 79.3946C122.91 78.8358 122.926 78.2739 122.896 77.7161C122.877 77.3665 123.122 76.8185 122.716 76.7047C122.1 76.5317 121.407 76.5369 120.771 76.7262C120.552 76.7912 120.622 77.1093 120.62 77.3214C120.614 77.9746 120.624 78.6278 120.616 79.2808C120.611 79.6408 120.704 80.0666 120.086 80.0295C119.572 79.9987 119.16 79.9297 119.172 79.2629C119.192 78.2059 119.169 77.1482 119.165 76.0907C119.16 74.4733 119.171 72.8558 119.145 71.2387C119.134 70.5667 119.382 70.3096 120.084 70.3256C121.867 70.3663 123.653 70.3391 125.437 70.3391C125.437 70.33 125.437 70.3208 125.437 70.3117ZM124.179 73.5712C124.178 75.5838 124.176 75.5686 126.174 75.392C126.622 75.3523 126.774 75.1793 126.766 74.764C126.75 73.9591 126.742 73.1536 126.749 72.3486C126.752 71.9703 126.62 71.8211 126.213 71.7803C124.25 71.5837 124.18 71.632 124.179 73.5712ZM130.353 73.5466C130.348 71.7327 130.349 71.7632 128.779 71.8095C128.178 71.8272 128.032 72.0663 128.063 72.5958C128.098 73.1836 128.134 73.7789 128.079 74.3625C128.003 75.1722 128.277 75.4508 129.12 75.3974C130.352 75.3194 130.355 75.3762 130.355 74.105C130.355 73.9189 130.355 73.7327 130.353 73.5466ZM122.925 73.681C122.916 73.681 122.907 73.681 122.898 73.6811C122.898 73.3408 122.87 72.9976 122.904 72.6608C122.973 71.9903 122.744 71.6669 122.023 71.7938C121.811 71.8311 121.586 71.8202 121.37 71.8037C120.822 71.7619 120.574 71.9689 120.604 72.5477C120.642 73.2885 120.613 74.0325 120.619 74.7752C120.621 75.0579 120.635 75.3049 121.013 75.3993C122.387 75.7422 122.926 75.3486 122.925 73.9594C122.925 73.8667 122.925 73.7738 122.925 73.681Z" fill="black"/>
<path d="M125.483 55.9632C127.174 55.9632 128.864 55.9841 130.554 55.9537C131.323 55.9399 131.701 56.1582 131.689 57.0083C131.656 59.3709 131.677 61.7344 131.705 64.0972C131.712 64.6679 131.555 65.1703 130.969 65.1926C130.314 65.2176 130.361 64.6114 130.356 64.148C130.344 63.0598 130.311 61.97 130.356 60.8838C130.379 60.3489 130.226 60.1326 129.692 60.1839C129.506 60.2017 129.314 60.2029 129.129 60.179C128.34 60.0773 128.02 60.3374 128.076 61.1952C128.156 62.4337 128.083 63.6815 128.093 64.9252C128.097 65.4049 127.968 65.6716 127.41 65.6829C126.825 65.6948 126.739 65.3898 126.744 64.927C126.759 63.559 126.74 62.1902 126.778 60.8229C126.793 60.2833 126.603 60.1433 126.077 60.1359C124.216 60.1099 124.217 60.0902 124.217 61.9275C124.217 62.9847 124.212 64.0419 124.211 65.0991C124.211 65.5277 124.199 65.9013 123.582 65.8894C123.003 65.8782 122.904 65.5254 122.901 65.0945C122.893 63.7265 122.873 62.3572 122.924 60.9908C122.948 60.3341 122.735 60.0733 122.079 60.1664C121.895 60.1925 121.702 60.189 121.517 60.1672C120.844 60.088 120.566 60.3171 120.599 61.0442C120.656 62.3164 120.609 63.5932 120.612 64.8681C120.613 65.2998 120.605 65.6652 119.988 65.6584C119.428 65.6521 119.193 65.4417 119.193 64.8917C119.191 62.5909 119.192 60.2898 119.158 57.9894C119.127 55.8098 118.984 55.9767 121.164 55.9683C122.604 55.9627 124.044 55.9672 125.483 55.9672C125.483 55.966 125.483 55.9646 125.483 55.9632ZM125.255 58.9768C125.458 58.9768 125.583 58.972 125.707 58.9776C126.317 59.0056 126.761 58.9647 126.771 58.1206C126.782 57.1855 126.187 57.4627 125.714 57.4324C125.496 57.4184 125.272 57.4623 125.059 57.4292C124.259 57.3052 124.137 57.7233 124.159 58.3958C124.192 59.3815 124.938 58.7993 125.255 58.9768ZM129.104 58.9434C129.314 58.9434 129.439 58.9323 129.563 58.9454C130.141 59.0064 130.382 58.8179 130.389 58.1772C130.396 57.4853 130.062 57.4084 129.526 57.4467C129.278 57.4644 129.025 57.4668 128.778 57.4431C128.264 57.394 128.109 57.5856 128.065 58.1183C127.986 59.0922 128.589 58.9779 129.104 58.9434ZM121.803 58.9583C122.297 58.9153 122.978 59.2011 122.926 58.1736C122.89 57.4584 122.572 57.3137 122.012 57.4468C121.492 57.5704 120.618 56.9911 120.58 58.1698C120.548 59.1539 121.204 58.9483 121.803 58.9583Z" fill="black"/>
<path d="M119.189 31.6953C119.189 30.3881 119.205 29.0807 119.182 27.774C119.17 27.0751 119.424 26.7662 120.17 26.7705C123.616 26.7903 127.062 26.7815 130.508 26.7618C131.352 26.7569 131.685 27.1343 131.682 27.9516C131.673 30.4724 131.689 32.9934 131.706 35.5142C131.709 36.0212 131.65 36.5137 131.021 36.5152C130.372 36.5168 130.352 35.9962 130.353 35.5047C130.357 34.3843 130.316 33.2624 130.364 32.1442C130.39 31.5357 130.219 31.264 129.587 31.3456C129.402 31.3695 129.21 31.3676 129.024 31.3474C128.321 31.2714 128.015 31.4941 128.065 32.2738C128.139 33.452 128.081 34.6381 128.094 35.8206C128.098 36.2412 128.062 36.5459 127.498 36.5128C127.023 36.485 126.723 36.4042 126.736 35.837C126.766 34.6238 126.732 33.4088 126.772 32.1962C126.793 31.5819 126.643 31.3193 125.95 31.3191C124.204 31.3186 124.202 31.2825 124.2 33.018C124.199 33.9205 124.207 34.823 124.209 35.7256C124.21 36.137 124.249 36.5353 123.613 36.5379C123.022 36.5405 122.852 36.288 122.864 35.7474C122.891 34.5653 122.841 33.3802 122.904 32.2006C122.942 31.4758 122.671 31.2425 121.99 31.3408C121.806 31.3674 121.613 31.3631 121.427 31.3417C120.834 31.2734 120.583 31.4775 120.605 32.1156C120.647 33.2966 120.619 34.4806 120.601 35.663C120.595 36.0353 120.736 36.5155 120.047 36.4967C119.435 36.4799 119.141 36.2832 119.161 35.6162C119.201 34.3103 119.173 33.0023 119.173 31.6953C119.178 31.6952 119.183 31.6952 119.189 31.6953ZM125.334 28.4047C125.109 28.5773 124.116 27.7844 124.128 29.1087C124.135 29.93 124.35 30.2532 125.174 30.1316C125.418 30.0955 125.676 30.0996 125.921 30.1321C126.568 30.2177 126.752 29.9617 126.803 29.3142C126.883 28.2951 126.397 28.1577 125.334 28.4047ZM129.087 28.3205C128.535 28.2629 128.002 28.2655 128.04 29.2329C128.069 29.9774 128.311 30.2242 129.019 30.1374C129.645 30.0607 130.378 30.3491 130.398 29.1971C130.417 28.1418 129.804 28.336 129.087 28.3205ZM121.766 30.0738C122.237 30.0181 122.997 30.3953 122.89 29.3909C122.842 28.9379 123.158 28.165 122.22 28.3596C121.652 28.4775 120.714 27.7949 120.577 29.072C120.469 30.0827 121.037 30.1208 121.766 30.0738Z" fill="black"/>
<path d="M125.438 41.5101C127.129 41.5101 128.821 41.5314 130.511 41.5008C131.304 41.4863 131.713 41.6734 131.694 42.5905C131.642 45.0786 131.681 47.5685 131.68 50.0578C131.68 50.4861 131.771 51.0126 131.112 51.0158C130.507 51.0187 130.35 50.604 130.36 50.0631C130.374 49.2857 130.316 48.5059 130.356 47.7305C130.384 47.1862 130.266 46.9511 129.652 46.9686C127.766 47.0222 128.135 46.7955 128.103 48.4904C128.09 49.1747 128.099 49.8595 128.103 50.544C128.105 50.9573 128.035 51.2754 127.497 51.2756C126.988 51.2759 126.752 51.0939 126.763 50.567C126.783 49.6028 126.75 48.6375 126.777 47.6737C126.79 47.1869 126.698 46.9273 126.118 46.9588C123.735 47.0884 124.268 46.5638 124.198 48.8602C124.179 49.4819 124.181 50.1049 124.196 50.7268C124.207 51.1594 124.023 51.3482 123.587 51.3444C123.154 51.3406 122.867 51.2393 122.877 50.7191C122.898 49.7239 122.844 48.7262 122.895 47.7334C122.928 47.0985 122.691 46.8948 122.095 46.9776C121.91 47.0033 121.716 47.0063 121.532 46.981C120.803 46.881 120.531 47.1468 120.588 47.906C120.657 48.8342 120.595 49.7717 120.6 50.7051C120.603 51.1241 120.563 51.455 119.991 51.3687C119.595 51.3091 119.17 51.4061 119.172 50.767C119.182 47.9357 119.162 45.1042 119.152 42.2728C119.15 41.6347 119.54 41.529 120.082 41.5343C121.867 41.5514 123.653 41.5407 125.438 41.5407C125.438 41.5304 125.438 41.5202 125.438 41.5101ZM126.782 44.2729C126.736 42.7253 127.078 42.9049 125.39 42.9176C125.14 42.9195 124.889 42.9387 124.639 42.9429C124.024 42.9535 124.124 43.4247 124.185 43.7515C124.317 44.4473 123.675 45.4854 124.603 45.7941C126.209 46.3282 126.779 45.8328 126.782 44.2729ZM130.342 44.3676C130.321 42.8671 130.237 42.7954 128.704 42.9726C128.642 42.9798 128.58 42.9904 128.519 42.9922C128.207 43.0016 128.086 43.1697 128.089 43.4671C128.095 44.1145 128.087 44.7621 128.092 45.4096C128.093 45.6012 128.148 45.7437 128.37 45.8254C129.555 46.2606 130.358 45.7126 130.344 44.4601C130.344 44.4293 130.344 44.3984 130.342 44.3676ZM122.898 44.4521C122.798 42.6977 123.224 43.0376 121.312 43.0101C121.281 43.0096 121.249 43.0147 121.218 43.0133C120.803 42.9935 120.576 43.1454 120.597 43.603C120.62 44.1292 120.602 44.6574 120.604 45.1846C120.605 45.4358 120.609 45.6562 120.922 45.7755C122.147 46.2405 122.909 45.7395 122.898 44.4521Z" fill="black"/>
<path d="M124.351 52.9711C126.354 52.9711 128.358 52.9628 130.361 52.9772C130.847 52.9807 131.442 52.912 131.462 53.6592C131.484 54.4436 130.908 54.4313 130.354 54.4315C126.41 54.4326 122.465 54.4358 118.521 54.4359C118.334 54.4359 118.144 54.4301 117.96 54.4007C117.449 54.3189 117.336 53.9595 117.344 53.5105C117.353 53.0168 117.7 52.9876 118.059 52.987C120.156 52.9837 122.253 52.9854 124.351 52.9854C124.351 52.9806 124.351 52.9759 124.351 52.9711Z" fill="black"/>
<path d="M124.321 67.2934C126.326 67.2934 128.33 67.2919 130.335 67.2945C130.846 67.2951 131.427 67.2778 131.442 67.9815C131.456 68.6637 130.975 68.8345 130.357 68.8327C126.38 68.8213 122.402 68.8294 118.424 68.8202C117.933 68.819 117.391 68.8751 117.361 68.1076C117.336 67.4652 117.65 67.3146 118.214 67.3184C120.25 67.3322 122.286 67.3239 124.321 67.3239C124.321 67.3137 124.321 67.3035 124.321 67.2934Z" fill="black"/>
<path d="M124.329 38.3957C126.236 38.3957 128.143 38.3911 130.049 38.4003C130.357 38.4017 130.682 38.4156 130.968 38.5119C131.28 38.6169 131.469 38.892 131.443 39.2415C131.416 39.5981 131.18 39.7956 130.844 39.8642C130.662 39.9013 130.472 39.9092 130.285 39.9096C126.284 39.9186 122.283 39.9269 118.282 39.928C117.855 39.9281 117.406 39.9927 117.359 39.3153C117.317 38.6947 117.436 38.4006 118.14 38.4116C120.202 38.4435 122.266 38.423 124.329 38.423C124.329 38.414 124.329 38.4048 124.329 38.3957Z" fill="black"/>
<path d="M124.543 94.7543C122.601 94.7543 120.658 94.7603 118.716 94.7502C118.211 94.7476 117.651 94.7502 117.63 94.0317C117.607 93.2817 118.203 93.3006 118.69 93.2977C122.574 93.2744 126.459 93.2723 130.344 93.2617C130.876 93.2603 131.306 93.407 131.279 94.0314C131.251 94.6503 130.789 94.7547 130.277 94.7546C128.366 94.7541 126.454 94.7543 124.543 94.7543Z" fill="black"/>
<path d="M120.361 110.418C120.316 110.742 120.245 111.042 119.821 111.005C119.432 110.972 119.045 110.869 119.08 110.386C119.11 109.99 119.354 109.696 119.802 109.707C120.257 109.719 120.288 110.092 120.361 110.418Z" fill="black"/>
<path d="M120.344 112.65C120.335 113.102 120.023 113.178 119.702 113.186C119.366 113.194 119.071 113.088 119.095 112.663C119.122 112.203 119.417 112.005 119.84 112.012C120.259 112.019 120.268 112.385 120.344 112.65Z" fill="black"/>
<path d="M195.15 134.639C195.102 134.226 194.821 133.98 194.382 133.96C194.101 133.948 193.819 133.938 193.538 133.938C189.778 133.942 186.018 133.908 182.259 133.979C181.26 133.998 181.088 133.675 181.093 132.769C181.13 124.708 181.107 116.646 181.14 108.585C181.144 107.681 180.877 107.382 179.96 107.424C178.46 107.494 176.954 107.445 175.45 107.437C174.159 107.43 174.162 107.425 174.164 106.19C174.168 101.522 174.156 96.8527 174.185 92.1839C174.19 91.3882 173.944 91.0608 173.111 91.0751C171.044 91.1107 168.975 91.1091 166.909 91.0664C166.021 91.0481 165.677 91.3418 165.71 92.2584C165.778 94.0926 165.726 95.9308 165.768 97.7665C165.782 98.4001 165.577 98.6681 164.925 98.652C163.797 98.6243 162.669 98.6487 161.541 98.6419C160.365 98.6346 160.324 98.6662 160.327 99.8349C160.354 109.546 160.382 119.257 160.412 128.968C160.414 129.31 160.421 129.654 160.458 129.993C160.501 130.39 160.756 130.636 161.15 130.601C161.519 130.568 161.781 130.339 161.785 129.921C161.787 129.703 161.793 129.486 161.793 129.268C161.793 124.474 161.79 119.681 161.791 114.888C161.792 110.343 161.811 105.799 161.785 101.255C161.781 100.484 162.019 100.191 162.805 100.262C163.457 100.321 164.124 100.315 164.776 100.251C165.542 100.176 165.806 100.408 165.797 101.212C165.756 104.573 165.788 107.935 165.786 111.297C165.784 113.973 165.773 116.65 165.763 119.327C165.761 119.855 165.952 120.308 166.514 120.328C167.155 120.352 167.196 119.825 167.195 119.331C167.194 117.588 167.197 115.845 167.199 114.102C167.205 107.254 167.22 100.406 167.203 93.5589C167.202 92.9044 167.395 92.685 168.049 92.7083C169.27 92.7517 170.495 92.7756 171.714 92.7155C172.52 92.6757 172.695 92.9714 172.691 93.7259C172.659 99.3508 172.67 104.976 172.671 110.601C172.672 112.593 172.68 114.585 172.684 116.577C172.685 117.064 172.821 117.488 173.394 117.467C173.911 117.448 174.156 117.097 174.143 116.579C174.137 116.33 174.144 116.081 174.143 115.832C174.137 113.902 174.147 111.972 174.113 110.043C174.102 109.463 174.242 109.192 174.889 109.218C176.203 109.27 177.519 109.274 178.835 109.267C179.318 109.265 179.504 109.433 179.479 109.919C179.445 110.571 179.464 111.226 179.464 111.88C179.465 118.914 179.461 125.949 179.478 132.983C179.479 133.63 179.436 134.041 178.596 133.978C177.804 133.92 177.996 133.394 177.995 132.976C177.983 126.689 177.985 120.401 177.982 114.114C177.981 113.741 177.972 113.367 177.962 112.994C177.95 112.518 177.644 112.335 177.224 112.336C176.815 112.338 176.481 112.508 176.421 112.961C176.385 113.237 176.393 113.519 176.393 113.799C176.397 120.211 176.389 126.623 176.425 133.034C176.429 133.753 176.198 133.953 175.524 133.932C174.429 133.898 173.332 133.94 172.235 133.929C170.543 133.911 170.572 133.903 170.54 132.248C170.527 131.578 170.661 131.23 171.388 130.982C173.416 130.289 174.561 128.156 174.171 126.051C173.798 124.035 172.004 122.454 170.077 122.443C167.667 122.428 165.916 123.747 165.499 125.89C165.069 128.102 166.081 130.229 168.086 130.895C168.97 131.189 169.196 131.603 169.1 132.4C169.077 132.584 169.072 132.776 169.099 132.959C169.212 133.738 168.878 133.965 168.103 133.963C158.172 133.942 148.24 133.942 138.308 133.966C137.545 133.968 137.3 133.783 137.301 132.987C137.327 114.281 137.332 95.5742 137.31 76.8677C137.309 76.0183 137.56 75.8404 138.365 75.8473C143.158 75.8884 147.952 75.8786 152.746 75.8777C154.011 75.8774 154.009 75.864 154.01 77.1119C154.029 92.8614 154.048 108.611 154.068 124.36C154.069 124.609 154.063 124.86 154.089 125.107C154.132 125.524 154.352 125.843 154.793 125.825C155.178 125.809 155.395 125.516 155.416 125.126C155.436 124.753 155.44 124.379 155.44 124.006C155.469 108.319 155.505 92.632 155.504 76.9448C155.504 76.0607 155.776 75.8531 156.616 75.8623C157.44 75.8713 157.826 75.9707 157.817 76.956C157.764 82.8674 157.785 88.7795 157.783 94.6913C157.783 95.0335 157.784 95.3766 157.808 95.7176C157.846 96.2659 158.232 96.4681 158.707 96.4643C159.161 96.4606 159.47 96.2096 159.496 95.7163C159.506 95.53 159.506 95.343 159.506 95.1562C159.502 88.8377 159.5 82.5192 159.492 76.2007C159.489 74.2311 159.481 74.248 157.46 74.249C151.068 74.252 144.677 74.2285 138.286 74.2516C137.496 74.2545 137.28 74.0165 137.301 73.245C137.359 71.1299 137.327 69.0125 137.339 66.8959C137.346 65.7111 137.353 65.7025 138.594 65.7016C149.403 65.6948 160.212 65.6915 171.021 65.6858C171.365 65.6856 171.712 65.6947 172.053 65.6583C172.511 65.6095 172.84 65.333 172.829 64.8785C172.817 64.4085 172.468 64.184 171.993 64.182C171.805 64.1812 171.617 64.1766 171.43 64.1765C166.291 64.1748 161.153 64.1739 156.015 64.1718C150.156 64.1695 144.297 64.1664 138.439 64.163C137.875 64.1627 137.278 64.4835 137.282 63.3673C137.33 50.9483 137.223 22.5076 137.302 21.9804C137.529 20.4771 136.952 19.3156 135.958 18.2013C134.007 16.0138 132.154 13.7399 130.268 11.4951C128.261 9.10645 126.252 6.7201 124.273 4.30919C123.841 3.78322 123.444 3.64115 122.843 3.99729C122.118 4.42679 121.393 4.87423 120.62 5.20055C116.638 6.88097 113.366 10.1509 108.756 10.4351C108.437 10.4548 108.206 10.7187 108.183 11.0836C108.164 11.3949 108.271 11.6945 108.572 11.7557C109.674 11.979 110.831 12.1708 111.878 11.7201C113.107 11.1911 114.236 10.4367 115.428 9.81668C116.035 9.50069 116.601 9.07674 117.532 8.85419C115.016 11.2293 112.679 13.4325 110.348 15.6419C110.061 15.9142 109.806 15.814 109.497 15.6811C107.545 14.8407 105.584 14.0196 103.627 13.1887C102.905 12.8821 102.187 12.566 101.342 12.2C101.772 11.9348 102.083 12.0149 102.379 12.0164C103.318 12.0214 104.258 12.0347 105.198 12.039C105.74 12.0414 106.018 11.7229 106.026 11.226C106.034 10.7345 105.712 10.5153 105.226 10.526C105.038 10.5301 104.85 10.521 104.662 10.517C101.5 10.4495 98.3462 10.271 95.2113 9.83169C94.2137 9.69186 93.9988 9.88908 93.9977 10.9149C93.9943 14.3699 93.9799 17.8248 93.9948 21.2796C93.9975 21.8864 93.8286 22.301 93.3217 22.6961C90.7843 24.6734 88.2875 26.7021 85.7686 28.7032C85.4007 28.9956 85.2213 29.311 85.2233 29.8068C85.2521 36.7788 85.2585 43.751 85.2723 50.7231C85.2729 51.0341 85.2876 51.3452 85.3034 51.6559C85.3236 52.0514 85.5299 52.3042 85.9279 52.3511C86.3615 52.4023 86.6803 52.19 86.7735 51.7808C86.8621 51.3915 86.8804 50.9798 86.8807 50.578C86.8845 44.0416 86.8798 37.5053 86.8799 30.9689C86.8799 30.4799 86.8296 30.0139 87.3238 29.6321C89.3264 28.0852 91.2924 26.4916 93.2804 24.9259C93.4855 24.7644 93.6528 24.4844 93.964 24.5549C93.964 28.5154 93.9657 32.4625 93.9636 36.4094C93.9532 55.8941 93.9414 75.3788 93.9322 94.8635C93.9319 95.4546 93.9465 96.046 93.9696 96.6367C93.9879 97.1022 94.2566 97.4595 94.7012 97.4648C95.1948 97.4706 95.4664 97.095 95.4955 96.5962C95.5135 96.2858 95.5135 95.974 95.5137 95.6629C95.5264 75.369 95.5343 55.0749 95.552 34.781C95.5585 27.4044 95.5875 20.0276 95.6088 12.651C95.6102 12.1705 95.4599 11.5494 96.3549 11.9368C100.487 13.7255 104.623 15.5045 108.767 17.2662C109.238 17.4663 109.312 17.7674 109.31 18.2126C109.302 20.08 109.332 21.9476 109.332 23.815C109.334 51.3613 109.335 78.9075 109.332 106.454C109.331 115.294 109.308 124.133 109.324 132.973C109.325 133.742 109.105 134.023 108.319 133.978C107.101 133.908 105.876 133.878 104.656 133.916C103.925 133.939 103.766 133.651 103.774 132.991C103.808 130.19 103.799 127.389 103.804 124.588C103.806 123.101 103.804 121.613 103.804 119.99C104.384 120.332 104.851 120.58 105.289 120.872C105.744 121.175 106.083 121.13 106.392 120.667C106.706 120.195 106.567 119.812 106.154 119.544C104.136 118.236 102.108 116.943 100.069 115.666C99.6743 115.418 99.2506 115.358 98.9478 115.88C98.6684 116.361 98.8217 116.725 99.223 117.008C99.9377 117.512 100.636 118.058 101.409 118.456C102.009 118.764 102.17 119.146 102.168 119.774C102.153 124.194 102.15 128.614 102.194 133.033C102.202 133.812 101.91 133.971 101.216 133.969C93.6975 133.939 86.1783 133.925 78.6593 133.928C78.0401 133.928 77.8732 133.735 77.8768 133.127C77.9042 128.489 77.9036 123.852 77.8877 119.214C77.8859 118.716 78.0468 118.43 78.4704 118.166C79.7435 117.373 80.9889 116.536 82.2374 115.705C82.7035 115.394 83.2954 115.068 82.8615 114.39C82.4408 113.732 81.9195 114.041 81.4102 114.371C79.6539 115.511 77.8811 116.626 76.121 117.76C75.2543 118.319 74.3866 118.878 73.5488 119.478C73.1505 119.763 72.8883 120.144 73.2417 120.674C73.6021 121.214 73.9986 121.098 74.4365 120.803C74.8254 120.542 75.2289 120.302 75.6104 120.031C76.0629 119.709 76.2562 119.772 76.2558 120.361C76.2525 124.656 76.2577 128.951 76.2755 133.247C76.2775 133.756 76.1153 133.968 75.5751 133.963C72.2543 133.932 68.9333 133.928 65.6124 133.905C65.356 133.903 64.9995 133.993 64.9767 133.558C64.9574 133.191 65.2297 133.137 65.5167 133.042C68.46 132.068 69.5289 129.206 67.9279 126.62C66.9549 125.048 64.9258 124.203 63.2302 124.664C61.2395 125.204 59.8536 126.873 59.8373 128.75C59.8202 130.722 61.0456 132.431 62.8904 132.973C63.2029 133.065 63.5065 133.088 63.4653 133.531C63.4134 134.089 62.9821 133.929 62.6819 133.929C56.1028 133.936 49.5237 133.92 42.9447 133.943C42.1536 133.946 41.9611 133.687 41.9649 132.926C41.9957 126.794 41.9803 120.663 41.9868 114.531C41.9874 113.941 42.0006 113.306 41.2094 113.308C40.3967 113.311 40.4607 113.991 40.4603 114.549C40.4595 115.856 40.4773 117.164 40.4775 118.471C40.4783 123.264 40.467 128.058 40.4825 132.851C40.4846 133.527 40.4359 133.945 39.5519 133.94C38.6598 133.935 38.8173 133.415 38.8187 132.903C38.822 131.658 38.8269 130.413 38.8286 129.168C38.8363 123.161 38.857 117.154 38.8327 111.146C38.8296 110.399 39.0444 110.154 39.7814 110.203C40.6238 110.258 41.4725 110.219 42.3183 110.224C43.9264 110.234 43.9261 110.235 43.925 111.788C43.9244 112.629 43.9223 113.469 43.9261 114.309C43.9325 115.71 43.9506 117.11 43.9485 118.511C43.9476 119.085 44.2563 119.423 44.7811 119.444C45.3672 119.467 45.5695 119.045 45.5596 118.503C45.5511 118.036 45.5595 117.569 45.5598 117.102C45.564 110.877 45.5666 104.652 45.573 98.4271C45.5742 97.1908 45.5825 97.2328 46.7791 97.178C47.5001 97.1451 47.8323 97.3361 47.726 98.092C47.692 98.3339 47.7518 98.588 47.7596 98.8367C47.774 99.3008 48.0257 99.5133 48.477 99.5042C48.9272 99.4951 49.1703 99.267 49.1818 98.8106C49.2013 98.0329 49.2311 97.2552 49.24 96.4774C49.2475 95.8072 48.8938 95.5474 48.2278 95.5704C47.195 95.6061 46.1606 95.5962 45.1268 95.5969C43.9578 95.5977 43.8975 95.6477 43.8991 96.8049C43.904 100.447 43.8964 104.088 43.935 107.73C43.9423 108.424 43.7358 108.657 43.0335 108.637C41.4995 108.593 39.9635 108.621 38.4284 108.621C37.3001 108.622 37.2311 108.703 37.2328 109.861C37.2444 117.549 37.241 125.238 37.2786 132.925C37.2825 133.734 37.0816 133.985 36.2347 133.977C31.6609 133.938 27.0865 133.964 22.5124 133.969C22.2305 133.969 21.9486 133.987 21.6669 133.984C21.1618 133.979 20.8848 134.274 20.879 134.721C20.8732 135.162 21.1402 135.486 21.6323 135.517C22.0069 135.54 22.3832 135.545 22.7588 135.545C55.6866 135.552 88.6144 135.562 121.542 135.565C145.635 135.566 169.728 135.558 193.821 135.553C194.039 135.553 194.27 135.578 194.473 135.519C194.899 135.394 195.205 135.11 195.15 134.639ZM65.0053 130.135C65.0053 129.711 65.0272 129.337 65 128.967C64.9625 128.455 64.7625 128.055 64.1548 128.063C63.5585 128.07 63.335 128.435 63.3273 128.972C63.3179 129.624 63.3103 130.276 63.3246 130.928C63.3363 131.456 63.12 131.415 62.7672 131.196C61.5215 130.423 61.1263 128.759 61.9032 127.516C62.7638 126.139 64.3721 125.803 65.7158 126.72C67.0444 127.627 67.3931 129.23 66.5287 130.457C66.5108 130.483 66.4902 130.506 66.4701 130.53C66.1092 130.955 65.6874 131.641 65.2073 131.494C64.6833 131.333 65.1116 130.571 65.0053 130.135ZM124.898 133.969C123.678 133.921 122.456 133.918 121.235 133.919C120.77 133.919 120.574 133.774 120.577 133.272C120.594 129.787 120.594 126.302 120.575 122.818C120.573 122.298 120.807 122.186 121.252 122.19C122.504 122.203 123.758 122.222 125.009 122.192C125.554 122.179 125.697 122.377 125.689 122.894C125.662 124.636 125.679 126.379 125.679 128.121C125.681 128.121 125.683 128.121 125.685 128.121C125.685 129.801 125.664 131.482 125.696 133.161C125.708 133.764 125.518 133.994 124.898 133.969ZM127.749 133.936C127.167 133.954 127.211 133.551 127.211 133.17C127.211 131.427 127.211 129.684 127.211 127.941C127.221 127.941 127.23 127.941 127.24 127.941C127.24 126.292 127.233 124.642 127.245 122.993C127.247 122.656 127.077 122.206 127.703 122.175C128.334 122.144 128.211 122.588 128.212 122.935C128.225 126.359 128.23 129.783 128.236 133.206C128.236 133.553 128.265 133.92 127.749 133.936ZM134.423 133.948C133.464 133.916 132.184 134.362 131.64 133.719C131.169 133.162 131.483 131.936 131.478 131.006C131.463 128.61 131.469 126.213 131.453 123.817C131.45 123.256 131.645 122.487 130.72 122.505C129.888 122.522 130.026 123.235 130.026 123.779C130.022 126.767 130.03 129.754 130.025 132.742C130.024 133.091 130.106 133.465 129.847 133.872C129.574 133.592 129.637 133.365 129.638 133.157C129.648 129.453 129.657 125.75 129.679 122.047C129.688 120.655 129.602 120.556 128.222 120.558C123.93 120.565 119.638 120.567 115.347 120.571C115.065 120.572 114.783 120.578 114.501 120.579C113.983 120.58 113.642 120.833 113.613 121.341C113.58 121.924 113.995 122.181 114.512 122.193C115.702 122.222 116.895 122.247 118.083 122.19C118.832 122.153 119.099 122.323 119.086 123.142C119.037 126.44 119.052 129.74 119.092 133.038C119.101 133.738 118.89 133.966 118.198 133.956C116.068 133.927 113.937 133.914 111.808 133.963C111.023 133.982 110.816 133.747 110.82 132.969C110.857 123.477 110.867 113.984 110.867 104.492C110.866 76.0159 110.862 47.5393 110.834 19.0628C110.833 18.0912 111.074 17.3961 111.809 16.7104C115.347 13.4096 118.826 10.0463 122.325 6.70461C123.199 5.87005 123.213 5.8567 123.966 6.74787C127.714 11.1768 131.449 15.6157 135.201 20.0404C135.486 20.3762 135.594 20.7144 135.594 21.1401C135.589 51.7327 135.589 82.3255 135.592 112.918C135.593 119.516 135.609 126.114 135.62 132.712C135.621 133.955 135.625 133.989 134.423 133.948ZM169.779 125.95C169.261 125.961 168.953 126.274 168.928 126.767C168.892 127.48 168.928 128.197 168.927 128.913C168.926 129.091 169.004 129.31 168.823 129.428C168.622 129.559 168.482 129.359 168.336 129.259C167.234 128.499 166.762 127.258 167.126 126.087C167.509 124.852 168.475 124.12 169.766 124.086C170.928 124.055 172.11 124.933 172.513 126.128C172.879 127.214 172.418 128.47 171.353 129.232C171.161 129.368 170.959 129.645 170.704 129.503C170.453 129.363 170.609 129.05 170.593 128.815C170.573 128.536 170.588 128.255 170.588 127.975C170.602 127.975 170.615 127.975 170.628 127.975C170.628 127.571 170.656 127.165 170.622 126.764C170.579 126.272 170.316 125.939 169.779 125.95Z" fill="black"/>
</svg>
